<?xml version="1.0" encoding="UTF-8" standalone="no"?>
<!-- Created with Inkscape (http://www.inkscape.org/) -->

<svg
   width="14.455673mm"
   height="21.420137mm"
   viewBox="0 0 14.455673 21.420137"
   version="1.1"
   id="svg1"
   inkscape:version="1.3.2 (091e20e, 2023-11-25)"
   sodipodi:docname="broke.svg"
   xmlns:inkscape="http://www.inkscape.org/namespaces/inkscape"
   xmlns:sodipodi="http://sodipodi.sourceforge.net/DTD/sodipodi-0.dtd"
   xmlns="http://www.w3.org/2000/svg"
   xmlns:svg="http://www.w3.org/2000/svg">
  <sodipodi:namedview
     id="namedview1"
     pagecolor="#ffffff"
     bordercolor="#666666"
     borderopacity="1.0"
     inkscape:showpageshadow="2"
     inkscape:pageopacity="0.0"
     inkscape:pagecheckerboard="0"
     inkscape:deskcolor="#d1d1d1"
     inkscape:document-units="mm"
     inkscape:zoom="0.2102413"
     inkscape:cx="-309.16856"
     inkscape:cy="92.750567"
     inkscape:window-width="736"
     inkscape:window-height="480"
     inkscape:window-x="0"
     inkscape:window-y="25"
     inkscape:window-maximized="0"
     inkscape:current-layer="layer1" />
  <defs
     id="defs1" />
  <g
     inkscape:label="Layer 1"
     inkscape:groupmode="layer"
     id="layer1"
     transform="translate(-186.53126,-122.76667)">
    <g
       id="g11388"
       transform="matrix(0.25126038,0,0,0.25126038,363.08759,391.93199)">
      <path
         id="path3779"
         style="fill:#ff4401;stroke-width:0.941974;stroke-linecap:round;stroke-linejoin:round;paint-order:markers stroke fill"
         d="m -694.04855,-1057.5191 c 11.17952,-20.2539 32.65835,-12.9779 40.28845,-0.9034 7.63009,12.0745 10.50207,59.80178 5.18944,65.99032 -5.31263,6.18855 -40.21202,8.39565 -47.92692,1.8129 -7.7149,-6.58274 -8.7305,-46.64592 2.44903,-66.89982 z"
         sodipodi:nodetypes="zzzzz" />
      <path
         style="color:#000000;fill:#ffffff;stroke-linecap:round;stroke-linejoin:round;-inkscape-stroke:none;paint-order:markers stroke fill"
         d="m -682.25195,-1019.7852 c -1.05859,0.044 -1.90987,0.054 -2.69922,0.6485 -0.37762,0.2844 -0.37147,0.4737 -0.41602,0.6152 -0.0445,0.1416 -0.0657,0.2626 -0.0859,0.3945 -0.0404,0.264 -0.0653,0.5682 -0.084,0.9375 -0.0374,0.7387 -0.0468,1.7238 -0.0371,2.8946 0.0194,2.3416 0.11781,5.4127 0.25195,8.5332 0.13415,3.1205 0.30381,6.28753 0.46485,8.81248 0.16103,2.52495 0.28414,4.27031 0.42773,5.03711 l 0.13672,-0.16406 a 1.0001,1.0001 0 0 0 0.29102,0.8125 c 1.66741,1.11362 3.59102,1.24718 5.21289,1.04297 1.62187,-0.20422 2.96035,-0.72673 3.72265,-1.14063 a 1.0001,1.0001 0 0 0 0.21875,-0.16015 c 0.64336,-0.62045 0.58711,-1.23443 0.60352,-1.94532 0.0164,-0.71088 -0.0516,-1.55524 -0.16602,-2.51367 -0.22882,-1.91686 -0.65227,-4.28023 -1.05664,-6.60933 -0.40436,-2.3292 -0.78764,-4.6269 -0.93945,-6.3262 -0.0759,-0.8497 -0.0896,-1.557 -0.041,-1.9785 0.0135,-0.1169 0.0268,-0.1363 0.043,-0.1992 1.00902,-0.3163 2.26737,-0.6143 3.32227,-0.6602 0.56711,-0.025 1.06579,0.022 1.38867,0.1152 0.32289,0.093 0.41713,0.195 0.45117,0.2578 0.45071,0.8319 0.66284,2.4628 0.60157,4.3887 -0.0613,1.9259 -0.34762,4.1445 -0.64258,6.2656 -0.29496,2.12114 -0.60002,4.13606 -0.68164,5.74808 -0.0408,0.80602 -0.0338,1.50681 0.0996,2.13868 0.13337,0.63186 0.46881,1.36991 1.24414,1.62695 0.96527,0.32001 2.65391,0.64978 4.39843,0.69531 0.87227,0.0228 1.7485,-0.0266 2.55664,-0.22851 0.80815,-0.20194 1.60021,-0.56441 2.10743,-1.30664 0.28652,-0.41929 0.18396,-0.45601 0.19726,-0.56836 0.0133,-0.11236 0.0194,-0.21827 0.0234,-0.3418 0.008,-0.24705 0.006,-0.55646 -0.002,-0.93555 -0.016,-0.75818 -0.06,-1.78947 -0.12305,-3.00976 -0.12606,-2.44059 -0.3289,-5.6327 -0.54883,-8.8105 -0.21993,-3.1779 -0.45644,-6.3404 -0.64453,-8.7168 -0.0941,-1.1883 -0.17547,-2.1791 -0.23828,-2.8809 -0.0314,-0.3509 -0.0586,-0.6279 -0.0801,-0.8281 -0.0107,-0.1001 -0.0194,-0.1791 -0.0293,-0.25 -0.005,-0.035 -0.01,-0.068 -0.0195,-0.1172 -0.005,-0.025 -0.01,-0.052 -0.0273,-0.1094 -0.009,-0.029 -0.0185,-0.065 -0.0488,-0.1309 -0.0301,-0.066 -0.28173,-0.3613 -0.28516,-0.3652 -0.68962,-0.5531 -1.43054,-0.5881 -2.27734,-0.6289 -0.8468,-0.041 -1.80104,0.01 -2.75781,0.088 -1.91355,0.158 -3.93471,0.4316 -4.51367,0.4316 -0.72202,0 -3.32007,-0.298 -5.79297,-0.4668 -1.23645,-0.084 -2.46681,-0.1357 -3.52539,-0.092 z m 0.082,1.9981 c 0.92637,-0.038 2.10676,0.01 3.30664,0.088 2.39976,0.1637 4.77517,0.4726 5.92969,0.4726 1.04131,0 2.85088,-0.2867 4.67773,-0.4375 0.91343,-0.075 1.8068,-0.1172 2.49805,-0.084 0.50936,0.025 0.67476,0.099 0.82617,0.1406 0.0144,0.1483 0.0267,0.2649 0.0449,0.4687 0.0617,0.6895 0.14261,1.6773 0.23633,2.8614 0.18744,2.3682 0.42313,5.5263 0.64258,8.6972 0.21945,3.1709 0.42388,6.35637 0.54883,8.77541 0.0625,1.20952 0.10398,2.22787 0.11914,2.94727 0.007,0.32322 0.006,0.56238 0.002,0.74414 -0.13638,0.14194 -0.34895,0.30946 -0.81445,0.42578 -0.53941,0.13479 -1.26371,0.1896 -2.01758,0.16992 -1.50775,-0.0394 -3.17118,-0.37789 -3.82227,-0.59375 0.18337,0.0608 0.15162,0.17977 0.084,-0.14062 -0.0676,-0.3204 -0.0951,-0.90493 -0.0586,-1.625 0.0729,-1.44014 0.36742,-3.44101 0.66407,-5.57425 0.29664,-2.1332 0.5942,-4.4055 0.66015,-6.4785 0.0659,-2.073 -0.0539,-3.9501 -0.84179,-5.4043 -0.36167,-0.6675 -1.01085,-1.0411 -1.65235,-1.2265 -0.6415,-0.1855 -1.32637,-0.2222 -2.0332,-0.1915 -1.41366,0.062 -2.92116,0.4106 -4.11524,0.8086 -0.45996,0.1533 -0.7524,0.5297 -0.90039,0.8497 -0.14799,0.3199 -0.20906,0.6321 -0.24804,0.9707 -0.078,0.6772 -0.0468,1.467 0.0351,2.3847 0.16396,1.8354 0.55545,4.1546 0.96094,6.4903 0.40549,2.33564 0.82581,4.68662 1.04297,6.50581 0.10858,0.9096 0.16283,1.68964 0.15039,2.22852 -0.0104,0.44937 -0.0873,0.53114 0.006,0.46094 -0.54728,0.27267 -1.57824,0.69372 -2.80078,0.84765 -1.18093,0.1487 -2.4056,-0.0119 -3.4668,-0.57617 -0.0714,-0.56931 -0.21226,-2.0495 -0.35547,-4.29492 -0.15994,-2.50782 -0.32936,-5.66523 -0.46289,-8.77153 -0.13353,-3.1063 -0.23096,-6.1632 -0.25,-8.4628 -0.01,-1.1499 10e-4,-2.1129 0.0352,-2.7774 0.0112,-0.2212 0.0262,-0.346 0.041,-0.4902 0.14508,-0.032 0.54849,-0.1766 1.32813,-0.209 z"
         id="path3776" />
      <path
         style="color:#000000;fill:#ffffff;stroke-linecap:round;stroke-linejoin:round;-inkscape-stroke:none;paint-order:markers stroke fill"
         d="m -665.32031,-1051.5156 c -1.76535,-0.132 -3.58043,0.2362 -5.34571,1.2539 a 1.0001,1.0001 0 0 0 -0.10351,0.068 c -0.60656,0.4574 -1.32363,1.1768 -2.22461,1.7989 -0.90098,0.622 -1.90259,1.0793 -2.82617,1.0527 -0.52134,-0.015 -1.22334,-0.4724 -1.92578,-1.1484 -0.70244,-0.6761 -1.21404,-1.4812 -2.19336,-1.9375 -1.91633,-0.8929 -4.02264,-0.856 -6.03907,-0.2715 -2.01642,0.5845 -3.98113,1.704 -5.79492,3.0625 -3.62757,2.7169 -6.64551,6.3613 -7.99218,9.0547 -0.57812,1.1562 -1.96308,2.4779 -2.44141,4.373 -0.11445,0.4535 -0.0832,0.7863 -0.0566,1.2871 0.0266,0.5008 0.0839,1.1047 0.16406,1.7832 0.16028,1.357 0.41216,3.0071 0.69141,4.6153 0.27924,1.6081 0.58509,3.1681 0.86133,4.3476 0.13811,0.5898 0.26648,1.0819 0.39257,1.4649 0.0631,0.1914 0.12139,0.3512 0.21094,0.5254 0.0448,0.087 0.091,0.1784 0.20508,0.3066 0.11405,0.1282 0.3574,0.3871 0.8457,0.3652 a 1.0001,1.0001 0 0 0 0.0547,0 c 1.2313,-0.1232 2.3644,-0.2578 3.30664,-0.414 0.94224,-0.1563 1.6558,-0.2934 2.25977,-0.5938 a 1.0001,1.0001 0 0 0 0.10156,-0.061 c 0.34048,-0.2233 0.4765,-0.5369 0.54297,-0.7696 0.0665,-0.2327 0.0794,-0.4319 0.082,-0.6367 0.005,-0.4096 -0.0474,-0.8409 -0.12305,-1.332 -0.15126,-0.9822 -0.40674,-2.1816 -0.61719,-3.3926 -0.21044,-1.211 -0.37047,-2.4346 -0.34961,-3.3711 0.0209,-0.9365 0.26284,-1.4457 0.40235,-1.5469 a 1.0001,1.0001 0 0 0 0.37109,-0.5234 c 0.0102,-0.034 0.4241,-0.7668 1.04297,-1.4629 0.61887,-0.6961 1.44288,-1.4688 2.29688,-2.0859 0.854,-0.6171 1.74883,-1.0662 2.41211,-1.1895 0.66327,-0.1233 0.9788,-0.056 1.34765,0.4121 -0.0444,-0.056 0.19656,0.5688 0.23438,1.4082 0.0378,0.8395 -0.007,1.9117 -0.0879,2.9961 -0.16277,2.1689 -0.47266,4.2533 -0.47266,5.291 0,1.9955 0.0404,4.045 0.33594,6.086 l 0.084,-0.096 a 1.0001,1.0001 0 0 0 0.7793,0.9433 c 0.0428,0.01 0.0842,-0.016 0.12695,-0.012 l -0.002,0.022 a 1.0001,1.0001 0 0 0 0.10937,-0.033 c 2.30342,0.2016 4.59692,-0.8295 6.61719,-1.082 1.51924,-0.1899 3.94046,0.1485 6.37891,0.4824 2.43844,0.3339 4.89522,0.6771 6.9082,0.2285 0.81287,-0.1811 1.36779,-0.9053 1.58398,-1.6035 0.21619,-0.6982 0.2452,-1.4637 0.20899,-2.3262 -0.0724,-1.725 -0.45375,-3.8374 -0.83008,-5.9844 -0.37633,-2.147 -0.74905,-4.3233 -0.83008,-6.0312 -0.0405,-0.854 -0.003,-1.5912 0.10938,-2.1094 0.11246,-0.5182 0.2842,-0.7653 0.41211,-0.8594 0.49938,-0.3671 0.7331,-0.3466 1.17773,-0.1445 0.44463,0.2021 1.02649,0.7328 1.55664,1.457 1.06031,1.4485 1.93633,3.6141 2.21875,4.7188 0.11483,0.4491 0.0899,1.889 0.0977,3.6445 0.008,1.7556 0.10239,3.9072 0.67969,6.1738 0.18619,0.7311 0.64374,1.3481 1.22461,1.7071 0.58086,0.359 1.237,0.4838 1.89062,0.4922 1.30723,0.017 2.67813,-0.4172 3.9082,-1.0157 1.23849,-0.6025 2.03763,-1.7643 2.4336,-3.1113 0.39597,-1.347 0.44456,-2.9131 0.25195,-4.6152 -0.38522,-3.4043 -1.75624,-7.3689 -3.7832,-11.002 -2.02697,-3.6331 -4.70254,-6.9353 -7.83399,-8.9062 -1.56572,-0.9855 -3.28152,-1.6181 -5.04687,-1.75 z m -0.11133,1.9511 c 1.38201,0.1098 2.73949,0.6411 4.0918,1.4922 2.7046,1.7023 5.24411,4.7637 7.15429,8.1875 1.91019,3.4238 3.1987,7.2096 3.54297,10.252 0.17214,1.5212 0.103,2.8513 -0.18359,3.8262 -0.28659,0.9749 -0.73565,1.5583 -1.39063,1.8769 -1.02403,0.4982 -2.20042,0.8248 -3.00781,0.8145 -0.40369,-0.01 -0.69597,-0.089 -0.86523,-0.1934 -0.16927,-0.1046 -0.26267,-0.2046 -0.33789,-0.5 -0.51514,-2.0226 -0.60977,-3.9977 -0.61719,-5.6875 -0.007,-1.6898 0.12572,-3.0147 -0.16016,-4.1328 -0.36182,-1.4152 -1.25188,-3.6406 -2.54297,-5.4043 -0.64554,-0.8819 -1.38636,-1.6614 -2.34179,-2.0957 -0.95544,-0.4343 -2.19936,-0.3744 -3.18946,0.3535 -0.67671,0.4975 -1.01164,1.2546 -1.18359,2.0469 -0.17196,0.7923 -0.19768,1.6713 -0.15234,2.6269 0.0907,1.9113 0.48065,4.1337 0.85742,6.2832 0.37677,2.1496 0.74017,4.2326 0.80273,5.7227 0.0313,0.7451 -0.0253,1.3411 -0.12109,1.6504 -0.0958,0.3092 -0.0809,0.2378 -0.10938,0.2441 -1.41173,0.3146 -3.78312,0.071 -6.20117,-0.2597 -2.41805,-0.3312 -4.87994,-0.7367 -6.89844,-0.4844 -2.15391,0.2692 -4.08131,0.9015 -5.54101,1 -0.16835,-1.5879 -0.26172,-3.2005 -0.26172,-4.8438 0,-0.5173 0.29792,-2.8902 0.4668,-5.1406 0.0844,-1.1252 0.13605,-2.2538 0.0918,-3.2363 -0.0442,-0.9825 -0.0653,-1.8019 -0.66015,-2.5567 -0.82143,-1.0422 -2.14353,-1.3508 -3.28516,-1.1386 -1.14163,0.2122 -2.21862,0.8119 -3.2168,1.5332 -0.99818,0.7212 -1.90788,1.5767 -2.62109,2.3789 -0.71321,0.8022 -1.23047,1.4355 -1.46484,2.2168 l 0.37109,-0.5215 c -1.00337,0.7274 -1.20203,1.9324 -1.22852,3.1211 -0.0265,1.1887 0.15995,2.4997 0.37891,3.7598 0.21896,1.26 0.47521,2.4676 0.61133,3.3515 0.0544,0.3534 0.0723,0.5955 0.082,0.8028 -0.28936,0.092 -0.63046,0.2042 -1.29492,0.3144 -0.67436,0.1118 -1.57089,0.2089 -2.46485,0.3066 -0.0823,-0.2768 -0.17275,-0.5865 -0.27734,-1.0332 -0.2617,-1.1175 -0.56363,-2.6549 -0.83789,-4.2343 -0.27426,-1.5795 -0.5219,-3.205 -0.67578,-4.5078 -0.0769,-0.6515 -0.12947,-1.2232 -0.15234,-1.6543 -0.0229,-0.4312 0.0205,-0.7882 -0.004,-0.6915 0.27978,-1.1084 1.48938,-2.3615 2.29297,-3.9687 1.12185,-2.2437 4.04727,-5.8368 7.40234,-8.3496 1.67754,-1.2564 3.46308,-2.2506 5.15235,-2.7402 1.68926,-0.4897 3.24436,-0.4876 4.63867,0.1621 0.0639,0.03 0.84163,0.788 1.65039,1.5664 0.80876,0.7783 1.84015,1.6662 3.2539,1.707 1.58043,0.045 2.94364,-0.6634 4.01954,-1.4062 1.04749,-0.7233 1.86949,-1.5144 2.23437,-1.7989 1.43247,-0.8159 2.82522,-1.1262 4.19336,-1.0176 z"
         id="path3773" />
      <path
         style="fill:#000000;stroke-width:2;stroke-linecap:round;stroke-linejoin:round;paint-order:markers stroke fill"
         d="m -663.04566,-1016.0476 -0.14651,7.8196 10.40567,-7.2252 z"
         id="path3770"
         sodipodi:nodetypes="cccc" />
      <path
         style="color:#000000;fill:#ffffff;stroke-linecap:round;stroke-linejoin:round;-inkscape-stroke:none;paint-order:markers stroke fill"
         d="m -695.43945,-1021.7695 a 1,1 0 0 0 -0.64258,0.414 c -0.23865,0.3442 -0.3065,0.8342 -0.22266,1.1914 0.0838,0.3573 0.25196,0.6074 0.42578,0.8243 0.34764,0.4337 0.76883,0.7568 1.17383,1.0586 0.0225,0.017 0.0342,0.024 0.0566,0.041 -0.59475,0.098 -1.27961,0.1857 -1.97461,0.3711 -0.77675,0.2071 -1.6155,0.5143 -2.14453,1.3261 -0.52903,0.8118 -0.44887,1.9324 0.10938,3.0489 0.23981,0.4796 0.56229,0.7771 0.92187,1.1093 0.35958,0.3323 0.76132,0.6596 1.13477,0.9688 0.18195,0.1506 0.29963,0.2624 0.45703,0.3984 -0.46722,-0.1292 -0.97297,-0.2617 -1.5957,-0.6347 -0.83475,-0.5001 -1.66843,-1.1805 -2.22071,-1.8477 -0.55228,-0.6672 -0.76059,-1.2755 -0.71289,-1.6094 0.21328,-1.4929 1.48737,-3.6214 2.38672,-4.3965 a 1,1 0 0 0 0.10547,-1.4101 1,1 0 0 0 -1.41016,-0.1055 c -1.42391,1.2272 -2.74794,3.4426 -3.06054,5.6309 -0.17114,1.1979 0.40396,2.2643 1.15039,3.166 0.74643,0.9017 1.72809,1.6843 2.73437,2.2871 1.00628,0.6028 2.00782,1.0369 2.97656,1.1289 0.48437,0.046 1.00636,0.017 1.4961,-0.3027 0.48974,-0.3199 0.77734,-0.9626 0.77734,-1.5332 0,-0.432 -0.16312,-0.6674 -0.29687,-0.8614 -0.13376,-0.194 -0.28046,-0.3515 -0.43946,-0.5097 -0.31798,-0.3165 -0.69343,-0.6278 -1.07226,-0.9414 -0.37883,-0.3137 -0.7593,-0.6254 -1.05274,-0.8965 -0.29343,-0.2712 -0.49323,-0.5412 -0.49023,-0.5352 -0.38981,-0.7796 -0.29039,-0.9585 -0.22266,-1.0625 0.0677,-0.1039 0.40175,-0.329 0.98438,-0.4843 0.58262,-0.1554 1.33119,-0.2522 2.03906,-0.377 0.70787,-0.1248 1.39559,-0.1623 2.03906,-0.8047 0.22154,-0.2211 0.35202,-0.6531 0.31055,-0.9375 -0.0415,-0.2844 -0.1482,-0.4383 -0.23242,-0.5547 -0.16844,-0.2327 -0.3179,-0.3496 -0.48242,-0.4824 -0.32905,-0.2657 -0.71671,-0.5252 -1.07618,-0.793 -0.34555,-0.2574 -0.64467,-0.5212 -0.77734,-0.6777 a 1,1 0 0 0 -0.4043,-1.0449 1,1 0 0 0 -0.74804,-0.1621 z"
         id="path3767" />
      <path
         style="color:#000000;fill:#ffffff;stroke-linecap:round;stroke-linejoin:round;-inkscape-stroke:none;paint-order:markers stroke fill"
         d="m -651.56836,-1023.9414 a 1,1 0 0 0 -0.68164,0.3437 1,1 0 0 0 0.10352,1.4102 c 0.72738,0.6268 1.97609,1.4046 3.0957,2.3008 0.5598,0.4481 1.07263,0.9149 1.41601,1.3262 0.34339,0.4112 0.47469,0.7547 0.48047,0.8652 0.039,0.7446 -0.34193,1.7621 -1.05468,2.7871 -0.71276,1.025 -1.72268,2.0433 -2.73243,2.8418 -0.26254,0.2076 -0.43119,0.2313 -0.68945,0.4062 1.15695,-1.0644 2.46002,-2.3462 2.69141,-4.0742 0.16736,-1.2498 -0.1653,-2.3484 -0.93164,-2.9453 -0.76635,-0.5969 -1.66068,-0.6571 -2.47266,-0.6484 -0.56053,0.01 -1.03582,0.06 -1.51953,0.1035 0.0346,-0.036 0.0637,-0.053 0.0977,-0.09 0.19367,-0.2113 0.38102,-0.439 0.52929,-0.7441 0.14828,-0.3051 0.26505,-0.7498 0.11328,-1.2148 -0.15177,-0.4651 -0.53294,-0.7913 -0.91015,-0.9746 -0.37722,-0.1834 -0.7935,-0.281 -1.3125,-0.3497 a 1,1 0 0 0 -1.12305,0.8594 1,1 0 0 0 0.86133,1.1231 c 0.13825,0.018 0.14863,0.037 0.24805,0.059 -0.23854,0.2403 -0.55101,0.5116 -0.84766,0.7754 -0.16921,0.1504 -0.32282,0.2841 -0.48633,0.4921 -0.0818,0.1041 -0.18079,0.2214 -0.25391,0.4786 -0.0731,0.2571 -0.008,0.7914 0.2754,1.0742 0.71982,0.7186 1.513,0.5965 2.23632,0.5566 0.72333,-0.04 1.47876,-0.1417 2.11133,-0.1484 0.63257,-0.01 1.08031,0.1141 1.22461,0.2265 0.1443,0.1124 0.29173,0.2503 0.17774,1.1016 -0.10127,0.7563 -1.08274,1.9877 -2.17579,2.9883 -0.54652,0.5003 -1.09501,0.9551 -1.53711,1.3515 -0.22104,0.1983 -0.41441,0.377 -0.58789,0.5762 -0.17347,0.1992 -0.43554,0.355 -0.43554,0.9903 0,0.6064 0.4484,1.3527 1.04101,1.5625 0.59262,0.2097 1.10178,0.098 1.61524,-0.061 1.02692,-0.3172 2.15636,-1.0012 3.30078,-1.9062 1.14442,-0.9051 2.27465,-2.0308 3.13476,-3.2676 0.86012,-1.2369 1.48519,-2.5995 1.41016,-4.0332 -0.0428,-0.8179 -0.45827,-1.462 -0.94336,-2.043 -0.48509,-0.581 -1.08384,-1.1113 -1.70117,-1.6055 -1.23466,-0.9882 -2.60482,-1.8797 -3.03906,-2.2539 a 1,1 0 0 0 -0.72852,-0.2402 z"
         id="path3764" />
      <path
         style="color:#000000;fill:#ffffff;stroke-linecap:round;stroke-linejoin:round;-inkscape-stroke:none;paint-order:markers stroke fill"
         d="m -1182.1211,-439.18164 c -6.1349,0 -11.2676,4.31431 -11.2676,9.81055 0,5.49623 5.1327,9.8125 11.2676,9.8125 6.1349,0 11.2695,-4.31627 11.2695,-9.8125 0,-5.49624 -5.1346,-9.81055 -11.2695,-9.81055 z m 0,2 c 5.2074,0 9.2695,3.57393 9.2695,7.81055 0,4.23661 -4.0621,7.8125 -9.2695,7.8125 -5.2074,0 -9.2676,-3.57589 -9.2676,-7.8125 0,-4.23662 4.0602,-7.81055 9.2676,-7.81055 z"
         id="path3761"
         transform="rotate(37.551895)" />
      <path
         style="color:#000000;fill:#ffffff;stroke-linecap:round;stroke-linejoin:round;-inkscape-stroke:none;paint-order:markers stroke fill"
         d="m -675.4707,-993.23828 a 1,1 0 0 0 -0.72657,0.24219 1,1 0 0 0 -0.10156,1.41015 c 0.4129,0.47651 0.50839,0.80254 0.51172,1.00196 0.003,0.19941 -0.0585,0.37407 -0.31445,0.63867 -0.51181,0.52919 -1.82543,1.13877 -3.41797,1.49219 -1.59255,0.35341 -3.45491,0.50223 -5.08789,0.41992 -1.63299,-0.0823 -3.05206,-0.44942 -3.63477,-0.83789 -0.78494,-0.5233 -1.10256,-0.96359 -1.16797,-1.13477 -0.0654,-0.17118 -0.0725,-0.0883 0.0527,-0.22851 0.25053,-0.28033 1.4833,-0.76758 2.6914,-0.76758 0.94365,0 2.13798,0.29021 3.51563,-0.13867 a 1,1 0 0 0 0.6582,-1.25196 1,1 0 0 0 -1.25195,-0.6582 c -0.7587,0.23619 -1.68504,0.0488 -2.92188,0.0488 -1.59265,0 -3.1874,0.31892 -4.18359,1.43359 -0.49809,0.55733 -0.73243,1.48499 -0.42969,2.27734 0.30275,0.79236 0.95103,1.43285 1.92774,2.08399 1.18276,0.7885 2.81661,1.07983 4.64258,1.17187 1.82596,0.092 3.82715,-0.0667 5.62109,-0.46484 1.79394,-0.39811 3.38756,-0.98323 4.42383,-2.05469 0.51813,-0.53573 0.8903,-1.26369 0.87695,-2.0625 -0.0134,-0.7988 -0.38476,-1.56733 -1,-2.27734 a 1,1 0 0 0 -0.68359,-0.34375 z"
         id="path3758" />
      <path
         style="color:#000000;fill:#ffffff;stroke-linecap:round;stroke-linejoin:round;-inkscape-stroke:none;paint-order:markers stroke fill"
         d="m -662.26172,-993.05078 a 1,1 0 0 0 -1.25195,0.6582 1,1 0 0 0 0.65625,1.25196 c 1.37765,0.42888 2.57198,0.13867 3.51562,0.13867 1.20811,0 2.44088,0.48725 2.69141,0.76758 0.12526,0.14016 0.12009,0.0573 0.0547,0.22851 -0.0654,0.17118 -0.38303,0.61147 -1.16797,1.13477 -0.58271,0.38847 -2.00178,0.75557 -3.63477,0.83789 -1.63298,0.0823 -3.49534,-0.0665 -5.08789,-0.41992 -1.59254,-0.35342 -2.90811,-0.963 -3.41992,-1.49219 -0.25591,-0.2646 -0.31779,-0.43926 -0.31445,-0.63867 0.003,-0.19942 0.0988,-0.52545 0.51172,-1.00196 a 1,1 0 0 0 -0.10157,-1.41015 1,1 0 0 0 -1.41015,0.10156 c -0.61524,0.71001 -0.98665,1.47854 -1,2.27734 -0.0134,0.79881 0.35882,1.52677 0.87695,2.0625 1.03626,1.07146 2.62989,1.65658 4.42383,2.05469 1.79394,0.39811 3.79512,0.55688 5.62109,0.46484 1.82597,-0.092 3.46177,-0.38337 4.64453,-1.17187 0.9767,-0.65114 1.62304,-1.29163 1.92578,-2.08399 0.30275,-0.79235 0.0684,-1.72001 -0.42968,-2.27734 -0.99619,-1.11467 -2.59094,-1.43359 -4.1836,-1.43359 -1.23683,0 -2.16121,0.18736 -2.91992,-0.0488 z"
         id="path3755" />
      <path
         style="fill:#000000;stroke-width:2;stroke-linecap:round;stroke-linejoin:round;paint-order:markers stroke fill"
         d="m -684.72593,-1016.1357 0.11117,8.6608 -10.37033,-8.0665 z"
         id="path3752"
         sodipodi:nodetypes="cccc" />
    </g>
  </g>
</svg>
