<?xml version="1.0" encoding="UTF-8"?>
<svg xmlns="http://www.w3.org/2000/svg" version="1.1" viewBox="0 0 200 200">
  <defs>
    <style>
      .cls-1 {
        fill: #fff;
      }
    </style>
  </defs>
  <!-- Generator: Adobe Illustrator 28.7.1, SVG Export Plug-In . SVG Version: 1.2.0 Build 142)  -->
  <g>
    <g id="Calque_3">
      <g id="bulle">
        <path class="cls-2" d="M192.98,98.25c.03-9.13-1.06-17.21-3.21-25.16-1.83-6.79-4.39-13.28-7.72-19.47-6.05-11.29-14.08-20.93-24.07-28.95-6.52-5.24-13.62-9.53-21.3-12.82-6-2.58-12.21-4.52-18.63-5.77-4.42-.86-8.87-1.46-13.35-1.66-9.9-.45-19.66.52-29.24,3.16-5.43,1.5-10.7,3.44-15.77,5.88-7.44,3.58-14.28,8.07-20.53,13.48-9.79,8.48-17.54,18.52-23.16,30.18-3.49,7.24-5.99,14.81-7.5,22.72-.88,4.59-1.41,9.22-1.62,13.88-.3,6.37.17,12.7,1.23,19,.8,4.78,1.96,9.46,3.5,14.05,1.79,5.34,4.06,10.48,6.79,15.41.28.5.3.9.09,1.45-2.58,6.69-5.11,13.39-7.67,20.09-2.84,7.43-5.73,14.84-8.51,22.3-1.19,3.21-.19,7.02,2.73,8.8,1.62.99,3.47,1.2,5.42.54,3.03-1.03,6-2.24,9-3.38,5.86-2.23,11.72-4.46,17.58-6.7,5.47-2.09,10.95-4.18,16.4-6.32.76-.3,1.35-.24,2.03.14,7.17,3.95,14.73,6.86,22.68,8.81,5.86,1.43,11.8,2.3,17.82,2.56,9.41.4,18.68-.63,27.8-3.05,6.9-1.83,13.5-4.4,19.78-7.76,11.67-6.24,21.59-14.58,29.75-25.01,8.82-11.27,14.71-23.93,17.72-37.91,1.36-6.37,2.08-12.82,1.97-18.45Z"/>
        <g>
          <circle class="cls-1" cx="154.26" cy="96.86" r="13.01"/>
          <circle class="cls-1" cx="102.23" cy="97.01" r="13.01"/>
          <circle class="cls-1" cx="50.2" cy="97.15" r="13.01"/>
        </g>
      </g>
    </g>
  </g>
</svg>