<?xml version="1.0" encoding="utf-8"?>
<!-- Generator: Adobe Illustrator 26.3.1, SVG Export Plug-In . SVG Version: 6.00 Build 0)  -->
<svg version="1.1" id="Calque_1" xmlns="http://www.w3.org/2000/svg" xmlns:xlink="http://www.w3.org/1999/xlink" x="0px" y="0px"
	 viewBox="0 0 823.67 230.28" style="enable-background:new 0 0 823.67 230.28;" xml:space="preserve">
<style type="text/css">
	.st0{fill:#FCF5EF;}
</style>
<g>
	<path d="M586.81,75.39c-2.23-0.07-13.29-0.89-23.98-1.69c-11.26-0.83-21.89-1.62-24.26-1.7l-3.45-0.11
		c-5.42-0.18-27.69,0.28-49.22,0.72c-19.62,0.4-39.91,0.82-44.28,0.68l-14.96-0.49c-0.04,0-0.08,0-0.12,0
		c-26.01,0.03-91.01-0.31-93.28-0.39c-0.07,0-0.15,0-0.22,0L74.2,80.03c-23.32,0.88-38.27,11.88-46.71,20.96
		c-10.42,11.22-16.89,25.95-17.74,40.42c-0.15,2.51-0.1,5.42,0.14,8.58c2.18-0.98,4.48-1.73,6.87-2.28
		c-0.11-2.16-0.12-4.15-0.02-5.9c0.76-12.88,6.54-26.02,15.88-36.07c7.54-8.11,20.91-17.95,41.81-18.73l258.7-7.61
		c4.01,0.09,67.28,0.41,93.33,0.39l14.91,0.49c4.56,0.15,24.04-0.25,44.66-0.68c21.44-0.44,43.61-0.9,48.85-0.73l3.45,0.11
		c2.23,0.07,13.28,0.89,23.97,1.68c11.26,0.83,21.89,1.62,24.27,1.7l56.39,1.86c0.28-2.36,0.68-4.69,1.19-6.96L586.81,75.39z"/>
	<path d="M806.41,127.54c-2.43,0.98-4.92,1.8-7.47,2.42c-0.84,4.07-2.32,8.29-3.78,12.41c-2.06,5.83-4.19,11.86-4.53,17.62
		c-0.13,2.17,0.35,3.99,0.82,5.74c0.49,1.84,0.94,3.57,0.8,5.97c-1.23,20.93-4.79,41.63-32.92,44.85l-12.41-0.41c-0.1,0-0.2,0-0.3,0
		c-8.45,0.45-15.97,1.36-23.25,2.25c-10.83,1.32-21.07,2.55-33.22,2.16c-18.97-0.63-38.55-1.5-57.49-2.34
		c-18.96-0.85-38.56-1.72-57.57-2.35c-0.77-0.03-4.03-0.48-6.91-0.88c-4.62-0.64-9.81-1.36-12.87-1.56
		c-3.21-1.53-9.86-3.03-11.04-3.07c-1.88-0.05-6.11,1.42-8.3,2.56c-16.98,1.98-35.88,1.36-54.16,0.76c-0.35-0.02-1.77-0.24-2.8-0.4
		c-2.26-0.35-4.81-0.75-6.38-0.8l-47.19-1.56c-1.23-0.04-6.42-1.09-10.74-2.08c-0.22-0.05-0.44-0.08-0.67-0.09
		c-0.87-0.03-2.18,0.2-5.42,0.8c-1.36,0.25-3.4,0.63-3.99,0.68l-1.98-0.06l-34.05-5.58c-0.15-0.02-0.3-0.04-0.45-0.04
		c-0.76-0.03-2.75-0.05-5.43-0.08c-7.32-0.08-26.78-0.3-29.38-0.96c-0.29-0.08-0.59-0.13-0.89-0.14
		c-12.4-0.41-15.63-1.12-16.33-1.32c-0.25-0.07-0.51-0.12-0.77-0.14c-0.56-0.08-2.56-0.6-3.9-0.94c-3.16-0.82-4.44-1.13-5.32-1.16
		l-2.3-0.08c-0.11,0-0.22,0-0.33,0L64.09,214.26c-0.23-0.01-0.46-0.04-0.7-0.05c-1.03,2.31-2.18,4.55-3.44,6.73
		c1.34,0.17,2.69,0.28,4.06,0.32c0.11,0,0.22,0,0.33,0l239.43-14.52l2.04,0.07c0.58,0.09,2.56,0.6,3.89,0.94
		c2.58,0.67,3.91,1,4.78,1.11c2.69,0.69,8.53,1.2,17.4,1.5c2.91,0.6,11.33,0.9,30.75,1.11c2.38,0.03,4.19,0.05,5.05,0.07l34.04,5.58
		c0.15,0.02,0.3,0.04,0.45,0.04l2.3,0.08c0.88,0.03,2.18-0.2,5.42-0.8c1.21-0.23,2.96-0.55,3.75-0.66
		c2.34,0.53,9.25,2.06,11.56,2.14l47.2,1.56c1.14,0.04,3.68,0.43,5.53,0.72c1.93,0.3,2.97,0.46,3.63,0.48
		c18.81,0.62,38.25,1.26,55.95-0.89c0.58-0.07,1.11-0.27,1.58-0.61c0.75-0.48,3.89-1.61,5.01-1.81c1.54,0.25,6.96,1.71,8.2,2.35
		c0.56,0.41,1.24,0.64,1.94,0.66c2.51,0.08,8.31,0.89,12.97,1.54c4.15,0.58,6.56,0.9,7.64,0.94c18.97,0.63,38.55,1.5,57.49,2.34
		c18.96,0.85,38.56,1.72,57.57,2.35c1.67,0.06,3.31,0.08,4.92,0.08c10.56,0,19.74-1.12,29.38-2.29c7.12-0.86,14.48-1.76,22.63-2.2
		l12.51,0.41c0.17,0,0.33,0,0.5-0.02c15.09-1.66,25.9-8.2,32.12-19.43c5.3-9.57,6.63-21.03,7.27-31.99c0.21-3.52-0.47-6.1-1.02-8.17
		c-0.37-1.39-0.66-2.49-0.6-3.54c0.28-4.77,2.16-10.08,4.14-15.7C803.74,139.11,805.76,133.35,806.41,127.54z"/>
	<path d="M552.1,219.55c0.04,0.04,0.09,0.08,0.15,0.12C552.2,219.63,552.15,219.59,552.1,219.55z"/>
	<path d="M315.26,201.91c0.02,0,0.05,0,0.07,0C315.3,201.91,315.28,201.91,315.26,201.91z"/>
</g>
<g>
	<path class="st0" d="M676.22,75.49c7.59-3.47,16.66-0.1,20.26,7.54c3.62,7.68,0.13,17.03-7.64,20.47
		c-7.76,3.43-16.95,0.03-20.24-7.51C665.08,87.96,668.38,79.08,676.22,75.49z M688.98,86.74c-1.63-3.7-5.77-5.5-9.29-4.04
		c-3.37,1.39-5.11,5.97-3.63,9.55c1.48,3.57,5.84,5.39,9.38,3.9C689.05,94.62,690.62,90.46,688.98,86.74z"/>
	<path class="st0" d="M15.59,190.48c-1.5,1.45-2.97,2.93-4.51,4.34c-1.6,1.47-3.26,1.64-5.04,0.19c-1.82-1.48-1.88-3.28-0.69-4.99
		c1.51-2.16,3.32-4.1,5-6.13c2.56-2.61,5.09-5.25,7.68-7.83c2.71-2.7,4.26-2.73,7.05-0.05c2.56,2.47,5.04,5.02,7.51,7.58
		c1.64,1.7,3,1.89,4.66-0.1c1.99-2.38,4.25-4.54,6.41-6.77c1.84-1.89,3.8-1.74,5.55,0.03c1.73,1.75,1.36,3.69-0.16,5.36
		c-3.6,3.94-7.29,7.8-10.94,11.7c-2.36,2.51-4.64,1.59-6.69-0.32c-2.51-2.35-4.93-4.81-7.24-7.36c-1.79-1.98-3.27-2.46-5.01,0.01
		C18.11,187.67,16.8,189.04,15.59,190.48z"/>
	<path d="M660.37,62.84c-1.91-4.05-0.44-8.32,3.48-10.08c3.67-1.65,8.14-0.06,9.9,3.54c1.78,3.64,0.06,8.47-3.62,10.16
		C666.33,68.21,662.17,66.67,660.37,62.84z"/>
	<path d="M36.86,214.8c-4.05,1.91-8.32,0.44-10.08-3.48c-1.65-3.67-0.06-8.14,3.54-9.9c3.64-1.78,8.47-0.06,10.16,3.62
		C42.24,208.84,40.69,212.99,36.86,214.8z"/>
	<g>
		<g>
			<path d="M87.6,173.07c-0.39-1.11-1.74-4.03-1.74-4.27l-1.19-5.3c-0.32-1.58-0.47-3.24-0.71-4.82c-0.08-0.16-0.47-1.5-0.47-1.66
				v-0.55c0-2.21-0.08-4.59,0.47-6.72c0.16-1.11,1.42-5.93,1.74-6.96c-0.4-4.11,2.69-8.62,5.38-11.23c0-0.16,0.47-0.47,0.55-0.55
				c0.79-0.47,0.79-0.71,1.5-1.19c2.77-2.13,6.88-2.45,10.12-2.45c1.66,0,3.48,0.4,5.14,0.79c3.72,0.95,7.83,2.21,9.09,6.33
				c0.55,1.82,1.34,3.16,1.34,5.14c0,0.47-0.16,0.95-0.16,1.5c0,0.24,0.16,0.47,0.16,0.79c0,2.53-2.21,4.59-4.51,4.59
				c-2.69,0-6.25-0.79-6.96-4.03c-0.16-0.24-0.63-2.85-0.63-3.08c-0.16-0.71-0.71-0.71-1.27-0.71c-0.08,0-0.08,0-0.16,0
				c-3.08,0-6.09,1.5-7.99,4.11c-0.24,0.32-0.16,0.4-0.24,0.79c0,0.08,0,0.4-0.08,0.47c-1.03,1.9-1.5,7.67-1.5,9.65v1.42
				c-0.87,15.58,10.28,23.01,14.39,9.33c0.08-0.32,0.16-0.63,0.24-0.87c0.87-2.77,1.11-3.48,4.27-3.48c3,0,5.93,0.24,7.51,3.24
				c0.16,0.32,0.16,0.4,0.16,0.71c0,0.4-0.47,1.82-2.06,5.69c-0.4,1.58-1.11,2.93-1.82,4.27c-0.63,1.03-1.03,2.37-1.82,3.32
				c-3.08,3.8-7.99,4.82-12.49,4.82c-2.85,0-5.22-0.79-7.75-1.9c-3.32-1.42-5.61-3.64-8.07-6.4
				C88.08,173.78,87.68,173.23,87.6,173.07z M89.34,157.81c0-0.08,0.08-1.19,0.08-1.42c0-0.55,0.08-1.42-0.16-2.21l-0.08,0.24
				c0,0-0.08,0.71-0.08,0.87C89.11,156.15,89.11,156.94,89.34,157.81z M89.26,153.77v-0.32l-0.08,0.16L89.26,153.77z M101.52,132.19
				c0.08,0,0.32-0.08,0.32-0.32v-0.08c-0.08,0-0.16-0.08-0.24-0.08h-0.08c-0.08,0-0.32,0.08-0.32,0.08l-0.08,0.08
				C101.12,132.11,101.36,132.19,101.52,132.19z M105.24,179.08h0.16c0-0.24,0.32-0.79,0.32-1.11v-0.08c-0.08,0-0.95,0-0.95,0.47
				C104.76,178.68,104.92,179.08,105.24,179.08z M113.62,143.02v0.08c0.16-0.08,0.47-0.24,0.47-0.4s0-0.32-0.24-0.4
				C113.62,142.47,113.62,142.78,113.62,143.02z M114.8,168.8c0.08,0,0.08-0.08,0-0.08S114.72,168.88,114.8,168.8z"/>
			<path d="M140.26,180.66c-2.69-0.71-5.93-1.58-8.14-3.48c-5.54-4.9-7.12-12.97-7.12-20c0-0.24,0.08-0.79,0.08-0.87
				c0.32-3.32,0.71-6.96,1.34-10.2c-0.24-0.71,1.11-3.16,1.34-3.87c1.03-3.32,1.66-7.2,4.03-9.8c0.47-0.47,2.45-2.45,2.85-2.93
				c1.34-0.47,2.53-1.58,3.8-2.21c0.32,0.08,0.4-0.08,0.71-0.16c1.98-0.47,3.72-0.79,5.69-0.79c7.59,0,13.76,2.77,16.68,9.88
				c0.39,0.71,1.19,1.5,1.42,2.37c0,0.08,0.08,0.4,0.16,0.55c0.16,0.87,0.32,1.98,0.55,2.85c0.24,0.47,0.55,1.11,0.63,1.66
				c0.32,3.08,0.95,6.17,0.95,9.33c0,0.4-0.08,0.87-0.32,1.19v1.03c0,0.95,0.08,1.9,0.08,2.77c0,2.37-0.79,4.74-1.26,7.04
				c-0.47,2.06-1.42,3.95-2.21,5.85c-0.47,1.34-0.87,2.69-1.74,3.8c-3.4,4.27-8.38,6.4-13.76,6.4h-0.4c-0.71,0-4.19-0.16-4.98-0.24
				C140.58,180.82,140.34,180.66,140.26,180.66z M132.12,130.84c0-0.08,0.24-0.08,0.16,0C132.28,131,132.2,131,132.12,130.84z
				 M138.13,161.52c0.87,3.56,3.16,9.49,7.51,9.49c0.79,0,1.11-0.24,2.13-0.55c2.61-1.11,2.93-2.13,3.56-4.35
				c0.08-0.24,0.08-0.4,0.16-0.63l0.63-2.21c0.24-1.19,0.16-2.53,0.16-3.64c0-4.9-0.08-9.65-1.34-14.47
				c-0.55-1.9-2.21-6.17-4.11-7.2c-0.39-0.32-1.26-0.32-1.66-0.32c-4.51,0-6.33,4.59-7.35,8.14c-0.32,1.27-0.32,2.69-0.71,3.95
				c0,0-0.32,0.16-0.32,0.24v0.47c0,1.98,0.55,3.95,0.4,6.01C137.73,157.09,137.89,160.65,138.13,161.52z M140.26,178.29h0.16
				l-0.16-0.16V178.29z M141.21,169.83h0.24c-0.16-0.24-0.32-0.4-0.63-0.4C140.82,169.75,140.98,169.83,141.21,169.83z
				 M141.61,170.3h0.16l-0.16-0.16V170.3z M151.26,177.02c0.08,0,0.08-0.24,0-0.24C151.1,176.78,151.1,177.02,151.26,177.02z
				 M152.12,176.31c-0.08,0-0.08,0.08-0.08,0.16h0.08c0,0,0.08-0.08,0.08-0.16v-0.08L152.12,176.31z M158.77,140.81v-0.08
				c0-0.16-0.16-0.47-0.32-0.47C158.45,140.49,158.61,140.73,158.77,140.81z M159.32,163.66h0.16v-0.32
				C159.4,163.42,159.32,163.5,159.32,163.66z"/>
			<path d="M170.94,175.99v-2.85c0-0.16-0.32-0.95-0.32-1.03c-0.63-2.69-0.47-5.46-0.47-8.22c0-5.85,0.24-11.47,0.16-17.4
				c0.08-0.24,0.24-1.5,0.24-1.74c0-0.4-0.16-3.72-0.24-4.11c0-1.34-0.32-2.61-0.32-4.03v-1.82c0-0.24,0.16-2.13,0.16-2.37v-3.32
				c0.16-2.61,3.87-2.53,5.85-2.53c0.16,0,0.32,0,0.47,0c0.47,0,0.87,0.08,1.34,0.08c1.11,0,2.29-0.08,3.32-0.08
				c1.82,0,3.24,0.55,4.27,2.06c0.71,1.11,0.95,2.45,1.5,3.56c0.87,2.21,1.9,4.35,2.77,6.56c0.95,2.06,1.82,3.8,2.93,5.85
				c1.82,3.48,3.88,6.96,6.01,10.36c0.55,0.95,0.63,1.98,1.34,2.93v0.4h0.16c0.08,0,0.32-3,0.32-3.87c0-0.47-0.24-0.47-0.24-1.03
				c0.16,0,0.32,0.08,0.32,0.24c0.08,0,0.16-0.16,0.16-0.16c0-0.08-0.08-0.32-0.16-0.32v-2.21l-0.24-0.47c0,0-0.24-1.34-0.32-1.82
				c-0.55-3.72-0.63-7.59-0.63-11.23h0.16c0.08,0,0.16,0.79,0.16,1.19c0.08,0.16,0,1.19,0,1.34c0.08,0.32,0.16,1.5,0.24,1.74h0.08
				v-3.87c0-0.63-0.55-0.71-0.55-1.42c0.32,0,0.47,0.24,0.55,0.47v-2.29h-0.47c0,0-0.08-1.82-0.16-2.61v-0.08
				c0-1.03,0.24-2.29,0.63-3.24c0-0.08,0.24-0.55,0.32-0.55c0.24-0.47,0.24-1.42,0.47-1.42h0.08c0.08,0,0.16,0.16,0.24,0.16
				c0.32,0,0.95-0.24,1.34-0.4c0.16,0,1.19-0.08,1.42-0.08c0.32,0,1.34,0.08,1.42,0.08c0.16,0,2.45,0.24,3.16,0.24
				c1.74,0.24,2.77,1.19,3.72,2.61v0.16c0,1.66-0.24,3.32-0.47,4.9v0.79c0,0.08-0.08,0.63-0.16,0.71c0.08,4.11-0.24,8.22-0.24,12.34
				v0.95c0.47,7.43,1.82,14.94,1.82,22.46c0,0.32,0.08,0.71-0.24,0.95c0.08,2.61-0.08,5.06-0.55,7.59l-0.16,0.16h-0.08l-0.95-0.55
				h-0.47l-1.34,0.4h-2.69c-2.37,0-3.95-0.32-6.17-0.79c-0.79-0.16-1.98,0.08-2.61-0.32c-0.79-0.47-1.42-1.82-1.82-2.69
				c-0.08-0.4-1.11-3.48-1.34-3.95l-2.06-4.27c-0.4-0.87-1.03-1.58-1.58-2.45c-2.37-4.67-5.14-9.17-7.59-13.84l-0.32-0.32v6.96
				c0.32,0.95,0.32,2.45,0.47,3.48V162c0,0.08-0.16,0.79-0.16,0.95v0.16l0.16,0.24c0.08,3.16,0.16,6.25,0.47,9.41
				c0.16,1.5,0.39,3.24,0.39,4.82v1.11c-1.58,1.82-4.19,1.34-6.33,1.58c-0.87,0.08-1.98,0.4-2.85,0.4c-1.03,0-4.19-0.32-4.19-1.98
				C171.1,178.29,170.94,176.39,170.94,175.99z M179.09,176.94h0.16v-0.47h-0.16V176.94z M183.12,147.61v-0.16h-0.16L183.12,147.61z
				 M199.65,135.27c0.08,0.08,0.16,0.24,0.24,0.24v0.16l-0.4-0.24L199.65,135.27z M199.88,131.95h0.24v-0.32
				C199.96,131.71,199.88,131.79,199.88,131.95z M199.88,134.16h0.08v-0.71L199.88,134.16z M199.96,132.98c0.16,0,0.16-0.24,0-0.24
				C199.88,132.74,199.88,132.98,199.96,132.98z M200.28,151.96c-0.08,0-0.08-0.55,0-0.47S200.36,151.88,200.28,151.96z
				 M200.44,137.01c0.08,0,0.08-0.16,0-0.16S200.36,137.09,200.44,137.01z M200.44,138.75c0.08-0.16,0.08-0.79,0-0.95
				S200.36,138.91,200.44,138.75z M201.62,134.95l0.16-0.16v-1.98h-0.16V134.95z M201.78,132.42c0.08-0.08,0.08-0.16,0-0.24
				C201.7,132.19,201.7,132.42,201.78,132.42z M205.34,138.35c0.16,0,0.16-0.24,0-0.24C205.26,138.12,205.26,138.35,205.34,138.35z
				 M213.01,172.99c-0.08,0-0.08-0.16,0-0.16C213.17,172.83,213.17,172.91,213.01,172.99z M213.25,173.54c-0.24,0-0.24-0.24,0-0.24
				C213.41,173.3,213.41,173.54,213.25,173.54z"/>
			<path d="M219.1,175.99v-2.85c0-0.16-0.32-0.95-0.32-1.03c-0.63-2.69-0.47-5.46-0.47-8.22c0-5.85,0.24-11.47,0.16-17.4
				c0.08-0.24,0.24-1.5,0.24-1.74c0-0.4-0.16-3.72-0.24-4.11c0-1.34-0.32-2.61-0.32-4.03v-1.82c0-0.24,0.16-2.13,0.16-2.37v-3.32
				c0.16-2.61,3.87-2.53,5.85-2.53c0.16,0,0.32,0,0.47,0c0.47,0,0.87,0.08,1.34,0.08c1.11,0,2.29-0.08,3.32-0.08
				c1.82,0,3.24,0.55,4.27,2.06c0.71,1.11,0.95,2.45,1.5,3.56c0.87,2.21,1.9,4.35,2.77,6.56c0.95,2.06,1.82,3.8,2.93,5.85
				c1.82,3.48,3.88,6.96,6.01,10.36c0.55,0.95,0.63,1.98,1.34,2.93v0.4h0.16c0.08,0,0.32-3,0.32-3.87c0-0.47-0.24-0.47-0.24-1.03
				c0.16,0,0.32,0.08,0.32,0.24c0.08,0,0.16-0.16,0.16-0.16c0-0.08-0.08-0.32-0.16-0.32v-2.21l-0.24-0.47c0,0-0.24-1.34-0.32-1.82
				c-0.55-3.72-0.63-7.59-0.63-11.23h0.16c0.08,0,0.16,0.79,0.16,1.19c0.08,0.16,0,1.19,0,1.34c0.08,0.32,0.16,1.5,0.24,1.74h0.08
				v-3.87c0-0.63-0.55-0.71-0.55-1.42c0.32,0,0.47,0.24,0.55,0.47v-2.29h-0.47c0,0-0.08-1.82-0.16-2.61v-0.08
				c0-1.03,0.24-2.29,0.63-3.24c0-0.08,0.24-0.55,0.32-0.55c0.24-0.47,0.24-1.42,0.47-1.42h0.08c0.08,0,0.16,0.16,0.24,0.16
				c0.32,0,0.95-0.24,1.34-0.4c0.16,0,1.19-0.08,1.42-0.08c0.32,0,1.34,0.08,1.42,0.08c0.16,0,2.45,0.24,3.16,0.24
				c1.74,0.24,2.77,1.19,3.72,2.61v0.16c0,1.66-0.24,3.32-0.47,4.9v0.79c0,0.08-0.08,0.63-0.16,0.71c0.08,4.11-0.24,8.22-0.24,12.34
				v0.95c0.47,7.43,1.82,14.94,1.82,22.46c0,0.32,0.08,0.71-0.24,0.95c0.08,2.61-0.08,5.06-0.55,7.59l-0.16,0.16h-0.08l-0.95-0.55
				h-0.47l-1.34,0.4h-2.69c-2.37,0-3.95-0.32-6.17-0.79c-0.79-0.16-1.98,0.08-2.61-0.32c-0.79-0.47-1.42-1.82-1.82-2.69
				c-0.08-0.4-1.11-3.48-1.34-3.95l-2.06-4.27c-0.4-0.87-1.03-1.58-1.58-2.45c-2.37-4.67-5.14-9.17-7.59-13.84l-0.32-0.32v6.96
				c0.32,0.95,0.32,2.45,0.47,3.48V162c0,0.08-0.16,0.79-0.16,0.95v0.16l0.16,0.24c0.08,3.16,0.16,6.25,0.47,9.41
				c0.16,1.5,0.4,3.24,0.4,4.82v1.11c-1.58,1.82-4.19,1.34-6.33,1.58c-0.87,0.08-1.98,0.4-2.85,0.4c-1.03,0-4.19-0.32-4.19-1.98
				C219.26,178.29,219.1,176.39,219.1,175.99z M227.24,176.94h0.16v-0.47h-0.16V176.94z M231.28,147.61v-0.16h-0.16L231.28,147.61z
				 M247.8,135.27c0.08,0.08,0.16,0.24,0.24,0.24v0.16l-0.4-0.24L247.8,135.27z M248.04,131.95h0.24v-0.32
				C248.12,131.71,248.04,131.79,248.04,131.95z M248.04,134.16h0.08v-0.71L248.04,134.16z M248.12,132.98c0.16,0,0.16-0.24,0-0.24
				C248.04,132.74,248.04,132.98,248.12,132.98z M248.43,151.96c-0.08,0-0.08-0.55,0-0.47S248.51,151.88,248.43,151.96z
				 M248.59,137.01c0.08,0,0.08-0.16,0-0.16S248.51,137.09,248.59,137.01z M248.59,138.75c0.08-0.16,0.08-0.79,0-0.95
				S248.51,138.91,248.59,138.75z M249.78,134.95l0.16-0.16v-1.98h-0.16V134.95z M249.94,132.42c0.08-0.08,0.08-0.16,0-0.24
				C249.86,132.19,249.86,132.42,249.94,132.42z M253.49,138.35c0.16,0,0.16-0.24,0-0.24C253.42,138.12,253.42,138.35,253.49,138.35
				z M261.16,172.99c-0.08,0-0.08-0.16,0-0.16C261.32,172.83,261.32,172.91,261.16,172.99z M261.4,173.54c-0.24,0-0.24-0.24,0-0.24
				C261.56,173.3,261.56,173.54,261.4,173.54z"/>
			<path d="M266.38,163.89c0-0.16-0.08-3.32-0.08-4.59c0-3.16,0.32-6.88,0.24-9.96c0.55-7.12,1.03-14.79,0.87-21.98
				c0.24-0.32,0.95-0.95,1.34-1.03c2.06,0.71,4.67,0.47,6.8,0.47c3.72,0,7.35-0.4,11.07-0.4c2.45,0,4.98,0.24,7.35,0.4l6.41,0.55
				c2.45,0.24,3.08,2.69,3.08,4.74c0,1.03-0.24,7.27-2.29,7.27h-14.39c-1.34-0.24-2.61-0.16-4.03-0.16c-1.27,0-2.69,0.32-3.95,0.16
				c-0.24,0.24-0.55,4.9-0.55,5.06v0.08l0.08,0.16l-0.08,0.08c0,0.32-0.16,1.5-0.16,1.82c0,0.16-0.24,0.79-0.16,0.95
				c0,0.16,0.24,0.79,0.32,0.87c0.4,0.24,0.63,0.16,1.11,0.16l9.96,0.63h3.32c0.32,0,1.98,0.16,2.21,0.24
				c1.58,1.11,1.9,3.72,1.9,5.46c0,2.14-0.63,3.56-2.13,4.9c-0.16,0.16-0.47,0.32-0.47,0.55l-15.5-0.32l-0.4,0.08v0.32
				c0,2.69,0.08,5.54,0.24,8.3c0.08,0.24,0.16,1.03,0.16,1.03l0.95,0.08h7.35c0.16,0,1.5,0.24,1.58,0.24c0.55,0,4.9-0.08,5.46,0
				c2.37,0,6.33-0.79,7.51,2.06c0.24,0.47,0.71,1.82,0.79,1.98v0.79c0,1.27-0.47,6.48-2.45,6.88h-3.72
				c-6.01,0-11.94-0.63-17.87-0.63c-2.45,0-4.82,1.03-7.27,1.03h-0.16c-0.32-0.08-1.66-0.4-1.9-0.4c-0.63-0.24-1.66-0.71-1.66-1.5
				C267.1,177.81,266.46,166.35,266.38,163.89z M267.25,148.4c0.16,0,0.16-0.32,0-0.32S267.1,148.4,267.25,148.4z M272.31,134.32
				c0.24-0.24,0.24-0.47,0.24-0.71c0-0.4-0.16-0.71-0.4-1.11v0.47C272.16,133.53,272.16,133.77,272.31,134.32z M278.09,156.38h0.16
				v-0.63h-0.16V156.38z M278.64,177.89h0.47v-0.55C278.8,177.34,278.64,177.49,278.64,177.89z M279.83,157.57
				c0.16,0,0.16-0.32,0-0.32C279.75,157.25,279.75,157.57,279.83,157.57z M283.62,136.38c0.16,0,0.16-0.32,0-0.32
				S283.46,136.38,283.62,136.38z M285.12,173.94c0,0,0.79,0.16,1.03,0.16c0.08,0,0.55-0.08,0.55-0.32h-1.58V173.94z M285.76,129.66
				c0.08-0.08,0.08-0.16,0-0.24C285.6,129.42,285.6,129.66,285.76,129.66z M289.79,134.32c0.16,0,0.16-0.32,0-0.32
				S289.63,134.32,289.79,134.32z M292.64,134.72c0,0.16,0.24,0.16,0.32,0C292.95,134.64,292.64,134.64,292.64,134.72z
				 M294.45,134.88h1.5v-0.16h-1.66L294.45,134.88z M296.75,177.73c0.08,0,0.24,0,0.32,0c1.34,0,2.53,0,2.53-1.66
				c-0.55,0-1.03,0.87-1.27,1.19h-1.5c-0.08,0-0.55,0.08-0.63,0.24C296.27,177.81,296.75,177.73,296.75,177.73z M299.12,174.25
				c0-0.4-0.47-0.4-0.79-0.47c-0.32-0.08-1.03-0.16-1.11-0.16l-0.08,0.16C297.7,174.17,298.49,174.25,299.12,174.25z"/>
			<path d="M307.5,173.07c-0.39-1.11-1.74-4.03-1.74-4.27l-1.19-5.3c-0.32-1.58-0.47-3.24-0.71-4.82c-0.08-0.16-0.47-1.5-0.47-1.66
				v-0.55c0-2.21-0.08-4.59,0.47-6.72c0.16-1.11,1.42-5.93,1.74-6.96c-0.4-4.11,2.69-8.62,5.38-11.23c0-0.16,0.47-0.47,0.55-0.55
				c0.79-0.47,0.79-0.71,1.5-1.19c2.77-2.13,6.88-2.45,10.12-2.45c1.66,0,3.48,0.4,5.14,0.79c3.72,0.95,7.83,2.21,9.09,6.33
				c0.55,1.82,1.34,3.16,1.34,5.14c0,0.47-0.16,0.95-0.16,1.5c0,0.24,0.16,0.47,0.16,0.79c0,2.53-2.21,4.59-4.51,4.59
				c-2.69,0-6.25-0.79-6.96-4.03c-0.16-0.24-0.63-2.85-0.63-3.08c-0.16-0.71-0.71-0.71-1.27-0.71c-0.08,0-0.08,0-0.16,0
				c-3.08,0-6.09,1.5-7.99,4.11c-0.24,0.32-0.16,0.4-0.24,0.79c0,0.08,0,0.4-0.08,0.47c-1.03,1.9-1.5,7.67-1.5,9.65v1.42
				c-0.87,15.58,10.28,23.01,14.39,9.33c0.08-0.32,0.16-0.63,0.24-0.87c0.87-2.77,1.11-3.48,4.27-3.48c3,0,5.93,0.24,7.51,3.24
				c0.16,0.32,0.16,0.4,0.16,0.71c0,0.4-0.47,1.82-2.06,5.69c-0.4,1.58-1.11,2.93-1.82,4.27c-0.63,1.03-1.03,2.37-1.82,3.32
				c-3.08,3.8-7.99,4.82-12.49,4.82c-2.85,0-5.22-0.79-7.75-1.9c-3.32-1.42-5.61-3.64-8.07-6.4
				C307.98,173.78,307.58,173.23,307.5,173.07z M309.24,157.81c0-0.08,0.08-1.19,0.08-1.42c0-0.55,0.08-1.42-0.16-2.21l-0.08,0.24
				c0,0-0.08,0.71-0.08,0.87C309,156.15,309,156.94,309.24,157.81z M309.16,153.77v-0.32l-0.08,0.16L309.16,153.77z M321.42,132.19
				c0.08,0,0.32-0.08,0.32-0.32v-0.08c-0.08,0-0.16-0.08-0.24-0.08h-0.08c-0.08,0-0.32,0.08-0.32,0.08l-0.08,0.08
				C321.02,132.11,321.26,132.19,321.42,132.19z M325.13,179.08h0.16c0-0.24,0.32-0.79,0.32-1.11v-0.08c-0.08,0-0.95,0-0.95,0.47
				C324.66,178.68,324.82,179.08,325.13,179.08z M333.52,143.02v0.08c0.16-0.08,0.47-0.24,0.47-0.4s0-0.32-0.24-0.4
				C333.52,142.47,333.52,142.78,333.52,143.02z M334.7,168.8c0.08,0,0.08-0.08,0-0.08S334.62,168.88,334.7,168.8z"/>
			<path d="M354.23,151.09v-2.69c-0.16-0.4-0.16-0.47-0.16-0.79c0-2.29,0.16-4.51,0.16-6.8v-1.98l-0.16-0.16
				c-0.08,0-1.34-0.08-1.9-0.16c-3.64-0.24-11.23,0.24-11.23-5.22c0-2.21,0.71-5.3,3.24-5.85c1.03-0.24,1.9-0.24,2.93-0.47h4.43
				c8.22,0,16.45,1.11,24.67,0.95c0.63,0.08,1.66,0.16,2.13,0.47c1.19,0.71,1.27,3.95,1.27,5.06c0,1.19,0,1.74-0.16,3.08
				c-0.24,0.55-0.79,1.11-1.27,1.5c-0.24,0.16-1.66,0.47-1.98,0.47c-0.71,0.16-4.19,0.47-4.9,0.47c-0.32,0.08-3,0-3.4,0
				c-0.24,0.08-1.19,0-1.42,0.47v0.63c0,0.71,0,1.11,0.16,1.82v7.67c0.32,0.95,0.24,2.29,0.24,3.16c0,0.55-0.08,2.06-0.08,2.13
				c0,0.24-0.16,1.74-0.16,1.98c0,0.47,0.16,3.87,0.16,4.35v0.63c0,0.79-0.16,1.58-0.16,2.53c0,3.64,0.16,7.35,0.47,10.99
				c0.16,1.27,0.47,3.16,0.47,4.59c0,2.93-3.95,2.45-5.85,2.45c-6.33,0-6.64-3.56-7.04-8.54c0-0.32-0.08-0.63-0.08-0.95
				c-0.24-3.32-0.71-6.8-0.71-10.12C353.92,158.91,354.23,155.04,354.23,151.09z M343.56,133.37c0-0.32-0.16-0.47-0.16-0.87
				c0-0.95,0.71-0.71,1.11-1.34c-0.24-0.16-0.4-0.24-0.63-0.24c-0.87,0-0.95,0.95-0.95,1.58v0.55
				C343.08,133.22,343.32,133.37,343.56,133.37z"/>
			<path d="M394.09,180.66c-2.69-0.71-5.93-1.58-8.14-3.48c-5.54-4.9-7.12-12.97-7.12-20c0-0.24,0.08-0.79,0.08-0.87
				c0.32-3.32,0.71-6.96,1.34-10.2c-0.24-0.71,1.11-3.16,1.34-3.87c1.03-3.32,1.66-7.2,4.03-9.8c0.47-0.47,2.45-2.45,2.85-2.93
				c1.34-0.47,2.53-1.58,3.8-2.21c0.32,0.08,0.4-0.08,0.71-0.16c1.98-0.47,3.72-0.79,5.69-0.79c7.59,0,13.76,2.77,16.68,9.88
				c0.39,0.71,1.19,1.5,1.42,2.37c0,0.08,0.08,0.4,0.16,0.55c0.16,0.87,0.32,1.98,0.55,2.85c0.24,0.47,0.55,1.11,0.63,1.66
				c0.32,3.08,0.95,6.17,0.95,9.33c0,0.4-0.08,0.87-0.32,1.19v1.03c0,0.95,0.08,1.9,0.08,2.77c0,2.37-0.79,4.74-1.26,7.04
				c-0.47,2.06-1.42,3.95-2.21,5.85c-0.47,1.34-0.87,2.69-1.74,3.8c-3.4,4.27-8.38,6.4-13.76,6.4h-0.4c-0.71,0-4.19-0.16-4.98-0.24
				C394.4,180.82,394.16,180.66,394.09,180.66z M385.94,130.84c0-0.08,0.24-0.08,0.16,0C386.1,131,386.02,131,385.94,130.84z
				 M391.95,161.52c0.87,3.56,3.16,9.49,7.51,9.49c0.79,0,1.11-0.24,2.13-0.55c2.61-1.11,2.93-2.13,3.56-4.35
				c0.08-0.24,0.08-0.4,0.16-0.63l0.63-2.21c0.24-1.19,0.16-2.53,0.16-3.64c0-4.9-0.08-9.65-1.34-14.47
				c-0.55-1.9-2.21-6.17-4.11-7.2c-0.39-0.32-1.26-0.32-1.66-0.32c-4.51,0-6.33,4.59-7.35,8.14c-0.32,1.27-0.32,2.69-0.71,3.95
				c0,0-0.32,0.16-0.32,0.24v0.47c0,1.98,0.55,3.95,0.4,6.01C391.56,157.09,391.71,160.65,391.95,161.52z M394.09,178.29h0.16
				l-0.16-0.16V178.29z M395.03,169.83h0.24c-0.16-0.24-0.32-0.4-0.63-0.4C394.64,169.75,394.8,169.83,395.03,169.83z M395.43,170.3
				h0.16l-0.16-0.16V170.3z M405.08,177.02c0.08,0,0.08-0.24,0-0.24C404.92,176.78,404.92,177.02,405.08,177.02z M405.95,176.31
				c-0.08,0-0.08,0.08-0.08,0.16h0.08c0,0,0.08-0.08,0.08-0.16v-0.08L405.95,176.31z M412.59,140.81v-0.08
				c0-0.16-0.16-0.47-0.32-0.47C412.27,140.49,412.43,140.73,412.59,140.81z M413.14,163.66h0.16v-0.32
				C413.22,163.42,413.14,163.5,413.14,163.66z"/>
			<path d="M424.77,175.99v-2.85c0-0.16-0.32-0.95-0.32-1.03c-0.63-2.69-0.47-5.46-0.47-8.22c0-5.85,0.24-11.47,0.16-17.4
				c0.08-0.24,0.24-1.5,0.24-1.74c0-0.4-0.16-3.72-0.24-4.11c0-1.34-0.32-2.61-0.32-4.03v-1.82c0-0.24,0.16-2.13,0.16-2.37v-3.32
				c0.16-2.61,3.87-2.53,5.85-2.53c0.16,0,0.32,0,0.47,0c0.47,0,0.87,0.08,1.34,0.08c1.11,0,2.29-0.08,3.32-0.08
				c1.82,0,3.24,0.55,4.27,2.06c0.71,1.11,0.95,2.45,1.5,3.56c0.87,2.21,1.9,4.35,2.77,6.56c0.95,2.06,1.82,3.8,2.93,5.85
				c1.82,3.48,3.88,6.96,6.01,10.36c0.55,0.95,0.63,1.98,1.34,2.93v0.4h0.16c0.08,0,0.32-3,0.32-3.87c0-0.47-0.24-0.47-0.24-1.03
				c0.16,0,0.32,0.08,0.32,0.24c0.08,0,0.16-0.16,0.16-0.16c0-0.08-0.08-0.32-0.16-0.32v-2.21l-0.24-0.47c0,0-0.24-1.34-0.32-1.82
				c-0.55-3.72-0.63-7.59-0.63-11.23h0.16c0.08,0,0.16,0.79,0.16,1.19c0.08,0.16,0,1.19,0,1.34c0.08,0.32,0.16,1.5,0.24,1.74h0.08
				v-3.87c0-0.63-0.55-0.71-0.55-1.42c0.32,0,0.47,0.24,0.55,0.47v-2.29h-0.47c0,0-0.08-1.82-0.16-2.61v-0.08
				c0-1.03,0.24-2.29,0.63-3.24c0-0.08,0.24-0.55,0.32-0.55c0.24-0.47,0.24-1.42,0.47-1.42h0.08c0.08,0,0.16,0.16,0.24,0.16
				c0.32,0,0.95-0.24,1.34-0.4c0.16,0,1.19-0.08,1.42-0.08c0.32,0,1.34,0.08,1.42,0.08c0.16,0,2.45,0.24,3.16,0.24
				c1.74,0.24,2.77,1.19,3.72,2.61v0.16c0,1.66-0.24,3.32-0.47,4.9v0.79c0,0.08-0.08,0.63-0.16,0.71c0.08,4.11-0.24,8.22-0.24,12.34
				v0.95c0.47,7.43,1.82,14.94,1.82,22.46c0,0.32,0.08,0.71-0.24,0.95c0.08,2.61-0.08,5.06-0.55,7.59l-0.16,0.16h-0.08l-0.95-0.55
				h-0.47l-1.34,0.4h-2.69c-2.37,0-3.95-0.32-6.17-0.79c-0.79-0.16-1.98,0.08-2.61-0.32c-0.79-0.47-1.42-1.82-1.82-2.69
				c-0.08-0.4-1.11-3.48-1.34-3.95l-2.06-4.27c-0.4-0.87-1.03-1.58-1.58-2.45c-2.37-4.67-5.14-9.17-7.59-13.84l-0.32-0.32v6.96
				c0.32,0.95,0.32,2.45,0.47,3.48V162c0,0.08-0.16,0.79-0.16,0.95v0.16l0.16,0.24c0.08,3.16,0.16,6.25,0.47,9.41
				c0.16,1.5,0.4,3.24,0.4,4.82v1.11c-1.58,1.82-4.19,1.34-6.33,1.58c-0.87,0.08-1.98,0.4-2.85,0.4c-1.03,0-4.19-0.32-4.19-1.98
				C424.92,178.29,424.77,176.39,424.77,175.99z M432.91,176.94h0.16v-0.47h-0.16V176.94z M436.94,147.61v-0.16h-0.16L436.94,147.61
				z M453.47,135.27c0.08,0.08,0.16,0.24,0.24,0.24v0.16l-0.4-0.24L453.47,135.27z M453.7,131.95h0.24v-0.32
				C453.78,131.71,453.7,131.79,453.7,131.95z M453.7,134.16h0.08v-0.71L453.7,134.16z M453.78,132.98c0.16,0,0.16-0.24,0-0.24
				C453.7,132.74,453.7,132.98,453.78,132.98z M454.1,151.96c-0.08,0-0.08-0.55,0-0.47S454.18,151.88,454.1,151.96z M454.26,137.01
				c0.08,0,0.08-0.16,0-0.16S454.18,137.09,454.26,137.01z M454.26,138.75c0.08-0.16,0.08-0.79,0-0.95S454.18,138.91,454.26,138.75z
				 M455.45,134.95l0.16-0.16v-1.98h-0.16V134.95z M455.6,132.42c0.08-0.08,0.08-0.16,0-0.24
				C455.52,132.19,455.52,132.42,455.6,132.42z M459.16,138.35c0.16,0,0.16-0.24,0-0.24C459.08,138.12,459.08,138.35,459.16,138.35z
				 M466.83,172.99c-0.08,0-0.08-0.16,0-0.16C466.99,172.83,466.99,172.91,466.83,172.99z M467.07,173.54c-0.24,0-0.24-0.24,0-0.24
				C467.23,173.3,467.23,173.54,467.07,173.54z"/>
			<path d="M482.41,180.1c-0.08,0-0.79-0.08-0.87-0.16c-0.16,0-1.03-0.4-1.26-0.55c-4.98-2.85-6.96-5.77-6.96-11.47
				c0-4.51,0.71-6.17,5.69-6.17c3.4,0,6.8,1.11,7.83,4.51v0.63c-0.16,2.45-0.32,4.74,2.29,5.85c0.55,0.24,1.11,0.47,1.66,0.47
				c2.21,0,3.32-3.95,3.32-5.61c0-2.53-1.34-6.8-6.64-9.17c-8.07-3.64-15.5-6.72-15.5-15.42c0-1.9,0.55-3.32,0.87-5.06
				c1.82-6.56,7.04-9.25,13.52-10.91c0.95,0.16,1.98-0.32,2.85-0.32c8.54,0,16.45,2.53,16.45,11.62v0.08
				c-0.47,1.66-0.4,5.69-2.37,6.33c-0.08,0.08-0.87,0-0.95,0s-1.03,0.32-1.19,0.32h-0.55c-4.67,0-7.51-3.72-8.14-7.83
				c-0.08-0.55-0.16-0.95-3.48-1.9h-0.47l0.63,0.47h-0.16c-0.47,0-0.87-0.32-1.5-0.32c-0.79,0-1.74,0.63-2.29,0.95
				c-4.03,2.13-2.77,7.67,1.19,9.09c4.98,1.82,9.57,4.74,14.08,7.75c3.95,2.69,6.64,7.99,6.17,13.44c-0.16,1.74-0.95,3.24-1.42,5.06
				c-0.32,1.03-1.11,1.82-1.74,2.85c-0.47,0.71-0.79,1.58-1.27,2.29c-2.45,3.87-7.04,4.98-11.46,4.98c-1.74,0-3.64-0.87-5.38-0.71
				L482.41,180.1z M481.06,164.76v-0.32c0-0.08-0.79-0.32-1.11-0.4h-0.47C479.88,164.45,480.43,164.76,481.06,164.76z
				 M482.57,147.21h0.16v-0.08h-0.16V147.21z M483.59,147.53c0,0,0.55,0.71,0.79,0.87c0.08,0.16,0.63,0.71,0.79,0.79v-0.16
				l-0.63-0.71C484.38,148.16,483.67,147.69,483.59,147.53z M486.2,146.97c0.16,0,0.16-0.32,0-0.32S486.04,146.97,486.2,146.97z
				 M490.55,180.58c0.16,0,0.16-0.32,0-0.32S490.39,180.58,490.55,180.58z M491.03,180.42h0.32v-0.16h-0.32V180.42z M499.72,142.78
				c0.16,0,0.4-0.08,0.4-0.32v-0.08c-0.32-0.08-1.42-0.79-1.82-0.79C498.3,142.15,499.17,142.78,499.72,142.78z"/>
			<path d="M511.43,155.43l0.08-2.29c0.4-0.55,0.63-3.08,1.27-3.32c0.24,0,1.19,0.08,1.42,0.16c0.47-0.08,4.19-0.24,4.59-0.16
				c0.71-0.08,1.5,0,2.13,0c1.03,0,5.54,0.08,6.48,0.08h0.4c1.26,0.08,1.9,0.08,3.24,0.16c1.03,0.08,2.13,0.32,3.32,0.4
				c1.66,0.16,3.4-0.4,5.06-0.32c0.95,0.16,2.69,0.16,3.24,1.03c0.55,1.58,0.95,3.24,0.79,4.9c0,0.08,0,0.79,0,0.95
				c-0.47,0.95-0.47,2.06-1.58,2.21c-0.55,0.08-1.03-0.16-1.42,0.16c-0.24,0-0.87,0-1.03,0c-1.03-0.08-1.98-0.4-3-0.47
				c-0.47,0-1.98,0.24-2.45,0.47c-0.63-0.08-3.32-0.08-3.87-0.08c-0.95,0-7.43-0.4-7.67-0.16c-1.98,0.08-4.74,0.47-6.8,0.32
				c-0.79,0-2.92-0.55-3.4-1.34C511.82,157.02,511.74,156.46,511.43,155.43z M514.35,153.14v0.24c0.4,0,0.63-0.4,0.63-0.79
				C514.59,152.51,514.35,152.67,514.35,153.14z M514.43,154.72c0.08,0,0.08-0.24,0-0.24S514.35,154.8,514.43,154.72z"/>
			<path d="M549.22,175.99v-2.85c0-0.16-0.32-0.95-0.32-1.03c-0.63-2.69-0.47-5.46-0.47-8.22c0-5.85,0.24-11.47,0.16-17.4
				c0.08-0.24,0.24-1.5,0.24-1.74c0-0.4-0.16-3.72-0.24-4.11c0-1.34-0.32-2.61-0.32-4.03v-1.82c0-0.24,0.16-2.13,0.16-2.37v-3.32
				c0.16-2.61,3.87-2.53,5.85-2.53c0.16,0,0.32,0,0.47,0c0.47,0,0.87,0.08,1.34,0.08c1.11,0,2.29-0.08,3.32-0.08
				c1.82,0,3.24,0.55,4.27,2.06c0.71,1.11,0.95,2.45,1.5,3.56c0.87,2.21,1.9,4.35,2.77,6.56c0.95,2.06,1.82,3.8,2.93,5.85
				c1.82,3.48,3.88,6.96,6.01,10.36c0.55,0.95,0.63,1.98,1.34,2.93v0.4h0.16c0.08,0,0.32-3,0.32-3.87c0-0.47-0.24-0.47-0.24-1.03
				c0.16,0,0.32,0.08,0.32,0.24c0.08,0,0.16-0.16,0.16-0.16c0-0.08-0.08-0.32-0.16-0.32v-2.21l-0.24-0.47c0,0-0.24-1.34-0.32-1.82
				c-0.55-3.72-0.63-7.59-0.63-11.23h0.16c0.08,0,0.16,0.79,0.16,1.19c0.08,0.16,0,1.19,0,1.34c0.08,0.32,0.16,1.5,0.24,1.74h0.08
				v-3.87c0-0.63-0.55-0.71-0.55-1.42c0.32,0,0.47,0.24,0.55,0.47v-2.29h-0.47c0,0-0.08-1.82-0.16-2.61v-0.08
				c0-1.03,0.24-2.29,0.63-3.24c0-0.08,0.24-0.55,0.32-0.55c0.24-0.47,0.24-1.42,0.47-1.42h0.08c0.08,0,0.16,0.16,0.24,0.16
				c0.32,0,0.95-0.24,1.34-0.4c0.16,0,1.19-0.08,1.42-0.08c0.32,0,1.34,0.08,1.42,0.08c0.16,0,2.45,0.24,3.16,0.24
				c1.74,0.24,2.77,1.19,3.72,2.61v0.16c0,1.66-0.24,3.32-0.47,4.9v0.79c0,0.08-0.08,0.63-0.16,0.71c0.08,4.11-0.24,8.22-0.24,12.34
				v0.95c0.47,7.43,1.82,14.94,1.82,22.46c0,0.32,0.08,0.71-0.24,0.95c0.08,2.61-0.08,5.06-0.55,7.59l-0.16,0.16h-0.08l-0.95-0.55
				h-0.47l-1.34,0.4h-2.69c-2.37,0-3.95-0.32-6.17-0.79c-0.79-0.16-1.98,0.08-2.61-0.32c-0.79-0.47-1.42-1.82-1.82-2.69
				c-0.08-0.4-1.11-3.48-1.34-3.95l-2.06-4.27c-0.4-0.87-1.03-1.58-1.58-2.45c-2.37-4.67-5.14-9.17-7.59-13.84l-0.32-0.32v6.96
				c0.32,0.95,0.32,2.45,0.47,3.48V162c0,0.08-0.16,0.79-0.16,0.95v0.16l0.16,0.24c0.08,3.16,0.16,6.25,0.47,9.41
				c0.16,1.5,0.39,3.24,0.39,4.82v1.11c-1.58,1.82-4.19,1.34-6.33,1.58c-0.87,0.08-1.98,0.4-2.85,0.4c-1.03,0-4.19-0.32-4.19-1.98
				C549.38,178.29,549.22,176.39,549.22,175.99z M557.37,176.94h0.16v-0.47h-0.16V176.94z M561.4,147.61v-0.16h-0.16L561.4,147.61z
				 M577.93,135.27c0.08,0.08,0.16,0.24,0.24,0.24v0.16l-0.4-0.24L577.93,135.27z M578.16,131.95h0.24v-0.32
				C578.24,131.71,578.16,131.79,578.16,131.95z M578.16,134.16h0.08v-0.71L578.16,134.16z M578.24,132.98c0.16,0,0.16-0.24,0-0.24
				C578.16,132.74,578.16,132.98,578.24,132.98z M578.56,151.96c-0.08,0-0.08-0.55,0-0.47S578.64,151.88,578.56,151.96z
				 M578.72,137.01c0.08,0,0.08-0.16,0-0.16S578.64,137.09,578.72,137.01z M578.72,138.75c0.08-0.16,0.08-0.79,0-0.95
				S578.64,138.91,578.72,138.75z M579.9,134.95l0.16-0.16v-1.98h-0.16V134.95z M580.06,132.42c0.08-0.08,0.08-0.16,0-0.24
				C579.98,132.19,579.98,132.42,580.06,132.42z M583.62,138.35c0.16,0,0.16-0.24,0-0.24C583.54,138.12,583.54,138.35,583.62,138.35
				z M591.29,172.99c-0.08,0-0.08-0.16,0-0.16C591.45,172.83,591.45,172.91,591.29,172.99z M591.53,173.54c-0.24,0-0.24-0.24,0-0.24
				C591.68,173.3,591.68,173.54,591.53,173.54z"/>
			<path d="M609.87,180.66c-2.69-0.71-5.93-1.58-8.14-3.48c-5.54-4.9-7.12-12.97-7.12-20c0-0.24,0.08-0.79,0.08-0.87
				c0.32-3.32,0.71-6.96,1.34-10.2c-0.24-0.71,1.11-3.16,1.34-3.87c1.03-3.32,1.66-7.2,4.03-9.8c0.47-0.47,2.45-2.45,2.85-2.93
				c1.34-0.47,2.53-1.58,3.8-2.21c0.32,0.08,0.4-0.08,0.71-0.16c1.98-0.47,3.72-0.79,5.69-0.79c7.59,0,13.76,2.77,16.68,9.88
				c0.39,0.71,1.19,1.5,1.42,2.37c0,0.08,0.08,0.4,0.16,0.55c0.16,0.87,0.32,1.98,0.55,2.85c0.24,0.47,0.55,1.11,0.63,1.66
				c0.32,3.08,0.95,6.17,0.95,9.33c0,0.4-0.08,0.87-0.32,1.19v1.03c0,0.95,0.08,1.9,0.08,2.77c0,2.37-0.79,4.74-1.26,7.04
				c-0.47,2.06-1.42,3.95-2.21,5.85c-0.47,1.34-0.87,2.69-1.74,3.8c-3.4,4.27-8.38,6.4-13.76,6.4h-0.4c-0.71,0-4.19-0.16-4.98-0.24
				C610.19,180.82,609.95,180.66,609.87,180.66z M601.73,130.84c0-0.08,0.24-0.08,0.16,0C601.88,131,601.81,131,601.73,130.84z
				 M607.74,161.52c0.87,3.56,3.16,9.49,7.51,9.49c0.79,0,1.11-0.24,2.13-0.55c2.61-1.11,2.93-2.13,3.56-4.35
				c0.08-0.24,0.08-0.4,0.16-0.63l0.63-2.21c0.24-1.19,0.16-2.53,0.16-3.64c0-4.9-0.08-9.65-1.34-14.47
				c-0.55-1.9-2.21-6.17-4.11-7.2c-0.39-0.32-1.26-0.32-1.66-0.32c-4.51,0-6.33,4.59-7.35,8.14c-0.32,1.27-0.32,2.69-0.71,3.95
				c0,0-0.32,0.16-0.32,0.24v0.47c0,1.98,0.55,3.95,0.4,6.01C607.34,157.09,607.5,160.65,607.74,161.52z M609.87,178.29h0.16
				l-0.16-0.16V178.29z M610.82,169.83h0.24c-0.16-0.24-0.32-0.4-0.63-0.4C610.42,169.75,610.58,169.83,610.82,169.83z
				 M611.21,170.3h0.16l-0.16-0.16V170.3z M620.86,177.02c0.08,0,0.08-0.24,0-0.24C620.7,176.78,620.7,177.02,620.86,177.02z
				 M621.73,176.31c-0.08,0-0.08,0.08-0.08,0.16h0.08c0,0,0.08-0.08,0.08-0.16v-0.08L621.73,176.31z M628.37,140.81v-0.08
				c0-0.16-0.16-0.47-0.32-0.47C628.06,140.49,628.22,140.73,628.37,140.81z M628.93,163.66h0.16v-0.32
				C629.01,163.42,628.93,163.5,628.93,163.66z"/>
			<path d="M640.63,128.79c0-0.32,0.08-0.71,0.4-0.87c0.71,0,1.42-0.16,2.13-0.4c0.08,0,1.03-0.08,1.19-0.08
				c1.58,0,7.75,0.08,8.46,2.37v4.27c0,0.24-0.16,1.66-0.24,1.82c0,0.16,0.08,1.11,0,1.19c0,0.08-0.08,0.32-0.16,0.32
				c-0.79,32.42,0.79,32.5,5.54,32.5c0.87,0,2.69-0.55,3.08-1.5c0-0.08,0.16-0.71,0.16-0.95c0.47-6.09,0.63-12.33,0.71-18.5v-4.27
				c0-0.24,0.08-1.11,0.16-1.34c0.08-4.27-0.16-9.01,0.24-13.28c0.24-0.47,0.4-0.47,0.63-0.63c0.95-0.71,2.21-1.9,3.4-2.13
				c1.19-0.16,1.9-0.24,2.85-0.24c1.27,0,1.9,0.32,2.77,1.11l0.95,0.79c0.55,0.47,0.95,3.95,0.95,4.74c0,0.63,0.08,2.85-0.4,3.24
				v1.66c0,1.9,0,3.8,0.63,11.15c0,4.82-0.32,9.49-0.71,14.15c-0.32,3-0.32,5.93-1.03,8.78c-0.24,0.63-0.4,1.66-0.63,2.29
				c-0.08,0-0.32,0.47-0.39,0.55c-3.56,3.72-6.01,4.74-11.31,5.54c-0.24,0-1.66,0.24-1.74,0.24h-1.66c-4.19,0-7.2-1.74-10.44-4.43
				c-2.77-2.37-3.4-4.43-4.43-7.75c-0.24-0.87-0.24-0.47-0.47-1.27C640.87,159.47,638.34,147.53,640.63,128.79z M643.95,130.29
				c0.32,0,0.55-0.24,0.95-0.24c-0.08-0.32-0.32-0.24-0.47-0.24C644.11,129.82,643.95,129.89,643.95,130.29z M644.03,132.5h0.16
				l0.08-1.19l-0.08-0.16l-0.16,0.16V132.5z M654.47,175.2c0.08,0.08,0.32,0.08,0.32,0S654.47,175.12,654.47,175.2z M656.13,177.73
				h0.32v-0.16h-0.32V177.73z M656.6,177.89c0,0.08,0.16,0.08,0.16,0S656.6,177.81,656.6,177.89z M657.31,178.05h0.32v-0.16h-0.32
				V178.05z M658.26,178.21c0.08,0,0.24-0.08,0.4-0.16h-0.79C657.95,178.21,658.1,178.21,658.26,178.21z M658.89,178.21h0.71
				c0-0.24-0.24-0.32-0.32-0.32C659.05,177.89,658.89,177.97,658.89,178.21z M659.13,175.36h0.24v-0.16h-0.24V175.36z
				 M666.49,130.69c0,0.16,0.16,0.16,0.16,0C666.72,130.61,666.49,130.61,666.49,130.69z"/>
			<path d="M688.07,180.1c-0.08,0-0.79-0.08-0.87-0.16c-0.16,0-1.03-0.4-1.26-0.55c-4.98-2.85-6.96-5.77-6.96-11.47
				c0-4.51,0.71-6.17,5.69-6.17c3.4,0,6.8,1.11,7.83,4.51v0.63c-0.16,2.45-0.32,4.74,2.29,5.85c0.55,0.24,1.11,0.47,1.66,0.47
				c2.21,0,3.32-3.95,3.32-5.61c0-2.53-1.34-6.8-6.64-9.17c-8.07-3.64-15.5-6.72-15.5-15.42c0-1.9,0.55-3.32,0.87-5.06
				c1.82-6.56,7.04-9.25,13.52-10.91c0.95,0.16,1.98-0.32,2.85-0.32c8.54,0,16.45,2.53,16.45,11.62v0.08
				c-0.47,1.66-0.4,5.69-2.37,6.33c-0.08,0.08-0.87,0-0.95,0s-1.03,0.32-1.19,0.32h-0.55c-4.67,0-7.51-3.72-8.14-7.83
				c-0.08-0.55-0.16-0.95-3.48-1.9h-0.47l0.63,0.47h-0.16c-0.47,0-0.87-0.32-1.5-0.32c-0.79,0-1.74,0.63-2.29,0.95
				c-4.03,2.13-2.77,7.67,1.19,9.09c4.98,1.82,9.57,4.74,14.08,7.75c3.95,2.69,6.64,7.99,6.17,13.44c-0.16,1.74-0.95,3.24-1.42,5.06
				c-0.32,1.03-1.11,1.82-1.74,2.85c-0.47,0.71-0.79,1.58-1.27,2.29c-2.45,3.87-7.04,4.98-11.46,4.98c-1.74,0-3.64-0.87-5.38-0.71
				L688.07,180.1z M686.73,164.76v-0.32c0-0.08-0.79-0.32-1.11-0.4h-0.47C685.54,164.45,686.1,164.76,686.73,164.76z M688.23,147.21
				h0.16v-0.08h-0.16V147.21z M689.26,147.53c0,0,0.55,0.71,0.79,0.87c0.08,0.16,0.63,0.71,0.79,0.79v-0.16l-0.63-0.71
				C690.05,148.16,689.34,147.69,689.26,147.53z M691.87,146.97c0.16,0,0.16-0.32,0-0.32S691.71,146.97,691.87,146.97z
				 M696.22,180.58c0.16,0,0.16-0.32,0-0.32S696.06,180.58,696.22,180.58z M696.69,180.42h0.32v-0.16h-0.32V180.42z M705.39,142.78
				c0.16,0,0.4-0.08,0.4-0.32v-0.08c-0.32-0.08-1.42-0.79-1.82-0.79C703.97,142.15,704.83,142.78,705.39,142.78z"/>
			<path d="M753.62,153.77c0.79-1.27,1.34-2.53,2.21-3.64c0.16-0.16,0.32-0.4,0.47-0.55c2.13-2.69,4.51-5.77,4.35-9.49
				c-1.34-2.77-6.4-2.37-8.62-1.11c-2.69,1.5-1.66,6.56-5.77,8.22h-0.16c-0.95,0-1.9-0.47-2.77-0.79c-1.74-0.47-3.95-0.63-4.82-2.53
				v-0.87c-0.16-2.93,0.71-5.69,1.74-8.3c0.24-0.63,0.87-1.27,1.11-1.98c4.43-4.98,7.83-6.17,14.23-6.17
				c3.95,0,9.96,1.34,13.13,4.35c0.63,0.63,0.87,1.66,1.34,2.53c0.47,0.95,1.19,1.58,1.58,2.61v1.42c0.08,2.45,0,5.14-1.27,7.35
				c-0.55,1.19-1.42,2.21-2.06,3.32v0.32c-0.16,0.55-0.71,1.03-0.95,1.5c-0.32,0.63-0.63,1.27-1.19,1.9
				c-2.06,2.53-4.03,4.51-4.98,7.59c-0.24,0.47-0.63,1.03-0.79,1.58c-0.16,1.9-0.47,3.79-1.11,5.61c0,0.08,0,0.24-0.08,0.32
				c0,0.08-0.47,0.47-0.47,0.55v0.79c-0.16,0.32-1.5,0.55-1.9,0.55c-4.11,0-5.85-3.08-5.93-6.88
				C750.77,158.91,752.12,156.38,753.62,153.77z M751.72,177.02v-0.32c0-0.16,0-0.32,0.32-0.47c-1.42-0.55,1.58-4.59,2.45-3.24
				c0.16,0,0.55-0.16,0.55-0.16h4.03c0.71,0,2.21,1.34,2.21,1.98c0,0-0.16,0.24-0.24,0.32c0-0.08-0.08-0.16-0.16-0.16l-0.08-0.08
				v0.08c0,0.16-0.24,1.11-0.24,1.27c-0.24,0.87-0.16,1.74-0.32,2.53c0,0.08-0.32,0.47-0.32,0.47c0,0.63,0.87,0,0.87,0.63l-0.32,0.4
				v0.08c0,0.4,0.63,0.24,0.63,0.63c0.08,0.63-1.03,0.16-0.79,0.87c-0.24-0.08-0.32-0.08-0.55-0.08c-0.55,0-1.11,0.08-1.82,0.08
				c-1.19,0-4.35-0.32-5.14-1.34c-0.32-0.4-0.16-1.19-0.71-1.42C752.04,178.76,751.72,177.34,751.72,177.02z M754.89,179.71
				l0.16,0.16c0.08-0.32,0.24-0.63,0.24-0.95h-0.47C754.81,179.08,754.89,179.55,754.89,179.71z M755.2,130.76l0.16-0.16l-0.39-0.32
				l-0.08,0.16L755.2,130.76z M755.04,180.66h0.24c0,0,0-0.08-0.08-0.16h-0.16V180.66z M755.12,178.52c0.08-0.08,0.08-0.55,0-0.55
				C755.04,177.81,755.12,178.6,755.12,178.52z M757.5,176.47c0.24-0.08,0.08-0.32,0.08-0.4c0-0.4-0.08-0.63-0.16-0.95
				c-0.24,0-0.16,0.32-0.16,0.4C757.26,175.91,757.26,176.07,757.5,176.47z M757.97,180.5c-0.16,0.08-0.71,0.16-0.71,0.16v0.24h0.08
				c0.24,0,0.87,0,0.87-0.4H757.97z M758.44,179.87c0.08-0.08,0.08-0.16,0-0.16C758.36,179.63,758.36,179.87,758.44,179.87z
				 M759.71,178.05c0-0.16-0.08-0.24-0.32-0.32v0.08C759.39,177.97,759.63,178.05,759.71,178.05z M761.77,136.22
				c0.08,0,0.08-0.16,0-0.16C761.61,136.06,761.61,136.22,761.77,136.22z M762.4,150.61c0.16,0,0.16-0.32,0-0.32
				S762.24,150.61,762.4,150.61z"/>
		</g>
	</g>
	<path d="M822.59,45.03c-1.09-5.36-2.7-9.97-4.92-14.37c-1.89-3.76-4.18-7.26-6.88-10.49c-4.91-5.89-10.79-10.58-17.62-14.08
		c-4.46-2.28-9.14-3.94-14.05-4.95c-3.83-0.79-7.71-1.18-11.63-1.14c-2.7,0.03-5.38,0.22-8.03,0.64C753.61,1.57,748,3.32,742.7,6.02
		c-3,1.53-5.86,3.31-8.54,5.35c-3.93,3-7.4,6.46-10.42,10.38c-4.72,6.16-8.05,12.98-9.94,20.5c-1.17,4.67-1.73,9.41-1.66,14.23
		c0.04,2.8,0.29,5.58,0.73,8.34c0.6,3.77,1.63,7.43,3.01,11c1.05,2.71,2.29,5.31,3.75,7.82c1.69,2.92,3.65,5.66,5.84,8.22
		c0.22,0.26,0.29,0.49,0.23,0.84c-0.7,4.24-1.38,8.47-2.07,12.71c-0.79,4.87-1.63,9.73-2.37,14.61c-0.25,1.63,0.41,2.98,1.81,3.87
		c1.34,0.86,2.79,0.93,4.17,0.12c1.66-0.97,3.25-2.04,4.87-3.07c3.17-2.02,6.34-4.03,9.5-6.06c2.96-1.89,5.92-3.77,8.86-5.68
		c0.41-0.27,0.76-0.3,1.21-0.16c4.68,1.45,9.47,2.25,14.37,2.43c3.61,0.13,7.2-0.08,10.76-0.65c5.57-0.9,10.88-2.63,15.94-5.15
		c3.83-1.91,7.39-4.21,10.67-6.94c6.09-5.07,10.9-11.16,14.43-18.26c3.81-7.68,5.74-15.82,5.82-24.37
		C823.69,52.19,823.33,48.32,822.59,45.03z M790.42,54.28c-1.55,4.29-3.99,8.06-6.81,11.6c-2.77,3.49-5.88,6.67-9.24,9.6
		c-0.31,0.27-0.57,0.35-0.97,0.21c-6.17-2-12.05-4.6-17.41-8.29c-3.42-2.35-6.49-5.08-8.63-8.69c-1.64-2.77-2.56-5.72-2.14-8.99
		c0.74-5.7,5.37-10.15,11.09-10.73c3.95-0.4,7.47,0.56,10.48,3.19c0.38,0.33,0.37-0.05,0.45-0.21c2.46-5.1,8.33-8.23,13.9-7.39
		c5.15,0.77,9.3,4.7,10.47,10.62C792.09,47.74,791.58,51.05,790.42,54.28z"/>
</g>
</svg>
