<?xml version="1.0" encoding="UTF-8"?>
<svg xmlns="http://www.w3.org/2000/svg" version="1.1" viewBox="0 0 195.14 195.14">
  <!-- Generator: Adobe Illustrator 28.7.1, SVG Export Plug-In . SVG Version: 1.2.0 Build 142)  -->
  <g>
    <g id="Calque_3">
      <g id="Croix">
        <g id="Croix-2" data-name="Croix">
          <path class="cls-1" d="M151.67,7.47l-45.23,45.05c-4.95,4.78-12.8,4.78-17.74,0L43.47,7.47C38.7,2.69,32.22,0,25.47,0S12.24,2.69,7.47,7.47C2.69,12.24,0,18.72,0,25.47s2.69,13.23,7.47,18l45.05,45.23c4.78,4.95,4.78,12.8,0,17.74L7.47,151.67C2.69,156.45,0,162.92,0,169.67s2.69,13.23,7.47,18c4.77,4.78,11.25,7.47,18,7.47s13.23-2.69,18-7.47l45.23-45.05c4.95-4.78,12.8-4.78,17.74,0l45.06,45.06h0c4.77,4.77,11.25,7.46,18.01,7.46s13.23-2.69,18-7.47c4.78-4.77,7.46-11.25,7.46-18s-2.68-13.23-7.46-18l-44.87-45.23c-4.78-4.95-4.78-12.8,0-17.74l45.05-45.23c4.78-4.77,7.47-11.25,7.47-18s-2.69-13.23-7.47-18C182.9,2.69,176.43,0,169.67,0s-13.23,2.69-18,7.47h0Z"/>
        </g>
      </g>
    </g>
  </g>
</svg>