<?xml version="1.0" encoding="UTF-8" standalone="no"?>
<!-- Created with Inkscape (http://www.inkscape.org/) -->

<svg
   width="20.079336mm"
   height="20.079319mm"
   viewBox="0 0 20.079336 20.079319"
   version="1.1"
   id="svg1"
   inkscape:version="1.3.2 (091e20e, 2023-11-25)"
   sodipodi:docname="denied.svg"
   xmlns:inkscape="http://www.inkscape.org/namespaces/inkscape"
   xmlns:sodipodi="http://sodipodi.sourceforge.net/DTD/sodipodi-0.dtd"
   xmlns="http://www.w3.org/2000/svg"
   xmlns:svg="http://www.w3.org/2000/svg">
  <sodipodi:namedview
     id="namedview1"
     pagecolor="#ffffff"
     bordercolor="#666666"
     borderopacity="1.0"
     inkscape:showpageshadow="2"
     inkscape:pageopacity="0.0"
     inkscape:pagecheckerboard="0"
     inkscape:deskcolor="#d1d1d1"
     inkscape:document-units="mm"
     inkscape:zoom="0.61699797"
     inkscape:cx="-97.245052"
     inkscape:cy="65.64041"
     inkscape:window-width="736"
     inkscape:window-height="480"
     inkscape:window-x="0"
     inkscape:window-y="25"
     inkscape:window-maximized="0"
     inkscape:current-layer="layer1" />
  <defs
     id="defs1" />
  <g
     inkscape:label="Layer 1"
     inkscape:groupmode="layer"
     id="layer1"
     transform="translate(-125.94166,-108.21458)">
    <g
       id="g11376"
       transform="matrix(0.27608343,0,0,0.27608343,197.44457,392.87808)">
      <g
         id="path2548-5"
         inkscape:transform-center-x="3.0680036"
         inkscape:transform-center-y="0.16571027"
         transform="matrix(1.1242649,-0.30124585,0.30124585,1.1242649,-813.24444,-874.11076)">
        <path
           style="color:#000000;fill:#ff4401;stroke-width:1.71833;stroke-linecap:round;stroke-linejoin:round;-inkscape-stroke:none"
           d="M 542.20169,51.761995 520.30444,63.598339 496.45118,56.484204 484.61484,34.586953 491.72897,10.733698 513.62623,-1.1026462 537.47948,6.0114895 549.31582,27.90874 Z"
           id="path3971" />
        <path
           style="color:#000000;fill:#ffffff;stroke-linecap:round;stroke-linejoin:round;-inkscape-stroke:none"
           d="m 513.87109,-1.9257812 a 0.85925093,0.85925093 0 0 0 -0.65429,0.066406 L 491.32031,9.9785156 a 0.85925093,0.85925093 0 0 0 -0.41406,0.5097654 l -7.11523,23.853516 a 0.85925093,0.85925093 0 0 0 0.0684,0.654297 l 11.83594,21.896484 a 0.85925093,0.85925093 0 0 0 0.50977,0.414063 l 23.85351,7.115234 a 0.85925093,0.85925093 0 0 0 0.6543,-0.06836 l 21.89648,-11.835938 a 0.85925093,0.85925093 0 0 0 0.41602,-0.509766 l 7.11328,-23.853515 A 0.85925093,0.85925093 0 0 0 550.07227,27.5 L 538.23437,5.6035156 A 0.85925093,0.85925093 0 0 0 537.72461,5.1875 Z m -0.14843,1.74804683 23.16992,6.91015627 11.49804,21.2714841 -6.91015,23.169922 -21.27149,11.5 -23.17187,-6.912109 -11.49805,-21.269532 6.91211,-23.171874 z"
           id="path3968" />
      </g>
      <path
         style="color:#000000;fill:#ffffff;stroke-linecap:round;stroke-linejoin:round;-inkscape-stroke:none;paint-order:markers stroke fill"
         d="m -238.15234,-1005.7988 c -1.42074,0 -2.57742,0.711 -3.29297,1.6543 -0.71556,0.9432 -1.08329,2.0828 -1.30469,3.1777 -0.44281,2.18973 -0.27148,4.30469 -0.27148,4.30469 l -0.002,-0.0996 c -0.0765,3.3967 0,20.16406 0,20.16406 a 1,1 0 0 0 1.00391,0.99414 1,1 0 0 0 0.99609,-1.0039 c 0,0 -0.0724,-16.89539 0,-20.10938 a 1.0001,1.0001 0 0 0 -0.004,-0.0976 c 0,0 -0.13389,-1.91543 0.23828,-3.75581 0.18608,-0.9202 0.50654,-1.7972 0.9375,-2.3652 0.43096,-0.5681 0.87756,-0.8633 1.69922,-0.8633 0.42568,0 0.6458,0.108 0.91992,0.4062 0.27412,0.2982 0.55518,0.84 0.76758,1.6016 0.42479,1.5232 0.57617,3.85493 0.57617,6.52729 a 1.0001,1.0001 0 0 0 0,0.006 l 0.0312,7.56445 a 1,1 0 0 0 1.0039,0.99609 1,1 0 0 0 0.9961,-1.0039 l -0.0312,-7.5625 c 0,-2.73975 -0.12283,-5.17463 -0.65039,-7.06643 -0.26378,-0.9459 -0.62858,-1.7718 -1.22071,-2.416 -0.59213,-0.6442 -1.46062,-1.0527 -2.39257,-1.0527 z"
         id="path3965" />
      <path
         style="color:#000000;fill:#ffffff;stroke-linecap:round;stroke-linejoin:round;-inkscape-stroke:none;paint-order:markers stroke fill"
         d="m -230.83984,-1018.8184 c -1.06963,0.046 -2.02497,0.3845 -2.75196,1.002 -0.72699,0.6175 -1.20244,1.4649 -1.52343,2.4297 -0.642,1.9296 -0.74111,4.4141 -0.77344,7.4375 a 1.0001,1.0001 0 0 0 0,0.012 v 7.2617 a 1,1 0 0 0 1,1.00002 1,1 0 0 0 1,-1.00002 v -7.2519 -0.01 c 0.0321,-2.9744 0.18105,-5.349 0.66992,-6.8184 0.24474,-0.7355 0.55485,-1.2234 0.92188,-1.5351 0.36702,-0.3118 0.81597,-0.4979 1.54296,-0.5293 0.68995,-0.03 1.07135,0.1395 1.38282,0.3926 0.31146,0.2531 0.5523,0.6385 0.71875,1.08 0.33288,0.8832 0.32226,1.8555 0.32226,1.8555 a 1.0001,1.0001 0 0 0 0,0.027 v 25.56246 a 1,1 0 0 0 1,1 1,1 0 0 0 1,-1 v -25.53316 c 0,0 0.0513,-1.2841 -0.45117,-2.6172 -0.25125,-0.6666 -0.65259,-1.3788 -1.32812,-1.9278 -0.67554,-0.5489 -1.6238,-0.8857 -2.73047,-0.8379 z"
         id="path3962" />
      <path
         style="color:#000000;fill:#ffffff;stroke-linecap:round;stroke-linejoin:round;-inkscape-stroke:none;paint-order:markers stroke fill"
         d="m -223.2832,-1027.6309 c -1.45391,0.1 -2.58499,0.957 -3.29883,2.0098 -0.71384,1.0528 -1.10833,2.3081 -1.35742,3.5195 -0.49818,2.4228 -0.39063,4.7461 -0.39063,4.7461 v 3.8907 a 1,1 0 0 0 1,1 1,1 0 0 0 1,-1 v -3.9336 a 1.0001,1.0001 0 0 0 0,-0.043 c 0,0 -0.0837,-2.1411 0.35156,-4.2578 0.21763,-1.0584 0.57114,-2.0914 1.05079,-2.7988 0.47964,-0.7074 0.98595,-1.0822 1.78125,-1.1368 0.82439,-0.056 1.25292,0.2028 1.6875,0.7364 0.43457,0.5335 0.77365,1.3939 0.97851,2.3105 0.40973,1.8332 0.31445,3.7832 0.31445,3.7832 a 1.0001,1.0001 0 0 0 -0.002,0.055 v 30.38477 a 1,1 0 0 0 1,1 1,1 0 0 0 1,-1 V -1018.75 l -0.002,0.055 c 0,0 0.12906,-2.1448 -0.35938,-4.3301 -0.24422,-1.0926 -0.63321,-2.2212 -1.3789,-3.1367 -0.7457,-0.9155 -1.95019,-1.5665 -3.375,-1.4688 z"
         id="path3959" />
      <path
         style="color:#000000;fill:#ffffff;stroke-linecap:round;stroke-linejoin:round;-inkscape-stroke:none;paint-order:markers stroke fill"
         d="m -215,-1019.3359 c -2.26491,-7e-4 -3.66842,1.6235 -4.34375,3.0371 -0.67533,1.4135 -0.81836,2.789 -0.81836,2.789 a 1,1 0 0 0 0.88281,1.1036 1,1 0 0 0 1.10547,-0.8829 c 0,0 0.13113,-1.0942 0.63477,-2.1484 0.50364,-1.0542 1.18294,-1.8988 2.53906,-1.8984 0.61957,0 0.97169,0.2123 1.33203,0.6269 0.36035,0.4147 0.65854,1.0625 0.85547,1.752 0.3936,1.3779 0.39648,2.8183 0.39648,2.8203 0,0 0,0 0,0 l -0.47851,27.96683 a 1,1 0 0 0 0.98242,1.01563 1,1 0 0 0 1.01563,-0.98243 l 0.48046,-27.97653 a 1.0001,1.0001 0 0 0 0,-0.01 c 0,0 0.02,-1.6602 -0.47265,-3.3848 -0.24632,-0.8623 -0.6185,-1.7664 -1.26953,-2.5156 -0.65104,-0.7491 -1.65085,-1.3144 -2.8418,-1.3144 z"
         id="path3956" />
      <path
         style="color:#000000;fill:#ffffff;stroke-linecap:round;stroke-linejoin:round;-inkscape-stroke:none;paint-order:markers stroke fill"
         d="m -195.96875,-997.00781 c -0.40574,-0.0685 -0.82753,-0.0293 -1.17578,0.0996 -0.6965,0.25785 -1.29761,0.72599 -1.94531,1.31445 -1.29541,1.17693 -2.72773,2.89396 -4.25196,4.67578 -1.52422,1.78182 -3.13073,3.62201 -4.65234,4.97461 -1.51125,1.34339 -2.93075,2.11198 -3.87109,2.11524 -4.90504,-1.81751 -9.30481,-0.0941 -12.28321,2.75976 -3.04975,2.92224 -4.84354,6.85337 -4.80468,9.83789 a 1,1 0 0 0 1.01367,0.98633 1,1 0 0 0 0.98633,-1.01367 c -0.027,-2.07518 1.53055,-5.82134 4.1875,-8.36719 2.65694,-2.54585 6.18909,-4.00755 10.49609,-2.26758 a 1.0001,1.0001 0 0 0 0.36523,0.0723 c 1.87073,0.0147 3.56939,-1.14538 5.23828,-2.62891 1.6689,-1.48353 3.31351,-3.37683 4.84571,-5.16797 1.5322,-1.79114 2.961,-3.48469 4.07422,-4.49609 0.5566,-0.5057 1.04733,-0.82754 1.29687,-0.91992 0.24954,-0.0924 0.0628,-0.104 0.11133,-0.0527 1.48173,1.56573 1.60729,4.11312 0.59766,7.33594 -1.00964,3.22282 -3.14171,6.94627 -5.75391,10.40625 -2.6122,3.45998 -5.705,6.66801 -8.58398,8.92773 -2.87899,2.25973 -5.60105,3.46032 -7.02149,3.31836 a 1.0001,1.0001 0 0 0 -0.0996,-0.004 c -6.74425,0 -12.93581,0.66613 -17.16015,-0.45508 -2.11218,-0.56061 -3.7026,-1.50254 -4.83594,-3.17188 -1.13335,-1.66933 -1.82813,-4.15803 -1.82813,-7.875 a 1,1 0 0 0 -1,-1 1,1 0 0 0 -1,1 c 0,3.96598 0.73786,6.88296 2.17383,8.99805 1.43597,2.11509 3.55087,3.3386 5.97656,3.98242 4.85139,1.28764 11.07271,0.52149 17.67383,0.52149 l -0.0996,-0.006 c 2.53435,0.25328 5.40182,-1.33982 8.45508,-3.73633 3.05326,-2.39651 6.23486,-5.7048 8.94531,-9.29492 2.71045,-3.59012 4.95003,-7.45013 6.06641,-11.01367 1.11637,-3.56354 1.12321,-7.00735 -1.05274,-9.30664 -0.28751,-0.30381 -0.67824,-0.48036 -1.08398,-0.54883 z"
         id="path3953" />
    </g>
  </g>
</svg>
