<?xml version="1.0" encoding="utf-8"?>
<!-- Generator: Adobe Illustrator 26.3.1, SVG Export Plug-In . SVG Version: 6.00 Build 0)  -->
<svg version="1.1" id="Calque_1" xmlns="http://www.w3.org/2000/svg" xmlns:xlink="http://www.w3.org/1999/xlink" x="0px" y="0px"
	 viewBox="0 0 444.58 444.56" style="enable-background:new 0 0 444.58 444.56;" xml:space="preserve">
<g>
	<path d="M222.51,0c123.18,0.32,222.82,100.27,222.07,222.75c-0.75,123.3-99.91,222.15-222.52,221.81
		C98.89,444.22-0.73,344.28,0,221.8C0.74,98.56,99.94-0.32,222.51,0z M242.57,290.13c0-20.99,0.18-41.98-0.13-62.97
		c-0.07-5,1.45-6.09,6.14-5.92c9.65,0.37,19.32,0.03,28.98,0.16c2.68,0.04,3.7-0.64,3.95-3.51c1.15-12.93,2.61-25.84,3.92-38.76
		c0.64-6.26,0.61-6.26-5.85-6.26c-10.99,0-21.99-0.04-32.98,0.02c-2.46,0.01-4.13-0.25-4.07-3.43c0.17-8.66-0.18-17.33,0.18-25.98
		c0.35-8.46,4.6-12.2,13.12-12.27c8.5-0.07,16.99-0.11,25.49,0.03c2.83,0.05,4.18-0.45,4.14-3.77c-0.18-13.32-0.13-26.65-0.03-39.98
		c0.02-2.56-0.71-3.5-3.38-3.48c-15.15,0.14-30.34-0.42-45.46,0.28c-28.44,1.32-47.48,20.01-50.45,48.46
		c-1.25,11.97-0.51,23.97-0.58,35.95c-0.02,3.34-1.08,4.31-4.28,4.22c-6.49-0.19-12.99,0.02-19.49-0.08
		c-2.55-0.04-3.49,0.84-3.47,3.46c0.1,13.99,0.09,27.99,0,41.98c-0.02,2.44,0.89,3.14,3.21,3.1c6.16-0.11,12.34,0.25,18.48-0.13
		c4.31-0.26,5.59,0.87,5.57,5.4c-0.19,42.31-0.07,84.62-0.19,126.94c-0.01,3.78,0.81,5.21,4.91,5.15
		c15.82-0.24,31.65-0.25,47.47,0.01c4.17,0.07,4.88-1.46,4.85-5.16C242.49,332.45,242.57,311.29,242.57,290.13z"/>
</g>
</svg>
