<?xml version="1.0" encoding="utf-8"?>
<!-- Generator: Adobe Illustrator 26.3.1, SVG Export Plug-In . SVG Version: 6.00 Build 0)  -->
<svg version="1.1" id="Calque_1" xmlns="http://www.w3.org/2000/svg" xmlns:xlink="http://www.w3.org/1999/xlink" x="0px" y="0px"
	 viewBox="0 0 1366 768" style="enable-background:new 0 0 1366 768;" preserveAspectRatio="none" xml:space="preserve">
<style type="text/css">
	.st0{fill:#FCF5EF;}
</style>
<g>
	<path class="st0" d="M952.72,49.1l173.58,3.68c47.58,21.54,99.46,14.43,148.97,31.9c23.92,4.62,16.81,78.38,17.97,111.26
		c0,0,1.41,20.56,1.32,24.67c1.85,0.04,5.19,16.53,5.19,16.53c-1.13,53.36-13.43,110.59-14.47,159.85
		c-0.35,16.42,3.08,28.81,2.56,53.44c-2,94.41-8.04,205.16-58.34,224.62l-20.31-0.43c-33.41,7.51-57.85,27.52-91.09,26.81
		c-60.94-1.29-123.64-6.73-184.58-8.02c-3.69-0.08-25.68-8.76-33.07-8.91c-1.76-4.14-14.51-12.63-16.36-12.67
		c-1.85-0.04-9.41,8.01-11.34,12.08c-27.96,11.73-59.35,11.06-88.9,10.44c-1.85-0.04-10.99-4.34-14.69-4.42l-75.71-1.6
		c-3.69-0.08-18.29-8.6-18.29-8.6c-1.85-0.04-13.1,7.94-14.95,7.9l-3.69-0.08l-54.96-21.7c-5.54-0.12-51.79,3.01-57.25-1.21
		c-3.69-0.08-22.16-0.47-27.61-4.69c-1.85-0.04-12.75-8.48-14.6-8.52l-3.69-0.08l-384.43,94.52
		C51.2,744.53,30.56,497.7,32.56,403.29c2.52-119.04,36.96-262.03,98.16-273.06l415.21-65.12c3.69,0.08,107.28-5.94,149.84-9.14
		l24.01,0.51c14.77,0.31,133.39-17.71,150.01-17.36l5.54,0.12C882.72,39.4,945.33,48.94,952.72,49.1z"/>
</g>
</svg>
