<?xml version="1.0" encoding="UTF-8" standalone="no"?>
<!-- Created with Inkscape (http://www.inkscape.org/) -->

<svg
   width="21.478514mm"
   height="18.478552mm"
   viewBox="0 0 21.478514 18.478552"
   version="1.1"
   id="svg1"
   inkscape:version="1.3.2 (091e20e, 2023-11-25)"
   sodipodi:docname="hey.svg"
   xmlns:inkscape="http://www.inkscape.org/namespaces/inkscape"
   xmlns:sodipodi="http://sodipodi.sourceforge.net/DTD/sodipodi-0.dtd"
   xmlns="http://www.w3.org/2000/svg"
   xmlns:svg="http://www.w3.org/2000/svg">
  <sodipodi:namedview
     id="namedview1"
     pagecolor="#ffffff"
     bordercolor="#666666"
     borderopacity="1.0"
     inkscape:showpageshadow="2"
     inkscape:pageopacity="0.0"
     inkscape:pagecheckerboard="0"
     inkscape:deskcolor="#d1d1d1"
     inkscape:document-units="mm"
     inkscape:zoom="1.2339444"
     inkscape:cx="82.661749"
     inkscape:cy="79.014907"
     inkscape:window-width="1440"
     inkscape:window-height="748"
     inkscape:window-x="0"
     inkscape:window-y="25"
     inkscape:window-maximized="1"
     inkscape:current-layer="layer1" />
  <defs
     id="defs1" />
  <g
     inkscape:label="Layer 1"
     inkscape:groupmode="layer"
     id="layer1">
    <g
       id="g11401"
       transform="matrix(0.24587166,0,0,0.24587166,202.30273,261.84699)">
      <path
         style="fill:#ff4401;stroke-width:0.981326;stroke-linecap:round;stroke-linejoin:round;paint-order:markers stroke fill"
         d="m -799.80737,-1050.4566 c -16.8285,2.13 -26.43983,17.6101 -21.84435,35.0384 4.65539,20.87402 23.99246,31.40581 42.15382,22.31375 18.92822,-12.02325 50.44362,-37.53325 42.91678,-60.11565 -14.32198,-26.8092 -47.06538,0.2835 -63.22625,2.7635 z"
         id="path3719"
         sodipodi:nodetypes="csccc" />
      <path
         style="color:#000000;fill:#ffffff;stroke-linecap:round;stroke-linejoin:round;-inkscape-stroke:none;paint-order:markers stroke fill"
         d="m -773.02344,-1055.6387 c -0.80696,0 -1.33599,0.5239 -1.73047,1.0606 -0.39447,0.5366 -0.72497,1.2057 -1.06054,2.0176 -0.67116,1.6238 -1.33194,3.8116 -2.02735,6.3222 -0.89391,3.2273 -1.96417,6.9703 -2.98828,10.625 -0.064,-1.3915 0.002,-1.5711 -0.14453,-3.1347 -0.21908,-2.3343 -0.54041,-4.6596 -1.06445,-6.4649 -0.26202,-0.9026 -0.56398,-1.6767 -1.01172,-2.3047 -0.44775,-0.628 -1.21866,-1.1782 -2.08984,-1.0703 -0.45415,0.056 -0.85315,0.3257 -1.10352,0.6231 -0.25037,0.2973 -0.40103,0.6235 -0.52539,0.9765 -0.24872,0.706 -0.38317,1.5497 -0.48828,2.5528 -0.21022,2.006 -0.27048,4.6295 -0.41406,7.4667 -0.24536,4.8482 -0.86688,10.1884 -2.53321,13.8126 -0.47938,-1.2309 -0.90396,-2.4509 -2.06836,-4.8126 -0.82773,-1.6788 -1.74004,-3.327 -2.69336,-4.5488 -0.47666,-0.6109 -0.95584,-1.1217 -1.52734,-1.4824 -0.5715,-0.3607 -1.37363,-0.5653 -2.08789,-0.2461 -0.75055,0.3354 -1.17076,1.0489 -1.37891,1.7734 -0.20815,0.7246 -0.25715,1.5366 -0.23047,2.4434 0.0534,1.8137 0.4403,4.0061 0.95118,6.2422 1.02174,4.4722 2.5597,9.1151 3.02734,10.5957 0.21822,0.6909 0.10541,2.3379 -0.16406,3.6953 -0.26948,1.3575 -0.6211,2.457 -0.6211,2.457 a 1,1 0 0 0 0.64844,1.2579 1,1 0 0 0 1.25781,-0.6485 c 0,0 0.38184,-1.197 0.67578,-2.6777 0.29395,-1.4807 0.57414,-3.2142 0.10938,-4.6856 -0.48422,-1.5331 -1.99279,-6.0992 -2.98438,-10.4394 -0.49579,-2.1701 -0.85617,-4.2866 -0.90234,-5.8555 -0.0231,-0.7845 0.0389,-1.4303 0.1543,-1.832 0.11542,-0.4018 0.22936,-0.4803 0.27344,-0.5 -0.0125,0.01 -0.0393,-0.043 0.20507,0.1113 0.24441,0.1543 0.62184,0.5143 1.01758,1.0215 0.79148,1.0143 1.67965,2.5848 2.47656,4.2012 1.59383,3.2326 2.85743,6.6523 2.85743,6.6523 a 1.0001,1.0001 0 0 0 1.7539,0.2305 c 2.97018,-4.2011 3.49081,-10.9249 3.78125,-16.6641 0.14523,-2.8696 0.21107,-5.4988 0.40625,-7.3613 0.0976,-0.9313 0.23657,-1.6751 0.38477,-2.0957 0.036,-0.1021 0.0515,-0.1129 0.082,-0.1719 0.0221,0.016 -0.003,-0.035 0.12109,0.1387 0.21988,0.3084 0.49121,0.9193 0.71875,1.7031 0.45508,1.5677 0.78294,3.8206 0.9961,6.0918 0.42631,4.5423 0.42382,9.1719 0.42382,9.1719 a 1.0001,1.0001 0 0 0 1.94727,0.3164 c 1.78369,-5.3381 3.30412,-11.6647 4.67969,-16.6309 0.68778,-2.483 1.34319,-4.6283 1.94726,-6.0898 0.30204,-0.7308 0.59787,-1.2917 0.82422,-1.5996 0.22488,-0.306 0.30839,-0.2428 0.11719,-0.2422 0.15752,0 0.072,-0.071 0.18555,0.1679 0.11479,0.2419 0.22944,0.8196 0.23047,1.6036 0.002,1.568 -0.37435,3.9358 -0.93165,6.6074 -1.11459,5.3432 -2.92433,11.9397 -3.6289,16.8887 a 1.0001,1.0001 0 0 0 1.75586,0.7832 c 3.05762,-3.6471 5.94369,-9.5843 8.38672,-14.5489 1.22151,-2.4822 2.32623,-4.7206 3.22656,-6.2461 0.43515,-0.7372 0.82062,-1.2878 1.10351,-1.6054 0.0268,0.318 -0.0118,0.8616 -0.18945,1.5898 -0.37882,1.5533 -1.23608,3.7532 -2.21094,6.1641 -1.94972,4.8217 -4.41139,10.4387 -4.39062,14.6601 a 1.0001,1.0001 0 0 0 1.23828,0.9668 c 1.33993,-0.329 2.15566,-1.4544 3.14453,-2.8027 0.98887,-1.3483 2.01503,-3.0087 3.03516,-4.6016 1.02013,-1.5929 2.04035,-3.1187 2.93164,-4.1289 0.3972,-0.4502 0.7467,-0.7466 1.03906,-0.9472 -0.0333,0.1406 -0.0218,0.1797 -0.0762,0.3535 -0.31494,1.0062 -0.96511,2.5148 -1.83789,4.3027 -1.74557,3.5757 -4.38597,8.3118 -7.125,13.0195 -5.47806,9.4156 -11.34961,18.7325 -11.34961,18.7325 a 1,1 0 0 0 0.3125,1.3808 1,1 0 0 0 1.37891,-0.3144 c 0,0 5.88466,-9.3362 11.38671,-18.793 2.75103,-4.7284 5.40651,-9.4841 7.19532,-13.1484 0.8944,-1.8322 1.57152,-3.3816 1.94726,-4.5821 0.18787,-0.6002 0.31031,-1.1008 0.3125,-1.6113 10e-4,-0.2552 -0.0214,-0.5267 -0.16797,-0.8281 -0.14656,-0.3014 -0.48592,-0.6104 -0.8457,-0.711 -0.73171,-0.2044 -1.45827,0.021 -2.04297,0.377 -0.5847,0.3558 -1.10464,0.8533 -1.62695,1.4453 -1.04463,1.184 -2.08554,2.7622 -3.11719,4.3731 -1.03165,1.6108 -2.04905,3.254 -2.96289,4.5 -0.1974,0.2691 -0.24154,0.22 -0.43359,0.4414 0.68325,-3.3054 2.38286,-7.557 3.91015,-11.334 0.97926,-2.4218 1.86119,-4.645 2.29883,-6.4395 0.21882,-0.8972 0.34348,-1.6852 0.24219,-2.4375 -0.10129,-0.7523 -0.62493,-1.5837 -1.43555,-1.8301 -0.44895,-0.1364 -0.90336,-0.016 -1.21484,0.1543 -0.31149,0.1707 -0.54703,0.3893 -0.7793,0.6426 -0.46453,0.5066 -0.90774,1.1747 -1.39258,1.9961 -0.96967,1.6429 -2.07698,3.896 -3.29883,6.3789 -1.63355,3.3196 -3.48224,6.7798 -5.35156,9.8731 0.82655,-3.852 1.81045,-7.9594 2.5918,-11.7051 0.56766,-2.7213 0.9751,-5.1432 0.97266,-7.0176 -10e-4,-0.9372 -0.0855,-1.7461 -0.42383,-2.459 -0.33831,-0.7129 -1.13683,-1.3104 -1.98828,-1.3125 a 1.0001,1.0001 0 0 0 -0.002,0 z"
         id="path3716" />
      <path
         style="color:#000000;fill:#000000;stroke-linecap:round;stroke-linejoin:round;-inkscape-stroke:none;paint-order:markers stroke fill"
         d="m -806.32812,-1040.0723 a 1,1 0 0 0 -0.72461,0.2403 c -4.2384,3.6654 -5.85195,11.0263 -6.56836,17.8359 -0.35821,3.4048 -0.46026,6.6814 -0.44532,9.2969 0.0149,2.6154 0.13355,4.5093 0.26758,5.3808 a 1,1 0 0 0 1.14063,0.8379 1,1 0 0 0 0.83593,-1.1406 c -0.0889,-0.5781 -0.22955,-2.5363 -0.24414,-5.0898 -0.0146,-2.5536 0.0852,-5.7631 0.4336,-9.0743 0.69671,-6.6223 2.51135,-13.614 5.88672,-16.5332 a 1,1 0 0 0 0.10351,-1.4121 1,1 0 0 0 -0.68554,-0.3418 z"
         id="path3713" />
      <path
         style="color:#000000;fill:#000000;stroke-linecap:round;stroke-linejoin:round;-inkscape-stroke:none;paint-order:markers stroke fill"
         d="m -815.66797,-1037.3105 a 1,1 0 0 0 -1.26562,0.6328 c -1.06656,3.1987 -3.03479,10.915 -0.97461,17.5175 a 1,1 0 0 0 1.2539,0.6563 1,1 0 0 0 0.65625,-1.252 c -1.81188,-5.8068 -0.0218,-13.3357 0.96289,-16.289 a 1,1 0 0 0 -0.63281,-1.2656 z"
         id="path3710" />
      <path
         style="color:#000000;fill:#000000;stroke-linecap:round;stroke-linejoin:round;-inkscape-stroke:none;paint-order:markers stroke fill"
         d="m -755.00977,-1060.8535 a 1,1 0 0 0 -0.70117,0.3086 1,1 0 0 0 0.0352,1.414 c 5.45964,5.2056 6.53718,11.7006 6.22851,21.6661 a 1,1 0 0 0 0.96875,1.0293 1,1 0 0 0 1.0293,-0.9688 c 0.31419,-10.1437 -0.87224,-17.4765 -6.84765,-23.1738 a 1,1 0 0 0 -0.7129,-0.2754 z"
         id="path3707" />
      <path
         style="color:#000000;fill:#000000;stroke-linecap:round;stroke-linejoin:round;-inkscape-stroke:none;paint-order:markers stroke fill"
         d="m -744.42969,-1057.9297 a 1,1 0 0 0 -1.40234,0.1875 1,1 0 0 0 0.18555,1.4004 c 1.47032,1.126 3.2924,4.8887 3.1914,9.8672 a 1,1 0 0 0 0.98047,1.0215 1,1 0 0 0 1.01953,-0.9805 c 0.11055,-5.4493 -1.58954,-9.6696 -3.97461,-11.4961 z"
         id="path3704" />
    </g>
  </g>
</svg>
