<?xml version="1.0" encoding="utf-8"?>
<!-- Generator: Adobe Illustrator 26.3.1, SVG Export Plug-In . SVG Version: 6.00 Build 0)  -->
<svg version="1.1" id="Flat" xmlns="http://www.w3.org/2000/svg" xmlns:xlink="http://www.w3.org/1999/xlink" x="0px" y="0px"
	 viewBox="0 0 634.59 634.59" style="enable-background:new 0 0 634.59 634.59;" xml:space="preserve">
<path d="M418.84,317.3c0,56.08-45.46,101.54-101.54,101.54S215.75,373.38,215.75,317.3s45.46-101.54,101.54-101.54
	C373.35,215.82,418.77,261.24,418.84,317.3z M634.62,177.68v279.24c-0.11,98.09-79.6,177.59-177.7,177.7H177.68
	c-98.09-0.11-177.59-79.6-177.7-177.7V177.68C0.09,79.58,79.58,0.09,177.68-0.02h279.24C555.01,0.09,634.5,79.58,634.62,177.68z
	 M469.61,317.3c0-84.12-68.19-152.31-152.31-152.31S164.98,233.18,164.98,317.3s68.19,152.31,152.31,152.31
	C401.38,469.51,469.51,401.38,469.61,317.3z M520.38,152.29c0-21.03-17.05-38.08-38.08-38.08c-21.03,0-38.08,17.05-38.08,38.08
	s17.05,38.08,38.08,38.08C503.33,190.37,520.38,173.32,520.38,152.29z"/>
</svg>
