<?xml version="1.0" encoding="utf-8"?>
<!-- Generator: Adobe Illustrator 26.3.1, SVG Export Plug-In . SVG Version: 6.00 Build 0)  -->
<svg version="1.1" id="Calque_1" xmlns="http://www.w3.org/2000/svg" xmlns:xlink="http://www.w3.org/1999/xlink" x="0px" y="0px"
	 viewBox="0 0 1039.6 768" style="enable-background:new 0 0 1039.6 768;" xml:space="preserve">
<style type="text/css">
	.st0{fill:#FF4401;}
	.st1{fill:none;}
	.st2{font-family:'DKMagicalBrush-Regular';}
	.st3{font-size:61.7661px;}
	.st4{font-family:'MyriadPro-Regular';}
	.st5{fill:#FFFFFF;}
</style>
<g>
	<g>
		<g>
			<g>
				<path class="st0" d="M952.44,557.96c-0.83-16-5.26-32.12-10.89-48.1c-3.84-10.92-8.52-21.8-13.91-32.63
					c-9.21-14.13-41.86-67.07-52.93-80.95c-0.98,0.36-3.27-6.33-4.65-6.28c-0.01,0-0.02,0-0.04,0c-7.74,5.21-16.91,6.88-25.64,10.28
					c-10.18,3.95-20.13,8.25-31.18,7.87c-3.57,0.6-7.4-0.2-11.08-1.59c-7.86-1.73-15.54-4.29-23.63-5.17
					c-0.65,0.46-1.4,0.83-2.28,1.06c-5.25,1.39-10.59,0.79-15.49-1.54c-1.5-0.71-2.95-1.59-4.4-2.47c-2.75-0.77-5.43-1.78-8.05-3.12
					c-0.9,0.44-1.95,0.7-3.13,0.68c-6.59-0.1-12.82,2.59-19.46,1.2c-5.44-1.13-9.81-4.76-13.71-8.52c-2.66-2.57-5.33-5.33-7.84-8.26
					c-0.97,0.15-1.97,0.4-3.04,0.79c-3.31,1.19-6.65,1.62-9.96,0.11c-2.93-1.33-5.19-3.81-7.39-6.06c-2.34-2.39-4.86-4.48-7.3-6.77
					c-1.25-1.17-2.39-2.38-3.46-3.61c-1.36-0.49-2.73-0.91-4.15-1.2c-7.82-1.59-13.55-4.32-18.22-10.75l-81.38-2.44
					c-4.05-0.12-14.35-2.9-16.37-2.96c-32.4-0.97-66.83-2.01-96.67,4.52c-1.84,2.42-9.59,7.13-11.61,7.07s-16.55-5.44-18.76-7.98
					c-8.1-0.24-32.76-5.93-36.81-6.05c-66.83-2-135.86-6.55-202.69-8.55c-36.45-1.09-61.88,10.51-97.97,14.37l-22.28-0.67
					c-53.78,10.75-52.99,77.54-48.87,134.55c1.08,14.87,5.67,22.43,6.39,32.34c2.15,29.74-7.49,64.07-5.17,96.29
					c0,0,4.77,10.03,6.79,10.09c0.18,2.48,3.1,14.93,3.1,14.93c3.46,19.89,0.61,64.31,27.11,67.58
					c55.4,11.55,111.74,8.3,165.28,22.27L411.06,734c8.1,0.24,77.31,7.27,85.42,7.51l6.08,0.18c10.57,0.32,58.29-2.41,99.69-4.66
					c0.79-1.44,2.17-2.65,4.29-3.33c22.5-7.21,45.33-13.41,68.38-18.62c78.48-17.75,159.1-24.48,239.47-25.02
					c8.38-14.4,15.65-29,21.6-43.8C947.48,617.48,954.01,587.91,952.44,557.96z"/>
			</g>
		</g>
	</g>
	<path class="st0" d="M515.91,347.79c-5.73-16.31-15.29-56.12,15.72-82.09c3.92-3.28,0.84-9.61-4.16-8.57
		c-37.66,7.85-105.61,32.83-101.04,110.65c0.26,4.34,4.31,7.44,8.56,6.47l75.89-17.29C514.97,356.03,517.3,351.74,515.91,347.79z"/>
</g>
<g id="U5Oh9B_00000154392316437213531540000011830220384841052039_">
	<g>
		<path d="M947.78,477.26c11.96-2.68,22.68-7.19,31.5-15.41c7.43-6.92,14.63-14.09,21.93-21.14c6.35-6.13,9.52-13.94,11.76-22.23
			c3.4-12.58,4.03-25.2,1.15-38.03c-1.78-7.86-2.69-15.92-4.26-23.84c-1.89-9.54-7.36-16.96-14.47-23.33
			c-7.2-6.43-15.52-11.17-23.89-15.81c-5.83-3.24-12.27-3.23-18.72-3.2c-3.48,0.01-5.88,0.86-7.84,4.19
			c-2.94,5.02-7.97,7.93-13.15,10.35c-2.94,1.38-4.97,3.49-6.37,6.38c-9.52,19.81-24.1,35.35-41.25,48.7
			c-9.97,7.77-20.93,13.55-33.21,16.73c-1.29,0.34-2.51,0.96-3.45,1.93c-8.2,8.46-18.46,10.26-29.62,9.35
			c-8.94-0.73-17.58-2.83-26.02-5.76c-4.28-1.49-8.21-1.18-11.9,1.27c-4.28,2.84-8.85,3.03-13.65,1.96
			c-7.88-1.75-14.72-5.69-21.25-10.2c-2.43-1.68-4.13-2.49-7.14-0.45c-6.31,4.28-15.05,2.48-21.71-3.64
			c-3.07-2.81-6.19-5.57-9.27-8.37c-0.76-0.69-1.41-1.23-2.61-0.82c-6.57,2.23-12.42,0.35-17.96-3.28
			c-4.27-2.8-8.13-6.07-11.64-9.76c-1.56-1.63-3.35-3-5.27-4.18c-1.59-0.97-3.28-1.62-5.22-1.13c-3.14,0.78-5.69-0.39-8-2.44
			c-4.11-3.66-8.05-7.48-11.27-11.97c-2.24-3.12-5.08-5.06-9.05-5.53c-4.13-0.48-7.08-3.09-9.54-6.29
			c-4.05-5.27-6.62-11.33-9.08-17.43c-0.84-2.1-1.78-3.62-4.41-4.05c-3.08-0.49-4.99-2.88-6.14-5.69c-0.53-1.31-1-2.68-1.17-4.07
			c-0.64-5.5-3.21-10-7.22-13.6c-9.54-8.58-13.25-19.36-12.91-31.96c0.24-8.72,0-17.47-0.03-26.2c-0.01-2.09-0.98-3.94-2.03-5.57
			c-4.47-7.02-4.5-14.99-5.35-22.84c-1.1-10.11,1.48-19.65,4.18-29.19c3.94-13.94,7.91-27.86,11.78-41.81
			c2.45-8.85,6.99-16.5,12.84-23.47c2.03-2.42,4.1-4.82,6.11-7.26c1.18-1.43,2.65-2.32,4.5-2.32c3.57,0.02,5.93-1.86,7.68-4.73
			c2.08-3.41,4-6.94,6.25-10.23c4.16-6.09,9.09-11.32,16.7-13c1.05-0.23,2.19-0.45,3.21-0.27c3.4,0.59,5.66-1.01,7.83-3.36
			c4.51-4.9,9.12-9.7,13.78-14.46c4.12-4.19,8.73-5.1,14.13-2.62c2.13,0.98,3.45,0.56,5.02-0.96c7.77-7.55,15.69-14.91,25.47-19.92
			c5.37-2.75,6.63-2.74,11.03,1.34c1.06,0.98,1.78,1.04,2.99,0.29c6.88-4.29,14.34-7.38,21.88-10.28c4.36-1.67,8.49-1.28,12.06,2.11
			c1.78,1.7,3.91,2.02,6.26,1.49c3.51-0.78,6.82-2.12,10.15-3.43c4.49-1.75,8.81-1.69,12.66,1.58c1.03,0.89,2.1,0.76,3.28,0.6
			c5.6-0.83,11.15-1.99,16.82-2.26c5.21-0.25,9.7,1.06,13,5.42c1.4,1.85,3.61,1.98,5.68,1.99c8.15,0.03,16.29,0.05,24.44-0.07
			c4.63-0.07,8.65,1.04,11.97,4.51c2.01,2.1,4.75,3.17,7.6,3.47c11.55,1.23,19.08,7.92,24.33,17.73c1.41,2.63,3.43,4.29,6.12,5.56
			c21.48,10.13,40.58,23.52,55.96,41.78c5.99,7.12,10.41,15.22,13.54,24.01c0.84,2.36,1.76,4.73,3.6,6.5
			c5.95,5.76,7.38,12.96,6.86,20.84c-0.23,3.49-0.58,6.97-1.36,10.38c-0.21,0.94-0.24,1.71,0.52,2.5c2.8,2.9,3.21,6.5,2.53,10.25
			c-0.49,2.7-0.41,5.2,0.76,7.77c1.28,2.81,1.23,5.84,0.49,8.82c-0.57,2.26-1.28,4.48-1.89,6.73c-0.64,2.32-0.65,4.61,0.53,6.8
			c2.31,4.28,1.8,8.5-0.3,12.68c-2.65,5.29-5.29,10.56-7.96,15.84c-0.54,1.06-0.92,2.06-0.7,3.32c0.37,2.05-0.67,3.75-1.82,5.28
			c-3.56,4.73-6.79,9.67-10.06,14.59c-2.72,4.09-4.21,8.04-1.1,12.68c1.38,2.05,0.41,4.17-1.06,5.97c-1.98,2.45-4.46,4.5-5.92,7.38
			c-1.4,2.75-1.45,2.75,1.48,3.61c9.75,2.84,19.71,5.13,28.66,10.13c19.23,10.75,33.44,25.98,40.57,47.09
			c3.81,11.28,4.01,23.06,3.47,34.83c-0.86,18.67-5.36,36.5-12.76,53.62c-3.71,8.58-9.67,15.48-16.63,21.56
			c-15.75,13.77-33.51,24.28-52.81,32.24c-3.56,1.47-7.45,1.69-11.25,2.17c-2.79,0.35-5.4,1.16-7.45,3.17
			c-12.77,12.49-28.22,20.72-44.35,27.89c-8.89,3.95-17.61,8.33-26.77,11.66c-11.49,4.19-23.25,4.7-35.08,1.25
			c-0.4-0.11-0.82-0.21-1.18-0.42c-1.46-0.89-4.02-0.79-3.86-3.25c0.31-4.68,0.65-6.16,4-7.21c7.22-2.27,14.54-4.21,21.7-6.67
			c19.03-6.54,38.16-12.82,56.32-21.6c1.27-0.62,2.51-1.31,3.74-1.99c0.65-0.36,1.55-0.72,1.54-1.5c-0.01-0.89-1.06-0.92-1.72-1.18
			c-6.61-2.52-13.33-4.77-19.82-7.58c-12.96-5.61-21.81-15.26-26.54-28.55c-1.76-4.94-1.38-10.12,0.19-15.01
			c5.75-17.97,15.4-33.54,30.81-44.66c12.14-8.77,25.75-11.4,40.14-5.09c10.17,4.47,16.33,12.62,20.21,22.66
			c4.07,10.54,3.96,21.5,2.78,32.52c-0.98,9.12-3.44,17.79-7.8,25.89C947.9,476.3,947.9,476.56,947.78,477.26z M830.09,404.57
			c-0.77-0.95-1.66-0.92-2.42-1.12c-17.48-4.64-33.41-12.63-48.57-22.33c-8.4-5.37-15.62-12.16-22.8-18.96
			c-3.72-3.51-8.2-5.99-11.91-9.46c-6.35-5.93-11.1-13.28-17.26-19.37c-0.33-0.33-0.47-0.87-0.67-1.33
			c-1.67-3.72-3.48-7.39-5.88-10.7c-7.79-10.72-12.25-23.01-16.57-35.33c-3.63-10.34-5.39-21.1-6.18-32.02
			c-0.74-10.2-2.3-20.34-1.87-30.62c0.72-17.04,4.59-33.4,10.25-49.42c5.85-16.55,12.86-32.57,23.18-46.84
			c15.56-21.5,34.72-39.18,57.76-52.51c7.27-4.21,14.55-8.47,22.37-11.57c6.79-2.7,13.83-4.8,20.77-7.12
			c5.83-1.95,11.64-4.07,17.93-4.01c4.74,0.05,9.48-0.04,14.22-0.01c8.34,0.06,16.66,0.3,24.46,3.84c1.12,0.51,2.34,0.75,3.6,0.27
			c-2.45-4.28-7.79-7.57-14.28-8.15c-11.81-1.07-23.62-0.41-35.33,1.38c-9.15,1.41-17.94,4.26-26.71,7.22
			c-20.06,6.76-38.42,16.52-55.11,29.64c-13.98,10.99-26.83,23.14-39.25,35.8c-6.05,6.15-10.52,13.22-13.48,21.36
			c-3.83,10.56-7.63,21.13-11.48,31.68c-8.37,22.97-11.13,46.44-7.6,70.71c3.12,21.48,7.31,42.65,16.17,62.63
			c4.1,9.27,8.76,18.17,16.48,25.03c5.08,4.51,9.32,9.71,13.12,15.31c3.03,4.48,5.91,9.06,9.22,13.35
			c10.97,14.21,24.82,24.95,40.31,33.74c2.81,1.6,5.31,3.82,8.56,4.55c7.54,1.71,14.97,3.91,22.63,5.15
			C819.18,406.25,824.63,407.29,830.09,404.57z M848.82,42.55c-0.01-0.27-0.02-0.54-0.03-0.81c-4.89-1.39-9.92-1.65-14.98-1.36
			c-19.2,1.09-36.65,7.77-52.55,18.05c-11.46,7.41-22.67,15.15-34.94,21.22c-5.87,2.9-10.85,7.08-15.6,11.53
			c-10.98,10.29-20.59,21.76-28.71,34.41c-5.25,8.19-10.49,16.44-13.76,25.69c-2.16,6.11-3.53,12.53-5.97,18.52
			c-6.7,16.53-9.02,33.88-10.1,51.43c-0.79,12.96,0.2,25.94,1.38,38.87c0.71,7.71,1.83,15.38,4.17,22.8
			c2.9,9.2,5.85,18.38,8.79,27.56c2.96,9.21,5.97,18.47,12,26.19c6.77,8.66,12.93,17.74,19.38,26.63
			c7.73,10.67,16.05,20.84,26.7,28.83c7.21,5.4,15.14,9.33,23.88,11.58c3.25,0.83,6.08,0.18,8.51-2.15c0.83-0.79,1-1.42-0.07-2.18
			c-2.97-2.13-5.75-4.55-9.15-6.04c-3.29-1.45-6.34-3.35-9.08-5.66c-10.76-9.15-20.28-19.47-28.34-31.08
			c-5.8-8.35-11.55-16.69-19.32-23.4c-3.21-2.77-5.34-6.35-6.78-10.33c-0.97-2.66-2.13-5.24-3.49-7.73
			c-5.43-9.96-10.25-20.17-12.69-31.34c-2.46-11.23-4.16-22.59-6.01-33.92c-2.7-16.57-2.91-33.07,0.07-49.65
			c2.43-13.5,6.9-26.36,10.88-39.41c6.17-20.23,17.21-37.33,31.73-52.43c8.34-8.68,18.11-15.68,27.07-23.62
			c10.58-9.37,22.34-17.03,35.16-23.05c18.44-8.67,37.17-16.37,57.7-18.51C846.1,43.01,847.46,42.76,848.82,42.55z M658.48,271.74
			c1.6,10.77,3.84,21.07,7.26,31.11c2.48,7.27,6.15,14.01,9.27,20.99c7.93,17.74,16.5,35.06,29.41,49.91
			c6.38,7.35,13.12,14.14,21.6,19.06c1.54,0.9,3.15,1.59,4.94,1.57c1.29-0.01,3.04,0.21,3.65-1.04c0.61-1.26-0.88-2.16-1.7-3.03
			c-5.58-5.96-11.21-11.88-15.95-18.53c-9.3-13.08-18.44-26.3-27.69-39.43c-2.17-3.08-4.13-6.24-5.32-9.83
			c-2.73-8.29-5.62-16.55-8.16-24.89c-2.66-8.74-5.98-17.29-7.12-26.46c-1.56-12.57-2.65-25.16-2.69-37.82
			c-0.05-16.19,1.44-32.24,5.3-47.99c2.41-9.84,6.46-19.26,7.61-29.43c0.09-0.8,0.45-1.61,0.82-2.35c2.19-4.58,4.38-9.16,6.62-13.72
			c8.17-16.54,21.03-29.7,31.98-44.22c7-9.27,16.86-15.21,27.02-20.55c6.27-3.3,12.5-6.62,18.11-10.99
			c8.09-6.31,16.54-12.03,25.82-16.48c9.16-4.39,18.15-9.16,28.5-10.2c0.08-0.01,0.17-0.03,0.25-0.05c0.68-0.22,1.68-0.22,1.73-1.12
			c0.06-0.86-0.89-1.13-1.52-1.47c-1.75-0.95-3.68-1-5.6-0.91c-6.21,0.27-12.25,1.44-17.87,4.16
			c-10.27,4.98-20.06,10.84-29.69,16.94c-15.27,9.67-31.46,17.93-44.43,31.12c-9.93,10.09-20.5,19.53-28.05,31.66
			c-3.6,5.79-6.96,11.73-10.35,17.66c-7.91,13.81-15.32,27.86-20.64,42.91c-3.72,10.55-7.17,21.22-7.21,32.52
			C654.3,231.31,656.05,251.71,658.48,271.74z M936.03,432.94c-0.44-4.36-1.77-8.49-3.31-12.53c-3.68-9.63-14.83-15.18-24.19-12.15
			c-6.61,2.14-12.05,6.07-16.19,11.59c-7.11,9.5-11.39,20.46-15.58,31.42c-1.59,4.17-0.27,8.04,3.07,11.08
			c4.45,4.04,9.34,7.5,14.48,10.6c8.66,5.21,18.02,8.07,28.13,8.39c1.47,0.05,2.71-0.14,3.54-1.68
			C933.82,465.05,938.25,449.7,936.03,432.94z M699.81,380.16c-0.22-1.31-0.89-2.04-1.44-2.84c-5.25-7.6-10.8-14.99-15.56-22.93
			c-5.42-9.03-8.8-19.01-13.35-28.44c-4.73-9.82-9.51-19.64-11.69-30.42c-2.29-11.33-5.65-22.45-6.59-34.05
			c-0.84-10.45-1.76-20.89-2.63-31.34c-1.67-19.85,1.23-38.95,9.01-57.35c5.38-12.75,11.81-24.97,18.14-37.23
			c8.11-15.68,17.63-30.37,30.59-42.56c8.12-7.63,15.75-15.89,24.94-22.24c13.26-9.19,26.58-18.33,40.61-26.35
			c4.77-2.72,9.39-5.7,14.07-8.56c0.55-0.34,1.34-0.62,1.17-1.43c-0.21-1.02-1.14-0.82-1.84-0.75c-1.57,0.16-3.17,0.25-4.69,0.63
			c-12.83,3.23-24.51,8.99-35.28,16.56c-15.79,11.09-29.63,24.46-43.65,37.61c-4.14,3.88-7.86,8.11-10.89,12.96
			c-9.56,15.32-18.47,31.02-27.28,46.79c-5.25,9.38-10.44,18.81-13.5,29.17c-5.28,17.87-8.46,36.07-8.64,54.8
			c-0.14,14.98-0.81,29.95,1.55,44.83c1.36,8.57,3.88,16.86,6.1,25.21c3.33,12.54,6.32,25.18,11.12,37.29
			c5.09,12.82,12.19,24.22,23.25,32.79C688.19,376.02,693.61,378.6,699.81,380.16z M814.98,265.84c12.88-1.82,25.52-4.75,37.92-8.69
			c24.28-7.72,48.11-16.55,71.01-27.81c12.62-6.2,24.88-13.09,37.61-19.08c5.36-2.52,10.08-5.82,13.92-10.32
			c4.24-4.95,7.75-10.26,7.65-17.15c-0.01-0.7,0.47-1.66-0.42-2.01c-0.82-0.33-1.27,0.61-1.8,1.08
			c-8.39,7.5-17.34,14.28-26.77,20.44c-20.85,13.61-43.95,22.47-66.87,31.7c-11.74,4.72-23.94,8.07-36.01,11.85
			c-14.78,4.62-29.56,9.18-45.01,11.12c-14.12,1.77-28.25,3.48-42.47,4.32c-15.41,0.91-30.58-0.12-45.43-4.72
			c-3.8-1.17-7.76-1.84-11.66-2.73c-0.74-0.17-1.43-0.27-1.88,0.66c-2.36,4.79,0.05,9.93,5.3,10.92c3.18,0.59,6.44,0.83,9.64,1.24
			c9.58,1.22,19.16,2.3,28.84,1.65c3.89-0.27,7.75-0.88,11.69-0.52C778.58,269.51,796.82,268.8,814.98,265.84z M984.77,197.5
			c-1.36,0.52-1.78,1.49-2.38,2.23c-4.26,5.22-9.15,9.7-15.14,12.82c-14,7.32-27.91,14.86-42.15,21.69
			c-13.72,6.58-28.01,11.89-42.23,17.3c-20.72,7.9-41.83,14.37-63.75,18.04c-14.47,2.42-29.02,3.93-43.71,3.64
			c-6.48-0.12-12.96-0.63-19.44-0.67c-8.81-0.05-17.6,0.92-26.42,0.39c-6.23-0.38-12.39-1.53-18.65-1.45
			c-4.15,0.06-4.12,0.07-3.49,4.21c0.22,1.42,0.45,2.42,2.31,2.55c7.46,0.55,14.9,1.49,22.37,1.9c15.74,0.88,31.4-0.93,47.08-1.79
			c15.78-0.86,31.53-2.02,47.28-3.36c19.45-1.66,38.58-5.14,57.24-10.98c7.63-2.39,14.75-6.15,22.37-8.49
			c15.84-4.89,30.81-11.53,44.75-20.54c11.17-7.22,21.61-15.26,29.6-26.09C982.87,205.62,984.8,202.11,984.77,197.5z M662.18,360.11
			c0.21-0.1,0.42-0.22,0.63-0.32c-0.48-1.21-0.92-2.43-1.44-3.62c-3.01-6.86-6.95-13.3-9.31-20.43c-3.04-9.16-5.45-18.51-7.66-27.91
			c-2.41-10.2-5.15-20.34-6.93-30.68c-2.2-12.88-1.73-25.86-1.34-38.84c0.43-14.13,0.51-28.3,3.8-42.16
			c2.17-9.15,3.65-18.5,7.6-27.12c7.31-15.96,15.06-31.7,24.07-46.81c3.66-6.14,7.02-12.47,11.09-18.37
			c8.13-11.8,17.93-22.08,28.62-31.54c11.41-10.08,22.64-20.39,35.52-28.64c3.78-2.42,7.53-4.9,11.27-7.39
			c0.57-0.38,1.49-0.66,1.12-1.67c-0.31-0.84-1.09-0.89-1.86-0.97c-2.03-0.21-3.98,0.19-5.9,0.78c-10.03,3.12-18.3,9.01-25.67,16.31
			c-11.64,11.54-23.3,23.07-34.86,34.7c-4.5,4.52-9.54,8.62-12.8,14.26c-7.27,12.53-14.51,25.06-21.73,37.62
			c-5.56,9.68-10.95,19.48-13.99,30.3c-10.18,36.21-16.18,72.93-12.84,110.71c1.77,19.98,5.58,39.53,13.01,58.28
			C646.58,346.65,653.49,354.1,662.18,360.11z M980.89,153.9c-1.27,0.41-1.42,1.22-1.76,1.83c-7.35,13.99-17.83,25.14-30.58,34.36
			c-13.3,9.62-27.93,16.76-42.66,23.79c-10.92,5.21-22.52,8.59-33.78,12.87c-9.74,3.7-19.55,7.02-29.67,9.51
			c-5.66,1.39-11.42,2.21-16.99,3.99c-10.67,3.4-21.68,5.17-32.84,5.88c-8.21,0.53-16.44,0.81-24.68,1.08
			c-5.4,0.18-10.83,1.28-16.19,0.49c-8.14-1.2-16.21-2.92-24.29-4.5c-6.87-1.35-13.56-3.34-20.23-5.46
			c-3.54-1.13-4.04-0.74-4.09,2.78c-0.02,1.07,0.16,2.17,0.07,3.24c-0.13,1.51,0.52,2.28,1.9,2.77c2.75,0.95,5.44,2.08,8.19,3.02
			c15.12,5.15,30.63,7.68,46.63,6.77c7.31-0.42,14.59-1.15,21.91-1.55c12.4-0.67,24.73-1.94,36.86-4.66
			c18.54-4.15,36.51-10.21,54.46-16.32c13.94-4.75,27.21-11.22,40.86-16.69c20.83-8.35,39.65-19.92,56.71-34.42
			C979.58,175.1,981.88,165.23,980.89,153.9z M848.54,282.77c22.5-4.08,41.9-6.74,60.65-12.58c9.68-3.01,19.66-5.11,29.08-8.91
			c11.26-4.54,21.38-11.19,31.24-18.12c7.93-5.57,12.62-13.58,14.92-22.94c0.35-1.44,1.54-3.64-0.29-4.52
			c-1.72-0.82-2.79,1.36-3.86,2.49c-9.8,10.27-21.19,18.56-33.5,25.4c-21.43,11.91-44.97,18.64-68,26.54
			c-8.23,2.82-16.93,3.46-25.43,5.1c-21.54,4.16-43.34,5.97-65.17,7.69c-10.86,0.86-21.74,1.6-32.62,2.28
			c-9.29,0.57-18.6,1.6-27.88,0.08c-4.71-0.77-9.43-0.79-14.18-0.79c-0.8,0-1.79-0.2-2.21,0.74c-0.43,0.97-0.22,1.97,0.35,2.86
			c0.73,1.12,1.87,1.59,3.12,1.88c3.98,0.95,8.03,1.39,12.1,1.7c12.97,0.97,25.93,0.33,38.88-0.44c13.95-0.84,27.9-1.71,41.83-2.76
			C822.46,287.35,837.11,284.48,848.54,282.77z M636.87,340.97c-1.03-3.79-1.71-6.96-2.75-10.01c-3.48-10.27-6.53-20.66-7.71-31.46
			c-0.96-8.77-1.87-17.55-2.99-26.3c-0.68-5.28-1.09-10.61-0.9-15.93c0.62-17.65,2.59-35.16,5.47-52.58
			c3.39-20.54,8.69-40.5,17.51-59.43c6.45-13.83,14.63-26.7,22.32-39.83c5.55-9.48,12.31-17.97,20.11-25.67
			c9.06-8.94,18.16-17.85,27.23-26.79c2.19-2.16,4.34-4.37,6.45-6.61c1.03-1.1,1.13-2.37,0.28-3.65c-0.62-0.93-1.41-1.04-2.38-0.57
			c-6.64,3.18-12.99,6.79-17.92,12.44c-6.52,7.46-12.98,14.96-19.54,22.38c-6.78,7.66-13.98,14.96-19.22,23.87
			c-2.83,4.8-5.99,9.4-8.91,14.15c-5.25,8.49-10.83,16.78-15.07,25.88c-8.03,17.26-12.78,35.55-16.85,54.01
			c-3.45,15.65-4.34,31.62-3.81,47.65c0.51,15.55-0.24,31.11-0.23,46.65c0,15.39,3.01,30.1,10.79,43.59
			C630.59,335.94,632.75,338.81,636.87,340.97z M936.73,180.38c-1.43-5.68-4.75-11.81-8.56-17.68
			c-13.64-21.02-32.1-36.6-53.99-48.53c-15.44-8.41-31.25-15.97-47.42-22.86c-10.5-4.48-21.37-7.93-32.2-11.49
			c-2.78-0.91-5.4-0.83-7.77,1.12c-1.41,1.15-1.6,1.97,0.42,2.68c3.45,1.21,6.9,2.44,10.17,4.12c16.87,8.67,33.72,17.37,50.61,26.03
			c20.24,10.38,39.31,22.37,55.2,38.95c10.83,11.3,19.93,23.64,25.19,38.54c0.48,1.33,0.36,3.53,1.97,3.65
			c1.83,0.14,3.65-0.99,5.05-2.4c0.73-0.74,1-1.72,1.19-2.71C937.11,187.08,937.33,184.35,936.73,180.38z M923.02,192.29
			c-0.72-3.77-2.76-8.49-5.48-12.91c-5.35-8.67-12.22-16.18-18.53-24.11c-2.27-2.86-4.97-5.37-7.73-7.78
			c-11.4-9.99-24.43-17.56-37.41-25.19c-19.33-11.37-39.93-20.18-60.13-29.8c-4.86-2.31-10.1-3.33-15.48-3.47
			c-2.8-0.07-5.51,0.41-7.65,2.43c-0.76,0.72-2.05,1.53-1.77,2.52c0.34,1.18,1.88,1.17,3.03,1.29c5.49,0.59,10.82,1.83,16.05,3.55
			c10.83,3.55,20.74,9.03,30.5,14.74c14.77,8.65,30.16,16.27,43.37,27.44c6.61,5.58,13.4,10.94,19.64,16.95
			c7.28,7.02,13.24,15.13,19.5,23.02c5.31,6.7,11.49,12.75,15.11,20.69c0.44,0.97,1.07,1,2.03,0.71
			C922.57,201.02,924.04,198.6,923.02,192.29z M763.23,100.74c-2.76,0.24-4.85,1.57-6.54,3.71c-1.15,1.47-1.1,2.22,0.93,2.59
			c11.86,2.18,23.01,6.52,34.11,11.06c20.51,8.37,39.52,19.53,57.9,31.74c12.84,8.53,22.61,20.27,31.78,32.51
			c4.85,6.47,9.58,13,12.44,20.66c0.7,1.87,1.08,3.85,1.83,5.69c0.51,1.26,0.77,3.38,2.82,2.73c3.07-0.99,6.17-2.08,8.85-3.95
			c2.34-1.63,2.82-3.51,1.56-6.08c-1.9-3.88-3.85-7.76-6.41-11.27c-8.22-11.24-17.17-21.85-27.61-31.11
			c-9.71-8.6-19.21-17.46-30.2-24.49c-6.67-4.26-13.8-7.71-20.48-11.94c-13.8-8.72-28.42-15.61-44.24-19.83
			C774.49,101.3,768.94,100.33,763.23,100.74z M951.35,296.77c-1.75,0.47-2.94,0.7-4.08,1.09c-6.68,2.3-13.31,4.76-20.09,6.79
			c-9.08,2.73-18.12,5.58-27.45,7.39c-17.83,3.46-35.87,5.56-53.78,8.54c-20.44,3.4-40.78,7.47-61.44,9.49
			c-6.88,0.68-13.75,1.4-20.66,1.46c-6.76,0.06-13.49,0.18-20.08,1.87c-1.5,0.38-4.2-0.21-4.21,1.58c-0.02,1.82,2.64,2.34,4.35,3.11
			c0.15,0.07,0.31,0.12,0.48,0.15c6.67,0.92,13.29,2.45,20.04,2.55c12.07,0.18,24.1-0.91,36.13-1.75
			c22.32-1.56,44.24-5.51,66.06-10.31c10.74-2.36,21.23-5.63,31.83-8.45c6.19-1.65,12.54-2.61,18.64-4.63
			c11.23-3.72,21.36-9.6,31.34-15.81C949.47,299.18,950.37,298.4,951.35,296.77z M748.06,308.35c0.01,0.07,0.01,0.13,0.02,0.2
			c-0.83,0.08-1.65,0.18-2.48,0.24c-6.89,0.57-13.69,1.85-20.48,3.05c-1.59,0.28-1.67,0.78-0.99,2.11c1.4,2.7,3.56,3.84,6.52,3.63
			c3.15-0.22,6.31-0.43,9.46-0.74c18.13-1.84,36.24-3.79,54.38-5.57c11.51-1.14,23.03-2.07,34.55-3.1
			c8.53-0.76,17.09-1.38,25.6-2.33c10.16-1.12,20.41-1.67,30.35-4.42c7.78-2.15,15.55-4.34,23.46-5.9
			c16.76-3.32,32.23-9.81,46.7-18.83c3.13-1.95,4.67-4.85,5.25-8.38c0.23-1.38-0.09-1.97-1.53-1.23c-1.33,0.68-2.71,1.28-4.03,1.98
			c-5.58,2.95-10.94,6.39-16.96,8.42c-14.03,4.72-28.17,9.09-42.58,12.55c-14.25,3.43-28.54,6.6-43.12,8.28
			c-18.1,2.1-36.32,2.95-54.42,5.05C781.2,305.26,764.62,306.7,748.06,308.35z M742.01,125.01c-3.55,0.59-5.9,2.93-7.95,5.61
			c-1.68,2.21-1.49,2.49,1.17,3.1c10.79,2.46,21.7,4.56,32.15,8.15c26.53,9.08,50.89,22.31,72.55,40.16
			c12.67,10.44,22.66,22.98,26.37,39.54c0.18,0.8,0.45,1.34,1.42,1.39c4.73,0.25,8.3-4.01,6.86-8.34
			c-1.89-5.69-4.18-11.21-6.82-16.6c-4.57-9.37-11.7-16.73-18.95-23.96c-5.12-5.11-10.35-10.15-16.59-13.92
			c-11.3-6.83-23.35-12.03-35.82-16.31c-4.11-1.41-8.11-3.01-11.86-5.2c-4.18-2.45-8.58-4.44-13.21-5.84
			c-8.6-2.61-17.24-5.09-25.85-7.62C744.34,124.83,743.18,124.8,742.01,125.01z M600.36,288.4c0.57-0.95,0.35-1.53,0.27-2.08
			c-1.58-12.64-3.35-25.24-3.94-37.98c-0.35-7.66-0.71-15.37,1.33-22.83c7.47-27.38,14.45-54.91,24.5-81.49
			c6.58-17.42,12.79-35.05,23.42-50.62c1.36-1.99,2.32-4.24,2.59-6.7c0.16-1.47-0.31-1.83-1.85-1.56c-4.05,0.72-6.52,3.31-8.74,6.49
			c-12.59,18.09-22.05,37.75-29.56,58.41c-5.61,15.45-9.2,31.46-13.54,47.27c-1.51,5.49-2.45,11.04-2.38,16.74
			c0.12,10.81-0.53,21.61-0.92,32.42c-0.34,9.48-0.75,18.97,0.94,28.38C593.46,280.28,595.98,284.76,600.36,288.4z M823.62,65.13
			c5.37,2.66,10.27,5.09,15.18,7.5c8.88,4.36,18.06,8.16,26.28,13.77c20.34,13.91,40.1,28.62,59.23,44.15
			c13.6,11.04,24.44,24.2,30.9,40.68c0.61,1.56,0.83,3.32,2.04,4.68c4.5-5.42,4.93-8.4,2.03-14.49c-5-10.49-11.17-20.23-18.75-29.06
			c-7.15-8.32-15.67-15.13-24.21-21.9c-11.53-9.16-23.08-18.3-34.77-27.26c-11.14-8.54-23.65-14.48-36.4-20.08
			C837.73,59.89,830.8,60.62,823.62,65.13z M950.73,177.1c-0.07-0.29-0.26-1.01-0.47-1.73c-3.79-12.95-11.24-23.65-20.38-33.33
			c-7.53-7.95-16.03-14.77-24.79-21.29c-10.55-7.86-20.9-15.99-31.8-23.36c-16.09-10.87-33.84-18.51-51.63-26.04
			c-6.25-2.64-12.52-2.28-18.42,1.38c-0.62,0.39-1.57,0.64-1.58,1.46c-0.02,1.07,1.16,1.02,1.84,1.35
			c13.13,6.3,26.62,11.8,39.92,17.75c21.63,9.67,42.68,20.35,60.9,35.84c11.51,9.79,21.28,21.03,28.85,34.16
			c3.83,6.64,6.9,13.66,10.2,20.56c0.37,0.78,0.54,1.8,1.87,1.54C948.64,184.71,951.3,181.01,950.73,177.1z M884.55,216.89
			c5.96-1.43,6.91-3.01,5.62-8.7c-0.91-4.02-2.46-7.71-4.66-11.22c-4.38-6.99-9.45-13.49-14.37-20.09
			c-6.64-8.91-14.87-16.08-23.96-22.39c-10.42-7.22-21.67-12.99-32.66-19.22c-14.7-8.31-30.04-15.02-46.38-19.41
			c-5.23-1.4-10.45-2.75-15.91-2.87c-1.61-0.04-3.2-0.01-4.55,0.96c-1.14,0.83-2.63,1.77-2.55,3.19c0.08,1.4,1.98,1.14,3.01,1.73
			c0.21,0.12,0.47,0.16,0.7,0.25c11.55,4.26,23.4,7.72,34.55,12.99c11.21,5.3,22.53,10.37,34.12,14.73
			c17.95,6.74,31.96,18.69,43.8,33.22c8.43,10.35,14.54,22.27,19.43,34.71C881.56,216.86,882.54,217.97,884.55,216.89z
			 M747.09,345.59c1.37,1.93,2.91,2.86,4.56,3.61c2.61,1.18,5.35,1.86,8.2,1.94c14.13,0.44,28.28,0.19,42.37-0.82
			c13.94-1.01,27.87-2.12,41.81-3.1c8.97-0.63,17.82-2.14,26.57-4.32c10.66-2.63,21.17-5.77,31.76-8.68
			c9.62-2.64,19.1-5.76,28.06-10.28c4.43-2.23,8.7-4.66,10.82-9.51c0.5-1.15,1.83-2.6,0.77-3.57c-0.95-0.86-2.48,0.15-3.64,0.86
			c-5.64,3.43-11.67,6.03-17.9,8.14c-11.84,4.02-24.03,6.74-36.22,9.37c-18.37,3.96-36.89,7.34-55.34,10.95
			c-22.41,4.37-45.09,4.98-67.82,5.08C756.56,345.29,752.04,345.47,747.09,345.59z M842.96,293.93c3.31-0.34,7.29-0.69,11.25-1.18
			c18.02-2.24,35.85-5.26,53.42-10.13c17.78-4.92,34.48-12.13,50.51-21.08c4.26-2.38,7.53-6,11.1-9.24c0.41-0.38,1-0.81,0.48-1.46
			c-0.5-0.62-1.03-0.22-1.53,0.09c-0.42,0.27-0.89,0.46-1.29,0.75c-8.62,6.13-18.14,10.36-28.07,13.95
			c-15.27,5.53-30.68,10.61-46.6,13.84c-14.6,2.96-29.33,5.28-43.97,8.08c-16.21,3.1-32.52,5.34-48.94,6.92
			c-12.18,1.18-24.4,1.5-36.63,1.8c-14.3,0.35-28.57,1.54-42.89,0.67c-4.42-0.27-4.46-0.07-2.92,4.02c1.85,4.92,3.16,5.71,8.99,5.27
			c6.39-0.48,12.76-1.07,19.15-1.54c19.59-1.46,39.09-3.82,58.61-5.93C816.55,297.38,829.34,295.02,842.96,293.93z M611.82,305.94
			c1.15-1.46,0.97-2.59,0.8-3.74c-0.45-3.05-0.98-6.07-1.13-9.16c-0.45-8.58,0.16-17.13,0.75-25.67c0.69-9.98,0.2-19.94-0.08-29.92
			c-0.32-11.67,1.08-23.23,2.94-34.75c3.14-19.54,7.82-38.66,15.55-56.93c10.21-24.12,24.65-45.62,41.24-65.74
			c2.75-3.33,5.78-6.44,8.69-9.64c1.78-1.97,3.23-3.99,2.49-6.92c-0.36-1.44-0.92-1.73-2.26-1.22c-2.51,0.97-4.8,2.26-6.77,4.13
			c-13.14,12.47-23.24,27.15-31.15,43.35c-9.52,19.48-16.78,39.87-23.41,60.48c-4.69,14.58-8.99,29.27-13.61,43.86
			c-4.16,13.15-5.52,26.48-3.36,40.15c1.7,10.77,3.28,21.56,4.9,32.34C608.38,293,609.91,299.28,611.82,305.94z M859.83,219.67
			c-0.07-0.3-0.2-1.13-0.45-1.92c-3.77-12.1-10.8-21.96-20.43-30.13c-10.13-8.6-21.19-15.79-32.66-22.42
			c-15.77-9.12-32.2-16.64-49.99-20.95c-7.69-1.87-15.52-2.95-23.36-3.97c-2.43-0.32-4.69-0.06-6.01,2.46
			c-1.11,2.14-0.85,2.68,1.57,3.05c0.82,0.13,1.65,0.25,2.46,0.37c18.68,2.79,36.2,9.12,53.38,16.77
			c19.49,8.67,37.5,19.43,52.42,34.91c4.88,5.07,9.36,10.45,11.5,17.29c1.16,3.72,1.54,7.66,3.11,11.27
			c0.36,0.82,0.41,1.78,1.72,1.74C857.51,227.99,860.61,224.41,859.83,219.67z M846.06,315.86c2.71-0.41,5.44-0.75,8.14-1.24
			c21.6-3.95,43.5-6.31,64.74-12.22c14.27-3.97,27.65-9.59,39.31-18.88c0.87-0.69,2.47-1.39,1.71-2.59
			c-0.52-0.82-1.93,0.14-2.88,0.61c-4.09,2.05-7.6,5.11-11.92,6.76c-9.17,3.51-18.36,6.92-27.71,9.95
			c-19.75,6.4-39.98,10.02-60.64,11.74c-16.92,1.42-33.8,3.28-50.69,4.93c-14.08,1.37-28.17,2.73-42.25,4.11
			c-10.44,1.02-20.83,2.54-31.16,4.36c-1.99,0.35-1.94,1.15-0.87,2.44c1.75,2.13,4.11,2.75,6.71,2.58
			c5.4-0.33,10.79-0.71,16.19-1.11c12.04-0.87,24.08-1.64,36.1-2.67C809.43,323.07,827.72,319.3,846.06,315.86z M721.79,167.59
			c-1.62,0.39-3.22,0.87-4.86,1.13c-2.53,0.39-3.77,1.92-4.63,4.23c-0.75,1.99-0.23,2.6,1.69,2.54c0.66-0.02,1.32-0.07,1.99-0.16
			c5.72-0.71,11.44-0.69,17.16-0.02c13.06,1.53,25.48,5.57,37.93,9.5c8.52,2.7,16.78,6.06,23.92,11.57
			c12.45,9.6,21.97,21.65,29.43,35.41c0.49,0.91,0.63,2.57,2.2,2.22c1.54-0.34,3.01-1.13,3.56-2.81c0.25-0.77,0.3-1.62,0.31-2.44
			c0.03-7.57-3.77-13.71-7.78-19.63c-8.49-12.56-20.61-20.48-34.28-26.46c-16.13-7.07-33.18-10.75-50.28-14.36
			C732.75,167.17,727.3,166.82,721.79,167.59z M848.58,58.01c-0.02,0.23-0.02,0.45-0.04,0.67c0.82,0.36,1.65,0.71,2.47,1.1
			c10.02,4.69,20.14,9.19,28.89,16.15c4.55,3.63,9.18,7.17,13.75,10.77c11.28,8.92,23.53,16.56,34.25,26.26
			c12.49,11.31,23.09,24.14,31.81,38.52c1.59,2.61,2.66,5.54,4.12,8.25c0.56,1.05,1.27,2.78,2.39,2.56
			c1.25-0.24,0.92-2.07,1.15-3.26c0.24-1.25,0.17-2.47-0.05-3.71c-0.73-4.32-2.56-8.24-4.47-12.12
			c-7.21-14.56-17.92-26.31-29.88-37.05c-12.04-10.81-25.52-19.73-38.42-29.4c-10.28-7.69-21.37-13.73-33.18-18.64
			C856.87,56.26,852.81,57.43,848.58,58.01z M844.86,223.87c-0.37-2.31-1.1-4.53-1.93-6.7c-3.97-10.38-11.36-18.06-19.77-24.92
			c-10.18-8.3-21.6-14.6-33.09-20.84c-20.44-11.1-42.26-17.26-65.38-19.12c-2.35-0.19-3.82,0.8-4.65,2.91
			c-0.37,0.93-0.55,1.93-0.99,2.82c-0.87,1.75,0,2.16,1.53,2.33c4.38,0.47,8.78,0.87,13.14,1.52c10.65,1.6,20.79,5.2,31.11,8.14
			c11.69,3.34,23.35,6.7,34.08,12.63c10.75,5.94,20.5,13.01,27.53,23.32c4.85,7.11,7.96,14.94,9.57,23.38
			c0.18,0.94-0.12,2.27,1.51,2.44C842.73,232.3,845.7,229.13,844.86,223.87z M972.75,151.03c0.78-1.24,1.25-2.32,1.16-3.5
			c-0.37-5.23-0.83-10.48-2.84-15.4c-2.81-6.89-6.24-13.53-11.01-19.21c-10.34-12.29-21.87-23.37-36.04-31.22
			c-10.92-6.04-22.13-11.56-33.25-17.22c-1.13-0.57-2.68-2.6-3.76-0.68c-0.98,1.74,1.42,2.25,2.47,3.05
			c16.76,12.76,34.26,24.53,50,38.59c11.19,9.99,21.08,21.03,27.86,34.59C969.13,143.57,970.24,147.46,972.75,151.03z
			 M717.28,194.19c2.15,1.07,3.86,0.9,5.47,1.22c25.38,4.95,47.3,16.87,67.01,33.23c3.46,2.87,6.46,6.23,9.38,9.65
			c1.16,1.35,2.57,1.77,4.24,0.87c1.89-1.03,0.87-2.43,0.38-3.66c-3.13-7.84-7.73-14.72-13.72-20.63
			c-12.5-12.33-27.74-19-44.93-21.43C736,192.15,726.9,192.28,717.28,194.19z M715.88,181.96c-2.48,0.32-5.3,0-6.62,2.96
			c-0.89,2-0.37,2.75,1.8,2.57c4.4-0.36,8.77-0.84,13.18-0.85c10.9-0.03,21.51,2.03,32.01,4.64c22.22,5.52,39.55,17.69,50.86,37.89
			c1.18,2.11,2.32,4.23,3.52,6.31c1.13,1.95,2.73,2.29,5.34,1.19c2.05-0.86,2.03-2.45,1.35-4.15c-0.64-1.61-1.26-3.28-2.19-4.74
			c-5.64-8.77-11.68-17.16-20.03-23.69c-5.39-4.21-10.63-8.48-17.23-10.79c-7.31-2.57-14.58-5.19-22.1-7.07
			C742.69,182.96,729.59,179.7,715.88,181.96z M837.5,396.66c6.53,0.71,12.65-0.9,18.49-3.31c23.39-9.62,41.72-25.48,55.94-46.21
			c2.3-3.35,4.21-6.98,5.69-10.8c0.2-0.52,1.02-1.7-0.38-1.6c-2.1,0.16-4.55,0.07-5.74,2.31c-1.33,2.52-3.3,4.36-5.49,6.04
			c-2,1.54-3.66,3.35-5.14,5.39c-5.21,7.17-11.28,13.54-17.99,19.33c-10.08,8.71-21.68,15.11-32.97,22.01
			C845.9,392.29,841.55,394.11,837.5,396.66z M789.45,241.05c3.43-0.54,3.55-0.84,1.34-3.58c-0.98-1.23-2.04-2.42-3.16-3.54
			c-11.16-11.04-24.5-18.8-38.58-25.39c-12.16-5.7-25.41-6.36-38.42-8.03c-1.31-0.17-2.46,0.33-3.36,1.31
			c-0.49,0.54-1.3,1.07-1.06,1.85c0.26,0.83,1.25,0.67,1.94,0.73c13.3,1.16,25.66,5.5,37.55,11.29
			c12.49,6.08,23.85,13.9,34.42,22.89C782.83,240.88,785.98,241.58,789.45,241.05z M898.73,340.55c-7.02,0.96-13.18,3.09-18.19,8.21
			c-4.95,5.06-9.31,10.67-14.54,15.42c-9.09,8.25-19.72,14.4-29.84,21.24c-2.84,1.92-5.93,3.34-9.2,4.39
			c-1.68,0.54-3.08,1.62-4.52,2.61c-1.05,0.72-0.75,1.25,0.14,1.85c1.71,1.16,3.3,0.61,4.94-0.18c6.5-3.17,12.98-6.36,19.53-9.44
			c20.25-9.52,37.36-22.88,50.32-41.29C897.91,342.57,898.79,341.94,898.73,340.55z M708.77,211.21c-0.47,0.1-1.12,0.21-1.76,0.38
			c-3.12,0.82-3.91,1.9-3.64,5.42c0.18,2.42,2.49,1.22,3.69,1.95c0.13,0.08,0.32,0.07,0.49,0.1c19.64,2.73,37.32,10.67,54.24,20.53
			c3.32,1.94,6.88,2.37,10.61,1.92c0.54-0.06,1.3,0.07,1.48-0.65c0.15-0.65-0.51-0.99-0.93-1.36c-2.19-1.91-4.35-3.88-6.63-5.68
			c-13.1-10.36-28.28-16.39-44.05-21.2C717.93,211.3,713.5,210.67,708.77,211.21z M811.82,388.53c4.02-0.09,7.12-0.99,10.15-2.07
			c6-2.14,11.28-5.66,16.71-8.9c12.01-7.15,23.46-14.94,31.97-26.31c0.66-0.88,2.2-1.68,1.58-2.79c-0.46-0.83-2.01-0.18-3.04-0.08
			c-6.25,0.64-12.46,1.63-17.47,5.88c-2.98,2.52-5.82,5.29-8.35,8.19c-6.49,7.45-14.27,13.19-22.37,18.63
			C817.91,383.16,815.02,385.5,811.82,388.53z M614.93,115.67c-3.36,2.05-5.84,4.77-7.65,8.28c-6.73,13.09-11.75,26.81-15.23,41.1
			c-2.68,10.98-6.47,21.71-7.27,33.11c-0.44,6.38-0.36,12.72,0.95,19.06C591.15,182.12,603.05,148.93,614.93,115.67z M802.62,384.87
			c1.19-0.19,2.31-0.6,3.31-1.18c8.08-4.62,16.34-8.98,23.7-14.73c4.98-3.9,9.68-8.12,13.54-13.18c0.65-0.86,1.9-1.95,1.25-3.02
			c-0.56-0.93-2.02-0.22-3.05-0.25c-7.44-0.2-13.79,1.81-19.37,7.35c-7.24,7.2-15.28,13.59-22.95,20.35
			c-0.83,0.73-2.57,1.09-2.27,2.31c0.34,1.39,1.98,1.9,3.38,2.18C800.96,384.86,801.8,384.82,802.62,384.87z M810.07,354.04
			c-2.67,0.06-4.12,2.04-5.71,3.69c-5.81,6.03-10.83,12.91-18.47,16.94c-1.03,0.54-0.94,1.18-0.2,1.96
			c1.73,1.82,3.71,1.61,5.74,0.69c3.57-1.62,6.97-3.54,10.23-5.7c6.4-4.22,11.73-9.52,16.14-15.77c0.97-1.38,0.89-2.05-0.99-1.96
			C814.55,353.97,812.31,353.99,810.07,354.04z M703.48,226.75c3.74,4.07,8.53,6.01,13.52,7.3c10.08,2.58,20.23,4.88,30.34,7.28
			c1.19,0.29,2.35,0.4,4.02-0.68C736.23,231.9,720.74,226.36,703.48,226.75z M789.28,355.84c0.22-0.03-0.28,0.01-0.76,0.13
			c-4.8,1.11-8.38,4.3-12.15,7.16c-4.66,3.52-4.65,3.58-0.26,7.59c2.24,2.05,3.92,2.25,6.5,0.5c2.13-1.43,4.21-2.98,6.2-4.62
			c2.91-2.4,5.23-5.32,7.07-8.64c0.79-1.43,0.49-2.12-1.16-2.28C793.13,355.51,791.56,355.39,789.28,355.84z M774.65,356.05
			c-2.8,0.13-5.34,0.2-7.87,0.37c-1.26,0.09-3.1-0.38-3.57,0.83c-0.41,1.06,1.31,1.9,2.14,2.76c1.32,1.38,2.93,2.46,4.83,1.21
			C772.01,360.02,773.57,358.43,774.65,356.05z M854.18,41.58c0.01,0.21,0.03,0.41,0.04,0.62c1.61,0.02,3.22,0.06,4.82,0.06
			c0.49,0,1.11-0.05,1.03-0.75c-0.07-0.64-0.65-0.7-1.15-0.63C857.34,41.08,855.76,41.34,854.18,41.58z"/>
	</g>
</g>
<rect x="-60.88" y="417.23" class="st1" width="993.61" height="248.86"/>
<text transform="matrix(1 0 0 1 96.7153 461.0811)" class="st2 st3">J</text>
<text transform="matrix(1 0 0 1 123.6453 461.0811)" class="st4 st3">’</text>
<text transform="matrix(1 0 0 1 136.4253 461.0811)" class="st2 st3">ai les nerfs en pelote </text>
<text transform="matrix(1 0 0 1 68.9253 525.7911)" class="st2 st3"> à rester oubliée dans un </text>
<text transform="matrix(1 0 0 1 32.4153 590.5011)" class="st2 st3">carton</text>
<text transform="matrix(1 0 0 1 244.2053 590.5011)" class="st4 st3">…</text>
<text transform="matrix(1 0 0 1 305.9753 590.5011)" class="st2 st3"> Alors que je rêve </text>
<text transform="matrix(1 0 0 1 167.4953 655.201)" class="st2 st3">de </text>
<text transform="matrix(1 0 0 1 252.5453 655.201)" class="st5 st2 st3">tisser des liens</text>
</svg>
