<?xml version="1.0" encoding="utf-8"?>
<!-- Generator: Adobe Illustrator 26.3.1, SVG Export Plug-In . SVG Version: 6.00 Build 0)  -->
<svg version="1.1" id="Calque_1" xmlns="http://www.w3.org/2000/svg" xmlns:xlink="http://www.w3.org/1999/xlink" x="0px" y="0px"
	 viewBox="0 0 532.35 532.35" style="enable-background:new 0 0 532.35 532.35;" xml:space="preserve">
<style type="text/css">
	.st0{fill:#FCF5EF;}
	.st1{clip-path:url(#SVGID_00000036249261830761898640000014010910507511219903_);fill:#EA5328;}
	.st2{clip-path:url(#SVGID_00000036249261830761898640000014010910507511219903_);}
	.st3{clip-path:url(#SVGID_00000003091231158790797680000001418730825864678034_);fill:#EA5328;}
	.st4{clip-path:url(#SVGID_00000003091231158790797680000001418730825864678034_);}
	.st5{fill:#EA5328;}
	.st6{fill:#030101;}
	.st7{clip-path:url(#SVGID_00000095332551566119140780000014524605789489889468_);fill:#EA5328;}
	.st8{clip-path:url(#SVGID_00000098929201615180625070000015688757105707131795_);fill:#EA5328;}
	.st9{clip-path:url(#SVGID_00000098929201615180625070000015688757105707131795_);}
	.st10{clip-path:url(#SVGID_00000098929201615180625070000015688757105707131795_);fill:#FCF5EF;}
	.st11{stroke:#000000;stroke-miterlimit:10;}
</style>
<g>
	<path d="M139.07,251.97c-1.6-2.3-3.51-4.41-4.95-6.8c-2.11-3.51-3.8-7.06-5.9-10.57l-2.58-4.31c-1.15-0.83-1.85-2.36-2.62-3.64
		c-4.31-7.19-8.1-14.24-12.41-21.43l-3.64-6.07c-0.35-0.22-1.18-1.25-1.37-1.56l-3.54-5.91c-0.25-0.06-1.5-1.05-1.69-1.37
		c-0.1-0.16-0.06-0.83-0.06-0.83c-0.13-0.58-0.54-1.63-0.54-1.63l-0.51-0.13c-0.26-0.06-4.53,1.85-6.29,2.9l-2.55,1.53
		c-2.24,1.34-4.44,3.09-6.51,4.34c-3.67,2.2-7.53-0.26-10.31-2.72c-0.93-1.18-5.01-6.55-5.78-7.82c-0.1-0.16-0.92-1.18-1.21-1.66
		c-1.24-2.08-2.52-5.65-1.27-7.92c0.8-0.48,4.06-2.65,4.85-3.13c5.11-3.06,10.51-5.65,15.62-8.71
		c15.33-9.19,29.54-19.88,44.71-28.97c6.39-3.83,11.97,4.76,14.46,8.91c2.2,3.67,3.29,5.84,1.85,9.96
		c-1.41,1.28-3.39,2.68-4.69,4.12l-13.57,8.14c-0.32,0.19-3.64,2.62-3.96,2.81c-1.12,0.67-3.26,2.17-2.49,3.45
		c1.63,2.71,4.15,5.11,5.78,7.83c0.86,1.44,1.24,3.16,2.01,4.44c3.06,5.11,8.27,8.72,11.17,13.92c0.19,0.32,1.75,4.37,1.95,4.69
		l1.05,1.76c3.54,5.91,7.18,10.89,10.66,17.05c1.37,1.56,2.27,4.5,4.08,5.37c1.56,2.97,4.34,7.6,6.83,10.67
		c1.12,1.5,4.44,4.5,5.58,6.42c0.1,0.16-0.13,0.51-0.13,0.51c1.18,2.33,3.83,6.39,2.87,9.13c-0.54,1.63-1.79,2.81-2.43,4.28
		l-3.19,1.91c-0.8,0.48-5.94,3.13-7.15,3.64c-6.61,3.09-8.97,3.86-14.01-2.02c-1.82-1.95-1.34-2.24-3.54-3.74
		C142.77,257.78,139.74,253.08,139.07,251.97z M72.43,184.26c0.32-0.19,0.35-0.86,0.16-1.18c0,0-0.26-0.06-0.42,0.03l-0.32,0.19
		L72.43,184.26z"/>
	<path d="M173.41,202.78c-4.71-8.7-7.9-18.3-10-28.13c-1.28-6.01-1.77-12.76-2.18-19.14c-0.34-3.35,0.5-6.58,1.15-9.76
		c0.43-3.33,0.17-3.65,0.24-6.9c-0.04-0.18,0.21-0.81,0.21-0.81c0.25-0.62,2.51-6.06,2.94-6.72l1.4-5.06
		c3.05-7.12,8.02-12.37,12.91-17.98c2.58-1.31,4.19-3.56,6.36-4.97l0.91-0.19c3.63-1.73,6.71-3.34,10.72-4.19
		c5.83-1.24,11.9-0.45,17.49-0.12c1.87,0.74,2.34,0.26,4.5,0.56c3.51,0.39,7.03,1.74,10.19,3.16c0,0,0.62,0.25,0.81,0.21
		c11.74,4.16,18.28,13.42,23.89,23.64l3.92,6.78c1.87,3.41,2.88,8.14,3.73,12.15l0.66,3.09c-0.18,0.04-0.57,0.88-0.53,1.07
		c0.04,0.18,0.84,0.39,0.88,0.57l0.08,0.36l-0.29,0.44l0.27,1.27c0.19,0.91,0.64,1.2,0.83,2.11c0.58,2.73,0.51,5.98,1.14,8.89
		c0.08,0.36,0.95,2.65,1.02,3.02l0.27,1.27c-0.12,4.78,0.45,9.23,0.37,14.2c0.5,7.7-3.09,14.94-5.78,21.98
		c-0.18,0.04-0.38,1.79-0.63,2.42c-0.65,3.18-6.47,8.04-9.51,9.83c-0.47,0.48-6.09,3.58-6.74,4.1c0,0-0.51,0.3-0.69,0.34
		c-0.83,0.56-5.55,2.52-6.61,2.93c-0.18,0.04-2.11,0.83-2.65,0.95l-0.36,0.08c-1.64,0.35-5.54,0.8-5.54,0.8
		c-3.5,0.56-8.21,0.8-12,0.85l-0.62-0.25C196.78,225.78,184.49,218.12,173.41,202.78z M198.05,207.61l-0.08-0.36
		c0,0-2.85-2.63-4.03-3.71c-0.26-0.33-0.48-0.47-1.03-0.35C193.27,204.83,196.72,206.75,198.05,207.61z M187.34,155.65l0.36-0.08
		l-0.04-0.18l-0.36,0.08L187.34,155.65z M201.88,210.41l0.36-0.08l-2.95-2.23c-0.04-0.18-0.44-0.29-0.44-0.29l-0.36,0.08
		C198.79,208.41,200.97,210.61,201.88,210.41z M187.35,153.93l0.36-0.08l-0.13-1.5l-0.55,0.12L187.35,153.93z M192.64,176.03
		l0.55-0.12l-0.08-0.36l-0.55,0.12L192.64,176.03z M189.78,160.84c0.91-0.19,0.68-1.29,0.56-1.83
		C189.61,159.16,189.62,160.11,189.78,160.84z M187.4,148.78c0.08,0.36,0.26,0.32,0.36-0.08
		C187.72,148.52,187.18,148.64,187.4,148.78z M190.19,161.89l0.36-0.08l-0.04-0.18l-0.36,0.08L190.19,161.89z M189.58,156.31
		l0.36-0.08l-0.04-0.18l-0.36,0.08L189.58,156.31z M183.78,125.57l0.32-0.26l-0.73,0.16L183.78,125.57z M194.61,172.75
		c0.32-0.26,0.47-0.48,0.39-0.84c-0.36,0.08-0.73,0.16-0.83,0.56L194.61,172.75z M221,201c1.75,0.2,3.58-0.19,5.21-0.54
		c5.1-1.09,6.7-6.95,10.31-10.58c0.07-0.58,0.72-3.77,0.75-4.54c-0.04-0.18,0.5-1.25,0.46-1.43l0.29-0.44c0,0,0.62,0.25,0.81,0.21
		c1.46-0.31-0.31-18.4-0.89-21.13c-1.24-5.83-3.37-12.22-5.02-18.15c-0.88-3.24-5.19-9.17-7.01-11.45
		c-0.74-0.79-5.86-6.94-6.42-7.77c-1.48-1.59-4.44-4.76-7.17-4.18l0.19,0.91c-1.49,0.13-1.26-1.44-3.81-0.9l-0.73,0.16
		c0.3,0.51,1.61,0.42,1.98,0.34l0.08,0.36c-1.82,0.39-2.31-1.03-3.77-0.72l-0.18,0.04l0.7,0.61l0.08,0.36
		c-4.76,1.78-4.85,3.13-8.65,5.84c-0.22-0.14-0.44-0.29-0.48-0.47c0.34,3.35-4.75,5.39-5.22,8.54c-0.18,2.7-0.58,6.21-0.58,8.88
		c0.12,0.55,0.31,4.12,0.32,5.07c0.05,1.13,0.89,6.85,1.16,8.13c-0.39,0.84-0.15,2.89,0.01,3.61l0.48,0.47
		c0.04,0.18-0.29,0.44-0.29,0.44c0.16,0.73,0.48,3.13,0.63,3.86c0.58,2.73,2.04,5.09,2.62,7.82l0.08,0.36
		c-0.48-0.47-1.1-0.72-1.65-0.6c0.19,0.91,0.6,1.01,0.75,1.74l0.12,0.55l-0.21,0.81l0.88,0.57l0.08,0.36
		c0.19,0.91-0.05,1.53,0.14,2.44c0.35,1.64,2.34,5.59,3.11,6.57c0,0,0.18-0.04,0.22,0.14l-0.14,0.22l-0.25,0.62l0.08,0.36
		c0.39,1.82,3.29,2.92,3.71,4.92l0.04,0.18l-0.29,0.44c0.47-0.48,1.13-0.05,1.25,0.49c0.7,0.61,3.98,2.58,4.64,3.01
		c0.88,0.57,1.98,0.34,2.72,1.13L221,201z M193.37,133.04c0.55-0.12,3.02-3.69,3.41-4.53l-0.18,0.04
		C195.5,128.78,193.09,131.77,193.37,133.04z M198.87,126.73l0.76-0.92l-0.36,0.08c-0.18,0.04-0.65,0.52-0.65,0.52L198.87,126.73z
		 M221.37,200.92c-0.36,0.08-0.52-0.65-0.16-0.73C221.39,200.16,221.55,200.88,221.37,200.92z M238.22,182.67
		c-0.36,0.08-0.44-0.29-0.04-0.18C238.36,182.45,238.4,182.63,238.22,182.67z M248.36,201.63c0.18-0.04,0.44,0.29,0.62,0.25
		l0.18-0.04c0.91-0.19,1.35-2.57,1.2-3.3c-0.73,0.16-2.12,2.55-2.04,2.91L248.36,201.63z M250.53,197.55
		c0.04,0.18,0.22,0.14,0.18-0.04C250.86,197.29,250.49,197.37,250.53,197.55z M251.24,195.5l0.18-0.04l-0.08-0.36l-0.18,0.04
		L251.24,195.5z"/>
	<path d="M289.67,134.57l0.22-1.85c0.07-0.55-0.15-5.08-0.27-5.66c0.22-5.03,1-10,0.48-15.13l0.9-7.58
		c0.31-2.59,0.76-7.97,1.68-11.05c0.64-0.67,1.91-0.34,2.05-1.45c0.11-0.92-0.75-1.59-0.66-2.33c0.92,0.11,1.85,0.22,2.63-0.06
		c1.09,0.32,6.45,0.95,7.77,0.92c0.37,0.04,3.97-0.28,4.34-0.24c5.2,0.43,12.98,1.16,18.72,1.84c6.84,0.81,13.64,1.99,19.93,4.23
		c19.44,6.8,30.94,23.72,28.53,44.05c-0.68,5.73-2.63,11.12-5.64,16.02c-0.96,1.76-5.44,4.79-5.57,5.9c1.11,0.13,1.5-0.01,2.51-0.64
		l0.33,0.41c-1.28,1.35-4.23,2.5-5.45,3.29c-0.19-0.02-7.76,3.77-9.28,3.96c-0.37-0.04-3.04,0.39-3.23,0.37
		c-1.89,0.15-3.55,1.45-5.23,1.44c-2.63,0.06-5.41-0.26-7.85-0.18c-0.19-0.02-1.75,0.54-1.94,0.52c-0.19-0.02-1.13,0.05-1.13,0.05
		l-10.54-1.25c-0.19-0.02-0.53-0.25-0.72-0.27c-0.19-0.02-1.87-0.03-2.06-0.06c-0.58,0.12-2.06-0.06-2.59-0.31
		c-0.44,0.51-0.48,0.88-0.52,1.25c-1.66,14.05-1.11,28.36-3.16,42.55c0.28,0.78,0.22,1.34,0.11,2.26
		c-0.68,5.73-9.99,5.19-14.42,4.67c-3.7-0.44-7.7-1.47-11.29-2.83c-0.35-0.23-3.54-1.73-4.47-1.84c-1.39-0.91-2.54-3.86-2.55-5.36
		c0.03-9.74,1.79-19.85,2.92-29.46c0.92-7.76,0.91-15.64,1.83-23.4C286.95,149.62,288.75,142.33,289.67,134.57z M319.57,144.85
		c34.86,1.69,30.69-16.99,21.61-21.06c-2.38-0.47-2.85-1.27-5.33-2.5c-2.13-1-4.51-1.47-6.89-1.94c-2.59-0.31-5.05-1.72-8-2.07
		c-0.31,2.59-0.22,5.03-0.51,7.44c-0.28,2.4-0.92,4.58-1.2,6.98C318.77,135.76,319.31,140.7,319.57,144.85z M343.43,103.25
		c-0.04,0.37,0.14,0.39,0.19,0.02C343.82,103.11,343.45,103.06,343.43,103.25z M347.06,139.11l0.37,0.04
		c0.19,0.02,0.36-1.46,0.4-1.83l0.07-0.55c0.09-0.74,0.08-2.24,0.08-2.24l-0.37-0.04L347.06,139.11z M350.61,131.28l0.02-0.19
		c0.04-0.37,0.09-0.74-0.45-0.99l-0.04,0.37C350.1,130.84,350.05,131.21,350.61,131.28z M350.4,137.82
		c0.23-0.35,0.52-1.25,0.55-1.44c0.04-0.37-0.01-1.5-0.17-1.71c-0.02,0.19-0.57,1.62-0.61,1.99l-0.04,0.37
		C350.09,137.22,350.05,137.59,350.4,137.82z M365.1,108.62l0.19,0.02c0.02-0.18-0.49-0.62-0.49-0.62s-0.16-0.21-0.35-0.23
		c0,0-0.02,0.18-0.21,0.16C364.42,107.98,364.91,108.6,365.1,108.62z M366.56,110.48c0.09-0.74-0.44-0.99-0.96-1.43l-0.04,0.37
		C365.89,109.84,366.01,110.42,366.56,110.48z"/>
	<path d="M355.78,231.82c-7-4.78-4.42-9.33-2.3-15.94c0.39-1.26,3.37-10.97,3.93-12.15c2.44-7.29,6.05-14.85,9.41-21.91
		c1.36-2.86,2.72-6.13,4.75-8.67c1.67-3.94,10.09-21.59,12.1-25.37c0.56-1.18,6.9-14.04,7.38-15.04l1.36-2.86
		c0.65-0.93,4.68-8.08,5.16-9.09c0.72-1.51,2.08-4.37,3.56-5.31c0.17,0.08,0.83-0.02,1,0.06c1.83,0.05,1.57-0.7,3.91,0.01
		c8.7,2.09,16.6,5.85,25.06,8.86l-0.32,0.67l-1.34-0.64l-0.16,0.34l29.58,14.1c1.85,0.88,3.97,2.92,5.5,4.48l0.09,0.25
		c0,0,0.09,0.25,0.01,0.42c0.96,6.64,0.73,12.31-2.23,18.53c-0.56,1.18-0.65,0.93-1.96,1.95c-2.79,2.38-5.45,2.77-8.87,2.16
		c-0.92-0.23-0.51-0.66-1.42-0.06l-5.88-2.8c-2.24,0.37-19.54-7.04-22.05-8.25c-1.51-0.72-2.45-1.79-3.79-2.43
		c-1.51-0.72-3.19-1.11-3.99,0.57c-1.92,4.03-4.85,11.92-6.78,15.95c3.7,1.76,7.72,3.27,11.42,5.03c2.52,1.2,13.02,6,15.3,7.71
		c1.02,0.9,1.82,3.96,2.09,5.12c1.34,4.56,0.52,10.15-1.48,14.35c-0.48,1.01-4.57,5.25-4.65,5.42l-3.12,2.22
		c-1.65,0.86-22.99-9.31-25.18-10.35c-1.59-0.55-4.38-2.5-6.63-2.54c-0.5-0.24-0.58-0.07-0.74,0.26
		c-1.92,4.03-5.03,11.42-6.62,15.61c-0.4,0.84-0.69,3.18-0.69,3.18l0.17,0.5c0.34,0.16,1.67,0.39,2.01,0.55l0.5,0.24
		c0.34,0.16,0.5,0.24,0.52,1.07c2.09,0.38,4.52,1.33,6.2,2.13l0.34,0.16c1.68,0.8,17.48,8.75,19.16,9.55
		c5.4,3.81,8.92,9.41,5.88,15.79c-0.88,1.85-2.78,2.8-3.5,4.31c-0.48,1.01-0.62,2.18-1.03,3.02c-1.2,2.52-3.37,2.31-5.68,3.27
		c-1.32,0.61-1.88,1.78-3.9,0.82l-8.91-4.25c-1.01-0.48-0.02-1.25-0.86-1.65c-5.21-2.48-19.38-7.38-24.42-9.78
		c-0.84-0.4-1.26-0.81-1.95-1.55l0.58-0.34c-0.34-0.16-1.26-0.81-1.43-0.89L355.78,231.82z M373.76,240.39l0.58,0.07l-0.84-0.4
		L373.76,240.39z M431.89,125.39c-0.34-0.16-0.02-0.83,0.32-0.67C432.38,124.8,432.05,125.47,431.89,125.39z M418.68,176.02
		c0.17,0.08,9.83,4.89,10.17,5.06l3.55,2.93c0.5,0.24,1.7,2.05,2.55,2.45l0.41-0.01c0.71-2.34-3.68-5.26-5.19-5.98
		c-1.18-0.56-10.08-4.81-11.42-5.03C418.67,175.6,418.76,175.85,418.68,176.02z M408.53,225c0.08-0.17,0.58,0.07,0.34,0.16
		C408.71,225.5,408.54,225.42,408.53,225z M429.05,182.82c0.09,0.25,0.26,0.33,0.5,0.24C429.72,182.72,429.21,182.48,429.05,182.82z
		 M416.93,229.01c0.08-0.17,0.58,0.07,0.34,0.16C417.11,229.5,416.94,229.42,416.93,229.01z M418.85,247.04
		c0.34,0.16,1.17,0.14,1.5-0.11l0.64-1.34c1.04-2.19,0.29-2.34-0.33-4.07c-0.43-0.82-0.21-2.58-1.22-3.06
		c-1.12,2.35,1.5,4.64,0.3,7.16l-0.08,0.17c0,0-0.33,0.26-0.5,0.18c0.08-0.17,0.06-1,0.14-1.17c-0.01-0.42,0.05-1.83,0.05-1.83
		l-0.34-0.16C418.54,243.8,417.68,246.48,418.85,247.04z"/>
	<path d="M369.74,335.95c-0.61,7.34-1.45,14.66-1.84,22.02c-0.05,2.3-0.46,9.19-0.51,9.73c-0.05,2.3-0.2,12.74-0.38,14.9
		c0.7,4.81-1.05,8.06,3.58,11.28c1.68,1.08,3.26,1.62,5.29,1.78c3.51,0.28,3.8-1.73,4.28-4.27c0.01-0.14,0.02-0.27,0.03-0.4
		c0.03-0.4,0.59-4.02,0.64-4.56c0.21-0.93,0.47-0.78,0.26-1.61l2.41-11.48c-0.17-1.24,0.07-2.57,0.69-3.47
		c0.46-4.03,1.45-7.89,1.76-11.8c0.3-3.78,0.59-7.42,1.03-11.18c0.28-2.25,0.82-4.27,1.25-6.45
		C381.68,340.16,375.26,339.01,369.74,335.95z"/>
	<path d="M375.04,397.77l-1.75-0.14c-0.82,0.07-4.37,0.33-5.2,0.53l-0.02,0.27c-0.04,0.54,0.45,1.12,0.42,1.53
		c-0.01,0.14-0.18,0.53-0.31,0.52c0.1,0.42-0.05,2.3-0.07,2.57c-0.02,0.27-0.05,0.67-0.08,0.94c-0.07,2.57-0.18,3.92,2.42,5.35
		c2.08,1.12,3.53,1.64,5.96,1.83c0.41,0.03,0.81,0.06,1.08,0.09c2.02,0.16,3.25-5.03,3.23-6.39
		C380.95,400.14,380.02,398.17,375.04,397.77z M371.14,400.71c-0.13-0.01-0.09-0.55,0.04-0.54
		C371.45,400.19,371.41,400.73,371.14,400.71z"/>
	<g>
		<path d="M203.75,414.07c0.03,0.16,0.23,0.29,0.39,0.26l0.33-0.06c0.16-0.03,0.47-0.26,0.43-0.42l-0.9-4.68
			C202.68,409.43,205.01,413.49,203.75,414.07z"/>
		<path d="M239.44,425.23c-1.4-7.25-5.17-13.38-12.86-14.91c-1.79,0.52-4.04,0.45-5.86,0.8c-3.98,0.77-6.96,1.35-11.54,2.56
			c-1.79,0.52-3.69,1.38-5.68,1.77c-0.06-0.32-0.08-1.32-0.15-1.65c0,0-0.23-0.29-0.39-0.26l-0.37-1.93l0.24-0.55l-0.72-0.19
			c0,0-0.83-2.52-1.05-3.64l-0.06-0.32c-0.09-0.48,0.63-0.29,0.54-0.77c-0.22-1.13-1.49-2.39-1.71-3.52l-0.03-0.16
			c0.13-0.19-0.12-1.49,0.35-1.74l-0.36-0.1c0,0-0.54-1.9-0.89-2.84l-0.03-0.16c0.04-0.68-0.07-2.16-0.1-2.32
			c0,0,0.1-0.35,0.27-0.38c0.06,0.32,0.35,0.94,0.91,1.16c1.46-3.13-1.02-11.51-0.24-12.83c-0.09-0.48-0.79-3.19-0.88-3.68
			c-0.2-0.13-0.64-1.55-0.84-1.68l-0.06-0.32c0.13-0.19,0.6-0.45,0.6-0.45l-1.18-6.13c0,0-0.26-0.45-0.29-0.61l-0.03-0.16
			c-0.56-2.9-0.46-5.93-0.85-8.86c-0.99-6.83-2.28-13.59-3.56-20.2c-8.62,1.68-17.28,4.97-26.03,4.1l0.89,4.59
			c2.68,13.86,4,27.82,6.65,41.53c1.03,5.32,2.39,10.57,3.38,15.73c0.69,3.55,0.98,6.84,1.6,10.06c0.12,0.64,0.22,1.13,0.34,1.77
			c1.15,5.97,2.46,12.74,4.88,18.12c0.32,0.77,2.93,3.61,3.22,4.23c0.2,0.13,0.82,0.68,0.98,0.64c2.3,1.23,21.03,1.12,24.51,0.45
			c5.31-1.03,8.42-4.47,13.56-5.46c0.5-0.1,4.34-0.67,4.67-0.74l0.83-0.16c2.65-0.51,6.77-4.15,7.79-6.86
			C240.2,428.26,239.53,425.72,239.44,425.23z M184.04,434.93c-0.16,0.03-0.32-0.77-0.12-0.64
			C184.08,434.26,184.18,434.74,184.04,434.93z M184.93,413.69c-0.33,0.06-0.49-0.74-0.16-0.81
			C184.94,412.85,185.09,413.66,184.93,413.69z M185.62,395c-0.11,0.35-0.67-2.55-0.41-2.1C185.41,393.03,185.72,394.64,185.62,395z
			 M186.21,398.06l-0.06-0.32c-0.03-0.16-0.05-1.16-0.08-1.32c0.49,0.74,0.87,1.84,1.03,2.64l-0.5,0.1
			C186.59,399.16,186.27,398.38,186.21,398.06z M188.4,408.5l0.33-0.06l0.06,0.32L188.4,408.5z M188.7,405.61l-1.86-5.16l0.27-0.38
			c0.61,1.39,1.57,3.71,1.92,5.48L188.7,405.61z M193.23,427.3l0.12,0.64C193.19,427.98,193.04,427.18,193.23,427.3z M199.68,435.76
			l0.24-0.55l0.09,0.48L199.68,435.76z M201.24,435.79c-0.16,0.03-0.32-0.77-0.16-0.81C201.41,434.92,201.57,435.73,201.24,435.79z
			 M223.11,427.05c-0.16,0.03-0.56-0.22-0.56-0.22l2.32-0.45l0.09,0.48C224.63,426.92,223.27,427.02,223.11,427.05z"/>
		<path d="M193.87,437.72c0.16-0.03,0.1-0.36-0.06-0.32C193.64,437.43,193.73,437.91,193.87,437.72z"/>
		<path d="M192.84,427.04c0.16-0.03,0.13-0.19-0.03-0.16C192.45,426.79,192.51,427.11,192.84,427.04z"/>
		<path d="M200.25,399.53c-0.16,0.03-0.23-0.29-0.06-0.32C200.35,399.17,200.42,399.49,200.25,399.53z"/>
		<path d="M206.76,410.98c-0.17,0.03-0.23-0.29-0.03-0.16C206.89,410.79,206.93,410.95,206.76,410.98z"/>
		<path d="M307.12,395.43c-0.99,0.19-1.73,0.84-2.69,1.19c-4.55,1.38-9.16,2.44-13.8,3.34c-1.16,0.22-5.83,0.96-6.83,1.15
			c-0.33,0.06-1.69,0.16-2.02,0.22l-0.33,0.06l-1.13,0.38c-0.8,0.32-4.75,1.25-5.74,1.44c-0.81,1.16-3.4,13.53-3.46,15.05
			c0.33,2.61,1.88,6.16-0.43,8.45c-1,1.03-2.73,1.03-3.73,2.06l-2.32,0.45c-2.49,0.48-5.07,0.48-7.39,0.93
			c-1.16,0.22-2.17,1.26-3.16,1.45c-2.65,0.51-6.52,0.09-7.11-2.97c-1.15-5.97,2.13-14.79,3.16-21.01
			c1.57-9.67,2.32-19.18,3.69-28.97c0.04-0.68,0.25-1.39,0.12-2.03l4.69-30.01c0.02-1.68,0.31-1.06,0.53-2.61
			c1.3-6.61,1.91-13.25,3.38-19.89c1.43-5.96,0.72-7.83,7.36-9.95c1.93-0.71,3.59-1.03,5.58-1.41c4.31-0.83,8.34-0.44,12.57,0.08
			c1.42,0.23,2.39,2.55,3.97,2.75c1.9,1.81,3.03,4.1,4.29,6.19l5.57,10.13c-0.11,1.19,1.4,1.9,1.62,3.03l-0.13,0.19l-0.37,0.74
			l0.06,0.32c0.52,0.9,2.98,5.61,3.69,6.64c0.03,0.16,0.23,0.29,0.26,0.45c0.64,1.55,1.18,3.45,2.29,4.74
			c6.19,8,10.02,17.13,14.81,25.9c1.13,2.29,3.32,4.71,4.58,6.81c2.99,4.77,5.64,9.61,8.43,14.26c0.61,1.39,2.11,2.94,2.4,4.39
			c0.06,0.32,0.35,0.94-0.08,1.35c1.09,0.29,3.65,4.65,3.87,5.78l0.03,0.16c-0.13,0.19-0.22,1.55-0.19,1.71
			c0.2,0.13,1.18,0.77,1.54,0.87c-0.98,1.19-0.78,1.32-1.92,2.55l-0.14,0.19c0.12,0.64,1.48,0.55,1.82,0.49l-3.63,1.7l-0.54,0.77
			c-0.17,0.03-2.26,0.77-3.22,1.12l-0.17,0.03c-2.32,0.45-4.87,0.61-7.02,1.02c-0.99,0.19-1.56,0.8-2.39,0.96
			c-1.66,0.32-4.51,0.7-6.05-0.17c-6.71-3.55-10.36-16.23-13.99-22.55L307.12,395.43z M278.31,378.09
			c6.13-1.19,11.84-2.79,17.98-3.98c0.33-0.06,0.27-0.39,0.24-0.55c-0.25-1.29-1.69-2.52-2.1-3.78l-4.68-7.29l-7.26-15.32
			c-1.3,1.26-1.44,9.48-1.66,11.86c-0.01,0.84-1.31,7.44-1.32,8.28l-0.11,1.19c-0.25,1.39-1.08,7.74-1.17,9.09L278.31,378.09z
			 M272.91,334.98c0.33-0.06,0.21-0.71-0.12-0.64C272.45,334.4,272.58,335.05,272.91,334.98z M305.45,360.97
			c0.2,0.13,0.36,0.1,0.5-0.1C305.88,360.55,305.38,360.65,305.45,360.97z M332.85,409.36l-0.06-0.32l-0.33,0.06L332.85,409.36z"/>
		<path class="st6" d="M286.32,282.64c-1.74-0.69-3.53-1.28-5.33-1.79c-3.81-1.07-7.18-2.78-10.03-5.37
			c-3.75,5.41-8.89,9.76-14.08,13.91c8.03,5.96,17.42,7.48,27.48,6.51c4.06-0.6,6.89-2.84,7.35-5.87
			C292.19,286.86,290.33,284.24,286.32,282.64z"/>
	</g>
	<path class="st11" d="M348.13,315.93c0.24-0.59,0.41-1.21,0.69-1.78c0.41-0.83,0.88-1.59,1.3-2.43l0.51-1.02
		c0.02-0.32,0.22-0.64,0.37-0.95c0.84-1.71,1.73-3.3,2.57-5l0.71-1.44c0-0.09,0.09-0.38,0.13-0.45l0.69-1.4
		c-0.02-0.06,0.02-0.42,0.05-0.49c0.02-0.04,0.15-0.11,0.15-0.11c0.09-0.1,0.24-0.3,0.24-0.3l-0.04-0.11
		c-0.02-0.06-0.91-0.64-1.33-0.85l-0.61-0.3c-0.53-0.26-1.14-0.47-1.63-0.71c-0.87-0.43-0.88-1.47-0.75-2.3
		c0.11-0.32,0.64-1.76,0.79-2.06c0.02-0.04,0.11-0.32,0.17-0.44c0.24-0.49,0.77-1.18,1.36-1.22c0.19,0.09,1,0.45,1.19,0.54
		c1.21,0.6,2.37,1.31,3.58,1.91c3.64,1.8,7.43,3.2,11.03,4.99c1.52,0.75,0.56,2.87,0.07,3.86c-0.43,0.87-0.71,1.35-1.68,1.58
		c-0.42-0.11-0.93-0.32-1.36-0.39l-3.22-1.6c-0.08-0.04-0.95-0.37-1.02-0.41c-0.27-0.13-0.81-0.36-0.96-0.05
		c-0.32,0.64-0.47,1.42-0.79,2.06c-0.17,0.34-0.45,0.63-0.6,0.93c-0.6,1.21-0.65,2.65-1.29,3.84c-0.04,0.08-0.62,0.87-0.66,0.95
		l-0.21,0.42c-0.69,1.4-1.2,2.71-1.95,4.13c-0.13,0.45-0.58,0.99-0.52,1.44c-0.38,0.66-0.92,1.76-1.2,2.61
		c-0.15,0.4-0.32,1.4-0.54,1.86c-0.02,0.04-0.11,0.04-0.11,0.04c-0.3,0.51-0.75,1.52-1.39,1.67c-0.38,0.1-0.76,0-1.12,0.06
		l-0.76-0.38c-0.19-0.09-1.33-0.75-1.57-0.92c-1.4-0.88-1.84-1.24-1.34-2.93c0.15-0.59,0.26-0.53,0.28-1.14
		C347.47,317.35,348,316.19,348.13,315.93z M352.89,294.88c0.08,0.04,0.21-0.04,0.25-0.11c0,0-0.02-0.06-0.06-0.08l-0.08-0.04
		L352.89,294.88z"/>
	<path d="M380.01,324.3c-0.39-0.99-1.19-3.17-1.19-3.17l-0.1-0.01c-0.07,0.14-0.23,0.9-0.25,1.04l-0.01,0.1
		c-0.14,0.91-0.12,2.14-0.19,2.91c-0.05,0.34-0.43,2.54-0.42,2.78c-0.16,1.06-0.22,2.13-0.27,3.15c-0.09,0.58,0.04,1.04-0.04,1.56
		c-0.22,1.49-2.77,0.81-3.78,0.66c-1.78-0.27-2.33-0.15-3.11-1.84c-0.11-0.26-0.2-0.62-0.15-0.95l0.22-3.74l0.06-0.38l0.28-5.84
		c0.56-3.1,0.65-6.33,1.11-9.4c0.33-2.21,0.71-4.45,1.28-6.58c0.02-0.14,0.41-1.41,0.43-1.55c0.04-0.24,0.26-1.43,0.3-1.67
		c0.01-0.05,0.08-0.19,0.12-0.18l0.01-0.05c0.03-0.19-0.05-0.3-0.03-0.45l0.03-0.19l0.7-0.09l0.1,0.01c2.67,0.15,5.41,0.22,7.95,0.6
		c1.01,0.15,1.95,0.44,2.91,0.53l2.47,0.86c1.14,0.27,2.09,1.44,3.62,3.34l1.03,1.97c0.87,1.7,0.83,4.29,0.54,6.21l-0.18,1.2
		c-0.26,0.45-0.38,0.88-0.69,1.32c-0.28,0.55-0.54,0.65-0.83,0.95c0,0-0.06,0.09-0.11,0.08c-0.37,0.19-0.38,0.58-0.62,0.89
		c-1.19,1.1-2.64,1.62-4.18,2.07l-0.05,0.04l0.04,0.06c0.37,0.79,0.78,1.69,1.14,2.57c0.1,0.31,0.46,1.54,0.51,1.84
		c0.41,1.53,0.95,3.13,1.57,4.6c0.27,0.48,0.64,0.98,0.86,1.45c0.14,0.36,0.17,0.81,0.36,1.18l0.37,0.45
		c0.26,0.24,0.77,2.42,0.69,2.9c-0.04,0.29-2.79,0.27-2.88,0.26c-0.86-0.13-5.21-1.22-5.5-1.61c-0.05-0.01-0.05-0.35-0.04-0.4
		l-0.37-0.5c-0.75-1.24-1.07-2.02-1.6-3.43c0.01-0.05-0.09-0.41-0.08-0.45c-0.07-0.21-0.3-0.93-0.3-0.98
		c-0.22-0.47-1.32-2.99-1.54-3.47C380.19,324.71,380.12,324.51,380.01,324.3z M382,313.56c0.24,0.04,0.22,0.47,0.32,0.49
		c0.1,0.01,0.35-0.05,0.41-0.13c-0.09-0.06-0.27-0.19-0.25-0.28l0.01-0.05c0.1-0.03,0.49-0.02,0.59-0.01l0.05,0.01
		c0,0,0.04,0.05,0.03,0.1c-0.05-0.01-0.17,0.12-0.22,0.16l0.24,0.04c0.1,0.01,0.49,0.02,0.52-0.17l0.01-0.05
		c0.01-0.05-0.08-0.11-0.08-0.11s0.06-0.04,0.1-0.03c0.1,0.01,0.11,0.26,0.3,0.29l0.04-0.24c1.05,0.16,3.14-0.02,3.36-1.46
		c0.18-1.2-1-2.85-2.2-3.03l-1.34-0.2c-0.05-0.01-0.32-0.15-0.37-0.15c-0.05-0.01-0.45,0.03-0.49,0.02c0,0-0.23-0.13-0.27-0.14
		l-0.1-0.01c-0.05-0.01-0.49,0.02-0.59,0.01l-0.1-0.01c0.01-0.05-0.01-0.25-0.05-0.3l-0.05-0.01c0,0-0.06,0.09-0.11,0.08
		c-0.05-0.01-0.49,0.02-0.59,0.01c-0.44-0.02-1.32-0.34-1.7-0.11l-0.11,0.72l0.01,2.26c-0.01,0.05-0.27,2.12-0.09,2.24
		c0.1-0.03,0.64,0,0.73,0.01l0.05,0.01C380.61,314.04,381.37,313.56,382,313.56z M379.16,316.86c0.11-0.08,0.21-0.12,0.23-0.21
		c0,0-0.29-0.04-0.3,0.05C379.08,316.7,379.12,316.81,379.16,316.86z M379.76,316.8c0.14,0.02,0.21-0.07,0.28-0.2
		C379.89,316.58,379.78,316.66,379.76,316.8z M381.26,313.94l0.1,0.01c0.05,0.01,0.2-0.02,0.2-0.02c-0.04-0.05-0.22-0.13-0.27-0.14
		L381.26,313.94z M382.2,308.34c0.04,0.06,0.18,0.08,0.19,0.03C382.44,308.33,382.2,308.29,382.2,308.34z M382.04,314l0.06-0.09
		l-0.14-0.02L382.04,314z M384.86,306.29c0.02-0.14-0.35-0.25-0.49-0.32l-1.1-0.16l-0.01,0.1c0,0,0.28,0.09,0.47,0.12
		c0.05,0.01,0.25-0.01,0.29,0C384.21,306.04,384.57,306.24,384.86,306.29z M383.73,308.57l0.01-0.1l-0.19-0.03
		C383.59,308.55,383.64,308.55,383.73,308.57z M383.92,308.6l0.05,0.01c0.05,0.01,0.25-0.01,0.4-0.04l-0.14-0.02
		C384.18,308.54,383.94,308.45,383.92,308.6z M385.69,306.61l0.01-0.1c0.01-0.05-0.23-0.13-0.32-0.15l-0.05-0.01
		c-0.05-0.01-0.1,0.03-0.11,0.08C385.36,306.51,385.5,306.58,385.69,306.61z M385.46,313.44c-0.05-0.01-0.03-0.15,0.02-0.14
		C385.57,313.31,385.55,313.45,385.46,313.44z M389.11,310.3l0.05,0.01c0.06-0.38-0.09-0.7-0.3-0.98l-0.01,0.1L389.11,310.3z
		 M389.67,306.56c0.05,0.01,0.06-0.09,0.01-0.1C389.64,306.46,389.62,306.56,389.67,306.56z M388.98,311.17
		c0.06-0.04,0.07-0.14,0.02-0.14C388.96,310.97,388.93,311.16,388.98,311.17z M389.94,307.04c0.1,0.01,0.12-0.13,0.02-0.14
		C389.87,306.89,389.85,307.03,389.94,307.04z M389.13,312.47c0.05,0.01,0.06-0.09,0.01-0.1
		C389.1,312.36,389.08,312.46,389.13,312.47z M390.03,316.33c0.05,0.01,0.07-0.14,0.03-0.19
		C390.01,316.13,389.97,316.37,390.03,316.33z M390.37,315.69l0.19,0.03l0.02-0.14C390.48,315.56,390.38,315.59,390.37,315.69z"/>
	<path d="M397.8,330.14c-0.93-2.52-1.42-5.22-1.61-7.95c-0.11-1.66,0.01-3.5,0.15-5.23c0.04-0.92,0.39-1.75,0.68-2.58
		c0.24-0.88,0.19-0.98,0.33-1.85c0-0.05,0.09-0.21,0.09-0.21c0.09-0.16,0.91-1.53,1.05-1.69l0.57-1.31c1.09-1.8,2.63-3.02,4.16-4.34
		c0.74-0.25,1.26-0.8,1.9-1.09l0.25-0.02c1.04-0.33,1.93-0.64,3.04-0.72c1.61-0.11,3.22,0.33,4.71,0.64
		c0.47,0.27,0.62,0.16,1.19,0.32c0.93,0.24,1.83,0.74,2.62,1.24c0,0,0.16,0.09,0.21,0.09c3,1.57,4.4,4.31,5.52,7.27l0.8,1.97
		c0.37,0.99,0.46,2.3,0.54,3.41l0.06,0.86c-0.05,0-0.19,0.22-0.18,0.27c0,0.05,0.21,0.14,0.22,0.19l0.01,0.1l-0.09,0.11l0.02,0.35
		c0.02,0.25,0.13,0.35,0.14,0.6c0.05,0.76-0.09,1.63-0.04,2.44c0.01,0.1,0.15,0.75,0.16,0.85l0.02,0.35
		c-0.22,1.28-0.23,2.5-0.45,3.83c-0.16,2.09-1.4,3.9-2.4,5.69c-0.05,0-0.17,0.47-0.26,0.63c-0.3,0.83-2.05,1.92-2.93,2.28
		c-0.14,0.11-1.77,0.73-1.97,0.85c0,0-0.15,0.06-0.2,0.06c-0.25,0.12-1.59,0.47-1.89,0.54c-0.05,0-0.6,0.14-0.75,0.15l-0.1,0.01
		c-0.45,0.03-1.52,0-1.52,0c-0.96,0.02-2.24-0.1-3.26-0.23l-0.16-0.09C403.21,337.22,400.19,334.69,397.8,330.14z M404.24,332.39
		l-0.01-0.1c0,0-0.66-0.82-0.94-1.15c-0.06-0.1-0.11-0.14-0.26-0.13C403.06,331.45,403.92,332.1,404.24,332.39z M403.35,318
		l0.1-0.01l0-0.05l-0.1,0.01L403.35,318z M405.17,333.29l0.1-0.01l-0.71-0.71c0-0.05-0.11-0.09-0.11-0.09l-0.1,0.01
		C404.41,332.63,404.91,333.3,405.17,333.29z M403.42,317.54l0.1-0.01l0.02-0.41l-0.15,0.01L403.42,317.54z M404,323.68l0.15-0.01
		l-0.01-0.1l-0.15,0.01L404,323.68z M403.81,319.49c0.25-0.02,0.23-0.32,0.22-0.47C403.83,319.03,403.8,319.29,403.81,319.49z
		 M403.63,316.16c0.01,0.1,0.06,0.1,0.1-0.01C403.73,316.1,403.58,316.11,403.63,316.16z M403.88,319.79l0.1-0.01l0-0.05l-0.1,0.01
		L403.88,319.79z M403.93,318.26l0.1-0.01l0-0.05l-0.1,0.01L403.93,318.26z M403.54,309.77l0.1-0.06l-0.2,0.01L403.54,309.77z
		 M404.65,322.88c0.1-0.06,0.14-0.11,0.14-0.21c-0.1,0.01-0.2,0.01-0.24,0.12L404.65,322.88z M410.67,331.49
		c0.46,0.12,0.97,0.09,1.42,0.05c1.41-0.1,2.07-1.61,3.18-2.45c0.04-0.15,0.34-0.99,0.37-1.19c0-0.05,0.18-0.32,0.18-0.37l0.09-0.11
		c0,0,0.16,0.09,0.21,0.09c0.4-0.03,0.62-4.96,0.57-5.72c-0.11-1.61-0.44-3.42-0.66-5.08c-0.11-0.9-1.05-2.66-1.45-3.35
		c-0.17-0.24-1.31-2.09-1.43-2.34c-0.34-0.48-1.01-1.45-1.77-1.4l0.02,0.25c-0.41-0.02-0.28-0.44-0.99-0.39l-0.2,0.01
		c0.06,0.15,0.42,0.17,0.52,0.17l0.01,0.1c-0.5,0.03-0.58-0.37-0.99-0.34l-0.05,0l0.17,0.19l0.01,0.1c-1.35,0.3-1.42,0.66-2.55,1.24
		c-0.05-0.05-0.11-0.09-0.11-0.14c-0.04,0.91-1.48,1.27-1.73,2.1c-0.15,0.72-0.39,1.65-0.5,2.37c0.01,0.15-0.07,1.12-0.11,1.38
		c-0.03,0.31-0.02,1.88,0,2.23c-0.14,0.21-0.15,0.77-0.14,0.97l0.11,0.14c0,0.05-0.09,0.11-0.09,0.11c0.01,0.2,0.01,0.86,0.02,1.06
		c0.05,0.76,0.35,1.45,0.41,2.2l0.01,0.1c-0.11-0.14-0.27-0.24-0.42-0.22c0.02,0.25,0.12,0.3,0.14,0.5l0.01,0.15l-0.09,0.21
		l0.22,0.19l0.01,0.1c0.02,0.25-0.07,0.41-0.06,0.66c0.03,0.45,0.41,1.59,0.59,1.89c0,0,0.05,0,0.05,0.05l-0.05,0.05l-0.09,0.16
		l0.01,0.1c0.03,0.5,0.77,0.91,0.81,1.46l0,0.05l-0.09,0.11c0.14-0.11,0.31,0.03,0.32,0.18c0.17,0.19,0.97,0.85,1.13,0.99
		c0.22,0.19,0.52,0.17,0.69,0.41L410.67,331.49z M405.84,312.15c0.15-0.01,0.95-0.88,1.09-1.09l-0.05,0
		C406.58,311.09,405.81,311.8,405.84,312.15z M407.56,310.66l0.24-0.22l-0.1,0.01c-0.05,0-0.2,0.11-0.2,0.11L407.56,310.66z
		 M410.77,331.48c-0.1,0.01-0.12-0.2-0.01-0.2C410.81,331.27,410.82,331.48,410.77,331.48z M416,327.22c-0.1,0.01-0.11-0.09,0-0.05
		C416.05,327.16,416.05,327.21,416,327.22z M418,332.7c0.05,0,0.11,0.09,0.16,0.09l0.05,0c0.25-0.02,0.46-0.64,0.45-0.84
		c-0.2,0.01-0.67,0.6-0.66,0.7L418,332.7z M418.74,331.69c0,0.05,0.05,0.05,0.05,0C418.84,331.63,418.74,331.64,418.74,331.69z
		 M419.01,331.16l0.05,0l-0.01-0.1l-0.05,0L419.01,331.16z"/>
	<path d="M440.2,335.46c-0.05,0.01-0.29,0-0.34,0.01l-1.69-0.12c-0.35-0.04-0.58-0.25-0.9-0.39c-3.13-1.41-4.94-3.52-6.87-6.3
		c-0.23-0.5-0.59-0.89-0.77-1.4c-0.97-2.05-1.44-4.34-1.81-6.59c-0.39-2.39-0.48-4.79-0.44-7.25c-0.06-0.68-0.17-1.35-0.09-2.05
		c0.33-2.51,0.92-4.92,2.57-6.9c0.21-0.23,1.03-0.31,1.46-0.68c0.09-0.06,0.56-0.48,0.56-0.48l2.21-1.24l1.2-0.19
		c3.21-0.52,6.39-0.3,8.88,1.75c0.67-0.4,1.8,1.38,1.83,1.87l0.67,1.07l0.05,0.33c0.07,0.43,0.07,0.73,0,1.23
		c-0.18,0.13-0.59,2.11-0.44,2.43c-0.1,0.02-0.26-0.06-0.3-0.05c-0.06-0.04-0.16-0.07-0.21-0.06c-0.33,0.05-0.43,0.36-0.59,0.59
		l-0.1,0.02c0,0-0.06-0.09-0.07-0.14l-0.05,0.01c-0.38,0.06-0.85,0.48-1.38,0.57c-2.92,0.47-4.13-0.31-5.23-3.13
		c-0.43-1.16-0.16-1.3-1.6-1.07c-0.43,0.07-1.63,0.26-1.51,0.98c-0.05,0.01-0.1-0.03-0.1-0.03c-0.05,0.01-0.17-0.12-0.17-0.17
		c-0.44,0.32-0.64,3.64-0.58,4.02c0.11,0.97,0.61,3.14,0.34,3.92c0.22,1.05,0.2,1.83,0.36,2.84c0.09,0.58,0.33,1.13,0.42,1.7
		c0.01,0.05,0.05,0.29-0.1,0.31l0.26,1.63c0.04,0.24,0.24,0.89,0.25,0.94l0.11,0.08c0.22-0.18,0.07-0.75,0.05-0.89
		c-0.07-0.43-0.24-0.85-0.31-1.28c-0.04-0.24-0.04-0.58,0.17-0.76l0.05,0.33c0.04,0.24-0.09,0.36-0.06,0.55
		c0.05,0.33,0.29,0.59,0.34,0.88l0.01,0.05c0.01,0.05-0.11,0.21-0.15,0.27l0.17,0.12l0.03,0.19c0.03,0.19-0.09,0.65-0.27,0.78
		c0.02,0.1,0.04,0.58,0.07,0.73c0.05,0.33,0.54,1.83,0.91,1.97l-0.05-0.29c-0.05-0.29-0.17-0.46-0.22-0.75
		c-0.02-0.14-0.05-0.29,0.14-0.37c0.01,0.05,0.06,0.04,0.06,0.09l0.06,0.04c0.36,0.43,0.98,1.17,1.05,1.65
		c0.02,0.14-0.05,0.3-0.03,0.45c0.06,0.38,1.46,1.43,1.89,1.36c0.38-0.06,1.99-3.81,2.45-4.57c0.35-0.55,1.35-1.64,1.98-1.75
		c0.02,0.1,0.02,0.14-0.06,0.21l0.1-0.02c0.14-0.02,0.43-0.37,0.62-0.44c0.43-0.36,1.01-0.41,1.54-0.5c0.43-0.07,0.61,0.1,1,0.08
		l0.48-0.08c0.2,0.02,0.69,0.62,0.77,0.81c0.08,0.18,0.76,0.42,0.93,0.59c0.36,0.38,0.69,0.92,1.05,1.3
		c0.06,0.04,0.17,0.17,0.18,0.22c0.01,0.05-0.08,0.41-0.07,0.45c0.02,0.1,0.16,0.71,0.13,0.81c0.05,0.29-0.31,0.54-0.31,0.84
		c-0.09,0.36-0.21,2.34-0.54,2.4c-0.1,0.02-0.11-0.08-0.35-0.04c-0.43,0.07-0.4,0.85-0.55,1.17l-0.57,1.03
		c-0.87,1.32-1.17,1.27-2.64,2.2c-0.05,0.01-0.26,0.24-0.3,0.25c-0.05,0.01-0.21,0.23-0.26,0.24c-0.05,0.01-0.21-0.11-0.21-0.11
		c-0.14,0.02-1.09,0.57-1.21,0.69c-0.17,0.17,0.05,0.29-0.29,0.34c-0.14,0.02-0.24,0.04-0.32-0.14c-0.23,0.09-1.23,0.3-1.47,0.34
		l-0.19,0.03l0.02,0.1l1.29-0.21l0.02,0.1l-1.56,0.35c0,0-0.23-0.21-0.29-0.25c-0.1,0.02-0.35-0.04-0.4-0.03
		c-0.14,0.02-0.81,0.18-0.95,0.2C439.98,335.3,440.17,335.27,440.2,335.46z M432.91,320.53l-0.09-0.53
		c-0.05,0.01-0.03,0.1-0.02,0.15C432.81,320.2,432.86,320.49,432.91,320.53z M438.51,331.07c0.35,0.34,0.88,0.25,1.4,0.17
		c0.48-0.08,1.21-0.1,1.64-0.46c-0.39,0.01-0.8-0.07-1.14-0.06c-0.61-0.15-1.62,0.02-1.79-0.15l-0.11,0.22
		c-0.43-0.23-0.86-0.74-1.26-1.12c0.1-0.26-0.51-0.41-0.41-0.72c-0.51-1-1.34-2.19-1.65-3.22c-0.27-0.74-0.47-1.99-0.59-2.75
		l-0.14,0.02c-0.14,0.02-0.06,0.25-0.15,0.27c-0.05,0.01-0.06-0.04-0.1-0.03c-0.27-1.04-0.6-2.21-1.06-3.22l0.04,0.24
		c0.21,1.29,0.83,2.42,1.03,3.62l0.02,0.14c-0.11-0.08-0.21-0.41-0.22-0.46c-0.17-0.42-0.76-2.24-0.91-2.6l-0.12-0.13l-0.04,0.06
		l0.01,0.05c0.16,1.01,0.41,2.19,0.86,3.15c-0.09,0.06-0.07,0.16-0.05,0.3c0.11,0.67,1.32,3.62,1.95,3.86l-0.02-0.14
		c0,0,0.04-0.06,0.09-0.06c0.01,0.05,0.13,0.18,0.13,0.18c0.01,0.05-0.08,0.11-0.08,0.11l-0.04,0.06c0.03,0.19,0.37,0.14,0.26,0.4
		l0.64,0.63c0.01,0.05,0.07,0.14,0.08,0.18C437.02,329.79,438.22,330.82,438.51,331.07z M435.74,333.98l0.05-0.01
		c-0.02-0.1-0.13-0.22-0.28-0.2C435.53,333.91,435.59,334,435.74,333.98z M433.84,321.11l-0.04-0.24c-0.04,0.06-0.08,0.11-0.07,0.16
		C433.74,321.08,433.84,321.11,433.84,321.11z M433.9,321.45c0.1-0.02,0.09-0.06-0.01-0.05C433.84,321.41,433.86,321.5,433.9,321.45
		z M434.24,322.67l-0.07-0.43c-0.02-0.14-0.08-0.48-0.24-0.55l0.05,0.29C434.02,322.21,434.05,322.36,434.24,322.67z M436.34,327.1
		l0.44,0.32l-0.07-0.43c0.1-0.02,0.35,0.04,0.31-0.2c-0.05-0.33-0.46-0.71-0.6-0.98c-0.47-1.05-0.75-2.19-1.12-3.26
		c-0.02-0.1-0.17-0.76-0.2-0.9l-0.16-0.07c-0.03-0.49-0.12-1.06-0.34-1.52l-0.01-0.05c0,0-0.05,0.01-0.04,0.06
		c-0.16,0.22-0.03,0.69,0,0.89c0.23,1.44,0.76,2.87,0.99,4.31l-0.1,0.02C435.55,325.9,435.8,326.79,436.34,327.1z M436.58,327.99
		c0.1-0.02,0.07-0.16-0.02-0.14C436.46,327.86,436.49,328.01,436.58,327.99z M437.3,328.76l-0.02-0.14
		c-0.05-0.29-0.32-0.49-0.6-0.64l0.03,0.19C436.75,328.41,436.92,328.87,437.3,328.76z M437.05,329.68
		c-0.1,0.02-0.12-0.13-0.02-0.14C437.13,329.52,437.15,329.67,437.05,329.68z M437.26,330.34c0.05-0.01,0.03-0.1-0.02-0.1
		C437.14,330.21,437.17,330.4,437.26,330.34z M436.85,326.92c-0.05,0.01-0.07-0.14-0.02-0.14
		C436.97,326.75,436.99,326.89,436.85,326.92z M436.49,323.78c-0.14,0.02-0.17-0.12-0.02-0.14
		C436.51,323.63,436.54,323.77,436.49,323.78z M436.68,324.98c-0.14,0.02-0.17-0.17-0.03-0.19
		C436.7,324.78,436.73,324.97,436.68,324.98z M436.65,324.15c0.01,0.05,0.01,0.39,0.03,0.49l-0.03,0.1l-0.09-0.57L436.65,324.15z
		 M434.87,311.07c-0.1,0.02-0.12-0.13-0.02-0.14C434.94,310.91,434.96,311.05,434.87,311.07z M438.7,330.45
		c-0.04-0.24-0.37-0.19-0.57-0.15C438.18,330.58,438.51,330.48,438.7,330.45z M438.67,330.85l0.17,0.17l-0.05,0.01
		c-0.05,0.01-0.1-0.03-0.1-0.03s-0.06-0.04-0.06-0.09L438.67,330.85z M440.67,335.34c-0.1-0.03,0.66-0.16,0.57-0.09
		C441.16,335.31,440.78,335.37,440.67,335.34z M439.89,327.45c-0.09,0.06-0.11-0.08-0.02-0.1
		C439.92,327.35,439.93,327.45,439.89,327.45z M441.52,334.8c0.53-0.09,1.05-0.17,1.48-0.29c-0.18-0.22-0.24-0.26-0.43-0.23
		c-0.33,0.05-0.84,0.28-1.27,0.35l-0.03,0.15C441.29,334.89,441.52,334.8,441.52,334.8z M441.49,330.39c0.02,0.1,0.11,0.08,0.1-0.02
		C441.58,330.32,441.48,330.34,441.49,330.39z M442.42,330.93l0.1-0.02c0.1-0.02,0.18-0.08,0.17-0.17l-0.01-0.05
		C442.58,330.75,442.5,330.81,442.42,330.93z M442.97,330.69l0.01,0.05c0.1-0.02,0.28-0.1,0.26-0.24
		C443.13,330.51,442.94,330.54,442.97,330.69z M442.58,328l0.01,0.05c0.18-0.08,0.24-0.33,0.22-0.48
		C442.68,327.69,442.55,327.81,442.58,328z M443.9,334.62c0.05-0.01,0.02-0.2-0.03-0.19C443.72,334.45,443.76,334.64,443.9,334.62z
		 M442.33,324.65l0.01,0.05c0.05-0.01,0.04-0.06,0.09-0.06c0.25-0.29,0.49-0.62,0.49-0.92
		C442.63,323.77,442.28,324.31,442.33,324.65z M443.86,330.15c0.14-0.02,0.22-0.18,0.3-0.29l-0.14,0.02
		C443.92,329.9,443.84,330.01,443.86,330.15z M443.68,323l0.19-0.03l-0.02-0.14C443.76,322.85,443.67,322.91,443.68,323z
		 M440.57,302.28c0.14-0.02,0.11-0.22-0.03-0.19C440.49,302.1,440.52,302.29,440.57,302.28z M444.75,310.5l0.1-0.02l-0.02-0.1
		L444.75,310.5z"/>
	<g>
		<path class="st0" d="M368.58,338.78c-5.83-2.4-11.79-4.46-17.55-7.07c-10.53-4.77-19.77-11.28-27.85-19.53
			c-12.65-12.92-25.38-25.74-38.07-38.62c-0.82-0.83-1.62-1.69-2.28-2.64c-1.64-2.37-1.58-4.49,0.07-6.41
			c1.79-2.08,4.28-2.63,6.76-1.49c2.17,1.01,3.95,2.73,6.27,3.55c0.53-0.92-0.17-1.48-0.49-2.07c-2.11-3.88-4.26-7.72-6.38-11.59
			c-0.36-0.65-0.67-1.34-0.93-2.04c-1.37-3.75-0.61-6.82,2.07-8.43c2.38-1.42,5.35-0.62,7.93,2.28c0.93,1.04,1.83,2.11,2.64,3.27
			c0.72,1.02,1.16,2.4,2.88,3.05c-0.11-2.35-0.98-4.35-1.54-6.37c-0.67-2.4-1.65-4.72-2.52-7.06c-0.47-1.26-0.74-2.55-0.76-3.9
			c-0.04-3.57,2.15-6.72,5.32-7.61c3.03-0.86,5.89,0.56,7.61,4.18c2.21,4.66,4.16,9.45,6.22,14.18c0.19,0.44,0.41,0.88,1,1.26
			c-0.15-2.72-0.31-5.45-0.46-8.17c-0.23-4.22,1.67-6.86,5.32-7.41c3.58-0.54,6.8,1.68,7.78,5.48c1.55,5.98,2.04,12.13,2.83,18.24
			c0.25,1.92,0.49,3.84,0.82,6.37c1.25-1.78,1.69-3.17,2.15-4.54c0.61-1.83,1.38-3.56,2.8-4.95c1.98-1.91,4.27-2.56,6.88-1.7
			c2.61,0.86,3.81,2.9,3.99,5.51c0.32,4.68-0.57,9.3-1.08,13.92c-0.47,4.24,0.01,8.28,1.46,12.27c0.83,2.27,2.31,3.74,4.52,4.68
			c11.2,4.8,22.91,7.64,35.02,8.62c29.98,2.43,58.1-3.94,84.45-18.32c2.77-1.51,5.44-3.24,8.12-4.92c1.41-0.89,2.84-1.37,3.94,0.24
			c1.17,1.71-0.07,2.76-1.41,3.63c-17.66,11.41-36.91,18.71-57.58,22.33c-14.54,2.54-29.14,2.93-43.79,0.99
			c-11.13-1.47-21.86-4.42-32.07-9.1c-4.42-2.02-5.58-6.34-6.69-10.58c-1.7-6.5,0.04-12.91,0.46-19.35
			c0.08-1.16,0.22-2.32,0.22-3.48c0-0.85-0.25-1.7-1.19-2.01c-1.02-0.33-1.83,0.18-2.37,0.97c-0.56,0.82-1,1.73-1.36,2.65
			c-1.8,4.57-3.57,9.15-5.32,13.74c-0.52,1.36-1.21,2.47-2.87,2.17c-1.64-0.29-1.87-1.58-2.01-3.01
			c-1.06-10.67-2.16-21.35-3.98-31.92c-0.13-0.73-0.38-1.46-0.72-2.12c-0.5-0.98-1.31-1.49-2.47-1.2c-1.08,0.28-1.47,1.07-1.41,2.07
			c0.14,2.32,0.35,4.64,0.51,6.96c0.35,5.06,0.68,10.13,1.06,15.19c0.11,1.52,0.02,2.96-1.68,3.44c-1.79,0.51-2.51-0.84-3.1-2.2
			c-3.75-8.72-7.5-17.43-11.25-26.15c-0.2-0.46-0.33-0.96-0.6-1.37c-0.65-1-1.05-2.51-2.74-1.89c-1.59,0.59-2.09,1.98-1.67,3.47
			c0.72,2.56,1.63,5.06,2.54,7.56c2.71,7.52,5.45,15.02,8.18,22.53c0.17,0.47,0.32,0.95,0.48,1.42c0.42,1.24,0.3,2.34-0.95,3.02
			c-1.24,0.67-2.28,0.19-3.08-0.81c-2.14-2.66-4.24-5.35-6.35-8.04c-3.03-3.86-6.03-7.76-9.11-11.59c-0.68-0.84-1.52-2.37-2.71-1.59
			c-1.09,0.72-0.28,2.15,0.27,3.17c3.96,7.32,7.94,14.63,11.94,21.94c0.7,1.28,1.54,2.59,0.23,3.85c-1.28,1.23-2.61,0.51-3.86-0.27
			c-3.88-2.43-7.76-4.85-11.68-7.23c-0.78-0.48-1.75-1.75-2.56-0.79c-0.97,1.14,0.59,1.88,1.25,2.55
			c8.83,9.07,17.74,18.07,26.6,27.11c5.48,5.59,11.06,11.08,16.73,16.48c9.02,8.58,20,13.72,31.42,18.02
			c25.06,9.45,50.95,11.71,77.44,8.66c18.57-2.14,36.47-6.79,53.71-14c1.58-0.66,3.2-1.04,4,0.97c0.75,1.89-0.66,2.7-2.13,3.3
			c-19.55,8-39.81,13.17-60.89,14.92c-15.42,1.28-30.79,0.83-46.05-1.93c-0.24-0.04-0.49,0.02-0.74,0.04
			C381.64,341.99,375.11,340.38,368.58,338.78z"/>
		<path class="st0" d="M192.19,251.9c5.91-0.01,10.77,4.83,10.84,10.8c0.08,6.01-4.92,11.01-10.93,10.95
			c-6.01-0.07-10.93-4.95-10.84-10.78C181.36,256.67,186.09,251.91,192.19,251.9z M197.11,262.89c0.03-2.86-2.1-5.24-4.8-5.33
			c-2.58-0.09-5.05,2.35-5.14,5.09c-0.09,2.74,2.18,5.18,4.9,5.26C194.85,267.99,197.08,265.77,197.11,262.89z"/>
		<path class="st0" d="M376.79,241.23c0.36-1.52,0.7-3.04,1.1-4.55c0.42-1.57,1.4-2.34,3.1-2.14c1.74,0.21,2.5,1.31,2.44,2.87
			c-0.08,1.97-0.45,3.92-0.69,5.88c-0.57,2.67-1.11,5.36-1.7,8.03c-0.62,2.79-1.59,3.44-4.43,2.86c-2.61-0.53-5.2-1.14-7.78-1.77
			c-1.72-0.42-2.65,0.01-2.9,1.94c-0.3,2.3-0.85,4.57-1.33,6.85c-0.4,1.93-1.7,2.62-3.51,2.21c-1.79-0.41-2.34-1.78-2.05-3.44
			c0.69-3.93,1.46-7.85,2.2-11.77c0.48-2.53,2.29-2.87,4.35-2.48c2.53,0.47,5.04,1.05,7.52,1.74c1.92,0.53,3.05,0.24,3.16-2.02
			C376.33,244.01,376.61,242.62,376.79,241.23z"/>
		<path class="st0" d="M288.38,213.91c2.89-7.77,5.78-15.54,8.66-23.31c0.2-0.55,0.39-1.1,0.59-1.64c0.7-1.89,1.76-3.41,4.04-2.58
			c2.35,0.85,2,2.82,1.38,4.62c-1.27,3.69-2.68,7.34-3.99,11.02c-1.73,4.84-3.43,9.69-5.14,14.54c-0.48,1.05-0.94,2.11-1.45,3.14
			c-0.7,1.42-1.92,1.79-3.35,1.4c-1.56-0.43-2.08-1.64-1.83-3.09C287.52,216.61,288,215.27,288.38,213.91z"/>
		<path class="st0" d="M255.41,206.62c-1.08-3.09-3.23-5.6-4.69-8.49c-0.83-1.66-0.78-3.08,0.97-4.04c1.6-0.87,2.87-0.36,3.82,1.13
			c0.93,1.47,1.6,3.1,2.84,4.37c2.16,3.71,4.33,7.41,6.5,11.12c0.33,0.57,0.72,1.12,1,1.71c0.74,1.55,0.54,3-0.95,3.91
			c-1.51,0.93-2.92,0.44-3.85-1.02c-1.47-2.3-2.86-4.65-4.27-6.99C256.41,207.7,256.12,206.99,255.41,206.62z"/>
		<path class="st0" d="M202.14,237.38c-0.03,3.5-2.9,6.39-6.32,6.38c-3.36-0.02-6.34-3.04-6.33-6.42c0.01-3.54,2.78-6.27,6.37-6.26
			C199.53,231.08,202.18,233.74,202.14,237.38z"/>
		<path class="st0" d="M273.11,192.36c-0.14-2.57-0.3-5.13-0.43-7.7c-0.08-1.7,0.54-3.01,2.38-3.19c1.92-0.19,3.01,0.94,3.15,2.75
			c0.39,5.21,0.7,10.42,0.98,15.64c0.11,1.98-0.65,3.56-2.87,3.56c-2.28,0-2.74-1.66-2.8-3.61c-0.08-2.48-0.31-4.96-0.48-7.45
			C273.06,192.37,273.08,192.37,273.11,192.36z"/>
		<path class="st0" d="M335.31,224.67c-0.04-3.17,2.16-5.49,5.2-5.48c2.85,0.01,5.26,2.35,5.34,5.19c0.08,2.86-2.45,5.47-5.31,5.49
			C337.58,229.88,335.35,227.67,335.31,224.67z"/>
	</g>
	<path class="st0" d="M190.35,340.43c5.83-2.4,11.79-4.46,17.55-7.07c10.53-4.77,19.77-11.28,27.85-19.53
		c12.65-12.92,25.38-25.74,38.07-38.62c0.82-0.83,1.62-1.69,2.28-2.64c1.64-2.37,1.58-4.49-0.07-6.41
		c-1.79-2.08-4.28-2.63-6.76-1.49c-2.17,1.01-3.95,2.73-6.27,3.55c-0.53-0.92,0.17-1.48,0.49-2.07c2.11-3.88,4.26-7.72,6.38-11.59
		c0.36-0.65,0.67-1.34,0.93-2.04c1.37-3.75,0.61-6.82-2.07-8.43c-2.38-1.42-5.35-0.62-7.93,2.28c-0.93,1.04-1.83,2.11-2.64,3.27
		c-0.72,1.02-1.16,2.4-2.88,3.05c0.11-2.35,0.98-4.35,1.54-6.37c0.67-2.4,1.65-4.72,2.52-7.06c0.47-1.26,0.74-2.55,0.76-3.9
		c0.04-3.57-2.15-6.72-5.32-7.61c-3.03-0.86-5.89,0.56-7.61,4.18c-2.21,4.66-4.16,9.45-6.22,14.18c-0.19,0.44-0.41,0.88-1,1.26
		c0.15-2.72,0.31-5.45,0.46-8.17c0.23-4.22-1.67-6.86-5.32-7.41c-3.58-0.54-6.8,1.68-7.78,5.48c-1.55,5.98-2.04,12.13-2.83,18.24
		c-0.25,1.92-0.49,3.84-0.82,6.37c-1.25-1.78-1.69-3.17-2.15-4.54c-0.61-1.83-1.38-3.56-2.8-4.95c-1.98-1.91-4.27-2.56-6.88-1.7
		c-2.61,0.86-3.81,2.9-3.99,5.51c-0.32,4.68,0.57,9.3,1.08,13.92c0.47,4.24-0.01,8.28-1.46,12.27c-0.83,2.27-2.31,3.74-4.52,4.68
		c-11.2,4.8-22.91,7.64-35.02,8.62c-29.98,2.43-58.1-3.94-84.45-18.32c-2.77-1.51-5.44-3.24-8.12-4.92
		c-1.41-0.89-2.84-1.37-3.94,0.24c-1.17,1.71,0.07,2.76,1.41,3.63c17.66,11.41,36.91,18.71,57.58,22.33
		c14.54,2.54,29.14,2.93,43.79,0.99c11.13-1.47,21.86-4.42,32.07-9.1c4.42-2.02,5.58-6.34,6.69-10.58c1.7-6.5-0.04-12.91-0.47-19.35
		c-0.08-1.16-0.22-2.32-0.22-3.48c0-0.85,0.25-1.7,1.19-2.01c1.02-0.33,1.83,0.18,2.37,0.97c0.56,0.82,1,1.73,1.36,2.65
		c1.8,4.57,3.57,9.15,5.32,13.74c0.52,1.36,1.21,2.47,2.87,2.17c1.64-0.29,1.87-1.58,2.01-3.01c1.06-10.67,2.16-21.35,3.98-31.92
		c0.13-0.73,0.38-1.46,0.72-2.12c0.5-0.98,1.31-1.49,2.47-1.2c1.08,0.28,1.47,1.07,1.41,2.07c-0.14,2.32-0.35,4.64-0.51,6.96
		c-0.35,5.06-0.68,10.13-1.06,15.19c-0.11,1.52-0.02,2.96,1.68,3.44c1.79,0.51,2.51-0.84,3.1-2.2c3.75-8.72,7.5-17.43,11.25-26.15
		c0.2-0.46,0.33-0.96,0.6-1.37c0.65-1,1.05-2.51,2.74-1.89c1.59,0.59,2.09,1.98,1.67,3.47c-0.72,2.56-1.63,5.06-2.54,7.56
		c-2.71,7.52-5.45,15.02-8.18,22.53c-0.17,0.47-0.32,0.95-0.48,1.42c-0.42,1.24-0.3,2.34,0.95,3.02c1.24,0.67,2.28,0.19,3.08-0.81
		c2.14-2.66,4.24-5.35,6.35-8.04c3.03-3.86,6.03-7.76,9.11-11.59c0.68-0.84,1.52-2.37,2.71-1.59c1.09,0.72,0.28,2.15-0.27,3.17
		c-3.96,7.32-7.94,14.63-11.94,21.94c-0.7,1.28-1.54,2.59-0.23,3.85c1.28,1.23,2.61,0.51,3.86-0.27c3.88-2.43,7.76-4.85,11.68-7.23
		c0.78-0.48,1.75-1.75,2.56-0.79c0.97,1.14-0.59,1.88-1.25,2.55c-8.83,9.07-17.74,18.07-26.6,27.11
		c-5.48,5.59-11.06,11.08-16.73,16.48c-9.02,8.58-20,13.72-31.42,18.02c-25.06,9.45-50.95,11.71-77.44,8.66
		c-18.57-2.14-36.47-6.79-53.71-14c-1.58-0.66-3.2-1.04-4,0.97c-0.75,1.89,0.66,2.7,2.13,3.3c19.55,8,39.81,13.17,60.89,14.92
		c15.42,1.28,30.79,0.83,46.05-1.93c0.24-0.04,0.49,0.02,0.74,0.04C177.29,343.64,183.82,342.03,190.35,340.43z"/>
	<path d="M104.04,330.1c0.11-0.46,0.43-0.88,0.54-1.34l0.1-0.41c0.31-1.29,0.81-4.06,0.86-4.92l-0.2,0.17l0.83-3.45l-0.08-0.13
		c0.2-1.04,0.19-2.14,0.35-3.24c0.89-4.15,1.87-8.22,2.66-12.4c0.21-1.09,0.5-2.28,0.65-3.39c0-0.44,0.42-1.75,0.51-2.11
		c0.07-0.31,0.32-0.2,0.49-0.43c7.02,0.98,13.81,2.89,17.87,8.94c3.21,4.81,3.95,10.33,2.61,15.9c-0.27,1.13-0.91,3.55-1.61,4.63
		c-0.17,0.23-1.45,2.16-1.56,2.41c-0.77,1.18-0.97,2.22-2.04,3.05l0.11,0.24c-5.83,4.27-8.21,3.75-19.36,1.77
		c-0.31-0.07-0.92-0.27-1-0.62C103.84,333.87,103.59,331.96,104.04,330.1z M104.11,328.43c-0.06,0.04,0.04-0.37,0.07-0.31
		C104.28,328.2,104.23,328.4,104.11,328.43z M104.11,329.14c-0.1-0.02-0.05-0.23,0.05-0.21C104.19,329,104.16,329.15,104.11,329.14z
		 M104.26,330.54c0.06-0.04,0.13-0.3,0.1-0.41C104.27,330.05,104.13,330.62,104.26,330.54z M108.11,324.05
		c0.1,0.02,0.14-0.13,0.04-0.15C108.05,323.87,108.01,324.02,108.11,324.05z M113.44,323.91c0.03,0.11-0.29,1.19-0.32,1.34
		c-0.04,0.37-0.17,2.96,0.01,3.11l0.05,0.01c5.37,2.17,7.81,0.63,9.48-6.28c1.78-7.37,1.38-13.2-6.14-15.28l-0.26-0.06
		L113.44,323.91z"/>
	<path d="M135.28,329.07c-0.74-2.47-1.04-5.09-1.05-7.71c-0.01-1.6,0.23-3.35,0.46-5c0.09-0.87,0.48-1.65,0.81-2.43
		c0.29-0.83,0.24-0.92,0.43-1.75c0-0.05,0.1-0.19,0.1-0.19c0.1-0.15,0.96-1.41,1.11-1.56l0.63-1.22c1.16-1.65,2.7-2.73,4.25-3.9
		c0.73-0.2,1.26-0.68,1.89-0.93l0.24,0c1.02-0.25,1.89-0.49,2.96-0.5c1.55-0.01,3.06,0.52,4.47,0.9c0.44,0.29,0.58,0.19,1.12,0.38
		c0.87,0.29,1.7,0.82,2.43,1.35c0,0,0.15,0.1,0.19,0.1c2.77,1.69,3.95,4.4,4.83,7.3l0.64,1.94c0.3,0.97,0.3,2.23,0.31,3.3l0,0.82
		c-0.05,0-0.19,0.19-0.19,0.24c0,0.05,0.19,0.14,0.19,0.19l0,0.1l-0.1,0.1l0,0.34c0,0.24,0.1,0.34,0.1,0.58
		c0,0.73-0.19,1.55-0.18,2.33c0,0.1,0.1,0.73,0.1,0.82l0,0.34c-0.29,1.21-0.38,2.38-0.66,3.64c-0.28,1.99-1.58,3.64-2.64,5.3
		c-0.05,0-0.19,0.44-0.29,0.58c-0.34,0.78-2.08,1.71-2.95,2c-0.15,0.1-1.74,0.59-1.94,0.69c0,0-0.15,0.05-0.19,0.05
		c-0.24,0.1-1.55,0.35-1.84,0.4c-0.05,0-0.58,0.1-0.73,0.1l-0.1,0c-0.44,0-1.46-0.09-1.46-0.09c-0.92-0.04-2.14-0.23-3.11-0.42
		l-0.15-0.1C140.02,336.18,137.29,333.58,135.28,329.07z M141.31,331.62l0-0.1c0,0-0.59-0.82-0.83-1.16
		c-0.05-0.1-0.1-0.15-0.24-0.14C140.24,330.65,141.02,331.33,141.31,331.62z M141.35,317.79l0.1,0l0-0.05l-0.1,0L141.35,317.79z
		 M142.14,332.53l0.1,0l-0.63-0.72c0-0.05-0.1-0.1-0.1-0.1l-0.1,0C141.46,331.86,141.9,332.54,142.14,332.53z M141.44,317.36l0.1,0
		l0.05-0.39l-0.15,0L141.44,317.36z M141.61,323.27l0.15,0l0-0.1l-0.15,0L141.61,323.27z M141.69,319.25c0.24,0,0.24-0.29,0.24-0.44
		C141.74,318.81,141.69,319.05,141.69,319.25z M141.73,316.04c0,0.1,0.05,0.1,0.1,0C141.82,316,141.68,316,141.73,316.04z
		 M141.74,319.54l0.1,0l0-0.05l-0.1,0L141.74,319.54z M141.88,318.08l0.1,0l0-0.05l-0.1,0L141.88,318.08z M142.04,309.93l0.1-0.05
		l-0.19,0L142.04,309.93z M142.29,322.54c0.1-0.05,0.15-0.1,0.14-0.2c-0.1,0-0.19,0-0.24,0.1L142.29,322.54z M147.52,331.15
		c0.44,0.14,0.92,0.14,1.36,0.14c1.36-0.01,2.08-1.42,3.19-2.15c0.05-0.15,0.38-0.92,0.43-1.12c0-0.05,0.19-0.29,0.19-0.34l0.1-0.1
		c0,0,0.15,0.1,0.19,0.1c0.39,0,0.9-4.71,0.9-5.44c-0.01-1.55-0.21-3.3-0.31-4.9c-0.05-0.87-0.84-2.62-1.18-3.29
		c-0.15-0.24-1.12-2.08-1.22-2.32c-0.29-0.48-0.88-1.45-1.61-1.45l0,0.24c-0.39-0.05-0.24-0.44-0.92-0.43l-0.19,0
		c0.05,0.15,0.39,0.19,0.49,0.19l0,0.1c-0.49,0-0.54-0.39-0.92-0.38l-0.05,0l0.15,0.19l0,0.1c-1.31,0.2-1.4,0.54-2.52,1.03
		c-0.05-0.05-0.1-0.1-0.1-0.15c-0.09,0.87-1.5,1.12-1.79,1.9c-0.19,0.68-0.48,1.55-0.62,2.23c0,0.15-0.14,1.07-0.19,1.31
		c-0.05,0.29-0.14,1.79-0.14,2.13c-0.14,0.19-0.19,0.73-0.19,0.92l0.1,0.15c0,0.05-0.1,0.1-0.1,0.1c0,0.19-0.04,0.82-0.04,1.02
		c0,0.73,0.25,1.41,0.25,2.13l0,0.1c-0.1-0.15-0.24-0.24-0.39-0.24c0,0.24,0.1,0.29,0.1,0.49l0,0.15l-0.1,0.19l0.19,0.19l0,0.1
		c0,0.24-0.1,0.39-0.09,0.63c0,0.44,0.3,1.55,0.44,1.84c0,0,0.05,0,0.05,0.05l-0.05,0.05l-0.1,0.15l0,0.1
		c0,0.49,0.68,0.92,0.69,1.45l0,0.05l-0.1,0.1c0.15-0.1,0.29,0.05,0.29,0.19c0.15,0.19,0.88,0.87,1.02,1.01
		c0.19,0.19,0.49,0.19,0.63,0.43L147.52,331.15z M144.09,312.35c0.15,0,0.97-0.78,1.11-0.98l-0.05,0
		C144.86,311.37,144.09,312.01,144.09,312.35z M145.83,311.03l0.24-0.19l-0.1,0c-0.05,0-0.19,0.1-0.19,0.1L145.83,311.03z
		 M147.61,331.15c-0.1,0-0.1-0.19,0-0.19C147.66,330.96,147.66,331.15,147.61,331.15z M152.88,327.39c-0.1,0-0.1-0.1,0-0.05
		C152.93,327.35,152.93,327.39,152.88,327.39z M154.46,332.77c0.05,0,0.1,0.1,0.15,0.1l0.05,0c0.24,0,0.48-0.58,0.48-0.78
		c-0.19,0-0.68,0.54-0.68,0.63L154.46,332.77z M155.23,331.85c0,0.05,0.05,0.05,0.05,0C155.33,331.8,155.23,331.8,155.23,331.85z
		 M155.52,331.36l0.05,0l0-0.1l-0.05,0L155.52,331.36z"/>
	<path d="M166.66,321.5c-0.01-0.05,0.02-0.4,0-0.49l-0.03-0.14c-0.06-0.29-0.44-1.64-0.53-1.82l-0.38-2.3l-0.11-0.08
		c-0.49-3.52-1.54-6.91-2.09-10.47c-0.05,0.01-0.18-0.16-0.24-0.2l-0.02-0.1c0.04-0.06,0.12-0.12,0.17-0.13l-0.02-0.09l-0.08-0.13
		c-0.01-0.05,0.04-0.31,0.08-0.32c0.14-0.03,0.16,0.07,0.4,0.02c0.52-0.11,0.08-0.12,0.28-0.31c0.04-0.06,0.22-0.14,0.3-0.21
		c0.14-0.03,1.03-0.27,1.22-0.31c0.9-0.68,5.12-0.18,4.94,0.16c0.05-0.01,0.66,0.56,0.9,0.75l0.6,0.52c0,0,0.31,0.08,0.32,0.13
		c0.06,0.04,0.16,0.31,0.17,0.36c0,0,0.06,0.04,0.11,0.03c0.52,0.59,0.97,1.33,1.49,1.92l2.22,2.06c0.54,0.43,0.73,1.14,1.17,1.59
		c0.06,0.04,0.73,0.64,1.02,0.83c0.54,0.43,1.1,0.76,1.48,1.38l1.05,1.47c-0.13,0.32,1.65,1.98,1.91,2.28
		c0.58,0.62,1,1.23,1.54,1.91l-2.51-16.52l-0.27-1.28c-0.14-0.66,0.37-0.37,0.47-0.59c0.05-0.01,0.05-0.26,0.09-0.27
		c0.28-0.55,1.4-1.13,1.78-1.21l0.05-0.01c0.05-0.01,0.15,0.02,0.15,0.02l1.57-0.33c0.25,0.25,0.72,0.15,0.93,0.2
		c1,0.04,1.63,1.39,1.89,2.38c0.09,0.43,0.27,2.22,0.31,2.66c0.01,0.05,0.05,0.48,0.06,0.53c0.01,0.05,0.1,0.23,0.11,0.27l0.04,0.19
		c0.09,0.43,0.1,0.97,0.21,1.49l0.12,0.57c0.12,0.12,0.29,1.13,0.35,1.46l0.27,1.53c0.29,0.19,0.91,2.44,0.93,2.78l0.05,0.24
		c0.01,0.05,0.09,0.92,0.11,1.02l0.01,0.05c0.05,0.49,0.26,0.79,0.35,1.21c0.02,0.1,0.06,0.53,0.08,0.63
		c-0.08,0.11-0.07,0.16-0.04,0.3c0.06,0.53,0.34,1.17,0.55,1.67l2.33,9.23c0.1,0.47,0.34,0.67,0.45,1.19
		c0.18,1.1-0.21,1.58-1.09,2.11c-0.36,0.17-2.11,0.79-2.48,0.92l-2.04,0.43c-0.11-0.07-0.83-0.17-0.98-0.19
		c-0.41-0.06-0.78-0.63-1.12-0.86l-0.84-0.47l-3.04-2.44c-0.88-1.11-2.07-2.09-3.06-3.03c-0.57-0.58-1.31-0.82-1.89-1.44l-5.14-5.37
		c-0.39-0.22-0.62-0.81-1-0.98c-0.03,0.55,0.12,1.51,0.24,1.88c-0.04,0.06-0.03,0.1-0.02,0.15c0.01,0.05-0.03,0.35-0.01,0.45
		l0.3,1.67c-0.08,0.11-0.06,0.21-0.04,0.3c0.07,0.33,0.54,0.43,0.57,0.82c0.01,0.05,0.05,0.24-0.05,0.26
		c-0.02-0.1-0.23-0.4-0.37-0.37l-0.05,0.01c0.2,0.25,0.68,2.29,0.79,2.36c0.13,0.62,0.26,1.73,0.54,2.36
		c0.51-0.16,1.29,2.6,1.33,3.04l0.15,0.02l0.52,2.96c-0.04,0.06-0.1,0.22-0.09,0.27l0.06,0.28c0,0-0.13,0.08-0.17,0.13
		c-1.14,0.73-2.35,1.33-3.68,1.61c-2.47,0.52-2.93-1.47-3.31-3.52l-0.08-0.38c-0.01-0.05-0.14-0.22-0.15-0.27
		c-0.07-0.09-0.15-0.47-0.17-0.56l0.14-0.03l-0.26-1.48l-0.11-0.08l-0.52-2.96l-0.12-0.12c-0.21-1.24-0.55-2.41-0.81-3.65
		c-0.09,0.02-0.12-0.12-0.03-0.14l-0.04-0.19c-0.05,0.01-0.07-0.09-0.02-0.1L166.66,321.5z M165.66,317.2
		c-0.05,0.01-0.08-0.13-0.03-0.14C165.73,317.04,165.76,317.18,165.66,317.2z M168.47,330.14c-0.1,0.02-0.12-0.12-0.03-0.14
		C168.49,330.04,168.5,330.08,168.47,330.14z M168.55,330.57c-0.1,0.02-0.13-0.17-0.04-0.19
		C168.57,330.42,168.59,330.51,168.55,330.57z M168.85,331.75c0.04-0.06,0.02-0.15-0.04-0.19
		C168.71,331.53,168.76,331.77,168.85,331.75z M163.8,305c-0.02-0.09,0.08-0.11,0.09-0.02C163.86,305.04,163.81,305.05,163.8,305z
		 M170.78,333.18c0.05-0.01,0.01-0.2-0.04-0.19C170.65,333.01,170.69,333.2,170.78,333.18z M167.97,318.75
		c0.09-0.02,0.05-0.26-0.05-0.24C167.82,318.53,167.87,318.77,167.97,318.75z M169.55,324.42c0.09-0.07,0.05-0.26-0.06-0.28
		C169.44,324.14,169.51,324.47,169.55,324.42z M169.02,321.9l0.09-0.07l-0.08-0.13L169.02,321.9z M168.89,321.03l0.05-0.01
		c0.05-0.01,0.05-0.46,0.06-0.66l-0.05-0.24C168.66,320.19,168.83,320.75,168.89,321.03z M168.9,319.89l0.03-0.11l-0.3-1.42
		c-0.05,0.01-0.13,0.08-0.16,0.18l-0.03-0.14c0.05-0.01,0.14-0.28,0.14-0.28l-0.18-0.85c-0.05,0.01-0.18,0.09-0.16,0.18l0.22,1.29
		l0.05-0.01l0.23,1.09L168.9,319.89z M167.81,314.92l-0.01-0.29l-0.03,0.11l-0.02,0.15L167.81,314.92z M167.65,313.91
		c0.09-0.07,0.02-0.4-0.1-0.48C167.49,313.4,167.62,314.02,167.65,313.91z M167.2,311.77c0.1-0.02,0.06-0.21,0.05-0.26
		c-0.02-0.1-0.05-0.24-0.15-0.26L167.2,311.77z M170.14,322.06c0.22,0.35,0.59,1.41,0.97,1.58l-0.07-0.33l-0.07-0.09
		c-0.01-0.05,0.06-0.21,0.06-0.21l-0.02-0.1c-0.03-0.14-0.04-0.19-0.2-0.26c0.22-0.14-0.21-0.75,0.02-0.85l-0.08-0.63l-0.07-0.09
		l-0.01-0.05c-0.05-0.24-0.05-0.49-0.1-0.72l-0.08-0.38c-0.29,0.01-0.39-0.46-0.44-0.7l-0.11,0.42l0.05,0.24
		c0.14,0.66-0.26,0.9,0.03,1.58l-0.02,0.15L170.14,322.06z M169.77,319.31c0.08-0.11,0.13-0.32,0.15-0.48l0.01,0.05
		c0.07,0.08,0.08,0.13,0.22,0.1c-0.11-0.52-0.59-2.6-0.82-3c0.01,0.05-0.02,0.15-0.01,0.2l-0.03,0.11l0.1,0.23l0.03,0.14l0,0.25
		c0.01,0.05,0.1,0.23,0.11,0.27l-0.02,0.15c-0.03,0.11,0.11,0.77,0.12,0.82c0,0.25-0.14,0.28-0.11,0.42
		C169.57,318.86,169.76,319.02,169.77,319.31z M169.39,317.76c0.09-0.02,0.07-0.16-0.03-0.14L169.39,317.76z M170.4,321.61
		l0.04,0.19c-0.1-0.03-0.11-0.08-0.13-0.17L170.4,321.61z M170.52,322.18c-0.09,0.02-0.13-0.17-0.04-0.19
		C170.52,321.98,170.56,322.17,170.52,322.18z M169.76,318.57l-0.05,0.01l-0.02-0.09L169.76,318.57z M170.33,321.03
		c-0.04,0.06-0.1-0.23-0.04-0.19C170.33,320.83,170.37,321.02,170.33,321.03z M170.43,320.37c-0.05,0.01-0.1-0.23-0.05-0.24
		C170.48,320.11,170.53,320.35,170.43,320.37z M172.88,320.45l0.02,0.09c0,0-0.13-0.17-0.14-0.22l-0.02-0.1
		C172.83,320.21,172.86,320.35,172.88,320.45z M172.81,319.87c-0.05,0.01-0.08-0.13-0.03-0.14
		C172.84,319.76,172.85,319.81,172.81,319.87z M173.19,319.54c-0.07,0.11-0.13-0.37-0.07-0.33
		C173.17,319.25,173.23,319.53,173.19,319.54z M191.26,330.13c0.09-0.02,0.24-0.05,0.26-0.2c-0.05-0.24-0.12-0.57-0.28-0.64
		c-0.16,0.18,0.02,0.79-0.18,0.78C191.07,330.17,191.16,330.15,191.26,330.13z"/>
</g>
</svg>
