<?xml version="1.0" encoding="UTF-8" standalone="no"?>
<svg
   version="1.1"
   id="svg1"
   viewBox="0 0 27 23"
   xmlns:inkscape="http://www.inkscape.org/namespaces/inkscape"
   xmlns="http://www.w3.org/2000/svg"
   xmlns:svg="http://www.w3.org/2000/svg"
   xml:space="preserve">
  <defs
     id="defs1" />
  <g id="layer1">
    <path
       d="m 15.239405,5.2110638 c 0.463944,-1.247352 0.927888,-2.494703 1.390227,-3.742054 0.03211,-0.08829 0.06261,-0.176588 0.09472,-0.263276 0.112374,-0.30340997 0.28254,-0.54742197 0.648558,-0.41417897 0.377256,0.136454 0.321069,0.45270697 0.221538,0.74166897 -0.203879,0.592371 -0.430232,1.178321 -0.640532,1.769087 -0.277725,0.776986 -0.550633,1.555577 -0.825146,2.334169 -0.07706,0.16856 -0.150903,0.338727 -0.232775,0.504077 -0.112374,0.227959 -0.308226,0.287356 -0.53779,0.224748 -0.250433,-0.06903 -0.333911,-0.263276 -0.293778,-0.496051 0.03692,-0.224748 0.11398,-0.439864 0.174983,-0.65819 M 9.946595,4.0407688 C 9.773218,3.5447178 9.428069,3.1417768 9.193689,2.6778328 9.060446,2.4113458 9.068472,2.1833868 9.349407,2.0292738 c 0.256855,-0.139664 0.460734,-0.05779 0.613241,0.181404 0.149297,0.235986 0.256855,0.497656 0.455918,0.701535 0.346754,0.595582 0.695113,1.189559 1.043472,1.785141 0.05298,0.0915 0.115585,0.179798 0.160535,0.274514 0.118795,0.248828 0.08669,0.481602 -0.152508,0.627689 -0.242407,0.149297 -0.46876,0.07063 -0.618057,-0.163745 -0.235985,-0.369229 -0.459128,-0.746485 -0.685481,-1.122135 -0.0594,-0.09953 -0.105953,-0.21351 -0.219932,-0.272908 m 2.841456,-2.289219 c -0.02247,-0.412573 -0.04816,-0.82354097 -0.06903,-1.23611397 -0.01284,-0.272908 0.08669,-0.483208 0.382071,-0.512104 0.308226,-0.0305 0.483208,0.150902 0.505683,0.441469 0.06261,0.83638397 0.112374,1.67276697 0.157324,2.51075597 0.01766,0.317858 -0.104347,0.571502 -0.460734,0.571502 -0.366018,0 -0.439863,-0.266487 -0.449495,-0.579529 -0.01284,-0.398125 -0.04977,-0.796249 -0.07706,-1.19598 0.0032,0.0016 0.0064,0.0016 0.01124,0"
       style="stroke-width:0.160534"
       id="path1-4" />
    <path
       d="m 12.999703,16.994077 c -0.05806,-0.24395 -0.11901,-0.486447 -0.170615,-0.731849 -0.0531,-0.255436 0.03188,-0.436583 0.290095,-0.530587 0.264669,-0.09546 0.45304,0.0074 0.557017,0.235466 0.130644,0.288296 0.218398,0.594581 0.325391,0.892983 0.11095,0.424007 0.227632,0.848725 0.335715,1.274177 0.112465,0.444813 0.02025,0.608038 -0.428864,0.72982 -0.412514,0.112353 -0.827947,0.21179 -1.243382,0.307638 -0.276947,0.0639 -0.379283,0.192667 -0.275855,0.487478 0.122927,0.351485 0.207914,0.716672 0.303619,1.078263 0.08193,0.305621 -0.0547,0.498385 -0.343839,0.570214 -0.286276,0.07039 -0.464009,-0.08638 -0.542224,-0.34535 -0.184667,-0.613354 -0.357143,-1.231046 -0.533915,-1.846575 -0.113711,-0.397459 0.121263,-0.576815 0.444809,-0.669551 0.396716,-0.115183 0.798512,-0.213152 1.203932,-0.293178 0.313577,-0.06256 0.454688,-0.18569 0.307367,-0.517712 -0.09427,-0.209556 -0.154737,-0.428929 -0.229233,-0.641246"
       style="stroke-width:0.160534"
       id="path1" />
    <path
       d="m 2.030762,6.9118138 c -0.0048,0.56187 -0.465549,1.025814 -1.014576,1.024209 C 0.47679103,7.9328228 -0.00160197,7.4479978 4.0320285e-6,6.9053928 0.00160403,6.3371008 0.44628903,5.8988428 1.022607,5.9004478 c 0.589161,0 1.014577,0.427021 1.008155,1.011366 M 23.40911,4.8714228 c -0.0064,-0.508893 0.346754,-0.881333 0.834778,-0.879727 0.457523,0.0016 0.844411,0.377255 0.857253,0.833173 0.01284,0.459128 -0.393309,0.878122 -0.852437,0.881333 -0.475181,0.0016 -0.833173,-0.353176 -0.839594,-0.834779"
       class="LOGO-TOPE_LA_svg__st0"
       id="path8"
       style="stroke-width:0.160534" />
    <path
       d="m 25.444249,22.269985 c -0.436402,-0.197688 -0.134454,0.09319 -0.543613,-0.141727 -1.175731,-0.675051 -2.965012,-2.011005 -3.927257,-2.993503 -2.03076,-2.0741 -4.07436,-4.13215 -6.111539,-6.19984 -0.13164,-0.13324 -0.26007,-0.2713 -0.36602,-0.42381 -0.26328,-0.38046 -0.25365,-0.72079 0.0112,-1.02902 0.28736,-0.33391 0.68709,-0.42221 1.085219,-0.2392 0.34836,0.16214 0.63411,0.43826 1.00655,0.5699 0.0851,-0.14769 -0.0273,-0.23759 -0.0787,-0.33231 -0.33872,-0.62287 -0.68387,-1.23932 -1.0242,-1.8605902 -0.0578,-0.10435 -0.107559,-0.21511 -0.149299,-0.32749 -0.21993,-0.602 -0.0979,-1.09484 0.332309,-1.3533 0.38207,-0.22796 0.85885,-0.0995 1.27303,0.36602 0.1493,0.16695 0.29378,0.33872 0.42381,0.52494 0.11559,0.16375 0.18622,0.38529 0.46234,0.48963 -0.0177,-0.37725 -0.15732,-0.69832 -0.24722,-1.0226 -0.10756,-0.38528 -0.26488,-0.75772 -0.40455,-1.13337 -0.0754,-0.20228 -0.11879,-0.40936 -0.122,-0.62609 -0.006,-0.5731 0.34514,-1.07879 0.85404,-1.22166 0.48642,-0.13806 0.94555,0.0899 1.22166,0.67103 0.35478,0.74809 0.66783,1.51705 0.99853,2.27638 0.0305,0.0706 0.0658,0.14127 0.16053,0.20227 -0.0241,-0.43665 -0.0498,-0.87491 -0.0738,-1.31156 -0.0369,-0.67746 0.26809,-1.10127 0.85404,-1.18956 0.57471,-0.0867 1.09163,0.26969 1.24895,0.87972 0.24883,0.96 0.32749,1.94729 0.45432,2.92815 0.0401,0.3082302 0.0787,0.6164502 0.13163,1.0226002 0.20067,-0.28575 0.27131,-0.50889 0.34515,-0.72882 0.0979,-0.2937802 0.22154,-0.5715002 0.4495,-0.7946502 0.31786,-0.30662 0.68548,-0.41096 1.10448,-0.27291 0.41899,0.13806 0.61163,0.46555 0.64053,0.88455 0.0514,0.7513002 -0.0915,1.4929702 -0.17338,2.2346402 -0.0755,0.68066 0.002,1.32922 0.23438,1.96975 0.13324,0.36441 0.37083,0.6004 0.72561,0.7513 0.474382,0.400009 -0.15511,0.966916 -0.53297,0.55703 -0.70956,-0.32428 -0.89578,-1.01779 -1.07397,-1.69846 -0.27291,-1.04347 0.006,-2.07249 0.0738,-3.10634 0.0129,-0.18622 0.0353,-0.37243 0.0353,-0.55865 0,-0.1364602 -0.0401,-0.2729102 -0.19104,-0.3226802 -0.16374,-0.053 -0.29377,0.0289 -0.38046,0.15572 -0.0899,0.13164 -0.16054,0.2777202 -0.21833,0.4254202 -0.28896,0.73364 -0.57311,1.46888 -0.85404,2.20574 -0.0835,0.21832 -0.19425,0.39652 -0.46073,0.34836 -0.26328,-0.0466 -0.3002,-0.25365 -0.32268,-0.48321 -0.17016,-1.7129 -0.34675,-3.4274102 -0.63892,-5.1242602 -0.0215,-0.118528 -0.0605,-0.233215 -0.11559,-0.34033 -0.0803,-0.15732 -0.2103,-0.2392 -0.39652,-0.19264 -0.17338,0.045 -0.23598,0.17177 -0.22635,0.33231 0.0225,0.37244 0.0562,0.74487 0.0819,1.11731 0.0562,0.81231 0.10916,1.62622 0.17017,2.4385202 0.0177,0.24401 0.003,0.47518 -0.2697,0.55224 -0.28736,0.0819 -0.40294,-0.13485 -0.49766,-0.35318 -0.602,-1.3998602 -1.204,-2.7981102 -1.80601,-4.1979702 -0.0321,-0.0738 -0.053,-0.15411 -0.0963,-0.21993 -0.10435,-0.16053 -0.16856,-0.40294 -0.43986,-0.30341 -0.25525,0.0947 -0.33552,0.31786 -0.26809,0.55705 0.11558,0.41097 0.26167,0.81231 0.40775,1.21364 0.43505,1.20722 0.87491,2.4112302 1.31317,3.6168402 0.0273,0.0755 0.0514,0.15251 0.0771,0.22796 0.0674,0.19906 0.0482,0.37565 -0.15251,0.48481 -0.19906,0.10756 -0.36602,0.0305 -0.49444,-0.13003 -0.34355,-0.42702 -0.68067,-0.85886 -1.0194,-1.2907 -0.48642,-0.61966 -0.96802,-1.2457402 -1.46246,-1.8605902 -0.10917,-0.13485 -0.24402,-0.38046 -0.43505,-0.25525 -0.17498,0.11559 -0.045,0.34515 0.0433,0.5089 0.63572,1.1751102 1.27464,2.3486102 1.91678,3.5221202 0.11238,0.20548 0.24722,0.41578 0.0369,0.61805 -0.20548,0.19746 -0.41899,0.0819 -0.61966,-0.0433 -0.62232,-0.391218 -1.24735,-0.778114 -1.87504,-1.16066 -0.125209,-0.0771 -0.280929,-0.28094 -0.410969,-0.12682 -0.15571,0.183 0.0947,0.3018 0.20067,0.40936 1.417519,1.45604 2.847879,2.90085 4.270209,4.35208 0.87973,0.89739 1.77551,1.77872 2.68574,2.64561"
       class="LOGO-TOPE_LA_svg__st0"
       id="path7"
       style="stroke-width:0.160534" />
    <path
       d="m 1.220693,22.360209 c 0.893426,0.103719 3.17377,-1.81082 4.47088,-3.13523 2.03076,-2.0741 4.07436,-4.13215 6.11154,-6.19983 0.13164,-0.13325 0.26007,-0.27131 0.36602,-0.42381 0.26328,-0.38047 0.25364,-0.7208 -0.0112,-1.02903 -0.28735,-0.33391 -0.68708,-0.4222 -1.08521,-0.23919 -0.34836,0.16213 -0.63411,0.43825 -1.00655,0.56989 -0.0851,-0.14769 0.0273,-0.23759 0.0787,-0.3323 0.33873,-0.62288 0.68388,-1.23933 1.02421,-1.8606002 0.0578,-0.10434 0.10756,-0.21511 0.1493,-0.32749 0.21993,-0.602 0.0979,-1.09484 -0.33231,-1.3533 -0.38207,-0.22796 -0.85886,-0.0995 -1.27303,0.36602 -0.1493,0.16695 -0.29378,0.33873 -0.42381,0.52495 -0.11559,0.16374 -0.18622,0.38528 -0.46234,0.48962 0.0177,-0.37725 0.15732,-0.69832 0.24722,-1.0226 0.10756,-0.38528 0.26488,-0.75772 0.40455,-1.13337 0.0755,-0.20227 0.11879,-0.40936 0.122,-0.62608 0.006,-0.57311 -0.34515,-1.07879 -0.85404,-1.22167 -0.48642,-0.13806 -0.94555,0.0899 -1.22167,0.67103 -0.35478,0.74809 -0.66782,1.51705 -0.99852,2.27638 -0.0305,0.0706 -0.0658,0.14127 -0.16053,0.20227 0.0241,-0.43665 0.0498,-0.87491 0.0738,-1.31156 0.0369,-0.67746 -0.26809,-1.10127 -0.85404,-1.18956 -0.57471,-0.0867 -1.09163,0.2697 -1.24896,0.87973 -0.24883,0.95999 -0.32749,1.94728 -0.45431,2.92814 -0.0401,0.3082302 -0.0787,0.6164502 -0.13164,1.0226002 -0.20067,-0.28575 -0.2713,-0.50889 -0.34515,-0.72882 -0.0979,-0.2937802 -0.22153,-0.5715002 -0.44949,-0.7946502 -0.31786,-0.30662 -0.68548,-0.41096 -1.10448,-0.2729 -0.41899,0.13806 -0.61163,0.46555 -0.64053,0.88454 -0.0514,0.7513002 0.0915,1.4929702 0.17338,2.2346402 0.0754,0.68066 -0.002,1.32922 -0.23438,1.96975 -0.13325,0.36442 -0.37083997,0.6004 -0.72561997,0.7513 0,0 -0.913125,1.12744 0.53298,0.55703 0.70955997,-0.32428 0.89577997,-1.01779 1.07396997,-1.69846 0.27291,-1.04347 -0.006,-2.07249 -0.0755,-3.10633 -0.0128,-0.18622 -0.0353,-0.37244 -0.0353,-0.55866 0,-0.1364602 0.0401,-0.2729102 0.19104,-0.3226802 0.16374,-0.053 0.29378,0.0289 0.38046,0.15572 0.0899,0.1316402 0.16054,0.2777302 0.21833,0.4254202 0.28896,0.73364 0.57311,1.46889 0.85404,2.20574 0.0835,0.21832 0.19425,0.39652 0.46074,0.34836 0.26327,-0.0466 0.3002,-0.25365 0.32267,-0.48321 0.17017,-1.7129 0.34675,-3.4274102 0.63893,-5.1242502 0.0209,-0.11719 0.061,-0.23438 0.11558,-0.34034 0.0803,-0.15732 0.2103,-0.23919 0.39652,-0.19264 0.17338,0.045 0.23599,0.17177 0.22635,0.33231 -0.0225,0.37244 -0.0562,0.74488 -0.0819,1.11732 -0.0562,0.8123 -0.10916,1.62621 -0.17016,2.4385102 -0.0177,0.24401 -0.003,0.47518 0.26969,0.55224 0.28736,0.0819 0.40294,-0.13485 0.49766,-0.35318 0.602,-1.3998502 1.20401,-2.7981102 1.80601,-4.1979702 0.0321,-0.0738 0.053,-0.15411 0.0963,-0.21993 0.10435,-0.16053 0.16856,-0.40294 0.43986,-0.30341 0.25525,0.0947 0.33552,0.31786 0.2681,0.55705 -0.11559,0.41097 -0.26167,0.81231 -0.40776,1.21364 -0.43505,1.20722 -0.87491,2.4112302 -1.31317,3.6168402 -0.0273,0.0754 -0.0514,0.15251 -0.0771,0.22796 -0.0674,0.19906 -0.0482,0.37565 0.15251,0.48481 0.19906,0.10756 0.36602,0.0305 0.49445,-0.13003 0.34354,-0.42702 0.68066,-0.85886 1.01939,-1.29069 0.48642,-0.61967 0.96802,-1.2457502 1.46247,-1.8606002 0.10916,-0.13485 0.24401,-0.38046 0.43504,-0.25525 0.17499,0.11559 0.045,0.34515 -0.0433,0.5089 -0.63572,1.1751102 -1.27464,2.3486102 -1.91678,3.5221202 -0.11237,0.20548 -0.24722,0.41578 -0.0369,0.61806 0.20548,0.19745 0.41899,0.0819 0.61966,-0.0434 0.62287,-0.3901 1.24575,-0.77859 1.87504,-1.16066 0.12522,-0.0771 0.28093,-0.28094 0.41097,-0.12682 0.15572,0.18301 -0.0947,0.3018 -0.20067,0.40936 -1.41752,1.45604 -2.84788,2.90085 -4.27021,4.35208 -0.880041,0.897174 -1.77542,1.779174 -2.68574,2.64561"
       class="LOGO-TOPE_LA_svg__st0"
       id="path9"
       style="stroke-width:0.160534" />
  </g>
</svg>
