<?xml version="1.0" encoding="UTF-8"?>
<svg xmlns="http://www.w3.org/2000/svg" version="1.1" viewBox="0 0 200 200">
  <!-- Generator: Adobe Illustrator 28.7.1, SVG Export Plug-In . SVG Version: 1.2.0 Build 142)  -->
  <g>
    <g id="Calque_3">
      <g id="Pas_connecté">
        <g id="Pas_connecté-2" data-name="Pas_connecté">
          <path class="cls-1" d="M65.96,88.07c19.13,0,34.74-15.61,34.74-34.74s-15.61-34.79-34.74-34.79-34.79,15.61-34.79,34.79,15.61,34.74,34.79,34.74Z"/>
          <path class="cls-1" d="M65.96,92.12c-33.37,0-60.44,27.12-60.44,60.44v10.51c0,10.14,8.25,18.39,18.4,18.39h84.09c10.09,0,18.4-8.25,18.4-18.39v-10.51c0-33.32-27.12-60.44-60.44-60.44Z"/>
          <g>
            <path class="cls-1" d="M171.55,132.76c0,4.49-3.64,8.13-8.13,8.13s-8.13-3.64-8.13-8.13,3.64-8.13,8.13-8.13,8.13,3.64,8.13,8.13"/>
            <path class="cls-1" d="M191.87,71.79c0-7.55-3-14.78-8.33-20.12-5.34-5.34-12.57-8.33-20.12-8.33s-14.78,3-20.12,8.33c-5.34,5.34-8.33,12.57-8.33,20.12,0,2.9,1.55,5.59,4.06,7.04,2.52,1.45,5.61,1.45,8.13,0,2.52-1.45,4.06-4.14,4.06-7.04,0-3.23,1.28-6.34,3.57-8.62s5.39-3.57,8.62-3.57,6.34,1.28,8.62,3.57c2.29,2.29,3.57,5.39,3.57,8.62s-1.28,6.34-3.57,8.62c-2.29,2.29-5.39,3.57-8.62,3.57-2.16,0-4.22.86-5.75,2.38-1.52,1.52-2.38,3.59-2.38,5.75v18.29c0,2.9,1.55,5.59,4.06,7.04,2.52,1.45,5.61,1.45,8.13,0s4.06-4.14,4.06-7.04v-11.36c5.87-1.76,11.01-5.35,14.67-10.26,3.66-4.91,5.64-10.87,5.65-16.99h0Z"/>
          </g>
        </g>
      </g>
    </g>
  </g>
</svg>