<?xml version="1.0" encoding="UTF-8" standalone="no"?>
<!-- Created with Inkscape (http://www.inkscape.org/) -->

<svg
   width="26.116039mm"
   height="19.592028mm"
   viewBox="0 0 26.116039 19.592028"
   version="1.1"
   id="svg1"
   inkscape:version="1.3.2 (091e20e, 2023-11-25)"
   sodipodi:docname="prize-won.svg"
   xmlns:inkscape="http://www.inkscape.org/namespaces/inkscape"
   xmlns:sodipodi="http://sodipodi.sourceforge.net/DTD/sodipodi-0.dtd"
   xmlns="http://www.w3.org/2000/svg"
   xmlns:svg="http://www.w3.org/2000/svg">
  <sodipodi:namedview
     id="namedview1"
     pagecolor="#ffffff"
     bordercolor="#666666"
     borderopacity="1.0"
     inkscape:showpageshadow="2"
     inkscape:pageopacity="0.0"
     inkscape:pagecheckerboard="0"
     inkscape:deskcolor="#d1d1d1"
     inkscape:document-units="mm"
     inkscape:zoom="0.2102413"
     inkscape:cx="-152.20606"
     inkscape:cy="392.40625"
     inkscape:window-width="736"
     inkscape:window-height="480"
     inkscape:window-x="0"
     inkscape:window-y="25"
     inkscape:window-maximized="0"
     inkscape:current-layer="layer1" />
  <defs
     id="defs1" />
  <g
     inkscape:label="Layer 1"
     inkscape:groupmode="layer"
     id="layer1"
     transform="translate(-144.19792,-44.449998)">
    <g
       id="g11353"
       transform="matrix(0.26464771,0,0,0.26464771,298.4629,224.73514)">
      <path
         style="fill:#ff4401;stroke-width:1.0182;stroke-linecap:round;stroke-linejoin:round;paint-order:markers stroke fill"
         d="m -580.01396,-637.95038 c 1.55122,27.37655 48.21498,35.86439 73.55157,22.63546 25.3366,-13.22895 33.87415,-47.48811 -0.52797,-61.69407 -27.65399,-11.4194 -75.24006,-0.0581 -73.0236,39.05861 z"
         id="path3890"
         sodipodi:nodetypes="szss" />
      <g
         id="path5879-1">
        <path
           style="color:#000000;fill:#ffffff;stroke-width:2;stroke-linecap:round;stroke-linejoin:round;-inkscape-stroke:none"
           d="m -552.32385,-657.11446 31.70608,-3.29804 c 0,0 4.92992,21.66624 -13.18254,23.7514 -18.11247,2.08514 -18.52354,-20.45336 -18.52354,-20.45336 z"
           id="path3887" />
        <path
           style="color:#000000;fill:#ffffff;stroke-linecap:round;stroke-linejoin:round;-inkscape-stroke:none"
           d="m -520.7207,-661.40625 -31.70703,3.29688 a 1.0001,1.0001 0 0 0 -0.89649,1.01367 c 0,0 0.0882,5.7924 2.55469,11.39258 1.23322,2.80008 3.07574,5.5852 5.85742,7.54296 2.78168,1.95776 6.49469,3.03693 11.22656,2.49219 4.7287,-0.54438 8.0836,-2.41142 10.33008,-4.91601 2.24648,-2.5046 3.38356,-5.59408 3.92188,-8.55664 1.07662,-5.92513 -0.20899,-11.49415 -0.20899,-11.49415 a 1.0001,1.0001 0 0 0 -1.07812,-0.77148 z m -0.75,2.08789 c 0.21936,1.12816 0.92676,5.10693 0.0703,9.82031 -0.49326,2.71464 -1.52007,5.43386 -3.44336,7.57813 -1.92329,2.14427 -4.74279,3.76743 -9.07031,4.26562 -4.32435,0.49783 -7.45618,-0.45886 -9.84571,-2.14062 -2.38952,-1.68176 -4.04608,-4.14096 -5.17968,-6.71485 -1.96204,-4.45488 -2.23369,-8.52816 -2.29297,-9.71289 z"
           id="path3884" />
      </g>
      <g
         id="path5990-5">
        <path
           style="color:#000000;fill:#ffffff;stroke-width:2;stroke-linecap:round;stroke-linejoin:round;-inkscape-stroke:none"
           d="m -541.97119,-624.94121 -0.16188,8.78965 -4.44556,1.21038 0.34141,6.74567 35.01293,-4.6644 -0.97461,-6.49407 -6.38658,0.73289 -2.05538,-8.53885 z"
           id="path3881" />
        <path
           style="color:#000000;fill:#ffffff;stroke-linecap:round;stroke-linejoin:round;-inkscape-stroke:none"
           d="m -520.74414,-628.1543 -21.33008,2.21875 a 1.0001,1.0001 0 0 0 -0.89648,0.97657 l -0.14844,8.03906 -3.72266,1.01367 a 1.0001,1.0001 0 0 0 -0.73632,1.01563 l 0.34179,6.74609 a 1.0001,1.0001 0 0 0 1.13086,0.93945 l 35.01367,-4.66406 a 1.0001,1.0001 0 0 0 0.85547,-1.13867 l -0.97461,-6.49414 a 1.0001,1.0001 0 0 0 -1.10156,-0.84571 l -5.50781,0.63282 -1.84766,-7.67969 a 1.0001,1.0001 0 0 0 -1.07617,-0.75977 z m -0.66406,2.08008 1.84961,7.6875 a 1.0001,1.0001 0 0 0 1.08789,0.75977 l 5.42578,-0.62305 0.68164,4.5332 -32.92969,4.38672 -0.24609,-4.85742 3.66797,-1 a 1.0001,1.0001 0 0 0 0.73828,-0.94531 l 0.14648,-7.90625 z"
           id="path3878" />
      </g>
      <path
         style="color:#000000;fill:#ffffff;stroke-linecap:round;stroke-linejoin:round;-inkscape-stroke:none"
         d="m -513.50195,-660.29883 -6.91211,0.97071 a 1,1 0 0 0 -0.84961,1.1289 1,1 0 0 0 1.1289,0.85156 l 5.90625,-0.83007 c 0.14195,0.9759 0.34346,2.79192 -0.0996,4.97851 -0.29496,1.45566 -0.8773,2.84881 -1.90625,3.87305 -1.02896,1.02424 -2.5162,1.74736 -4.91016,1.79883 a 1,1 0 0 0 -0.97852,1.02148 1,1 0 0 0 1.02149,0.97852 c 2.79857,-0.0602 4.87774,-0.98963 6.27734,-2.38282 1.3996,-1.39319 2.10823,-3.18081 2.45508,-4.89257 0.6937,-3.42353 -0.0156,-6.70899 -0.0156,-6.70899 a 1.0001,1.0001 0 0 0 -1.11718,-0.78711 z"
         id="path3875" />
      <path
         style="color:#000000;fill:#ffffff;stroke-linecap:round;stroke-linejoin:round;-inkscape-stroke:none"
         d="m -552.9707,-655.61133 -6.96289,0.47266 a 1.0001,1.0001 0 0 0 -0.9336,0.99805 c 0,0 -0.0163,3.36284 1.36719,6.57031 0.69172,1.60373 1.75183,3.20789 3.4082,4.2832 1.65638,1.07531 3.88373,1.55617 6.63477,1.03906 a 1,1 0 0 0 0.79687,-1.16601 1,1 0 0 0 -1.16601,-0.79883 c -2.3533,0.44234 -3.95806,0.0386 -5.17578,-0.75195 -1.21773,-0.79054 -2.07388,-2.0327 -2.66211,-3.39649 -0.88296,-2.0471 -1.0609,-3.86428 -1.12305,-4.84961 l 5.95117,-0.40429 a 1,1 0 0 0 0.92969,-1.06641 1,1 0 0 0 -1.06445,-0.92969 z"
         id="path3872" />
      <path
         style="color:#000000;fill:#000000;stroke-linecap:round;stroke-linejoin:round;-inkscape-stroke:none"
         d="m -559.96289,-669.74219 a 1,1 0 0 0 -0.64453,0.41211 1,1 0 0 0 0.24805,1.39258 l 6.61328,4.60938 a 1,1 0 0 0 1.39257,-0.24805 1,1 0 0 0 -0.24804,-1.39258 l -6.61524,-4.60937 a 1,1 0 0 0 -0.74609,-0.16407 z"
         id="path3869" />
      <path
         style="color:#000000;fill:#000000;stroke-linecap:round;stroke-linejoin:round;-inkscape-stroke:none"
         d="m -556.90039,-627.49805 a 1,1 0 0 0 -0.63477,0.42578 l -5.9414,8.89844 a 1,1 0 0 0 0.27734,1.38672 1,1 0 0 0 1.38672,-0.27734 l 5.93945,-8.89844 a 1,1 0 0 0 -0.27539,-1.38672 1,1 0 0 0 -0.75195,-0.14844 z"
         id="path3866" />
      <path
         style="color:#000000;fill:#000000;stroke-linecap:round;stroke-linejoin:round;-inkscape-stroke:none"
         d="m -512.41992,-635.3418 a 1,1 0 0 0 -0.63477,0.42774 1,1 0 0 0 0.28321,1.38476 l 8.32421,5.5 a 1,1 0 0 0 1.38477,-0.2832 1,1 0 0 0 -0.2832,-1.38477 l -8.32227,-5.5 a 1,1 0 0 0 -0.75195,-0.14453 z"
         id="path3863" />
      <path
         style="color:#000000;fill:#000000;stroke-linecap:round;stroke-linejoin:round;-inkscape-stroke:none"
         d="m -499.69141,-677.40039 a 1,1 0 0 0 -0.70703,0.29492 l -5.29101,5.31445 a 1,1 0 0 0 0.004,1.41602 1,1 0 0 0 1.41407,-0.004 l 5.29101,-5.3164 a 1,1 0 0 0 -0.004,-1.41406 1,1 0 0 0 -0.70704,-0.29102 z"
         id="path3860" />
      <path
         style="color:#000000;fill:#000000;stroke-linecap:round;stroke-linejoin:round;-inkscape-stroke:none"
         d="m -503.23633,-648.30469 c -1.08243,0.11838 -2.00663,0.85583 -3.20703,2.24024 a 1,1 0 0 0 0.0996,1.41211 1,1 0 0 0 1.41016,-0.10157 c 1.0627,-1.22561 1.77961,-1.54779 1.91406,-1.5625 0.0672,-0.007 0.0161,-0.0175 0.0547,0.0117 0.0386,0.0292 0.13954,0.14223 0.24023,0.33594 0.20138,0.38742 0.37662,1.03616 0.55078,1.61719 0.0871,0.29051 0.16137,0.55819 0.33985,0.86719 0.0892,0.15449 0.20423,0.34101 0.4707,0.50976 0.26647,0.16876 0.73521,0.22438 1.04687,0.10938 1.23634,-0.45622 2.06821,-1.4105 2.86329,-2.11329 0.79507,-0.70278 1.41499,-1.08866 1.98046,-1.03515 0.68723,0.065 0.83348,0.21475 0.94532,0.34765 0.11183,0.13291 0.18551,0.37736 0.37304,0.81055 0.0938,0.2166 0.22917,0.49457 0.50391,0.74805 0.27474,0.25348 0.68479,0.42285 1.07812,0.45508 0.78667,0.0644 1.55175,-0.19832 2.76758,-0.74805 a 1,1 0 0 0 0.5,-1.32422 1,1 0 0 0 -1.32422,-0.49805 c -1.05003,0.47477 -1.58244,0.54991 -1.69921,0.55274 -0.0915,-0.21827 -0.21987,-0.75031 -0.66993,-1.28516 -0.45683,-0.54291 -1.24245,-0.95017 -2.28515,-1.04883 -1.48635,-0.14064 -2.61069,0.74472 -3.4961,1.52735 -0.63085,0.55762 -1.10584,0.89776 -1.58984,1.23633 -0.13612,-0.48314 -0.27172,-1.05534 -0.58203,-1.65235 -0.1847,-0.35534 -0.42335,-0.71595 -0.80664,-1.00586 -0.3833,-0.28991 -0.9373,-0.46544 -1.47852,-0.40625 z"
         id="path3857" />
      <path
         style="color:#000000;fill:#000000;stroke-linecap:round;stroke-linejoin:round;-inkscape-stroke:none"
         d="m -565.50781,-637.40039 c -0.32275,0.0977 -0.5905,0.36046 -0.71485,0.58398 -0.24868,0.44704 -0.21054,0.74408 -0.20507,1.04493 0.0109,0.60169 0.11671,1.24254 0.14257,1.82421 0.0149,0.33572 -0.0407,0.44397 -0.0781,0.6504 -0.13328,-0.0915 -0.19779,-0.12015 -0.36524,-0.25 -0.35395,-0.27449 -0.75065,-0.60005 -1.24218,-0.84961 -0.49154,-0.24957 -1.25307,-0.44892 -1.93555,-0.0547 a 1,1 0 0 0 -0.36523,1.36523 1,1 0 0 0 1.36523,0.36719 c -0.0995,0.0575 -0.18521,-0.004 0.0312,0.10547 0.21646,0.1099 0.5609,0.36655 0.92188,0.64648 0.36097,0.27993 0.72169,0.58735 1.23632,0.79883 0.25732,0.10574 0.5852,0.19763 0.97852,0.125 0.39331,-0.0726 0.77282,-0.35379 0.98047,-0.66406 0.51777,-0.77364 0.50317,-1.6 0.4707,-2.33008 -0.009,-0.21034 -0.0242,-0.3128 -0.041,-0.50976 0.26776,0.23535 0.21444,0.14702 0.59179,0.55273 a 1,1 0 0 0 1.41406,0.0527 1,1 0 0 0 0.0508,-1.41406 c -1.06911,-1.14944 -1.55951,-1.73171 -2.41211,-2.01953 -0.21316,-0.072 -0.50148,-0.12311 -0.82422,-0.0254 z"
         id="path3854" />
      <path
         style="color:#000000;fill:#000000;stroke-linecap:round;stroke-linejoin:round;-inkscape-stroke:none"
         d="m -536.57422,-679.58203 c -2.85396,0.15242 -6.01266,1.6144 -7.08008,4.66797 a 1,1 0 0 0 0.61328,1.27344 1,1 0 0 0 1.27344,-0.61329 c 0.71587,-2.04788 3.05527,-3.21289 5.30274,-3.33203 a 1.0001,1.0001 0 0 0 0.0156,0 c 2.97018,-0.20691 6.18217,1.25329 7.54297,3.87305 a 1.0001,1.0001 0 0 0 0.0137,0.0254 c 0.88117,1.57778 0.52985,3.73352 -0.5957,5.21875 a 1.0001,1.0001 0 0 0 -0.0117,0.0156 c -1.28597,1.76749 -3.69672,2.86202 -5.75195,2.26367 -1.83046,-0.67489 -2.82869,-3.12445 -2.26172,-5 0.57994,-1.48256 3.20965,-1.87278 4.17383,-0.59961 a 1,1 0 0 0 1.40039,0.19336 1,1 0 0 0 0.19336,-1.40039 c -2.00337,-2.64538 -6.48713,-1.98337 -7.6543,1.11718 a 1.0001,1.0001 0 0 0 -0.0176,0.0527 c -0.91881,2.92552 0.48281,6.45051 3.51563,7.53515 a 1.0001,1.0001 0 0 0 0.0508,0.0156 c 3.04297,0.90898 6.21563,-0.59879 7.96289,-2.99414 1.54823,-2.04854 2.08181,-4.97718 0.74609,-7.38086 -1.80058,-3.44635 -5.73763,-5.18406 -9.43164,-4.93164 z"
         id="path3851" />
      <path
         style="color:#000000;fill:#000000;stroke-linecap:round;stroke-linejoin:round;-inkscape-stroke:none"
         d="m -579.26758,-653.6543 c -0.20255,0.0163 -0.35379,0.0554 -0.51367,0.10157 -0.31977,0.0923 -0.65308,0.22318 -0.99023,0.36132 -0.33716,0.13814 -0.6722,0.28426 -0.93946,0.39844 -0.26726,0.11418 -0.55503,0.20866 -0.43945,0.17969 a 1,1 0 0 0 -0.72656,1.21289 1,1 0 0 0 1.21289,0.72852 c 0.31531,-0.079 0.46159,-0.16416 0.74023,-0.28321 0.27864,-0.11904 0.60164,-0.26031 0.91016,-0.38672 0.16847,-0.069 0.28465,-0.10528 0.42969,-0.1582 0.12047,0.2686 0.25527,0.5738 0.41796,0.89258 0.18808,0.36851 0.37846,0.72367 0.66993,1.05469 0.14573,0.16551 0.31447,0.34784 0.65039,0.47656 0.33591,0.12871 0.92081,0.0552 1.23047,-0.20508 0.76787,-0.64547 1.2992,-1.19041 1.95312,-1.47852 0.10317,0.0533 0.2954,0.20394 0.57031,0.38477 a 1,1 0 0 0 1.38477,-0.28711 1,1 0 0 0 -0.28516,-1.38476 c -0.13853,-0.0911 -0.39167,-0.30878 -0.77343,-0.50196 -0.38177,-0.19318 -1.01734,-0.34367 -1.61133,-0.0977 -0.86588,0.35863 -1.3467,0.88302 -1.86914,1.35742 -0.054,-0.0919 -0.0836,-0.12066 -0.13868,-0.22852 -0.1552,-0.30411 -0.30876,-0.64781 -0.43945,-0.93945 -0.0653,-0.14582 -0.12491,-0.27812 -0.18164,-0.39649 -0.0567,-0.11836 -0.0476,-0.17065 -0.24219,-0.40625 -0.42168,-0.51052 -0.81698,-0.41082 -1.01953,-0.39453 z"
         id="path3848" />
      <circle
         style="fill:#ffffff;stroke-width:2;stroke-linecap:round;stroke-linejoin:round"
         id="circle3845"
         cx="-494.9548"
         cy="-712.86737"
         r="1.0471766"
         transform="rotate(-5.9384983)" />
      <circle
         style="fill:#ffffff;stroke-width:2;stroke-linecap:round;stroke-linejoin:round"
         id="circle3842"
         cx="-424.1239"
         cy="-678.86322"
         r="1.0471766"
         transform="rotate(-5.9384983)" />
      <ellipse
         style="fill:#ffffff;stroke-width:2;stroke-linecap:round;stroke-linejoin:round"
         id="ellipse3839"
         cx="-429.44598"
         cy="-711.51141"
         rx="2.1453433"
         ry="2.0813622"
         transform="rotate(-5.9384983)" />
      <circle
         style="fill:#ffffff;stroke-width:2;stroke-linecap:round;stroke-linejoin:round"
         id="circle3836"
         cx="-444.19437"
         cy="-690.10907"
         r="1.1466601"
         transform="rotate(-5.9384983)" />
      <circle
         style="fill:#ffffff;stroke-width:2;stroke-linecap:round;stroke-linejoin:round"
         id="circle3833"
         cx="-483.94907"
         cy="-686.76923"
         r="1.2066199"
         transform="rotate(-5.9384983)" />
      <circle
         style="fill:#ffffff;stroke-width:2;stroke-linecap:round;stroke-linejoin:round"
         id="circle3830"
         cx="-477.53839"
         cy="-721.97394"
         r="1.5363177"
         transform="rotate(-5.9384983)" />
      <circle
         style="fill:#ffffff;stroke-width:2;stroke-linecap:round;stroke-linejoin:round"
         id="circle3827"
         cx="-501.87222"
         cy="-696.6568"
         r="2.3880868"
         transform="rotate(-5.9384982)" />
      <rect
         style="fill:#ffffff;stroke-width:2;stroke-linecap:round;stroke-linejoin:round"
         id="rect3824"
         width="6.1676641"
         height="13.527061"
         x="-476.97427"
         y="-682.98291"
         transform="rotate(-5.1646241)" />
    </g>
  </g>
</svg>
