<?xml version="1.0" encoding="utf-8"?>
<!-- Generator: Adobe Illustrator 27.9.5, SVG Export Plug-In . SVG Version: 9.03 Build 54986)  -->
<svg version="1.1" id="Calque_1" xmlns="http://www.w3.org/2000/svg" xmlns:xlink="http://www.w3.org/1999/xlink" x="0px" y="0px"
	 viewBox="0 0 563.04 611.43" style="enable-background:new 0 0 563.04 611.43;" xml:space="preserve">
<style type="text/css">
	.st0{fill:#FFF0E3;}
	.st1{font-family:'MoreSugarRegular';}
	.st2{font-size:26.9612px;}
</style>
<path class="st0" d="M538.19,16.11H25.09c-1.33,1.08-3.09,1.66-4.92,1.56c-0.17-0.01-0.27-0.02-0.35-0.03
	c-0.03,0-0.04,0.01-0.07,0.01c-0.41,0.04-0.82,0.06-1.22,0.11c-0.99,0.12-1.98,0.29-2.95,0.52c-0.08,0.02-1.35,0.43-2.21,0.81
	c-0.01,0-0.03,0.01-0.05,0.02c0.03,10.55,0.96,21.02,1.31,31.54h536.67v-31C546.83,19.08,542.49,17.63,538.19,16.11z"/>
<path d="M554.71,16.3l-1.78-0.19c-0.14-0.01-14.05-1.49-29.7-1.49l-0.1,0c-20.81,1.06-30.31,0.84-51.12,0.35
	c-27.01-0.63-72.21-1.68-184.67-0.85c-74.05,0.55-127.95,0.28-167.3,0.08c-67.17-0.34-92.3-0.46-105.56,3.95l-1.37,0.46
	l-0.99,573.97l543.58-0.5L554.71,16.3z M120.01,18.21c39.37,0.2,93.28,0.47,167.35-0.08c112.39-0.84,157.56,0.22,184.54,0.85
	c20.9,0.49,30.44,0.71,51.37-0.36c12.16,0,23.24,0.9,27.44,1.29l0.05,29.11H17.06l0.05-27.48C30.27,17.76,57.44,17.9,120.01,18.21z
	 M16.13,588.59l0.92-535.57h533.72l0.92,535.08L16.13,588.59z"/>
<path d="M27.61,32.11c0.13-5.14,3.95-8.51,9.45-8.34c5.66,0.17,9.9,4.58,9.76,10.14c-0.14,5.36-4.19,9.39-9.35,9.31
	C31.49,43.11,27.45,38.56,27.61,32.11z"/>
<path d="M66.27,43.31c-5.86-0.05-10.34-4.35-10.36-9.92c-0.02-5.79,5.26-11.11,10.98-11.07c5.02,0.04,8.89,4.16,8.88,9.46
	C75.76,38.41,71.68,43.36,66.27,43.31z M72.44,32.04c0-3.56-2.29-6.17-5.45-6.21c-3.97-0.05-7.68,3.78-7.73,7.96
	c-0.05,3.77,2.89,6.48,7.01,6.47C69.88,40.25,72.45,36.83,72.44,32.04z"/>
<path d="M94.84,22.65c5.66,0.11,9.32,4.22,9.27,10.4c-0.06,6.19-4.06,10.36-9.78,10.18c-5.59-0.18-9.99-4.76-9.96-10.37
	C84.39,26.86,88.82,22.54,94.84,22.65z M101.18,33.36c0.02-4.67-2.57-7.59-6.68-7.56c-4.08,0.03-7.04,3-7.06,7.1
	c-0.02,4.16,3.05,7.39,7.07,7.43C98.6,40.37,101.16,37.69,101.18,33.36z"/>
<text transform="matrix(1 0 0 1 113.6098 44.4408)" class="st1 st2">Nom</text>
</svg>
