<?xml version="1.0" encoding="UTF-8" standalone="no"?>
<!-- Generator: Adobe Illustrator 26.3.1, SVG Export Plug-In . SVG Version: 6.00 Build 0)  -->

<svg
   version="1.1"
   id="Calque_1"
   x="0px"
   y="0px"
   viewBox="0 0 1300 1300"
   xml:space="preserve"
   xmlns="http://www.w3.org/2000/svg"
   xmlns:svg="http://www.w3.org/2000/svg"><defs
   id="defs5" />
<g
   id="g5">
	<path
   d="m 638.5,33.8 c -8.9,-2.2 -18.2,-2.3 -27,1.3 -8.3,3.4 -10.8,8.3 -9,17 0.6,2.8 1.8,4 5,3.9 35.7,-1.2 71.1,1.7 106.4,7.4 6.5,1 12.9,2.1 19.4,3.2 -5.4,-5.5 -11.8,-8.8 -18.6,-11.5 -24.6,-9.6 -50.6,-14.8 -76.2,-21.3 z"
   id="path1" />
	<path
   d="m 303.2,1065.1 c -28.1,-20.6 -54.4,-43.4 -79.8,-67.2 -26.7,-24.9 -49.5,-52.5 -65.7,-85.4 -6.4,-13.2 -10.3,-27.7 -20.5,-38.9 -2.2,-2.4 -3.2,-6 -5.2,-9.9 -1.2,3.2 0,4.8 0.7,6.4 2.8,6.8 5.6,13.5 8.7,20.2 33.7,72.5 80.7,134.8 141.3,187 2.4,2.1 5,3.2 8.1,3.5 7.8,0.9 15.5,1.9 22.8,5.2 0.8,0.3 1.6,1.3 2.6,0 -2.1,-3.8 -4.2,-7.5 -5.6,-11.6 -1.5,-3.9 -4.1,-6.9 -7.4,-9.3 z"
   id="path2" />
	<path
   d="m 925.4,1410.2 c -6.3,2.8 -12.6,5.5 -18.9,8.3 7.5,0.1 13.9,-2.5 18.9,-8.3 z"
   id="path3" />
	<path
   d="M -11.7,-3 0,1300 H 1300 V 0 Z m 1282.4,696.4 c -2,17.7 -2.2,35.6 -4.3,53.3 -4.4,37.4 -12.8,73.5 -34.8,105 -9.8,14 -20.6,27 -32.8,39 -2.2,2.2 -3.1,3.9 -1.8,7.2 4.8,12.3 3.6,24.8 -0.1,37.2 -8.9,29.8 -23.8,56.7 -40.1,82.9 -62.4,100.4 -148.3,173.7 -257,219.8 -28.9,12.3 -58.4,23.3 -89.3,30.2 -10.7,2.4 -17,-3.4 -14.8,-14.4 0.7,-3.6 3.2,-5.2 6.5,-6 9.4,-2.3 18.7,-4.7 27.9,-7.8 5.1,-1.8 9.7,-4.2 14.3,-7.1 2.7,-1.7 2.6,-3.3 0.9,-5.6 -4.8,-6.4 -11.3,-8.3 -18.9,-7.9 -9.1,0.5 -17.6,3.5 -26.3,5.6 -8.8,2.1 -17.4,3.2 -26.5,3.1 -29.9,-0.6 -59.6,1.7 -87.7,13.6 -10.9,4.6 -21.2,10.3 -31.3,17.6 5.2,2.7 10.5,3 15.6,3.6 11.6,1.5 23.3,1.2 35,1.1 5.5,-0.1 6.5,1.2 5.7,6.5 -1.6,9.7 -6.4,13.6 -16.1,14.3 -22.7,1.7 -45.3,2.1 -67.9,-0.1 -81.5,-7.7 -159.3,-28.1 -232.6,-65.4 -46.4,-23.7 -86.9,-54.3 -120.1,-94.4 -14.8,-17.9 -32.8,-32.1 -49.8,-47.5 C 165.2,1024 116.6,962.4 81.3,890.9 54.6,836.7 37.6,779.5 30.7,719.3 25.5,674.6 25,629.9 29,585.1 c 3,-34 9.5,-67.5 16.4,-101 7.9,-38.5 18.3,-76 34.6,-111.8 16.2,-35.6 40.3,-65.7 66.7,-94.2 22,-23.7 44.6,-46.8 68.1,-69 11,-10.5 21.1,-21.9 29.3,-34.7 12.2,-19.1 27.6,-34.6 46,-47.9 23.5,-17 47,-33.9 73,-46.9 41.4,-20.8 83.3,-40.1 128.9,-50.4 19.9,-4.5 40.2,-5.9 60.2,-8.8 26.4,-3.9 52.9,-6 79.7,-5 34.8,1.3 66.5,12.3 96.5,29.2 4.8,2.7 9.5,5.5 14.2,8.4 1.9,1.2 3.3,1.6 5.4,0.2 12.7,-8.3 26.8,-9.4 41.3,-8 35.6,3.6 69.4,14.1 102.7,26.6 106.3,40 193.8,105.3 261.2,196.8 18.4,25 35.9,50.9 49.5,79 4.8,9.9 2.6,15 -8.1,17.4 -4.5,1 -7.7,-0.3 -9.9,-4.5 -4.4,-8.2 -8.9,-16.4 -13.5,-24.5 -2.5,-4.4 -5.7,-8.2 -9.3,-11.7 -4.4,-4.3 -5.4,-4.2 -9,1 -4.8,7 -3.6,14.2 -0.7,21.5 5.5,13.8 14,25.7 24.4,36.2 12.7,12.8 25.2,25.7 33.3,42.1 3.6,7.3 6.9,14.7 10.7,22.9 3,-6 7.8,-4.4 11.8,-4 5.7,0.6 10.1,3.6 11.8,9.3 4.1,13.5 8.3,27 11.3,40.9 5.8,27 8.2,54.4 9.6,81.8 0.9,17 4.6,33.6 5.9,50.6 1.4,22.2 2.2,44.4 -0.3,66.8 z"
   id="path4" />
	<path
   d="m 1443.2,976.8 c -4.1,12.1 -8.5,24.2 -12.9,36.2 6.6,-11.3 12.7,-22.7 12.9,-36.2 z"
   id="path5" />
</g>
</svg>
