<?xml version="1.0" encoding="utf-8"?>
<!-- Generator: Adobe Illustrator 26.3.1, SVG Export Plug-In . SVG Version: 6.00 Build 0)  -->
<svg version="1.1" id="Calque_1" xmlns="http://www.w3.org/2000/svg" xmlns:xlink="http://www.w3.org/1999/xlink" x="0px" y="0px"
	 viewBox="0 0 925.09 486.18" style="enable-background:new 0 0 925.09 486.18;" xml:space="preserve">
<style type="text/css">
	.st0{fill:#FCF5EF;}
</style>
<g>
	<g>
		<path d="M96.64,211.94c-0.07-0.46-0.13-0.81-0.2-1.27c-0.37-2.31-0.51-4.66-0.91-7.21c-0.59-3.7-1.43-7.48-2.04-11.29
			c-1.57-9.83-2.21-19.8-3.8-29.75l-0.55-3.47c-0.26-1.62-0.83-4.49-0.42-6.34c0.16-0.5,3.73-1.9,4.38-2.24
			c0.12-0.02,1.31-0.68,1.43-0.7l1.96-0.31c3.58-0.57,8.88-0.11,10.25,4.06l0.5,3.12c0.77,4.86,1.57,9.83,2.13,14.84
			c0.22,2.1,0.09,4.25,0.42,6.34l0.02,0.12c0.02,0.12,0.19,0.44,0.19,0.44l0.7,4.39c0,0-0.33,0.17-0.43,0.31l0.04,0.23
			c0.13,0.1,0.42,1.12,0.55,1.22c0.05,0.35,0.48,2.29,0.54,2.64c-0.57,0.92,0.99,6.96-0.08,9.14c-0.38-0.18-0.57-0.62-0.61-0.85
			c-0.12,0.02-0.19,0.27-0.19,0.27c0.02,0.12,0.07,1.17,0.03,1.66l0.02,0.12c0.23,0.68,0.56,2.04,0.56,2.04l0.25,0.08
			c-0.33,0.17-0.18,1.1-0.28,1.23l0.02,0.12c0.13,0.81,0.99,1.74,1.12,2.55c0.06,0.35-0.44,0.19-0.39,0.54l0.04,0.23
			c0.13,0.81,0.66,2.62,0.66,2.62l0.5,0.16l-0.18,0.38l0.22,1.39c0.12-0.02,0.27,0.19,0.27,0.19c0.04,0.23,0.03,0.94,0.07,1.17
			c1.39-0.22,2.72-0.79,3.97-1.11c3.2-0.75,5.28-1.08,8.06-1.52c1.27-0.2,2.83-0.1,4.08-0.41c5.3,1.29,7.79,5.75,8.62,10.95
			c0.06,0.35,0.47,2.18,0.21,2.81c-0.76,1.9-3.69,4.38-5.54,4.68l-0.58,0.09c-0.23,0.04-2.91,0.35-3.26,0.4
			c-3.58,0.57-5.81,2.94-9.51,3.53c-2.43,0.39-15.42-0.03-16.99-0.97c-0.12,0.02-0.54-0.39-0.67-0.49
			c-0.19-0.44-1.95-2.54-2.15-3.09C98.1,221.07,97.32,216.22,96.64,211.94z M94.49,157.63c0.23-0.04,0.16-0.5-0.07-0.46
			C94.19,157.2,94.26,157.66,94.49,157.63z M99.54,223.45c0.1-0.13,0.04-0.48-0.07-0.46C99.33,222.89,99.43,223.47,99.54,223.45z
			 M100.57,208.35c0.12-0.02,0.02-0.6-0.09-0.58C100.25,207.81,100.34,208.39,100.57,208.35z M101.41,195.05
			c0.08-0.25-0.11-1.41-0.24-1.5C101,193.22,101.34,195.3,101.41,195.05z M102.01,198.04l0.35-0.06c-0.09-0.58-0.34-1.37-0.66-1.91
			c0.02,0.12,0.01,0.83,0.03,0.94l0.04,0.23C101.8,197.48,102.01,198.04,102.01,198.04z M103.34,202.69l0.23-0.04
			c-0.2-1.27-0.83-2.95-1.22-3.96l-0.19,0.27L103.34,202.69z M103.35,204.94l-0.04-0.23l-0.23,0.04L103.35,204.94z M105.8,218.07
			c0.12-0.02,0.1-0.13-0.02-0.12C105.53,217.87,105.56,218.1,105.8,218.07z M106.14,218.72l-0.07-0.46
			C105.93,218.16,106.02,218.74,106.14,218.72z M106.3,225.69c0.12-0.02,0.08-0.25-0.04-0.23
			C106.15,225.48,106.2,225.83,106.3,225.69z M110.37,224.45l0.23-0.04l-0.06-0.35L110.37,224.45z M111.45,224.52
			c0.23-0.04,0.14-0.62-0.09-0.58C111.24,223.96,111.33,224.53,111.45,224.52z M111.47,198.66c-0.12,0.02-0.15-0.21-0.04-0.23
			C111.55,198.42,111.59,198.65,111.47,198.66z M111.79,200.63c-0.1,0.13-0.19-0.44-0.07-0.46
			C111.83,200.15,111.89,200.5,111.79,200.63z M112.05,196.32c-0.23,0.04-0.32-0.54-0.09-0.58
			C112.07,195.72,112.16,196.3,112.05,196.32z M112.57,198.85c0.07,0.46-0.08,0.96-0.39,1.25l0.22-1.58
			C112.52,198.5,112.55,198.73,112.57,198.85z M113.09,202.08l-0.29-1.85C113.06,200.43,113.26,201.7,113.09,202.08z M112.94,206.37
			c-0.12,0.02-0.17-0.33-0.06-0.35C113.02,206.12,113.04,206.24,112.94,206.37z M113.52,203.32l0.13,0.1l-0.1,0.13
			c0,0-0.1,0.13-0.21,0.15l-0.09-0.58C113.37,203.11,113.5,203.2,113.52,203.32z M113.49,204.63l-0.04-0.23
			C113.69,204.36,113.72,204.59,113.49,204.63z M113.89,205.63l0.54,3.35c0.02,0.12-0.2,0.27-0.31,0.29l-0.23,0.04
			c-0.12,0.02-0.25-0.08-0.27-0.19C114.5,208.73,112.97,205.78,113.89,205.63z M115.77,206.99c-0.12,0.02-0.15-0.21-0.02-0.12
			C115.86,206.86,115.88,206.97,115.77,206.99z M126.79,218.87c0.12-0.02,1.06-0.05,1.29-0.09l-0.05-0.35l-1.62,0.26
			C126.41,218.69,126.68,218.88,126.79,218.87z"/>
		<path d="M123.29,154.57c-0.11-0.69-0.74-3.91-0.85-4.61l-0.76-4.74c-0.13-0.81,0.93-1.57,1.74-1.7l0.12-0.02
			c1.39-0.22,4.91-0.43,5.04-0.33c0,0,0.25,0.08,0.37,0.06c0,0,0.12-0.02,0.23-0.04c1.29-0.09,2.96,0,3.73,1.06
			c0.15,0.21,0.28,1.02,0.47,1.47c0.17,1.04,0.52,2.53,0.82,3.66c0.07,0.46,0.42,1.12,0.51,1.7c0.2,1.27,0.13,6.74-0.61,7.33
			c-0.06,0.36,0.07,1.17,0.01,1.54c-0.11,1.56-0.77,3.33-1.25,4.82c-0.43,0.31-0.6,0.69-0.89,1.09c-0.35,0.77-1.37,1.05-2.18,1.18
			c-0.28-1.73,0.62-3.54,0.94-5.25c0.4-1.96,0.55-4,0.21-6.08C128.86,156.05,124.37,157.6,123.29,154.57z"/>
		<path d="M176.45,194.5c-0.18-0.19-0.53-0.58-0.87-0.49c-0.34,0.1-0.47,0.5-0.69,0.56c-0.45,0.13-0.77-0.15-0.87-0.49
			c-0.95,1.36-1.9,1.02-3.3,1.66c-0.22,0.06-1.71,0.85-1.93,0.91l-0.34,0.1c-0.11,0.03-0.6,0.05-0.71,0.08
			c0-0.85,2.14-0.6,1.86-1.62c-0.22,0.06-2.69,0.39-2.5,1.07c0,0,0.21,0.31,0.35,0.39c-1.58,1.3-3.91,1.23-5.41,2.38
			c-0.69,0.56-0.21,1.4-0.17,1.99c0.04,1.45-0.3,3.25-0.23,4.81c-0.07,1.48,0.46,2.91,0.53,4.47c0.06,0.22-0.34,1.8-0.42,1.94
			l0.25,0.9c0.25,1.76-0.16,3.33-0.02,5.11c-0.4,0.72-0.41,1.57-0.7,2.27c-0.88,2.07-5.77,4.55-8.03,5.18
			c-0.45,0.13-7.45,1.62-7.88,0.52l-0.41-1.47c-0.38-1.35-0.39-2.69-0.77-4.04c-0.06-0.23-0.24-0.42-0.34-0.76l-0.03-0.11l0.4-0.72
			c-0.11-4.71-0.35-9.88-0.07-14.46l0.17-1.14l-1.15-17.44c0.17-1.14-0.62-2.62-0.16-3.6l-0.76-18.64c0.29-1.54-0.15-3.12-0.14-4.83
			c-0.06-1.93,0.37-3.87,0.45-5.72c0.32-4.47-0.54-7.51,4.79-9.75l6.42-1.81c1.95-0.43,4.97-0.92,7.05-0.89
			c2.59,0.12,7.3,6.46,8.34,7.99c0.35,0.39,1.73,2.68,2,3.21c0.44-0.61,0.8,0.26,0.9,0.6l0.1,0.34l-0.02,0.37
			c0.03,0.11,1.01,0.57,1.27,1.47c0.06,0.23-0.07,0.63,0,0.85s0.16,0.56,0.39,0.5c0,0,0.16-0.29,0.39-0.35
			c0.25,0.9,0.9,1.45,1.23,2.21c1.87,2.76,3.97,5.45,5.54,8.41l0.29,1.01c0.03,0.11,0.88,0.97,1.06,1.16l0.41,1.46
			c0,0,0.43,0.24,0.47,0.35c0.82,0.74,0.91,1.93,1.42,2.88c0.35,1.24,2.74,4.09,3.46,5.35c0.18,0.19,1.34,2.18,1.41,2.4
			c0.62,0.92,1.62,1.85,2.02,2.84c0.65,1.88,1.31,3.77,2.75,5.43c0.03,0.11,1.17,1.13,1.32,1.21c1.41,1.55,2.3,3.85,3.41,5.61
			c0.93,1.56,2.68,3.02,3.38,4.64l0.54,1.92c0.7,1.63,1.89,2.39,2.37,4.08c0.22,0.79,0.04,1.45,0.15,2.27
			c-0.79,0.22-1.29,0.61-2.08,0.83c-0.68,0.19-1.14-0.16-1.82,0.03c-0.23,0.06-1.01,0.29-0.89,0.74c0.11-0.03,0.58,0.32,0.69,0.29
			l0.06,0.23c-0.34,0.1-1.08,0.91-1.16,1.06c-0.11,0.03-0.57,1.01-0.68,1.04l-0.08,0.14c-0.68,0.19-2.22-0.1-2.9,0.09
			c-6.27,1.04-9.97,0.87-12.49-5.48L176.45,194.5z M151.3,222.64c0.56-0.16-0.28-1.87,0.04-2.44l-0.32-0.28
			c-0.44,0.61-0.55,1.49-0.36,2.17C150.72,222.32,150.85,222.77,151.3,222.64z M148.83,189.76l0.22-0.06l-0.16-0.56
			C148.82,189.28,148.77,189.53,148.83,189.76z M148.81,187.09l0.19-0.18l-0.23,0.06L148.81,187.09z M148.98,185.95l0.16-0.29
			l-0.29-0.16l-0.16,0.29L148.98,185.95z M172.29,192.26c-0.06-0.22-0.24-0.42-0.42-0.61l0.11-0.03c0.34-0.1,0.77,0.15,0.84,0.37
			c0.11-0.03,0.44-0.61,0.52-0.75c-0.03-0.11,0.34-0.1,0.34-0.1c0.09,0.34-0.27,0.32,0.35,0.39c0,0,0.24-0.43,0.21-0.55l-0.06-0.23
			c-0.06-0.23-0.39-0.5-0.39-0.5l-2.27,0.15l0.9-0.25c0,0-0.03-0.11-0.18-0.19c-0.03-0.11-0.21-0.3-0.24-0.42l0.79-0.22l-0.1-0.34
			c-0.11,0.03-1.05,0.17-1.27,0.24c-0.15-0.08-0.55-0.21-0.58-0.32c-0.11,0.03-0.4-0.13-0.51-0.1c0.05,0.6-0.2,1.03-0.87,1.22
			l-0.34,0.1c0.31-0.21,0.21-0.55,0.15-0.77l-2.14,0.6c-0.34,0.1-3.4,1.32-3.7,1.53c-0.45,0.13-1.61,0.33-1.39,1.12
			c0.56-0.16,0.81-0.59,1.37-0.75c0.45-0.13,1.25,0.13,1.38,0.58c-0.05,0.26-1,0.77-0.97,0.88l0.14,0.08
			c0.03,0.11,0.18,0.19,0.29,0.16l0.11-0.03c1.35-0.38,2.88-1.42,4.35-1.84l0.34-0.1c-0.52,0.75-2.13,1.09-2.24,1.97
			C168.38,193.49,170.94,192.65,172.29,192.26z M169.87,184.55l-0.25-0.9l-7.82-13.49l-0.48-1.69l-0.55-0.21l0.49,13.37
			c0.06,1.08-0.15,3.33,0.16,4.46l0.03,0.11l0.14,0.08l2.93-0.83c0.11-0.03,0.63,0.07,0.77,0.15l0.23-0.06
			c0.08-0.14,1.4-0.64,1.59-0.81l0.23-0.06C168.25,184.4,169.19,184.74,169.87,184.55z M162.7,188.89l0.23-0.06
			c0.08-0.15,0.24-0.43,0.21-0.55c-0.03-0.11-0.18-0.19-0.29-0.16c-0.11,0.03-0.39,0.35-0.55,0.64
			C162.41,188.73,162.56,188.81,162.7,188.89z M163.46,198.04l0.34-0.1l-0.06-0.22l-0.34,0.1L163.46,198.04z M164.41,197.53
			l1.58-0.45l0.05-0.26l-1.47,0.41L164.41,197.53z M164.75,187.09c-0.42,0.24-0.84,0.48-0.71,0.93c0.56-0.16,0.69-0.56,1.26-0.72
			c0.23-0.06,0.71-0.08,0.71-0.08l0.4,0.13c0.11-0.03,0.39-0.35,0.39-0.35l3.49-0.99c0.11-0.03,0.08-0.14,0.16-0.29l-0.19-0.68
			C168.11,185.66,166.91,186.12,164.75,187.09z M164.97,189.59c0.22-0.06,0.56-0.16,0.87-0.37l5.18-1.46
			c0.34-0.1,0.39-0.35,0.29-0.69l-0.03-0.11c-0.23,0.06-1.42,0.16-1.64,0.22c-0.11,0.03-0.85,0-0.97,0.03c0,0-0.61,0.42-0.73,0.45
			l-0.23,0.06c-0.11,0.03-0.43-0.24-0.51-0.1c-0.11,0.03-0.36,0.47-0.32,0.58c0,0-0.18-0.19-0.29-0.16l-0.11,0.03
			c-0.56,0.16-1.85,0.77-1.89,1.51C164.63,189.68,164.74,189.65,164.97,189.59z M166.21,191.42c-0.42,0.24-0.73,0.45-0.95,0.51
			l-0.06-0.22L166.21,191.42z M167.13,190.8l-0.18,0.66l-0.14-0.08c-0.03-0.11,0.08-0.15,0.08-0.15c-0.03-0.11,0.02-0.37,0.13-0.4
			L167.13,190.8z M167.91,183.65c-0.03-0.11,0.53-0.27,0.45-0.13C168.39,183.63,168.06,183.73,167.91,183.65z M169.64,191.07
			c-0.37-0.02,1.66-0.59,1.46-0.41C170.94,190.94,169.82,191.26,169.64,191.07z M172.51,194.76c0.11-0.03,0.05-0.26-0.06-0.23
			C172.33,194.56,172.39,194.79,172.51,194.76z M172.27,188.74c0.11-0.03,0.05-0.26-0.06-0.23
			C171.98,188.58,172.04,188.81,172.27,188.74z M195.68,210.48c0.11-0.03,0.11-0.03,0.22-0.06l-0.06-0.23
			c-0.15-0.08-0.66-1.03-0.83-1.22l-0.22,0.06c-0.23,0.06-1.4,0.64-1.63,0.7c0.03,0.11-0.13,0.4-0.21,0.55l-0.11,0.03
			c0,0-0.6,0.05-0.74-0.03l-0.22,0.06c0.03,0.11-0.19,0.18-0.16,0.29C192.52,211.37,194.66,210.77,195.68,210.48z M194.59,208.35
			c0.23-0.06,0.13-0.4-0.09-0.34C194.38,208.05,194.48,208.39,194.59,208.35z"/>
		<path d="M196.47,128.66c-0.02-0.12,0.31-0.29,0.43-0.3c0.87-0.49,1.4-1.65,1.63-1.68l0.12-0.02c0.12-0.02,1.08,0.07,1.19,0.05
			c1.16-0.18,2.08-1.04,3.36-1.25c0.35-0.06,0.91-0.26,1.31,0.03c2.85-0.69,5.51-0.4,8.63-0.9l5.09-0.81
			c2.78-0.44,5.78-0.21,8.44-0.63c14.39-1.94,20.62,2.17,25.67,10.01c2.97,4.5,5.12,9.02,5.96,14.34c0.61,3.82,0.37,8.24-1.35,11.6
			c-0.62,1.29-0.56,2.46-1.18,3.75c-0.58,0.8-1.4,1.65-2.23,2.37c-2.27,2.14-3.86,4.05-6.72,5.46c-0.56,0.21-3.55,1.52-4.09,1.84
			c-2.12,0.81-5.07,0.93-7.02,1.36c-2.29,0.48-4.63,1.45-6.94,1.82c-2.2,0.35-4.18,0.55-6.38,0.9c0.39,2.43,1.01,4.82,1.39,7.25
			c0.26,1.62,0.42,2.66,0.45,4.31l1.9,11.91c0.13,0.81,0.9,1.16,1.04,2.09c0.26,1.62-2.58,2.43-3.71,2.73l-0.23,0.04
			c-0.68,0.23-2.82,0.92-3.16,0.98c-0.12,0.02-1.48,0.35-2.06,0.45c-2.08,0.33-8.11,1.18-9.17-1.74l-0.17-1.04L196.47,128.66z
			 M201.83,134.8l0.17,1.04c0.07-1.08,0.01-1.42-0.12-2.23l-0.09-0.58C201.51,133.54,201.74,134.22,201.83,134.8z M205.6,159.92
			c0.12-0.02,0.06-0.36-0.07-0.46C205.41,159.48,205.51,160.06,205.6,159.92z M205.63,161.58l0.05,0.35
			c0.35-0.06,0.12-0.73,0.1-0.85l-0.07-0.46C205.56,161.11,205.57,161.23,205.63,161.58z M205.91,163.31
			c0.1-0.13-0.01-0.83-0.15-0.92C205.62,162.29,205.81,163.45,205.91,163.31z M212.3,198.93c0.12-0.02,0.1-0.13-0.02-0.12
			C212.16,198.83,212.2,199.06,212.3,198.93z M212.31,203.43c0.02,0.12,0.13,0.1,0.25,0.08c0.12-0.02,0.94-0.03,1.17-0.07
			c0.35-0.06,3.45-0.67,3.38-1.13c-1.62,0.26-2.41-0.21-3.33-0.06c-0.35,0.06-1.56,0.61-1.49,1.07L212.31,203.43z M214.15,165.91
			l0.39-0.54l-0.46,0.07L214.15,165.91z M220.26,158.89l3.01-0.48c4.51-0.72,9.06-1.92,13.4-2.97c1.04-0.17,3.97-1.11,4.29-2.11
			c0.27-0.52,0.01-1.42-0.1-2.12c-1.57-9.83-4.58-16.1-23.79-10.91C217.79,144.94,218.17,154.01,220.26,158.89z M244.41,134.17
			l0.23-0.04l-0.04-0.23l-0.23,0.04L244.41,134.17z M244.93,134.44c0.02,0.12,0.27,0.19,0.27,0.19l-0.04-0.23l-0.25-0.08
			L244.93,134.44z M245.34,153.35c0.23-0.04,0.16-0.5-0.07-0.46C245.03,152.92,245.11,153.38,245.34,153.35z M246.74,136.88
			l-0.05-0.35c-0.07-0.46-0.5-0.87-0.9-1.16l0.04,0.23C245.92,136.18,246.24,136.72,246.74,136.88z M246.92,152.86
			c0.12-0.02,0.08-0.25-0.04-0.23C246.77,152.64,246.81,152.88,246.92,152.86z M249.46,141.31c0.12-0.02,0.1-0.13-0.04-0.23
			C249.31,141.09,249.37,141.44,249.46,141.31z M250.65,159.14c0.12-0.02,0.08-0.25-0.04-0.23S250.53,159.16,250.65,159.14z
			 M253.48,150.15l-0.11-0.69c-0.11-0.69-0.22-2.1-1.08-2.32l0.06,0.35C252.44,148.06,252.7,149.68,253.48,150.15z M253.29,153.38
			c-0.05-0.35,0.1-0.85,0.07-1.08l-0.04-0.23l-0.23,0.04L253.29,153.38z M253.44,151.34l0.23-0.04l-0.04-0.23l-0.23,0.04
			L253.44,151.34z"/>
		<path d="M256.51,121.72c-0.03-0.11,0.29-0.31,0.4-0.33c0.83-0.55,1.28-1.74,1.51-1.79l0.11-0.03c0.11-0.03,1.08-0.01,1.19-0.03
			c1.14-0.26,2.01-1.18,3.27-1.47c0.34-0.08,0.89-0.32,1.31-0.06c2.8-0.88,5.47-0.77,8.55-1.48l5.02-1.15
			c2.74-0.63,5.75-0.6,8.37-1.2c14.23-2.9,20.72,0.77,26.28,8.26c3.27,4.29,5.71,8.66,6.91,13.91c0.86,3.77,0.92,8.2-0.57,11.66
			c-0.54,1.32-0.39,2.49-0.93,3.82c-0.53,0.84-1.28,1.74-2.07,2.52c-2.12,2.29-3.58,4.31-6.33,5.9c-0.55,0.24-3.44,1.75-3.96,2.11
			c-2.06,0.95-4.99,1.27-6.91,1.83c-2.26,0.64-4.52,1.76-6.8,2.28c-2.17,0.5-4.13,0.83-6.3,1.33c0.55,2.4,1.33,4.74,1.88,7.14
			c0.37,1.6,0.6,2.63,0.74,4.27l2.7,11.75c0.18,0.8,0.97,1.1,1.18,2.01c0.37,1.6-2.41,2.59-3.52,2.97l-0.23,0.05
			c-0.66,0.27-2.75,1.11-3.09,1.19c-0.11,0.03-1.46,0.45-2.03,0.59c-2.05,0.47-8.01,1.72-9.27-1.12l-0.24-1.03L256.51,121.72z
			 M262.28,127.48l0.24,1.03c-0.01-1.08-0.09-1.42-0.27-2.22l-0.13-0.57C261.88,126.25,262.15,126.91,262.28,127.48z M267.74,152.3
			c0.11-0.03,0.04-0.37-0.1-0.46C267.52,151.87,267.65,152.44,267.74,152.3z M267.87,153.95l0.08,0.34
			c0.34-0.08,0.07-0.74,0.05-0.85l-0.11-0.46C267.77,153.49,267.8,153.6,267.87,153.95z M268.27,155.66
			c0.09-0.14-0.07-0.82-0.21-0.91C267.92,154.66,268.18,155.8,268.27,155.66z M277.04,190.76c0.11-0.03,0.09-0.14-0.03-0.11
			C276.9,190.68,276.95,190.9,277.04,190.76z M277.35,195.26c0.03,0.11,0.14,0.09,0.25,0.06c0.11-0.03,0.94-0.1,1.17-0.15
			c0.34-0.08,3.4-0.9,3.29-1.36c-1.6,0.37-2.41-0.05-3.33,0.16c-0.34,0.08-1.52,0.71-1.41,1.17L277.35,195.26z M276.66,157.7
			l0.35-0.56l-0.46,0.1L276.66,157.7z M282.29,150.28l2.97-0.68c4.45-1.02,8.91-2.53,13.17-3.86c1.03-0.24,3.89-1.37,4.14-2.39
			c0.24-0.54-0.09-1.42-0.24-2.11c-2.23-9.7-5.66-15.76-24.47-9.28C278.89,136.52,279.88,145.55,282.29,150.28z M304.73,123.99
			l0.23-0.05l-0.05-0.23l-0.23,0.05L304.73,123.99z M305.26,124.23c0.03,0.11,0.28,0.18,0.28,0.18l-0.05-0.23l-0.25-0.06
			L305.26,124.23z M306.94,143.06c0.23-0.05,0.12-0.51-0.1-0.46C306.61,142.66,306.71,143.11,306.94,143.06z M307.23,126.54
			l-0.08-0.34c-0.11-0.46-0.55-0.83-0.97-1.1l0.05,0.23C306.36,125.9,306.72,126.41,307.23,126.54z M308.48,142.47
			c0.11-0.03,0.06-0.25-0.05-0.23C308.32,142.26,308.37,142.49,308.48,142.47z M310.24,130.77c0.11-0.03,0.09-0.14-0.05-0.23
			C310.08,130.57,310.16,130.91,310.24,130.77z M312.63,148.48c0.11-0.03,0.06-0.25-0.05-0.23
			C312.46,148.28,312.51,148.51,312.63,148.48z M314.85,139.32l-0.16-0.68c-0.16-0.69-0.36-2.08-1.23-2.24l0.08,0.34
			C313.67,137.31,314.03,138.91,314.85,139.32z M314.87,142.56c-0.08-0.34,0.04-0.85-0.01-1.08l-0.05-0.23l-0.23,0.05L314.87,142.56
			z M314.88,140.52l0.23-0.05l-0.05-0.23l-0.23,0.05L314.88,140.52z"/>
		<path d="M354.06,161.86c-0.76-11.1-1.76-22.18-2.28-33.29c-0.07-1.05-0.82-10.27-0.78-11.33c-0.06-0.82,0.1-7.16,0.16-7.99
			c0.01-1.53-0.8-4.76,0.03-6.46c-0.01-0.12,0.1-0.24,0.21-0.37c1.87-0.13,3.21-1.16,5.07-1.4c5.11-0.82,9.38-1.82,14.64-2.18
			c5.14-0.35,9.48-0.41,14.39,1.01c0.48,0.2,3.95,1.14,4.32,1.35c0.24,0.1,0.96,0.29,0.97,0.4l7.1,4.21
			c0.25,0.22,3.39,3.17,4.63,4.26c8.86,7.72,13.74,30.98,7.86,44.41c-0.71,1.58-1.05,3.48-1.77,5.05c-0.41,0.85-1.41,1.62-1.58,2.57
			c-10.81,16.94-27.73,16.69-45.76,18.98l-2.8,0.19c-1.75,0.12-3.23-2.59-3.33-4L354.06,161.86z M362.86,144.71l0.29-0.84
			c0.12-0.01,0.05-0.94,0.03-1.29c-0.14-2.1-0.36-3.5-0.86-5.69l-0.22,0.25l0.45,6.54L362.86,144.71z M372.87,164.09
			c1.05-0.07,2.07-0.61,3.11-0.8c1.05-0.07,5.92-0.99,6.84-1.17c1.52-0.1,2.61-1.35,3.73-2.02l3.27-1.98
			c4.36-4.88,7.64-15.19,7.16-22.2c-0.41-5.96-4.89-14.8-9.7-18.23l-1.97-1.39l-0.13-0.23c-3.23-0.95-5.77-1.95-9.09-2.54
			c-0.77-0.89-5.22-0.82-6.62-0.72l-0.93,0.06l-0.1,0.24l0.61,8.88c0.12-0.01,0.13,0.23,0.14,0.34c0.01,0.12,0.02,0.35-0.08,0.48
			l3.18,36.04c0.08,1.17-0.2,2.24-0.13,3.29C372.18,162.61,372.17,164.14,372.87,164.09z M401.83,141.45l0.02,0.23
			c0.45-0.26,0.4-0.97,0.36-1.55l-0.03-0.47C401.6,139.82,401.79,140.87,401.83,141.45z M404.78,134.91
			c0.23-0.02,0.22-0.25-0.02-0.23C404.65,134.69,404.67,134.92,404.78,134.91z M406.28,131.05c0.23-0.13,0.2-0.48-0.03-0.47
			C406.12,130.48,406.16,131.06,406.28,131.05z"/>
		<path d="M422.2,149.55c-0.06-0.23-1.32-4.74-1.78-6.56c-1.15-4.54-2.04-9.99-3.27-14.39c-1.78-10.42-3.89-21.6-6.72-31.87
			c0.23-0.54,1.02-1.71,1.56-1.96c3.21,0.28,6.87-1.01,9.93-1.79c5.34-1.35,10.41-3.23,15.75-4.58c3.52-0.89,7.24-1.47,10.7-2.1
			l9.4-1.53c3.61-0.55,5.4,2.74,6.15,5.69c0.37,1.47,2.3,10.53-0.65,11.27l-20.66,5.22c-2.02,0.15-3.8,0.72-5.85,1.24
			c-1.82,0.46-3.74,1.43-5.62,1.66c-0.25,0.43,0.98,7.24,1.04,7.47l0.03,0.11l0.17,0.2l-0.09,0.14c0.11,0.45,0.32,2.21,0.43,2.67
			c0.06,0.23-0.05,1.22,0.12,1.42c0.06,0.23,0.63,1.05,0.77,1.13c0.65,0.2,0.97,0,1.65-0.17l14.53-2.7l4.77-1.2
			c0.45-0.11,2.9-0.49,3.26-0.46c2.67,1.02,4.07,4.65,4.7,7.14c0.77,3.07,0.38,5.34-1.29,7.81c-0.17,0.28-0.57,0.63-0.48,0.97
			l-22.36,5.17l-0.54,0.26l0.12,0.45c0.97,3.86,2.12,7.92,3.35,11.83c0.2,0.31,0.6,1.42,0.6,1.42l1.39-0.23l10.56-2.67
			c0.23-0.06,2.24-0.21,2.36-0.23c0.79-0.2,7.01-1.89,7.83-1.98c3.4-0.86,8.79-3.43,11.53,0.23c0.51,0.59,1.68,2.35,1.85,2.55
			l0.29,1.14c0.46,1.82,1.67,9.48-1.02,10.76l-5.33,1.35c-8.63,2.18-17.37,3.42-25.88,5.57c-3.52,0.89-6.55,3.23-10.07,4.11
			l-0.23,0.06c-0.48,0-2.53,0.03-2.87,0.12c-0.99-0.11-2.64-0.42-2.93-1.55C428.27,169.27,423.21,153.04,422.2,149.55z
			 M417.83,126.98c0.23-0.06,0.11-0.51-0.12-0.45C417.49,126.59,417.61,127.04,417.83,126.98z M419.99,104.94
			c0.25-0.43,0.17-0.77,0.08-1.11c-0.14-0.57-0.49-0.96-0.97-1.45l0.17,0.68C419.48,103.87,419.57,104.21,419.99,104.94z
			 M436.28,134.52l0.23-0.06l-0.23-0.91l-0.23,0.06L436.28,134.52z M439.21,135.59c0.23-0.06,0.11-0.51-0.12-0.45
			C438.98,135.17,439.09,135.62,439.21,135.59z M436.97,103.79c0.23-0.06,0.11-0.51-0.11-0.45
			C436.63,103.4,436.74,103.85,436.97,103.79z M437.6,93.37c0.08-0.14,0.06-0.25-0.09-0.34C437.29,93.09,437.37,93.43,437.6,93.37z
			 M444.87,165.2l0.68-0.17l-0.2-0.8C444.9,164.34,444.73,164.63,444.87,165.2z M445.08,98.61c0.23-0.06,0.11-0.51-0.11-0.45
			C444.74,98.21,444.85,98.66,445.08,98.61z M452.75,157.17c0,0,1.19-0.06,1.53-0.15c0.11-0.03,0.77-0.31,0.68-0.65l-2.27,0.57
			L452.75,157.17z M449.31,98.14c0.06,0.23,0.4,0.14,0.45-0.11C449.74,97.91,449.28,98.03,449.31,98.14z M451.98,97.71l2.16-0.54
			l-0.06-0.23l-2.38,0.6L451.98,97.71z M470.81,158.4c0.11-0.03,0.34-0.09,0.45-0.12c1.93-0.49,3.63-0.92,3.03-3.3
			c-0.79,0.2-1.16,1.62-1.39,2.16l-2.16,0.54c-0.11,0.03-0.77,0.31-0.82,0.57C470.16,158.69,470.81,158.4,470.81,158.4z
			 M472.95,152.55c-0.14-0.57-0.82-0.4-1.31-0.39c-0.48,0-1.53,0.15-1.65,0.17l-0.06,0.26
			C470.88,152.95,472.05,152.78,472.95,152.55z"/>
		<path d="M495.4,159.83c-0.12,0.02-1.17,0.07-1.31-0.03c-0.23,0.04-1.6-0.34-1.98-0.52c-7.95-3-11.52-6.82-12.85-15.14
			c-1.05-6.59-0.4-9.18,6.89-10.35c4.97-0.79,10.2,0.03,12.5,4.76l0.15,0.92c0.34,3.62,0.64,7.01,4.72,8.02
			c0.86,0.22,1.73,0.44,2.54,0.31c3.24-0.52,3.93-6.56,3.55-8.98c-0.59-3.7-3.55-9.63-11.85-11.86
			c-12.64-3.44-24.23-6.21-26.26-18.93c-0.44-2.78,0.04-4.99,0.09-7.6c1.13-10.02,8.13-15.17,17.23-19.11
			c1.42,0.01,2.82-0.92,4.09-1.13c12.49-1.99,24.64-0.14,26.76,13.16l0.02,0.12c-0.31,2.54,0.75,8.42-1.99,9.8
			c-0.1,0.13-1.27,0.2-1.39,0.22c-0.12,0.02-1.43,0.7-1.66,0.74l-0.81,0.13c-6.82,1.09-11.85-3.68-13.73-9.55
			c-0.24-0.79-0.45-1.35-5.53-1.96l-0.69,0.11l1.04,0.55l-0.23,0.04c-0.69,0.11-1.35-0.26-2.27-0.11c-1.16,0.18-2.4,1.33-3.13,1.92
			c-5.4,4.06-2.26,11.86,3.86,13.02c7.71,1.5,15.1,4.71,22.39,8.05c6.41,3.01,11.57,10.13,12.15,18.22c0.17,2.58-0.63,4.96-0.9,7.73
			c-0.22,1.58-1.19,2.92-1.88,4.57c-0.53,1.15-0.79,2.5-1.31,3.65c-2.68,6.24-9.13,8.92-15.6,9.96c-2.54,0.41-5.52-0.42-8.03,0.21
			L495.4,159.83z M489.86,137.71l-0.07-0.46c-0.02-0.12-1.23-0.28-1.71-0.32l-0.69,0.11C488.05,137.52,488.94,137.86,489.86,137.71z
			 M487.96,111.69l0.23-0.04l-0.02-0.12l-0.23,0.04L487.96,111.69z M489.54,111.92c0,0,0.98,0.91,1.36,1.09
			c0.15,0.21,1.09,0.89,1.34,0.97l-0.04-0.23l-1.09-0.89C490.84,112.66,489.69,112.13,489.54,111.92z M493.23,110.5
			c0.23-0.04,0.16-0.5-0.07-0.46C492.92,110.07,492.99,110.53,493.23,110.5z M507.42,158.62c0.23-0.04,0.16-0.5-0.07-0.46
			C507.12,158.2,507.19,158.66,507.42,158.62z M508.08,158.28l0.46-0.07l-0.04-0.23l-0.46,0.07L508.08,158.28z M512.02,101.22
			c0.23-0.04,0.56-0.21,0.5-0.56l-0.02-0.12c-0.48-0.04-2.27-0.82-2.84-0.73C509.79,100.62,511.21,101.35,512.02,101.22z"/>
		<path class="st0" d="M601.71,124.65c-0.15-0.21-0.46-0.64-0.8-0.58c-0.35,0.06-0.52,0.44-0.75,0.48c-0.46,0.07-0.75-0.24-0.8-0.58
			c-1.11,1.24-2.01,0.79-3.47,1.27c-0.23,0.04-1.79,0.64-2.03,0.68l-0.35,0.06c-0.12,0.02-0.6-0.02-0.71-0.01
			c0.1-0.85,2.2-0.35,2.03-1.39c-0.23,0.04-2.72,0.08-2.6,0.77c0,0,0.17,0.33,0.3,0.43c-1.72,1.1-4.03,0.76-5.65,1.73
			c-0.75,0.48-0.38,1.36-0.4,1.96c-0.13,1.44-0.68,3.19-0.78,4.75c-0.24,1.46,0.11,2.94,0.01,4.5c0.04,0.23-0.55,1.75-0.65,1.88
			l0.15,0.92c0.04,1.77-0.54,3.29-0.61,5.08c-0.49,0.67-0.59,1.52-0.96,2.17c-1.11,1.95-6.26,3.84-8.58,4.21
			c-0.46,0.07-7.59,0.74-7.89-0.4l-0.24-1.5c-0.22-1.39-0.08-2.71-0.3-4.1c-0.04-0.23-0.19-0.44-0.25-0.79l-0.02-0.12l0.49-0.67
			c0.44-4.69,0.8-9.85,1.62-14.37l0.3-1.11l0.89-17.45c0.3-1.11-0.31-2.68,0.26-3.6l1.42-18.6c0.47-1.5,0.21-3.12,0.42-4.81
			c0.17-1.92,0.82-3.81,1.12-5.63c0.84-4.4,0.34-7.52,5.9-9.12l6.59-1.05c1.98-0.2,5.04-0.33,7.1-0.07
			c2.56,0.42,6.49,7.26,7.35,8.91c0.31,0.43,1.41,2.86,1.61,3.42c0.5-0.56,0.77,0.35,0.82,0.7l0.06,0.35l-0.06,0.37
			c0.02,0.12,0.94,0.68,1.09,1.6c0.04,0.23-0.14,0.62-0.1,0.85s0.09,0.58,0.32,0.54c0,0,0.19-0.27,0.42-0.3
			c0.15,0.92,0.72,1.54,0.97,2.34c1.54,2.96,3.31,5.87,4.52,9l0.17,1.04c0.02,0.12,0.76,1.06,0.92,1.28l0.24,1.5
			c0,0,0.4,0.29,0.42,0.41c0.73,0.83,0.68,2.03,1.08,3.03c0.2,1.27,2.24,4.39,2.81,5.72c0.15,0.21,1.08,2.32,1.12,2.55
			c0.51,0.98,1.39,2.03,1.67,3.05c0.43,1.95,0.86,3.89,2.1,5.71c0.02,0.12,1.03,1.26,1.17,1.36c1.22,1.7,1.84,4.09,2.73,5.97
			c0.74,1.66,2.31,3.31,2.82,5l0.31,1.97c0.51,1.7,1.6,2.59,1.87,4.32c0.13,0.81-0.12,1.44-0.11,2.27
			c-0.81,0.13-1.35,0.45-2.16,0.58c-0.69,0.11-1.12-0.3-1.81-0.19c-0.23,0.04-1.04,0.17-0.97,0.63c0.12-0.02,0.54,0.39,0.65,0.37
			l0.04,0.23c-0.35,0.06-1.18,0.78-1.28,0.92c-0.12,0.02-0.68,0.94-0.79,0.96l-0.1,0.13c-0.69,0.11-2.19-0.36-2.89-0.25
			c-6.35,0.3-10.01-0.3-11.77-6.9L601.71,124.65z M573.46,149.67c0.58-0.09-0.06-1.89,0.33-2.42l-0.29-0.31
			c-0.5,0.55-0.72,1.42-0.61,2.11C572.92,149.28,572.99,149.74,573.46,149.67z M574.84,116.72l0.23-0.04l-0.09-0.58
			C574.88,116.24,574.8,116.49,574.84,116.72z M575.13,114.07l0.21-0.15l-0.23,0.04L575.13,114.07z M575.42,112.95l0.19-0.27
			l-0.27-0.19l-0.19,0.27L575.42,112.95z M597.84,121.94c-0.04-0.23-0.19-0.44-0.34-0.66l0.12-0.02c0.35-0.06,0.75,0.24,0.79,0.47
			c0.12-0.02,0.5-0.55,0.6-0.69c-0.02-0.12,0.35-0.06,0.35-0.06c0.06,0.35-0.31,0.29,0.3,0.43c0,0,0.29-0.4,0.27-0.52l-0.04-0.23
			c-0.04-0.23-0.32-0.54-0.32-0.54l-2.27-0.11l0.92-0.15c0,0-0.02-0.12-0.15-0.21c-0.02-0.11-0.17-0.33-0.19-0.44l0.81-0.13
			l-0.06-0.35c-0.12,0.02-1.06,0.05-1.29,0.09c-0.13-0.1-0.52-0.27-0.54-0.39c-0.12,0.02-0.38-0.18-0.5-0.16
			c-0.02,0.6-0.32,1-1.01,1.11l-0.35,0.06c0.33-0.17,0.27-0.52,0.24-0.75l-2.2,0.35c-0.35,0.06-3.53,0.92-3.86,1.09
			c-0.46,0.07-1.64,0.14-1.51,0.95c0.58-0.09,0.87-0.49,1.45-0.59c0.46-0.07,1.23,0.28,1.3,0.74c-0.08,0.25-1.08,0.65-1.06,0.76
			l0.13,0.1c0.02,0.12,0.15,0.21,0.27,0.19l0.12-0.02c1.39-0.22,3.03-1.08,4.53-1.32l0.35-0.06c-0.6,0.69-2.24,0.83-2.46,1.7
			C593.82,122.71,596.46,122.17,597.84,121.94z M596.34,114l-0.15-0.92L590,98.77l-0.28-1.73l-0.52-0.27l-1.08,13.33
			c-0.06,1.08-0.54,3.29-0.36,4.44l0.02,0.12l0.13,0.1l3.01-0.48c0.12-0.02,0.62,0.14,0.75,0.24l0.23-0.04
			c0.1-0.13,1.47-0.47,1.68-0.62l0.23-0.04C594.74,113.67,595.65,114.11,596.34,114z M588.71,117.47l0.23-0.04
			c0.1-0.13,0.29-0.4,0.27-0.52c-0.02-0.12-0.15-0.21-0.27-0.19c-0.12,0.02-0.42,0.31-0.62,0.57
			C588.44,117.28,588.58,117.38,588.71,117.47z M588.4,126.65l0.35-0.06l-0.04-0.23l-0.35,0.06L588.4,126.65z M589.4,126.26
			l1.62-0.26l0.08-0.25l-1.5,0.24L589.4,126.26z M590.96,115.93c-0.44,0.19-0.89,0.38-0.81,0.84c0.58-0.09,0.75-0.48,1.33-0.57
			c0.23-0.04,0.71,0,0.71,0l0.38,0.18c0.12-0.02,0.42-0.31,0.42-0.31l3.58-0.57c0.12-0.02,0.1-0.13,0.2-0.27l-0.11-0.69
			C594.47,114.9,593.21,115.21,590.96,115.93z M590.88,118.43c0.23-0.04,0.58-0.09,0.91-0.26l5.32-0.85
			c0.35-0.06,0.42-0.31,0.37-0.65l-0.02-0.12c-0.23,0.04-1.42-0.01-1.66,0.03c-0.12,0.02-0.85-0.1-0.96-0.08
			c0,0-0.66,0.34-0.77,0.36l-0.23,0.04c-0.12,0.02-0.4-0.29-0.5-0.16c-0.12,0.02-0.41,0.42-0.39,0.54c0,0-0.15-0.21-0.27-0.19
			l-0.12,0.02c-0.58,0.09-1.93,0.54-2.05,1.28C590.53,118.49,590.65,118.47,590.88,118.43z M591.91,120.4
			c-0.44,0.19-0.77,0.36-1,0.4l-0.04-0.23L591.91,120.4z M592.89,119.89l-0.25,0.63l-0.13-0.1c-0.02-0.12,0.1-0.13,0.1-0.13
			c-0.02-0.12,0.06-0.37,0.18-0.38L592.89,119.89z M594.5,112.87c-0.02-0.12,0.56-0.21,0.46-0.07
			C594.98,112.92,594.63,112.97,594.5,112.87z M595.35,120.45c-0.37-0.06,1.72-0.39,1.5-0.24
			C596.66,120.47,595.5,120.66,595.35,120.45z M597.77,124.45c0.12-0.02,0.08-0.25-0.04-0.23
			C597.62,124.23,597.65,124.46,597.77,124.45z M598.23,118.44c0.12-0.02,0.08-0.25-0.04-0.23
			C597.97,118.25,598,118.48,598.23,118.44z M618.95,142.76c0.12-0.02,0.12-0.02,0.23-0.04l-0.04-0.23c-0.13-0.1-0.53-1.1-0.68-1.31
			l-0.23,0.04c-0.23,0.04-1.47,0.47-1.7,0.51c0.02,0.12-0.18,0.38-0.27,0.52l-0.12,0.02c0,0-0.6-0.02-0.73-0.12l-0.23,0.04
			c0.02,0.12-0.21,0.15-0.2,0.27C615.71,143.28,617.91,142.93,618.95,142.76z M618.12,140.53c0.23-0.04,0.18-0.38-0.06-0.35
			C617.95,140.2,618,140.54,618.12,140.53z"/>
		<path class="st0" d="M651.64,135.54c-0.11,0.04-1.14,0.3-1.29,0.23c-0.22,0.08-1.63-0.02-2.04-0.12
			c-8.38-1.39-12.63-4.44-15.56-12.34c-2.32-6.26-2.18-8.93,4.74-11.49c4.72-1.75,10.01-1.96,13.19,2.24l0.33,0.88
			c1.04,3.49,2,6.75,6.19,6.95c0.89,0.04,1.78,0.09,2.55-0.2c3.07-1.14,2.58-7.2,1.73-9.5c-1.3-3.51-5.36-8.75-13.94-9.32
			c-13.07-0.9-24.97-1.37-29.45-13.44c-0.98-2.64-0.94-4.9-1.39-7.47c-0.85-10.05,5.02-16.46,13.17-22.1
			c1.4-0.27,2.58-1.46,3.79-1.9c11.86-4.39,24.14-4.94,28.81,7.69l0.04,0.11c0.2,2.55,2.38,8.11-0.04,10
			c-0.07,0.15-1.21,0.45-1.32,0.49c-0.11,0.04-1.27,0.97-1.48,1.05l-0.77,0.28c-6.48,2.4-12.34-1.3-15.33-6.68
			c-0.39-0.73-0.71-1.24-5.81-0.85l-0.66,0.24l1.12,0.33L638,70.67c-0.66,0.24-1.37,0.01-2.25,0.33c-1.1,0.41-2.09,1.77-2.7,2.5
			c-4.5,5.04,0.1,12.07,6.32,12.02c7.85-0.03,15.73,1.67,23.53,3.53c6.87,1.7,13.33,7.68,15.47,15.5c0.67,2.5,0.35,4.99,0.62,7.76
			c0.09,1.59-0.6,3.1-0.95,4.85c-0.29,1.23-0.28,2.6-0.58,3.83c-1.41,6.64-7.21,10.53-13.36,12.81c-2.42,0.89-5.5,0.66-7.83,1.78
			L651.64,135.54z M641.89,114.93l-0.16-0.44c-0.04-0.11-1.26-0.03-1.74,0.02l-0.66,0.24C640.08,115.1,641.02,115.25,641.89,114.93z
			 M634.96,89.78l0.22-0.08l-0.04-0.11l-0.22,0.08L634.96,89.78z M636.55,89.69c0,0,1.13,0.7,1.55,0.8c0.19,0.18,1.24,0.66,1.5,0.69
			l-0.08-0.22l-1.24-0.66C637.97,90.16,636.74,89.87,636.55,89.69z M639.89,87.58c0.22-0.08,0.06-0.52-0.16-0.44
			C639.5,87.22,639.67,87.66,639.89,87.58z M663.2,132.01c0.22-0.08,0.06-0.52-0.16-0.44C662.82,131.65,662.98,132.09,663.2,132.01z
			 M663.78,131.55l0.44-0.16l-0.08-0.22l-0.44,0.16L663.78,131.55z M656.51,74.81c0.22-0.08,0.51-0.31,0.39-0.64l-0.04-0.11
			c-0.48,0.05-2.38-0.37-2.93-0.16C654.21,74.66,655.74,75.09,656.51,74.81z"/>
		<path class="st0" d="M702.01,126.87c-0.12,0.02-1.17,0.07-1.31-0.03c-0.23,0.04-1.59-0.34-1.98-0.52
			c-7.95-3-11.52-6.82-12.85-15.14c-1.05-6.59-0.4-9.18,6.89-10.35c4.97-0.79,10.2,0.03,12.5,4.76l0.15,0.92
			c0.34,3.62,0.65,7.01,4.72,8.02c0.87,0.22,1.73,0.44,2.54,0.31c3.24-0.52,3.93-6.56,3.55-8.98c-0.59-3.7-3.55-9.63-11.85-11.86
			c-12.64-3.44-24.23-6.21-26.26-18.93c-0.44-2.78,0.03-4.99,0.09-7.6c1.13-10.02,8.13-15.17,17.22-19.11
			c1.42,0.01,2.82-0.92,4.09-1.13c12.49-1.99,24.64-0.14,26.76,13.16l0.02,0.12c-0.31,2.54,0.75,8.42-1.99,9.8
			c-0.1,0.13-1.27,0.2-1.39,0.22c-0.12,0.02-1.43,0.7-1.66,0.74l-0.81,0.13c-6.82,1.09-11.85-3.68-13.74-9.55
			c-0.24-0.79-0.45-1.35-5.53-1.96l-0.69,0.11l1.04,0.55l-0.23,0.04c-0.69,0.11-1.35-0.26-2.27-0.11c-1.16,0.18-2.4,1.33-3.13,1.92
			c-5.4,4.06-2.26,11.86,3.86,13.02c7.71,1.5,15.1,4.71,22.39,8.05c6.41,3.01,11.57,10.13,12.15,18.22c0.17,2.58-0.63,4.96-0.9,7.73
			c-0.22,1.58-1.19,2.92-1.88,4.57c-0.53,1.15-0.79,2.5-1.31,3.65c-2.68,6.24-9.13,8.92-15.6,9.96c-2.54,0.41-5.52-0.42-8.03,0.21
			L702.01,126.87z M696.46,104.75l-0.07-0.46c-0.02-0.12-1.23-0.28-1.71-0.32l-0.69,0.11C694.66,104.56,695.54,104.9,696.46,104.75z
			 M694.57,78.73l0.23-0.04l-0.02-0.12l-0.23,0.04L694.57,78.73z M696.14,78.96c0,0,0.98,0.91,1.36,1.09
			c0.15,0.21,1.09,0.89,1.34,0.97l-0.04-0.23l-1.09-0.89C697.45,79.7,696.3,79.17,696.14,78.96z M699.83,77.54
			c0.23-0.04,0.16-0.5-0.07-0.46C699.52,77.11,699.6,77.57,699.83,77.54z M714.03,125.66c0.23-0.04,0.16-0.5-0.07-0.46
			C713.72,125.24,713.8,125.7,714.03,125.66z M714.68,125.32l0.46-0.07l-0.04-0.23l-0.46,0.07L714.68,125.32z M718.62,68.26
			c0.23-0.04,0.56-0.21,0.5-0.56l-0.02-0.12c-0.48-0.04-2.27-0.82-2.84-0.73C716.39,67.66,717.81,68.39,718.62,68.26z"/>
		<path class="st0" d="M763.04,123.19c-4.06-0.69-8.96-1.53-12.48-4.03c-8.82-6.48-12.24-18.16-13.19-28.54
			c-0.03-0.35,0.01-1.18,0-1.29c0.02-4.94,0.11-10.36,0.61-15.22c-0.45-1.02,1.21-4.81,1.46-5.9c1.07-5.04,1.48-10.83,4.62-15
			c0.64-0.76,3.29-3.94,3.8-4.7c1.92-0.88,3.52-2.67,5.3-3.78c0.48,0.07,0.57-0.17,1.03-0.33c2.85-0.97,5.37-1.67,8.29-1.93
			c11.19-1.02,20.66,2.23,25.93,12.33c0.68,1,1.95,2.06,2.42,3.31c0.01,0.12,0.17,0.57,0.31,0.79c0.35,1.26,0.73,2.87,1.2,4.12
			c0.41,0.67,0.96,1.56,1.16,2.36c0.88,4.5,2.23,8.97,2.66,13.63c0.05,0.58,0,1.29-0.31,1.79l0.14,1.52
			c0.13,1.4,0.37,2.79,0.49,4.07c0.32,3.5-0.53,7.1-0.92,10.55c-0.42,3.1-1.57,6.02-2.48,8.93c-0.52,2.05-0.92,4.08-2.05,5.83
			c-4.44,6.75-11.5,10.57-19.42,11.3l-0.58,0.05c-1.05,0.1-6.2,0.33-7.38,0.32C763.53,123.38,763.16,123.18,763.04,123.19z
			 M744.32,50.83c-0.01-0.12,0.34-0.15,0.23-0.02C744.58,51.05,744.46,51.06,744.32,50.83z M757.32,95.26
			c1.76,5.13,5.94,13.57,12.35,12.98c1.17-0.11,1.6-0.5,3.07-1.1c3.7-1.98,4.03-3.54,4.66-6.89c0.08-0.36,0.06-0.59,0.15-0.95
			l0.64-3.35c0.19-1.78-0.11-3.75-0.26-5.38c-0.66-7.23-1.42-14.21-3.93-21.16c-1.07-2.72-4.09-8.8-7.03-10.06
			c-0.63-0.41-1.91-0.3-2.49-0.24c-6.65,0.61-8.71,7.61-9.75,13c-0.3,1.91-0.1,4.01-0.52,5.93c0,0-0.45,0.27-0.44,0.39l0.06,0.7
			c0.27,2.92,1.35,5.75,1.39,8.81C756.14,88.79,756.85,94.01,757.32,95.26z M762.98,107.09l0.35-0.03c-0.26-0.33-0.52-0.54-0.99-0.5
			C762.39,107.03,762.63,107.12,762.98,107.09z M762.72,119.69l0.23-0.02l-0.25-0.21L762.72,119.69z M763.63,107.74l0.23-0.02
			l-0.25-0.21L763.63,107.74z M778.76,116.35c0.12-0.01,0.08-0.36-0.03-0.35C778.49,116.02,778.53,116.37,778.76,116.35z
			 M779.95,115.18c-0.12,0.01-0.11,0.13-0.09,0.24l0.12-0.01c0,0,0.11-0.13,0.1-0.24l-0.01-0.12L779.95,115.18z M784.96,61.94
			l-0.01-0.12c-0.02-0.23-0.3-0.68-0.53-0.66C784.45,61.51,784.72,61.84,784.96,61.94z M788.85,95.56l0.23-0.02l-0.04-0.47
			C788.94,95.2,788.83,95.32,788.85,95.56z"/>
		<path d="M71.52,344.98l-0.12,0.01c-0.94-0.04-3.3-0.08-3.42-0.19c-0.71-0.06-4.17-0.72-4.89-0.89c-1.22-0.49-2.63-0.49-3.62-1.11
			c-9.42-4.63-13.41-8.77-16.72-19.19c-0.01-0.12-0.15-0.34-0.15-0.46c-1.39-4.12-2.5-7.55-3.09-11.96
			c-0.04-0.47-0.2-2.45-0.24-2.92c0.37-2.61-0.32-5.38-0.42-7.95c-0.21-2.57,0.95-5.6,0.38-8.25l1.52-8.7
			c0.11-0.13,0.61-1.11,0.6-1.34c0.12-0.01,0.05-0.82,0.04-0.94c2.29-7.94,6.15-13.9,14.37-16.8c1.02-0.44,6.21-1.68,7.36-1.89
			l0.35-0.03c0.7-0.06,1.29,0.01,1.89,0.08c3.17-0.02,7.62-0.15,10.84,0.4c2.14,0.3,4.37,1.76,6.34,2.89
			c4.91,2.54,8.4,6.48,10.8,11.33c0.55,1.01,1.19,1.66,1.74,2.56c0.68,1.12,0.9,2.39,1.35,3.53c1.22,3.42,2.7,7.18,3.11,10.79
			c0.34,2.67,0.46,5.6,0.45,8.42c-0.01,1.29-0.36,2.73-0.49,4.03c0.93,11.32-0.96,24.16-9.95,31.94c1.04,1.21,3.76,5.8,5.54,6.01
			c0,0,0.33-0.26,0.45-0.27l0.12-0.01c0.23-0.02,0.29,0.68,0.66,0.89c1.6,0.93,2.62,0.49,2.92,2.7l0.07,0.82
			c-0.89,0.66-0.9,1.95-1.29,2.92c-1.2,2.57-3.18,4.25-5.98,4.48c-5.95,0.49-11.38-5.53-15.33-9.32c-0.88-0.75-1.23-2.13-2.52-2.03
			C73.25,344.6,72.46,344.9,71.52,344.98z M73.25,328.74c6.77-0.55,7.28-8.7,7.66-14.02c0.01-1.29,0.45-7.44,1.03-8.89l-1.93-15
			c-0.01-0.12-0.87-2.04-0.89-2.28c-2.67-6.83-8.33-11.3-15.91-10.68c-4.43,0.36-5.21,2.31-6.19,6.15
			c-0.27,0.96-1.38,3.28-1.64,4.36c-0.39,2.38-0.57,4.51-0.61,6.86c0.14,1.75-0.42,3.44-0.16,5.18c0.75,6.28,2.38,11.9,4.86,17.81
			c0.77,0.76,1.19,1.66,1.27,2.6C64.83,326.38,65.55,329.38,73.25,328.74z M64.46,271.67c0.23-0.02,0.19-0.49-0.04-0.47
			C64.19,271.22,64.23,271.69,64.46,271.67z M60.11,334.75c0.23-0.02,0.07-0.59-0.16-0.57C59.72,334.2,59.88,334.77,60.11,334.75z
			 M61.08,335.03c0.01,0.12,1.37,0.95,1.98,1.25l2.69,1.31c0.37,0.21,0.38,0.32,0.73,0.29c0.12-0.01,0.22-0.14,0.22-0.14l-0.25-0.21
			l-5.4-2.85L61.08,335.03z M68.87,329.81c0.01,0.12,0.24,0.1,0.23-0.02C69.09,329.56,68.85,329.57,68.87,329.81z M74.94,269.05
			l-0.02-0.23l-0.47,0.04C74.58,268.96,74.71,269.07,74.94,269.05z M76.46,268.92c0.11-0.13,0.1-0.24-0.02-0.23
			C76.31,268.58,76.34,268.93,76.46,268.92z M71.87,334.85c0.12-0.01,0.11-0.12-0.02-0.23C71.73,334.62,71.76,334.97,71.87,334.85z
			 M72.84,335.24c0.23-0.02,0.2-0.49-0.04-0.47C72.57,334.79,72.61,335.26,72.84,335.24z M78.78,270.02l0.23-0.02l-0.62-0.42
			l0.02,0.23L78.78,270.02z M78.04,332.7c0.23-0.02,0.34-0.15,0.33-0.26l-0.35,0.03L78.04,332.7z M81.56,331.24l0.02,0.23
			c0.11-0.13,0.55-0.51,0.66-0.52l-0.02-0.23C82.1,330.72,81.66,331.11,81.56,331.24z M84.42,347.57c0.23-0.02,0.19-0.49-0.04-0.47
			C84.15,347.12,84.19,347.58,84.42,347.57z M85.59,341.71c-0.14-0.22-0.15-0.46-0.4-0.55l-0.21,0.25
			C85.11,341.63,85.35,341.73,85.59,341.71z M86.68,349.26l-0.01-0.12c-0.04-0.47-1.44-1.76-1.9-1.72
			C84.95,348.23,85.96,349.08,86.68,349.26z M86.08,342.03c0.23-0.02,0.08-0.48-0.15-0.46C85.69,341.59,85.85,342.04,86.08,342.03z
			 M86.95,349.71l0.23-0.02l-0.25-0.21L86.95,349.71z M93.11,351.79c0.12-0.01,0.34-0.15,0.32-0.38l-0.01-0.12l-0.97-0.39l0.02,0.23
			C92.5,351.48,92.76,351.82,93.11,351.79z M97.22,303.05c0.23-0.02,0.19-0.48-0.04-0.47C96.95,302.6,96.99,303.07,97.22,303.05z
			 M98.46,305.3l0.23-0.02l-0.02-0.23l-0.23,0.02L98.46,305.3z M95.31,348.55c0.01,0.12,0.13,0.11,0.23-0.02
			C95.53,348.42,95.18,348.45,95.31,348.55z"/>
		<path d="M103.04,270.31c-0.07-0.46-0.05-1.06,0.38-1.36c1.04-0.17,2.04-0.56,3.03-1.08c0.12-0.02,1.48-0.36,1.71-0.39
			c2.31-0.37,11.35-1.69,12.92,1.5l1,6.24c0.06,0.35,0.16,2.46,0.08,2.71c0.04,0.23,0.37,1.6,0.28,1.73
			c0.02,0.12-0.04,0.48-0.16,0.5c6.41,47.59,8.74,47.33,15.67,46.23c1.27-0.2,3.8-1.44,4.16-2.92c-0.02-0.12,0.07-1.08,0.01-1.42
			c-0.73-9.01-1.95-18.18-3.28-27.22l-1-6.24c-0.05-0.35-0.14-1.64-0.08-2c-0.88-6.26-2.33-13.14-2.75-19.48
			c0.24-0.75,0.47-0.79,0.78-1.07c1.22-1.26,2.79-3.29,4.47-3.91c1.7-0.51,2.72-0.79,4.11-1.01c1.85-0.29,2.85,0.02,4.3,0.97
			l1.57,0.94c0.92,0.56,2.31,5.56,2.5,6.72c0.15,0.92,0.78,4.14,0.18,4.83l0.39,2.43c0.44,2.78,0.88,5.55,3.53,16.16
			c1.12,7.05,1.75,13.95,2.26,20.86c0.24,4.47,0.92,8.75,0.54,13.07c-0.2,0.98-0.19,2.52-0.39,3.5c-0.12,0.02-0.35,0.77-0.45,0.9
			c-4.33,6.26-7.68,8.34-15.24,10.73c-0.35,0.06-2.37,0.73-2.49,0.75l-2.43,0.39c-6.13,0.98-10.93-0.87-16.29-4.04
			c-4.6-2.82-6-5.68-8.28-10.3c-0.55-1.22-0.46-0.64-0.99-1.74C110.55,315.12,104.06,298.25,103.04,270.31z M108.25,271.74
			c0.46-0.07,0.75-0.48,1.33-0.57c-0.19-0.45-0.52-0.27-0.75-0.24C108.37,271.01,108.16,271.16,108.25,271.74z M108.88,274.96
			l0.23-0.04l-0.16-1.75l-0.15-0.21l-0.2,0.27L108.88,274.96z M134.1,334.96c0.13,0.1,0.48,0.04,0.46-0.07
			C134.55,334.77,134.09,334.84,134.1,334.96z M137.12,338.27l0.46-0.07l-0.04-0.23l-0.46,0.07L137.12,338.27z M137.85,338.39
			c0.02,0.12,0.25,0.08,0.23-0.04C138.07,338.24,137.83,338.27,137.85,338.39z M138.93,338.45l0.46-0.07l-0.04-0.23l-0.46,0.07
			L138.93,338.45z M140.35,338.46c0.12-0.02,0.33-0.17,0.54-0.32l-1.16,0.18C139.89,338.54,140.12,338.5,140.35,338.46z
			 M140.96,334.1l0.35-0.06l-0.04-0.23l-0.35,0.06L140.96,334.1z M141.28,338.32l1.04-0.17c-0.06-0.35-0.42-0.41-0.54-0.39
			C141.44,337.82,141.22,337.97,141.28,338.32z M141.29,267.06c0.04,0.23,0.27,0.2,0.23-0.04
			C141.62,266.89,141.28,266.94,141.29,267.06z"/>
		<path d="M169.67,313.34c-0.52-3.24-1.94-6.21-2.51-9.8c-0.06-0.35-0.34-3.62-0.41-4.08l-0.5-3.12c-0.7-4.39-1.87-8.71-2.58-13.22
			c-1.59-9.94-2.03-20.19-2.95-30.35c-0.11-0.69-0.6-1.56,0-2.25c2.45-0.27,4.36-0.93,6.78-1.32c2.43-0.39,3.81,0.1,6.6,0.49
			c1.33-0.57,3.38,1.12,4.24,2.05c0.07,0.46,0.6,2.28,0.67,2.74c0.02,0.12,0.03,1.66,0.05,1.77l0.07,0.46
			c1.16,7.28,3.04,14.57,4.22,21.97c0.33,2.08,0.32,4.22,0.67,6.41l0.33,2.08c0.12-0.02,0.32,0.54,0.34,0.66l0.02,0.12
			c0.05,0.35,0.27,3.16,0.3,3.39l0.04,0.23c0.02,0.12,0.29,0.31,0.31,0.43c0.45,4.31,2.02,8.21,2.7,12.49
			c0.17,1.04-0.02,2.14,0.17,3.29l0.02,0.12c0.02,0.12,0.28,1.02,0.3,1.14l0.02,0.12c0.26,1.62,0.29,3.27,0.54,4.89
			c0.44,2.77,1.1,5.4,1.54,8.17l0.41,2.54c-0.23,3-3.66,3.79-6.09,4.17c-2.89,0.46-9.29,1.24-11.71-1.33
			c-1.45-1.67-2.74-6.79-3.09-8.99C169.86,316.75,169.95,315.08,169.67,313.34z M168.1,253.72c0.33-0.17,0.1-0.85,0.08-0.96
			l-1.27,0.2C167.02,253.66,167.78,253.18,168.1,253.72z M177.19,286.18c0.12-0.02,0.08-0.25-0.04-0.23
			C176.92,285.98,176.98,286.33,177.19,286.18z M179.4,326.02l2.31-0.37l-0.04-0.23c0,0-1.17-0.64-1.57-0.93
			c-0.25-0.08-0.77-0.35-0.77-0.35l-0.39,0.54c0,0-0.31,0.29-0.43,0.3l0.02,0.12C178.57,325.32,179.17,326.06,179.4,326.02z
			 M183.79,325.32l0.35-0.06c0.1-0.13,0.56-0.21,0.54-0.32l-0.04-0.23c-0.34-1.37-1.28-4.3-1.28-4.3l-0.4-0.29
			c-0.24,0.75-0.14,1.33-0.03,2.02c0.18,1.16,0.28,1.73,0.71,2.97C183.66,325.22,183.77,325.2,183.79,325.32z M183.18,322.21
			c-0.23,0.04-0.3-0.42-0.07-0.46C183.22,321.73,183.29,322.2,183.18,322.21z"/>
		<path d="M223.24,277.53l-1.07-6.71c-0.51-0.99-0.62-1.68-0.81-2.83c-1.33-8.32-2.02-16.39-3.48-24.82
			c-0.11-0.69,0.39-1.25,1.18-1.49l3.71-1.3c5.36-0.62,9.54-1.88,14.74-2.71l1.39-0.22c3.01-0.48,19.59-2.06,22-2.56
			c3.37-0.42,4.68,1.86,5.86,4.76c0.07,0.46,0.58,2.87,0.67,3.45c0.63,3.93,2.14,7.48-2.66,8.6c-2.06,0.45-4.11,1.01-6.07,1.33
			c-0.58,0.09-0.94,0.03-1.41,0.1c-3.82,0.61-0.58,0.8-20.03,3.79c0.13,0.81,0.68,4.99,0.83,5.92c0.19,0.44,0.67,2.74,0.84,3.07
			l1.5-0.24c0.93-0.15,8.9-1.42,9.81-1.68l0.46-0.07c0.6,0.02,2.79-0.33,3.14-0.38c0.83-0.01,4.58-0.26,5.08-0.1
			c2.17,0.96,3.67,6.65,3.95,8.38c1.11,6.94-3.48,7.91-8.96,9.25c-0.35,0.06-0.56,0.21-0.91,0.26l-10.82,2.79l-0.08,0.96
			c0.85,4.61,1.71,9.21,3.75,27.97c0.07,0.46,0.16,2.46,0.11,2.95c-1.23,1.97-3.89,3.11-6.22,3.37c-0.58,0.09-3.74,0.36-4.68,0.39
			c-0.23,0.04-1.67-0.09-2.02-0.03l-1.25-0.39c-1.19-0.76-2.41-4.71-2.73-5.97c-0.63-3.22-1.5-6.4-1.99-9.52
			C225.67,295.04,224.62,286.2,223.24,277.53z M232.6,276.04c0.12-0.02,0.04-0.48-0.07-0.46
			C232.39,275.47,232.48,276.05,232.6,276.04z M233.24,281.51c0.06,0.35,0.18,1.16,0.76,1.06c0.35-0.06,0.16-1.21,0.14-1.33
			c-0.02-0.12-0.23-0.68-0.24-0.79c0.02,0.12-0.2,0.27-0.31,0.29s-0.48-0.04-0.5-0.16l0.13,0.81L233.24,281.51z M233.65,280.37
			c0.81-0.13-0.24-1.5-0.38-0.18C233.28,280.31,233.65,280.37,233.65,280.37z M233.53,283.36c0.1-0.13,0.02-0.6-0.11-0.69
			C233.17,282.58,233.3,283.39,233.53,283.36z M236.5,316.08l1.27-0.2c0.23-0.04,0.16-0.5,0.14-0.61l-0.04-0.23
			c0.02,0.12-0.19,0.27-0.31,0.29l-0.8-0.58l-0.46,0.07L236.5,316.08z M240.18,271.51c0.35-0.05,1.83-0.41,1.79-0.64l-0.02-0.12
			l-1.83,0.41L240.18,271.51z M258.12,271.02c0.23-0.04,0.16-0.5-0.07-0.46C257.81,270.59,257.89,271.05,258.12,271.02z
			 M260.08,274.38c0.1-0.13,0.06-0.37,0.04-0.48c-0.11-0.69-0.22-1.39-0.79-2.01l0.15,0.93
			C259.55,273.28,259.66,273.97,260.08,274.38z M261.75,247.67c-0.23,0.04-0.79,0.25-0.79,0.25l0.04,0.23l0.12-0.02
			c0.35-0.06,0.89-0.38,0.89-0.38l-0.02-0.12L261.75,247.67z"/>
		<path d="M305.49,290.96c-0.15-0.21-0.46-0.64-0.8-0.58c-0.35,0.05-0.52,0.44-0.75,0.48c-0.46,0.07-0.75-0.24-0.8-0.58
			c-1.11,1.24-2.01,0.79-3.47,1.27c-0.23,0.04-1.79,0.64-2.03,0.68l-0.35,0.06c-0.12,0.02-0.6-0.02-0.71,0
			c0.1-0.85,2.2-0.35,2.03-1.39c-0.23,0.04-2.71,0.08-2.6,0.77c0,0,0.17,0.33,0.31,0.43c-1.72,1.1-4.03,0.76-5.65,1.73
			c-0.75,0.48-0.38,1.36-0.4,1.96c-0.12,1.44-0.68,3.19-0.78,4.75c-0.24,1.46,0.11,2.95,0.01,4.5c0.04,0.23-0.55,1.75-0.65,1.88
			l0.15,0.92c0.04,1.77-0.54,3.29-0.61,5.08c-0.49,0.67-0.59,1.52-0.96,2.17c-1.11,1.96-6.26,3.85-8.58,4.21
			c-0.46,0.07-7.59,0.74-7.89-0.4l-0.24-1.5c-0.22-1.39-0.08-2.71-0.3-4.1c-0.04-0.23-0.19-0.44-0.24-0.79l-0.02-0.12l0.49-0.67
			c0.44-4.69,0.8-9.85,1.62-14.37l0.3-1.11l0.89-17.45c0.3-1.11-0.31-2.68,0.26-3.6l1.42-18.6c0.47-1.5,0.21-3.12,0.42-4.81
			c0.17-1.92,0.82-3.81,1.12-5.63c0.84-4.4,0.34-7.52,5.9-9.12l6.59-1.05c1.98-0.2,5.05-0.33,7.1-0.07
			c2.56,0.42,6.49,7.26,7.35,8.91c0.31,0.43,1.41,2.86,1.61,3.42c0.5-0.55,0.77,0.35,0.82,0.7l0.06,0.35l-0.06,0.36
			c0.02,0.12,0.94,0.68,1.09,1.61c0.04,0.23-0.14,0.61-0.1,0.85c0.04,0.23,0.09,0.58,0.32,0.54c0,0,0.19-0.27,0.43-0.3
			c0.15,0.92,0.72,1.54,0.96,2.34c1.54,2.96,3.31,5.87,4.52,9l0.17,1.04c0.02,0.12,0.76,1.06,0.92,1.28l0.24,1.5
			c0,0,0.4,0.29,0.42,0.41c0.73,0.83,0.68,2.03,1.08,3.03c0.2,1.27,2.24,4.39,2.81,5.72c0.15,0.21,1.08,2.32,1.12,2.55
			c0.51,0.99,1.39,2.03,1.67,3.05c0.43,1.95,0.86,3.89,2.1,5.71c0.02,0.12,1.03,1.26,1.16,1.36c1.22,1.7,1.84,4.09,2.73,5.97
			c0.74,1.66,2.31,3.31,2.81,5l0.31,1.96c0.51,1.7,1.6,2.59,1.88,4.33c0.13,0.81-0.12,1.44-0.11,2.27
			c-0.81,0.13-1.35,0.45-2.16,0.58c-0.69,0.11-1.11-0.3-1.81-0.19c-0.23,0.04-1.04,0.17-0.97,0.63c0.12-0.02,0.54,0.39,0.65,0.37
			l0.04,0.23c-0.35,0.06-1.18,0.78-1.28,0.92c-0.12,0.02-0.68,0.94-0.8,0.96l-0.1,0.13c-0.69,0.11-2.19-0.36-2.89-0.25
			c-6.35,0.3-10.01-0.3-11.77-6.9L305.49,290.96z M277.24,315.97c0.58-0.09-0.06-1.89,0.32-2.42l-0.29-0.31
			c-0.5,0.55-0.72,1.42-0.61,2.11C276.7,315.59,276.77,316.05,277.24,315.97z M278.62,283.03l0.23-0.04l-0.09-0.58
			C278.66,282.55,278.58,282.8,278.62,283.03z M278.91,280.38l0.21-0.15l-0.23,0.04L278.91,280.38z M279.2,279.26l0.19-0.27
			l-0.27-0.19l-0.2,0.27L279.2,279.26z M301.62,288.25c-0.04-0.23-0.19-0.44-0.34-0.66l0.12-0.02c0.35-0.06,0.75,0.24,0.79,0.47
			c0.12-0.02,0.5-0.55,0.6-0.69c-0.02-0.12,0.35-0.06,0.35-0.06c0.06,0.35-0.31,0.29,0.3,0.43c0,0,0.29-0.4,0.27-0.52l-0.04-0.23
			c-0.04-0.23-0.32-0.54-0.32-0.54l-2.27-0.11l0.92-0.15c0,0-0.02-0.12-0.15-0.21c-0.02-0.12-0.17-0.33-0.19-0.44l0.81-0.13
			l-0.05-0.35c-0.12,0.02-1.06,0.05-1.29,0.09c-0.13-0.1-0.52-0.27-0.54-0.39c-0.12,0.02-0.38-0.18-0.5-0.16
			c-0.02,0.6-0.32,1-1.01,1.11l-0.35,0.06c0.33-0.17,0.27-0.52,0.24-0.75l-2.2,0.35c-0.35,0.05-3.53,0.92-3.86,1.09
			c-0.46,0.07-1.64,0.14-1.51,0.95c0.58-0.09,0.87-0.5,1.45-0.59c0.46-0.07,1.23,0.28,1.3,0.74c-0.08,0.25-1.08,0.65-1.06,0.76
			l0.13,0.1c0.02,0.12,0.15,0.21,0.27,0.19l0.12-0.02c1.39-0.22,3.03-1.08,4.53-1.31l0.35-0.06c-0.6,0.69-2.24,0.83-2.46,1.7
			C297.6,289.01,300.24,288.47,301.62,288.25z M300.12,280.31l-0.15-0.92l-6.2-14.31l-0.28-1.73l-0.52-0.27l-1.07,13.33
			c-0.07,1.08-0.54,3.29-0.36,4.44l0.02,0.12l0.13,0.1l3.01-0.48c0.12-0.02,0.62,0.14,0.75,0.24l0.23-0.04
			c0.1-0.13,1.47-0.47,1.68-0.62l0.23-0.04C298.52,279.97,299.43,280.42,300.12,280.31z M292.49,283.78l0.23-0.04
			c0.1-0.13,0.29-0.4,0.27-0.52c-0.02-0.12-0.15-0.21-0.27-0.19c-0.12,0.02-0.43,0.31-0.62,0.57
			C292.22,283.59,292.36,283.69,292.49,283.78z M292.18,292.96l0.35-0.05l-0.04-0.23l-0.35,0.05L292.18,292.96z M293.18,292.56
			l1.62-0.26l0.08-0.25l-1.5,0.24L293.18,292.56z M294.74,282.24c-0.44,0.19-0.89,0.38-0.81,0.84c0.58-0.09,0.75-0.47,1.33-0.57
			c0.23-0.04,0.71,0,0.71,0l0.38,0.18c0.12-0.02,0.43-0.31,0.43-0.31l3.58-0.57c0.12-0.02,0.1-0.13,0.2-0.27l-0.11-0.69
			C298.25,281.2,296.99,281.52,294.74,282.24z M294.66,284.74c0.23-0.04,0.58-0.09,0.91-0.26l5.32-0.85
			c0.35-0.06,0.43-0.31,0.37-0.65l-0.02-0.12c-0.23,0.04-1.42-0.01-1.66,0.03c-0.12,0.02-0.85-0.1-0.96-0.08
			c0,0-0.66,0.34-0.77,0.36l-0.23,0.04c-0.12,0.02-0.4-0.29-0.5-0.16c-0.12,0.02-0.41,0.42-0.39,0.54c0,0-0.15-0.21-0.27-0.19
			l-0.12,0.02c-0.58,0.09-1.93,0.54-2.05,1.27C294.31,284.8,294.43,284.78,294.66,284.74z M295.69,286.71
			c-0.44,0.19-0.77,0.36-1,0.4l-0.04-0.23L295.69,286.71z M296.67,286.2l-0.25,0.63l-0.13-0.1c-0.02-0.12,0.1-0.13,0.1-0.13
			c-0.02-0.12,0.06-0.37,0.18-0.38L296.67,286.2z M298.28,279.18c-0.02-0.12,0.56-0.21,0.46-0.07
			C298.76,279.23,298.41,279.28,298.28,279.18z M299.13,286.75c-0.37-0.06,1.72-0.39,1.5-0.24
			C300.44,286.78,299.29,286.97,299.13,286.75z M301.55,290.76c0.12-0.02,0.08-0.25-0.04-0.23
			C301.4,290.54,301.43,290.77,301.55,290.76z M302.01,284.75c0.12-0.02,0.08-0.25-0.04-0.23
			C301.75,284.56,301.78,284.79,302.01,284.75z M322.73,309.07c0.12-0.02,0.12-0.02,0.23-0.04l-0.04-0.23
			c-0.13-0.1-0.53-1.1-0.68-1.31l-0.23,0.04c-0.23,0.04-1.47,0.47-1.7,0.51c0.02,0.12-0.18,0.38-0.27,0.52l-0.12,0.02
			c0,0-0.6-0.02-0.73-0.12l-0.23,0.04c0.02,0.12-0.21,0.15-0.19,0.27C319.49,309.59,321.69,309.24,322.73,309.07z M321.9,306.83
			c0.23-0.04,0.18-0.38-0.06-0.35C321.73,306.51,321.78,306.85,321.9,306.83z"/>
		<path d="M334.54,287.04c-0.52-3.24-1.94-6.21-2.51-9.8c-0.05-0.35-0.34-3.62-0.41-4.08l-0.5-3.12c-0.7-4.39-1.86-8.71-2.58-13.22
			c-1.59-9.94-2.03-20.19-2.95-30.35c-0.11-0.69-0.6-1.56,0-2.25c2.45-0.27,4.36-0.93,6.78-1.32c2.43-0.39,3.81,0.1,6.6,0.49
			c1.33-0.57,3.38,1.12,4.24,2.05c0.07,0.46,0.6,2.28,0.67,2.74c0.02,0.12,0.03,1.66,0.04,1.77l0.07,0.46
			c1.16,7.28,3.04,14.57,4.22,21.97c0.33,2.08,0.32,4.22,0.67,6.41l0.33,2.08c0.12-0.02,0.32,0.54,0.34,0.66l0.02,0.12
			c0.06,0.35,0.27,3.16,0.3,3.39l0.04,0.23c0.02,0.12,0.29,0.31,0.31,0.43c0.45,4.31,2.02,8.21,2.7,12.49
			c0.17,1.04-0.01,2.14,0.17,3.29l0.02,0.12c0.02,0.12,0.28,1.02,0.3,1.14l0.02,0.12c0.26,1.62,0.29,3.27,0.54,4.89
			c0.44,2.77,1.1,5.4,1.54,8.17l0.41,2.54c-0.23,3-3.66,3.79-6.09,4.17c-2.89,0.46-9.29,1.24-11.71-1.33
			c-1.45-1.67-2.74-6.79-3.09-8.99C334.72,290.45,334.81,288.78,334.54,287.04z M332.97,227.42c0.33-0.17,0.1-0.85,0.08-0.96
			l-1.27,0.2C331.89,227.35,332.65,226.88,332.97,227.42z M342.06,259.88c0.12-0.02,0.08-0.25-0.04-0.23
			C341.79,259.68,341.85,260.03,342.06,259.88z M344.26,299.72l2.31-0.37l-0.04-0.23c0,0-1.17-0.64-1.57-0.93
			c-0.25-0.08-0.77-0.35-0.77-0.35l-0.39,0.54c0,0-0.31,0.29-0.43,0.3l0.02,0.12C343.44,299.02,344.03,299.75,344.26,299.72z
			 M348.66,299.02l0.35-0.06c0.1-0.13,0.56-0.21,0.54-0.32l-0.04-0.23c-0.34-1.37-1.28-4.3-1.28-4.3l-0.4-0.29
			c-0.24,0.75-0.14,1.33-0.03,2.02c0.18,1.16,0.28,1.73,0.71,2.97C348.53,298.92,348.64,298.9,348.66,299.02z M348.05,295.91
			c-0.23,0.04-0.31-0.42-0.07-0.46C348.09,295.43,348.16,295.89,348.05,295.91z"/>
		<path d="M372.82,250.04l-0.33-3.97c-0.28-0.56-0.29-0.68-0.33-1.15c-0.28-3.38-0.32-6.67-0.6-10.05l-0.24-2.92l-0.25-0.21
			c-0.12,0.01-1.99,0.05-2.82,0c-5.4,0.09-16.54,1.72-17.21-6.33c-0.27-3.27,0.4-7.9,4.07-9.03c1.49-0.48,2.77-0.58,4.26-1.06
			l6.53-0.54c12.14-1,24.4-0.37,36.52-1.61c0.94,0.04,2.47,0.03,3.21,0.44c1.84,0.9,2.35,5.68,2.48,7.31
			c0.14,1.75,0.21,2.57,0.14,4.57c-0.28,0.85-1.03,1.73-1.68,2.37c-0.33,0.26-2.39,0.9-2.86,0.94c-1.03,0.32-6.13,1.21-7.18,1.3
			c-0.46,0.15-4.43,0.37-5.02,0.41c-0.34,0.15-1.75,0.14-2.04,0.87l0.08,0.93c0.09,1.05,0.14,1.63,0.45,2.66l0.94,11.32
			c0.58,1.36,0.63,3.36,0.74,4.64c0.07,0.82,0.13,3.05,0.14,3.16c0.03,0.35-0.02,2.59,0.01,2.94c0.06,0.7,0.71,5.7,0.76,6.4
			l0.08,0.93c0.1,1.17-0.04,2.35,0.07,3.75c0.44,5.37,1.13,10.83,2.04,16.16c0.39,1.85,1.09,4.61,1.26,6.71
			c0.36,4.32-5.54,4.1-8.34,4.33c-9.34,0.77-10.24-4.44-11.43-11.74c-0.04-0.47-0.19-0.92-0.23-1.39
			c-0.76-4.87-1.88-9.95-2.29-14.85C373.31,261.63,373.31,255.87,372.82,250.04z M354.91,225.2c-0.04-0.47-0.29-0.68-0.34-1.26
			c-0.12-1.4,0.96-1.14,1.47-2.12c-0.37-0.2-0.61-0.3-0.96-0.27c-1.28,0.11-1.28,1.52-1.21,2.45l0.07,0.82
			C354.19,225.02,354.56,225.23,354.91,225.2z"/>
		<path class="st0" d="M462.03,237.91l-1.08-3.83c-0.38-0.5-0.42-0.61-0.54-1.06c-0.92-3.27-1.58-6.49-2.5-9.76l-0.79-2.82
			l-0.29-0.16c-0.11,0.03-1.95,0.43-2.77,0.53c-5.28,1.12-15.91,4.84-18.1-2.94c-0.89-3.16-1.11-7.84,2.28-9.64
			c1.37-0.75,2.61-1.1,3.98-1.85l6.31-1.77c11.72-3.29,23.89-5.01,35.55-8.53c0.93-0.14,2.43-0.44,3.23-0.18
			c1.98,0.54,3.39,5.13,3.83,6.71c0.47,1.69,0.7,2.48,1.01,4.46c-0.12,0.88-0.68,1.89-1.2,2.65c-0.27,0.32-2.18,1.34-2.63,1.47
			c-0.95,0.51-5.78,2.35-6.8,2.64c-0.42,0.24-4.28,1.2-4.85,1.36c-0.31,0.21-1.69,0.47-1.84,1.25l0.25,0.9
			c0.29,1.01,0.44,1.58,0.95,2.53l3.07,10.93c0.83,1.22,1.26,3.17,1.61,4.41c0.22,0.79,0.71,2.96,0.74,3.08
			c0.09,0.34,0.47,2.54,0.57,2.88c0.19,0.68,1.78,5.46,1.97,6.14l0.25,0.9c0.32,1.13,0.41,2.32,0.79,3.67
			c1.46,5.19,3.17,10.42,5.08,15.48c0.73,1.74,1.94,4.32,2.51,6.35c1.17,4.17-4.65,5.08-7.36,5.84c-9.02,2.53-10.89-2.41-13.45-9.35
			c-0.13-0.45-0.37-0.87-0.49-1.32c-1.67-4.64-3.74-9.41-5.07-14.14C464.72,249.19,463.62,243.54,462.03,237.91z M439.72,216.93
			c-0.13-0.45-0.42-0.61-0.57-1.18c-0.38-1.35,0.73-1.3,1.04-2.36c-0.4-0.13-0.66-0.18-1-0.08c-1.24,0.35-0.97,1.73-0.72,2.63
			l0.22,0.79C438.98,216.9,439.38,217.03,439.72,216.93z"/>
		<path class="st0" d="M528.49,275.86c-4.1-0.41-9.04-0.93-12.72-3.19c-9.24-5.88-13.43-17.3-15.07-27.59
			c-0.06-0.35-0.07-1.17-0.09-1.29c-0.31-4.93-0.58-10.34-0.41-15.23c-0.51-0.98,0.88-4.88,1.06-5.98
			c0.73-5.1,0.75-10.91,3.61-15.28c0.58-0.8,3.01-4.15,3.48-4.94c1.85-1.01,3.33-2.9,5.03-4.12c0.48,0.04,0.56-0.21,1-0.4
			c2.78-1.16,5.25-2.02,8.14-2.49c11.1-1.77,20.76,0.84,26.7,10.56c0.74,0.95,2.08,1.92,2.63,3.14c0.02,0.12,0.21,0.56,0.36,0.77
			c0.43,1.24,0.92,2.82,1.47,4.03c0.46,0.64,1.07,1.49,1.31,2.28c1.18,4.44,2.83,8.8,3.56,13.42c0.09,0.58,0.09,1.29-0.19,1.81
			l0.24,1.5c0.22,1.39,0.56,2.76,0.76,4.03c0.55,3.47-0.05,7.12-0.21,10.58c-0.21,3.12-1.16,6.11-1.87,9.07
			c-0.38,2.08-0.64,4.13-1.66,5.96c-3.98,7.04-10.76,11.32-18.62,12.58l-0.58,0.09c-1.04,0.17-6.16,0.75-7.34,0.82
			C528.99,276.01,528.61,275.84,528.49,275.86z M504.96,204.92c-0.02-0.12,0.33-0.17,0.23-0.04
			C505.23,205.11,505.11,205.13,504.96,204.92z M520.9,248.37c2.1,5,6.84,13.14,13.2,12.12c1.16-0.18,1.56-0.61,2.99-1.31
			c3.56-2.23,3.78-3.8,4.19-7.19c0.06-0.37,0.02-0.6,0.08-0.96l0.41-3.38c0.07-1.79-0.36-3.74-0.62-5.35
			c-1.14-7.17-2.37-14.09-5.34-20.85c-1.25-2.65-4.68-8.5-7.69-9.56c-0.65-0.37-1.92-0.17-2.5-0.08c-6.59,1.05-8.18,8.18-8.85,13.62
			c-0.17,1.92,0.16,4-0.12,5.95c0,0-0.43,0.3-0.41,0.42l0.11,0.69c0.46,2.89,1.73,5.65,1.98,8.69
			C519.29,241.99,520.35,247.16,520.9,248.37z M527.35,259.8l0.35-0.06c-0.29-0.31-0.55-0.5-1.02-0.43
			C526.75,259.77,527,259.85,527.35,259.8z M527.94,272.39l0.23-0.04l-0.27-0.2L527.94,272.39z M528.04,260.4l0.23-0.04l-0.27-0.19
			L528.04,260.4z M543.71,267.97c0.12-0.02,0.06-0.37-0.06-0.35C543.43,267.66,543.48,268.01,543.71,267.97z M544.82,266.73
			c-0.12,0.02-0.1,0.13-0.08,0.25l0.12-0.02c0,0,0.1-0.13,0.08-0.25l-0.02-0.12L544.82,266.73z M546.25,213.27l-0.02-0.12
			c-0.04-0.23-0.34-0.66-0.57-0.62C545.71,212.88,546,213.19,546.25,213.27z M552.39,246.55l0.23-0.04l-0.07-0.46
			C552.45,246.19,552.35,246.32,552.39,246.55z"/>
		<path class="st0" d="M562.52,186.45c-0.04-0.47,0.02-1.06,0.46-1.34c1.05-0.1,2.08-0.43,3.09-0.88c0.12-0.01,1.5-0.26,1.74-0.28
			c2.33-0.22,11.44-0.94,12.8,2.35l0.58,6.3c0.03,0.35-0.01,2.47-0.1,2.71c0.02,0.23,0.27,1.62,0.16,1.75
			c0.01,0.12-0.07,0.48-0.19,0.49c3.25,47.91,5.59,47.81,12.59,47.16c1.28-0.12,3.89-1.18,4.34-2.63c-0.01-0.12,0.14-1.07,0.1-1.42
			c-0.13-9.04-0.75-18.27-1.47-27.38l-0.58-6.3c-0.03-0.35-0.03-1.64,0.05-2c-0.46-6.31-1.46-13.27-1.46-19.62
			c0.28-0.73,0.52-0.75,0.85-1.02c1.3-1.18,3.01-3.1,4.72-3.61c1.73-0.4,2.77-0.61,4.16-0.74c1.87-0.17,2.84,0.21,4.23,1.25
			l1.51,1.04c0.88,0.62,1.94,5.7,2.05,6.87c0.09,0.93,0.5,4.19-0.14,4.83l0.23,2.45c0.26,2.8,0.52,5.6,2.45,16.35
			c0.66,7.11,0.83,14.03,0.88,20.97c-0.06,4.47,0.34,8.79-0.32,13.08c-0.26,0.97-0.36,2.5-0.62,3.47c-0.12,0.01-0.4,0.74-0.51,0.87
			c-4.74,5.96-8.21,7.81-15.92,9.7c-0.35,0.03-2.42,0.58-2.53,0.59l-2.45,0.23c-6.18,0.57-10.85-1.59-15.99-5.11
			c-4.4-3.12-5.62-6.07-7.58-10.82c-0.47-1.25-0.41-0.67-0.87-1.8C567.05,231.65,561.69,214.39,562.52,186.45z M567.62,188.21
			c0.47-0.04,0.78-0.43,1.37-0.48c-0.16-0.46-0.5-0.31-0.73-0.29C567.79,187.49,567.57,187.63,567.62,188.21z M568.04,191.47
			l0.23-0.02l-0.04-1.76l-0.14-0.22l-0.21,0.25L568.04,191.47z M589.24,253c0.13,0.11,0.48,0.07,0.47-0.04
			C589.7,252.84,589.23,252.89,589.24,253z M592.04,256.51l0.47-0.04l-0.02-0.23l-0.47,0.04L592.04,256.51z M592.76,256.68
			c0.01,0.12,0.24,0.09,0.23-0.02S592.75,256.56,592.76,256.68z M593.83,256.81l0.47-0.04l-0.02-0.23l-0.47,0.04L593.83,256.81z
			 M595.25,256.91c0.12-0.01,0.34-0.15,0.56-0.29l-1.17,0.11C594.78,256.96,595.02,256.94,595.25,256.91z M596.14,252.6l0.35-0.03
			l-0.02-0.23l-0.35,0.03L596.14,252.6z M596.18,256.83l1.05-0.1c-0.03-0.35-0.39-0.43-0.51-0.42
			C596.37,256.34,596.15,256.48,596.18,256.83z M600.9,185.73c0.02,0.23,0.26,0.21,0.23-0.02
			C601.24,185.58,600.89,185.61,600.9,185.73z"/>
		<path class="st0" d="M650.5,230.19c-0.86-0.93-2.08-2.63-3.13-4.01l-0.92,0.15c0.39,2.43,1.01,4.82,1.39,7.25
			c0.26,1.62,0.42,2.66,0.45,4.31l1.9,11.91c0.13,0.81,0.9,1.16,1.04,2.09c0.26,1.62-2.58,2.43-3.71,2.73l-0.23,0.04
			c-0.67,0.23-2.82,0.92-3.16,0.98c-0.12,0.02-1.48,0.36-2.06,0.45c-2.08,0.33-8.11,1.18-9.17-1.74l-12.35-75.93
			c-0.02-0.12,0.31-0.29,0.43-0.3c0.87-0.49,1.4-1.65,1.63-1.68l0.12-0.02c0.12-0.02,1.08,0.07,1.19,0.05
			c1.16-0.18,2.09-1.04,3.36-1.25c0.35-0.06,0.91-0.26,1.31,0.03c2.85-0.69,5.51-0.4,8.63-0.9l5.09-0.81
			c2.77-0.44,5.78-0.21,8.43-0.63c14.39-1.94,20.62,2.16,25.67,10.01c2.97,4.5,5.11,9.03,5.96,14.34c0.61,3.81,0.37,8.24-1.35,11.6
			c-0.62,1.29-0.56,2.46-1.18,3.75c-0.58,0.8-1.4,1.65-2.23,2.37c-2.27,2.14-3.86,4.05-6.72,5.46c-0.33,0.17-1.56,0.61-2.55,1.12
			c0.46,0.64,2.17,3.21,2.51,3.87c2.06,3.23,4.48,6.52,6.96,9.44c0.98,0.91,2.18,1.79,3.04,2.72c0.59,0.74,0.99,1.74,1.7,2.46
			l1.19,0.76c0.77,0.35,3.53,5.01,3.71,6.17c0.11,0.69-6.22,2.65-6.45,2.69c-2.08,0.33-12.88,0.99-13.82,0.31
			c-0.12,0.02-0.36-0.77-0.38-0.89l-1.21-0.88c-2.62-2.31-3.94-3.88-6.17-6.72c-0.02-0.12-0.5-0.87-0.51-0.99
			c-0.3-0.43-1.37-1.92-1.39-2.03l-6.07-6.86C651.23,231.03,650.92,230.6,650.5,230.19z M625.91,184.56l0.17,1.04
			c0.07-1.08,0.01-1.42-0.12-2.23l-0.09-0.58C625.59,183.3,625.82,183.98,625.91,184.56z M629.68,209.68
			c0.12-0.02,0.06-0.37-0.07-0.46C629.49,209.24,629.59,209.82,629.68,209.68z M629.71,211.34l0.05,0.35
			c0.35-0.06,0.12-0.73,0.1-0.85l-0.07-0.46C629.64,210.88,629.66,210.99,629.71,211.34z M629.99,213.07
			c0.1-0.13-0.01-0.83-0.15-0.92C629.71,212.05,629.89,213.21,629.99,213.07z M636.38,248.69c0.12-0.02,0.1-0.13-0.02-0.12
			C636.25,248.59,636.28,248.82,636.38,248.69z M636.39,253.19c0.02,0.12,0.13,0.1,0.25,0.08c0.12-0.02,0.94-0.03,1.17-0.07
			c0.35-0.06,3.45-0.67,3.38-1.13c-1.62,0.26-2.41-0.21-3.33-0.06c-0.35,0.06-1.56,0.6-1.49,1.07L636.39,253.19z M638.23,215.67
			l0.39-0.54l-0.46,0.07L638.23,215.67z M644.57,211.58c15.44-0.57,21.72-1.33,16.06-17.5c-1.98-5.73-9.84-5.19-16.99-3.22
			c-0.79,0.25-1.6,0.37-2.28,0.6L644.57,211.58z M668.49,183.93l0.23-0.04l-0.04-0.23l-0.23,0.04L668.49,183.93z M669.01,184.2
			c0.02,0.12,0.27,0.19,0.27,0.19l-0.04-0.23l-0.25-0.08L669.01,184.2z M669.42,203.11c0.23-0.04,0.16-0.5-0.07-0.46
			C669.11,202.68,669.19,203.14,669.42,203.11z M670.82,186.64l-0.06-0.35c-0.07-0.46-0.49-0.87-0.9-1.16l0.04,0.23
			C670,185.94,670.32,186.48,670.82,186.64z M671,202.62c0.12-0.02,0.08-0.25-0.04-0.23S670.89,202.64,671,202.62z M673.55,191.07
			c0.12-0.02,0.1-0.13-0.04-0.23C673.39,190.86,673.45,191.2,673.55,191.07z M674.73,208.9c0.12-0.02,0.08-0.25-0.04-0.23
			C674.58,208.69,674.61,208.92,674.73,208.9z M677.56,199.91l-0.11-0.69c-0.11-0.69-0.22-2.1-1.08-2.32l0.06,0.35
			C676.52,197.83,676.78,199.44,677.56,199.91z M677.29,202.68c-0.02-0.12,0.18-0.38,0.14-0.62l-0.04-0.23l-0.23,0.04L677.29,202.68
			z M677.52,201.11l0.23-0.04l-0.04-0.23l-0.23,0.04L677.52,201.11z"/>
		<path class="st0" d="M697.91,239.67l-0.9-4.12c-0.05-0.23-0.76-1.27-0.78-1.39c-1.77-3.69-2.41-7.74-3.29-11.75
			c-1.85-8.46-3.29-16.66-5.28-25.21c0.04-0.37-0.13-2.25-0.21-2.59c-0.13-0.57-1.41-5.33-1.65-5.87c-0.43-1.94-1.28-3.67-1.73-5.73
			l-0.58-2.63c-0.07-0.34-0.45-3.14-0.52-3.48l-1.05-4.8c-0.6-3.82,4.8-4.89,7.66-5.51c0.23-0.05,0.46-0.1,0.69-0.15
			c0.69-0.15,1.28-0.16,1.97-0.31c1.6-0.35,3.29-0.84,4.78-1.17c2.63-0.58,4.87-0.23,6.83,1.62c1.38,1.38,2.15,3.24,3.3,4.67
			c1.96,2.93,4.12,5.69,6.08,8.62c2.02,2.67,3.83,4.91,6.09,7.54c3.73,4.46,7.81,8.84,11.97,13.08c1.1,1.2,1.54,2.66,2.87,3.81
			l0.12,0.57l0.23-0.05c0.11-0.03-0.49-4.45-0.77-5.7c-0.15-0.69-0.49-0.61-0.67-1.41c0.23-0.05,0.48,0.01,0.53,0.24
			c0.11-0.02,0.18-0.28,0.18-0.28c-0.03-0.11-0.21-0.43-0.33-0.41l-0.7-3.2l-0.49-0.61c0,0-0.77-1.87-1.03-2.53
			c-1.98-5.2-3.32-10.78-4.47-16.04l0.23-0.05c0.11-0.03,0.48,1.09,0.6,1.66c0.17,0.2,0.38,1.72,0.43,1.94
			c0.21,0.43,0.7,2.12,0.89,2.44l0.11-0.02l-1.23-5.6c-0.2-0.91-1.03-0.85-1.25-1.88c0.46-0.1,0.76,0.19,0.95,0.51l-0.73-3.32
			l-0.69,0.15c0,0-0.69-2.61-1.06-3.72l-0.03-0.11c-0.33-1.49-0.38-3.39-0.11-4.89c-0.03-0.11,0.17-0.88,0.28-0.9
			c0.19-0.76-0.11-2.13,0.23-2.21l0.11-0.03c0.11-0.03,0.28,0.18,0.39,0.15c0.46-0.1,1.3-0.64,1.82-1c0.23-0.05,1.69-0.49,2.03-0.57
			c0.46-0.1,1.97-0.31,2.08-0.34c0.23-0.05,3.62-0.43,4.65-0.66c2.59-0.21,4.38,0.84,6.2,2.6l0.05,0.23
			c0.53,2.4,0.71,4.88,0.87,7.24l0.25,1.14c0.03,0.11,0.09,0.94,0,1.08c1.42,5.92,2.26,11.97,3.56,17.92l0.3,1.37
			c3.04,10.6,7.36,21.04,9.74,31.91c0.1,0.46,0.34,1-0.04,1.45c0.94,3.75,1.49,7.34,1.6,11.15l-0.18,0.28l-0.11,0.03l-1.55-0.5
			l-0.69,0.15l-1.82,1l-3.89,0.85c-3.43,0.75-5.82,0.79-9.17,0.81c-1.19,0.02-2.83,0.74-3.87,0.37c-1.29-0.44-2.63-2.18-3.48-3.31
			c-0.24-0.55-2.7-4.68-3.2-5.29l-4.33-5.52c-0.85-1.13-1.99-1.96-3.06-3.04c-4.91-6-10.34-11.64-15.36-17.61l-0.56-0.36l2.2,10.06
			c0.76,1.27,1.23,3.45,1.79,4.88l0.03,0.11c0.03,0.11,0.02,1.19,0.07,1.42l0.05,0.23l0.3,0.29c1.12,4.55,2.21,8.98,3.67,13.46
			c0.7,2.12,1.6,4.56,2.1,6.85l0.35,1.6c-1.71,3.13-5.64,3.27-8.65,4.29c-1.23,0.39-2.73,1.2-3.99,1.47
			c-1.49,0.33-6.16,0.87-6.69-1.53C698.86,242.94,698.03,240.24,697.91,239.67z M706.53,194.75l-0.05-0.23l-0.23,0.05L706.53,194.75
			z M709.99,238.46l0.23-0.05l-0.15-0.69l-0.23,0.05L709.99,238.46z M725.81,166.8l0.34-0.08l-0.1-0.46
			C725.85,166.43,725.76,166.57,725.81,166.8z M726.52,171.68c0.14,0.09,0.3,0.29,0.42,0.27l0.05,0.23l-0.65-0.22L726.52,171.68z
			 M726.25,168.26c0.23-0.05,0.15-0.39-0.08-0.34C726.06,167.94,726.14,168.29,726.25,168.26z M726.52,170l0.11-0.02l-0.23-1.03
			L726.52,170z M728.22,173.94c0.11-0.03,0.06-0.25-0.05-0.23C728.05,173.74,728.13,174.08,728.22,173.94z M728.77,176.46
			c0.06-0.25-0.14-1.17-0.3-1.37C728.3,174.88,728.71,176.71,728.77,176.46z M729.28,170.59l0.18-0.28l-0.63-2.86l-0.23,0.05
			L729.28,170.59z M728.71,166.88c0.09-0.14,0.06-0.25-0.08-0.34C728.52,166.57,728.59,166.91,728.71,166.88z M732.72,195.61
			c-0.11,0.03-0.29-0.77-0.15-0.69C732.71,195.01,732.81,195.47,732.72,195.61z M735.73,174.33c0.23-0.05,0.15-0.39-0.07-0.34
			C735.55,174.02,735.62,174.36,735.73,174.33z M757.8,222c-0.11,0.02-0.16-0.2-0.05-0.23C757.98,221.72,758,221.83,757.8,222z
			 M758.32,222.72c-0.34,0.08-0.42-0.27-0.07-0.34C758.47,222.33,758.55,222.67,758.32,222.72z"/>
		<path class="st0" d="M764.15,202.16c-0.04-0.23-0.89-4.84-1.19-6.69c-0.74-4.62-1.14-10.13-1.98-14.62
			c-0.85-10.53-1.95-21.86-3.86-32.35c0.27-0.52,1.17-1.61,1.73-1.82c3.17,0.56,6.93-0.39,10.05-0.89
			c5.43-0.87,10.66-2.29,16.09-3.16c3.58-0.57,7.34-0.82,10.84-1.14l9.5-0.69c3.64-0.22,5.14,3.21,5.62,6.22
			c0.24,1.5,1.35,10.69-1.66,11.17l-21.04,3.36c-2.02-0.03-3.85,0.38-5.93,0.71c-1.85,0.29-3.86,1.09-5.74,1.15
			c-0.29,0.4,0.33,7.3,0.37,7.53l0.02,0.12l0.15,0.21l-0.1,0.13c0.07,0.46,0.12,2.23,0.19,2.7c0.04,0.23-0.16,1.21-0.01,1.42
			c0.04,0.23,0.53,1.1,0.67,1.2c0.63,0.25,0.96,0.08,1.66-0.03l14.72-1.4l4.86-0.77c0.46-0.07,2.93-0.23,3.29-0.17
			c2.57,1.25,3.64,4.99,4.05,7.53c0.5,3.12-0.1,5.35-1.98,7.67c-0.2,0.27-0.62,0.57-0.57,0.92l-22.73,3.15l-0.56,0.21l0.07,0.46
			c0.63,3.93,1.41,8.07,2.28,12.08c0.17,0.33,0.47,1.47,0.47,1.47l1.41-0.11l10.75-1.72c0.23-0.04,2.25,0,2.37-0.02
			c0.81-0.13,7.15-1.26,7.98-1.27c3.47-0.55,9.07-2.63,11.46,1.25c0.46,0.64,1.46,2.49,1.62,2.71l0.18,1.16
			c0.29,1.85,0.82,9.59-1.98,10.63l-5.43,0.87c-8.79,1.4-17.61,1.86-26.28,3.24c-3.58,0.57-6.81,2.63-10.4,3.2l-0.23,0.04
			c-0.48-0.04-2.52-0.19-2.87-0.14c-0.98-0.2-2.59-0.65-2.78-1.81C768.44,222.35,764.84,205.73,764.15,202.16z M761.81,179.3
			c0.23-0.04,0.16-0.5-0.07-0.46C761.5,178.87,761.57,179.34,761.81,179.3z M765.92,157.54c0.29-0.4,0.24-0.75,0.18-1.1
			c-0.09-0.58-0.4-1-0.84-1.53l0.11,0.69C765.51,156.42,765.56,156.77,765.92,157.54z M779.51,188.45l0.23-0.04l-0.15-0.92
			l-0.23,0.04L779.51,188.45z M782.33,189.78c0.23-0.04,0.16-0.5-0.07-0.46C782.14,189.33,782.21,189.8,782.33,189.78z
			 M782.94,157.91c0.23-0.04,0.16-0.5-0.07-0.46C782.63,157.48,782.7,157.94,782.94,157.91z M784.49,147.58
			c0.1-0.13,0.08-0.25-0.06-0.35C784.2,147.27,784.26,147.62,784.49,147.58z M785.34,219.77l0.69-0.11l-0.13-0.81
			C785.44,218.92,785.24,219.19,785.34,219.77z M791.47,153.46c0.23-0.04,0.16-0.5-0.07-0.46
			C791.17,153.04,791.24,153.5,791.47,153.46z M793.89,212.48c0,0,1.19,0.05,1.54-0.01c0.12-0.02,0.79-0.24,0.74-0.59l-2.31,0.37
			L793.89,212.48z M795.73,153.38c0.04,0.23,0.38,0.18,0.46-0.07C796.17,153.19,795.71,153.26,795.73,153.38z M798.42,153.18
			l2.2-0.35l-0.04-0.23l-2.43,0.39L798.42,153.18z M811.78,215.31c0.12-0.02,0.35-0.06,0.46-0.07c1.96-0.31,3.7-0.59,3.31-3.02
			c-0.81,0.13-1.3,1.51-1.57,2.03l-2.2,0.35c-0.12,0.02-0.79,0.25-0.87,0.5C811.1,215.54,811.78,215.31,811.78,215.31z
			 M814.43,209.67c-0.09-0.58-0.79-0.47-1.27-0.51c-0.48-0.04-1.54,0.01-1.66,0.03l-0.08,0.25
			C812.33,209.89,813.51,209.82,814.43,209.67z"/>
		<path class="st0" d="M848.27,194.87c-0.86-0.93-2.08-2.63-3.13-4.01l-0.92,0.15c0.39,2.43,1.01,4.82,1.39,7.25
			c0.26,1.62,0.42,2.66,0.45,4.31l1.9,11.91c0.13,0.81,0.9,1.16,1.04,2.09c0.26,1.62-2.58,2.43-3.71,2.73l-0.23,0.04
			c-0.67,0.23-2.82,0.92-3.16,0.98c-0.12,0.02-1.48,0.35-2.06,0.45c-2.08,0.33-8.11,1.18-9.17-1.74l-12.35-75.92
			c-0.02-0.12,0.31-0.29,0.42-0.3c0.87-0.49,1.4-1.65,1.63-1.68l0.11-0.02c0.12-0.02,1.08,0.07,1.19,0.05
			c1.16-0.18,2.09-1.04,3.36-1.25c0.35-0.06,0.91-0.26,1.31,0.03c2.85-0.69,5.51-0.4,8.63-0.9l5.09-0.81
			c2.77-0.44,5.78-0.21,8.44-0.63c14.39-1.94,20.62,2.16,25.67,10.01c2.97,4.5,5.11,9.02,5.96,14.34c0.61,3.81,0.37,8.24-1.35,11.6
			c-0.62,1.29-0.56,2.46-1.18,3.75c-0.58,0.8-1.4,1.65-2.23,2.37c-2.27,2.14-3.86,4.05-6.72,5.46c-0.33,0.17-1.56,0.61-2.55,1.12
			c0.46,0.64,2.17,3.21,2.51,3.87c2.06,3.23,4.48,6.52,6.96,9.44c0.97,0.91,2.18,1.79,3.04,2.72c0.59,0.73,0.99,1.74,1.7,2.46
			l1.19,0.76c0.77,0.35,3.53,5.01,3.71,6.17c0.11,0.69-6.22,2.65-6.45,2.69c-2.08,0.33-12.88,0.99-13.82,0.31
			c-0.12,0.02-0.36-0.77-0.38-0.89l-1.21-0.88c-2.62-2.31-3.94-3.88-6.17-6.72c-0.02-0.12-0.5-0.87-0.51-0.99
			c-0.3-0.42-1.37-1.92-1.39-2.03l-6.07-6.86C848.99,195.7,848.69,195.27,848.27,194.87z M823.68,149.23l0.17,1.04
			c0.06-1.08,0.01-1.42-0.12-2.23l-0.09-0.58C823.36,147.98,823.58,148.65,823.68,149.23z M827.45,174.36
			c0.12-0.02,0.06-0.37-0.07-0.46C827.26,173.91,827.35,174.49,827.45,174.36z M827.47,176.01l0.06,0.35
			c0.35-0.06,0.12-0.73,0.1-0.85l-0.07-0.46C827.4,175.55,827.42,175.66,827.47,176.01z M827.75,177.75
			c0.1-0.13-0.01-0.83-0.15-0.92C827.47,176.72,827.65,177.88,827.75,177.75z M834.14,213.36c0.12-0.02,0.1-0.13-0.02-0.12
			C834.01,213.26,834.05,213.49,834.14,213.36z M834.15,217.87c0.02,0.12,0.13,0.1,0.25,0.08c0.12-0.02,0.94-0.03,1.17-0.07
			c0.35-0.06,3.45-0.67,3.38-1.13c-1.62,0.26-2.41-0.21-3.33-0.06c-0.35,0.06-1.56,0.61-1.49,1.07L834.15,217.87z M835.99,180.34
			l0.39-0.54l-0.46,0.07L835.99,180.34z M842.33,176.25c15.44-0.57,21.72-1.33,16.06-17.5c-1.98-5.73-9.84-5.19-16.99-3.22
			c-0.79,0.25-1.6,0.37-2.28,0.6L842.33,176.25z M866.26,148.6l0.23-0.04l-0.04-0.23l-0.23,0.04L866.26,148.6z M866.78,148.87
			c0.02,0.12,0.27,0.19,0.27,0.19l-0.04-0.23l-0.25-0.08L866.78,148.87z M867.18,167.78c0.23-0.04,0.16-0.5-0.07-0.46
			C866.88,167.35,866.95,167.82,867.18,167.78z M868.59,151.31l-0.05-0.35c-0.07-0.46-0.49-0.87-0.9-1.16l0.04,0.23
			C867.76,150.61,868.09,151.16,868.59,151.31z M868.77,167.29c0.12-0.02,0.08-0.25-0.04-0.23
			C868.61,167.08,868.65,167.31,868.77,167.29z M871.31,155.74c0.12-0.02,0.1-0.13-0.04-0.23
			C871.16,155.53,871.21,155.87,871.31,155.74z M872.5,173.57c0.12-0.02,0.08-0.25-0.04-0.23
			C872.34,173.36,872.38,173.59,872.5,173.57z M875.33,164.58l-0.11-0.69c-0.11-0.69-0.21-2.1-1.08-2.32l0.05,0.35
			C874.29,162.5,874.54,164.12,875.33,164.58z M875.06,167.35c-0.02-0.12,0.18-0.38,0.14-0.61l-0.04-0.23l-0.23,0.04L875.06,167.35z
			 M875.28,165.78l0.23-0.04l-0.04-0.23l-0.23,0.04L875.28,165.78z"/>
		<path d="M119.76,445.46c-0.82,0-2.58-0.35-3.04-0.94c-0.58-3.04-1.05-6.56-1.17-9.72c0-0.7,0.12-5.85,0-6.56
			c0-0.23-0.12-1.17-0.23-1.29l-1.05-16.51c0-0.12-0.12-1.41-0.12-1.76c0-5.97,0.59-12.06,0.83-18.03l0-0.7
			c0.12-4.1,0.24-13.7,0.24-13.82c0-0.59,0.47-5.15,0.59-6.44c0.12-0.12,0.35-1.76,0.47-1.99c0-0.12-0.12-1.05,0-1.05
			c0.47-1.05,5.27-1.05,7.85-1.4l6.44,1.41c0.94,0.12,1.29,1.64,1.52,2.34c0.47,1.87,1.17,3.51,0.93,5.39l1.16,14.4l0,0.12
			c0,2.58-0.35,4.92-0.35,7.49l0,2.93l0.35,0.47c-0.12,0.94-0.12,5.5,0,6.44c0,0.35,0.12,2.58,0.12,2.93l0,0.23
			c0,1.29-0.24,2.46-0.24,3.86c0,0.23,0.12,1.17,0.12,1.52c0.23,0.35,0.35,1.29,0.35,1.76l0.7,13.46l0.35,0
			c2.69,0,5.15-0.11,7.73-0.11l3.51,0c0.35,0,2.93,0.12,3.28,0.12c1.41,0.12,2.46-0.23,3.28,0.7c0.35,0.23,1.52,1.52,1.87,1.76
			c0.12,1.05,0.35,1.17,0.94,2.11c0.47,1.05,0.58,2.58,0.58,3.86c0,1.76-1.06,5.27-3.4,5.27c-0.82,0-1.52-0.35-2.23-0.35l-0.59,0
			l-9.37,1.63L119.76,445.46z M126.82,369.94c0-0.35-0.12-0.94-0.59-1.17l-0.12,0.23l0,0.12
			C126.12,369.59,126.36,369.94,126.82,369.94z M125.63,417.59c-0.35,1.41-0.35,2.34-0.35,3.98l0.35,0c0,0,0.35-0.7,0.47-0.82
			c0-0.12-0.12-0.7-0.12-0.7l0.59,0c0-0.35-0.23-0.35-0.47-0.35l0-0.59l0.47,0l-0.12-0.23l-0.23-0.35l0-0.23l0.47-0.47l0-3.98
			l-0.23-0.23c-0.59,0.23-0.23,1.4-0.59,1.99c0.35-0.12,0.35,0.23,0.35,0.47C126.22,416.78,125.75,416.89,125.63,417.59z
			 M125.86,422.86l0.35,0c0-0.12-0.12-0.47-0.35-0.59L125.86,422.86z M126.1,421.58c0,0.23,0.12,0.23,0.12,0
			C126.21,421.46,126.1,421.46,126.1,421.58z"/>
		<path d="M162.82,415.54c-0.04-0.23-0.89-4.84-1.19-6.69c-0.74-4.62-1.14-10.13-1.98-14.62c-0.85-10.53-1.95-21.86-3.86-32.34
			c0.27-0.52,1.17-1.61,1.73-1.82c3.17,0.56,6.93-0.39,10.05-0.89c5.43-0.87,10.66-2.29,16.09-3.16c3.58-0.57,7.34-0.82,10.84-1.14
			l9.49-0.68c3.64-0.22,5.14,3.21,5.62,6.22c0.24,1.5,1.35,10.69-1.66,11.17l-21.04,3.36c-2.02-0.03-3.85,0.38-5.93,0.71
			c-1.85,0.3-3.86,1.09-5.74,1.15c-0.29,0.4,0.33,7.3,0.37,7.53l0.02,0.12l0.15,0.21l-0.1,0.13c0.07,0.46,0.12,2.23,0.19,2.7
			c0.04,0.23-0.16,1.21-0.01,1.42c0.04,0.23,0.53,1.1,0.67,1.2c0.63,0.25,0.96,0.08,1.66-0.03l14.72-1.4l4.86-0.78
			c0.46-0.07,2.93-0.23,3.29-0.17c2.57,1.25,3.64,4.99,4.05,7.54c0.5,3.12-0.09,5.35-1.98,7.67c-0.19,0.27-0.62,0.57-0.57,0.92
			l-22.73,3.15l-0.56,0.21l0.07,0.46c0.63,3.93,1.41,8.07,2.28,12.08c0.17,0.33,0.47,1.47,0.47,1.47l1.41-0.1l10.75-1.72
			c0.23-0.04,2.25,0,2.37-0.02c0.81-0.13,7.15-1.26,7.98-1.27c3.47-0.55,9.07-2.63,11.46,1.25c0.46,0.64,1.46,2.49,1.62,2.71
			l0.18,1.16c0.3,1.85,0.82,9.59-1.98,10.63l-5.43,0.87c-8.79,1.4-17.61,1.86-26.28,3.24c-3.58,0.57-6.81,2.63-10.4,3.2l-0.23,0.04
			c-0.48-0.04-2.52-0.19-2.87-0.14c-0.98-0.2-2.59-0.65-2.78-1.81C167.1,435.72,163.51,419.11,162.82,415.54z M160.47,392.68
			c0.23-0.04,0.16-0.5-0.07-0.46S160.24,392.71,160.47,392.68z M164.59,370.92c0.29-0.4,0.24-0.75,0.18-1.1
			c-0.09-0.58-0.4-1-0.84-1.53l0.11,0.69C164.18,369.8,164.23,370.14,164.59,370.92z M178.18,401.83l0.23-0.04l-0.15-0.92
			l-0.23,0.04L178.18,401.83z M181,403.16c0.23-0.04,0.16-0.5-0.07-0.46C180.81,402.71,180.88,403.17,181,403.16z M181.6,371.28
			c0.23-0.04,0.16-0.5-0.07-0.46C181.3,370.86,181.37,371.32,181.6,371.28z M183.16,360.96c0.1-0.13,0.08-0.25-0.06-0.35
			C182.87,360.65,182.93,361,183.16,360.96z M184,433.15l0.69-0.11l-0.13-0.81C184.11,432.3,183.91,432.57,184,433.15z
			 M190.14,366.84c0.23-0.04,0.16-0.5-0.07-0.46C189.84,366.41,189.91,366.88,190.14,366.84z M192.56,425.85
			c0,0,1.19,0.05,1.54-0.01c0.12-0.02,0.79-0.25,0.73-0.59l-2.31,0.37L192.56,425.85z M194.4,366.75c0.04,0.23,0.38,0.18,0.46-0.07
			C194.84,366.56,194.38,366.64,194.4,366.75z M197.09,366.56l2.2-0.35l-0.04-0.23l-2.43,0.39L197.09,366.56z M210.44,428.69
			c0.12-0.02,0.35-0.05,0.46-0.07c1.97-0.31,3.7-0.59,3.31-3.02c-0.81,0.13-1.3,1.51-1.57,2.03l-2.2,0.35
			c-0.12,0.02-0.79,0.24-0.87,0.5C209.77,428.92,210.44,428.69,210.44,428.69z M213.1,423.05c-0.09-0.58-0.79-0.47-1.27-0.51
			c-0.48-0.04-1.54,0.01-1.66,0.03l-0.08,0.25C211,423.27,212.18,423.2,213.1,423.05z"/>
		<path d="M245.66,430.05c-0.11,0.03-1.15,0.23-1.3,0.15c-0.22,0.07-1.63-0.11-2.03-0.24c-8.29-1.88-12.35-5.16-14.81-13.23
			c-1.95-6.38-1.66-9.04,5.39-11.2c4.81-1.47,10.11-1.37,13.03,3l0.27,0.9c0.84,3.54,1.6,6.85,5.78,7.29
			c0.89,0.1,1.77,0.19,2.56-0.05c3.14-0.96,2.99-7.04,2.28-9.39c-1.1-3.58-4.85-9.05-13.37-10.12
			c-12.99-1.66-24.85-2.81-28.62-15.13c-0.82-2.69-0.65-4.94-0.96-7.54c-0.26-10.08,5.96-16.15,14.43-21.3
			c1.41-0.19,2.66-1.3,3.89-1.68c12.09-3.69,24.38-3.53,28.32,9.35l0.03,0.11c0.05,2.56,1.9,8.23-0.62,9.98
			c-0.08,0.15-1.23,0.38-1.34,0.41c-0.11,0.03-1.32,0.89-1.54,0.96l-0.78,0.24c-6.61,2.02-12.24-2.01-14.92-7.56
			c-0.35-0.75-0.63-1.28-5.75-1.18l-0.67,0.2l1.1,0.4l-0.22,0.07c-0.67,0.2-1.37-0.07-2.26,0.2c-1.12,0.34-2.19,1.65-2.84,2.34
			c-4.79,4.77-0.6,12.06,5.61,12.36c7.84,0.42,15.6,2.58,23.28,4.89c6.76,2.1,12.86,8.44,14.55,16.37c0.53,2.53,0.06,5,0.17,7.78
			c0,1.59-0.78,3.05-1.23,4.78c-0.36,1.21-0.44,2.58-0.8,3.8c-1.8,6.55-7.81,10.1-14.08,12.01c-2.46,0.75-5.53,0.34-7.92,1.32
			L245.66,430.05z M237.13,408.9l-0.14-0.45c-0.03-0.11-1.26-0.11-1.74-0.08l-0.67,0.2C235.31,408.97,236.23,409.18,237.13,408.9z
			 M231.66,383.4l0.23-0.07l-0.03-0.11l-0.22,0.07L231.66,383.4z M233.25,383.4c0,0,1.09,0.77,1.5,0.89
			c0.18,0.19,1.2,0.73,1.46,0.78l-0.07-0.22l-1.2-0.73C234.65,383.95,233.43,383.59,233.25,383.4z M236.71,381.49
			c0.22-0.07,0.09-0.52-0.14-0.45C236.35,381.11,236.48,381.55,236.71,381.49z M257.4,427.19c0.22-0.07,0.09-0.52-0.14-0.45
			C257.04,426.81,257.18,427.26,257.4,427.19z M258.01,426.77l0.45-0.14l-0.07-0.22l-0.45,0.14L258.01,426.77z M254.04,369.7
			c0.22-0.07,0.53-0.28,0.42-0.62l-0.03-0.11c-0.48,0.03-2.36-0.5-2.92-0.33C251.75,369.42,253.26,369.94,254.04,369.7z"/>
		<path class="st0" d="M326.33,399.13c-0.93-0.85-2.29-2.45-3.46-3.73l-0.91,0.23c0.59,2.39,1.41,4.72,2,7.1
			c0.39,1.59,0.65,2.61,0.81,4.26l2.9,11.71c0.2,0.79,0.99,1.08,1.22,1.99c0.39,1.59-2.36,2.64-3.47,3.03l-0.23,0.06
			c-0.65,0.28-2.73,1.16-3.07,1.24c-0.11,0.03-1.45,0.48-2.02,0.62c-2.05,0.51-7.98,1.86-9.28-0.96l-18.72-74.61
			c-0.03-0.11,0.28-0.31,0.4-0.34c0.82-0.57,1.25-1.76,1.48-1.81l0.11-0.03c0.11-0.03,1.08-0.03,1.19-0.05
			c1.14-0.28,1.99-1.22,3.24-1.53c0.34-0.08,0.88-0.34,1.31-0.08c2.78-0.93,5.45-0.87,8.52-1.63l5-1.24
			c2.73-0.68,5.74-0.7,8.35-1.34c14.18-3.15,20.73,0.42,26.42,7.81c3.34,4.24,5.86,8.56,7.15,13.79c0.93,3.75,1.06,8.18-0.37,11.67
			c-0.51,1.33-0.35,2.5-0.86,3.83c-0.51,0.85-1.25,1.76-2.02,2.55c-2.08,2.32-3.5,4.36-6.23,6.01c-0.31,0.2-1.51,0.74-2.45,1.33
			c0.51,0.6,2.44,3.01,2.83,3.64c2.32,3.04,5.01,6.12,7.73,8.82c1.05,0.83,2.33,1.6,3.26,2.45c0.65,0.68,1.13,1.65,1.9,2.3
			l1.25,0.66c0.79,0.29,3.94,4.69,4.22,5.83c0.17,0.68-5.97,3.17-6.2,3.22c-2.05,0.51-12.76,2.07-13.75,1.47
			c-0.11,0.03-0.42-0.74-0.45-0.85l-1.28-0.77c-2.81-2.08-4.25-3.53-6.72-6.18c-0.03-0.11-0.57-0.83-0.59-0.94
			c-0.34-0.4-1.53-1.79-1.56-1.91l-6.63-6.32C327.13,399.9,326.79,399.5,326.33,399.13z M297.98,355.73l0.25,1.02
			c-0.03-1.08-0.11-1.42-0.31-2.22l-0.14-0.57C297.56,354.51,297.84,355.17,297.98,355.73z M303.86,380.45
			c0.11-0.03,0.03-0.37-0.11-0.45C303.63,380.03,303.77,380.59,303.86,380.45z M304.02,382.1l0.08,0.34
			c0.34-0.08,0.06-0.74,0.03-0.85l-0.11-0.45C303.91,381.64,303.94,381.76,304.02,382.1z M304.45,383.8
			c0.09-0.14-0.08-0.82-0.22-0.91C304.08,382.81,304.36,383.95,304.45,383.8z M313.82,418.75c0.11-0.03,0.09-0.14-0.03-0.11
			C313.68,418.67,313.74,418.89,313.82,418.75z M314.21,423.24c0.03,0.11,0.14,0.08,0.26,0.06s0.94-0.11,1.16-0.17
			c0.34-0.08,3.38-0.96,3.27-1.41c-1.59,0.39-2.41,0-3.32,0.22c-0.34,0.08-1.51,0.74-1.39,1.19L314.21,423.24z M312.88,385.7
			l0.34-0.57l-0.45,0.11L312.88,385.7z M318.85,381.08c15.34-1.87,21.53-3.16,14.52-18.79c-2.46-5.54-10.24-4.34-17.2-1.77
			c-0.77,0.31-1.56,0.51-2.22,0.79L318.85,381.08z M340.36,351.51l0.23-0.06l-0.06-0.23l-0.23,0.06L340.36,351.51z M340.89,351.74
			c0.03,0.11,0.28,0.17,0.28,0.17l-0.06-0.23l-0.25-0.06L340.89,351.74z M342.9,370.54c0.23-0.06,0.11-0.51-0.11-0.45
			C342.56,370.15,342.67,370.6,342.9,370.54z M342.91,354.02l-0.08-0.34c-0.11-0.45-0.57-0.82-0.99-1.08l0.06,0.23
			C342.03,353.39,342.4,353.9,342.91,354.02z M344.43,369.92c0.11-0.03,0.06-0.26-0.06-0.23
			C344.26,369.72,344.32,369.95,344.43,369.92z M345.99,358.2c0.11-0.03,0.09-0.14-0.06-0.23C345.82,358,345.91,358.34,345.99,358.2
			z M348.68,375.87c0.11-0.03,0.06-0.25-0.06-0.23C348.51,375.67,348.56,375.9,348.68,375.87z M350.74,366.67l-0.17-0.68
			c-0.17-0.68-0.39-2.07-1.27-2.22l0.08,0.34C349.53,364.68,349.92,366.27,350.74,366.67z M350.71,369.45
			c-0.03-0.11,0.14-0.4,0.09-0.63l-0.06-0.23l-0.23,0.06L350.71,369.45z M350.8,367.86l0.23-0.06l-0.06-0.23l-0.23,0.06
			L350.8,367.86z"/>
		<path class="st0" d="M365.11,389.53c-0.04-0.23-0.89-4.84-1.19-6.69c-0.74-4.62-1.14-10.13-1.98-14.62
			c-0.85-10.53-1.95-21.86-3.86-32.34c0.27-0.52,1.17-1.61,1.73-1.82c3.17,0.56,6.93-0.39,10.05-0.89
			c5.43-0.87,10.66-2.29,16.09-3.16c3.58-0.57,7.34-0.82,10.84-1.14l9.49-0.68c3.64-0.23,5.14,3.21,5.62,6.22
			c0.24,1.5,1.35,10.69-1.66,11.17l-21.04,3.36c-2.02-0.03-3.85,0.38-5.93,0.71c-1.85,0.29-3.86,1.09-5.74,1.15
			c-0.29,0.4,0.33,7.3,0.37,7.53l0.02,0.12l0.15,0.21l-0.1,0.13c0.07,0.46,0.12,2.23,0.19,2.7c0.04,0.23-0.16,1.21-0.01,1.42
			c0.04,0.23,0.53,1.1,0.67,1.2c0.63,0.26,0.96,0.08,1.66-0.03l14.72-1.4l4.86-0.77c0.46-0.07,2.93-0.23,3.29-0.17
			c2.57,1.25,3.64,4.99,4.05,7.53c0.5,3.12-0.1,5.35-1.98,7.67c-0.19,0.27-0.62,0.57-0.56,0.92L382.13,381l-0.56,0.21l0.07,0.46
			c0.63,3.93,1.41,8.07,2.28,12.08c0.17,0.33,0.47,1.47,0.47,1.47l1.41-0.11l10.75-1.71c0.23-0.04,2.25,0,2.37-0.02
			c0.81-0.13,7.15-1.26,7.98-1.27c3.47-0.55,9.06-2.63,11.46,1.25c0.46,0.64,1.47,2.49,1.62,2.71l0.18,1.16
			c0.29,1.85,0.82,9.59-1.98,10.63l-5.43,0.87c-8.79,1.4-17.61,1.86-26.28,3.24c-3.58,0.57-6.81,2.63-10.4,3.2l-0.23,0.04
			c-0.48-0.04-2.52-0.19-2.87-0.14c-0.98-0.2-2.59-0.65-2.78-1.81C369.4,409.71,365.8,393.09,365.11,389.53z M362.77,366.66
			c0.23-0.04,0.16-0.5-0.07-0.46C362.46,366.24,362.54,366.7,362.77,366.66z M366.89,344.9c0.29-0.4,0.24-0.75,0.18-1.1
			c-0.09-0.58-0.4-1-0.84-1.53l0.11,0.69C366.47,343.78,366.52,344.13,366.89,344.9z M380.47,375.81l0.23-0.04l-0.15-0.92
			l-0.23,0.04L380.47,375.81z M383.29,377.14c0.23-0.04,0.16-0.5-0.07-0.46C383.1,376.7,383.18,377.16,383.29,377.14z M383.9,345.27
			c0.23-0.04,0.16-0.5-0.07-0.46S383.67,345.31,383.9,345.27z M385.45,334.95c0.1-0.13,0.08-0.25-0.05-0.35
			C385.16,334.64,385.22,334.98,385.45,334.95z M386.3,407.13l0.69-0.11l-0.13-0.81C386.4,406.29,386.2,406.56,386.3,407.13z
			 M392.44,340.83c0.23-0.04,0.16-0.5-0.07-0.46C392.13,340.4,392.21,340.86,392.44,340.83z M394.86,399.84c0,0,1.19,0.05,1.54-0.01
			c0.12-0.02,0.79-0.25,0.74-0.59l-2.31,0.37L394.86,399.84z M396.69,340.74c0.04,0.23,0.38,0.18,0.46-0.07
			C397.14,340.55,396.67,340.63,396.69,340.74z M399.39,340.55l2.2-0.35l-0.04-0.23l-2.43,0.39L399.39,340.55z M412.74,402.68
			c0.12-0.02,0.35-0.05,0.46-0.07c1.96-0.31,3.7-0.59,3.31-3.02c-0.81,0.13-1.3,1.51-1.57,2.03l-2.2,0.35
			c-0.12,0.02-0.79,0.24-0.87,0.5C412.06,402.91,412.74,402.68,412.74,402.68z M415.39,397.04c-0.09-0.58-0.79-0.47-1.27-0.51
			c-0.48-0.04-1.54,0.01-1.66,0.03l-0.08,0.25C413.29,397.25,414.47,397.19,415.39,397.04z"/>
		<path class="st0" d="M440.49,397.97c-0.12,0.02-1.17,0.07-1.31-0.03c-0.23,0.04-1.59-0.34-1.98-0.51
			c-7.95-3-11.52-6.82-12.85-15.14c-1.05-6.59-0.4-9.18,6.89-10.35c4.97-0.79,10.2,0.03,12.5,4.76l0.15,0.92
			c0.34,3.62,0.64,7.01,4.72,8.02c0.86,0.22,1.73,0.44,2.54,0.31c3.24-0.52,3.93-6.56,3.55-8.98c-0.59-3.7-3.55-9.63-11.85-11.86
			c-12.64-3.44-24.23-6.21-26.26-18.93c-0.44-2.78,0.03-4.99,0.09-7.6c1.13-10.02,8.13-15.17,17.23-19.11
			c1.42,0.01,2.82-0.92,4.09-1.13c12.49-1.99,24.64-0.14,26.76,13.16l0.02,0.12c-0.31,2.54,0.75,8.42-1.99,9.8
			c-0.1,0.13-1.27,0.2-1.39,0.22s-1.43,0.7-1.66,0.74l-0.81,0.13c-6.82,1.09-11.85-3.68-13.73-9.55c-0.25-0.79-0.45-1.35-5.53-1.96
			l-0.69,0.11l1.04,0.55l-0.23,0.04c-0.69,0.11-1.34-0.26-2.27-0.11c-1.16,0.18-2.4,1.33-3.13,1.92c-5.4,4.06-2.26,11.86,3.86,13.02
			c7.71,1.5,15.1,4.71,22.39,8.05c6.41,3.01,11.57,10.13,12.15,18.22c0.17,2.58-0.63,4.96-0.9,7.73c-0.22,1.58-1.19,2.92-1.88,4.57
			c-0.53,1.15-0.79,2.5-1.31,3.65c-2.68,6.24-9.13,8.93-15.6,9.96c-2.54,0.41-5.52-0.42-8.03,0.21L440.49,397.97z M434.94,375.85
			l-0.07-0.46c-0.02-0.12-1.23-0.28-1.71-0.32l-0.69,0.11C433.14,375.66,434.02,376,434.94,375.85z M433.05,349.83l0.23-0.04
			l-0.02-0.12l-0.23,0.04L433.05,349.83z M434.62,350.05c0,0,0.98,0.91,1.36,1.09c0.15,0.21,1.09,0.89,1.34,0.97l-0.04-0.23
			l-1.09-0.89C435.93,350.79,434.78,350.27,434.62,350.05z M438.31,348.63c0.23-0.04,0.16-0.5-0.07-0.46
			S438.08,348.67,438.31,348.63z M452.51,396.76c0.23-0.04,0.16-0.5-0.07-0.46S452.28,396.8,452.51,396.76z M453.16,396.42
			l0.46-0.07l-0.04-0.23l-0.46,0.07L453.16,396.42z M457.1,339.35c0.23-0.04,0.56-0.21,0.5-0.55l-0.02-0.12
			c-0.48-0.04-2.27-0.82-2.84-0.73C454.87,338.76,456.29,339.48,457.1,339.35z"/>
		<path class="st0" d="M500.66,393.95c-0.11,0.03-1.16,0.18-1.31,0.09c-0.23,0.06-1.62-0.19-2.02-0.33
			c-8.19-2.27-12.09-5.74-14.17-13.91c-1.64-6.47-1.23-9.11,5.92-10.93c4.88-1.24,10.16-0.89,12.88,3.61l0.23,0.91
			c0.67,3.58,1.28,6.92,5.43,7.56c0.88,0.14,1.76,0.28,2.56,0.08c3.18-0.81,3.32-6.89,2.72-9.27c-0.92-3.63-4.41-9.27-12.88-10.74
			c-12.9-2.28-24.69-3.99-27.87-16.47c-0.69-2.72-0.42-4.97-0.6-7.58c0.22-10.08,6.72-15.84,15.42-20.59
			c1.42-0.12,2.72-1.18,3.97-1.49c12.25-3.12,24.52-2.37,27.84,10.68l0.03,0.11c-0.08,2.56,1.51,8.31-1.1,9.94
			c-0.09,0.14-1.25,0.32-1.36,0.35c-0.11,0.03-1.36,0.83-1.59,0.89l-0.79,0.2c-6.69,1.7-12.14-2.59-14.54-8.26
			c-0.32-0.76-0.57-1.3-5.69-1.45l-0.68,0.17l1.08,0.45l-0.23,0.06c-0.68,0.17-1.36-0.14-2.27,0.09c-1.13,0.29-2.27,1.54-2.95,2.2
			c-5.01,4.54-1.17,12.02,5.02,12.62c7.81,0.79,15.46,3.32,23.03,5.99c6.65,2.42,12.44,9.04,13.75,17.04c0.41,2.55-0.18,5-0.2,7.78
			c-0.08,1.59-0.92,3.01-1.46,4.72c-0.42,1.19-0.56,2.56-0.98,3.75c-2.1,6.45-8.28,9.72-14.64,11.33c-2.5,0.64-5.54,0.08-7.98,0.94
			L500.66,393.95z M493.14,372.43l-0.11-0.45c-0.03-0.11-1.25-0.17-1.73-0.16l-0.68,0.17C491.32,372.41,492.23,372.66,493.14,372.43
			z M488.89,346.69l0.23-0.06l-0.03-0.11l-0.23,0.06L488.89,346.69z M490.48,346.77c0,0,1.05,0.82,1.45,0.96
			c0.17,0.2,1.17,0.79,1.42,0.85l-0.06-0.23l-1.17-0.79C491.84,347.39,490.65,346.97,490.48,346.77z M494.02,345.02
			c0.23-0.06,0.11-0.51-0.12-0.45C493.68,344.63,493.79,345.08,494.02,345.02z M512.52,391.66c0.23-0.06,0.11-0.51-0.11-0.45
			S512.3,391.72,512.52,391.66z M513.15,391.26l0.45-0.12l-0.06-0.23l-0.45,0.12L513.15,391.26z M511.9,334.08
			c0.23-0.06,0.54-0.26,0.45-0.6l-0.03-0.11c-0.48,0-2.33-0.62-2.9-0.47C509.62,333.69,511.1,334.28,511.9,334.08z"/>
		<path class="st0" d="M557.79,377.79c-4.1-0.41-9.04-0.93-12.72-3.19c-9.24-5.88-13.43-17.3-15.07-27.59
			c-0.06-0.35-0.07-1.17-0.09-1.29c-0.31-4.93-0.58-10.34-0.41-15.23c-0.51-0.99,0.88-4.88,1.06-5.98
			c0.73-5.1,0.75-10.91,3.61-15.28c0.58-0.8,3.01-4.16,3.48-4.94c1.85-1.01,3.33-2.9,5.03-4.12c0.48,0.04,0.56-0.21,1-0.4
			c2.78-1.16,5.25-2.02,8.14-2.48c11.1-1.77,20.76,0.84,26.7,10.56c0.74,0.95,2.08,1.92,2.63,3.14c0.02,0.12,0.21,0.56,0.36,0.77
			c0.43,1.23,0.92,2.82,1.47,4.03c0.46,0.64,1.07,1.49,1.31,2.28c1.18,4.44,2.83,8.8,3.56,13.42c0.09,0.58,0.09,1.29-0.19,1.81
			l0.24,1.5c0.22,1.39,0.56,2.76,0.76,4.03c0.55,3.47-0.05,7.12-0.21,10.58c-0.21,3.12-1.16,6.11-1.87,9.07
			c-0.38,2.08-0.64,4.13-1.66,5.96c-3.97,7.04-10.76,11.32-18.62,12.58l-0.58,0.09c-1.04,0.17-6.17,0.75-7.34,0.82
			C558.29,377.95,557.91,377.77,557.79,377.79z M534.26,306.85c-0.02-0.12,0.33-0.17,0.23-0.04
			C534.53,307.04,534.42,307.06,534.26,306.85z M550.21,350.31c2.1,5,6.84,13.14,13.2,12.12c1.16-0.18,1.56-0.6,2.99-1.31
			c3.56-2.23,3.78-3.8,4.19-7.19c0.06-0.37,0.02-0.6,0.08-0.96l0.41-3.38c0.07-1.79-0.36-3.74-0.62-5.35
			c-1.14-7.17-2.37-14.09-5.34-20.84c-1.25-2.65-4.68-8.5-7.69-9.56c-0.65-0.37-1.92-0.17-2.5-0.08c-6.59,1.05-8.18,8.18-8.85,13.62
			c-0.17,1.92,0.17,4-0.12,5.95c0,0-0.43,0.3-0.41,0.42l0.11,0.69c0.46,2.89,1.73,5.65,1.98,8.7
			C548.6,343.92,549.66,349.09,550.21,350.31z M556.65,361.73l0.35-0.06c-0.29-0.31-0.55-0.5-1.02-0.43
			C556.06,361.7,556.31,361.78,556.65,361.73z M557.24,374.32l0.23-0.04l-0.27-0.2L557.24,374.32z M557.34,362.33l0.23-0.04
			l-0.27-0.19L557.34,362.33z M573.02,369.9c0.12-0.02,0.06-0.37-0.06-0.35C572.73,369.6,572.78,369.94,573.02,369.9z
			 M574.12,368.66c-0.12,0.02-0.1,0.13-0.08,0.25l0.12-0.02c0,0,0.1-0.13,0.08-0.25l-0.02-0.12L574.12,368.66z M575.55,315.2
			l-0.02-0.12c-0.04-0.23-0.34-0.66-0.57-0.62C575.02,314.81,575.3,315.12,575.55,315.2z M581.69,348.48l0.23-0.04l-0.07-0.46
			C581.75,348.12,581.65,348.25,581.69,348.48z"/>
		<path class="st0" d="M589.2,301.14c-0.07-0.46-0.05-1.06,0.38-1.36c1.04-0.17,2.04-0.56,3.03-1.08c0.12-0.02,1.48-0.36,1.71-0.39
			c2.31-0.37,11.35-1.69,12.92,1.5l1,6.24c0.06,0.35,0.16,2.47,0.08,2.72c0.04,0.23,0.37,1.6,0.28,1.73
			c0.02,0.12-0.04,0.48-0.16,0.5c6.41,47.59,8.74,47.33,15.67,46.23c1.27-0.2,3.8-1.44,4.16-2.92c-0.02-0.12,0.07-1.08,0.01-1.42
			c-0.73-9.01-1.95-18.18-3.28-27.22l-1-6.24c-0.05-0.35-0.14-1.64-0.08-2c-0.88-6.26-2.33-13.14-2.75-19.48
			c0.24-0.75,0.47-0.79,0.78-1.07c1.22-1.26,2.79-3.29,4.47-3.92c1.7-0.51,2.72-0.79,4.11-1.01c1.85-0.3,2.85,0.02,4.3,0.97
			l1.57,0.93c0.92,0.57,2.31,5.56,2.49,6.72c0.15,0.92,0.78,4.14,0.18,4.83l0.39,2.43c0.44,2.77,0.89,5.55,3.53,16.16
			c1.12,7.05,1.75,13.95,2.26,20.86c0.24,4.47,0.92,8.75,0.54,13.07c-0.2,0.98-0.19,2.52-0.39,3.5c-0.12,0.02-0.35,0.77-0.45,0.9
			c-4.34,6.27-7.68,8.34-15.24,10.73c-0.35,0.06-2.37,0.74-2.49,0.75l-2.43,0.39c-6.13,0.98-10.93-0.87-16.29-4.04
			c-4.6-2.82-6-5.68-8.28-10.3c-0.55-1.22-0.46-0.64-0.99-1.74C596.7,345.94,590.21,329.08,589.2,301.14z M594.4,302.56
			c0.46-0.07,0.75-0.48,1.33-0.57c-0.19-0.44-0.52-0.27-0.75-0.24C594.52,301.83,594.31,301.98,594.4,302.56z M595.03,305.78
			l0.23-0.04l-0.16-1.75l-0.15-0.21l-0.19,0.27L595.03,305.78z M620.26,365.78c0.13,0.1,0.48,0.04,0.46-0.07
			C620.7,365.59,620.24,365.66,620.26,365.78z M623.27,369.09l0.46-0.07l-0.04-0.23l-0.46,0.07L623.27,369.09z M624,369.21
			c0.02,0.12,0.25,0.08,0.23-0.04S623.99,369.1,624,369.21z M625.08,369.28l0.46-0.07l-0.04-0.23l-0.46,0.07L625.08,369.28z
			 M626.51,369.29c0.12-0.02,0.33-0.17,0.54-0.32l-1.16,0.18C626.04,369.36,626.28,369.32,626.51,369.29z M627.11,364.92l0.35-0.05
			l-0.04-0.23l-0.35,0.06L627.11,364.92z M627.43,369.14l1.04-0.17c-0.06-0.35-0.42-0.41-0.54-0.39
			C627.59,368.64,627.38,368.79,627.43,369.14z M627.45,297.88c0.04,0.23,0.27,0.19,0.23-0.04
			C627.77,297.71,627.43,297.77,627.45,297.88z"/>
		<path class="st0" d="M676.28,343.05c-0.8-0.98-1.9-2.76-2.86-4.21l-0.93,0.09c0.22,2.45,0.68,4.88,0.91,7.32
			c0.15,1.63,0.25,2.68,0.16,4.34l1.1,12.01c0.07,0.82,0.82,1.22,0.9,2.15c0.15,1.63-2.73,2.25-3.89,2.47l-0.23,0.02
			c-0.69,0.18-2.87,0.74-3.22,0.77c-0.12,0.01-1.5,0.26-2.09,0.31c-2.1,0.19-8.17,0.63-9.03-2.34l-7.27-76.58
			c-0.01-0.12,0.33-0.26,0.45-0.28c0.9-0.44,1.5-1.55,1.74-1.57l0.12-0.01c0.12-0.01,1.07,0.14,1.19,0.13
			c1.17-0.11,2.15-0.9,3.43-1.02c0.35-0.03,0.92-0.2,1.3,0.12c2.89-0.5,5.52-0.04,8.67-0.33l5.13-0.47c2.8-0.26,5.78,0.17,8.46-0.07
			c14.49-0.98,20.43,3.53,24.94,11.7c2.67,4.69,4.5,9.35,5,14.71c0.35,3.85-0.18,8.25-2.12,11.48c-0.71,1.24-0.72,2.42-1.43,3.66
			c-0.64,0.76-1.5,1.55-2.38,2.22c-2.4,1.99-4.12,3.79-7.06,5c-0.34,0.15-1.6,0.5-2.62,0.95c0.41,0.67,1.95,3.35,2.25,4.02
			c1.84,3.36,4.03,6.8,6.32,9.88c0.91,0.97,2.06,1.93,2.85,2.91c0.54,0.77,0.87,1.8,1.53,2.56l1.13,0.84
			c0.74,0.4,3.19,5.23,3.29,6.4c0.06,0.7-6.38,2.23-6.61,2.25c-2.1,0.19-12.92,0.13-13.81-0.61c-0.12,0.01-0.31-0.8-0.32-0.91
			l-1.15-0.95c-2.46-2.48-3.67-4.13-5.71-7.12c-0.01-0.12-0.44-0.9-0.45-1.02c-0.28-0.45-1.24-2-1.25-2.12l-5.6-7.25
			C676.95,343.93,676.67,343.48,676.28,343.05z M654.78,295.88l0.1,1.05c0.14-1.07,0.1-1.42,0.03-2.24l-0.05-0.58
			C654.54,294.61,654.72,295.29,654.78,295.88z M656.87,321.2c0.12-0.01,0.08-0.36-0.04-0.47
			C656.71,320.74,656.76,321.33,656.87,321.2z M656.79,322.85l0.03,0.35c0.35-0.03,0.17-0.72,0.16-0.84l-0.04-0.47
			C656.74,322.39,656.75,322.5,656.79,322.85z M656.95,324.6c0.1-0.13,0.04-0.83-0.09-0.93
			C656.73,323.56,656.84,324.73,656.95,324.6z M660.96,360.56c0.12-0.01,0.11-0.13-0.01-0.12S660.85,360.69,660.96,360.56z
			 M660.67,365.06c0.01,0.12,0.13,0.11,0.24,0.1c0.12-0.01,0.94,0.03,1.18,0.01c0.35-0.03,3.49-0.44,3.44-0.91
			c-1.63,0.15-2.39-0.37-3.32-0.28c-0.35,0.03-1.6,0.5-1.56,0.97L660.67,365.06z M665,327.74l0.42-0.51l-0.47,0.04L665,327.74z
			 M671.6,324.08c15.44,0.46,21.76,0.12,17.19-16.4c-1.6-5.85-9.47-5.83-16.74-4.34c-0.81,0.19-1.62,0.27-2.31,0.45L671.6,324.08z
			 M697.31,298.08l0.23-0.02l-0.02-0.23l-0.23,0.02L697.31,298.08z M697.8,298.39c0.01,0.12,0.26,0.21,0.26,0.21l-0.02-0.23
			l-0.24-0.1L697.8,298.39z M696.95,317.28c0.23-0.02,0.19-0.49-0.04-0.47C696.68,316.83,696.72,317.3,696.95,317.28z
			 M699.45,300.94l-0.03-0.35c-0.04-0.47-0.44-0.9-0.82-1.22l0.02,0.23C698.68,300.19,698.96,300.75,699.45,300.94z M698.57,316.9
			c0.12-0.01,0.09-0.24-0.02-0.23C698.43,316.67,698.45,316.91,698.57,316.9z M701.87,305.54c0.12-0.01,0.11-0.13-0.02-0.23
			C701.73,305.32,701.77,305.67,701.87,305.54z M701.87,323.41c0.12-0.01,0.1-0.24-0.02-0.23
			C701.73,323.19,701.75,323.42,701.87,323.41z M705.29,314.63l-0.06-0.7c-0.06-0.7-0.08-2.11-0.92-2.38l0.03,0.35
			C704.39,312.48,704.54,314.11,705.29,314.63z M704.84,317.38c-0.01-0.12,0.2-0.37,0.18-0.61l-0.02-0.23l-0.23,0.02L704.84,317.38z
			 M705.17,315.82l0.23-0.02l-0.02-0.23l-0.23,0.02L705.17,315.82z"/>
		<path class="st0" d="M727.84,343.39c-0.95-1.46-3.89-5.21-3.97-5.56l-3.52-7.23c-1-2.17-1.79-4.51-2.68-6.7
			c-0.17-0.2-1.2-2-1.25-2.23l-0.19-0.8c-0.76-3.19-1.68-6.58-1.62-9.84c-0.15-1.65,0.02-9.03,0.12-10.62
			c-1.98-5.79,0.92-13.34,3.9-18.02c-0.05-0.23,0.52-0.85,0.61-0.99c0.98-0.95,0.9-1.3,1.76-2.22c3.26-4.02,9.07-5.89,13.74-6.99
			c2.39-0.57,5.15-0.62,7.68-0.62c5.68,0.09,12.04,0.51,15.27,6c1.42,2.43,3.02,4.1,3.7,6.94c0.16,0.68,0.1,1.42,0.29,2.22
			c0.08,0.34,0.39,0.63,0.5,1.09c0.87,3.65-1.62,7.36-4.92,8.15c-3.87,0.92-9.27,1-11.4-3.43c-0.31-0.29-1.89-3.88-1.97-4.23
			c-0.47-0.97-1.27-0.78-2.07-0.59c-0.11,0.03-0.11,0.03-0.23,0.05c-4.44,1.05-8.26,4.25-10.1,8.66c-0.23,0.54-0.09,0.62-0.07,1.22
			c0.03,0.11,0.14,0.57,0.05,0.71c-0.83,3.09,0.46,11.56,1.14,14.41l0.49,2.05c4.08,22.74,22.68,29.63,23.92,8.52
			c0.01-0.48,0.01-0.97,0.04-1.34c0.31-4.29,0.4-5.39,4.96-6.47c4.33-1.03,8.62-1.69,11.93,2.1c0.34,0.4,0.36,0.52,0.47,0.97
			c0.13,0.57-0.06,2.78-1.01,8.9c-0.03,2.41-0.59,4.59-1.16,6.77c-0.56,1.7-0.67,3.77-1.48,5.41c-3.14,6.52-9.85,9.68-16.35,11.23
			c-4.1,0.97-7.79,0.65-11.81-0.08c-5.27-0.91-9.33-3.32-13.81-6.47C728.77,344.26,728.01,343.59,727.84,343.39z M723.63,315.03
			l-0.11-0.46l-0.06,0.26L723.63,315.03z M725.13,320.81c-0.03-0.11-0.29-1.73-0.37-2.08c-0.19-0.8-0.37-2.08-0.99-3.14l-0.03,0.37
			c0,0,0.13,1.05,0.18,1.28C724.22,318.5,724.49,319.64,725.13,320.81z M733.9,279.74c0.11-0.03,0.43-0.22,0.35-0.56l-0.03-0.11
			c-0.11,0.03-0.26-0.06-0.37-0.03l-0.11,0.03c-0.11,0.03-0.43,0.22-0.43,0.22l-0.09,0.14C733.3,279.76,733.67,279.79,733.9,279.74z
			 M755.3,346.02l0.23-0.05c-0.08-0.34,0.19-1.25,0.08-1.7l-0.03-0.11c-0.11,0.03-1.37,0.33-1.21,1.01
			C754.48,345.61,754.85,346.12,755.3,346.02z M755.04,291.2l0.03,0.11c0.2-0.17,0.6-0.5,0.55-0.73c-0.05-0.23-0.11-0.46-0.48-0.49
			C754.85,290.41,754.95,290.86,755.04,291.2z M765.57,327.93c0.11-0.03,0.09-0.14-0.03-0.11
			C765.43,327.85,765.48,328.07,765.57,327.93z"/>
		<path class="st0" d="M777.02,321.66c-0.04-0.23-0.89-4.84-1.18-6.69c-0.74-4.62-1.14-10.13-1.98-14.62
			c-0.85-10.53-1.95-21.86-3.86-32.34c0.27-0.52,1.17-1.61,1.73-1.82c3.17,0.56,6.93-0.39,10.05-0.89
			c5.43-0.87,10.66-2.29,16.09-3.16c3.58-0.57,7.34-0.82,10.84-1.14l9.5-0.68c3.64-0.22,5.14,3.21,5.62,6.22
			c0.24,1.5,1.35,10.69-1.66,11.17l-21.04,3.36c-2.02-0.03-3.85,0.38-5.93,0.71c-1.85,0.29-3.86,1.09-5.75,1.15
			c-0.29,0.4,0.33,7.3,0.37,7.53l0.02,0.12l0.15,0.21l-0.1,0.13c0.07,0.46,0.12,2.23,0.19,2.7c0.04,0.23-0.16,1.21-0.01,1.42
			c0.04,0.23,0.53,1.1,0.66,1.2c0.63,0.25,0.96,0.08,1.66-0.03l14.71-1.4l4.86-0.77c0.46-0.07,2.93-0.23,3.29-0.17
			c2.57,1.25,3.64,4.99,4.05,7.54c0.5,3.12-0.1,5.35-1.98,7.67c-0.19,0.27-0.62,0.57-0.57,0.92l-22.73,3.15l-0.56,0.21l0.07,0.46
			c0.63,3.93,1.41,8.07,2.28,12.08c0.17,0.33,0.47,1.47,0.47,1.47l1.41-0.11l10.75-1.71c0.23-0.04,2.25,0,2.37-0.02
			c0.81-0.13,7.15-1.26,7.98-1.27c3.47-0.55,9.07-2.63,11.46,1.25c0.46,0.64,1.46,2.49,1.62,2.71l0.18,1.16
			c0.3,1.85,0.82,9.59-1.98,10.63l-5.43,0.87c-8.79,1.4-17.61,1.86-26.28,3.24c-3.58,0.57-6.81,2.63-10.4,3.2l-0.23,0.04
			c-0.48-0.04-2.52-0.19-2.87-0.14c-0.98-0.2-2.59-0.65-2.78-1.81C781.31,341.85,777.71,325.23,777.02,321.66z M774.67,298.8
			c0.23-0.04,0.16-0.5-0.07-0.46C774.37,298.37,774.44,298.84,774.67,298.8z M778.79,277.04c0.29-0.4,0.24-0.75,0.18-1.1
			c-0.09-0.58-0.4-1-0.84-1.53l0.11,0.69C778.38,275.92,778.43,276.27,778.79,277.04z M792.38,307.95l0.23-0.04l-0.15-0.92
			l-0.23,0.04L792.38,307.95z M795.2,309.28c0.23-0.04,0.16-0.5-0.07-0.46C795.01,308.83,795.08,309.3,795.2,309.28z M795.81,277.41
			c0.23-0.04,0.16-0.5-0.07-0.46S795.57,277.44,795.81,277.41z M797.36,267.08c0.1-0.13,0.08-0.25-0.06-0.35
			C797.07,266.77,797.13,267.12,797.36,267.08z M798.2,339.27l0.69-0.11l-0.13-0.81C798.31,338.42,798.11,338.69,798.2,339.27z
			 M804.34,272.96c0.23-0.04,0.16-0.5-0.07-0.46S804.11,273,804.34,272.96z M806.76,331.97c0,0,1.19,0.05,1.54-0.01
			c0.12-0.02,0.79-0.25,0.74-0.59l-2.31,0.37L806.76,331.97z M808.6,272.88c0.04,0.23,0.38,0.18,0.46-0.07
			C809.04,272.69,808.58,272.76,808.6,272.88z M811.29,272.68l2.2-0.35l-0.04-0.23l-2.43,0.39L811.29,272.68z M824.65,334.81
			c0.12-0.02,0.35-0.06,0.46-0.07c1.96-0.31,3.7-0.59,3.31-3.02c-0.81,0.13-1.3,1.51-1.57,2.03l-2.2,0.35
			c-0.12,0.02-0.79,0.24-0.87,0.5C823.97,335.04,824.65,334.81,824.65,334.81z M827.3,329.17c-0.09-0.58-0.79-0.47-1.27-0.51
			c-0.48-0.04-1.54,0.01-1.66,0.03l-0.08,0.25C825.2,329.39,826.38,329.32,827.3,329.17z"/>
		<path class="st0" d="M851.35,336.47c-0.12,0.01-1.18-0.06-1.3-0.17c-0.23,0.01-1.55-0.51-1.91-0.73
			c-7.57-3.85-10.7-8.04-11.11-16.46c-0.32-6.67,0.61-9.17,7.98-9.53c5.03-0.24,10.14,1.15,11.9,6.11l0.05,0.94
			c-0.06,3.64-0.13,7.04,3.81,8.49c0.83,0.31,1.67,0.62,2.49,0.58c3.27-0.16,4.63-6.08,4.51-8.54c-0.18-3.74-2.47-9.96-10.48-13.09
			c-12.19-4.8-23.4-8.83-24.02-21.7c-0.14-2.81,0.58-4.95,0.93-7.55c2.22-9.84,9.75-14.18,19.22-17.1c1.41,0.17,2.9-0.61,4.19-0.67
			c12.63-0.61,24.51,2.57,25.16,16.02l0.01,0.12c-0.58,2.49-0.18,8.45-3.06,9.52c-0.11,0.12-1.29,0.06-1.4,0.07s-1.5,0.54-1.73,0.55
			l-0.82,0.04c-6.9,0.33-11.37-4.96-12.6-11c-0.16-0.81-0.3-1.39-5.28-2.56l-0.7,0.03l0.97,0.66l-0.23,0.01
			c-0.7,0.03-1.31-0.41-2.24-0.36c-1.17,0.06-2.53,1.06-3.32,1.57c-5.81,3.45-3.54,11.54,2.4,13.36c7.5,2.34,14.49,6.33,21.37,10.46
			c6.04,3.69,10.39,11.34,10.08,19.44c-0.11,2.58-1.17,4.86-1.74,7.58c-0.39,1.54-1.51,2.77-2.37,4.33
			c-0.65,1.09-1.06,2.4-1.71,3.48c-3.35,5.91-10.05,7.87-16.6,8.19c-2.57,0.12-5.44-1.03-8-0.67L851.35,336.47z M848.27,313.88
			l-0.02-0.47c0-0.12-1.19-0.41-1.66-0.51l-0.7,0.03C846.49,313.49,847.33,313.92,848.27,313.88z M849.24,287.81l0.23-0.01
			l-0.01-0.12l-0.23,0.01L849.24,287.81z M850.78,288.2c0,0,0.87,1.01,1.23,1.23c0.13,0.23,0.99,1.01,1.23,1.11l-0.01-0.23
			l-0.99-1.01C852,289.08,850.91,288.43,850.78,288.2z M854.6,287.2c0.23-0.01,0.21-0.48-0.02-0.47
			C854.34,286.74,854.37,287.21,854.6,287.2z M863.43,336.59c0.23-0.01,0.21-0.48-0.02-0.47
			C863.18,336.13,863.2,336.6,863.43,336.59z M864.12,336.32l0.47-0.02l-0.01-0.23l-0.47,0.02L864.12,336.32z M874.3,280.04
			c0.23-0.01,0.58-0.15,0.56-0.5l-0.01-0.12c-0.47-0.09-2.16-1.07-2.75-1.04C872.15,279.2,873.48,280.07,874.3,280.04z"/>
	</g>
</g>
</svg>
