<?xml version="1.0" encoding="utf-8"?>
<!-- Generator: Adobe Illustrator 27.9.5, SVG Export Plug-In . SVG Version: 9.03 Build 54986)  -->
<svg version="1.1" id="Calque_1" xmlns="http://www.w3.org/2000/svg" xmlns:xlink="http://www.w3.org/1999/xlink" x="0px" y="0px"
	 viewBox="0 0 388.71 450.64" style="enable-background:new 0 0 388.71 450.64;" xml:space="preserve">
<style type="text/css">
	.st0{fill:#FFF0E3;}
	.st1{fill:#292726;}
</style>
<g>
	<path class="st0" d="M197.75,38.43c5.7-0.02,11.46,0.37,16.68-2.71c1.11-0.66,2.44-0.34,3.68-0.27c-0.2,2.21,1.67,1.27,2.33,1.2
		c6.08-0.7,11.81-2.76,16.3-6.88c3.97-3.64,7.62-7.78,11.45-11.48c4.03-3.89,10.09-5.97,16.19-6.52c2-0.18,3.19,0.61,3.64,2.25
		c0.35,1.3,1.39,2.76-0.86,4.03c-2.44,1.38-4.48,3.54-6.53,5.52c-5.35,5.15-9.38,11.62-15.74,15.78c-0.32,0.21-0.78,0.64-0.33,1.29
		c1.35,0.29,2.87-0.1,3.75-0.9c3.66-3.28,8.01-5.73,11.23-9.54c3.95-4.67,8.86-8.39,13.3-12.52c2.6-2.41,7.12-3.43,11.11-4.03
		c1.07-0.16,2.92-0.13,2.49,1.27c-1.32,4.36-0.2,9.6-5.19,12.73c-3.73,2.34-6.7,5.87-10.32,8.41c-5.8,4.08-8.77,10.88-14.66,14.82
		c-0.37,0.25-0.57,0.83,0.15,1.53c6.79-5.41,13.46-11.03,19.71-17.12c3.63-3.54,8-5.73,12.45-7.81c1.77-0.82,3.92-0.95,5.68,0.43
		c1.19,0.93,1.51,2.58,1.03,3.67c-1.62,3.7-3.02,7.57-5.88,10.6c-0.81,0.17-0.98,0.78-1.04,1.48c0,0,0.02-0.03,0.02-0.03
		c-0.35,0.09-0.84,0.07-1.04,0.29c-5.07,5.68-9.39,12-14.78,17.41c-0.78,0.78-0.7,1.8-0.61,2.79c-2.49,2.93-5.22,5.59-8.27,7.93
		c-1.85-0.18-3.03,0.72-3.76,2.34c0.21,2.5-2.36,2.08-3.5,2.98c-5,3.92-9.97,7.92-16.08,10.23c-2.5,0.94-3.03,0.05-3.84-1.82
		c-1.23-2.83-1.04-6.45-4.4-8.16c-0.43-0.22-0.38-1.3-1.21-1.05c-0.8,0.25-1.04,1.06-1.13,1.8c-0.27,2.22,0.86,4.08,1.67,6.02
		c2.35,5.68,1.16,7.57-4.96,7.74c-4.31,0.12-8.63-0.25-12.94,0.4c-2.46,0.37-4.16-0.54-4.97-3.23c-0.66-2.21-1.17-4.72-3.87-6.31
		c0.36,1.99,0.46,3.6,0.96,5.08c0.92,2.72,0.58,3.7-2.71,3.39c-13.95-1.32-27.69-3.78-41.33-6.93c-10.13-2.34-20.2-4.92-30.6-6.04
		c-5.16-0.56-10.29-0.39-15.43-0.6c-1.15-0.05-1.95,0.36-1.96-1.49c-0.02-11.37-5.38-20.79-11.42-29.85
		c-1.18-1.77-3.36-2.86-3.38-5.37c0.2-0.62,0.34-1.98,1.02-1.42c1.82,1.5,4.19,0.27,5.93,1.58c-1.44,2.45,1.01,1.6,1.68,1.74
		c14.07,3.02,26-3.18,37.87-9.18c8.77-4.43,17.68-6.32,27.36-3.74c2.68,0.71,4.17,3.06,6.62,4.02c5.8,2.26,11.14,5.43,16.61,8.36
		c7.57,4.06,15.35,7.61,24.15,8.22c5.3,0.37,10.71-0.06,15.84,2.01c1.7,0.69,3.71,1.62,3.41,3.23c-0.35,1.87-1.72,3.92-4.26,4.02
		c-1.96,0.08-3.94-0.07-5.89,0.1c-10.06,0.89-20.11,0.22-30.15-0.35c-0.91-0.05-2.19-0.96-2.32,0.54c-0.13,1.57,1.51,0.93,2.31,0.98
		c7.54,0.42,15.08,0.78,22.63,1.04c5.09,0.17,10.19,0.42,15.25-0.39c2.89-0.46,5.17-2.04,6.36-4.55c1.16-2.43-0.33-4.3-2.03-6.24
		c-2.24-2.55-5.12-3.13-8.07-3.86c-6.28-1.55-12.83,0.07-19.11-1.73C208.26,43.93,202.25,42.93,197.75,38.43z"/>
	<path class="st0" d="M54.04,392.49c1.31,0.11,2.83-0.91,3.85,0.74c5.95,2.71,12.35,2.49,18.37,1.39
		c8.82-1.61,16.58-6.3,24.62-10.21c7.49-3.64,15.81-5.72,24.12-3.1c8.52,2.69,16.46,6.89,24.22,11.36
		c10.3,5.94,21.14,9.94,33.26,9.57c3.03-0.09,5.88,0.78,8.75,1.71c1.81,0.59,3.51,1.61,3.26,3.34c-0.24,1.68-1.63,3.33-3.66,3.8
		c-0.84,0.2-1.73,0.45-2.57,0.38c-7.35-0.58-14.69,0.9-22.06-0.17c-3.53-0.51-7.19-0.17-10.79-0.26c-1.06-0.03-1.92,0.1-2.35,1.91
		c3.84,0,7.56-0.22,11.23,0.04c8.76,0.64,17.5,1.55,26.29,0.45c4.06-0.51,7.31-2.8,7.82-5.7c0.44-2.49-2.19-5.83-5.59-7.46
		c-2.53-1.21-5.17-1.71-7.9-2.01c-0.82-0.09-2.48,0.22-2.07-1.34c1.24-4.82,2.09-10.63,5.96-13.39c6.5-4.64,10.53-11.71,17.31-15.87
		c4.47-2.74,9.1-4.8,14.4-5.2c1.82-0.14,2.91,0.75,3.29,2.29c0.34,1.36,1.01,2.69-0.96,3.99c-3.93,2.61-7.3,5.97-10.41,9.57
		c-2.89,3.34-5.95,6.54-9.01,9.72c-0.66,0.69-1.75,0.94-2.48,1.58c-0.74,0.64-1.82,1.22-1.49,3.01c6.25-2.72,10.76-7.14,15.42-11.44
		c5.15-4.76,9.53-10.5,16.05-13.6c2.53-1.2,5.28-2.02,8-2.76c2.17-0.59,3.3,0.37,2.63,2.71c-1.27,4.37-1.22,9.03-6.07,12.03
		c-9.48,5.87-16.19,15.04-24.72,22.09c-0.53,0.44-1.74,0.95-0.26,2.26c6.93-6.1,13.98-12.13,20.81-18.41
		c3.72-3.42,8-5.69,12.59-7.51c1.81-0.72,3.77-0.64,5.21,0.89c1.22,1.3,1.22,2.83,0.4,4.49c-4.66,9.49-10.31,18.31-17.44,26.13
		c-8.66,9.5-18.44,17.61-29.32,24.53c-6.65,4.22-13.89,7.6-21.3,8.45c-6.74,0.77-13.85,1.24-20.96,0
		c-11.05-1.94-22.34-2.34-33.33-4.93c-11.45-2.7-22.92-5.35-34.46-7.57c-6.87-1.32-13.9-1.58-20.94-1.4
		c-0.98,0.03-2.97,0.65-2.95-1.73c0.06-9.41-4.2-17.43-8.73-25.21c-1.1-1.89-1.6-4.78-4.43-5.45l0.08,0.09
		C55.15,395.02,54.59,393.76,54.04,392.49z"/>
	<path class="st0" d="M239.37,286.9c-0.2,0.56-0.45,1.22-1.12,1.12c-0.93-0.14-0.73-1.02-0.8-1.68c0.17-0.15,0.36-0.28,0.5-0.46
		c0.05-0.06,0.02-0.28-0.02-0.3c-3.22-1.31-6.43-2.64-9.67-3.91c-1.48-0.58-1.76-1.22-1.43-3c1.25-6.72,4.3-12.83,6.05-19.35
		c0.23-0.85,0.57-1.5,1.43-1.19c3.29,1.17,6.52-0.21,9.78-0.11c4.49,0.13,9.06,0.3,13.48-0.32c7.45-1.05,14.96-1.7,22.41-3.02
		c5.27-0.94,9.97-3.49,15.31-3.73c-5.89,0.48-11.67,1.91-17.5,2.16c-11.56,0.49-23.02,3-34.65,1.91c-4.15-0.39-8.43,0.54-12.44-1.44
		c-1.43-0.71-2.13-1.7-2.26-3.1c-0.13-1.5,0.61-2.31,2.12-3.01c4.29-2,8.83-2.39,13.4-2.52c11.17-0.31,20.95-4.53,30.17-10.42
		c3.1-1.28,6.21-2.56,9.31-3.84c2.98-3.62,7.31-4.46,11.49-5.71c8.57-2.56,16.78-2.01,24.79,2.13c8.39,4.33,16.72,8.98,25.98,11.09
		c7.37,1.68,14.79,0.97,21.84-2.12c1.38,0.27,3.36-0.97,3.85,1.53c0.36,3.37-0.67,6.61-1.11,9.88c-1.04,7.72-0.11,16.07-6.29,22.38
		c-1.21,1.23-2.3,3.43-3.92,3.01c-2.01-0.52-0.83-2.83-0.66-4.24c0.67-5.38,1.59-10.73,2.42-16.1c-3.43,5.84-5.07,12.2-5.44,18.85
		c-0.13,2.32-0.7,2.61-2.98,2.54c-7.42-0.24-14.91,0.13-22.15,1.55c-11.15,2.19-22.3,4.44-33.39,6.98
		c-9.07,2.07-18.56,2.8-27.87,3.74C259.87,287.21,249.58,286.72,239.37,286.9z"/>
	<path class="st1" d="M274.13,234.52c-9.22,5.89-19,10.11-30.17,10.42c-4.57,0.13-9.11,0.51-13.4,2.52c-1.5,0.7-2.25,1.51-2.12,3.01
		c0.13,1.4,0.83,2.4,2.26,3.1c4.01,1.98,8.29,1.05,12.44,1.44c11.63,1.09,23.09-1.41,34.65-1.91c5.83-0.25,11.61-1.68,17.5-2.16
		c-5.33,0.24-10.03,2.79-15.31,3.73c-7.45,1.32-14.95,1.97-22.41,3.02c-4.42,0.62-8.99,0.45-13.48,0.32
		c-3.27-0.1-6.5,1.28-9.78,0.11c-0.86-0.3-1.2,0.34-1.43,1.19c-1.76,6.52-4.8,12.64-6.05,19.35c-0.33,1.78-0.05,2.42,1.43,3
		c3.24,1.27,6.45,2.59,9.67,3.91c0.05,0.02,0.07,0.24,0.02,0.3c-0.14,0.17-0.33,0.31-0.5,0.46c-3.56,1.15-6.74-0.08-9.71-1.8
		c-1.98-1.14-2.73-0.54-3.45,1.37c-3.54,9.41-7.23,18.77-10.76,28.19c-6.88,18.36-13.7,36.75-20.52,55.13
		c-0.66,1.79-1.18,3.64-1.13,5.8c3.47-2.88,6.81-5.93,10.43-8.6c4.63-3.41,9.72-6.04,15.55-6.73c5.37-0.63,6.96,0.72,8.03,6.71
		c2.5-2.03,5.37-3.05,8.24-4.15c3.39-1.31,6.75-1.62,9.81,0.44c1.73,1.16,1.04,7.17-0.8,10.17c-0.38,0.62-0.68,1.28-1.02,1.93
		c-0.23,0.36-0.72,0.99-0.66,1.05c0.52,0.49,1.09,0.2,1.62-0.09c3.2-1.25,6.23-0.36,7.97,2.18c2.14,3.13,0.98,6.87-0.66,9.89
		c-11.21,20.68-26.49,37.55-46.89,49.56c-10.65,6.27-22.18,9.11-34.45,9.43c-3.94,0.1-7.5-1.58-11.34-2.07
		c-5.5-0.7-11.04-0.73-16.55-1.66c-13.95-2.33-27.58-6.09-41.43-8.78c-8.72-1.69-17.41-3.94-26.39-4.15
		c-2.42-0.06-4.72-0.54-6.71,1.78c-1.29,1.51-3.67,1.21-5.25,0.16c-3.5-2.32-5.94-5.12-6.72-9.83c-1.16-7.04-1.75-14.08-2.18-21.16
		c-0.14-2.34,0.46-4.67-0.12-7.04c-0.2-0.8-0.3-2.6,1.69-1.58c0.56,1.26,1.11,2.53,1.67,3.79c-0.73-0.19-1.52-0.48-1.32,0.84
		c0.75,4.94,1.04,9.91,1.48,14.88c0.41,4.65,1.33,9.35,2.79,13.77c0.5,1.51,3.21,2.5,5.1,3.24c0.87,0.34,1.67-1.02,1.51-2.09
		c-0.92-6.36-1.72-12.73-4.14-18.79c-1.63-4.08-4.66-7.5-5.51-11.93c2.84,0.67,3.33,3.56,4.43,5.45c4.53,7.78,8.79,15.79,8.73,25.21
		c-0.01,2.38,1.98,1.76,2.95,1.73c7.03-0.18,14.07,0.08,20.94,1.4c11.55,2.22,23.02,4.87,34.46,7.57
		c10.99,2.59,22.29,2.99,33.33,4.93c7.11,1.25,14.22,0.77,20.96,0c7.41-0.85,14.65-4.23,21.3-8.45
		c10.88-6.91,20.66-15.03,29.32-24.53c7.13-7.82,12.79-16.64,17.44-26.13c0.81-1.66,0.81-3.19-0.4-4.49
		c-1.44-1.54-3.39-1.61-5.21-0.89c-4.59,1.82-8.87,4.1-12.59,7.51c-6.83,6.28-13.88,12.31-20.81,18.41
		c-1.48-1.31-0.27-1.83,0.26-2.26c8.53-7.05,15.25-16.22,24.72-22.09c4.85-3.01,4.8-7.67,6.07-12.03c0.68-2.34-0.46-3.3-2.63-2.71
		c-2.72,0.74-5.46,1.55-8,2.76c-6.52,3.1-10.9,8.84-16.05,13.6c-4.65,4.3-9.17,8.72-15.42,11.44c-0.33-1.78,0.75-2.37,1.49-3.01
		c0.74-0.63,1.82-0.89,2.48-1.58c3.06-3.18,6.12-6.38,9.01-9.72c3.11-3.6,6.48-6.96,10.41-9.57c1.96-1.3,1.29-2.64,0.96-3.99
		c-0.38-1.54-1.47-2.43-3.29-2.29c-5.29,0.41-9.93,2.47-14.4,5.2c-6.79,4.16-10.82,11.23-17.31,15.87
		c-3.87,2.77-4.72,8.57-5.96,13.39c-0.4,1.57,1.26,1.25,2.07,1.34c2.74,0.31,5.38,0.81,7.9,2.01c3.4,1.62,6.02,4.96,5.59,7.46
		c-0.51,2.9-3.76,5.2-7.82,5.7c-8.79,1.09-17.53,0.18-26.29-0.45c-3.68-0.27-7.39-0.04-11.23-0.04c0.43-1.81,1.29-1.94,2.35-1.91
		c3.6,0.1,7.26-0.25,10.79,0.26c7.37,1.07,14.71-0.41,22.06,0.17c0.84,0.07,1.73-0.19,2.57-0.38c2.03-0.47,3.41-2.12,3.66-3.8
		c0.25-1.73-1.45-2.75-3.26-3.34c-2.86-0.93-5.72-1.8-8.75-1.71c-12.12,0.37-22.96-3.63-33.26-9.57
		c-7.75-4.47-15.7-8.68-24.22-11.36c-8.31-2.62-16.63-0.54-24.12,3.1c-8.04,3.91-15.8,8.6-24.62,10.21
		c-6.03,1.1-12.42,1.33-18.37-1.39c6.88-0.02,13.76,0.09,20.55-1.4c2.91-0.64,5.25-2.38,7.87-3.56c8.23-3.7,15.87-8.85,24.99-10.39
		c7.84-1.32,15.5-1.41,22.47,3.38c1.28,0.88,2.93,1.35,4.48,1.68c2.23,0.47,4.15,1.11,5.52,3.18c1.05,1.58,2.41,1.85,2.85-0.58
		c0.94-5.18,3.78-9.67,5.3-14.64c5.28-17.22,13.59-33.26,19.73-50.17c6.1-16.79,13.08-33.27,19.63-49.9
		c1.04-2.65,1.75-5.42,2.85-8.04c0.62-1.48-0.03-2.27-0.88-3.24c-5.3-6.04-10.5-12.2-14.8-18.97c-2.51-3.94-5.29-7.87-6.62-12.45
		c-1.6-5.49,1-8.71,6.69-8.62c0.61,0.01,1.21,0,2.12,0c-1.07-2.24-2.11-4.26-3-6.34c-1.84-4.33,0.89-8.33,5.52-7.78
		c3.13,0.37,6.34,0.83,8.93,3.11c0.85,0.75,2.19,0.94,3.3,1.39c-0.45,3.92,2.35,1.97,3.95,2.19l-0.1-0.07
		c-1.32,1.21,0.23,1.45,0.73,1.78c4.28,2.92,7.62,6.85,11.25,10.47c4.02,4.01,8.06,7.99,13.01,11.34c-1.45,0.64-2.09,0.16-2.84-0.38
		c-7.12-5.19-13.93-10.7-20.44-16.68c-4.82-4.43-9.58-9.42-16.64-10.57c-3.26-0.53-4.33,0.22-3.57,3.43
		c1.03,4.39,1.53,8.54,6.48,11.61c6.76,4.2,13.05,9.57,17.8,16.27c0.91,1.28,3.11,1.64,1.25,4.66c-2.67,4.33-3.67,9.68-5.41,14.59
		c-0.4,1.12-0.34,1.66,1.07,2.05c4.57,1.27,9.05,2.83,13.6,4.17c3.5,1.03,7.84,3.41,10.33,2.51c2.58-0.94,3.66-6.04,5.38-9.33
		c0.09-0.17-0.01-0.44-0.03-0.7c-0.37-0.07-0.75-0.09-1.09-0.22c-2-0.78-4.6-0.58-5.08-3.67c-0.51-3.36,0.13-5.55,3.35-7.7
		c4.94-3.3,10.27-3.5,15.68-3.74c9.76-0.43,18.81-3.06,27.17-8.1C272.21,233.99,273.49,232.9,274.13,234.52z M173.03,386.48
		c0.07-0.1,0.16-0.2,0.2-0.31c0.02-0.04-0.08-0.19-0.13-0.18c-2.17,0.04-3.92-1.28-5.92-1.81c-5.14-1.36-9.82-3.69-14.01-6.96
		c-1.6,2.78-3.3,5.77-5.05,8.73c-0.48,0.81-1.71,1.53-1.23,2.46c0.56,1.06,1.66,0.68,2.83,0.43c0.96-0.21,2.19,0.87,3.31,1.38
		c0.34,1.99,2.37,1.9,3.57,2.55c5.84,3.16,12.24,4.56,18.82,5.09c0.91,0.07,2.15,0.5,2.5-1.32c0.42-2.16,1.23-4.28,2.15-6.29
		c0.99-2.17,0.51-2.76-1.85-2.89C176.51,387.24,174.45,388.47,173.03,386.48z M181.2,382.73c1.53,0.25,1.46-0.92,1.8-1.84
		c2.26-6.16,4.45-12.34,6.92-18.42c1.15-2.83,0.94-3.88-2.45-4.32c-6.08-0.8-12.05-2.03-17.59-5.17c-1.4-0.79-4.35-3.26-6.66,0.66
		c-3.71,6.3-4.96,13.43-7.84,19.98c-0.44,1.01-0.27,1.51,0.97,1.74c5.61,1.02,10.82,3.32,16.22,5.06
		C175.41,381.32,178.32,381.96,181.2,382.73z M202.02,329.22c-8.18-1.52-15.96-2.49-22.99-6.34c-1.39-0.76-3-0.67-3.72,1.52
		c-1.36,4.13-2.94,8.2-4.47,12.28c-1.43,3.83-2.9,7.63-4.38,11.53c1.67,0.18,3.11,0.05,4.32,0.52c6.42,2.46,13.25,3.1,19.85,4.74
		c1.66,0.41,2.5-0.08,3.05-1.71C196.22,344.28,198.63,336.74,202.02,329.22z M202.65,324.53c0.74,0.32,1.46-0.21,1.45-0.69
		c-0.11-3.11,2.52-4.9,3.55-7.49c1.43-3.6,2.09-7.4,3.62-10.95c2.6-6.03,2.31-5.9-4.2-6.74c-4.79-0.62-9.77-1.17-14-4.1
		c-3.26-2.25-5.29-1.85-6.22,1.05c-1.02,3.19-2.39,6.24-3.6,9.34c-1.43,3.68-3.4,7.14-4.55,10.92c-0.29,0.96-1.18,1.79,0.7,2.47
		C186.98,321.09,194.99,322.17,202.65,324.53z M213.33,294.66c1.87,0.48,2.35-0.6,2.84-2.08c0.5-1.51,1.28-2.95,2.09-4.33
		c3.93-6.65,3.82-7.03-3.26-10.39c-0.55-0.26-0.95-0.81-1.5-1.07c-4.88-2.38-8.25-6.66-12.38-9.96c-2.54-2.03-3.3-1.25-4.18,1.31
		c-1.96,5.71-4.07,11.38-6.17,17.04c-1.6,4.3-1.63,4.26,2.66,5.07c1.09,0.21,2.12,0.71,3.21,0.94
		C202.2,292.37,207.77,293.5,213.33,294.66z M195.97,257.66c1.79-4.34,3.81-8.01,4.73-11.94c0.55-2.36,3.68-3.22,2.99-5.53
		c-0.73-2.44-3.83-2.86-5.41-4.84c-4.29-5.4-10.12-8.93-15.95-12.38c-2.39-1.41-5.3-1.36-7.41,0.22c-2.14,1.6-0.28,4.02,0.45,5.7
		C180.11,239.71,187.98,248.32,195.97,257.66z M208.77,268.18c-0.13,0.22-0.25,0.45-0.38,0.67c3.89,2.81,7.77,5.61,11.66,8.41
		c0.68,0.49,1.52,1.33,2.25,0.71c1.65-1.41,0.23-3.84,1.57-5.52c0.36-0.46-0.49-0.96-1.13-1.11
		C218.08,270.3,213.43,269.24,208.77,268.18z M191.84,375.64c-0.14-0.29-0.23-0.49-0.33-0.68c-0.3,0.16-0.6,0.33-0.9,0.49
		c0.11,0.17,0.23,0.48,0.32,0.47C191.23,375.89,191.52,375.75,191.84,375.64z"/>
	<path class="st1" d="M367.54,236.07c-7.05,3.09-14.47,3.8-21.84,2.12c-9.27-2.11-17.6-6.76-25.98-11.09
		c-8.01-4.13-16.22-4.68-24.79-2.13c-4.18,1.25-8.51,2.08-11.49,5.71c-0.4-1.27-2.28,0.11-2.63-1.67c1.78-0.95,3.62-1.88,5.41-2.9
		c0.67-0.38,1.69-0.64,1-1.91c-1-1.84-1.84-3.76-2.79-5.62c-0.36-0.7-0.82-1.06-1.76-0.64c-5.41,2.42-11.27,3.3-16.92,4.94
		c-8.28,2.4-8.26,2.45-5.54,10.12c-0.63,1.2,0.33,3.46-1.58,3.6c-1.68,0.13-2.38-1.72-2.96-3.21c-0.35-0.89-0.77-1.74-1.16-2.62
		c-1-5.79-4.34-10.69-6.18-16.19c-4.47-13.38-10.19-26.29-15.2-39.47c-3.76-9.87-6.34-20.17-9.94-30.1
		c-2.63-7.27-5.83-14.34-7.61-21.89c-1.77-7.52-4.08-14.83-7.11-21.93c-0.62-1.46-1.16-3.01-1.06-4.69
		c0.05-0.89-0.02-1.78-1.21-1.95c-3.05-0.44-6.13-1.39-9.15-1.23c-6.4,0.32-12.5-1.27-18.68-2.25c-14.16-2.25-27.77-7.05-42.04-8.93
		c-6.86-0.91-13.56-3.09-20.6-2.66c-1.19,0.07-2.3-0.11-3.5,0.74c-3.15,2.24-5.72,1.67-8.64-0.95c-4.02-3.61-4.73-8.51-5.18-13.33
		c-0.68-7.31-0.78-14.68-1.13-22.02c-0.06-1.25-0.27-2.54,1.53-2.74c0.02,2.51,2.21,3.6,3.38,5.37c6.04,9.06,11.4,18.48,11.42,29.85
		c0,1.85,0.8,1.45,1.96,1.49c5.14,0.21,10.27,0.04,15.43,0.6c10.39,1.13,20.47,3.7,30.6,6.04c13.64,3.15,27.38,5.62,41.33,6.93
		c3.29,0.31,3.63-0.67,2.71-3.39c-0.5-1.48-0.6-3.09-0.96-5.08c2.7,1.59,3.2,4.11,3.87,6.31c0.81,2.69,2.51,3.6,4.97,3.23
		c4.31-0.65,8.63-0.28,12.94-0.4c6.11-0.17,7.31-2.06,4.96-7.74c-0.8-1.94-1.94-3.8-1.67-6.02c0.09-0.74,0.33-1.56,1.13-1.8
		c0.83-0.25,0.77,0.83,1.21,1.05c3.36,1.72,3.17,5.34,4.4,8.16c0.81,1.87,1.35,2.76,3.84,1.82c6.11-2.31,11.08-6.31,16.08-10.23
		c1.14-0.9,3.71-0.48,3.5-2.98c1.76,0.04,3-0.76,3.76-2.34c3.04-2.34,5.78-5.01,8.27-7.94c6.56-5.96,12.35-12.54,16.42-20.5
		c0,0-0.02,0.03-0.02,0.03c0.35-0.49,0.69-0.99,1.04-1.48c2.86-3.03,4.26-6.9,5.88-10.6c0.48-1.09,0.16-2.74-1.03-3.67
		c-1.76-1.38-3.91-1.26-5.68-0.43c-4.45,2.08-8.82,4.27-12.45,7.81c-6.25,6.08-12.91,11.71-19.71,17.12
		c-0.72-0.7-0.52-1.28-0.15-1.53c5.89-3.94,8.85-10.74,14.66-14.82c3.62-2.55,6.59-6.07,10.32-8.41c4.99-3.14,3.87-8.37,5.19-12.73
		c0.43-1.41-1.42-1.43-2.49-1.27c-3.99,0.6-8.52,1.62-11.11,4.03c-4.44,4.13-9.35,7.85-13.3,12.52c-3.22,3.81-7.58,6.25-11.23,9.54
		c-0.88,0.79-2.4,1.19-3.75,0.9c-0.44-0.65,0.01-1.08,0.33-1.29c6.36-4.16,10.39-10.62,15.74-15.78c2.06-1.98,4.09-4.14,6.53-5.52
		c2.25-1.27,1.22-2.73,0.86-4.03c-0.45-1.64-1.64-2.43-3.64-2.25c-6.1,0.55-12.16,2.63-16.19,6.52c-3.83,3.7-7.48,7.84-11.45,11.48
		c-4.49,4.12-10.22,6.17-16.3,6.88c-0.65,0.08-2.52,1.01-2.33-1.2c6.73-1.44,12.62-4.34,17.3-9.55c5.47-6.1,11.74-11.22,19.1-14.87
		c3.73-1.85,7.79-2.24,11.89-1.71c3.54,0.46,2.72,3.88,3.92,6.6c2.6-3.45,6.6-3.24,9.94-4.61c2.76-1.14,6.48-1.49,8.65,1.09
		c2.33,2.77,0.35,6.15-0.42,9.2c-0.2,0.8-0.89,1.48-1.35,2.22c-0.23,0.37-0.51,0.79-0.05,1.11c0.16,0.11,0.57-0.13,0.86-0.21
		c3.07-1.16,6.01-0.25,7.72,2.06c2.44,3.3,1.07,7.2-0.65,10.33c-12.69,23.05-30.01,41.47-54,53.01c-1.52,0.73-1.88,1.21-1.16,2.95
		c5.84,14.05,11.93,28,17.54,42.13c4.04,10.16,7.94,20.4,11.77,30.66c2.36,6.32,5.31,12.5,7.41,18.94c2.41,7.42,4.24,15,7.72,22.08
		c2.41,4.9,3.17,10.41,4.11,15.76c0.39,2.21,0.95,1.85,2.55,1.34c6.87-2.17,13.63-5.17,21.17-3.13c2.28,0.62,4.39,1.49,6.57,2.38
		c11.9,4.88,22.76,12.73,36.24,13.25C359.14,236.64,363.31,235.43,367.54,236.07z M267.67,187.68c1.82-0.18,3.21-0.36,2.27-3.09
		c-2.43-7.04-5.36-13.87-8.04-20.81c-0.94-2.44-2.3-3.19-4.81-2.76c-5.99,1.01-11.69,3.1-17.57,4.47c-2.98,0.7-3.01,1.56-2.29,4.01
		c1.97,6.68,4.72,13.07,7.02,19.63c0.67,1.91,1.61,2.39,3.58,1.75C254.28,188.77,260.84,187.23,267.67,187.68z M275.9,215.05
		c6.48,0.37,7.2-0.41,5-5.37c-2.59-5.85-5.88-11.37-7.98-17.45c-0.35-1-0.98-1.27-1.99-1.09c-7.27,1.28-14.48,2.81-21.64,4.59
		c-1.98,0.49-2.23,1.17-1.47,3.04c2.39,5.84,4.87,11.68,6.69,17.71c1.18,3.93,2.82,4.4,6.23,2.81
		C265.82,216.92,271.5,216.6,275.9,215.05z M232,104.02c-4.49,0.7-9.41,2.38-14.39,3.79c-1.62,0.46-1.06,1.62-0.82,2.73
		c1.39,6.47,4.54,12.37,6.08,18.78c0.77,3.2,2.08,3.66,5.08,2.59c5.63-2.01,11.37-3.61,17.55-2.22c1.55,0.35,3.09-0.65,2.12-3.05
		c-2.56-6.32-4.84-12.76-7.48-19.04c-1.01-2.41-1.57-6.56-6-3.38C233.82,104.43,233.16,104.15,232,104.02z M258.63,156.52
		c0.26-1.16-0.37-2.1-0.7-3.13c-1.55-4.86-4.23-9.27-5.55-14.24c-0.56-2.13-1.15-4.64-2.61-6.05c-1.45-1.4-3.57,0.72-5.48,1
		c-5.36,0.81-10.66,2.08-15.99,3.1c-1.99,0.38-2.24,1.15-1.51,3.07c2.37,6.27,4.55,12.62,6.67,18.98c0.67,2.03,1.18,2.63,3.58,1.74
		C243.95,158.42,250.95,155.82,258.63,156.52z M99.97,46.65c0.47,9.8,0.82,19.59,3.63,29.06c0.16,0.55,0.29,1.13,1.03,1.36
		c5.35,1.68,5.34,1.7,4.89-4.38c-0.05-0.62-0.01-1.25-0.08-1.86C108.42,61.96,105.1,53.98,99.97,46.65z M211.04,95.92
		c0.6,1.67,1.24,3.01,1.55,4.42c0.57,2.7,2.16,3.18,4.37,2.12c6.25-2.96,12.88-2.92,19.92-2.58c-0.77-1.91-1.56-3.59-2.1-5.34
		c-0.44-1.4-1.14-1.66-2.48-1.32C225.44,95,218.47,95.99,211.04,95.92z"/>
	<path class="st0" d="M254.52,230.79c0.39,0.87,0.81,1.73,1.16,2.62c0.58,1.49,1.28,3.34,2.96,3.21c1.91-0.15,0.95-2.41,1.58-3.6
		c3.69-0.03,7.29,1.2,11.01,0.82c-8.36,5.04-17.41,7.66-27.17,8.1c-5.41,0.24-10.74,0.45-15.68,3.74c-3.22,2.15-3.86,4.34-3.35,7.7
		c0.47,3.09,3.07,2.89,5.08,3.67c0.34,0.13,0.72,0.15,1.09,0.22c0.01,0.26,0.12,0.53,0.03,0.7c-1.72,3.29-2.8,8.39-5.38,9.33
		c-2.49,0.9-6.83-1.48-10.33-2.51c-4.55-1.34-9.03-2.9-13.6-4.17c-1.41-0.39-1.47-0.93-1.07-2.05c1.74-4.91,2.74-10.26,5.41-14.59
		c1.86-3.02-0.34-3.38-1.25-4.66c-4.75-6.7-11.04-12.07-17.8-16.27c-4.95-3.07-5.44-7.22-6.48-11.61c-0.76-3.21,0.32-3.96,3.57-3.43
		c7.06,1.15,11.82,6.14,16.64,10.57c6.51,5.98,13.32,11.49,20.44,16.68c0.75,0.54,1.39,1.03,2.84,0.38
		c-4.94-3.35-8.99-7.33-13.01-11.34c-3.62-3.62-6.96-7.55-11.25-10.47c-0.49-0.34-2.04-0.58-0.73-1.78c1.26-0.17,1-1.26,1.15-2.02
		c0.56-2.88,2.69-3.58,5-3.02c1.72,0.41,3.47,1,5.15,1.82c7.08,3.46,13.15,8.11,18.45,13.94c4.23,4.65,9.97,6.82,15.81,8.69
		c1.37,0.44,2.45,0.41,2.54-1.42C249.74,230.27,252.13,230.53,254.52,230.79z"/>
	<path class="st1" d="M197.75,38.43c4.5,4.49,10.51,5.49,16.28,7.15c6.28,1.8,12.83,0.18,19.11,1.73c2.95,0.73,5.83,1.31,8.07,3.86
		c1.71,1.94,3.19,3.81,2.03,6.24c-1.2,2.52-3.47,4.09-6.36,4.55c-5.07,0.81-10.17,0.56-15.25,0.39c-7.55-0.26-15.09-0.63-22.63-1.04
		c-0.8-0.04-2.44,0.59-2.31-0.98c0.13-1.5,1.41-0.59,2.32-0.54c10.04,0.57,20.09,1.23,30.15,0.35c1.95-0.17,3.93-0.02,5.89-0.1
		c2.54-0.11,3.91-2.15,4.26-4.02c0.3-1.61-1.7-2.54-3.41-3.23c-5.13-2.07-10.53-1.65-15.84-2.01c-8.8-0.61-16.58-4.16-24.15-8.22
		c-5.47-2.93-10.82-6.1-16.61-8.36c-2.45-0.96-3.94-3.3-6.62-4.02c-9.68-2.58-18.6-0.69-27.36,3.74c-11.87,6-23.79,12.2-37.87,9.18
		c-0.67-0.14-3.12,0.7-1.68-1.74c4.77,0.9,9.48,0.3,14.25-0.3c8.47-1.07,15.27-5.93,22.67-9.44c7.22-3.42,14.56-6.2,22.74-5.88
		c4.74,0.19,9.23,1.07,13.15,3.97c0.77,0.57,1.78,0.88,2.72,1.13c3.05,0.8,6.03,1.42,8.03,4.43
		C191.23,38.14,195.1,36.89,197.75,38.43z"/>
	<path class="st1" d="M239.37,286.9c10.22-0.17,20.5,0.31,30.63-0.71c9.31-0.94,18.8-1.67,27.87-3.74
		c11.09-2.53,22.24-4.79,33.39-6.98c7.25-1.42,14.74-1.79,22.15-1.55c2.28,0.07,2.85-0.22,2.98-2.54
		c0.37-6.65,2.01-13.01,5.44-18.85c-0.83,5.36-1.75,10.71-2.42,16.1c-0.17,1.42-1.35,3.73,0.66,4.24c1.62,0.42,2.71-1.78,3.92-3.01
		c6.18-6.31,5.25-14.67,6.29-22.38c0.44-3.27,1.47-6.51,1.11-9.88c1.26-0.35,1.39,0.39,1.49,1.39c1.12,10.88,0.48,21.68-3.92,31.7
		c-1.33,3.03-4.2,6.68-8.7,7.01c-0.48,0.03-1.07,0.06-1.45-0.18c-7.49-4.64-15.23-1.68-22.64-0.26c-20.95,4-41.65,9.42-62.96,11.38
		c-6.52,0.6-13.16,0.08-19.63,0.92C248.37,290.22,243.98,288.44,239.37,286.9z"/>
	<path class="st1" d="M247.35,230.01c-0.09,1.83-1.17,1.86-2.54,1.42c-5.84-1.87-11.59-4.04-15.81-8.69
		c-5.3-5.83-11.38-10.48-18.45-13.94c-1.68-0.82-3.43-1.41-5.15-1.82c-2.31-0.55-4.44,0.14-5,3.02c-0.15,0.76,0.11,1.85-1.15,2.02
		c0,0,0.1,0.07,0.1,0.07c-0.29-0.75-0.57-1.5-0.86-2.26c-0.12-5.08,4.82-6.86,8.8-5.73c4.94,1.41,9.63,3.76,13.17,7.1
		c2.55,2.41,5.75,3.92,7.99,6.58c2.64,3.14,5.61,5.87,9.03,8.17C240.53,228.01,243.89,229.08,247.35,230.01z"/>
	<path class="st0" d="M198.49,209.84c0.29,0.75,0.57,1.5,0.86,2.26c-1.6-0.22-4.4,1.72-3.95-2.19
		C196.42,209.88,197.46,209.86,198.49,209.84z"/>
	<path class="st1" d="M127.64,441.5c-0.23-0.07-0.45-0.16-0.67-0.18c-0.09-0.01-0.19,0.12-0.29,0.19c0.22,0.07,0.44,0.16,0.66,0.19
		C127.43,441.71,127.53,441.58,127.64,441.5z"/>
	<path class="st0" d="M195.97,257.66c-8-9.33-15.86-17.95-20.59-28.77c-0.74-1.68-2.59-4.11-0.45-5.7c2.11-1.57,5.01-1.63,7.41-0.22
		c5.83,3.44,11.66,6.98,15.95,12.38c1.58,1.98,4.68,2.4,5.41,4.84c0.69,2.32-2.43,3.17-2.99,5.53
		C199.78,249.65,197.76,253.31,195.97,257.66z"/>
	<path class="st0" d="M173.03,386.48c1.42,1.99,3.48,0.76,5.19,0.86c2.36,0.13,2.84,0.73,1.85,2.89c-0.92,2.01-1.73,4.13-2.15,6.29
		c-0.35,1.83-1.59,1.4-2.5,1.32c-6.58-0.53-12.98-1.94-18.82-5.09c-1.21-0.65-3.23-0.56-3.57-2.55c4.75,0.29,9.34-0.89,13.96-1.61
		C169.07,388.26,170.44,385.58,173.03,386.48z"/>
	<path class="st0" d="M55.62,396.2c0.84,4.43,3.87,7.85,5.51,11.93c2.42,6.05,3.22,12.43,4.14,18.79c0.16,1.07-0.64,2.43-1.51,2.09
		c-1.89-0.74-4.61-1.73-5.1-3.24c-1.46-4.42-2.38-9.12-2.79-13.77c-0.44-4.97-0.73-9.94-1.48-14.88c-0.2-1.32,0.59-1.02,1.32-0.84
		C55.71,396.29,55.62,396.2,55.62,396.2z"/>
	<path class="st0" d="M208.77,268.18c4.65,1.06,9.31,2.12,13.96,3.18c0.64,0.15,1.5,0.65,1.13,1.11c-1.34,1.68,0.08,4.11-1.57,5.52
		c-0.73,0.62-1.57-0.23-2.25-0.71c-3.89-2.8-7.77-5.61-11.66-8.41C208.52,268.63,208.65,268.41,208.77,268.18z"/>
	<path class="st0" d="M99.97,46.65c5.12,7.33,8.45,15.31,9.47,24.19c0.07,0.62,0.04,1.24,0.08,1.86c0.45,6.08,0.45,6.06-4.89,4.38
		c-0.74-0.23-0.87-0.82-1.03-1.36C100.79,66.23,100.44,56.45,99.97,46.65z"/>
</g>
</svg>
