<?xml version="1.0" encoding="UTF-8" standalone="no"?>
<!-- Created with Inkscape (http://www.inkscape.org/) -->

<svg
   width="23.898392mm"
   height="19.637877mm"
   viewBox="0 0 23.898391 19.637877"
   version="1.1"
   id="svg1"
   inkscape:version="1.3.2 (091e20e, 2023-11-25)"
   sodipodi:docname="thanks.svg"
   xmlns:inkscape="http://www.inkscape.org/namespaces/inkscape"
   xmlns:sodipodi="http://sodipodi.sourceforge.net/DTD/sodipodi-0.dtd"
   xmlns="http://www.w3.org/2000/svg"
   xmlns:svg="http://www.w3.org/2000/svg">
  <sodipodi:namedview
     id="namedview1"
     pagecolor="#ffffff"
     bordercolor="#666666"
     borderopacity="1.0"
     inkscape:showpageshadow="2"
     inkscape:pageopacity="0.0"
     inkscape:pagecheckerboard="0"
     inkscape:deskcolor="#d1d1d1"
     inkscape:document-units="mm"
     inkscape:zoom="0.63461909"
     inkscape:cx="26.787722"
     inkscape:cy="38.605835"
     inkscape:window-width="736"
     inkscape:window-height="480"
     inkscape:window-x="0"
     inkscape:window-y="25"
     inkscape:window-maximized="0"
     inkscape:current-layer="layer1" />
  <defs
     id="defs1" />
  <g
     inkscape:label="Layer 1"
     inkscape:groupmode="layer"
     id="layer1"
     transform="translate(-94.985418,-146.31458)">
    <g
       id="g11408"
       transform="matrix(0.29545753,0,0,0.29545753,343.78451,490.58945)">
      <path
         id="path3749"
         style="fill:#ff4401;stroke-width:3.4698;stroke-linecap:round;stroke-linejoin:round;paint-order:markers stroke fill"
         d="m -765.84918,-1108.5116 c -8.93772,7.111 -68.35597,14.3087 -74.75757,0.6957 -7.26132,-30.599 13.2824,-52.1829 40.18948,-55.0222 18.93883,-1.6255 50.42777,41.7082 34.56809,54.3265 z"
         sodipodi:nodetypes="sccs" />
      <path
         style="color:#000000;fill:#ffffff;stroke-linecap:round;stroke-linejoin:round;-inkscape-stroke:none;paint-order:markers stroke fill"
         d="m -806.16602,-1165.0332 c -0.57719,0.015 -1.11637,0.3354 -1.45312,0.7285 -0.33675,0.3931 -0.54533,0.8518 -0.72266,1.3731 -0.35466,1.0425 -0.56289,2.374 -0.74218,3.9804 -0.3586,3.2128 -0.56357,7.498 -1.07227,12.0742 -1.0174,9.1525 -3.31764,19.3235 -9.98633,24.0567 a 1,1 0 0 0 -0.23633,1.3945 1,1 0 0 0 1.39454,0.2363 c 7.57032,-5.3731 9.7818,-16.1596 10.8164,-25.4668 0.5173,-4.6535 0.72444,-8.9733 1.07031,-12.0722 0.17294,-1.5495 0.3906,-2.8007 0.64844,-3.5586 0.11067,-0.3253 0.21987,-0.4983 0.30078,-0.6133 0.068,0.094 0.14128,0.1872 0.23828,0.416 0.26166,0.6173 0.5248,1.6713 0.73438,3.0117 0.41915,2.681 0.66456,6.5273 0.80664,10.8946 0.27324,8.3988 0.17951,18.6393 0.33398,26.7793 l -2.90625,-0.1328 a 1.0001,1.0001 0 0 0 -0.97851,0.6347 l -3.19531,8.1778 a 1,1 0 0 0 0.56836,1.2949 1,1 0 0 0 1.29492,-0.5664 l 2.93554,-7.5117 3.25,0.1503 a 1.0001,1.0001 0 0 0 1.04493,-1.0214 c -0.18144,-8.2174 -0.0631,-19.0632 -0.34961,-27.8692 -0.14325,-4.403 -0.38468,-8.2897 -0.83008,-11.1387 -0.22271,-1.4244 -0.4858,-2.5846 -0.86719,-3.4843 -0.19069,-0.4499 -0.40747,-0.8429 -0.73242,-1.1758 -0.32495,-0.3329 -0.82945,-0.6054 -1.36524,-0.5918 z"
         id="path3746" />
      <path
         style="color:#000000;fill:#ffffff;stroke-linecap:round;stroke-linejoin:round;-inkscape-stroke:none;paint-order:markers stroke fill"
         d="m -799.05273,-1165.2129 c -0.72847,0.1002 -1.09502,0.6283 -1.33985,1.0977 -0.24483,0.4693 -0.41659,1.0176 -0.57422,1.6777 -0.31525,1.3201 -0.54597,3.0807 -0.73047,5.1699 -0.36898,4.1785 -0.53387,9.6514 -0.59179,15.1094 -0.11585,10.916 0.19726,21.7598 0.19726,21.7598 a 1.0001,1.0001 0 0 0 1.16016,0.9589 l 3.58008,-0.582 7.26758,7.1035 a 1,1 0 0 0 1.41406,-0.016 1,1 0 0 0 -0.0156,-1.4141 l -7.6289,-7.455 a 1.0001,1.0001 0 0 0 -0.85938,-0.2735 l -2.92773,0.4746 c -0.0293,-1.055 -0.29669,-10.2459 -0.1875,-20.5351 0.0576,-5.4318 0.22394,-10.8779 0.58398,-14.9551 0.18002,-2.0386 0.41151,-3.7415 0.6836,-4.8809 0.0896,-0.375 0.17762,-0.5675 0.26562,-0.8007 0.0433,0.091 0.0649,0.098 0.10938,0.2168 0.29019,0.7725 0.57989,2.0603 0.84961,3.6523 0.53942,3.184 1.03811,7.6152 1.79882,12.2559 0.76072,4.6406 1.77927,9.4962 3.40821,13.6093 1.62893,4.1132 3.88055,7.5569 7.27148,9.1133 a 1,1 0 0 0 1.32617,-0.4922 1,1 0 0 0 -0.49218,-1.3242 c -2.66256,-1.2221 -4.70941,-4.1579 -6.24415,-8.0332 -1.53473,-3.8753 -2.54456,-8.6179 -3.29492,-13.1953 -0.75035,-4.5774 -1.24451,-8.9842 -1.80078,-12.2676 -0.27814,-1.6417 -0.56342,-2.9944 -0.94922,-4.0215 -0.19289,-0.5135 -0.40255,-0.9528 -0.74023,-1.332 -0.33768,-0.3792 -0.93923,-0.7036 -1.53906,-0.6211 z"
         id="path3743" />
      <g
         id="path1145-8">
        <path
           style="color:#000000;fill:#000000;stroke-linecap:round;stroke-linejoin:round;-inkscape-stroke:none;paint-order:markers stroke fill"
           d="m -819.20312,-1122.9375 a 1.0001,1.0001 0 0 0 -0.82227,0.047 l -20.55469,10.709 a 1.0001,1.0001 0 0 0 0.01,1.7793 l 22.67187,11.5332 a 1.0001,1.0001 0 0 0 1.25196,-0.2891 c 0,0 2.07629,-2.7524 4.03906,-5.7813 0.98138,-1.5144 1.93558,-3.0947 2.60351,-4.4785 0.33397,-0.6919 0.59948,-1.3318 0.75782,-1.9297 0.15834,-0.5979 0.27909,-1.1783 -0.0332,-1.8359 a 1.0001,1.0001 0 0 0 -1.46875,-0.3965 c -0.57173,0.3907 -1.63385,0.6055 -2.83789,0.4727 -1.20404,-0.1328 -2.52494,-0.5916 -3.59375,-1.3106 -1.06881,-0.719 -1.87248,-1.6752 -2.20703,-2.8203 -0.33455,-1.1451 -0.24585,-2.5318 0.70313,-4.291 a 1.0001,1.0001 0 0 0 -0.51953,-1.4082 z m -2.09571,2.9648 c -0.24814,1.175 -0.29863,2.3015 -0.008,3.2969 0.4922,1.6847 1.64487,2.9985 3.01172,3.918 1.36685,0.9195 2.95824,1.4678 4.49023,1.6367 0.81957,0.09 1.61835,0.054 2.3711,-0.098 -0.11399,0.302 -0.1928,0.5623 -0.3711,0.9317 -0.60165,1.2465 -1.52384,2.7836 -2.48047,4.2598 -1.68259,2.5964 -3.07668,4.4388 -3.48242,4.9824 l -20.16601,-10.2598 z"
           id="path3740" />
        <path
           style="color:#000000;fill:#000000;stroke-width:2;stroke-linecap:round;stroke-linejoin:round;-inkscape-stroke:none;paint-order:markers stroke fill"
           d="m -817.44476,-1099.7599 c 0,0 8.24254,-10.9296 7.26158,-12.9953 -3.45575,2.3612 -13.5612,-1.4979 -9.37982,-9.2491 l -20.55485,10.7097 z"
           id="path3737" />
      </g>
      <g
         id="path1147-4">
        <path
           style="color:#000000;fill:#000000;stroke-linecap:round;stroke-linejoin:round;-inkscape-stroke:none;paint-order:markers stroke fill"
           d="m -782.98828,-1126.0879 c -0.91492,-0.03 -1.67633,-9e-4 -2.38477,0.3731 a 1.0001,1.0001 0 0 0 -0.33984,1.4746 c 2.59189,3.5337 2.1158,5.7719 0.89648,7.3593 -0.60965,0.7938 -1.47086,1.4122 -2.32226,1.7969 -0.8514,0.3848 -1.70806,0.5116 -2.1211,0.459 a 1.0001,1.0001 0 0 0 -1.02343,0.5527 c -0.30271,0.6192 -0.18197,1.1841 -0.0195,1.7051 0.16243,0.521 0.42274,1.0475 0.74609,1.6074 0.6467,1.1199 1.55403,2.3603 2.48633,3.541 1.86459,2.3615 3.83008,4.4727 3.83008,4.4727 a 1.0001,1.0001 0 0 0 1.35742,0.1 l 20.3125,-16.2226 a 1.0001,1.0001 0 0 0 -0.29297,-1.7247 c 0,0 -4.90682,-1.7214 -10.22461,-3.2363 -2.65889,-0.7574 -5.41942,-1.465 -7.75586,-1.8828 -1.16822,-0.2089 -2.22962,-0.3452 -3.14453,-0.375 z m -0.0644,1.9981 c 0.76053,0.025 1.74588,0.1472 2.85546,0.3457 2.21918,0.3968 4.93782,1.0907 7.56055,1.8378 4.33442,1.2348 7.07095,2.2008 8.35547,2.6426 l -18.0957,14.4532 c -0.47617,-0.5195 -1.61362,-1.7349 -3.12305,-3.6465 -0.89994,-1.1398 -1.76793,-2.3361 -2.32617,-3.3028 -0.25691,-0.4448 -0.42454,-0.8189 -0.52344,-1.1054 0.67075,-0.081 1.32557,-0.074 2.03516,-0.3946 1.11472,-0.5037 2.23273,-1.2941 3.08398,-2.4023 1.50279,-1.9565 1.82154,-4.9704 -0.11133,-8.3984 0.13737,-0.01 0.13056,-0.034 0.28907,-0.029 z"
           id="path3734" />
        <path
           style="color:#000000;fill:#000000;stroke-width:2;stroke-linecap:round;stroke-linejoin:round;-inkscape-stroke:none;paint-order:markers stroke fill"
           d="m -782.50754,-1103.4275 c 0,0 -7.78028,-8.3589 -6.87766,-10.2051 2.79934,0.3564 10.00788,-3.6605 4.47873,-11.1988 3.17008,-1.6732 22.71157,5.1816 22.71157,5.1816 z"
           id="path3731" />
      </g>
    </g>
  </g>
</svg>
