<?xml version="1.0" encoding="UTF-8" standalone="no"?>
<!-- Created with Inkscape (http://www.inkscape.org/) -->

<svg
   width="18.308802mm"
   height="20.622307mm"
   viewBox="0 0 18.308802 20.622307"
   version="1.1"
   id="svg1"
   inkscape:version="1.3.2 (091e20e, 2023-11-25)"
   sodipodi:docname="thumb-up.svg"
   xmlns:inkscape="http://www.inkscape.org/namespaces/inkscape"
   xmlns:sodipodi="http://sodipodi.sourceforge.net/DTD/sodipodi-0.dtd"
   xmlns="http://www.w3.org/2000/svg"
   xmlns:svg="http://www.w3.org/2000/svg">
  <sodipodi:namedview
     id="namedview1"
     pagecolor="#ffffff"
     bordercolor="#666666"
     borderopacity="1.0"
     inkscape:showpageshadow="2"
     inkscape:pageopacity="0.0"
     inkscape:pagecheckerboard="0"
     inkscape:deskcolor="#d1d1d1"
     inkscape:document-units="mm"
     inkscape:zoom="0.2102413"
     inkscape:cx="-361.48939"
     inkscape:cy="254.4695"
     inkscape:window-width="736"
     inkscape:window-height="480"
     inkscape:window-x="0"
     inkscape:window-y="25"
     inkscape:window-maximized="0"
     inkscape:current-layer="layer1" />
  <defs
     id="defs1" />
  <g
     inkscape:label="Layer 1"
     inkscape:groupmode="layer"
     id="layer1"
     transform="translate(-199.76043,-80.168753)">
    <g
       id="g11275"
       transform="matrix(0.26813024,0,0,0.25191553,500.33604,279.49642)">
      <path
         id="path3590"
         style="fill:#ff4401;stroke-width:3.4698;stroke-linecap:round;stroke-linejoin:round;paint-order:markers stroke fill"
         d="m -1095.946,-789.35991 c 11.8418,-4.90044 25.9602,0.054 33.7514,11.20486 10.3894,14.8693 11.9056,28.34656 6.1435,45.96834 -3.9794,12.16979 -14.4109,20.97816 -26.0572,22.61832 -51.4631,4.0881 -47.3706,-61.73425 -13.8377,-79.79152 z"
         sodipodi:nodetypes="csscc" />
      <path
         style="color:#000000;fill:#ffffff;stroke-linecap:round;stroke-linejoin:round;-inkscape-stroke:none"
         d="m -1107.457,-756.29102 c -0.5213,-0.0489 -1.0731,-0.0265 -1.6504,0.0293 -1.1546,0.11163 -2.4126,0.39888 -3.6406,0.78906 -1.2281,0.39018 -2.4219,0.88412 -3.4336,1.42969 -1.0118,0.54557 -1.8439,1.10059 -2.3868,1.85547 a 1,1 0 0 0 0.2286,1.39648 1,1 0 0 0 1.3945,-0.22851 c 0.1891,-0.26299 0.8389,-0.7924 1.7129,-1.26367 0.8739,-0.47128 1.9707,-0.92762 3.0898,-1.28321 1.1192,-0.35559 2.2647,-0.61012 3.2266,-0.70312 0.8502,-0.0822 1.4383,0.0242 1.7851,0.14258 6.8908,12.53394 11.4977,28.14844 12.8223,36.5039 -0.8187,-0.0887 -1.7564,-0.26706 -3.9355,-0.0644 -2.9383,0.27319 -6.5548,1.15955 -9.0293,3.85156 a 1,1 0 0 0 0.059,1.41211 1,1 0 0 0 1.414,-0.0586 c 1.9528,-2.12439 5.0619,-2.96564 7.7422,-3.21485 2.6803,-0.24921 4.8223,0.0742 4.8223,0.0742 a 1.0001,1.0001 0 0 0 1.1406,-1.125 c -1.1621,-8.52778 -6.0264,-25.34622 -13.4727,-38.73632 a 1.0001,1.0001 0 0 0 -0.4218,-0.4043 c -0.4558,-0.23168 -0.9455,-0.35341 -1.4668,-0.40235 z"
         id="path3587" />
      <path
         style="color:#000000;fill:#ffffff;stroke-linecap:round;stroke-linejoin:round;-inkscape-stroke:none"
         d="m -1086.666,-775.69531 c -0.8796,-0.18667 -1.818,0.30901 -2.2813,0.9707 -0.4632,0.6617 -0.7133,1.4567 -0.9648,2.39649 -0.5031,1.87956 -0.9249,4.35436 -1.7559,6.9414 -1.6618,5.17409 -4.7539,10.66944 -13.3398,12.50195 a 1,1 0 0 0 -0.7695,1.1875 1,1 0 0 0 1.1855,0.76954 c 9.3103,-1.98713 13.0612,-8.34643 14.8281,-13.84766 0.8835,-2.75062 1.3239,-5.31898 1.7832,-7.03516 0.2297,-0.85809 0.4838,-1.49885 0.6719,-1.76757 0.1881,-0.26873 0.046,-0.19852 0.2266,-0.16016 1.2017,0.25506 1.9448,1.23481 2.4629,2.96875 0.518,1.73394 0.678,4.07908 0.6523,6.41406 -0.026,2.33499 -0.2262,4.66167 -0.3652,6.44531 -0.069,0.89182 -0.1238,1.64269 -0.1309,2.23047 0,0.2939 6e-4,0.54286 0.041,0.80078 0.02,0.12897 0.044,0.25956 0.125,0.4375 0.081,0.17794 0.2527,0.47001 0.6465,0.61133 a 1.0001,1.0001 0 0 0 0.8652,-0.0898 c 2.4991,-1.5494 6.2583,-2.94653 9.0469,-2.89258 1.3943,0.027 2.4874,0.38525 3.211,1.10938 0.7235,0.72412 1.2031,1.90042 1.0976,3.94726 a 1.0001,1.0001 0 0 0 0.4492,0.88672 c 1.4546,0.95714 2.3185,1.65285 2.7325,2.43945 0.4139,0.7866 0.5241,1.84431 0.1289,3.84375 a 1.0001,1.0001 0 0 0 0.207,0.82813 c 1.4708,1.7937 1.8071,2.97445 1.8262,3.83984 0.019,0.86539 -0.3103,1.49746 -0.5508,2.36328 a 1.0001,1.0001 0 0 0 0.209,0.92383 c 1.6251,1.86812 1.8761,3.27278 1.7675,4.2793 -0.1086,1.00651 -0.6788,1.71653 -0.8339,1.86328 -0.1251,0.11825 -0.8414,0.51301 -1.8633,0.84766 -1.0219,0.33464 -2.367,0.67588 -3.9063,1.00585 -3.0786,0.65996 -6.9383,1.28049 -10.7051,1.81055 -7.5335,1.06013 -14.6972,1.76367 -14.6972,1.76367 a 1,1 0 0 0 -0.8985,1.0918 1,1 0 0 0 1.0938,0.89844 c 0,0 7.1953,-0.70593 14.7812,-1.77344 3.793,-0.53376 7.6818,-1.15615 10.8438,-1.83398 1.581,-0.33892 2.98,-0.69006 4.1113,-1.06055 1.1313,-0.37049 1.9772,-0.69524 2.6133,-1.29688 0.5192,-0.49105 1.2783,-1.51756 1.4492,-3.10156 0.1574,-1.45881 -0.3934,-3.32491 -1.9453,-5.3125 0.2017,-0.58435 0.5572,-1.33601 0.5313,-2.51367 -0.028,-1.28281 -0.63,-2.84198 -2.0332,-4.67383 0.3343,-1.96225 0.288,-3.49442 -0.3594,-4.72461 -0.6336,-1.2038 -1.7133,-2.02173 -3.0215,-2.90039 -0.013,-2.0862 -0.5295,-3.76883 -1.6133,-4.85351 -1.1983,-1.19934 -2.8627,-1.66393 -4.5859,-1.69727 -2.941,-0.0569 -6.0992,1.12731 -8.7266,2.52539 0.021,-0.43593 0.04,-0.849 0.088,-1.4668 0.1378,-1.7686 0.3443,-4.14386 0.3711,-6.57812 0.027,-2.43426 -0.1134,-4.92485 -0.7363,-7.00977 -0.6229,-2.08492 -1.8613,-3.90748 -3.9629,-4.35351 z"
         id="path3584" />
      <path
         style="color:#000000;fill:#000000;stroke-linecap:round;stroke-linejoin:round;-inkscape-stroke:none"
         d="m -1094.5957,-788.63086 a 1,1 0 0 0 -0.7637,0.041 1,1 0 0 0 -0.4726,1.33398 l 3.6992,7.74805 a 1,1 0 0 0 1.334,0.4707 1,1 0 0 0 0.4707,-1.33398 l -3.6992,-7.74805 a 1,1 0 0 0 -0.5684,-0.51172 z"
         id="path3581" />
      <path
         style="color:#000000;fill:#000000;stroke-linecap:round;stroke-linejoin:round;-inkscape-stroke:none"
         d="m -1084.6152,-791.23828 a 1,1 0 0 0 -1.127,0.85351 l -1.1133,8.10743 a 1,1 0 0 0 0.8555,1.12695 1,1 0 0 0 1.127,-0.85547 l 1.1113,-8.10547 a 1,1 0 0 0 -0.8535,-1.12695 z"
         id="path3578" />
      <path
         style="color:#000000;fill:#000000;stroke-linecap:round;stroke-linejoin:round;-inkscape-stroke:none"
         d="m -1073.3281,-781.71875 -7.2793,2.94531 a 1,1 0 0 0 -0.5528,1.30274 1,1 0 0 0 1.3028,0.55273 l 7.2793,-2.94726 a 1,1 0 0 0 0.5527,-1.30274 1,1 0 0 0 -1.3027,-0.55078 z"
         id="path3575" />
    </g>
  </g>
</svg>
