<?xml version="1.0" encoding="UTF-8" standalone="no"?>
<!-- Generator: Adobe Illustrator 26.3.1, SVG Export Plug-In . SVG Version: 6.00 Build 0)  -->

<svg
   version="1.1"
   id="Calque_1"
   x="0px"
   y="0px"
   viewBox="0 0 540 540"
   xml:space="preserve"
   sodipodi:docname="TOKENS-BLACK.svg"
   inkscape:version="1.3.2 (091e20e, 2023-11-25)"
   xmlns:inkscape="http://www.inkscape.org/namespaces/inkscape"
   xmlns:sodipodi="http://sodipodi.sourceforge.net/DTD/sodipodi-0.dtd"
   xmlns="http://www.w3.org/2000/svg"
   xmlns:svg="http://www.w3.org/2000/svg"><defs
   id="defs350" /><sodipodi:namedview
   id="namedview350"
   pagecolor="#ffffff"
   bordercolor="#666666"
   borderopacity="1.0"
   inkscape:showpageshadow="2"
   inkscape:pageopacity="0.0"
   inkscape:pagecheckerboard="0"
   inkscape:deskcolor="#d1d1d1"
   inkscape:zoom="0.43703704"
   inkscape:cx="268.85593"
   inkscape:cy="270"
   inkscape:window-width="1440"
   inkscape:window-height="757"
   inkscape:window-x="0"
   inkscape:window-y="25"
   inkscape:window-maximized="1"
   inkscape:current-layer="Calque_1" />
<style
   type="text/css"
   id="style1">
	.st1{fill:#F9DAC4;}
	.st7{fill:#F6D8C2;}
	.st11{fill:#FEDEC8;}
</style>
<g
   id="g63"
   transform="translate(-22)">
	<g
   id="g62">
		<g
   id="g61">
			<path
   class="st0"
   d="m 177.7,255 c 1.8,0 3.7,0 5.5,0 2.5,0.5 5,0.1 7.5,0.2 0.5,0 0.9,0 1.4,0 1.7,0.4 3.4,0.4 5.1,0.2 0.2,0 0.5,0 0.7,0 1.4,0.4 2.7,0.4 4.1,0.2 0.6,0.2 1.3,0.4 1.9,0.2 1.6,-0.4 3.1,0.6 4.7,0 0.3,-0.1 0.6,0 0.9,0.2 0.4,0.3 0.8,0.3 1.2,0.2 0.5,-0.2 1,-0.1 1.5,0 1.3,0.1 2.6,0.4 4,0.5 1.9,0.1 3.8,0.2 5.7,0.5 1.9,0.2 3.8,0.2 5.6,0.6 0,0.2 0.1,0.4 0.3,0.4 1.4,0 2.8,0.5 4.2,0.3 0.6,0.5 1.5,0.3 2.1,0.4 2.1,0.1 4.3,0.6 6.4,0.8 4.4,0.5 8.6,1.6 12.9,2.3 2.9,0.5 5.8,1.3 8.6,2.1 0.7,0.2 1.5,-0.2 2.2,0.3 1.1,0.7 2.4,0.6 3.6,0.9 1,1.1 2.4,1 3.6,1.2 1.9,0.2 3.8,0.7 5.6,1.2 1.1,0.3 2.1,0.7 3.2,1 0.2,0.9 1.1,0.7 1.7,0.8 1.4,0.4 2.8,1.1 4.3,1.1 0,0 0,0 0,0 0.2,0.1 0.4,0.3 0.6,0.4 4.2,1.4 8.3,2.9 12.4,4.4 3.8,1.4 7.5,3.1 11.2,4.5 1.5,0.6 2.7,1.7 4.4,1.7 0,0 0,0 0,0 0.1,0.1 0.1,0.1 0.2,0.2 0,0 0,0 0,0 1.5,0.8 2.8,2 4.5,2.1 v 0 c 0.1,0.2 0.3,0.2 0.5,0.2 v 0 c 0.1,0.2 0.3,0.2 0.5,0.2 v 0 c 0.1,0.2 0.3,0.2 0.5,0.2 0,0 0,0 0,0 0.1,0.1 0.1,0.1 0.2,0.2 0,0 0,0 0,0 0.1,0.2 0.3,0.2 0.5,0.2 v 0 c 0.5,0.7 1.3,1 2.1,1.2 v 0 c 0.1,0.3 0.4,0.5 0.7,0.6 3.3,1.9 6.6,3.8 9.7,6 0.2,0.2 0.6,0.2 0.9,0.3 v 0 c 0.5,0.8 1.2,1.4 2.1,1.4 v 0 c 0,0.6 0.4,0.7 0.9,0.7 v 0 c 0,0.6 0.4,0.7 0.9,0.7 v 0 c 0,0.5 0.2,0.7 0.7,0.7 v 0 c 0.3,0.4 0.5,1 1.2,1 0.7,0.2 1.3,0.6 1.7,1.2 0.1,0.1 0.1,0.1 0.2,0.2 0.2,0.2 0.3,0.3 0.5,0.5 0,0.5 0.3,0.7 0.7,0.7 0.1,0.1 0.2,0.2 0.2,0.2 0.1,0.1 -0.1,0.4 0.3,0.2 0.2,0.2 0.5,0.4 0.7,0.5 0.8,1.3 1.8,2.4 3.1,3.1 0.2,0.2 0.3,0.4 0.5,0.5 0,1 0.7,1.3 1.4,1.6 0.1,0.1 0.2,0.2 0.3,0.3 0.1,1.2 1.2,1.7 1.8,2.6 1.1,1.7 2.3,3.4 3.5,5 0,0 0,0 0,0 0.1,0.3 0.2,0.6 0.3,0.9 1.2,2.6 2.3,5.2 3,8 0.9,3.9 1,7.8 0.2,11.6 -0.9,4.3 -2.8,8.2 -5.4,11.7 -3.3,4.4 -7.3,8 -11.8,11.2 -7.9,5.6 -16.6,9.6 -25.6,12.8 -10.2,3.6 -20.6,6.2 -31.2,8.2 -7.6,1.4 -15.2,2.4 -22.9,3.2 -4.5,0.4 -9,0.8 -13.6,1.1 -3.8,0.3 -7.6,0.4 -11.3,0.5 -8.4,0.1 -16.9,0.1 -25.3,-0.4 -5,-0.3 -10.1,-0.5 -15.1,-1 -3.6,-0.3 -7.2,-0.6 -10.8,-1 -5.6,-0.7 -11.2,-1.4 -16.8,-2.3 -9.5,-1.5 -19,-3.4 -28.3,-5.7 -6.6,-1.7 -13.3,-3.4 -19.7,-5.7 -3.7,-1.3 -7.4,-2.5 -11.1,-3.8 -5.2,-1.9 -10.2,-4.1 -15.2,-6.4 -3.1,-1.4 -6.1,-3.1 -9.1,-4.7 -4.6,-2.5 -9,-5.1 -13.2,-8.2 -4.5,-3.3 -8.9,-6.8 -12.6,-11.1 -3,-3.5 -6,-7 -7.9,-11.3 -0.9,-2.1 -1.7,-4.2 -2.2,-6.4 -0.7,-2.9 -0.9,-5.9 -0.5,-8.9 0,-0.3 0,-0.6 0,-1 0.2,-0.1 0.1,-0.2 0,-0.3 0,-0.1 0,-0.1 0,-0.2 0.1,-0.1 0.2,-0.3 0.2,-0.4 0.9,-4.3 2.6,-8.3 5.2,-12 0.6,-0.8 1.6,-1.5 1.5,-2.7 v -0.1 c 0.1,-0.1 0.1,-0.1 0.2,-0.2 0,0 0,0 0,0 0.5,0 0.9,-0.1 0.9,-0.7 0.2,-0.2 0.3,-0.5 0.5,-0.7 1.2,-0.7 2.2,-1.6 2.8,-2.8 0.2,-0.2 0.5,-0.3 0.7,-0.5 0.5,0 0.7,-0.3 0.7,-0.7 v 0 c 0.3,0 0.5,-0.2 0.5,-0.5 0,0 0,0 0,0 0.1,-0.1 0.1,-0.1 0.2,-0.2 0.2,-0.1 0.3,-0.2 0.5,-0.3 0.3,0.2 0.2,-0.1 0.2,-0.2 v 0 c 0.5,0 0.8,-0.3 1,-0.7 v 0 c 0.3,0 0.5,-0.2 0.5,-0.4 0.9,-0.9 2,-1.6 3.1,-2.2 0.3,0 0.6,-0.1 0.7,-0.5 v 0 c 0.3,0 0.6,0 0.8,-0.2 1,-0.8 2.1,-1.4 3.2,-2.1 1.4,-0.9 3,-1.4 4.2,-2.5 v 0 c 0.2,0 0.4,0 0.5,-0.2 v 0 c 0.2,0 0.4,0 0.5,-0.2 v 0 c 0.1,-0.1 0.1,-0.1 0.2,-0.2 v 0 c 0.2,0 0.4,0 0.5,-0.2 v 0 c 0.3,0 0.5,0.1 0.7,-0.2 v 0 c 0.3,0 0.6,0 0.9,-0.1 5,-2.7 10.4,-4.5 15.7,-6.3 3.4,-1.2 6.9,-2.2 10.4,-3.1 5.1,-1.3 10.3,-2.5 15.5,-3.5 1.8,-0.3 3.7,-0.6 5.5,-1.1 0,-0.1 0,-0.2 0,-0.2 0.2,0 0.5,0 0.7,0 v 0 c 0.2,0.2 0.3,0.2 0.5,0 v 0 c 0.3,0 0.5,0 0.8,-0.1 2,-0.2 4,-0.4 5.9,-0.9 0.3,-0.2 0.6,-0.3 1,-0.3 1.1,0.3 2.2,0 3.3,-0.2 1.8,-0.3 3.6,-0.1 5.4,-0.7 2.2,-0.5 4.5,-0.6 6.7,-0.8 2,-0.2 4,-0.5 6,-0.2 1.6,-0.3 3.2,0 4.8,-0.5 0.2,0 0.5,0 0.7,0 1,0 2.1,0 3.1,0 0.6,0 1.3,0.2 1.9,-0.2 0.5,0 0.9,0 1.4,0 1.9,0 3.8,0 5.8,0 1,0.1 1.5,0.3 2,-0.1 z"
   id="path1" />
			<path
   class="st1"
   d="m 49.9,306.8 c -0.4,3 -0.2,6 0.5,8.9 0.5,2.2 1.3,4.3 2.2,6.4 1.9,4.3 4.9,7.8 7.9,11.3 3.7,4.3 8.1,7.8 12.6,11.1 4.2,3.1 8.6,5.7 13.2,8.2 3,1.6 6,3.3 9.1,4.7 5,2.3 10,4.5 15.2,6.4 3.7,1.3 7.4,2.5 11.1,3.8 6.5,2.3 13.1,4.1 19.7,5.7 9.3,2.3 18.8,4.2 28.3,5.7 5.6,0.9 11.2,1.6 16.8,2.3 3.6,0.4 7.2,0.7 10.8,1 5,0.5 10.1,0.7 15.1,1 8.4,0.5 16.9,0.5 25.3,0.4 3.8,-0.1 7.6,-0.2 11.3,-0.5 4.5,-0.4 9,-0.7 13.6,-1.1 7.7,-0.7 15.3,-1.8 22.9,-3.2 10.6,-1.9 21,-4.5 31.2,-8.2 9.1,-3.2 17.7,-7.3 25.6,-12.8 4.5,-3.1 8.5,-6.8 11.8,-11.2 2.6,-3.5 4.5,-7.4 5.4,-11.7 0.8,-3.8 0.7,-7.7 -0.2,-11.6 -0.7,-2.8 -1.8,-5.4 -3,-8 -0.1,-0.3 -0.2,-0.6 -0.3,-0.9 0.4,0 0.5,0.4 0.6,0.6 1.7,3.3 3,6.7 3.4,10.4 0,0.3 0,0.7 0.5,0.7 0,0.2 0,0.3 0,0.5 -0.4,1.8 -0.4,3.5 0,5.3 0,0.2 0,0.5 0,0.7 -0.4,0 -0.4,0.3 -0.5,0.6 -0.2,2.1 -0.3,4.2 -0.5,6.3 -0.2,2.3 -0.3,4.6 -0.5,6.9 -0.4,4.6 -0.8,9.2 -1.1,13.8 -0.3,3.3 -0.5,6.6 -0.8,9.9 -0.3,3.6 -0.6,7.1 -0.9,10.7 -0.3,3.4 -0.5,6.8 -0.8,10.1 -0.4,4.7 -0.8,9.5 -1.2,14.2 -0.2,2.1 -0.4,4.2 -0.7,6.3 -0.5,3.1 -1.8,5.8 -3.2,8.6 -1.8,3.6 -4.5,6.5 -7.2,9.3 -3.4,3.3 -7.1,6.2 -11.2,8.7 -2.9,1.8 -5.9,3.3 -8.9,5 -3.3,1.9 -7.1,3 -10.6,4.5 -4.8,2.1 -9.8,3.5 -14.9,4.9 -8.7,2.4 -17.5,4.2 -26.5,5.5 -3.8,0.6 -7.6,1.1 -11.4,1.4 -5.6,0.6 -11.2,1.1 -16.8,1.4 -4.4,0.3 -8.9,0.5 -13.3,0.5 -5.6,0 -11.2,0.3 -16.8,-0.2 -2.2,-0.2 -4.4,-0.1 -6.7,-0.2 -4.1,-0.2 -8.3,-0.4 -12.4,-0.8 -3.1,-0.3 -6.3,-0.4 -9.4,-0.8 -5.4,-0.6 -10.9,-1.3 -16.3,-2.1 -7.2,-1.1 -14.4,-2.3 -21.6,-3.8 -5.5,-1.1 -11,-2.4 -16.4,-3.9 -4.5,-1.2 -8.9,-2.5 -13.3,-3.9 -4.3,-1.3 -8.6,-2.9 -12.9,-4.4 -5.2,-1.9 -10.3,-4.1 -15.2,-6.5 -7.1,-3.6 -14.2,-7.2 -20.6,-11.9 -3.7,-2.7 -7.2,-5.5 -10.6,-8.6 -3.9,-3.6 -7.2,-7.8 -9.8,-12.4 -2.4,-4.1 -4.1,-8.4 -3.8,-13.4 0.2,-3.6 0,-7.3 0.1,-10.9 0,-0.4 0,-0.8 0,-1.2 0.3,-3.8 0.6,-7.6 0.9,-11.4 0.3,-3.5 0.5,-6.9 0.8,-10.4 0.4,-4.9 0.8,-9.8 1.2,-14.7 0.2,-2.5 0.3,-4.9 0.5,-7.4 0.4,-4.7 0.8,-9.4 1.1,-14.1 0.3,-3.7 0.5,-7.4 0.8,-11.1 0.4,0 0.4,-0.3 0.8,-0.4 z"
   id="path2" />
			<path
   class="st1"
   d="m 190.7,255.2 c -2.5,-0.1 -5,0.3 -7.5,-0.2 2.5,0 5,0 7.4,0 0,0 0,0.1 0.1,0.2 z"
   id="path3" />
			<path
   class="st1"
   d="m 177.7,255 c -0.4,0.4 -1,0.2 -1.5,0.2 -1.9,0 -3.8,0 -5.8,0 0,-0.1 0,-0.2 0,-0.2 2.5,0 4.9,0 7.3,0 z"
   id="path4" />
			<path
   class="st1"
   d="m 158.5,255.9 c 0.1,-0.6 0.6,-0.5 0.9,-0.5 0.8,0 1.7,0 2.5,0 0.4,0 0.8,0.1 0.9,-0.5 0.2,0 0.3,0 0.5,0 0,0.2 0,0.3 0,0.5 -1.6,0.5 -3.2,0.2 -4.8,0.5 z"
   id="path5" />
			<path
   class="st1"
   d="m 199.5,255 c 0.1,0.6 0.6,0.4 0.9,0.5 0.5,0.1 1,-0.1 1.5,0.2 -1.4,0.2 -2.8,0.1 -4.1,-0.2 0.2,-0.1 0.3,-0.3 0.2,-0.5 0.2,0 0.3,0 0.5,0 0.1,0.1 0.1,0.3 0.2,0.4 0.3,0.1 0.3,-0.2 0.3,-0.4 0.2,0 0.4,0 0.5,0 z"
   id="path6" />
			<path
   class="st1"
   d="m 197.1,255.4 c -1.7,0.1 -3.4,0.2 -5.1,-0.2 0,-0.1 0,-0.2 0,-0.2 0.2,0 0.3,0 0.5,0 0.4,0.4 0.9,0.2 1.3,0.2 1.2,0.1 2.3,-0.3 3.3,0.2 z"
   id="path7" />
			<path
   class="st2"
   d="m 197.1,255.4 c -1,-0.5 -2.2,-0.1 -3.2,-0.2 -0.5,-0.1 -0.9,0.2 -1.3,-0.2 1.8,0 3.7,0 5.5,0 0,0.2 -0.1,0.4 -0.2,0.5 -0.3,-0.1 -0.5,-0.1 -0.8,-0.1 z"
   id="path8" />
			<path
   class="st2"
   d="m 163.3,255.4 c 0,-0.2 0,-0.3 0,-0.5 1.8,0 3.5,0 5.3,0 -0.4,0.4 -1,0.2 -1.5,0.2 -1,0.1 -2.1,-0.2 -3.1,0.2 -0.3,0.1 -0.5,0.1 -0.7,0.1 z"
   id="path9" />
			<path
   class="st1"
   d="m 164,255.4 c 1,-0.5 2.1,-0.1 3.1,-0.2 0.5,-0.1 1,0.2 1.5,-0.2 0.2,0 0.3,0 0.5,0 0,0.1 0,0.2 0,0.2 -0.6,0.5 -1.3,0.2 -1.9,0.2 -1.1,0.1 -2.2,0 -3.2,0 z"
   id="path10" />
			<path
   class="st2"
   d="m 360.7,332.2 c -0.4,-1.8 -0.4,-3.5 0,-5.3 0,1.8 0,3.6 0,5.3 z"
   id="path11" />
			<path
   class="st2"
   d="m 169,255.2 c 0,-0.1 0,-0.2 0,-0.2 0.5,0 1,0 1.4,0 0,0.1 0,0.2 0,0.2 -0.4,0 -0.9,0 -1.4,0 z"
   id="path12" />
			<path
   class="st2"
   d="m 192.1,255 c 0,0.1 0,0.2 0,0.2 -0.5,0 -0.9,0 -1.4,0 0,-0.1 0,-0.2 0,-0.2 0.4,0 0.9,0 1.4,0 z"
   id="path13" />
			<path
   class="st2"
   d="m 199,255 c 0,0.2 0,0.4 -0.3,0.4 -0.1,0 -0.1,-0.2 -0.2,-0.4 0.2,0 0.4,0 0.5,0 z"
   id="path14" />
			<path
   class="st1"
   d="m 80.2,273.4 c 0.2,-0.4 0.6,-0.5 0.9,-0.7 4.3,-2.1 8.8,-3.9 13.4,-5.5 5.9,-2.1 11.9,-3.7 17.9,-5.2 4.9,-1.2 9.8,-2.3 14.8,-2.9 0.4,-0.1 0.7,0.1 1,0.1 -1.8,0.5 -3.6,0.7 -5.5,1.1 -5.2,1 -10.4,2.2 -15.5,3.5 -3.5,0.9 -7,2 -10.4,3.1 -5.3,1.8 -10.7,3.7 -15.7,6.3 -0.3,0.3 -0.6,0.2 -0.9,0.2 z"
   id="path15" />
			<path
   class="st1"
   d="m 286.2,270.6 c 1.9,0.2 3.6,0.9 5.4,1.5 2.5,0.9 5,1.6 7.5,2.6 3.8,1.5 7.6,2.9 11.3,4.7 1.5,0.7 3,1.3 4.4,2.2 -1.7,0 -2.9,-1.1 -4.4,-1.7 -3.7,-1.5 -7.4,-3.1 -11.2,-4.5 -4.1,-1.5 -8.2,-3 -12.4,-4.4 -0.2,-0.1 -0.4,-0.3 -0.6,-0.4 z"
   id="path16" />
			<path
   class="st1"
   d="m 49.9,305.4 c -0.1,-2.4 0.7,-4.6 1.7,-6.7 1.3,-3 3,-5.7 5,-8.2 0.1,-0.1 0.2,-0.1 0.3,-0.2 0.1,1.2 -0.9,1.9 -1.5,2.7 -2.6,3.6 -4.3,7.6 -5.2,12 -0.1,0.1 -0.2,0.2 -0.3,0.4 z"
   id="path17" />
			<path
   class="st1"
   d="m 323.9,286.4 c 1.5,0.1 2.7,1.2 3.9,1.9 2.3,1.3 4.4,2.8 6.6,4.2 0.3,0.2 0.7,0.3 0.7,0.8 -0.3,-0.1 -0.6,-0.2 -0.9,-0.3 -3.1,-2.2 -6.4,-4.1 -9.7,-6 -0.1,-0.1 -0.5,-0.3 -0.6,-0.6 z"
   id="path18" />
			<path
   class="st1"
   d="m 69.6,279.4 c 0.9,-1.3 2.4,-1.8 3.6,-2.6 1.4,-0.9 2.8,-1.9 4.5,-2.2 -1.2,1.1 -2.8,1.6 -4.2,2.5 -1.1,0.7 -2.2,1.3 -3.2,2.1 -0.1,0.2 -0.4,0.2 -0.7,0.2 z"
   id="path19" />
			<path
   class="st1"
   d="m 350.8,307.1 c 1.2,0.7 1.8,1.9 2.5,2.9 1,1.5 2.4,2.8 2.8,4.7 -1.2,-1.7 -2.4,-3.3 -3.5,-5 -0.6,-0.9 -1.6,-1.5 -1.8,-2.6 z"
   id="path20" />
			<path
   class="st1"
   d="m 137.1,257.8 c 1.8,-0.8 3.7,-0.5 5.6,-0.9 1,-0.2 2,0 3.1,0 -1.7,0.6 -3.6,0.4 -5.4,0.7 -1.1,0.2 -2.2,0.5 -3.3,0.2 z"
   id="path21" />
			<path
   class="st1"
   d="m 129.4,259 c 0.1,-0.3 0.2,-0.4 0.5,-0.5 2.1,-0.2 4.1,-0.9 6.2,-0.5 -1.9,0.5 -3.9,0.7 -5.9,0.9 -0.2,0.1 -0.5,0.1 -0.8,0.1 z"
   id="path22" />
			<path
   class="st1"
   d="m 315,281.8 c 1.7,0.2 3.2,1 4.5,2.1 -1.7,0 -3,-1.2 -4.5,-2.1 z"
   id="path23" />
			<path
   class="st1"
   d="m 280.2,268.6 c 2,0.7 4.2,0.8 6,1.9 -1.5,0 -2.9,-0.7 -4.3,-1.1 -0.6,-0.1 -1.5,0.2 -1.7,-0.8 z"
   id="path24" />
			<path
   class="st1"
   d="m 267.7,265.3 c 1.3,0 2.6,0.2 3.6,1.2 -1.2,-0.3 -2.6,-0.2 -3.6,-1.2 z"
   id="path25" />
			<path
   class="st1"
   d="m 345.6,301.6 c 1.3,0.7 2.3,1.8 3.1,3.1 -1.4,-0.8 -2.4,-1.9 -3.1,-3.1 z"
   id="path26" />
			<path
   class="st1"
   d="m 58.6,288.5 c 0.7,-1.2 1.6,-2.2 2.8,-2.8 -0.6,1.2 -1.6,2.2 -2.8,2.8 z"
   id="path27" />
			<path
   class="st1"
   d="m 227.4,257.9 c 1.3,0.2 2.5,0.3 3.8,0.4 0.3,0 0.6,0 0.8,0.2 -1.4,0.2 -2.8,-0.3 -4.2,-0.3 -0.3,0.1 -0.4,-0.1 -0.4,-0.3 z"
   id="path28" />
			<path
   class="st1"
   d="m 335.2,293.4 c 1,0.1 1.6,0.7 2.1,1.4 -0.9,-0.1 -1.6,-0.7 -2.1,-1.4 z"
   id="path29" />
			<path
   class="st1"
   d="m 321.8,285.2 c 0.9,0.1 1.7,0.3 2.1,1.2 -0.8,-0.2 -1.6,-0.5 -2.1,-1.2 z"
   id="path30" />
			<path
   class="st1"
   d="m 349.1,305.2 c 0.8,0.3 1.1,0.9 1.4,1.6 -0.6,-0.4 -1.4,-0.7 -1.4,-1.6 z"
   id="path31" />
			<path
   class="st1"
   d="m 340,297 c 0.7,0 1.1,0.3 1.2,1 -0.7,0 -0.8,-0.6 -1.2,-1 z"
   id="path32" />
			<path
   class="st1"
   d="m 337.4,294.8 c 0.5,0 0.7,0.3 0.9,0.7 -0.5,0 -0.9,-0.1 -0.9,-0.7 z"
   id="path33" />
			<path
   class="st1"
   d="m 338.3,295.5 c 0.5,0 0.7,0.3 0.9,0.7 -0.4,0.1 -0.8,-0.1 -0.9,-0.7 z"
   id="path34" />
			<path
   class="st1"
   d="m 64.3,283.3 c 0.1,-0.6 0.4,-0.8 1,-0.7 -0.2,0.4 -0.5,0.7 -1,0.7 z"
   id="path35" />
			<path
   class="st1"
   d="m 62.2,285.2 c 0,-0.5 0.2,-0.7 0.7,-0.7 0,0.4 -0.3,0.7 -0.7,0.7 z"
   id="path36" />
			<path
   class="st1"
   d="m 57.1,290 c 0.2,-0.4 0.6,-0.5 0.9,-0.7 0,0.6 -0.3,0.7 -0.9,0.7 z"
   id="path37" />
			<path
   class="st1"
   d="m 339.3,296.2 c 0.4,0 0.7,0.3 0.7,0.7 -0.5,0 -0.7,-0.2 -0.7,-0.7 z"
   id="path38" />
			<path
   class="st1"
   d="m 343.6,299.9 c 0.5,0 0.7,0.3 0.7,0.7 -0.4,-0.1 -0.7,-0.3 -0.7,-0.7 z"
   id="path39" />
			<path
   class="st1"
   d="m 68.9,279.9 c 0.1,-0.4 0.3,-0.5 0.7,-0.5 -0.1,0.4 -0.4,0.5 -0.7,0.5 z"
   id="path40" />
			<path
   class="st1"
   d="m 62.9,284.5 c 0,-0.3 0.2,-0.5 0.5,-0.5 -0.1,0.3 -0.2,0.5 -0.5,0.5 z"
   id="path41" />
			<path
   class="st1"
   d="m 65.3,282.5 c 0,-0.3 0.2,-0.4 0.5,-0.4 -0.1,0.3 -0.2,0.4 -0.5,0.4 z"
   id="path42" />
			<path
   class="st1"
   d="m 79.5,273.7 c 0.2,-0.3 0.4,-0.3 0.7,-0.2 -0.2,0.2 -0.5,0.2 -0.7,0.2 z"
   id="path43" />
			<path
   class="st1"
   d="m 128.2,259 c 0.2,-0.3 0.5,-0.2 0.7,0 -0.2,0 -0.4,0 -0.7,0 z"
   id="path44" />
			<path
   class="st1"
   d="m 321.3,285 c 0.2,0 0.4,0 0.5,0.2 -0.2,0 -0.4,-0.1 -0.5,-0.2 z"
   id="path45" />
			<path
   class="st1"
   d="m 320.1,284.2 c 0.2,0 0.4,0 0.5,0.2 -0.2,0.1 -0.4,0 -0.5,-0.2 z"
   id="path46" />
			<path
   class="st1"
   d="m 319.6,284 c 0.2,0 0.4,0 0.5,0.2 -0.2,0 -0.4,0 -0.5,-0.2 z"
   id="path47" />
			<path
   class="st1"
   d="m 320.6,284.5 c 0.2,0 0.4,0 0.5,0.2 -0.3,0 -0.4,0 -0.5,-0.2 z"
   id="path48" />
			<path
   class="st1"
   d="m 64.1,283.5 c 0.1,-0.1 0.2,-0.2 0.2,-0.2 0,0.1 0.1,0.4 -0.2,0.2 z"
   id="path49" />
			<path
   class="st1"
   d="m 77.8,274.6 c 0.1,-0.2 0.3,-0.2 0.5,-0.2 -0.2,0.2 -0.3,0.2 -0.5,0.2 z"
   id="path50" />
			<path
   class="st1"
   d="m 78.3,274.4 c 0.1,-0.2 0.3,-0.2 0.5,-0.2 -0.2,0.1 -0.3,0.2 -0.5,0.2 z"
   id="path51" />
			<path
   class="st1"
   d="m 342.9,299.1 c 0.3,-0.1 0.2,0.1 0.2,0.2 -0.1,0 -0.1,-0.1 -0.2,-0.2 z"
   id="path52" />
			<path
   class="st1"
   d="m 344.6,300.8 c 0.1,0.1 0.2,0.2 0.3,0.2 -0.4,0.2 -0.3,-0.1 -0.3,-0.2 z"
   id="path53" />
			<path
   class="st1"
   d="m 79,273.9 c 0.1,-0.2 0.3,-0.2 0.5,-0.2 -0.2,0.2 -0.3,0.2 -0.5,0.2 z"
   id="path54" />
			<path
   class="st1"
   d="m 128.9,259 c 0.2,0 0.3,0 0.5,0 -0.2,0.3 -0.3,0.3 -0.5,0 z"
   id="path55" />
			<path
   class="st1"
   d="m 49.9,305.8 c 0,-0.1 -0.1,-0.1 -0.1,-0.2 0,0 0.1,-0.1 0.1,-0.1 0.2,0.2 0.2,0.3 0,0.3 z"
   id="path56" />
			<path
   class="st1"
   d="m 321,284.7 c 0.1,0.1 0.1,0.1 0.2,0.2 0,0 -0.1,-0.1 -0.2,-0.2 z"
   id="path57" />
			<path
   class="st1"
   d="m 56.9,290.2 c 0.1,-0.1 0.1,-0.1 0.2,-0.2 -0.1,0.1 -0.1,0.2 -0.2,0.2 z"
   id="path58" />
			<path
   class="st1"
   d="m 314.8,281.6 c 0.1,0.1 0.1,0.1 0.2,0.2 0,-0.1 -0.1,-0.1 -0.2,-0.2 z"
   id="path59" />
			<path
   class="st1"
   d="m 78.7,274.1 c 0.1,-0.1 0.1,-0.1 0.2,-0.2 0,0.1 -0.1,0.2 -0.2,0.2 z"
   id="path60" />
			<path
   class="st1"
   d="m 63.4,284 c 0.1,-0.1 0.1,-0.1 0.2,-0.2 -0.1,0 -0.2,0.1 -0.2,0.2 z"
   id="path61" />
		</g>
	</g>
</g>
<g
   id="g66"
   transform="translate(-22)">
	<g
   id="g65">
		<g
   id="g64">
			<path
   class="st3"
   d="m 175.7,177.2 c 6.6,0 13.1,0 19.7,0 0.1,0.1 0.3,0.2 0.4,0.2 4.3,0.1 8.7,0.2 13,0.7 2.8,0.4 5.7,0.2 8.6,0.5 6.2,0.5 12.5,1.2 18.7,2 8.7,1.2 17.4,2.7 26.1,4.5 20.9,4.4 41.2,10.7 60.5,20 5.1,2.5 10,5.4 14.8,8.4 2.8,1.8 5.5,3.7 8.1,5.8 6.2,5 11.7,10.5 15.7,17.5 1.4,2.5 2.6,5.1 3.2,8 0.3,1.5 0.4,3.1 1,4.5 0,1.8 0,3.5 0,5.3 -0.4,0.7 -0.1,1.5 -0.5,2.2 -0.1,0.1 -0.1,0.2 -0.2,0.3 -1.3,6.2 -4.6,11.4 -8.8,15.9 -5.2,5.6 -11.5,9.8 -18.3,13.3 -13.8,7.2 -28.5,11.4 -43.7,14.4 -10.5,2.1 -21,3.5 -31.7,4.3 -6.9,0.6 -13.9,0.9 -20.8,1.1 -10.3,0.3 -20.5,-0.1 -30.8,-0.7 -2.4,-0.1 -4.8,-0.3 -7.2,-0.5 -4.5,-0.4 -9,-0.9 -13.5,-1.4 -4.1,-0.4 -8.3,-1 -12.3,-1.6 -4.9,-0.7 -9.8,-1.6 -14.7,-2.7 -6.9,-1.5 -13.9,-2.8 -20.7,-4.7 -6.4,-1.8 -12.8,-3.5 -19,-5.7 -8.1,-2.8 -16.1,-5.9 -23.9,-9.7 -6.5,-3.1 -12.8,-6.6 -18.7,-10.7 -7.6,-5.2 -14.6,-11.1 -19.9,-18.8 -1.9,-2.7 -3.5,-5.6 -4.6,-8.7 -0.9,-2.4 -1.2,-5 -1.5,-7.6 0,-1 -0.3,-2 -0.2,-3.1 0.6,-6.1 2.8,-11.5 6.5,-16.3 3,-3.9 6.5,-7.2 10.4,-10 9.2,-6.7 19.4,-11.3 30.1,-14.8 10.1,-3.4 20.4,-5.8 30.9,-7.5 6.5,-1.1 13.1,-2 19.7,-2.6 4,-0.4 8,-0.4 12,-0.9 3.4,-0.4 6.8,-0.5 10.2,-0.5 0.4,-0.2 0.9,0 1.4,-0.4 z"
   id="path63" />
			<path
   class="st4"
   d="m 364.9,256.6 c -0.2,2.9 -0.3,5.8 -0.5,8.7 -0.5,6.5 -1.1,12.9 -1.6,19.4 -0.6,7.7 -1.2,15.4 -1.9,23.1 -0.5,6.4 -1.1,12.7 -1.5,19.1 -0.4,5.6 -1.1,11.1 -4.1,16.1 -2.9,4.8 -6.6,9 -11,12.5 -6.7,5.3 -14.1,9.3 -21.9,12.6 -4.1,1.7 -8.1,3.2 -12.3,4.6 -10.3,3.3 -20.8,5.6 -31.5,7.3 -11.7,1.9 -23.4,3 -35.2,3.5 -7,0.3 -14,0.5 -21,0.3 -16.7,-0.4 -33.4,-1.6 -49.9,-4.2 -0.9,-0.1 -1.8,-0.2 -2.7,-0.3 -0.5,-0.6 -1.3,-0.4 -1.9,-0.4 0,0 -0.1,0 -0.1,0 -0.4,-0.3 -0.9,-0.3 -1.4,-0.2 0,0 -0.1,0 -0.1,0 -0.8,-0.4 -1.7,-0.5 -2.6,-0.5 -3.6,-0.5 -7.2,-1.3 -10.8,-2 -12.6,-2.6 -25,-5.9 -37.2,-10.2 C 101.4,361 87.6,355 75.1,346.4 67.2,341 60,334.9 54.6,326.9 c -2.7,-4 -4.7,-8.2 -5.6,-13 -0.1,-0.4 -0.1,-0.8 -0.1,-1.2 -0.2,-6.6 0.3,-13.2 0.8,-19.8 0.5,-5.7 0.9,-11.5 1.3,-17.2 0.6,-7.9 1.2,-15.7 1.8,-23.6 0.4,-5.8 0.9,-11.6 1.4,-17.5 0,-0.5 -0.3,-1.2 0.4,-1.5 0.3,2.6 0.6,5.2 1.5,7.6 1.1,3.1 2.7,6 4.6,8.7 5.3,7.7 12.3,13.6 19.9,18.8 5.9,4.1 12.2,7.5 18.7,10.7 7.7,3.7 15.8,6.8 23.9,9.7 6.3,2.2 12.6,3.9 19,5.7 6.8,1.9 13.8,3.2 20.7,4.7 4.9,1.1 9.8,2 14.7,2.7 4.1,0.6 8.2,1.2 12.3,1.6 4.5,0.5 9,1 13.5,1.4 2.4,0.2 4.8,0.4 7.2,0.5 10.3,0.6 20.5,1 30.8,0.7 6.9,-0.2 13.9,-0.5 20.8,-1.1 10.6,-0.9 21.2,-2.3 31.7,-4.3 15.2,-3 29.9,-7.2 43.7,-14.4 6.7,-3.5 13,-7.7 18.3,-13.3 4.3,-4.6 7.5,-9.7 8.8,-15.9 0,-0.1 0.1,-0.2 0.2,-0.3 z"
   id="path64" />
		</g>
	</g>
</g>
<g
   id="g128"
   transform="translate(-22)">
	<g
   id="g127">
		<g
   id="g126">
			<path
   class="st0"
   d="m 188.3,98.2 c 1.8,0 3.7,0 5.5,0 2.5,0.5 5,0.1 7.5,0.2 0.5,0 0.9,0 1.4,0 1.7,0.4 3.4,0.4 5.1,0.2 0.2,0 0.5,0 0.7,0 1.4,0.4 2.7,0.4 4.1,0.2 0.6,0.2 1.3,0.4 1.9,0.2 1.6,-0.4 3.1,0.6 4.7,0 0.3,-0.1 0.6,0 0.9,0.2 0.4,0.3 0.8,0.3 1.2,0.2 0.5,-0.2 1,-0.1 1.5,0 1.3,0.1 2.6,0.4 4,0.5 1.9,0.1 3.8,0.2 5.7,0.5 1.9,0.2 3.8,0.2 5.6,0.6 0,0.2 0.1,0.4 0.3,0.4 1.4,0 2.8,0.5 4.2,0.3 0.6,0.5 1.5,0.3 2.1,0.4 2.1,0.1 4.3,0.6 6.4,0.8 4.4,0.5 8.6,1.6 12.9,2.3 2.9,0.5 5.8,1.3 8.6,2.1 0.7,0.2 1.5,-0.2 2.2,0.3 1.1,0.7 2.4,0.6 3.6,0.9 1,1.1 2.4,1 3.6,1.2 1.9,0.2 3.8,0.7 5.6,1.2 1.1,0.3 2.1,0.7 3.2,1 0.2,0.9 1.1,0.7 1.7,0.8 1.4,0.4 2.8,1.1 4.3,1.1 0,0 0,0 0,0 0.2,0.1 0.4,0.3 0.6,0.4 4.2,1.4 8.3,2.9 12.4,4.4 3.8,1.4 7.5,3.1 11.2,4.5 1.5,0.6 2.7,1.7 4.4,1.7 0,0 0,0 0,0 0.1,0.1 0.1,0.1 0.2,0.2 0,0 0,0 0,0 1.5,0.8 2.8,2 4.5,2.1 v 0 c 0.1,0.2 0.3,0.2 0.5,0.2 v 0 c 0.1,0.2 0.3,0.2 0.5,0.2 v 0 c 0.1,0.2 0.3,0.2 0.5,0.2 0,0 0,0 0,0 0.1,0.1 0.1,0.1 0.2,0.2 0,0 0,0 0,0 0.1,0.2 0.3,0.2 0.5,0.2 v 0 c 0.5,0.7 1.3,1 2.1,1.2 v 0 c 0.1,0.3 0.4,0.5 0.7,0.6 3.3,1.9 6.6,3.8 9.7,6 0.2,0.2 0.6,0.2 0.9,0.3 v 0 c 0.5,0.8 1.2,1.4 2.1,1.4 v 0 c 0,0.6 0.4,0.7 0.9,0.7 v 0 c 0,0.6 0.4,0.7 0.9,0.7 v 0 c 0,0.5 0.2,0.7 0.7,0.7 v 0 c 0.3,0.4 0.5,1 1.2,1 0.7,0.2 1.3,0.6 1.7,1.2 0.1,0.1 0.1,0.1 0.2,0.2 0.2,0.2 0.3,0.3 0.5,0.5 0,0.5 0.3,0.7 0.7,0.7 0.1,0.1 0.2,0.2 0.2,0.2 0.1,0.1 -0.1,0.4 0.3,0.2 0.2,0.2 0.5,0.4 0.7,0.5 0.8,1.3 1.8,2.4 3.1,3.1 0.2,0.2 0.3,0.4 0.5,0.5 0,1 0.7,1.3 1.4,1.6 0.1,0.1 0.2,0.2 0.3,0.3 0.1,1.2 1.2,1.7 1.8,2.6 1.1,1.7 2.3,3.4 3.5,5 0,0 0,0 0,0 0.1,0.3 0.2,0.6 0.3,0.9 1.2,2.6 2.3,5.2 3,8 0.9,3.9 1,7.8 0.2,11.6 -0.9,4.3 -2.8,8.2 -5.4,11.7 -3.3,4.4 -7.3,8 -11.8,11.2 -7.9,5.6 -16.6,9.6 -25.6,12.8 -10.2,3.6 -20.6,6.2 -31.2,8.2 -7.6,1.4 -15.2,2.4 -22.9,3.2 -4.5,0.4 -9,0.8 -13.6,1.1 -3.8,0.3 -7.6,0.4 -11.3,0.5 -8.4,0.1 -16.9,0.1 -25.3,-0.4 -5,-0.3 -10.1,-0.5 -15.1,-1 -3.6,-0.3 -7.2,-0.6 -10.8,-1 -5.6,-0.7 -11.2,-1.4 -16.8,-2.3 -9.5,-1.5 -19,-3.4 -28.3,-5.7 -6.6,-1.7 -13.3,-3.4 -19.7,-5.7 -3.7,-1.3 -7.4,-2.5 -11.1,-3.8 -5.2,-1.9 -10.2,-4.1 -15.2,-6.4 -3.1,-1.4 -6.1,-3.1 -9.1,-4.7 -4.6,-2.5 -9,-5.1 -13.2,-8.2 -4.5,-3.3 -8.9,-6.8 -12.6,-11.1 -3,-3.5 -6,-7 -7.9,-11.3 -0.9,-2.1 -1.7,-4.2 -2.2,-6.4 -0.7,-2.9 -0.9,-5.9 -0.5,-8.9 0,-0.3 0,-0.6 0,-1 0.2,-0.1 0.1,-0.2 0,-0.3 0,-0.1 0,-0.1 0,-0.2 0.1,-0.1 0.2,-0.3 0.2,-0.4 0.9,-4.3 2.6,-8.3 5.2,-12 0.6,-0.8 1.6,-1.5 1.5,-2.7 v -0.1 c 0.1,-0.1 0.1,-0.1 0.2,-0.2 0,0 0,0 0,0 0.5,0 0.9,-0.1 0.9,-0.7 0.2,-0.2 0.3,-0.5 0.5,-0.7 1.2,-0.7 2.2,-1.6 2.8,-2.8 0.2,-0.2 0.5,-0.3 0.7,-0.5 0.5,0 0.7,-0.3 0.7,-0.7 v 0 c 0.3,0 0.5,-0.2 0.5,-0.5 0,0 0,0 0,0 0.1,-0.1 0.1,-0.1 0.2,-0.2 0.2,-0.1 0.3,-0.2 0.5,-0.3 0.3,0.2 0.2,-0.1 0.2,-0.2 v 0 c 0.5,0 0.8,-0.3 1,-0.7 v 0 c 0.3,0 0.5,-0.2 0.5,-0.4 0.9,-0.9 2,-1.6 3.1,-2.2 0.3,0 0.6,-0.1 0.7,-0.5 v 0 c 0.3,0 0.6,0 0.8,-0.2 1,-0.8 2.1,-1.4 3.2,-2.1 1.4,-0.9 3,-1.4 4.2,-2.5 v 0 c 0.2,0 0.4,0 0.5,-0.2 v 0 c 0.2,0 0.4,0 0.5,-0.2 v 0 C 89,117 89,117 89.1,116.9 v 0 c 0.2,0 0.4,0 0.5,-0.2 v 0 c 0.3,0 0.5,0.1 0.7,-0.2 v 0 c 0.3,0 0.6,0 0.9,-0.1 5,-2.7 10.4,-4.5 15.7,-6.3 3.4,-1.2 6.9,-2.2 10.4,-3.1 5.1,-1.3 10.3,-2.5 15.5,-3.5 1.8,-0.3 3.7,-0.6 5.5,-1.1 0,-0.1 0,-0.2 0,-0.2 0.2,0 0.5,0 0.7,0 v 0 c 0.2,0.2 0.3,0.2 0.5,0 v 0 c 0.3,0 0.5,0 0.8,-0.1 2,-0.2 4,-0.4 5.9,-0.9 0.3,-0.2 0.6,-0.3 1,-0.3 1.1,0.3 2.2,0 3.3,-0.2 1.8,-0.3 3.6,-0.1 5.4,-0.7 2.2,-0.5 4.5,-0.6 6.7,-0.8 2,-0.2 4,-0.5 6,-0.2 1.6,-0.3 3.2,0 4.8,-0.5 0.2,0 0.5,0 0.7,0 1,0 2.1,0 3.1,0 0.6,0 1.3,0.2 1.9,-0.2 0.5,0 0.9,0 1.4,0 1.9,0 3.8,0 5.8,0 1,0.1 1.6,0.3 2,-0.1 z"
   id="path66" />
			<path
   class="st1"
   d="m 60.5,150 c -0.4,3 -0.2,6 0.5,8.9 0.5,2.2 1.3,4.3 2.2,6.4 1.9,4.3 4.9,7.8 7.9,11.3 3.7,4.3 8.1,7.8 12.6,11.1 4.2,3.1 8.6,5.7 13.2,8.2 3,1.6 6,3.3 9.1,4.7 5,2.3 10,4.5 15.2,6.4 3.7,1.3 7.4,2.5 11.1,3.8 6.5,2.3 13.1,4.1 19.7,5.7 9.3,2.3 18.8,4.2 28.3,5.7 5.6,0.9 11.2,1.6 16.8,2.3 3.6,0.4 7.2,0.7 10.8,1 5,0.5 10.1,0.7 15.1,1 8.4,0.5 16.9,0.5 25.3,0.4 3.8,-0.1 7.6,-0.2 11.3,-0.5 4.5,-0.4 9,-0.7 13.6,-1.1 7.7,-0.7 15.3,-1.8 22.9,-3.2 10.6,-1.9 21,-4.5 31.2,-8.2 9.1,-3.2 17.7,-7.3 25.6,-12.8 4.5,-3.1 8.5,-6.8 11.8,-11.2 2.6,-3.5 4.5,-7.4 5.4,-11.7 0.8,-3.8 0.7,-7.7 -0.2,-11.6 -0.7,-2.8 -1.8,-5.4 -3,-8 -0.1,-0.3 -0.2,-0.6 -0.3,-0.9 0.4,0 0.5,0.4 0.6,0.6 1.7,3.3 3,6.7 3.4,10.4 0,0.3 0,0.7 0.5,0.7 0,0.2 0,0.3 0,0.5 -0.4,1.8 -0.4,3.5 0,5.3 0,0.2 0,0.5 0,0.7 -0.4,0 -0.4,0.3 -0.5,0.6 -0.2,2.1 -0.3,4.2 -0.5,6.3 -0.2,2.3 -0.3,4.6 -0.5,6.9 -0.4,4.6 -0.8,9.2 -1.1,13.8 -0.3,3.3 -0.5,6.6 -0.8,9.9 -0.3,3.6 -0.6,7.1 -0.9,10.7 -0.3,3.4 -0.5,6.8 -0.8,10.1 -0.4,4.7 -0.8,9.5 -1.2,14.2 -0.2,2.1 -0.4,4.2 -0.7,6.3 -0.5,3.1 -1.8,5.8 -3.2,8.6 -1.8,3.6 -4.5,6.5 -7.2,9.3 -3.4,3.3 -7.1,6.2 -11.2,8.7 -2.9,1.8 -5.9,3.3 -8.9,5 -3.3,1.9 -7.1,3 -10.6,4.5 -4.8,2.1 -9.8,3.5 -14.9,4.9 -8.7,2.4 -17.5,4.2 -26.5,5.5 -3.8,0.6 -7.6,1.1 -11.4,1.4 -5.6,0.6 -11.2,1.1 -16.8,1.4 -4.4,0.3 -8.9,0.5 -13.3,0.5 -5.6,0 -11.2,0.3 -16.8,-0.2 -2.2,-0.2 -4.4,-0.1 -6.7,-0.2 -4.1,-0.2 -8.3,-0.4 -12.4,-0.8 -3.1,-0.3 -6.3,-0.4 -9.4,-0.8 -5.4,-0.6 -10.9,-1.3 -16.3,-2.1 -7.2,-1.1 -14.4,-2.3 -21.6,-3.8 -5.5,-1.1 -11,-2.4 -16.4,-3.9 -4.5,-1.2 -8.9,-2.5 -13.3,-3.9 -4.3,-1.3 -8.6,-2.9 -12.9,-4.4 -5.2,-1.9 -10.3,-4.1 -15.2,-6.5 -7.1,-3.6 -14.2,-7.2 -20.6,-11.9 -3.7,-2.7 -7.2,-5.5 -10.6,-8.6 -3.9,-3.6 -7.2,-7.8 -9.8,-12.4 -2.4,-4.1 -4.1,-8.4 -3.8,-13.4 0.2,-3.6 0,-7.3 0.1,-10.9 0,-0.4 0,-0.8 0,-1.2 0.3,-3.8 0.6,-7.6 0.9,-11.4 0.3,-3.5 0.5,-6.9 0.8,-10.4 0.4,-4.9 0.8,-9.8 1.2,-14.7 0.2,-2.5 0.3,-4.9 0.5,-7.4 0.4,-4.7 0.8,-9.4 1.1,-14.1 0.3,-3.7 0.5,-7.4 0.8,-11.1 0.4,0 0.4,-0.3 0.8,-0.4 z"
   id="path67" />
			<path
   class="st1"
   d="m 201.3,98.4 c -2.5,-0.1 -5,0.3 -7.5,-0.2 2.5,0 5,0 7.4,0 0.1,0 0.1,0.1 0.1,0.2 z"
   id="path68" />
			<path
   class="st1"
   d="m 188.3,98.2 c -0.4,0.4 -1,0.2 -1.5,0.2 -1.9,0 -3.8,0 -5.8,0 0,-0.1 0,-0.2 0,-0.2 2.5,0 4.9,0 7.3,0 z"
   id="path69" />
			<path
   class="st1"
   d="m 169.1,99.1 c 0.1,-0.6 0.6,-0.5 0.9,-0.5 0.8,0 1.7,0 2.5,0 0.4,0 0.8,0.1 0.9,-0.5 0.2,0 0.3,0 0.5,0 0,0.2 0,0.3 0,0.5 -1.6,0.5 -3.2,0.2 -4.8,0.5 z"
   id="path70" />
			<path
   class="st1"
   d="m 210.1,98.2 c 0.1,0.6 0.6,0.4 0.9,0.5 0.5,0.1 1,-0.1 1.5,0.2 -1.4,0.2 -2.8,0.1 -4.1,-0.2 0.2,-0.1 0.3,-0.3 0.2,-0.5 0.2,0 0.3,0 0.5,0 0.1,0.1 0.1,0.3 0.2,0.4 0.3,0.1 0.3,-0.2 0.3,-0.4 0.2,0 0.4,0 0.5,0 z"
   id="path71" />
			<path
   class="st1"
   d="m 207.8,98.6 c -1.7,0.1 -3.4,0.2 -5.1,-0.2 0,-0.1 0,-0.2 0,-0.2 0.2,0 0.3,0 0.5,0 0.4,0.4 0.9,0.2 1.3,0.2 1.1,0.1 2.2,-0.3 3.3,0.2 z"
   id="path72" />
			<path
   class="st2"
   d="m 207.8,98.6 c -1,-0.5 -2.2,-0.1 -3.2,-0.2 -0.5,-0.1 -0.9,0.2 -1.3,-0.2 1.8,0 3.7,0 5.5,0 0,0.2 -0.1,0.4 -0.2,0.5 -0.4,-0.1 -0.6,-0.1 -0.8,-0.1 z"
   id="path73" />
			<path
   class="st2"
   d="m 173.9,98.6 c 0,-0.2 0,-0.3 0,-0.5 1.8,0 3.5,0 5.3,0 -0.4,0.4 -1,0.2 -1.5,0.2 -1,0.1 -2.1,-0.2 -3.1,0.2 -0.2,0.1 -0.5,0.1 -0.7,0.1 z"
   id="path74" />
			<path
   class="st1"
   d="m 174.6,98.6 c 1,-0.5 2.1,-0.1 3.1,-0.2 0.5,-0.1 1,0.2 1.5,-0.2 0.2,0 0.3,0 0.5,0 0,0.1 0,0.2 0,0.2 -0.6,0.5 -1.3,0.2 -1.9,0.2 -1.1,0.1 -2.2,0 -3.2,0 z"
   id="path75" />
			<path
   class="st2"
   d="m 371.3,175.5 c -0.4,-1.8 -0.4,-3.5 0,-5.3 0,1.7 0,3.5 0,5.3 z"
   id="path76" />
			<path
   class="st2"
   d="m 179.7,98.4 c 0,-0.1 0,-0.2 0,-0.2 0.5,0 1,0 1.4,0 0,0.1 0,0.2 0,0.2 -0.5,0 -1,0 -1.4,0 z"
   id="path77" />
			<path
   class="st2"
   d="m 202.7,98.2 c 0,0.1 0,0.2 0,0.2 -0.5,0 -0.9,0 -1.4,0 0,-0.1 0,-0.2 0,-0.2 0.4,0 0.9,0 1.4,0 z"
   id="path78" />
			<path
   class="st2"
   d="m 209.7,98.2 c 0,0.2 0,0.4 -0.3,0.4 -0.1,0 -0.1,-0.2 -0.2,-0.4 0.1,0 0.3,0 0.5,0 z"
   id="path79" />
			<path
   class="st1"
   d="m 90.8,116.6 c 0.2,-0.4 0.6,-0.5 0.9,-0.7 4.3,-2.1 8.8,-3.9 13.4,-5.5 5.9,-2.1 11.9,-3.7 17.9,-5.2 4.9,-1.2 9.8,-2.3 14.8,-2.9 0.4,-0.1 0.7,0.1 1,0.1 -1.8,0.5 -3.6,0.7 -5.5,1.1 -5.2,1 -10.4,2.2 -15.5,3.5 -3.5,0.9 -7,2 -10.4,3.1 -5.3,1.8 -10.7,3.7 -15.7,6.3 -0.3,0.3 -0.6,0.3 -0.9,0.2 z"
   id="path80" />
			<path
   class="st1"
   d="m 296.8,113.8 c 1.9,0.2 3.6,0.9 5.4,1.5 2.5,0.9 5,1.6 7.5,2.6 3.8,1.5 7.6,2.9 11.3,4.7 1.5,0.7 3,1.3 4.4,2.2 -1.7,0 -2.9,-1.1 -4.4,-1.7 -3.7,-1.5 -7.4,-3.1 -11.2,-4.5 -4.1,-1.5 -8.2,-3 -12.4,-4.4 -0.2,-0.1 -0.4,-0.3 -0.6,-0.4 z"
   id="path81" />
			<path
   class="st1"
   d="m 60.5,148.6 c -0.1,-2.4 0.7,-4.6 1.7,-6.7 1.3,-3 3,-5.7 5,-8.2 0.1,-0.1 0.2,-0.1 0.3,-0.2 0.1,1.2 -0.9,1.9 -1.5,2.7 -2.6,3.6 -4.3,7.6 -5.2,12 -0.1,0.1 -0.2,0.2 -0.3,0.4 z"
   id="path82" />
			<path
   class="st1"
   d="m 334.5,129.6 c 1.5,0.1 2.7,1.2 3.9,1.9 2.3,1.3 4.4,2.8 6.6,4.2 0.3,0.2 0.7,0.3 0.7,0.8 -0.3,-0.1 -0.6,-0.2 -0.9,-0.3 -3.1,-2.2 -6.4,-4.1 -9.7,-6 -0.1,-0.1 -0.4,-0.2 -0.6,-0.6 z"
   id="path83" />
			<path
   class="st1"
   d="m 80.2,122.6 c 0.9,-1.3 2.4,-1.8 3.6,-2.6 1.4,-0.9 2.8,-1.9 4.5,-2.2 -1.2,1.1 -2.8,1.6 -4.2,2.5 -1.1,0.7 -2.2,1.3 -3.2,2.1 -0.1,0.2 -0.4,0.3 -0.7,0.2 z"
   id="path84" />
			<path
   class="st1"
   d="m 361.4,150.3 c 1.2,0.7 1.8,1.9 2.5,2.9 1,1.5 2.4,2.8 2.8,4.7 -1.2,-1.7 -2.4,-3.3 -3.5,-5 -0.6,-0.9 -1.6,-1.5 -1.8,-2.6 z"
   id="path85" />
			<path
   class="st1"
   d="m 147.7,101 c 1.8,-0.8 3.7,-0.5 5.6,-0.9 1,-0.2 2,0 3.1,0 -1.7,0.6 -3.6,0.4 -5.4,0.7 -1.1,0.2 -2.2,0.5 -3.3,0.2 z"
   id="path86" />
			<path
   class="st1"
   d="m 140,102.2 c 0.1,-0.3 0.2,-0.4 0.5,-0.5 2.1,-0.2 4.1,-0.9 6.2,-0.5 -1.9,0.5 -3.9,0.7 -5.9,0.9 -0.2,0.1 -0.5,0.1 -0.8,0.1 z"
   id="path87" />
			<path
   class="st1"
   d="m 325.7,125 c 1.7,0.2 3.2,1 4.5,2.1 -1.8,0 -3.1,-1.2 -4.5,-2.1 z"
   id="path88" />
			<path
   class="st1"
   d="m 290.8,111.9 c 2,0.7 4.2,0.8 6,1.9 -1.5,0 -2.9,-0.7 -4.3,-1.1 -0.6,-0.2 -1.4,0.1 -1.7,-0.8 z"
   id="path89" />
			<path
   class="st1"
   d="m 278.3,108.5 c 1.3,0 2.6,0.2 3.6,1.2 -1.2,-0.2 -2.6,-0.2 -3.6,-1.2 z"
   id="path90" />
			<path
   class="st1"
   d="m 356.2,144.8 c 1.3,0.7 2.3,1.8 3.1,3.1 -1.4,-0.8 -2.4,-1.8 -3.1,-3.1 z"
   id="path91" />
			<path
   class="st1"
   d="m 69.2,131.8 c 0.7,-1.2 1.6,-2.2 2.8,-2.8 -0.6,1.1 -1.6,2.1 -2.8,2.8 z"
   id="path92" />
			<path
   class="st1"
   d="m 238,101.1 c 1.3,0.2 2.5,0.3 3.8,0.4 0.3,0 0.6,0 0.8,0.2 -1.4,0.2 -2.8,-0.3 -4.2,-0.3 -0.3,0.1 -0.4,-0.1 -0.4,-0.3 z"
   id="path93" />
			<path
   class="st1"
   d="m 345.8,136.6 c 1,0.1 1.6,0.7 2.1,1.4 -0.9,-0.1 -1.5,-0.7 -2.1,-1.4 z"
   id="path94" />
			<path
   class="st1"
   d="m 332.4,128.4 c 0.9,0.1 1.7,0.3 2.1,1.2 -0.8,-0.2 -1.6,-0.5 -2.1,-1.2 z"
   id="path95" />
			<path
   class="st1"
   d="m 359.8,148.4 c 0.8,0.3 1.1,0.9 1.4,1.6 -0.7,-0.4 -1.5,-0.7 -1.4,-1.6 z"
   id="path96" />
			<path
   class="st1"
   d="m 350.6,140.2 c 0.7,0 1.1,0.3 1.2,1 -0.7,0 -0.8,-0.6 -1.2,-1 z"
   id="path97" />
			<path
   class="st1"
   d="m 348,138 c 0.5,0 0.7,0.3 0.9,0.7 -0.5,0.1 -0.9,-0.1 -0.9,-0.7 z"
   id="path98" />
			<path
   class="st1"
   d="m 349,138.7 c 0.5,0 0.7,0.3 0.9,0.7 -0.5,0.1 -0.9,0 -0.9,-0.7 z"
   id="path99" />
			<path
   class="st1"
   d="m 74.9,126.5 c 0.1,-0.6 0.4,-0.8 1,-0.7 -0.2,0.4 -0.5,0.7 -1,0.7 z"
   id="path100" />
			<path
   class="st1"
   d="m 72.8,128.4 c 0,-0.5 0.2,-0.7 0.7,-0.7 0,0.4 -0.3,0.7 -0.7,0.7 z"
   id="path101" />
			<path
   class="st1"
   d="m 67.8,133.2 c 0.2,-0.4 0.6,-0.5 0.9,-0.7 0,0.6 -0.4,0.7 -0.9,0.7 z"
   id="path102" />
			<path
   class="st1"
   d="m 349.9,139.5 c 0.4,0 0.7,0.3 0.7,0.7 -0.4,-0.1 -0.7,-0.3 -0.7,-0.7 z"
   id="path103" />
			<path
   class="st1"
   d="m 354.2,143.1 c 0.5,0 0.7,0.3 0.7,0.7 -0.4,0 -0.6,-0.3 -0.7,-0.7 z"
   id="path104" />
			<path
   class="st1"
   d="m 79.5,123.1 c 0.1,-0.4 0.3,-0.5 0.7,-0.5 -0.1,0.4 -0.4,0.5 -0.7,0.5 z"
   id="path105" />
			<path
   class="st1"
   d="m 73.5,127.7 c 0,-0.3 0.2,-0.5 0.5,-0.5 0,0.3 -0.2,0.5 -0.5,0.5 z"
   id="path106" />
			<path
   class="st1"
   d="m 75.9,125.8 c 0,-0.3 0.2,-0.4 0.5,-0.4 0,0.2 -0.2,0.4 -0.5,0.4 z"
   id="path107" />
			<path
   class="st1"
   d="m 90.1,116.9 c 0.2,-0.3 0.4,-0.3 0.7,-0.2 -0.2,0.2 -0.5,0.2 -0.7,0.2 z"
   id="path108" />
			<path
   class="st1"
   d="m 138.8,102.2 c 0.2,-0.3 0.5,-0.2 0.7,0 -0.2,0 -0.4,0 -0.7,0 z"
   id="path109" />
			<path
   class="st1"
   d="m 331.9,128.2 c 0.2,0 0.4,0 0.5,0.2 -0.2,0 -0.4,0 -0.5,-0.2 z"
   id="path110" />
			<path
   class="st1"
   d="m 330.7,127.5 c 0.2,0 0.4,0 0.5,0.2 -0.2,0 -0.4,-0.1 -0.5,-0.2 z"
   id="path111" />
			<path
   class="st1"
   d="m 330.2,127.2 c 0.2,0 0.4,0 0.5,0.2 -0.2,0 -0.4,0 -0.5,-0.2 z"
   id="path112" />
			<path
   class="st1"
   d="m 331.2,127.7 c 0.2,0 0.4,0 0.5,0.2 -0.3,0 -0.4,0 -0.5,-0.2 z"
   id="path113" />
			<path
   class="st1"
   d="m 74.7,126.7 c 0.1,-0.1 0.2,-0.2 0.2,-0.2 0,0.1 0.1,0.4 -0.2,0.2 z"
   id="path114" />
			<path
   class="st1"
   d="m 88.4,117.8 c 0.1,-0.2 0.3,-0.2 0.5,-0.2 -0.1,0.2 -0.3,0.2 -0.5,0.2 z"
   id="path115" />
			<path
   class="st1"
   d="m 88.9,117.6 c 0.1,-0.2 0.3,-0.2 0.5,-0.2 -0.2,0.2 -0.3,0.2 -0.5,0.2 z"
   id="path116" />
			<path
   class="st1"
   d="m 353.5,142.4 c 0.3,-0.1 0.2,0.1 0.2,0.2 0,-0.1 -0.1,-0.2 -0.2,-0.2 z"
   id="path117" />
			<path
   class="st1"
   d="m 355.2,144 c 0.1,0.1 0.2,0.2 0.3,0.2 -0.4,0.2 -0.3,-0.1 -0.3,-0.2 z"
   id="path118" />
			<path
   class="st1"
   d="m 89.6,117.1 c 0.1,-0.2 0.3,-0.2 0.5,-0.2 -0.1,0.2 -0.3,0.2 -0.5,0.2 z"
   id="path119" />
			<path
   class="st1"
   d="m 139.5,102.3 c 0.2,0 0.3,0 0.5,0 -0.1,0.2 -0.3,0.2 -0.5,0 z"
   id="path120" />
			<path
   class="st1"
   d="m 60.5,149.1 c 0,-0.1 -0.1,-0.1 -0.1,-0.2 0,0 0.1,-0.1 0.1,-0.1 0.2,0.1 0.2,0.2 0,0.3 z"
   id="path121" />
			<path
   class="st1"
   d="m 331.7,127.9 c 0.1,0.1 0.1,0.1 0.2,0.2 -0.1,0 -0.2,-0.1 -0.2,-0.2 z"
   id="path122" />
			<path
   class="st1"
   d="m 67.5,133.4 c 0.1,-0.1 0.1,-0.1 0.2,-0.2 0,0.1 -0.1,0.2 -0.2,0.2 z"
   id="path123" />
			<path
   class="st1"
   d="m 325.4,124.8 c 0.1,0.1 0.1,0.1 0.2,0.2 0,0 -0.1,-0.1 -0.2,-0.2 z"
   id="path124" />
			<path
   class="st1"
   d="m 89.4,117.4 c 0.1,-0.1 0.1,-0.1 0.2,-0.2 -0.1,0 -0.2,0.1 -0.2,0.2 z"
   id="path125" />
			<path
   class="st1"
   d="m 74,127.2 c 0.1,-0.1 0.1,-0.1 0.2,-0.2 -0.1,0.1 -0.1,0.1 -0.2,0.2 z"
   id="path126" />
		</g>
	</g>
</g>
<g
   id="g131"
   transform="translate(-22)">
	<g
   id="g130">
		<g
   id="g129">
			<path
   class="st3"
   d="m 186.3,20.4 c 6.6,0 13.1,0 19.7,0 0.1,0.1 0.3,0.2 0.4,0.2 4.3,0.1 8.7,0.2 13,0.7 2.8,0.4 5.7,0.2 8.6,0.5 6.2,0.5 12.5,1.2 18.7,2 8.7,1.2 17.4,2.7 26.1,4.5 20.9,4.4 41.2,10.7 60.5,20 5.1,2.5 10,5.4 14.8,8.4 2.8,1.8 5.5,3.7 8.1,5.8 6.2,5 11.7,10.5 15.7,17.5 1.4,2.5 2.6,5.1 3.2,8 0.3,1.5 0.4,3.1 1,4.5 0,1.8 0,3.5 0,5.3 -0.4,0.7 -0.1,1.5 -0.5,2.2 -0.1,0.1 -0.1,0.2 -0.2,0.3 -1.3,6.2 -4.6,11.4 -8.8,15.9 -5.2,5.6 -11.5,9.8 -18.3,13.3 -13.8,7.2 -28.5,11.4 -43.7,14.4 -10.5,2.1 -21,3.5 -31.7,4.3 -6.9,0.6 -13.9,0.9 -20.8,1.1 -10.3,0.3 -20.5,-0.1 -30.8,-0.7 -2.4,-0.1 -4.8,-0.3 -7.2,-0.5 -4.5,-0.4 -9,-0.9 -13.5,-1.4 -4.1,-0.4 -8.3,-1 -12.3,-1.6 -4.9,-0.7 -9.8,-1.6 -14.7,-2.7 -6.9,-1.5 -13.9,-2.8 -20.7,-4.7 -6.4,-1.8 -12.8,-3.5 -19,-5.7 -8.1,-2.8 -16.1,-5.9 -23.9,-9.7 -6.5,-3.1 -12.8,-6.6 -18.7,-10.7 -7.6,-5.2 -14.6,-11.1 -19.9,-18.8 -1.9,-2.7 -3.5,-5.6 -4.6,-8.7 -0.9,-2.4 -1.2,-5 -1.5,-7.6 0,-1 -0.3,-2 -0.2,-3.1 0.6,-6.1 2.8,-11.5 6.5,-16.3 3,-3.9 6.5,-7.2 10.4,-10 9.2,-6.7 19.4,-11.3 30.1,-14.8 10.1,-3.4 20.4,-5.8 30.9,-7.5 6.5,-1.1 13.1,-2 19.7,-2.6 4,-0.4 8,-0.4 12,-0.9 3.4,-0.4 6.8,-0.5 10.2,-0.5 0.4,-0.2 1,0 1.4,-0.4 z"
   id="path128" />
			<path
   class="st4"
   d="m 375.5,99.8 c -0.2,2.9 -0.3,5.8 -0.5,8.7 -0.5,6.5 -1.1,12.9 -1.6,19.4 -0.6,7.7 -1.2,15.4 -1.9,23.1 -0.5,6.4 -1.1,12.7 -1.5,19.1 -0.4,5.6 -1.1,11.1 -4.1,16.1 -2.9,4.8 -6.6,9 -11,12.5 -6.7,5.3 -14.1,9.3 -21.9,12.6 -4.1,1.7 -8.1,3.2 -12.3,4.6 -10.3,3.3 -20.8,5.6 -31.5,7.3 -11.7,1.9 -23.4,3 -35.2,3.5 -7,0.3 -14,0.5 -21,0.3 -16.7,-0.4 -33.4,-1.6 -49.9,-4.2 -0.9,-0.1 -1.8,-0.2 -2.7,-0.3 -0.5,-0.6 -1.3,-0.4 -1.9,-0.4 0,0 -0.1,0 -0.1,0 -0.4,-0.3 -0.9,-0.3 -1.4,-0.2 0,0 -0.1,0 -0.1,0 -0.8,-0.4 -1.7,-0.5 -2.6,-0.5 -3.6,-0.5 -7.2,-1.3 -10.8,-2 -12.6,-2.6 -25,-5.9 -37.2,-10.2 -14.3,-5 -28.1,-11 -40.6,-19.6 -7.9,-5.4 -15.1,-11.5 -20.5,-19.5 -2.7,-4 -4.7,-8.2 -5.6,-13 -0.1,-0.4 -0.1,-0.8 -0.1,-1.2 -0.2,-6.6 0.3,-13.2 0.8,-19.8 0.5,-5.7 0.9,-11.5 1.3,-17.2 0.6,-7.9 1.2,-15.7 1.8,-23.6 0.4,-5.8 0.9,-11.6 1.4,-17.5 0,-0.5 -0.3,-1.2 0.4,-1.5 0.3,2.6 0.6,5.2 1.5,7.6 1.1,3.1 2.7,6 4.6,8.7 5.3,7.7 12.3,13.6 19.9,18.8 5.9,4.1 12.2,7.5 18.7,10.7 7.7,3.7 15.8,6.8 23.9,9.7 6.3,2.2 12.6,3.9 19,5.7 6.8,1.9 13.8,3.2 20.7,4.7 4.9,1.1 9.8,2 14.7,2.7 4.1,0.6 8.2,1.2 12.3,1.6 4.5,0.5 9,1 13.5,1.4 2.4,0.2 4.8,0.4 7.2,0.5 10.3,0.6 20.5,1 30.8,0.7 6.9,-0.2 13.9,-0.5 20.8,-1.1 10.6,-0.9 21.2,-2.3 31.7,-4.3 15.2,-3 29.9,-7.2 43.7,-14.4 6.7,-3.5 13,-7.7 18.3,-13.3 4.3,-4.6 7.5,-9.7 8.8,-15.9 0.1,0 0.1,-0.1 0.2,-0.3 z"
   id="path129" />
		</g>
	</g>
</g>
<g
   id="g154"
   transform="translate(-22)">
	<g
   id="g153">
		<g
   id="g152">
			<path
   class="st5"
   d="m 201.3,350.5 c 0.5,-1.5 0.5,-3 0.7,-4.5 0.8,-6.5 1.9,-12.9 3.3,-19.3 4.5,-20.5 12.2,-39.8 22.7,-57.9 7.7,-13.3 16.8,-25.6 27.3,-36.8 2,-2.2 4.1,-4.2 6.2,-6.3 0.1,-0.1 0.2,-0.1 0.2,-0.2 0,0 0,0 0,0 0.1,-0.1 0.1,-0.1 0.2,-0.2 0,0 0,0 0,0 0.1,-0.1 0.1,-0.1 0.2,-0.2 0,0 0,0 0,0 0.1,-0.1 0.1,-0.1 0.2,-0.2 0,0 0,0 0,0 0.1,-0.1 0.1,-0.1 0.2,-0.2 0,0 0,0 0,0 0.1,-0.1 0.1,-0.1 0.2,-0.2 0,0 0,0 0,0 0.1,-0.1 0.1,-0.1 0.2,-0.2 0,0 0.1,0 0,0 0.1,-0.1 0.1,-0.1 0.2,-0.2 0,0 0.1,-0.1 0.1,-0.1 0.1,-0.1 0.1,-0.1 0.2,-0.2 0,0 0.1,-0.1 0.1,-0.1 0.1,-0.1 0.1,-0.1 0.2,-0.2 0,0 0.1,-0.1 0.1,-0.1 0.1,-0.1 0.1,-0.1 0.2,-0.2 0,0 0.1,-0.1 0.1,-0.1 0.1,-0.1 0.1,-0.1 0.2,-0.2 0,0 0.1,-0.1 0.1,-0.1 0.1,-0.1 0.1,-0.1 0.2,-0.2 0,0 0.1,-0.1 0.1,-0.1 0.1,-0.1 0.1,-0.1 0.2,-0.2 0,0 0.1,-0.1 0.1,-0.1 0.1,-0.1 0.1,-0.1 0.2,-0.2 6.7,-6.3 13.9,-12.1 21.4,-17.4 8.1,-5.6 16.6,-10.6 25.5,-14.8 13.8,-6.5 28.3,-11.1 43.3,-13.6 6.5,-1 13,-1.6 19.5,-1.8 15,-0.5 29.7,1.4 44.1,5.9 8.7,2.7 17.1,6.3 25,10.7 5.2,2.9 10.5,5.6 15.7,8.4 0.6,0.3 1.1,0.6 1.6,0.9 -0.4,0.4 -0.7,0.1 -1.1,0 -3,-1.2 -5.9,-2.4 -8.9,-3.4 -6.1,-2.1 -12.3,-3.7 -18.7,-4.9 -6.4,-1.2 -12.8,-2 -19.3,-2.2 -5.6,-0.2 -11.2,-0.1 -16.7,0.4 -4.7,0.4 -9.3,0.9 -13.9,1.7 -8.4,1.4 -16.6,3.5 -24.6,6.2 -8.9,3 -17.5,6.7 -25.7,11.3 -6.2,3.4 -12.3,6.8 -18,11 -3.7,2.8 -7.5,5.5 -11.1,8.5 -5.7,4.8 -11.4,9.5 -16.4,14.9 -3.5,3.9 -7.1,7.7 -10.5,11.7 -4.1,4.9 -8,9.9 -11.6,15.2 -6.6,9.6 -12.4,19.6 -17.2,30.2 -2.8,6.1 -5.3,12.3 -7.5,18.6 -3.1,8.8 -5.5,17.8 -7.4,26.9 -0.7,3.3 -1.1,6.7 -1.9,10 -0.6,2.5 -0.5,5.1 -0.8,7.7 -0.5,3.6 -0.8,7.2 -0.9,10.8 -0.1,7.5 -0.3,15 0.4,22.5 0.4,4.1 0.7,8.2 1.3,12.3 0.9,6.7 2.5,13.2 4,19.7 0.5,2.2 1.4,4.2 2,6.3 1.7,5.7 3.9,11.2 6.3,16.6 1.5,3.4 3.1,6.8 5,10 2.6,4.5 5,9.1 8,13.2 2.8,3.8 5.7,7.6 8.6,11.3 1.9,2.4 4.1,4.5 6.2,6.7 2.8,2.9 5.7,5.5 8.8,8.1 4.1,3.5 8.3,6.7 12.8,9.6 1.2,0.8 2.6,1.4 3.6,2.6 -5,-2.8 -10.1,-5.5 -15.1,-8.3 -5.4,-3 -10.9,-5.9 -16.2,-9.3 -4.9,-3.1 -9.4,-6.6 -13.8,-10.4 -12.6,-10.9 -22.9,-23.7 -30.9,-38.2 -3.7,-6.8 -6.9,-13.8 -9.6,-21 -4,-10.8 -6.6,-22.1 -8.3,-33.5 -0.3,-2.4 -0.5,-4.8 -0.8,-7.1 0,-0.3 0.1,-0.7 -0.2,-1 0.1,-11.5 0.1,-23 0.1,-34.5 z"
   id="path131" />
			<path
   class="st6"
   d="m 296.2,513.9 c -1,-1.2 -2.4,-1.8 -3.6,-2.6 -4.5,-2.9 -8.7,-6.1 -12.8,-9.6 -3,-2.6 -6,-5.2 -8.8,-8.1 -2.1,-2.2 -4.3,-4.4 -6.2,-6.7 -3,-3.7 -5.8,-7.5 -8.6,-11.3 -3.1,-4.2 -5.4,-8.8 -8,-13.2 -1.9,-3.2 -3.5,-6.6 -5,-10 -2.4,-5.4 -4.6,-10.9 -6.3,-16.6 -0.6,-2.1 -1.5,-4.2 -2,-6.3 -1.5,-6.5 -3,-13.1 -4,-19.7 -0.6,-4.1 -1,-8.2 -1.3,-12.3 -0.6,-7.5 -0.5,-15 -0.4,-22.5 0,-3.6 0.4,-7.2 0.9,-10.8 0.3,-2.5 0.3,-5.2 0.8,-7.7 0.8,-3.3 1.2,-6.7 1.9,-10 1.9,-9.1 4.3,-18.1 7.4,-26.9 2.2,-6.3 4.7,-12.5 7.5,-18.6 4.9,-10.6 10.7,-20.6 17.2,-30.2 3.6,-5.3 7.5,-10.3 11.6,-15.2 3.4,-4 7,-7.8 10.5,-11.7 5,-5.5 10.7,-10.2 16.4,-14.9 3.6,-3 7.4,-5.7 11.1,-8.5 5.6,-4.3 11.8,-7.6 18,-11 8.2,-4.5 16.8,-8.2 25.7,-11.3 8,-2.7 16.2,-4.8 24.6,-6.2 4.6,-0.8 9.3,-1.3 13.9,-1.7 5.6,-0.5 11.2,-0.6 16.7,-0.4 6.5,0.3 12.9,1 19.3,2.2 6.3,1.2 12.6,2.8 18.7,4.9 3,1.1 5.9,2.3 8.9,3.4 0.4,0.1 0.7,0.4 1.1,0 2.9,1.2 5.5,2.8 8.3,4.3 4.6,2.4 9.1,5.2 13.4,8.1 9.4,6.5 17.7,14.1 25.2,22.7 8.1,9.4 14.8,19.7 20.2,30.8 6.3,13 10.6,26.6 13.2,40.8 1.5,8.5 2.3,17 2.7,25.5 0.3,6.9 0.1,13.7 -0.4,20.6 -1.4,18.6 -5.5,36.6 -12,54.1 -4.7,12.6 -10.6,24.6 -17.7,36 -4.9,8 -10.3,15.6 -16.3,22.9 -15.4,18.7 -33.5,34.2 -54.7,46.1 -14.3,8 -29.3,13.8 -45.3,17.3 -6.7,1.5 -13.6,2.5 -20.4,3 -6,0.5 -12.1,0.6 -18.1,0.3 -15.4,-0.7 -30.2,-3.9 -44.5,-9.7 -6.3,-2.6 -12.2,-5.7 -18.1,-9 -0.3,0 -0.5,-0.1 -0.7,-0.3 z m 3.4,-29.6 c 0.1,0.1 0.2,0.1 0.3,0.2 0.1,0 0.1,0 0.2,0.1 0.7,1.1 1.8,1.4 2.8,2.1 4,2.9 8.3,5.6 12.7,7.9 7.2,3.8 14.7,6.8 22.5,9 9.2,2.5 18.5,3.9 28,4.1 3.4,0.1 6.9,0 10.3,-0.2 3.7,-0.2 7.4,-0.6 11,-1.1 5.5,-0.8 10.9,-2 16.2,-3.4 8.4,-2.3 16.4,-5.5 24.3,-9.2 4.4,-2.1 8.5,-4.7 12.7,-7.1 3,-1.7 5.9,-3.7 8.7,-5.7 6.6,-4.6 12.6,-9.8 18.4,-15.3 6.3,-6 12.1,-12.5 17.4,-19.5 6.3,-8.2 11.8,-16.8 16.6,-25.9 2.3,-4.4 4.4,-9 6.4,-13.6 4.7,-11.1 8.1,-22.7 10.4,-34.6 0.8,-4.2 1.3,-8.4 1.7,-12.6 0.3,-3.1 0.8,-6.2 0.8,-9.2 0.1,-4.2 0.4,-8.3 0.1,-12.5 -0.2,-2.9 -0.3,-5.9 -0.5,-8.8 -0.3,-4.6 -1.1,-9.2 -1.8,-13.8 -1,-6.2 -2.4,-12.4 -4.7,-18.3 -1.1,-3 -2.1,-6 -3.2,-9 -1.1,-2.8 -2.3,-5.7 -3.9,-8.3 -1,-1.6 -1.6,-3.4 -2.4,-5 -2.2,-4.3 -5.1,-8.2 -7.8,-12.3 -2.9,-4.3 -6.4,-8.1 -9.8,-11.9 -3.3,-3.7 -7.1,-6.9 -10.9,-10.2 -2.5,-2.2 -5.3,-4.1 -8,-6 -5.9,-4 -12.1,-7.4 -18.7,-10.1 -1.9,-0.8 -3.7,-1.8 -5.7,-2 v 0 c -0.1,0 -0.1,-0.1 -0.2,-0.1 -1.8,-0.7 -3.6,-1.3 -5.4,-1.9 -13.7,-4.1 -27.7,-5.6 -41.9,-4.6 -8,0.6 -15.9,1.9 -23.7,3.9 -14.9,3.8 -28.7,10 -41.7,18.3 -14.6,9.4 -27.4,20.9 -38.4,34.3 -8.1,9.8 -15,20.4 -20.9,31.7 -7.1,13.7 -12.2,28.1 -15.4,43.3 -1.9,9 -3.1,18.1 -3.4,27.4 -0.2,5 -0.2,10 0.1,15 0.4,6.5 1.1,12.9 2.3,19.2 2.6,13.6 7.1,26.6 13.7,38.9 5.8,10.6 13,20.2 21.6,28.7 2.8,2.7 5.8,5.2 8.8,7.8 0,0.1 0.1,0.2 0.4,0.3 -0.1,-0.1 0,0 0,0 z"
   id="path132" />
			<path
   class="st6"
   d="m 265.1,222.1 c -0.1,0.1 -0.1,0.1 -0.2,0.2 0.1,-0.1 0.1,-0.1 0.2,-0.2 z"
   id="path133" />
			<path
   class="st6"
   d="m 264.8,222.4 c -0.1,0.1 -0.1,0.1 -0.2,0.2 0.1,-0.1 0.2,-0.2 0.2,-0.2 z"
   id="path134" />
			<path
   class="st6"
   d="m 264.6,222.6 c -0.1,0.1 -0.1,0.1 -0.2,0.2 0.1,-0.1 0.1,-0.2 0.2,-0.2 z"
   id="path135" />
			<path
   class="st6"
   d="m 264.3,222.8 c -0.1,0.1 -0.1,0.1 -0.2,0.2 0.1,-0.1 0.2,-0.1 0.2,-0.2 z"
   id="path136" />
			<path
   class="st6"
   d="m 264.1,223.1 c -0.1,0.1 -0.1,0.1 -0.2,0.2 0.1,-0.1 0.1,-0.2 0.2,-0.2 z"
   id="path137" />
			<path
   class="st6"
   d="m 263.9,223.3 c -0.1,0.1 -0.1,0.1 -0.2,0.2 0,-0.1 0.1,-0.1 0.2,-0.2 z"
   id="path138" />
			<path
   class="st6"
   d="m 263.6,223.5 c -0.1,0.1 -0.1,0.1 -0.2,0.2 0.1,0 0.2,-0.1 0.2,-0.2 z"
   id="path139" />
			<path
   class="st6"
   d="m 263.4,223.8 c -0.1,0.1 -0.1,0.1 -0.2,0.2 0.1,-0.1 0.1,-0.2 0.2,-0.2 z"
   id="path140" />
			<path
   class="st6"
   d="m 263.1,224 c -0.1,0.1 -0.1,0.1 -0.2,0.2 0.1,-0.1 0.2,-0.1 0.2,-0.2 z"
   id="path141" />
			<path
   class="st6"
   d="m 262.9,224.2 c -0.1,0.1 -0.1,0.1 -0.2,0.2 0.1,0 0.1,-0.1 0.2,-0.2 z"
   id="path142" />
			<path
   class="st6"
   d="m 262.7,224.5 c -0.1,0.1 -0.1,0.1 -0.2,0.2 0,-0.1 0.1,-0.2 0.2,-0.2 z"
   id="path143" />
			<path
   class="st6"
   d="m 262.4,224.7 c -0.1,0.1 -0.1,0.1 -0.2,0.2 0.1,-0.1 0.2,-0.1 0.2,-0.2 z"
   id="path144" />
			<path
   class="st6"
   d="m 262.2,224.9 c -0.1,0.1 -0.1,0.1 -0.2,0.2 0,0 0.1,-0.1 0.2,-0.2 z"
   id="path145" />
			<path
   class="st6"
   d="m 261.9,225.2 c -0.1,0.1 -0.1,0.1 -0.2,0.2 0.1,-0.1 0.2,-0.2 0.2,-0.2 z"
   id="path146" />
			<path
   class="st6"
   d="m 261.7,225.4 c -0.1,0.1 -0.2,0.1 -0.2,0.2 0,0 0.1,-0.1 0.2,-0.2 z"
   id="path147" />
			<path
   class="st2"
   d="m 299.1,483.8 c -3,-2.6 -6,-5 -8.8,-7.8 -8.6,-8.5 -15.8,-18 -21.6,-28.7 -6.6,-12.2 -11.1,-25.2 -13.7,-38.9 -1.2,-6.3 -1.9,-12.8 -2.3,-19.2 -0.3,-5 -0.3,-10 -0.1,-15 0.4,-9.2 1.5,-18.3 3.4,-27.4 3.2,-15.1 8.3,-29.5 15.4,-43.3 5.8,-11.3 12.8,-21.9 20.9,-31.7 11,-13.4 23.8,-24.9 38.4,-34.3 12.9,-8.3 26.8,-14.5 41.7,-18.3 7.8,-2 15.6,-3.3 23.7,-3.9 14.3,-1 28.2,0.4 41.9,4.6 1.8,0.6 3.7,1.1 5.4,1.9 0,0.1 0.1,0.1 0.2,0.1 0,0 0,0 0,0 0.1,0.1 0.2,0.3 0.3,0.4 5.6,4 10.5,8.6 15.2,13.7 8.8,9.5 15.8,20.3 21.2,32.1 7.7,17 11.5,35 12.2,53.7 0.3,7.3 -0.1,14.6 -0.9,21.8 -0.5,4.3 -1,8.6 -1.8,12.9 -3.5,18.9 -10.1,36.7 -19.6,53.5 -8.4,14.8 -18.6,28.1 -30.9,39.9 -15.6,15 -33.5,26.6 -53.8,34.1 -10.9,4 -22.2,6.6 -33.8,7.6 -7.7,0.7 -15.4,0.7 -23.1,-0.1 -6.6,-0.7 -13,-1.9 -19.4,-3.7 -3.1,-0.9 -6.2,-1.7 -9.1,-3.2 0,-0.1 -0.1,-0.1 -0.2,-0.1 -0.1,-0.1 -0.2,-0.1 -0.3,-0.2 0,0 -0.1,-0.1 -0.1,-0.1 0,-0.2 -0.2,-0.3 -0.4,-0.4 z"
   id="path148" />
			<path
   class="st5"
   d="m 300.1,484.5 c 2.9,1.6 6,2.3 9.1,3.2 6.3,1.8 12.8,3 19.4,3.7 7.7,0.8 15.4,0.8 23.1,0.1 11.6,-1 22.9,-3.6 33.8,-7.6 20.4,-7.5 38.2,-19 53.8,-34.1 12.3,-11.8 22.5,-25.1 30.9,-39.9 9.5,-16.7 16,-34.6 19.6,-53.5 0.8,-4.3 1.3,-8.6 1.8,-12.9 0.8,-7.3 1.1,-14.5 0.9,-21.8 -0.7,-18.6 -4.4,-36.6 -12.2,-53.7 -5.4,-11.8 -12.4,-22.6 -21.2,-32.1 -4.6,-5 -9.6,-9.7 -15.2,-13.7 -0.1,-0.1 -0.2,-0.3 -0.3,-0.4 2,0.3 3.9,1.3 5.7,2 6.6,2.7 12.8,6.2 18.7,10.1 2.8,1.9 5.5,3.8 8,6 3.8,3.3 7.6,6.4 10.9,10.2 3.4,3.9 6.9,7.6 9.8,11.9 2.7,4 5.5,8 7.8,12.3 0.9,1.7 1.5,3.4 2.4,5 1.6,2.6 2.8,5.5 3.9,8.3 1.2,3 2.1,6 3.2,9 2.3,5.9 3.7,12.1 4.7,18.3 0.7,4.6 1.6,9.1 1.8,13.8 0.2,2.9 0.3,5.9 0.5,8.8 0.3,4.2 -0.1,8.3 -0.1,12.5 -0.1,3.1 -0.5,6.2 -0.8,9.2 -0.5,4.2 -0.9,8.4 -1.7,12.6 -2.2,11.9 -5.7,23.4 -10.4,34.6 -2,4.6 -4,9.2 -6.4,13.6 -4.8,9.1 -10.3,17.8 -16.6,25.9 -5.3,6.9 -11.1,13.5 -17.4,19.5 -5.8,5.5 -11.9,10.7 -18.4,15.3 -2.8,2 -5.7,4 -8.7,5.7 -4.3,2.3 -8.3,5 -12.7,7.1 -7.9,3.7 -15.9,6.9 -24.3,9.2 -5.3,1.4 -10.7,2.7 -16.2,3.4 -3.7,0.5 -7.3,0.9 -11,1.1 -3.4,0.2 -6.9,0.2 -10.3,0.2 -9.5,-0.2 -18.8,-1.6 -28,-4.1 -7.8,-2.2 -15.3,-5.2 -22.5,-9 -4.4,-2.4 -8.6,-5 -12.7,-7.9 -0.9,-0.4 -2.1,-0.8 -2.7,-1.9 z"
   id="path149" />
			<path
   class="st5"
   d="m 299.1,483.8 c 0.2,0 0.3,0.2 0.4,0.4 -0.2,0 -0.3,-0.1 -0.4,-0.4 z"
   id="path150" />
			<path
   class="st5"
   d="m 299.6,484.3 c 0.1,0.1 0.2,0.1 0.3,0.2 -0.1,-0.1 -0.2,-0.2 -0.3,-0.2 z"
   id="path151" />
			<path
   class="st5"
   d="m 443.6,222.1 c -0.1,0 -0.1,0 -0.2,-0.1 0.1,0 0.1,0 0.2,0.1 z"
   id="path152" />
		</g>
	</g>
</g>
<g
   id="g347"
   transform="translate(-22)">
	<g
   id="g346">
		<g
   id="g345">
			<path
   class="st7"
   d="m 395,214.4 c 5.1,0 10.2,0 15.3,0 0.2,0.2 0.4,0.2 0.6,0.2 2.3,0.2 4.5,0.4 6.8,0.7 2.2,0.3 4.3,0.5 6.5,0.8 v 0 c 0.4,0.4 1,0.2 1.5,0.2 v 0 c 1.1,0.4 2.2,0.7 3.4,0.7 v 0 c 2.2,0.8 4.4,1.4 6.7,1.7 v 0 c 0.4,0.4 0.9,0.6 1.5,0.7 4.2,1.1 8.2,2.9 12.3,4.5 1.4,0.6 2.7,1.5 4.3,1.7 v 0 c 0.1,0.2 0.3,0.2 0.5,0.2 v 0 c 0.1,0.2 0.3,0.2 0.5,0.2 v 0 c 0.1,0.2 0.3,0.2 0.5,0.2 v 0 c 0.1,0.2 0.3,0.2 0.5,0.2 v 0 c 0.1,0.2 0.3,0.2 0.5,0.2 v 0 c 0.1,0.2 0.3,0.2 0.5,0.2 v 0 c 0.4,0.6 1,0.8 1.7,1 v 0 c 0.1,0.2 0.3,0.2 0.5,0.2 v 0 c 0.2,0.3 0.5,0.3 0.7,0.2 v 0 c 0,0.5 0.5,0.6 0.8,0.8 3.9,2.4 7.8,4.9 11.5,7.7 0.8,0.6 1.4,1.6 2.5,1.6 v 0 c 0.6,1.1 1.4,1.8 2.6,2.2 v 0 c 0.1,0.1 0.2,0.2 0.3,0.3 v 0 c 0,0.5 0.3,0.7 0.6,1 2.4,2.1 4.7,4.2 7,6.5 0.2,0.2 0.5,0.5 0.8,0.4 v 0 c 0.1,0.1 0.2,0.2 0.3,0.3 v 0 c -0.1,0.5 0.2,0.8 0.5,1.1 1.4,1.3 2.5,2.8 3.8,4.3 1,1.1 1.8,2.6 3.1,3.5 v 0 c 0,0.4 0.2,0.6 0.4,0.8 3.1,4.2 6.1,8.4 8.6,13 0.4,0.7 0.6,1.7 1.5,2 v 0 c 0.1,0.9 0.5,1.8 1.2,2.4 v 0 c 0,0.6 0.2,1.1 0.7,1.4 v 0 c 0,0.4 0.1,0.8 0.5,1 v 0 c 0.5,1.8 1.4,3.5 2.4,5 v 0 c 0.1,0.6 0.1,1.3 0.7,1.7 v 0 c 0,0.3 0,0.7 0.1,0.9 1.7,4.1 3.1,8.3 4.5,12.6 1.2,3.7 2.2,7.5 3,11.3 1.1,4.9 1.8,9.9 2.4,14.8 0.3,2.9 0.4,5.9 0.7,8.8 0.1,1.1 -0.2,2.3 0.3,3.4 0.1,2.9 0.2,5.8 0,8.6 -0.4,1.7 -0.2,3.5 -0.2,5.3 0.2,1.7 -0.2,3.4 -0.3,5.1 -0.6,0.2 -0.4,0.7 -0.4,1.1 -0.1,1.3 -0.3,2.7 -0.4,4 -0.3,2.7 -0.9,5.3 -1,8 v 0 c -0.4,0.4 -0.2,1 -0.2,1.5 0,0.1 0,0.1 0,0.2 -0.4,0.3 -0.2,0.8 -0.2,1.2 v 0 c -0.5,0.6 -0.5,1.4 -0.5,2.2 v 0 c -0.6,1.8 -1,3.6 -1.2,5.5 v 0 c -0.7,1.2 -0.9,2.5 -1,3.9 v 0 c -0.3,0.1 -0.4,0.4 -0.5,0.8 -0.7,2.4 -1.3,4.7 -2,7.1 -1.3,4 -2.7,8 -4.3,11.9 -0.9,2.3 -1.8,4.6 -2.9,6.9 -0.6,1.2 -1.5,2.4 -1.6,3.8 v 0 c -0.2,0.1 -0.2,0.3 -0.2,0.5 v 0 c -0.2,0.1 -0.2,0.3 -0.2,0.5 v 0 c -0.2,0.1 -0.2,0.3 -0.2,0.5 v 0 c -0.2,0.1 -0.2,0.3 -0.2,0.5 v 0 c -0.2,0.1 -0.2,0.3 -0.2,0.5 v 0 c -0.2,0.1 -0.2,0.3 -0.2,0.5 v 0 c -0.2,0.1 -0.2,0.3 -0.2,0.5 v 0 c -0.2,0.1 -0.2,0.3 -0.2,0.5 v 0 c -0.2,0.1 -0.2,0.3 -0.2,0.5 v 0 c -0.2,0.1 -0.2,0.3 -0.2,0.5 v 0 c -0.2,0.1 -0.2,0.3 -0.2,0.5 v 0 c -0.2,0.1 -0.2,0.3 -0.2,0.5 v 0 c -0.2,0.1 -0.2,0.3 -0.2,0.5 v 0 c -0.6,0.4 -0.8,1 -1,1.7 v 0 c -0.2,0.1 -0.2,0.3 -0.2,0.5 v 0 c -0.2,0.1 -0.2,0.3 -0.2,0.5 v 0 c -0.6,0.4 -0.8,1 -1,1.7 v 0 c -0.3,0.2 -0.3,0.5 -0.2,0.7 v 0 c -0.3,0 -0.5,0.2 -0.6,0.5 -2.4,4.1 -4.9,8.1 -7.6,12 -0.2,0.3 -0.4,0.6 -0.4,1 v 0 c -0.2,0.1 -0.2,0.3 -0.2,0.5 v 0 c -1.2,0.6 -1.6,1.8 -2.2,2.9 v 0 c -0.9,0.7 -1.6,1.5 -1.9,2.6 v 0 c -0.3,0 -0.5,0.3 -0.6,0.5 -1.7,2.1 -3.3,4.1 -5,6.2 -0.4,0.5 -1.2,0.9 -1.1,1.7 v 0 c -0.9,0.3 -1.6,0.9 -1.7,1.9 v 0 c -1,0.5 -1.9,1.2 -2.2,2.4 v 0 c -0.1,0.1 -0.2,0.2 -0.3,0.3 v 0 c -1.7,1.1 -3,2.4 -4.1,4.1 0,0 0,0 0,0 -0.1,0.1 -0.2,0.2 -0.2,0.2 0,0 0,0 0,0 -0.1,0.1 -0.2,0.2 -0.2,0.2 v 0 c -0.1,0.1 -0.2,0.2 -0.2,0.2 0,0 0,0 0,0 -1.7,1.1 -3,2.4 -4.1,4.1 v 0 c -0.1,0.1 -0.2,0.2 -0.3,0.3 v 0 c -0.5,0 -0.8,0.3 -1.2,0.6 -0.7,0.6 -1.4,1.3 -2.1,1.9 -1.5,1.4 -3.3,2.6 -4.7,4.2 v 0 c -1,0.4 -1.8,1 -2.4,1.9 v 0 c -0.9,0.4 -1.6,0.9 -2.2,1.7 v 0 c -0.5,0 -0.8,0.3 -1,0.7 v 0 c -0.5,0 -0.8,0.3 -1,0.7 v 0 c -1.1,0.4 -1.9,1.1 -2.6,1.9 v 0 c -0.3,0 -0.5,0.2 -0.5,0.5 v 0 c -0.8,0 -1.3,0.5 -1.9,0.9 -1.4,1 -2.9,1.7 -4.1,2.9 v 0 c -0.1,0.1 -0.2,0.2 -0.2,0.2 v 0 c -0.6,-0.1 -1,0.2 -1.2,0.7 v 0 c -1.2,0.2 -2.1,1.1 -3.2,1.7 -0.4,0.2 -1,0.3 -1.1,1 v 0 c -0.9,0.1 -1.7,0.3 -2.2,1.2 v 0 c -0.8,0 -1.4,0.3 -1.9,1 v 0 c -0.4,0 -0.9,-0.1 -1,0.5 v 0 c -0.2,0 -0.4,0.1 -0.5,0.2 v 0 c -0.2,0 -0.4,0.1 -0.5,0.2 v 0 c -1.2,0.4 -2.3,0.9 -3.4,1.7 v 0 c -1.6,0.5 -3.2,1.2 -4.6,2.2 v 0 c -0.5,0 -0.9,0.1 -1.2,0.5 v 0 c -0.9,0 -1.6,0.2 -2.2,1 v 0 c -0.5,0 -1,-0.1 -1.2,0.5 v 0 c -0.5,-0.1 -0.9,0.1 -1.3,0.3 -4.4,1.6 -8.8,3.2 -13.2,4.4 -6.8,1.9 -13.7,3.3 -20.7,4 -0.3,0 -0.7,0 -0.7,0.4 -1.4,0.1 -2.8,0.4 -4.2,0.3 -1.4,0 -2.9,-0.2 -4.3,0.2 -3,0.3 -6.1,0.4 -9.1,0 -0.4,-0.4 -0.9,-0.2 -1.4,-0.2 -1.5,-0.1 -3.1,-0.3 -4.6,-0.4 -2.8,-0.1 -5.5,-0.8 -8.3,-0.8 0,0 -0.1,0 -0.1,0 -0.4,-0.4 -1,-0.2 -1.5,-0.3 v 0 c -1.1,-0.7 -2.4,-0.6 -3.6,-0.7 v 0 c -0.1,-0.1 -0.2,-0.2 -0.3,-0.2 -4.8,-1.2 -9.6,-2.4 -14.3,-4.2 -2.6,-1 -5.1,-2.1 -7.7,-3.1 -1.5,-0.6 -2.9,-1.7 -4.6,-1.9 v 0 c -0.1,-0.2 -0.3,-0.2 -0.5,-0.2 v 0 c -0.2,-0.3 -0.5,-0.3 -0.7,-0.2 v 0 c -0.3,-0.8 -1,-0.9 -1.7,-1 v 0 c -0.1,-0.1 -0.2,-0.2 -0.2,-0.2 v 0 c -0.1,-0.2 -0.3,-0.2 -0.5,-0.2 v 0 c -0.2,-0.3 -0.5,-0.3 -0.7,-0.2 v 0 c -0.2,-0.8 -0.9,-0.8 -1.4,-1 v 0 c -0.1,-0.1 -0.2,-0.3 -0.3,-0.4 -3.3,-2 -6.4,-4.1 -9.5,-6.3 -0.3,-0.2 -0.6,-0.4 -1,-0.3 v 0 c 0,-0.3 -0.1,-0.5 -0.3,-0.6 -2.2,-1.6 -4.3,-3.3 -6.3,-5.1 -0.3,-0.2 -0.5,-0.3 -0.9,-0.3 v 0 c -0.3,-0.8 -0.9,-1.4 -1.7,-1.7 v 0 c -0.1,-0.1 -0.2,-0.2 -0.2,-0.2 0,0 0,0 0,0 0,-0.5 -0.4,-0.5 -0.7,-0.5 v 0 c -0.1,-0.1 -0.2,-0.2 -0.3,-0.3 0,0 0,0 0,0 -0.1,-0.1 -0.2,-0.2 -0.3,-0.3 0,0 0,0 0,0 -1.1,-1.7 -2.4,-3 -4.1,-4.1 0,0 0,0 0,0 -0.1,-0.1 -0.2,-0.2 -0.3,-0.3 0,0 0,0 0,0 -0.1,-0.1 -0.2,-0.2 -0.3,-0.3 0,0 0,0 0,0 0,-0.7 -0.3,-1.1 -1,-1.2 v 0 c -0.5,-1.1 -1.3,-1.9 -2.2,-2.7 -0.6,-0.6 -0.9,-1.7 -1.9,-1.8 v 0 c 0,-0.9 -0.6,-1.3 -1.2,-1.7 v 0 c 0,-0.4 -0.3,-0.7 -0.7,-0.7 v 0 c 0,-0.2 -0.1,-0.4 -0.2,-0.5 v 0 c 0,-0.5 -0.3,-0.8 -0.7,-1 v 0 c 0,-0.5 -0.3,-0.8 -0.7,-1 v 0 c 0,-0.5 -0.3,-0.8 -0.7,-1 v 0 c 0,-0.5 -0.3,-0.8 -0.7,-1 v 0 c -0.1,-0.6 -0.2,-1.1 -1,-1.2 v 0 c -0.4,-1.5 -1.3,-2.7 -2.4,-3.7 v -0.1 c -0.1,-0.1 -0.2,-0.2 -0.2,-0.4 v 0 c 0,-0.7 -0.3,-1.2 -1,-1.4 v 0 c -0.1,-1 -0.6,-1.8 -1.4,-2.4 v 0 c -0.1,-0.7 -0.2,-1.4 -1,-1.7 v 0 c -0.1,-0.9 -0.5,-1.8 -1.2,-2.4 v 0 c 0,-0.2 -0.1,-0.4 -0.2,-0.5 0,0 0,0 0,0 -0.1,-0.4 -0.2,-0.8 -0.4,-1.1 -3.5,-6.8 -6.3,-13.9 -8.6,-21.1 -2.6,-8.2 -4.3,-16.6 -5.4,-25.2 -0.2,-1.3 0.1,-2.7 -0.7,-3.9 0,-10.1 0,-20.3 0,-30.5 0.6,-0.1 0.4,-0.6 0.5,-1 0.1,-1.1 0.2,-2.3 0.4,-3.4 0.4,-3.1 0.9,-6.2 1.3,-9.3 0,0 0,0 0,0 0.4,-1.2 0.7,-2.5 0.7,-3.9 0,0 0,0 0,0 0.1,-0.2 0.2,-0.3 0.3,-0.5 0.6,-2.4 1.1,-4.9 1.8,-7.3 0.8,-2.8 1.6,-5.6 2.4,-8.3 2,-6.4 4.4,-12.6 7.1,-18.7 0.5,-1.1 1.2,-2.2 1.4,-3.5 v 0 c 0.2,-0.1 0.2,-0.3 0.2,-0.5 v 0 c 0.2,-0.1 0.2,-0.3 0.2,-0.5 v 0 c 0.2,-0.1 0.2,-0.3 0.2,-0.5 v 0 c 0.2,-0.1 0.2,-0.3 0.2,-0.5 v 0 c 0.2,-0.1 0.2,-0.3 0.2,-0.5 v 0 c 0.2,-0.1 0.2,-0.3 0.2,-0.5 v 0 c 0.2,-0.1 0.2,-0.3 0.2,-0.5 v 0 c 0.2,-0.1 0.2,-0.3 0.2,-0.5 v 0 c 0.2,-0.1 0.2,-0.3 0.2,-0.5 v 0 c 0.2,-0.1 0.2,-0.3 0.2,-0.5 v 0 c 0.2,-0.1 0.2,-0.3 0.2,-0.5 v 0 c 0.2,-0.1 0.2,-0.3 0.2,-0.5 v 0 c 0.2,-0.1 0.2,-0.3 0.2,-0.5 v 0 c 0.2,-0.1 0.2,-0.3 0.2,-0.5 v 0 c 0.2,-0.1 0.2,-0.3 0.2,-0.5 v 0 c 0.7,-0.6 1,-1.4 1.2,-2.2 v 0 c 0.2,-0.1 0.2,-0.3 0.2,-0.5 v 0 c 0.7,-0.6 1,-1.3 1.2,-2.2 v 0 c 0.7,-0.6 1.1,-1.5 1.4,-2.4 0.2,-0.3 0.3,-0.7 0.5,-1 0.1,-0.1 0.1,-0.1 0.2,-0.2 0,-0.1 0.1,-0.2 0.1,-0.3 1.1,-1.1 1.9,-2.5 2.5,-4 v 0 c 1.4,-1.5 2.5,-3.2 3.4,-5 v 0 c 0.2,-0.1 0.3,-0.3 0.2,-0.5 v 0 c 0.9,-0.6 1.5,-1.3 1.7,-2.4 v 0 c 0.5,0 0.6,-0.4 0.9,-0.7 2.8,-3.8 5.8,-7.6 8.9,-11.2 0.7,-0.8 1.9,-1.4 2,-2.7 v 0 c 0.1,-0.1 0.2,-0.2 0.2,-0.3 v 0 c 0.1,-0.1 0.2,-0.2 0.2,-0.2 v 0 c 0.1,-0.1 0.2,-0.2 0.2,-0.2 v 0 c 0.7,-0.1 1.1,-0.5 1.2,-1.2 v 0 c 0.5,0 0.5,-0.4 0.5,-0.7 v 0 c 0.3,0 0.5,-0.2 0.5,-0.5 v 0 c 0.1,-0.1 0.2,-0.2 0.3,-0.3 v 0 c 0.2,0 0.3,0 0.4,-0.1 2.1,-2 4.1,-4.1 6.1,-6.1 0.1,-0.1 0.1,-0.3 0.1,-0.4 0,0 0,0 0,0 0.1,-0.1 0.2,-0.2 0.3,-0.3 0,0 0,0 0,0 1.6,-0.6 2.6,-1.9 3.6,-3.1 v 0 c 0.7,-0.1 1.1,-0.5 1.2,-1.2 v 0 c 0.9,0 1.4,-0.6 1.7,-1.4 v 0 c 0.8,0 1.3,-0.5 1.4,-1.2 v 0 c 0.7,0 1.1,-0.3 1.2,-1 v 0 c 1.1,-0.2 1.8,-1 2.4,-1.9 v 0 c 0.2,0 0.4,-0.1 0.5,-0.2 v 0 c 1.8,-1 3.4,-2.2 4.8,-3.6 v 0 c 0.6,-0.1 1,-0.3 1.2,-1 v 0 c 0.6,0.1 1,-0.2 1.2,-0.7 v 0 c 0.3,0 0.6,-0.2 0.7,-0.5 v 0 c 0.3,0 0.5,-0.2 0.5,-0.5 v 0 c 0.4,0 0.7,0 0.7,-0.5 v 0 c 0.6,0.1 1.1,-0.3 1.5,-0.6 1.8,-1.1 3.5,-2.2 5.2,-3.3 0.8,-0.5 1.8,-0.8 2.4,-1.6 v 0 c 0.7,-0.3 1.6,-0.3 1.9,-1.2 v 0 c 1.1,-0.2 2.1,-0.6 2.9,-1.4 v 0 c 0.2,0 0.4,-0.1 0.5,-0.2 v 0 c 0.2,0 0.4,-0.1 0.5,-0.2 v 0 c 1.2,-0.4 2.3,-0.9 3.4,-1.7 v 0 c 0.2,0 0.4,-0.1 0.5,-0.2 v 0 c 0.4,0.1 0.7,-0.1 1,-0.3 4.4,-2.1 8.9,-4 13.5,-5.5 5,-1.7 10,-3.3 15.2,-4.4 6.1,-1.3 12.2,-2.3 18.4,-2.8 0.8,0.3 1.2,0.3 1.3,-0.1 z"
   id="path154" />
			<path
   class="st8"
   d="m 267.5,445.5 c -0.5,-0.1 -0.6,-0.5 -0.7,-0.9 -3.6,-6.9 -6.6,-14.1 -8.8,-21.5 -2.3,-7.7 -4,-15.5 -5,-23.5 0,-0.3 0.2,-0.9 -0.5,-0.9 0,-0.2 0,-0.5 0,-0.7 0.4,-0.3 0.3,-0.6 0,-1 0,-1 0,-1.9 0,-2.9 0.8,1.2 0.5,2.6 0.7,3.9 1.1,8.6 2.8,17 5.4,25.2 2.3,7.3 5.1,14.3 8.6,21.1 0,0.5 0.1,0.8 0.3,1.2 z"
   id="path155" />
			<path
   class="st8"
   d="m 346.1,227.8 c 1.7,-1.4 3.7,-2 5.6,-2.8 8.5,-3.7 17.3,-6.4 26.4,-8.2 3.9,-0.8 7.8,-1.4 11.8,-1.9 0.3,0 0.8,0.1 0.8,-0.5 0.4,0 0.8,0 1.2,0 0.6,0.4 1.1,0.3 1.7,0 0.5,0 1,0 1.4,0 -0.1,0.5 -0.5,0.4 -0.8,0.5 -6.2,0.5 -12.3,1.4 -18.4,2.8 -5.2,1.1 -10.2,2.7 -15.2,4.4 -4.6,1.6 -9.1,3.4 -13.5,5.5 -0.3,0.1 -0.6,0.2 -1,0.2 z"
   id="path156" />
			<path
   class="st8"
   d="m 252.4,360.6 c 0.6,0 0.4,-0.5 0.5,-0.8 0.4,-2.9 0.9,-5.9 1.3,-8.8 0.1,-0.3 0.1,-0.7 0.4,-1 -0.4,3.1 -0.9,6.2 -1.3,9.3 -0.2,1.1 -0.3,2.3 -0.4,3.4 0,0.4 0.1,0.8 -0.5,1 0,-0.5 0,-1 0,-1.4 0.3,-0.4 0.4,-0.8 0,-1.2 0,-0.2 0,-0.3 0,-0.5 z"
   id="path157" />
			<path
   class="st8"
   d="m 416.6,214.4 c 0,0.6 0.4,0.4 0.8,0.5 1.9,0.3 3.8,0.5 5.7,0.8 0.4,0.1 0.9,0 1.2,0.4 -2.2,-0.2 -4.3,-0.5 -6.5,-0.8 -2.2,-0.3 -4.5,-0.5 -6.8,-0.7 -0.2,0 -0.5,0 -0.6,-0.2 1.2,0 2.4,0 3.6,0 0.6,0.3 1.1,0.4 1.7,0 0.2,0 0.6,0 0.9,0 z"
   id="path158" />
			<path
   class="st2"
   d="m 393.6,214.4 c -0.6,0.3 -1.1,0.4 -1.7,0 0.5,0 1.1,0 1.7,0 z"
   id="path159" />
			<path
   class="st2"
   d="m 415.6,214.4 c -0.6,0.4 -1.1,0.3 -1.7,0 0.6,0 1.2,0 1.7,0 z"
   id="path160" />
			<path
   class="st2"
   d="m 252.4,361.1 c 0.4,0.4 0.3,0.8 0,1.2 0,-0.4 0,-0.8 0,-1.2 z"
   id="path161" />
			<path
   class="st2"
   d="m 252.4,397.1 c 0.3,0.3 0.4,0.6 0,1 0,-0.4 0,-0.7 0,-1 z"
   id="path162" />
			<path
   class="st8"
   d="m 509.4,285.3 c 1.2,1.5 1.6,3.4 2.3,5.1 1.9,5.1 3.6,10.3 4.8,15.6 1.4,6 2.6,12.1 3.2,18.2 0.4,4.3 1,8.5 0.7,12.8 -0.5,-1.1 -0.2,-2.3 -0.3,-3.4 -0.3,-2.9 -0.3,-5.9 -0.7,-8.8 -0.6,-5 -1.3,-9.9 -2.4,-14.8 -0.8,-3.8 -1.8,-7.6 -3,-11.3 -1.4,-4.2 -2.8,-8.5 -4.5,-12.6 -0.1,-0.1 -0.1,-0.5 -0.1,-0.8 z"
   id="path163" />
			<path
   class="st8"
   d="m 255.2,346.2 c 0.2,-2.8 1.1,-5.5 1.8,-8.2 1.3,-5.7 3.3,-11.2 5.3,-16.7 1.5,-4.3 3.3,-8.4 5.2,-12.5 0.2,-0.3 0.3,-0.8 0.7,-0.9 -0.1,1.3 -0.8,2.4 -1.4,3.5 -2.8,6.1 -5.2,12.3 -7.1,18.7 -0.9,2.8 -1.7,5.5 -2.4,8.3 -0.7,2.4 -1.2,4.9 -1.8,7.3 -0.1,0.2 -0.2,0.4 -0.3,0.5 z"
   id="path164" />
			<path
   class="st8"
   d="m 417.3,497.3 c -1.7,1.2 -3.6,1.6 -5.5,2.3 -6.3,2.3 -12.8,3.9 -19.3,5.2 -3.7,0.7 -7.4,1.3 -11.1,1.6 0.1,-0.4 0.4,-0.4 0.7,-0.4 7,-0.7 13.9,-2.1 20.7,-4 4.5,-1.3 8.9,-2.8 13.2,-4.4 0.5,-0.2 0.9,-0.4 1.3,-0.3 z"
   id="path165" />
			<path
   class="st8"
   d="m 514.9,383.6 c -0.1,2.2 -1,4.2 -1.6,6.2 -1.5,5.2 -3.4,10.3 -5.5,15.4 -1.2,2.8 -2.5,5.6 -3.8,8.4 -0.1,0.2 -0.2,0.4 -0.5,0.5 0.1,-1.5 1,-2.6 1.6,-3.8 1.1,-2.3 2,-4.6 2.9,-6.9 1.6,-3.9 3,-7.8 4.3,-11.9 0.7,-2.3 1.4,-4.7 2,-7.1 0.2,-0.3 0.3,-0.6 0.6,-0.8 z"
   id="path166" />
			<path
   class="st8"
   d="m 344.4,504.5 c -2,-0.1 -3.9,-0.7 -5.8,-1.2 -3.4,-0.9 -6.8,-1.9 -10.1,-3.2 -3.6,-1.4 -7.1,-2.8 -10.5,-4.6 -0.2,-0.1 -0.3,-0.3 -0.4,-0.4 1.7,0.2 3.1,1.3 4.6,1.9 2.6,1 5.1,2.1 7.7,3.1 4.7,1.8 9.5,2.9 14.3,4.2 0,0 0.1,0.1 0.2,0.2 z"
   id="path167" />
			<path
   class="st8"
   d="m 435.8,218.7 c 2.4,0.3 4.5,1.2 6.7,1.9 3.5,1.2 6.9,2.6 10.2,4.3 0.4,0.2 0.8,0.3 1.1,0.7 -1.6,-0.2 -2.8,-1.2 -4.3,-1.7 -4.1,-1.6 -8,-3.4 -12.3,-4.5 -0.5,-0.2 -1,-0.3 -1.4,-0.7 z"
   id="path168" />
			<path
   class="st8"
   d="m 284.5,280.1 c 1.1,-2.1 2.7,-3.8 4.1,-5.7 2.3,-2.9 4.6,-5.8 7.1,-8.5 0.2,-0.2 0.4,-0.3 0.5,-0.5 -0.1,1.3 -1.3,1.9 -2,2.7 -3.1,3.6 -6.1,7.4 -8.9,11.2 -0.2,0.4 -0.3,0.8 -0.8,0.8 z"
   id="path169" />
			<path
   class="st8"
   d="m 493.3,258 c 0.7,0.1 0.9,0.8 1.3,1.3 3.1,4.2 6,8.6 8.6,13.1 0.3,0.4 0.4,0.9 0.6,1.4 -0.9,-0.3 -1.1,-1.3 -1.5,-2 -2.5,-4.6 -5.5,-8.8 -8.6,-13 -0.2,-0.2 -0.4,-0.5 -0.4,-0.8 z"
   id="path170" />
			<path
   class="st8"
   d="m 459.5,228.5 c 3.7,1.7 6.9,4.1 10.2,6.4 1.6,1.1 3.3,2.2 4.7,3.7 -1.1,-0.1 -1.7,-1.1 -2.5,-1.6 -3.7,-2.7 -7.6,-5.3 -11.5,-7.7 -0.4,-0.2 -0.9,-0.3 -0.9,-0.8 z"
   id="path171" />
			<path
   class="st8"
   d="m 497.9,425.4 c -0.8,1.8 -1.9,3.5 -2.9,5.2 -1.6,2.6 -3.3,5.1 -5,7.7 -0.2,0.3 -0.3,0.6 -0.7,0.6 0,-0.4 0.2,-0.7 0.4,-1 2.7,-3.9 5.2,-7.9 7.6,-12 0.1,-0.3 0.2,-0.5 0.6,-0.5 z"
   id="path172" />
			<path
   class="st8"
   d="m 311.8,492 c -1.4,-0.2 -2.4,-1.1 -3.5,-1.8 -2.5,-1.6 -5.1,-3.1 -7.3,-5.1 0.4,0 0.7,0.1 1,0.3 3.1,2.2 6.3,4.3 9.5,6.3 0.1,0 0.2,0.2 0.3,0.3 z"
   id="path173" />
			<path
   class="st8"
   d="m 485.9,249.1 c 2.1,1.8 3.8,4 5.5,6.1 0.7,0.9 1.7,1.6 1.9,2.8 -1.3,-0.9 -2,-2.3 -3.1,-3.5 -1.3,-1.4 -2.5,-2.9 -3.8,-4.3 -0.3,-0.3 -0.6,-0.6 -0.5,-1.1 z"
   id="path174" />
			<path
   class="st8"
   d="m 477.2,241 c 2.2,1.5 4,3.4 5.9,5.2 0.9,0.8 1.9,1.6 2.5,2.7 -0.4,0 -0.6,-0.2 -0.8,-0.4 -2.2,-2.3 -4.5,-4.4 -7,-6.5 -0.2,-0.3 -0.6,-0.6 -0.6,-1 z"
   id="path175" />
			<path
   class="st8"
   d="m 484.9,444.8 c -0.6,1.5 -1.7,2.6 -2.7,3.7 -1.3,1.6 -2.5,3.3 -4,4.7 -0.1,-0.9 0.7,-1.2 1.1,-1.7 1.6,-2.1 3.3,-4.1 5,-6.2 0.2,-0.3 0.3,-0.5 0.6,-0.5 z"
   id="path176" />
			<path
   class="st8"
   d="m 465,466.8 c -1.4,1.7 -3.2,3.1 -4.9,4.5 -1,0.8 -1.7,1.9 -3,2.2 1.3,-1.7 3.1,-2.8 4.7,-4.2 0.7,-0.6 1.4,-1.3 2.1,-1.9 0.3,-0.3 0.7,-0.5 1.1,-0.6 z"
   id="path177" />
			<path
   class="st8"
   d="m 519.9,356.1 c -0.1,3.1 -0.6,6.1 -1.1,9.1 -0.2,1.4 0,2.8 -0.8,4 0.2,-2.7 0.8,-5.3 1,-8 0.1,-1.3 0.3,-2.7 0.4,-4 0.1,-0.4 -0.2,-0.9 0.5,-1.1 z"
   id="path178" />
			<path
   class="st8"
   d="m 363.8,506.9 c -4.6,0.2 -9.1,-0.5 -13.6,-1.2 -0.2,0 -0.4,-0.2 -0.7,-0.2 2.8,0 5.5,0.7 8.3,0.8 1.5,0 3.1,0.2 4.6,0.4 0.5,0 1,-0.2 1.4,0.2 z"
   id="path179" />
			<path
   class="st8"
   d="m 327.4,238.3 c 1.7,-1.5 3.7,-2.6 5.7,-3.7 1.1,-0.7 2.1,-1.6 3.5,-1.8 -0.6,0.8 -1.6,1.1 -2.4,1.6 -1.7,1.1 -3.4,2.2 -5.2,3.3 -0.6,0.3 -1,0.7 -1.6,0.6 z"
   id="path180" />
			<path
   class="st8"
   d="m 299.3,262.1 c 0.3,-0.8 1,-1.3 1.6,-1.9 1.7,-1.6 3.1,-3.5 5.1,-4.8 0,0.2 0,0.3 -0.1,0.4 -2,2.1 -4.1,4.1 -6.1,6.1 -0.1,0.1 -0.3,0.1 -0.5,0.2 z"
   id="path181" />
			<path
   class="st8"
   d="m 301,485.1 c -2.7,-1.7 -5.2,-3.7 -7.4,-6 0.3,0 0.6,0.1 0.9,0.3 2,1.8 4.1,3.5 6.3,5.1 0.1,0.1 0.2,0.3 0.2,0.6 z"
   id="path182" />
			<path
   class="st8"
   d="m 447.5,481 c -1.9,1.4 -3.7,3 -6,3.8 1.2,-1.2 2.8,-1.9 4.1,-2.9 0.6,-0.4 1.1,-1 1.9,-0.9 z"
   id="path183" />
			<path
   class="st8"
   d="m 285,470.4 c -1.7,-1.3 -3,-2.8 -4.1,-4.6 1,0.2 1.3,1.2 1.9,1.8 0.8,0.9 1.6,1.8 2.2,2.8 z"
   id="path184" />
			<path
   class="st8"
   d="m 429,217 c 2.3,0.2 4.6,0.7 6.7,1.7 -2.2,-0.3 -4.5,-0.9 -6.7,-1.7 z"
   id="path185" />
			<path
   class="st8"
   d="m 279.2,288 c 0.7,-1.9 1.9,-3.6 3.4,-5 -1,1.7 -2,3.5 -3.4,5 z"
   id="path186" />
			<path
   class="st8"
   d="m 469.3,462.5 c -1.1,1.6 -2.5,2.9 -4.1,4.1 1.1,-1.7 2.5,-3 4.1,-4.1 z"
   id="path187" />
			<path
   class="st8"
   d="m 474.1,457.7 c -1.1,1.6 -2.5,3 -4.1,4.1 1.1,-1.6 2.5,-3 4.1,-4.1 z"
   id="path188" />
			<path
   class="st8"
   d="m 290.5,476.2 c -1.6,-1.1 -2.9,-2.5 -4.1,-4.1 1.6,1.1 3,2.4 4.1,4.1 z"
   id="path189" />
			<path
   class="st8"
   d="m 318.3,245 c 1.3,-1.6 3,-2.7 4.8,-3.6 -1.5,1.4 -3.1,2.6 -4.8,3.6 z"
   id="path190" />
			<path
   class="st8"
   d="m 506.3,278.6 c 1.1,1.5 2,3.2 2.4,5 -1.1,-1.5 -1.9,-3.2 -2.4,-5 z"
   id="path191" />
			<path
   class="st8"
   d="m 440.1,485.8 c -1.2,1.2 -2.8,1.9 -4.3,2.6 0.1,-0.7 0.7,-0.7 1.1,-1 1.1,-0.5 1.9,-1.4 3.2,-1.6 z"
   id="path192" />
			<path
   class="st8"
   d="m 306.3,255.1 c 1.1,-1.1 2.1,-2.5 3.6,-3.1 -1.1,1.2 -2,2.6 -3.6,3.1 z"
   id="path193" />
			<path
   class="st8"
   d="m 276.7,292 c 0.5,-1.5 1.3,-2.9 2.5,-4 -0.6,1.5 -1.4,2.8 -2.5,4 z"
   id="path194" />
			<path
   class="st8"
   d="m 426.4,493.2 c -1.4,1 -2.9,1.8 -4.6,2.2 1.4,-1 3,-1.7 4.6,-2.2 z"
   id="path195" />
			<path
   class="st8"
   d="m 274.9,458 c -1,-1.1 -1.8,-2.3 -2.4,-3.7 1.1,1 2,2.2 2.4,3.7 z"
   id="path196" />
			<path
   class="st8"
   d="m 515.8,379.8 c 0,1.4 -0.2,2.7 -1,3.9 0.1,-1.4 0.3,-2.7 1,-3.9 z"
   id="path197" />
			<path
   class="st8"
   d="m 489,439.3 c -0.5,1.1 -1.1,2.2 -2.2,2.9 0.6,-1.1 1,-2.3 2.2,-2.9 z"
   id="path198" />
			<path
   class="st8"
   d="m 517,374.3 c -0.1,1.9 -0.5,3.8 -1.2,5.5 0.2,-1.9 0.7,-3.7 1.2,-5.5 z"
   id="path199" />
			<path
   class="st8"
   d="m 520.4,345.8 c 0,1.8 0.2,3.5 -0.2,5.3 0,-1.8 -0.3,-3.6 0.2,-5.3 z"
   id="path200" />
			<path
   class="st8"
   d="m 474.4,238.6 c 1,0.5 1.9,1.3 2.6,2.2 -1.2,-0.4 -2,-1.2 -2.6,-2.2 z"
   id="path201" />
			<path
   class="st8"
   d="m 429.8,491.5 c -0.9,0.9 -2,1.6 -3.4,1.7 1,-0.7 2.2,-1.3 3.4,-1.7 z"
   id="path202" />
			<path
   class="st8"
   d="m 342.2,229.7 c 0.9,-1 2.1,-1.5 3.4,-1.7 -1,0.8 -2.1,1.3 -3.4,1.7 z"
   id="path203" />
			<path
   class="st8"
   d="m 476.5,455.1 c -0.5,1 -1.4,1.7 -2.2,2.4 0.3,-1.3 1.2,-1.9 2.2,-2.4 z"
   id="path204" />
			<path
   class="st8"
   d="m 486.8,442.1 c -0.3,1.1 -1,1.9 -1.9,2.6 0.3,-1 1,-1.9 1.9,-2.6 z"
   id="path205" />
			<path
   class="st8"
   d="m 450.6,478.6 c -0.6,1 -1.5,1.6 -2.6,1.9 0.7,-0.8 1.6,-1.5 2.6,-1.9 z"
   id="path206" />
			<path
   class="st8"
   d="m 457.1,473.6 c -0.5,1 -1.3,1.6 -2.4,1.9 0.6,-0.9 1.4,-1.5 2.4,-1.9 z"
   id="path207" />
			<path
   class="st8"
   d="m 254.5,350.1 c 0,-1.3 0.1,-2.6 0.7,-3.9 0,1.4 -0.3,2.6 -0.7,3.9 z"
   id="path208" />
			<path
   class="st8"
   d="m 315.4,247.2 c 0.7,-0.8 1.4,-1.5 2.4,-1.9 -0.6,0.9 -1.3,1.7 -2.4,1.9 z"
   id="path209" />
			<path
   class="st8"
   d="m 282.8,282.5 c 0.3,-1 0.9,-1.8 1.7,-2.4 -0.2,1 -0.8,1.8 -1.7,2.4 z"
   id="path210" />
			<path
   class="st8"
   d="m 377.2,506.6 c -1.4,0.5 -2.8,0.2 -4.3,0.2 1.5,-0.3 2.9,-0.2 4.3,-0.2 z"
   id="path211" />
			<path
   class="st8"
   d="m 348,505.2 c -1.3,0.1 -2.5,-0.2 -3.6,-0.7 1.2,0.1 2.5,0 3.6,0.7 z"
   id="path212" />
			<path
   class="st8"
   d="m 338.4,231.6 c 0.8,-0.8 1.9,-1.1 2.9,-1.4 -0.8,0.8 -1.8,1.2 -2.9,1.4 z"
   id="path213" />
			<path
   class="st8"
   d="m 454.7,475.5 c -0.4,0.9 -1.2,1.4 -2.2,1.7 0.6,-0.8 1.3,-1.4 2.2,-1.7 z"
   id="path214" />
			<path
   class="st8"
   d="m 478.2,453.2 c -0.4,0.8 -1,1.4 -1.7,1.9 0.1,-1 0.8,-1.6 1.7,-1.9 z"
   id="path215" />
			<path
   class="st8"
   d="m 271.3,452.5 c -0.7,-0.7 -1.1,-1.5 -1.4,-2.4 0.8,0.5 1.3,1.3 1.4,2.4 z"
   id="path216" />
			<path
   class="st8"
   d="m 274.4,295.9 c 0.2,-1 0.5,-1.8 1.4,-2.4 -0.3,0.9 -0.7,1.7 -1.4,2.4 z"
   id="path217" />
			<path
   class="st8"
   d="m 293.6,479.1 c -0.7,-0.4 -1.4,-0.9 -1.7,-1.7 0.8,0.3 1.4,0.8 1.7,1.7 z"
   id="path218" />
			<path
   class="st8"
   d="m 503.9,273.8 c 0.6,0.7 1,1.5 1.2,2.4 -0.8,-0.6 -1.1,-1.4 -1.2,-2.4 z"
   id="path219" />
			<path
   class="st8"
   d="m 268.9,448.4 c -0.6,-0.7 -1.1,-1.5 -1.2,-2.4 0.7,0.6 1.1,1.4 1.2,2.4 z"
   id="path220" />
			<path
   class="st8"
   d="m 435.8,488.4 c -0.6,0.7 -1.4,0.9 -2.2,1.2 0.5,-0.9 1.3,-1 2.2,-1.2 z"
   id="path221" />
			<path
   class="st8"
   d="m 273.2,298 c 0.1,-0.9 0.5,-1.6 1.2,-2.2 -0.2,0.9 -0.5,1.7 -1.2,2.2 z"
   id="path222" />
			<path
   class="st8"
   d="m 271.8,300.7 c 0.2,-0.9 0.4,-1.7 1.2,-2.2 -0.3,0.8 -0.5,1.6 -1.2,2.2 z"
   id="path223" />
			<path
   class="st8"
   d="m 311.1,250.8 c 0.5,-0.6 1,-1.2 1.7,-1.4 -0.3,0.8 -0.8,1.4 -1.7,1.4 z"
   id="path224" />
			<path
   class="st8"
   d="m 420.7,495.9 c -0.6,0.5 -1.3,1 -2.2,1 0.5,-0.8 1.3,-1 2.2,-1 z"
   id="path225" />
			<path
   class="st8"
   d="m 425.7,216.3 c 1.2,0 2.3,0.2 3.4,0.7 -1.2,0 -2.3,-0.3 -3.4,-0.7 z"
   id="path226" />
			<path
   class="st8"
   d="m 336.5,232.8 c 0.4,-0.8 1.2,-0.9 1.9,-1.2 -0.3,0.9 -1.2,0.9 -1.9,1.2 z"
   id="path227" />
			<path
   class="st8"
   d="m 280.9,465.9 c -0.5,-0.5 -1.2,-0.9 -1.2,-1.7 0.6,0.4 1.2,0.8 1.2,1.7 z"
   id="path228" />
			<path
   class="st8"
   d="m 433.6,489.6 c -0.5,0.6 -1.2,0.8 -1.9,1 0.5,-0.7 1.1,-0.9 1.9,-1 z"
   id="path229" />
			<path
   class="st8"
   d="m 316.4,494.7 c -0.7,-0.1 -1.3,-0.4 -1.7,-1 0.7,0.1 1.4,0.2 1.7,1 z"
   id="path230" />
			<path
   class="st8"
   d="m 312.8,249.4 c 0.4,-0.5 0.8,-1 1.4,-1.2 -0.2,0.7 -0.6,1.2 -1.4,1.2 z"
   id="path231" />
			<path
   class="st8"
   d="m 456.6,227.1 c 0.7,0 1.4,0.2 1.7,1 -0.6,-0.2 -1.3,-0.4 -1.7,-1 z"
   id="path232" />
			<path
   class="st8"
   d="m 269.9,450.1 c -0.6,-0.4 -0.7,-1.1 -1,-1.7 0.8,0.3 0.9,1 1,1.7 z"
   id="path233" />
			<path
   class="st8"
   d="m 499.1,423 c 0,0.7 -0.3,1.3 -1,1.7 0.2,-0.7 0.3,-1.3 1,-1.7 z"
   id="path234" />
			<path
   class="st8"
   d="m 500.5,420.3 c 0,0.7 -0.3,1.3 -1,1.7 0.2,-0.6 0.4,-1.3 1,-1.7 z"
   id="path235" />
			<path
   class="st8"
   d="m 309.9,252 c 0.2,-0.6 0.6,-1 1.2,-1.2 -0.1,0.7 -0.6,1.1 -1.2,1.2 z"
   id="path236" />
			<path
   class="st8"
   d="m 313.2,493 c -0.6,-0.1 -1.2,-0.3 -1.4,-1 0.6,0.2 1.3,0.2 1.4,1 z"
   id="path237" />
			<path
   class="st8"
   d="m 296.9,264.7 c 0.2,-0.6 0.6,-1 1.2,-1.2 -0.1,0.7 -0.5,1.1 -1.2,1.2 z"
   id="path238" />
			<path
   class="st8"
   d="m 272.2,453.9 c -0.5,-0.3 -0.8,-0.9 -1,-1.4 0.8,0.2 1,0.7 1,1.4 z"
   id="path239" />
			<path
   class="st8"
   d="m 517.5,372.1 c 0,0.8 0,1.5 -0.5,2.2 0,-0.8 0,-1.5 0.5,-2.2 z"
   id="path240" />
			<path
   class="st8"
   d="m 285.9,471.6 c -0.5,-0.2 -0.8,-0.7 -1,-1.2 0.7,0.2 1,0.6 1,1.2 z"
   id="path241" />
			<path
   class="st8"
   d="m 323.1,241.5 c 0.1,-0.7 0.7,-0.8 1.2,-1 -0.2,0.6 -0.7,0.8 -1.2,1 z"
   id="path242" />
			<path
   class="st8"
   d="m 314.2,248.2 c 0.3,-0.4 0.7,-0.8 1.2,-1 -0.1,0.7 -0.5,1 -1.2,1 z"
   id="path243" />
			<path
   class="st8"
   d="m 508.6,283.6 c 0.5,0.4 0.7,1.1 0.7,1.7 -0.6,-0.4 -0.6,-1 -0.7,-1.7 z"
   id="path244" />
			<path
   class="st8"
   d="m 275.8,459.2 c -0.6,-0.2 -0.8,-0.7 -1,-1.2 0.8,0.1 0.9,0.6 1,1.2 z"
   id="path245" />
			<path
   class="st8"
   d="m 505.1,276.2 c 0.5,0.4 0.7,0.9 0.7,1.4 -0.6,-0.3 -0.7,-0.8 -0.7,-1.4 z"
   id="path246" />
			<path
   class="st8"
   d="m 324.3,240.5 c 0.3,-0.4 0.6,-0.7 1.2,-0.7 -0.3,0.5 -0.6,0.8 -1.2,0.7 z"
   id="path247" />
			<path
   class="st8"
   d="m 441.3,485.1 c -0.3,0.4 -0.7,0.7 -1.2,0.7 0.2,-0.5 0.6,-0.8 1.2,-0.7 z"
   id="path248" />
			<path
   class="st8"
   d="m 277.3,461.1 c -0.5,-0.1 -0.7,-0.5 -0.7,-1 0.4,0.2 0.6,0.5 0.7,1 z"
   id="path249" />
			<path
   class="st8"
   d="m 418.5,496.8 c -0.3,0.5 -0.7,0.5 -1.2,0.5 0.2,-0.5 0.7,-0.5 1.2,-0.5 z"
   id="path250" />
			<path
   class="st8"
   d="m 276.6,460.1 c -0.5,-0.1 -0.7,-0.5 -0.7,-1 0.3,0.3 0.6,0.6 0.7,1 z"
   id="path251" />
			<path
   class="st8"
   d="m 278,462.1 c -0.5,-0.1 -0.7,-0.5 -0.7,-1 0.4,0.2 0.7,0.5 0.7,1 z"
   id="path252" />
			<path
   class="st8"
   d="m 278.7,463 c -0.5,-0.1 -0.7,-0.5 -0.7,-1 0.4,0.3 0.7,0.5 0.7,1 z"
   id="path253" />
			<path
   class="st8"
   d="m 451.6,477.9 c -0.1,0.5 -0.5,0.7 -1,0.7 0.2,-0.4 0.5,-0.7 1,-0.7 z"
   id="path254" />
			<path
   class="st8"
   d="m 452.6,477.2 c -0.1,0.5 -0.5,0.7 -1,0.7 0.2,-0.4 0.5,-0.7 1,-0.7 z"
   id="path255" />
			<path
   class="st8"
   d="m 421.9,495.4 c -0.3,0.5 -0.7,0.5 -1.2,0.5 0.3,-0.4 0.7,-0.5 1.2,-0.5 z"
   id="path256" />
			<path
   class="st8"
   d="m 279.7,464.2 c -0.4,-0.1 -0.7,-0.3 -0.7,-0.7 0.4,0 0.6,0.3 0.7,0.7 z"
   id="path257" />
			<path
   class="st8"
   d="m 431.7,490.6 c -0.2,0.4 -0.6,0.5 -1,0.5 0.1,-0.6 0.6,-0.5 1,-0.5 z"
   id="path258" />
			<path
   class="st8"
   d="m 349.5,505.5 c -0.5,0 -1,0.1 -1.5,-0.3 0.5,0.1 1.1,-0.2 1.5,0.3 z"
   id="path259" />
			<path
   class="st8"
   d="m 424.2,216 c 0.5,0.1 1,-0.2 1.5,0.2 -0.5,0 -1,0.3 -1.5,-0.2 z"
   id="path260" />
			<path
   class="st8"
   d="m 518,369.2 c 0,0.5 0.2,1.1 -0.2,1.5 0,-0.5 -0.2,-1 0.2,-1.5 z"
   id="path261" />
			<path
   class="st8"
   d="m 505.8,277.7 c 0.4,0.2 0.5,0.6 0.5,1 -0.5,-0.3 -0.6,-0.6 -0.5,-1 z"
   id="path262" />
			<path
   class="st8"
   d="m 291.7,477.2 c -0.4,0 -0.6,-0.2 -0.7,-0.5 0.3,0 0.6,0 0.7,0.5 z"
   id="path263" />
			<path
   class="st8"
   d="m 298.1,263.5 c 0,-0.4 0.2,-0.6 0.5,-0.7 0,0.3 0,0.7 -0.5,0.7 z"
   id="path264" />
			<path
   class="st8"
   d="m 326.7,238.8 c 0.2,-0.3 0.4,-0.4 0.7,-0.5 0,0.5 -0.4,0.5 -0.7,0.5 z"
   id="path265" />
			<path
   class="st8"
   d="m 517.8,370.9 c 0,0.4 0.1,0.9 -0.2,1.2 0,-0.4 -0.2,-0.8 0.2,-1.2 z"
   id="path266" />
			<path
   class="st8"
   d="m 325.5,239.8 c 0.1,-0.4 0.4,-0.5 0.7,-0.5 -0.1,0.3 -0.4,0.5 -0.7,0.5 z"
   id="path267" />
			<path
   class="st8"
   d="m 448,480.5 c 0,0.3 -0.2,0.4 -0.5,0.5 0,-0.3 0.2,-0.5 0.5,-0.5 z"
   id="path268" />
			<path
   class="st8"
   d="m 326.2,239.3 c 0,-0.3 0.2,-0.4 0.5,-0.5 0,0.3 -0.2,0.5 -0.5,0.5 z"
   id="path269" />
			<path
   class="st8"
   d="m 298.6,262.8 c 0.2,-0.2 0.3,-0.3 0.5,-0.5 0,0.3 -0.2,0.5 -0.5,0.5 z"
   id="path270" />
			<path
   class="st8"
   d="m 314,493.2 c -0.3,0 -0.5,0 -0.7,-0.2 0.2,0 0.5,-0.1 0.7,0.2 z"
   id="path271" />
			<path
   class="st8"
   d="m 498.1,424.6 c 0,0.3 0,0.5 -0.2,0.7 -0.1,-0.2 -0.1,-0.5 0.2,-0.7 z"
   id="path272" />
			<path
   class="st8"
   d="m 317.1,494.9 c -0.3,0 -0.5,0 -0.7,-0.2 0.2,-0.1 0.5,-0.1 0.7,0.2 z"
   id="path273" />
			<path
   class="st8"
   d="m 458.8,228.3 c 0.3,0 0.5,0 0.7,0.2 -0.3,0 -0.5,0 -0.7,-0.2 z"
   id="path274" />
			<path
   class="st8"
   d="m 273,298.5 c 0,-0.2 0,-0.4 0.2,-0.5 0,0.2 0,0.4 -0.2,0.5 z"
   id="path275" />
			<path
   class="st8"
   d="m 267.7,446 c -0.2,-0.1 -0.3,-0.3 -0.2,-0.5 0.1,0.1 0.2,0.3 0.2,0.5 z"
   id="path276" />
			<path
   class="st8"
   d="m 269.1,306 c 0,-0.2 0,-0.4 0.2,-0.5 0.1,0.2 0,0.3 -0.2,0.5 z"
   id="path277" />
			<path
   class="st8"
   d="m 341.8,229.9 c 0.1,-0.2 0.3,-0.3 0.5,-0.2 -0.2,0.2 -0.3,0.2 -0.5,0.2 z"
   id="path278" />
			<path
   class="st8"
   d="m 489.2,438.8 c 0,0.2 -0.1,0.4 -0.2,0.5 0,-0.2 0,-0.4 0.2,-0.5 z"
   id="path279" />
			<path
   class="st8"
   d="m 269.6,305 c 0,-0.2 0,-0.4 0.2,-0.5 0.1,0.2 0,0.4 -0.2,0.5 z"
   id="path280" />
			<path
   class="st8"
   d="m 271.5,301.2 c 0,-0.2 0,-0.4 0.2,-0.5 0.1,0.2 0,0.4 -0.2,0.5 z"
   id="path281" />
			<path
   class="st8"
   d="m 268.9,306.4 c 0,-0.2 0,-0.4 0.2,-0.5 0,0.2 0,0.4 -0.2,0.5 z"
   id="path282" />
			<path
   class="st8"
   d="m 458.3,228 c 0.2,0 0.4,0 0.5,0.2 -0.2,0.1 -0.4,0 -0.5,-0.2 z"
   id="path283" />
			<path
   class="st8"
   d="m 268.6,306.9 c 0,-0.2 0,-0.4 0.2,-0.5 0.1,0.2 0,0.4 -0.2,0.5 z"
   id="path284" />
			<path
   class="st8"
   d="m 268.4,307.4 c 0,-0.2 0,-0.4 0.2,-0.5 0.1,0.2 0,0.4 -0.2,0.5 z"
   id="path285" />
			<path
   class="st8"
   d="m 282.6,282.9 c 0,-0.2 0.1,-0.4 0.2,-0.5 0,0.3 -0.1,0.4 -0.2,0.5 z"
   id="path286" />
			<path
   class="st8"
   d="m 499.3,422.5 c 0,0.2 0,0.4 -0.2,0.5 0,-0.2 0,-0.4 0.2,-0.5 z"
   id="path287" />
			<path
   class="st8"
   d="m 499.5,422 c 0,0.2 0,0.4 -0.2,0.5 0,-0.2 0.1,-0.4 0.2,-0.5 z"
   id="path288" />
			<path
   class="st8"
   d="m 269.4,305.5 c 0,-0.2 0,-0.4 0.2,-0.5 0,0.2 0,0.4 -0.2,0.5 z"
   id="path289" />
			<path
   class="st8"
   d="m 271.3,301.6 c 0,-0.2 0,-0.4 0.2,-0.5 0,0.3 0,0.4 -0.2,0.5 z"
   id="path290" />
			<path
   class="st8"
   d="m 268.2,307.9 c 0,-0.2 0,-0.4 0.2,-0.5 0,0.2 0,0.4 -0.2,0.5 z"
   id="path291" />
			<path
   class="st8"
   d="m 500.7,419.8 c 0,0.2 0,0.4 -0.2,0.5 0,-0.2 0.1,-0.3 0.2,-0.5 z"
   id="path292" />
			<path
   class="st8"
   d="m 269.8,304.5 c 0,-0.2 0,-0.4 0.2,-0.5 0.1,0.2 0,0.4 -0.2,0.5 z"
   id="path293" />
			<path
   class="st8"
   d="m 317.6,495.1 c -0.2,0 -0.4,0 -0.5,-0.2 0.2,0 0.4,0.1 0.5,0.2 z"
   id="path294" />
			<path
   class="st8"
   d="m 345.6,228 c 0.1,-0.2 0.3,-0.3 0.5,-0.2 -0.1,0.2 -0.3,0.2 -0.5,0.2 z"
   id="path295" />
			<path
   class="st8"
   d="m 279,463.5 c -0.2,-0.1 -0.3,-0.3 -0.2,-0.5 0.1,0.1 0.2,0.3 0.2,0.5 z"
   id="path296" />
			<path
   class="st8"
   d="m 501,419.4 c 0,0.2 0,0.4 -0.2,0.5 -0.1,-0.3 0,-0.4 0.2,-0.5 z"
   id="path297" />
			<path
   class="st8"
   d="m 317.8,245.3 c 0.1,-0.2 0.3,-0.3 0.5,-0.2 -0.1,0.1 -0.3,0.2 -0.5,0.2 z"
   id="path298" />
			<path
   class="st8"
   d="m 501.2,418.9 c 0,0.2 0,0.4 -0.2,0.5 0,-0.2 0,-0.4 0.2,-0.5 z"
   id="path299" />
			<path
   class="st8"
   d="m 270.1,304 c 0,-0.2 0,-0.4 0.2,-0.5 0,0.3 0,0.4 -0.2,0.5 z"
   id="path300" />
			<path
   class="st8"
   d="m 456.1,226.8 c 0.2,0 0.4,0 0.5,0.2 -0.2,0.1 -0.4,0 -0.5,-0.2 z"
   id="path301" />
			<path
   class="st8"
   d="m 501.5,418.4 c 0,0.2 0,0.4 -0.2,0.5 -0.1,-0.2 0,-0.4 0.2,-0.5 z"
   id="path302" />
			<path
   class="st8"
   d="m 270.3,303.6 c 0,-0.2 0,-0.4 0.2,-0.5 0.1,0.2 0,0.3 -0.2,0.5 z"
   id="path303" />
			<path
   class="st8"
   d="m 314.4,493.5 c -0.2,0 -0.4,0 -0.5,-0.2 0.3,-0.1 0.4,0 0.5,0.2 z"
   id="path304" />
			<path
   class="st8"
   d="m 455.7,226.6 c 0.2,0 0.4,0 0.5,0.2 -0.3,0 -0.4,0 -0.5,-0.2 z"
   id="path305" />
			<path
   class="st8"
   d="m 501.7,417.9 c 0,0.2 0,0.4 -0.2,0.5 0,-0.2 0,-0.4 0.2,-0.5 z"
   id="path306" />
			<path
   class="st8"
   d="m 270.6,303.1 c 0,-0.2 0,-0.4 0.2,-0.5 0,0.2 0,0.4 -0.2,0.5 z"
   id="path307" />
			<path
   class="st8"
   d="m 270.8,302.6 c 0,-0.2 0,-0.4 0.2,-0.5 0.1,0.2 0,0.4 -0.2,0.5 z"
   id="path308" />
			<path
   class="st8"
   d="m 271,302.1 c 0,-0.2 0,-0.4 0.2,-0.5 0.1,0.2 0,0.4 -0.2,0.5 z"
   id="path309" />
			<path
   class="st8"
   d="m 501.9,417.4 c 0,0.2 0,0.4 -0.2,0.5 0,-0.2 0.1,-0.3 0.2,-0.5 z"
   id="path310" />
			<path
   class="st8"
   d="m 341.3,230.2 c 0.1,-0.2 0.3,-0.3 0.5,-0.2 -0.1,0.1 -0.3,0.2 -0.5,0.2 z"
   id="path311" />
			<path
   class="st8"
   d="m 502.2,417 c 0,0.2 0,0.4 -0.2,0.5 -0.1,-0.2 0,-0.4 0.2,-0.5 z"
   id="path312" />
			<path
   class="st8"
   d="m 430.3,491.3 c -0.1,0.2 -0.3,0.3 -0.5,0.2 0.1,-0.1 0.3,-0.2 0.5,-0.2 z"
   id="path313" />
			<path
   class="st8"
   d="m 502.4,416.5 c 0,0.2 0,0.4 -0.2,0.5 0,-0.2 0,-0.4 0.2,-0.5 z"
   id="path314" />
			<path
   class="st8"
   d="m 430.7,491.1 c -0.1,0.2 -0.3,0.3 -0.5,0.2 0.2,-0.2 0.3,-0.2 0.5,-0.2 z"
   id="path315" />
			<path
   class="st8"
   d="m 455.2,226.3 c 0.2,0 0.4,0 0.5,0.2 -0.2,0.1 -0.4,0 -0.5,-0.2 z"
   id="path316" />
			<path
   class="st8"
   d="m 502.7,416 c 0,0.2 0,0.4 -0.2,0.5 -0.1,-0.2 0,-0.4 0.2,-0.5 z"
   id="path317" />
			<path
   class="st8"
   d="m 454.7,226.1 c 0.2,0 0.4,0 0.5,0.2 -0.2,0 -0.4,0 -0.5,-0.2 z"
   id="path318" />
			<path
   class="st8"
   d="m 503.6,414.1 c 0,0.2 0,0.4 -0.2,0.5 0,-0.2 0,-0.4 0.2,-0.5 z"
   id="path319" />
			<path
   class="st8"
   d="m 454.2,225.9 c 0.2,0 0.4,0 0.5,0.2 -0.2,0 -0.4,-0.1 -0.5,-0.2 z"
   id="path320" />
			<path
   class="st8"
   d="m 502.9,415.5 c 0,0.2 0,0.4 -0.2,0.5 0,-0.2 0,-0.4 0.2,-0.5 z"
   id="path321" />
			<path
   class="st8"
   d="m 453.7,225.6 c 0.2,0 0.4,0 0.5,0.2 -0.2,0.1 -0.3,0 -0.5,-0.2 z"
   id="path322" />
			<path
   class="st8"
   d="m 503.1,415 c 0,0.2 0,0.4 -0.2,0.5 0,-0.2 0.1,-0.3 0.2,-0.5 z"
   id="path323" />
			<path
   class="st8"
   d="m 503.4,414.6 c 0,0.2 0,0.4 -0.2,0.5 -0.1,-0.2 0,-0.4 0.2,-0.5 z"
   id="path324" />
			<path
   class="st8"
   d="m 441.5,484.8 c -0.1,0.1 -0.2,0.2 -0.2,0.2 0.1,0 0.1,-0.1 0.2,-0.2 z"
   id="path325" />
			<path
   class="st8"
   d="m 296.7,265 c 0.1,-0.1 0.2,-0.2 0.2,-0.2 0,0 -0.1,0.1 -0.2,0.2 z"
   id="path326" />
			<path
   class="st8"
   d="m 296.5,265.2 c 0.1,-0.1 0.2,-0.2 0.2,-0.2 -0.1,0 -0.2,0.1 -0.2,0.2 z"
   id="path327" />
			<path
   class="st8"
   d="m 291,476.7 c -0.1,-0.1 -0.2,-0.2 -0.3,-0.3 0.1,0.1 0.2,0.2 0.3,0.3 z"
   id="path328" />
			<path
   class="st8"
   d="m 290.7,476.4 c -0.1,-0.1 -0.2,-0.2 -0.3,-0.3 0.1,0.2 0.2,0.3 0.3,0.3 z"
   id="path329" />
			<path
   class="st8"
   d="m 296.2,265.4 c 0.1,-0.1 0.2,-0.2 0.2,-0.3 0,0.2 -0.1,0.3 -0.2,0.3 z"
   id="path330" />
			<path
   class="st8"
   d="m 286.4,472.1 c -0.1,-0.1 -0.2,-0.2 -0.3,-0.3 0.1,0.2 0.2,0.2 0.3,0.3 z"
   id="path331" />
			<path
   class="st8"
   d="m 299.1,262.3 c 0.1,-0.1 0.2,-0.2 0.3,-0.3 -0.1,0.2 -0.2,0.2 -0.3,0.3 z"
   id="path332" />
			<path
   class="st8"
   d="m 314.7,493.7 c -0.1,-0.1 -0.2,-0.2 -0.2,-0.2 0,0 0.1,0.1 0.2,0.2 z"
   id="path333" />
			<path
   class="st8"
   d="m 286.2,471.9 c -0.1,-0.1 -0.2,-0.2 -0.3,-0.3 0.1,0.1 0.2,0.2 0.3,0.3 z"
   id="path334" />
			<path
   class="st8"
   d="m 465.3,466.6 c -0.1,0.1 -0.2,0.2 -0.3,0.3 0.1,-0.1 0.2,-0.2 0.3,-0.3 z"
   id="path335" />
			<path
   class="st8"
   d="m 469.6,462.3 c -0.1,0.1 -0.2,0.2 -0.2,0.2 0,-0.1 0.1,-0.1 0.2,-0.2 z"
   id="path336" />
			<path
   class="st8"
   d="m 469.8,462 c -0.1,0.1 -0.2,0.2 -0.2,0.2 0,0 0.1,-0.1 0.2,-0.2 z"
   id="path337" />
			<path
   class="st8"
   d="m 470.1,461.8 c -0.1,0.1 -0.2,0.2 -0.2,0.2 0,0 0.1,-0.1 0.2,-0.2 z"
   id="path338" />
			<path
   class="st8"
   d="m 306,255.4 c 0.1,-0.1 0.2,-0.2 0.3,-0.3 -0.1,0.1 -0.2,0.2 -0.3,0.3 z"
   id="path339" />
			<path
   class="st8"
   d="m 474.4,457.5 c -0.1,0.1 -0.2,0.2 -0.3,0.3 0.1,-0.1 0.2,-0.2 0.3,-0.3 z"
   id="path340" />
			<path
   class="st8"
   d="m 477,240.7 c 0.1,0.1 0.2,0.2 0.3,0.3 -0.1,-0.1 -0.2,-0.2 -0.3,-0.3 z"
   id="path341" />
			<path
   class="st8"
   d="m 485.6,248.9 c 0.1,0.1 0.2,0.2 0.3,0.3 -0.1,-0.2 -0.2,-0.2 -0.3,-0.3 z"
   id="path342" />
			<path
   class="st8"
   d="m 272.5,454.3 c -0.1,-0.1 -0.2,-0.2 -0.2,-0.4 0,0.1 0.1,0.2 0.2,0.4 z"
   id="path343" />
			<path
   class="st8"
   d="m 276.4,292.5 c 0.1,-0.1 0.1,-0.1 0.2,-0.2 -0.1,0.1 -0.2,0.1 -0.2,0.2 z"
   id="path344" />
			<path
   class="st8"
   d="m 291.9,477.4 c -0.1,-0.1 -0.2,-0.2 -0.2,-0.2 0,0 0.1,0.1 0.2,0.2 z"
   id="path345" />
		</g>
	</g>
</g>
<g
   class="st9"
   id="g350"
   transform="translate(-22)">
	<g
   id="g349">
		<g
   id="g348">
			<path
   class="st10"
   d="m 453.7,264.3 c 3.4,1.6 5.1,4.6 6,8.1 1.8,7 1.8,14.2 0.9,21.3 -0.4,3 -2.1,5.5 -4.1,7.7 -0.4,0.5 -1,0.8 -1.6,1 -2.5,0.8 -5,1.6 -7.5,2.4 -2.4,0.8 -4.9,0.8 -7.3,1.2 -8.2,1.2 -16.4,2.1 -24.5,4.1 -0.7,0.2 -1.5,0.4 -2.2,0.7 -1.9,0.8 -2.3,1.6 -2.3,3.6 0,3.5 0.7,6.8 1.1,10.3 0.3,2.8 0.2,5.6 -0.3,8.4 -0.7,4.1 -0.1,8.1 0.6,12.2 0.8,4.5 1.9,8.8 2.4,13.3 0.3,3.1 0.3,6.1 -0.3,9.2 -1,5.5 -0.6,11.1 -0.4,16.7 0.2,6.2 0.4,12.5 0.4,18.7 0,3.7 -0.4,7.5 0.3,11.1 1.1,5.8 0.3,11.6 0.8,17.5 0.4,4.6 1.2,9.1 2.1,13.6 0.2,1.2 0.4,2.4 0.6,3.6 0,0.2 0.1,0.4 0,0.6 -1.2,3.5 -0.6,7.1 -1.3,10.7 -0.7,3.4 -2.4,5.9 -5.3,8 -2.7,2 -5.6,2.9 -8.8,3.2 -5.4,0.5 -10.8,0.9 -16.2,0.9 -1.3,0 -2.6,-0.2 -3.8,-0.3 -3.2,-0.5 -5.2,-2.4 -6.3,-5.4 -1.2,-3.3 -1.7,-6.8 -2.1,-10.3 0,-0.1 0,-0.2 0,-0.4 -1.6,-4.3 -1.4,-8.8 -1.5,-13.3 -0.1,-3.9 -0.6,-7.8 -1,-11.7 -0.3,-3.4 -0.3,-6.7 -0.1,-10.1 0.4,-6.9 0.8,-13.8 0.3,-20.6 -0.5,-6.8 -0.4,-13.5 -0.3,-20.3 0.2,-11.4 0.6,-22.9 0.4,-34.3 -0.1,-5.5 -0.7,-11 -0.5,-16.5 0,-0.1 0,-0.2 0,-0.2 -0.9,-2.3 -1,-4.5 -0.2,-6.8 0.4,-1.1 -0.2,-1.6 -1.6,-1.6 -3.3,-0.1 -6.6,0.1 -9.9,0.5 -4.9,0.5 -9.6,1.8 -14.4,2.6 -3.2,0.5 -5.7,-0.5 -7.7,-2.9 -2.4,-3 -3.6,-6.4 -4.1,-10.2 -0.8,-7.2 -0.4,-14.5 -0.4,-21.7 0,-2.3 1.3,-4.3 3,-6 0.5,-0.5 1.1,-0.6 1.8,-0.7 8,-1.5 16.1,-2.3 24.1,-2.9 5.7,-0.5 11.4,-1.3 17,-2.2 17,-2.7 33.8,-6.4 50.7,-9.5 5.5,-1 11,-1.8 16.6,-2.7 0.3,0 0.5,-0.2 0.8,-0.3 1.9,-0.3 4,-0.3 6.1,-0.3 z m -113.4,33.6 c 0.4,-0.2 0.6,-0.5 0.6,-0.9 0,-0.3 -0.2,-0.5 -0.5,-0.5 -0.5,0.1 -0.6,0.5 -0.6,0.9 0.1,0.3 0.1,0.5 0.5,0.5 z"
   id="path347" />
		</g>
	</g>
</g>
<path
   class="st11"
   d="m 174.7,29.6 c 2.7,0 5.4,0 8.2,0 2.1,0.5 4.2,0.2 6.2,0.2 0.4,0 0.8,0 1.2,0 1.9,0.5 3.8,0.2 5.7,0.5 3.6,-0.1 7.3,0.6 10.9,0.5 0.2,0 0.3,0 0.5,0 2.1,0.7 4.3,0.6 6.5,0.9 1.5,0.2 3.1,0 4.5,0.4 2.1,0.6 4.3,0.6 6.4,1.1 2.3,0.5 4.6,0.7 6.9,1.1 2.9,0.5 5.7,1 8.6,1.5 0.3,0.4 0.8,0.2 1.2,0.2 v 0 c 0.7,0.4 1.4,0.5 2.2,0.5 0.1,0.1 0.1,0.2 0.2,0.3 0.1,0 0.1,0 0.2,0 h 0.1 0.1 0.1 c 0.1,0 0.2,0 0.3,0 1.1,0.4 2.2,0.9 3.4,0.7 v 0 c 0.1,0.1 -0.1,0.4 0.2,0.2 0.4,-0.1 0.8,-0.1 1.2,0 0.1,0.3 0.4,0.4 0.7,0.5 3.2,0.8 6.3,1.6 9.5,2.5 0.6,0.2 1.3,0.9 2.1,0.3 0.6,0.4 1.3,0.2 1.9,0.5 0.4,0.9 1.3,0.7 2,0.9 5.8,1.9 11.6,3.9 17.2,6.3 2.6,1.1 5.1,2.1 7.6,3.4 1.3,0.7 2.6,1.7 4.1,1.8 v 0 c 0.1,0.2 0.3,0.2 0.5,0.2 v 0 c 0.1,0.1 0.2,0.2 0.2,0.2 v 0 c 0.1,0.2 0.3,0.2 0.5,0.2 v 0 c 0.2,0.5 0.7,0.6 1.1,0.9 4.4,2.4 8.6,5.1 12.6,8.1 0.7,0.5 1.2,1.4 2.2,1.3 v 0 c 0.1,0.6 0.4,0.9 1,1 v 0 c 0,0.1 -0.1,0.4 0.2,0.2 0.3,0.3 0.7,0.5 1,0.8 0.5,0.9 1,1.7 2.1,1.9 v 0 c 0.1,0.1 0.2,0.2 0.3,0.3 0,0 0,0 0,0 0.1,0.1 0.2,0.2 0.3,0.3 0,0 0,0 0,0 0.1,0.1 0.2,0.2 0.3,0.3 0,0 0,0 0,0 0.1,0.1 0.2,0.2 0.3,0.3 0,0 0,0 0,0 0.1,1 0.8,1.5 1.6,1.9 0.2,0.2 0.4,0.4 0.6,0.6 0,0.9 0.7,1.2 1.3,1.5 0.4,0.7 0.9,1.3 1.3,2 0,0.3 0.2,0.5 0.5,0.5 v 0 c -0.1,0.4 0.2,0.7 0.4,1.1 1.8,2.8 3,5.9 3.7,9.1 0.4,1.9 0.7,3.8 0.5,5.7 -0.1,0.8 -0.5,1.7 -0.1,2.6 0,0.2 0,0.5 0,0.7 -0.8,0.4 -0.5,1.2 -0.8,1.8 -0.7,1.7 -1.4,3.4 -2.1,5.1 0,0 0,0 0,0 -0.2,0.1 -0.2,0.3 -0.2,0.5 v 0 c -0.8,0.6 -1.3,1.4 -1.7,2.4 0,0.1 0,0.2 -0.1,0.3 -0.5,0.2 -0.9,0.4 -0.9,1.1 l -0.1,0.1 c -0.1,0.1 -0.1,0.1 -0.2,0.2 v 0 c -0.1,0.1 -0.1,0.2 -0.2,0.2 v 0 c -0.6,0.1 -0.8,0.4 -0.7,1 v 0 c -0.1,0.1 -0.2,0.2 -0.3,0.3 0,0 0,0 0,0 -1,0.4 -1.7,1.2 -2.2,2.2 v 0 c -0.9,0.1 -1.4,0.6 -1.7,1.4 -0.6,0.5 -1.3,1.1 -1.9,1.6 -1.9,1.3 -3.7,2.8 -5.8,3.8 -0.1,0.1 -0.1,0.2 -0.2,0.2 v 0 c -0.2,0 -0.4,0.1 -0.5,0.3 0,0 0,0 0,0 -2.4,1.2 -4.9,2.3 -7.3,3.6 -0.7,0.4 -1.7,0.3 -2.1,1.2 -0.1,0 -0.2,0 -0.3,0 -0.3,0.1 -0.6,0.1 -0.9,0.3 -2.1,0.8 -4.2,1.6 -6.4,2.4 -3.1,1.2 -6.4,2 -9.6,3 -3.1,0.9 -6.3,1.6 -9.5,2.4 -0.7,0.2 -1.6,-0.1 -2.1,0.8 -0.2,0 -0.4,0 -0.6,0.1 -0.8,0 -1.7,0 -2.5,0.1 -5.1,0.9 -10.2,1.7 -15.3,2.3 -0.9,0.1 -2,-0.2 -2.7,0.6 -1,0 -2.1,-0.2 -3,0.1 -2.3,0.8 -4.7,0.1 -6.9,0.6 -1.3,0 -2.6,-0.2 -3.8,0.3 -0.1,0 -0.3,0 -0.4,0 -0.1,-0.1 -0.2,-0.2 -0.3,-0.2 -2.9,0.1 -5.8,0.3 -8.7,0.4 -4.1,0.1 -8.2,0 -12.3,0 -0.4,0 -0.9,-0.1 -1.3,0.2 -0.3,-0.1 -0.7,-0.2 -1,-0.2 -0.2,-0.2 -0.5,-0.2 -0.8,-0.2 -1.9,0 -3.8,-0.1 -5.7,-0.2 -1.6,-0.1 -3.1,-0.5 -4.7,0 -2.5,0 -5,-0.3 -7.6,-0.5 0,-0.3 -0.2,-0.4 -0.5,-0.4 -1.1,-0.1 -2.3,-0.2 -3.4,-0.2 -0.7,0 -1.5,-0.5 -2.2,0 -0.3,0 -0.7,0 -1,0 -0.1,-0.6 -0.6,-0.4 -1,-0.4 -1.1,-0.1 -2.1,-0.2 -3.2,-0.4 -0.4,-0.1 -0.8,-0.2 -1.1,0.1 -0.2,0 -0.5,0 -0.7,0 -0.4,-0.7 -1.1,-0.5 -1.7,-0.6 -1.3,-0.1 -2.6,-0.7 -4,-0.4 -2.8,-0.3 -5.6,-0.8 -8.5,-1.3 -3.5,-0.6 -7,-1.3 -10.5,-2 -0.9,-1 -2.3,-0.6 -3.3,-1.2 -0.4,-0.2 -0.8,-0.2 -1.2,0 -0.2,0 -0.3,0 -0.5,0 -0.1,-0.6 -0.6,-0.6 -1.1,-0.7 -2.8,-0.7 -5.6,-1.5 -8.4,-2.1 -0.6,-0.1 -1.1,-0.9 -1.7,-0.3 -0.7,0.1 -1.3,-0.4 -2,-0.5 -0.1,-0.1 -0.1,-0.3 -0.2,-0.4 -2.6,-0.9 -5.4,-1.5 -8,-2.6 -0.1,0 -0.3,0.1 -0.4,0.2 -0.3,-0.1 -0.7,-0.2 -1,-0.3 -0.8,-0.9 -1.9,-1.1 -3.1,-1.1 -0.8,-0.3 -1.6,-0.7 -2.4,-1 0,-0.4 -0.3,-0.4 -0.6,-0.5 -2.6,-0.9 -5,-2.1 -7.6,-3.1 -1.3,-0.6 -2.5,-1.5 -4.1,-1.6 v 0 c -0.1,-0.2 -0.3,-0.2 -0.5,-0.2 v 0 c -0.1,-0.2 -0.3,-0.2 -0.5,-0.2 v 0 c -0.1,-0.2 -0.3,-0.2 -0.5,-0.2 v 0 c -0.1,-0.2 -0.3,-0.2 -0.5,-0.2 v 0 c -0.2,-0.3 -0.5,-0.3 -0.7,-0.2 v 0 c -0.1,-0.1 -0.2,-0.2 -0.3,-0.2 v 0 c -0.1,-0.2 -0.3,-0.2 -0.5,-0.2 v 0 c -0.1,-0.2 -0.3,-0.2 -0.5,-0.2 v 0 c -0.1,-0.2 -0.3,-0.2 -0.5,-0.2 v 0 c -0.7,-0.8 -1.6,-1.2 -2.6,-1.4 v 0 C 101,111 100.8,111 100.6,111 v 0 c -1.3,-1 -2.6,-1.9 -4.1,-2.4 v 0 c -1,-1.2 -2.5,-1.7 -3.7,-2.6 -0.5,-0.3 -0.9,-0.8 -1.6,-0.7 v 0 c -0.1,-0.7 -0.7,-0.9 -1.3,-1 -0.2,-0.1 -0.3,-0.2 -0.5,-0.3 -0.7,-1 -1.7,-1.8 -2.8,-2.3 C 83.6,99.5 81,97 78.7,94.1 77.4,92.5 76,90.9 75.1,89 c -1.4,-2.7 -2.6,-5.4 -3.4,-8.3 -0.1,-0.2 -0.3,-0.3 -0.5,-0.3 0,-3.2 0,-6.4 0,-9.6 0.3,-0.2 0.5,-0.4 0.5,-0.7 0.5,-1.5 1.4,-2.9 1.7,-4.6 v 0 c 0.9,-1.3 1.9,-2.5 2.4,-4.1 v 0 c 0.3,0 0.5,-0.1 0.6,-0.3 1.1,-1.6 2.5,-3 3.9,-4.3 0.2,-0.2 0.5,-0.4 0.5,-0.8 0.3,-0.2 0.5,-0.4 0.8,-0.6 0.7,-0.1 0.9,-0.6 1.1,-1.1 0.2,-0.1 0.3,-0.2 0.5,-0.3 0.6,0.2 0.6,-0.3 0.7,-0.6 0,0 0.1,-0.1 0.1,-0.1 0.1,-0.1 0.2,-0.2 0.3,-0.4 0.9,-0.6 1.8,-1.2 2.7,-1.7 1.1,-0.7 2.3,-1.3 3.4,-2 0.8,-0.6 1.9,-0.7 2.5,-1.6 v 0 c 0.2,0 0.4,-0.1 0.5,-0.2 v 0 c 1.5,-0.4 2.8,-1.2 4.2,-1.9 5,-2.3 10,-4.2 15.2,-5.7 0.9,-0.3 1.9,-0.4 2.6,-1 v 0 c 2.7,-0.4 5.3,-1.2 7.9,-1.9 0.1,-0.1 0.2,-0.2 0.3,-0.3 1.1,0.2 2.2,-0.3 3.3,-0.5 2.7,-0.5 5.4,-0.9 8,-1.7 0.6,-0.2 1.3,-0.3 2,-0.2 0.5,-0.2 1,0 1.5,-0.1 2,-0.4 4.1,-0.5 6.1,-0.9 2.1,-0.3 4.3,-0.4 6.4,-0.9 3.5,-0.3 6.9,-0.8 10.4,-0.8 0.2,0 0.4,-0.1 0.5,-0.2 0.2,0.1 0.4,0.3 0.6,0 0.2,0 0.3,0 0.5,0 1.5,0 2.9,0.2 4.3,-0.2 0.3,0 0.6,0 0.9,0 0.7,0.3 1.5,0.1 2.2,0 1.7,-1.3 3,-1 4.4,-1.5 z"
   id="path350" />
</svg>
