<?xml version="1.0" encoding="utf-8"?>
<!-- Generator: Adobe Illustrator 26.3.1, SVG Export Plug-In . SVG Version: 6.00 Build 0)  -->
<svg version="1.1" id="Calque_1" xmlns="http://www.w3.org/2000/svg" xmlns:xlink="http://www.w3.org/1999/xlink" x="0px" y="0px"
	 viewBox="0 0 947.82 768" style="enable-background:new 0 0 947.82 768;" xml:space="preserve">
<style type="text/css">
	.st0{stroke:#000000;stroke-width:4;stroke-miterlimit:10;}
	.st1{fill:#FF4401;}
	.st2{fill:#FCF5EF;}
</style>
<g>
	<g>
		<g>
			<path class="st0" d="M843.07,482.31c2.47,4.62,5.15,8.95,7.95,12.86c2.59,3.84,5.54,4.96,8.62,3.32
				c1.96-1.05,4.03-0.89,5.62,0.41c1.81,1.37,2.93,3.12,3.13,5.17c0.27,2.2-0.82,3.86-3.06,5.06c-2.38,1.27-5.62,2.29-9.86,3.11
				c-4.24,0.83-8.96-0.25-14.01-2.96c-5.19-2.63-10.26-8.74-15.2-17.99c-2.02-3.78-1.82-6.77,0.46-9.25
				c2.35-2.34,5.3-3.56,8.78-3.79C839.05,478.16,841.57,479.51,843.07,482.31z"/>
		</g>
	</g>
	<g>
		<path class="st1" d="M177.36,333.79c-0.46-3.12-1.34-6.2-1.6-9.33c-0.37-4.59-0.31-9.01-0.68-13.61l-0.46-5.64
			c-0.75-1.41-0.69-3.31-0.82-4.98c-0.76-9.4-1.07-18.41-1.84-27.81l-0.64-7.94c-0.24-0.4-0.57-1.85-0.6-2.26l-0.63-7.73
			c-0.23-0.19-0.99-1.81-1.02-2.23c-0.02-0.21,0.35-0.87,0.35-0.87c0.16-0.64,0.27-1.91,0.27-1.91l-0.45-0.38
			c-0.22-0.19-5.5-0.4-7.79-0.21l-3.34,0.27c-2.92,0.24-6.02,0.91-8.74,1.13c-4.8,0.39-7.47-4.02-9.05-7.88
			c-0.34-1.65-1.79-9.1-1.93-10.77c-0.02-0.21-0.35-1.65-0.4-2.28c-0.22-2.71,0.28-6.96,2.66-8.63c1.04-0.08,5.41-0.65,6.46-0.73
			c6.68-0.54,13.42-0.46,20.1-1c20.05-1.63,39.72-5.32,59.56-6.93c8.35-0.68,9.7,10.77,10.14,16.2c0.39,4.8,0.4,7.53-3.1,10.97
			c-2.05,0.59-4.75,1.02-6.79,1.81l-17.75,1.44c-0.42,0.03-4.98,0.83-5.4,0.86c-1.46,0.12-4.37,0.57-4.23,2.24
			c0.29,3.55,1.64,7.22,1.93,10.77c0.15,1.88-0.32,3.81-0.19,5.48c0.54,6.68,3.99,12.92,4.32,19.62c0.03,0.42-0.41,5.29-0.38,5.71
			l0.19,2.3c0.63,7.73,1.81,14.57,2.25,22.52c0.6,2.26,0.04,5.67,1.45,7.45c0.1,3.78,0.59,9.83,1.57,14.17
			c0.38,2.07,2.23,6.76,2.43,9.26c0.02,0.21-0.38,0.45-0.38,0.45c0.03,2.94,0.68,8.35-1.66,10.65c-1.36,1.37-3.21,1.94-4.58,3.1
			l-4.18,0.34c-1.04,0.08-7.55,0.19-9.03,0.1c-8.21-0.17-10.98-0.58-13.14-9.02c-0.86-2.87-0.24-2.92-1.71-5.54
			C178.2,341.5,177.48,335.25,177.36,333.79z M143.89,232.25c0.42-0.03,0.78-0.69,0.75-1.11c0,0-0.23-0.19-0.44-0.17l-0.42,0.03
			L143.89,232.25z"/>
		<path class="st1" d="M298.23,296.31c-2.62-3.78-8.13-12.16-8.13-12.16l-0.42,0.03c-0.16,0.64-0.1,4-0.04,4.63l0.03,0.42
			c0.32,3.97,1.58,9.12,2.06,12.45c0.12,1.46,0.69,11.08,0.98,12.11c0.37,4.59,1.16,9.15,1.94,13.51c0.2,2.51,1.19,4.32,1.38,6.61
			c0.53,6.48-10.85,6.14-15.24,6.49c-7.73,0.63-9.96,1.65-14.88-4.68c-0.71-0.99-1.46-2.4-1.57-3.87l-2.77-15.96l-0.14-1.67
			l-4.54-24.86c-0.68-13.61-3.47-27.25-4.56-40.62c-0.78-9.61-1.37-19.44-1.09-28.92c-0.05-0.63,0.33-6.33,0.28-6.96
			c-0.08-1.04-0.3-6.28-0.38-7.33c-0.02-0.21,0.14-0.85,0.35-0.87l-0.02-0.21c-0.07-0.83-0.52-1.22-0.57-1.85l-0.07-0.83l2.86-1.07
			l0.42-0.03c11.4-1.98,22.98-4.39,34.05-5.29c4.39-0.36,8.61-0.07,12.77-0.62l11.24,1.19c5.05,0.01,10.2,4.01,18.51,10.48
			l6.27,7.27c5.35,6.29,7.71,17.24,8.38,25.6l0.42,5.22c-0.67,2.16-0.72,4.05-1.6,6.23c-0.63,2.57-1.63,3.29-2.55,4.83
			c0,0-0.17,0.44-0.38,0.45c-1.38,1.16-1.03,2.82-1.75,4.35c-3.95,5.78-9.54,9.39-15.57,12.82l-0.19,0.23l0.23,0.19
			c2.34,2.96,4.93,6.33,7.3,9.71c0.73,1.2,3.43,6.03,3.95,7.25c3.22,6.05,7.09,12.25,11.11,17.81c1.62,1.76,3.65,3.49,5.05,5.27
			c0.95,1.39,1.52,3.24,2.69,4.62l2.02,1.52c1.32,0.73,5.6,9.43,5.77,11.51c0.1,1.25-11.46,3.87-11.87,3.91
			c-3.76,0.31-23.12-0.02-24.71-1.36c-0.21,0.02-0.54-1.43-0.55-1.64l-2.03-1.73c-4.36-4.48-6.49-7.46-10.08-12.85
			c-0.02-0.21-0.76-1.62-0.78-1.83c-0.49-0.8-2.18-3.61-2.2-3.82c-1.41-1.78-8.48-11.29-9.89-13.07
			C299.41,297.9,298.92,297.09,298.23,296.31z M296.09,249.18c1.04-0.08,1.41,1.78,1.82,1.75c0.42-0.03,1.43-0.54,1.6-0.97
			c-0.43-0.17-1.3-0.52-1.34-0.94l-0.02-0.21c0.4-0.24,2.05-0.59,2.47-0.62l0.21-0.02c0,0,0.23,0.19,0.24,0.4
			c-0.21,0.02-0.58,0.68-0.77,0.9l1.04-0.08c0.42-0.03,2.07-0.38,2-1.21l-0.02-0.21c-0.02-0.21-0.45-0.38-0.45-0.38
			s0.19-0.23,0.4-0.24c0.42-0.03,0.71,0.99,1.55,0.93l-0.08-1.04c4.59-0.37,13.2-3.17,12.69-9.44c-0.42-5.22-6.99-10.99-12.21-10.57
			l-5.85,0.47c-0.21,0.02-1.5-0.3-1.7-0.28c-0.21,0.02-1.85,0.57-2.05,0.59c0,0-1.08-0.33-1.29-0.32l-0.42,0.03
			c-0.21,0.02-2.05,0.59-2.47,0.62l-0.42,0.03c-0.02-0.21-0.29-1.03-0.52-1.22l-0.21,0.02c0,0-0.17,0.43-0.38,0.45
			s-2.05,0.59-2.47,0.62c-1.86,0.36-5.9-0.15-7.26,1.22l0.25,3.13l2.24,9.49c0.02,0.21,0.95,9.17,1.82,9.52
			c0.4-0.24,2.68-0.64,3.1-0.67l0.21-0.02C290.69,252.57,293.41,249.82,296.09,249.18z M287.35,265.87
			c0.38-0.45,0.78-0.69,0.75-1.11c0,0-1.25,0.1-1.22,0.52C286.88,265.28,287.13,265.68,287.35,265.87z M289.81,265.04
			c0.63-0.05,0.8-0.49,0.96-1.13C290.14,263.96,289.76,264.41,289.81,265.04z M291.77,227.04c0.23,0.19,0.85,0.14,0.83-0.07
			C292.8,226.75,291.75,226.83,291.77,227.04z M293.33,251.51l0.42-0.03c0.21-0.02,0.82-0.28,0.82-0.28
			c-0.23-0.19-1.08-0.33-1.29-0.32L293.33,251.51z M300.94,215.79c-0.05-0.63-1.74-0.7-2.38-0.86l-4.8,0.39l0.03,0.42
			c0,0,1.27,0.11,2.11,0.04c0.21-0.02,1.03-0.29,1.24-0.31C297.97,215.4,299.69,215.89,300.94,215.79z M296.66,251.03l0.17-0.44
			l-0.63,0.05L296.66,251.03z M298.45,226.5l-0.03-0.42l-0.84,0.07C297.82,226.55,298.03,226.53,298.45,226.5z M299.29,226.43
			l0.21-0.02c0.21-0.02,1.03-0.29,1.64-0.55l-0.63,0.05C300.3,225.93,299.23,225.81,299.29,226.43z M304.77,216.32l-0.03-0.42
			c-0.02-0.21-1.08-0.33-1.5-0.3l-0.21,0.02c-0.21,0.02-0.4,0.24-0.38,0.45C303.29,216.23,303.94,216.39,304.77,216.32z
			 M310.49,245.28c-0.21,0.02-0.26-0.61-0.05-0.63C310.85,244.62,310.9,245.25,310.49,245.28z M322.79,228.52l0.21-0.02
			c-0.14-1.67-1.07-2.86-2.2-3.82l0.03,0.42L322.79,228.52z M321.47,212.23c0.21-0.02,0.17-0.43-0.03-0.42
			C321.22,211.83,321.26,212.25,321.47,212.23z M323.08,213.99c0.42-0.03,0.37-0.66-0.05-0.63
			C322.61,213.4,322.66,214.03,323.08,213.99z M323.09,232.28c0.19-0.22,0.16-0.64-0.05-0.63
			C322.82,231.46,322.88,232.3,323.09,232.28z M325,237.59c0.21-0.02,0.17-0.43-0.03-0.42C324.75,237.19,324.79,237.61,325,237.59z
			 M332.55,252.95c0.21-0.02,0.16-0.64-0.07-0.83C332.27,252.14,332.36,253.18,332.55,252.95z M333.36,249.95l0.83-0.07l-0.05-0.63
			C333.72,249.29,333.32,249.53,333.36,249.95z"/>
		<path class="st1" d="M365.03,305.68c-4-10.4-6.17-21.57-7.08-32.85c-0.56-6.89-0.12-14.49,0.34-21.68
			c0.11-3.79,1.51-7.27,2.7-10.73c0.97-3.65,0.72-4.05,1.27-7.67c-0.02-0.21,0.35-0.87,0.35-0.87c0.37-0.66,3.69-6.39,4.26-7.07
			l2.29-5.44c4.44-7.51,10.75-12.64,17.02-18.2c3.06-1.09,5.19-3.36,7.82-4.63l1.04-0.08c4.3-1.4,7.97-2.75,12.57-3.12
			c6.68-0.54,13.34,1.23,19.53,2.41c1.98,1.1,2.57,0.63,4.94,1.28c3.86,0.95,7.6,2.96,10.92,5c0,0,0.66,0.37,0.87,0.35
			c12.5,6.34,18.46,17.63,23.23,29.86l3.39,8.13c1.59,4.08,2.03,9.51,2.4,14.1l0.29,3.55c-0.21,0.02-0.77,0.9-0.75,1.11
			s0.89,0.56,0.9,0.77l0.03,0.42l-0.38,0.45l0.12,1.46c0.08,1.04,0.54,1.43,0.62,2.47c0.25,3.13-0.29,6.75-0.02,10.09
			c0.03,0.42,0.67,3.1,0.71,3.51l0.12,1.46c-0.83,5.32-0.84,10.37-1.65,15.9c-0.56,8.66-5.62,16.22-9.64,23.69
			c-0.21,0.02-0.68,1.95-1.05,2.61c-1.19,3.46-8.39,8.04-12.04,9.59c-0.59,0.47-7.31,3.12-8.12,3.6c0,0-0.61,0.26-0.82,0.28
			c-1.01,0.5-6.56,2-7.8,2.32c-0.21,0.02-2.47,0.62-3.1,0.67l-0.42,0.03c-1.88,0.15-6.3,0.09-6.3,0.09
			c-3.99,0.11-9.27-0.3-13.52-0.79l-0.66-0.37C387.78,334.74,375.17,324.41,365.03,305.68z M391.82,314.65l-0.03-0.42
			c0,0-2.79-3.35-3.96-4.72c-0.24-0.4-0.47-0.59-1.1-0.54C386.89,310.84,390.47,313.5,391.82,314.65z M387.8,221.01l0.4-0.24
			l-0.84,0.07L387.8,221.01z M387.41,255.09l0.42-0.03l-0.02-0.21l-0.42,0.03L387.41,255.09z M387.68,253.18l0.42-0.03l0.07-1.69
			l-0.63,0.05L387.68,253.18z M388.47,247.44c0.03,0.42,0.24,0.4,0.42-0.03C388.87,247.2,388.25,247.25,388.47,247.44z
			 M389.38,261.24c1.04-0.08,0.94-1.34,0.89-1.96C389.44,259.35,389.31,260.41,389.38,261.24z M389.69,262.48l0.42-0.03l-0.02-0.21
			l-0.42,0.03L389.69,262.48z M389.81,256.16l0.42-0.03l-0.02-0.21l-0.42,0.03L389.81,256.16z M390.37,278.61l0.63-0.05l-0.03-0.42
			l-0.63,0.05L390.37,278.61z M395.69,318.33l0.42-0.03l-2.97-2.91c-0.02-0.21-0.45-0.38-0.45-0.38l-0.42,0.03
			C392.53,315.64,394.65,318.41,395.69,318.33z M393.04,275.24c0.4-0.24,0.59-0.47,0.56-0.89c-0.42,0.03-0.84,0.07-1.01,0.5
			L393.04,275.24z M418.4,310.6c1.93,0.47,4.02,0.31,5.9,0.15c5.85-0.47,8.49-6.79,13.04-10.31c0.16-0.64,1.35-4.1,1.49-4.96
			c-0.02-0.21,0.73-1.32,0.72-1.53l0.38-0.45c0,0,0.66,0.37,0.87,0.35c1.67-0.14,2.32-20.58,2.07-23.71
			c-0.54-6.68-1.99-14.13-2.96-20.99c-0.51-3.74-4.47-10.99-6.17-13.79c-0.71-0.99-5.53-8.59-6.03-9.6
			c-1.42-1.99-4.27-5.96-7.4-5.71l0.08,1.04c-1.69-0.07-1.2-1.79-4.12-1.56l-0.84,0.07c0.26,0.61,1.74,0.7,2.16,0.67l0.03,0.42
			c-2.09,0.17-2.43-1.49-4.1-1.35l-0.21,0.02l0.69,0.79l0.03,0.42c-5.57,1.29-5.87,2.79-10.5,5.27c-0.23-0.19-0.45-0.38-0.47-0.59
			c-0.11,3.79-6.08,5.33-7.07,8.77c-0.6,2.99-1.55,6.85-1.94,9.83c0.05,0.63-0.25,4.64-0.38,5.71c-0.11,1.27,0,7.78,0.12,9.24
			c-0.56,0.89-0.58,3.2-0.51,4.03l0.47,0.59c0.02,0.21-0.38,0.45-0.38,0.45c0.07,0.84,0.08,3.57,0.15,4.4
			c0.25,3.13,1.54,5.97,1.79,9.1l0.03,0.42c-0.47-0.59-1.13-0.96-1.75-0.91c0.08,1.04,0.52,1.22,0.59,2.05l0.05,0.63l-0.35,0.87
			l0.9,0.77l0.03,0.42c0.08,1.04-0.28,1.7-0.2,2.75c0.15,1.88,1.79,6.58,2.52,7.78c0,0,0.21-0.02,0.23,0.19l-0.19,0.23l-0.37,0.66
			l0.03,0.42c0.17,2.09,3.25,3.73,3.43,6.03l0.02,0.21l-0.38,0.45c0.59-0.47,1.27,0.11,1.32,0.73c0.69,0.78,4.06,3.45,4.74,4.03
			c0.9,0.77,2.16,0.67,2.87,1.66L418.4,310.6z M397.42,230.74c0.63-0.05,3.91-3.68,4.46-4.57l-0.21,0.02
			C400.42,226.29,397.3,229.28,397.42,230.74z M404.48,224.49l0.98-0.92l-0.42,0.03c-0.21,0.02-0.8,0.49-0.8,0.49L404.48,224.49z
			 M418.82,310.56c-0.42,0.03-0.49-0.8-0.07-0.83C418.96,309.71,419.03,310.55,418.82,310.56z M440.28,292.64
			c-0.42,0.03-0.45-0.38-0.02-0.21C440.47,292.41,440.49,292.62,440.28,292.64z M448.84,315.27c0.21-0.02,0.45,0.38,0.66,0.37
			l0.21-0.02c1.04-0.08,1.88-2.68,1.82-3.51c-0.83,0.07-2.74,2.53-2.7,2.95L448.84,315.27z M451.86,311.04
			c0.02,0.21,0.23,0.19,0.21-0.02C452.26,310.79,451.84,310.83,451.86,311.04z M452.94,308.85l0.21-0.02l-0.03-0.42l-0.21,0.02
			L452.94,308.85z"/>
		<path class="st1" d="M527.94,312.49c-0.21,0.02-1.27-0.11-1.48-0.09l-7.24-1.1c-1.5-0.3-2.42-1.27-3.74-2.01
			c-12.98-7.15-20.08-16.87-27.41-29.52c-0.81-2.25-2.22-4.02-2.82-6.29c-3.48-9.18-4.71-19.17-5.51-28.98
			c-0.85-10.44-0.42-20.78,0.61-31.37c-0.03-2.94-0.26-5.86,0.33-8.86c2.29-10.7,5.67-20.85,13.43-28.84c0.98-0.92,4.54-1,6.53-2.42
			c0.4-0.24,2.58-1.89,2.58-1.89l9.93-4.59l5.22-0.42c13.99-1.14,27.61,0.91,37.65,10.61c3.03-1.51,7.26,6.56,7.22,8.66l2.49,4.84
			l0.12,1.46c0.15,1.88,0.05,3.15-0.41,5.29c-0.8,0.49-3.27,8.88-2.74,10.31c-0.42,0.03-1.08-0.33-1.29-0.32
			c-0.22-0.19-0.66-0.37-0.87-0.35c-1.46,0.12-1.99,1.42-2.75,2.33l-0.42,0.03c0,0-0.24-0.4-0.26-0.61l-0.21,0.02
			c-1.67,0.14-3.85,1.78-6.15,1.97c-12.74,1.03-17.67-2.77-21.42-15.29c-1.47-5.14-0.25-5.66-6.51-5.15
			c-1.88,0.15-7.1,0.58-6.85,3.71c-0.21,0.02-0.43-0.17-0.43-0.17c-0.21,0.02-0.68-0.58-0.7-0.79c-2,1.21-4,15.46-3.86,17.13
			c0.13,4.19,1.54,13.75,0.12,17.02c0.58,4.58,0.23,7.97,0.58,12.35c0.2,2.51,1.03,4.96,1.24,7.47c0.02,0.21,0.1,1.25-0.52,1.3
			l0.58,7.1c0.08,1.04,0.74,3.93,0.76,4.14l0.45,0.38c0.99-0.71,0.58-3.2,0.53-3.83c-0.15-1.88-0.72-3.73-0.88-5.6
			c-0.08-1.04,0.01-2.52,1-3.23l0.12,1.46c0.08,1.04-0.51,1.51-0.44,2.35c0.12,1.46,1.06,2.65,1.16,3.9l0.02,0.21
			c0.02,0.21-0.56,0.89-0.75,1.11l0.68,0.58l0.07,0.84c0.07,0.83-0.62,2.78-1.42,3.27c0.03,0.42-0.01,2.52,0.05,3.15
			c0.12,1.46,1.71,8.06,3.24,8.78l-0.1-1.25c-0.1-1.25-0.59-2.05-0.69-3.31c-0.05-0.63-0.1-1.25,0.72-1.53
			c0.02,0.21,0.23,0.19,0.24,0.4l0.23,0.19c1.42,1.99,3.8,5.37,3.97,7.46c0.05,0.63-0.32,1.29-0.27,1.91
			c0.14,1.67,5.8,6.68,7.68,6.52c1.67-0.14,9.87-15.73,12.13-18.85c1.71-2.24,6.4-6.62,9.12-6.84c0.03,0.42,0.05,0.63-0.35,0.87
			l0.42-0.03c0.63-0.05,1.99-1.42,2.8-1.7c1.99-1.42,4.51-1.42,6.81-1.6c1.88-0.15,2.57,0.63,4.26,0.71l2.09-0.17
			c0.85,0.14,2.76,2.93,3.04,3.75c0.28,0.82,3.11,2.06,3.8,2.84c1.41,1.78,2.65,4.2,4.06,5.98c0.23,0.19,0.69,0.78,0.71,0.99
			s-0.49,1.72-0.47,1.93c0.03,0.42,0.46,3.12,0.29,3.55c0.1,1.25-1.5,2.22-1.61,3.49c-0.51,1.51-1.71,10.02-3.17,10.14
			c-0.42,0.03-0.45-0.38-1.5-0.3c-1.88,0.15-2.03,3.53-2.76,4.85l-2.81,4.22c-4.19,5.39-5.47,5.07-12.13,8.55
			c-0.21,0.02-1.19,0.94-1.39,0.95c-0.21,0.02-0.98,0.92-1.18,0.94c-0.21,0.02-0.89-0.56-0.89-0.56c-0.63,0.05-4.88,2.08-5.47,2.55
			c-0.78,0.7,0.1,1.25-1.36,1.37c-0.63,0.05-1.04,0.08-1.32-0.73c-1.03,0.29-5.4,0.86-6.44,0.94l-0.84,0.07l0.03,0.42l5.64-0.46
			l0.03,0.42l-6.86,0.98c0,0-0.92-0.98-1.15-1.17c-0.42,0.03-1.5-0.3-1.7-0.28c-0.63,0.05-3.53,0.5-4.16,0.55
			C527.04,311.72,527.88,311.66,527.94,312.49z M501.71,245.67l-0.19-2.3c-0.21,0.02-0.17,0.44-0.16,0.64
			C501.38,244.23,501.48,245.48,501.71,245.67z M522.16,292.99c1.39,1.57,3.68,1.38,5.98,1.2c2.09-0.17,5.26-0.01,7.24-1.43
			c-1.69-0.07-3.41-0.56-4.89-0.65c-2.59-0.84-6.98-0.48-7.67-1.27l-0.56,0.89c-1.77-1.12-3.44-3.51-5.05-5.27
			c0.54-1.09-2.05-1.93-1.52-3.24c-1.84-4.48-5.01-9.89-6.01-14.44c-0.9-3.29-1.34-8.72-1.61-12.06l-0.63,0.05
			c-0.63,0.05-0.33,1.08-0.75,1.11c-0.21,0.02-0.23-0.19-0.43-0.17c-0.79-4.56-1.84-9.73-3.47-14.22l0.08,1.04
			c0.46,5.64,2.76,10.71,3.18,15.93l0.05,0.63c-0.45-0.38-0.78-1.83-0.8-2.04c-0.57-1.85-2.48-9.89-3.04-11.53l-0.47-0.59
			l-0.19,0.23l0.02,0.21c0.36,4.39,0.99,9.59,2.6,13.87c-0.4,0.24-0.37,0.66-0.32,1.29c0.24,2.92,4.45,16.03,7.08,17.29l-0.05-0.63
			c0,0,0.19-0.23,0.4-0.24c0.02,0.21,0.49,0.8,0.49,0.8c0.02,0.21-0.38,0.45-0.38,0.45l-0.19,0.23c0.07,0.84,1.53,0.72,0.99,1.81
			l2.55,2.95c0.02,0.21,0.26,0.61,0.28,0.82C516.2,286.96,521.01,291.82,522.16,292.99z M505.51,248.52l-0.08-1.04
			c-0.19,0.23-0.38,0.45-0.37,0.66C505.08,248.34,505.51,248.52,505.51,248.52z M505.63,249.98c0.42-0.03,0.4-0.24-0.02-0.21
			C505.41,249.79,505.44,250.2,505.63,249.98z M506.7,255.36l-0.15-1.88c-0.05-0.63-0.17-2.09-0.83-2.46l0.1,1.25
			C505.9,253.32,505.95,253.95,506.7,255.36z M509.22,304.55l0.21-0.02c-0.03-0.42-0.5-1.01-1.13-0.96
			C508.35,304.2,508.59,304.6,509.22,304.55z M514.19,275.14l1.81,1.53l-0.15-1.88c0.42-0.03,1.5,0.3,1.41-0.74
			c-0.12-1.46-1.73-3.22-2.25-4.44c-1.64-4.7-2.47-9.68-3.69-14.41c-0.03-0.42-0.48-3.32-0.53-3.95l-0.66-0.37
			c0.04-2.11-0.16-4.61-0.96-6.65l-0.02-0.21c0,0-0.21,0.02-0.19,0.23c-0.77,0.9-0.39,2.97-0.32,3.81
			c0.51,6.26,2.29,12.64,2.79,18.9l-0.42,0.03C511.23,269.7,511.97,273.64,514.19,275.14z M513.39,205.63
			c-0.42,0.03-0.47-0.59-0.05-0.63C513.75,204.97,513.8,205.59,513.39,205.63z M514.93,279.07c0.42-0.03,0.37-0.66-0.05-0.63
			C514.46,278.48,514.51,279.11,514.93,279.07z M517.74,282.63l-0.05-0.63c-0.1-1.25-1.23-2.21-2.34-2.96l0.07,0.83
			C515.5,280.92,516.09,282.97,517.74,282.63z M515.98,260.91c-0.63,0.05-0.68-0.58-0.05-0.63
			C516.14,260.27,516.19,260.89,515.98,260.91z M516.4,266.13c-0.63,0.05-0.69-0.79-0.07-0.84
			C516.54,265.28,516.61,266.11,516.4,266.13z M516.38,286.52c-0.42,0.03-0.47-0.59-0.05-0.63
			C516.74,285.86,516.79,286.49,516.38,286.52z M516.53,262.55c0.02,0.21-0.07,1.69-0.04,2.11l-0.18,0.43l-0.2-2.51L516.53,262.55z
			 M516.45,274.54c-0.21,0.02-0.26-0.61-0.05-0.63C517.03,273.86,517.08,274.48,516.45,274.54z M517.03,289.41
			c0.21-0.02,0.17-0.43-0.03-0.42C516.56,288.82,516.63,289.66,517.03,289.41z M523.21,290.38c-0.08-1.04-1.55-0.93-2.38-0.86
			C520.93,290.78,522.37,290.45,523.21,290.38z M522.92,292.09l0.7,0.79l-0.21,0.02c-0.21,0.02-0.43-0.17-0.43-0.17
			s-0.23-0.19-0.24-0.4L522.92,292.09z M529.34,277.9c-0.4,0.24-0.45-0.38-0.03-0.42C529.52,277.47,529.55,277.89,529.34,277.9z
			 M530.01,312.11c-0.43-0.18,2.91-0.45,2.51-0.2C532.12,312.15,530.45,312.29,530.01,312.11z M533.85,310.12
			c2.3-0.19,4.59-0.37,6.46-0.73c-0.71-0.99-0.94-1.19-1.77-1.12c-1.46,0.12-3.71,0.93-5.59,1.08l-0.16,0.64
			C532.82,310.42,533.85,310.12,533.85,310.12z M535.25,291.09c0.03,0.42,0.45,0.38,0.42-0.03
			C535.65,290.85,535.23,290.88,535.25,291.09z M539.03,293.72l0.42-0.03c0.42-0.03,0.82-0.28,0.78-0.69l-0.02-0.21
			C539.82,293.03,539.42,293.27,539.03,293.72z M540.75,281.18l0.02,0.21c0.82-0.28,1.15-1.36,1.1-1.98
			C541.27,279.88,540.68,280.35,540.75,281.18z M540.95,169.75c0.63-0.05,0.56-0.89-0.07-0.83
			C540.68,168.94,540.75,169.77,540.95,169.75z M540.83,266.67l0.02,0.21c0.21-0.02,0.19-0.23,0.4-0.24
			c1.17-1.15,2.32-2.5,2.43-3.77C542.42,262.97,540.71,265.21,540.83,266.67z M541.49,292.9l0.02,0.21
			c0.42-0.03,1.24-0.31,1.19-0.94C542.27,292.2,541.44,292.27,541.49,292.9z M544.15,310.13c0.21-0.02,0.14-0.85-0.07-0.84
			C543.45,309.34,543.52,310.18,544.15,310.13z M545.53,290.88c0.63-0.05,0.99-0.71,1.38-1.16l-0.63,0.05
			C545.86,289.81,545.48,290.26,545.53,290.88z M547.23,260.06l0.84-0.07l-0.05-0.63C547.6,259.4,547.2,259.64,547.23,260.06z
			 M556.13,206.57l0.42-0.03l-0.03-0.42L556.13,206.57z"/>
		<path d="M672.1,265.18c-0.05-0.84-0.08-1.46-0.13-2.3c-0.24-4.18-0.05-8.39-0.31-12.99c-0.38-6.69-1.19-13.57-1.58-20.48
			c-1.01-17.78-0.34-35.66-1.35-53.65l-0.35-6.28c-0.17-2.93-0.67-8.15,0.41-11.36c0.37-0.86,6.98-2.7,8.21-3.19
			c0.21-0.01,2.46-0.98,2.67-0.99l3.56-0.2c6.49-0.37,15.82,1.41,17.51,9.08l0.32,5.65c0.5,8.79,1.01,17.78,1.1,26.8
			c0,3.78-0.62,7.59-0.41,11.35l0.01,0.21c0.01,0.21,0.26,0.82,0.26,0.82l0.45,7.95c0,0-0.62,0.25-0.81,0.47l0.02,0.42
			c0.22,0.2,0.54,2.07,0.76,2.27c0.04,0.63,0.45,4.17,0.48,4.8c-1.17,1.53,0.5,12.56-1.81,16.26c-0.65-0.38-0.91-1.21-0.93-1.63
			c-0.21,0.01-0.4,0.44-0.4,0.44c0.01,0.21-0.09,2.1-0.25,2.95l0.01,0.21c0.28,1.24,0.63,3.74,0.63,3.74l0.43,0.19
			c-0.62,0.24-0.52,1.92-0.72,2.14l0.01,0.21c0.08,1.46,1.44,3.28,1.53,4.74c0.04,0.63-0.83,0.26-0.79,0.88l0.02,0.42
			c0.08,1.46,0.69,4.79,0.69,4.79l0.86,0.37l-0.38,0.65l0.14,2.51c0.21-0.01,0.44,0.39,0.44,0.39c0.02,0.42-0.11,1.69-0.09,2.1
			c2.51-0.14,4.98-0.91,7.27-1.25c5.83-0.75,9.6-0.96,14.62-1.25c2.3-0.13,5.06,0.34,7.34,0c9.21,3.26,12.83,11.66,13.36,21.07
			c0.04,0.63,0.43,3.96-0.14,5.04c-1.71,3.25-7.36,7.13-10.71,7.32l-1.05,0.06c-0.42,0.02-5.24,0.09-5.87,0.12
			c-6.49,0.37-10.89,4.18-17.58,4.56c-4.39,0.25-27.44-2.86-30.07-4.81c-0.21,0.01-0.88-0.79-1.11-0.99c-0.26-0.82-3-4.87-3.27-5.9
			C673.03,281.71,672.54,272.92,672.1,265.18z M678.15,168.09c0.42-0.02,0.37-0.86-0.05-0.84
			C677.69,167.28,677.74,168.12,678.15,168.09z M675.18,286.2c0.2-0.22,0.16-0.85-0.05-0.84
			C674.91,285.17,674.97,286.21,675.18,286.2z M679.75,259.5c0.21-0.01,0.15-1.06-0.06-1.05
			C679.28,258.48,679.34,259.52,679.75,259.5z M683.67,235.98c0.18-0.43,0.07-2.52-0.15-2.72
			C683.27,232.65,683.49,236.41,683.67,235.98z M684.19,241.41l0.63-0.04c-0.06-1.05-0.35-2.5-0.83-3.52
			c0.01,0.21-0.13,1.48-0.11,1.68l0.02,0.42C683.92,240.38,684.19,241.41,684.19,241.41z M685.72,249.93l0.42-0.02
			c-0.13-2.3-0.93-5.4-1.46-7.26l-0.4,0.44L685.72,249.93z M685.31,253.94l-0.02-0.42l-0.42,0.02L685.31,253.94z M687.29,277.75
			c0.21-0.01,0.2-0.22-0.01-0.21C686.85,277.36,686.87,277.77,687.29,277.75z M686.8,291.42c0.21-0.01,0.19-0.43-0.02-0.42
			C686.57,291.01,686.61,291.64,686.8,291.42z M687.78,278.98l-0.05-0.84C687.51,277.95,687.57,278.99,687.78,278.98z
			 M694.28,289.95l0.42-0.02l-0.04-0.63L694.28,289.95z M696.18,290.26c0.42-0.02,0.36-1.07-0.06-1.05
			C695.91,289.22,695.97,290.27,696.18,290.26z M700.93,244.24c-0.21,0.01-0.23-0.41-0.02-0.42
			C701.11,243.81,701.14,244.23,700.93,244.24z M701.13,247.8c-0.2,0.22-0.26-0.83-0.05-0.84
			C701.29,246.95,701.32,247.58,701.13,247.8z M702.38,240.17c-0.42,0.02-0.48-1.02-0.06-1.05
			C702.52,239.11,702.58,240.16,702.38,240.17z M702.84,244.76c0.05,0.84-0.32,1.7-0.93,2.15l0.68-2.77
			C702.81,244.14,702.83,244.55,702.84,244.76z M702.14,258.23c-0.21,0.01-0.24-0.62-0.04-0.63
			C702.32,257.8,702.33,258.01,702.14,258.23z M703.17,250.62l-0.19-3.35C703.43,247.67,703.56,249.97,703.17,250.62z
			 M703.96,257.08l0.34,6.07c0.01,0.21-0.39,0.44-0.6,0.45l-0.42,0.02c-0.21,0.01-0.43-0.19-0.44-0.39
			C704.49,262.72,702.29,257.18,703.96,257.08z M703.72,252.9l0.22,0.2l-0.2,0.22c0,0-0.2,0.22-0.41,0.23l-0.06-1.05
			C703.49,252.49,703.71,252.69,703.72,252.9z M703.43,255.22l-0.02-0.42C703.83,254.78,703.85,255.2,703.43,255.22z M707.05,259.85
			c-0.21,0.01-0.23-0.41-0.01-0.21C707.25,259.62,707.26,259.83,707.05,259.85z M724.52,282.99c0.21-0.01,1.9,0.1,2.31,0.08
			l-0.04-0.63l-2.93,0.17C723.87,282.61,724.31,283,724.52,282.99z"/>
		<path d="M833.05,257.55c-1.25,0.07-2.26,0.76-3.51,1.04c-5.82,0.96-11.67,1.5-17.53,1.83c-1.46,0.08-7.33,0.2-8.59,0.28
			c-0.42,0.02-2.1-0.09-2.52-0.07l-0.42,0.02l-1.45,0.29c-1.03,0.27-6.04,0.76-7.3,0.83c-1.18,1.33-6.41,16.52-6.72,18.43
			c-0.02,3.36,1.3,8.11-1.92,10.6c-1.41,1.13-3.52,0.83-4.93,1.96l-2.93,0.17c-3.14,0.18-6.31-0.27-9.24-0.11
			c-1.46,0.08-2.87,1.21-4.12,1.28c-3.35,0.19-8.03-1.01-8.26-4.99c-0.44-7.74,5.05-18.33,7.34-26.02c3.52-11.95,6-23.84,9.3-35.99
			c0.16-0.85,0.53-1.71,0.48-2.55l10.7-37.12c0.3-2.12,0.56-1.29,1.08-3.21c2.69-8.13,4.53-16.41,7.43-24.55
			c2.74-7.29,2.18-9.78,10.69-11.31c2.49-0.56,4.58-0.68,7.09-0.82c5.44-0.31,10.33,0.88,15.45,2.27c1.71,0.53,2.51,3.64,4.43,4.16
			c2.04,2.61,3.05,5.7,4.26,8.57l5.19,13.77c-0.34,1.49,1.41,2.65,1.49,4.11l-0.2,0.22l-0.58,0.87l0.02,0.42
			c0.49,1.23,2.74,7.61,3.45,9.04c0.01,0.21,0.23,0.41,0.24,0.62c0.54,2.07,0.89,4.57,2.04,6.39c6.3,11.19,9.51,23.39,13.96,35.31
			c1.02,3.09,3.31,6.53,4.52,9.4c2.89,6.55,5.36,13.13,8.03,19.48c0.53,1.86,2.12,4.08,2.23,5.96c0.02,0.42,0.28,1.24-0.32,1.7
			c1.29,0.56,3.73,6.5,3.81,7.97l0.01,0.21c-0.2,0.22-0.52,1.92-0.51,2.13c0.22,0.2,1.33,1.18,1.76,1.37
			c-1.39,1.34-1.17,1.53-2.77,2.89l-0.2,0.22c0.05,0.84,1.73,0.95,2.15,0.93l-4.74,1.53l-0.79,0.88c-0.21,0.01-2.9,0.58-4.15,0.86
			l-0.21,0.01c-2.93,0.17-6.09-0.08-8.81,0.08c-1.25,0.07-2.06,0.75-3.1,0.81c-2.09,0.12-5.66,0.11-7.42-1.26
			c-7.66-5.65-10.07-22.3-13.5-30.92L833.05,257.55z M800.9,175.21c0.42-0.02,0.37-0.86-0.05-0.84
			C800.44,174.4,800.48,175.24,800.9,175.21z M800.47,230.64c7.74-0.44,15.03-1.48,22.77-1.92c0.42-0.02,0.39-0.44,0.38-0.65
			c-0.09-1.67-1.67-3.47-1.97-5.14l-4.55-10.02l-6.41-20.62c-1.81,1.36-3.32,11.73-3.99,14.71c-0.15,1.06-2.84,9.18-2.99,10.24
			l-0.34,1.49c-0.53,1.71-2.61,9.59-2.93,11.29L800.47,230.64z M836.66,213.69c0.22,0.2,0.43,0.19,0.63-0.04
			C837.26,213.24,836.63,213.28,836.66,213.69z M862.42,279.6l-0.02-0.42l-0.42,0.02L862.42,279.6z"/>
		<path class="st1" d="M16.46,532.44c-0.15-1.88,0.53-3.83,0.38-5.7l-0.14-1.67c-0.42-5.22-1.95-16.24-2.85-19.53l-0.56,0.89
			l-1.14-13.99l-0.45-0.38c-0.55-4.16-1.93-8.25-2.7-12.6c-1.77-16.67-3.11-33.17-5.3-49.81c-0.56-4.37-0.95-9.17-1.73-13.52
			c-0.55-1.64-0.58-7.1-0.69-8.56c-0.1-1.25,0.96-1.13,1.29-2.21c27.55-4.97,55.41-6.18,78.08,11.53
			c17.96,14.1,27.56,33.92,29.39,56.47c0.37,4.59,0.96,14.43-0.32,19.37c-0.33,1.08-2.77,9.9-2.9,10.96
			c-1.46,5.37-0.91,9.53-3.91,13.98l0.69,0.78c-16.62,23.21-26.2,24.2-70.47,30.52c-1.25,0.1-3.78,0.1-4.5-1.11
			C20.36,546.84,17.07,539.96,16.46,532.44z M14.68,526.07c-0.19,0.23-0.33-1.45-0.1-1.25C15.02,524.99,15.08,525.83,14.68,526.07z
			 M15.53,528.73c-0.42,0.03-0.49-0.8-0.07-0.83C15.69,528.09,15.74,528.72,15.53,528.73z M17.83,533.8
			c0.19-0.22,0.11-1.27-0.14-1.67C17.26,531.96,17.45,534.25,17.83,533.8z M24.3,504.69c0.42-0.03,0.37-0.66-0.05-0.63
			C23.83,504.1,23.88,504.72,24.3,504.69z M44.12,497.62c0.24,0.4,0.39,4.8,0.44,5.43c0.33,1.45,3.02,11.32,3.89,11.67l0.21-0.02
			c22.82,1.51,30.1-7.28,27.83-35.26c-2.42-29.86-11.09-51.23-41.88-49.79l-1.04,0.08L44.12,497.62z"/>
		<path class="st1" d="M136.98,520.23c-5.59-9.63-9.49-20.33-12.18-31.32c-1.64-6.72-2.41-14.29-3.08-21.46
			c-0.49-3.76,0.35-7.42,0.98-11.02c0.38-3.76,0.07-4.12,0.04-7.78c-0.05-0.2,0.21-0.91,0.21-0.91c0.26-0.71,2.63-6.9,3.09-7.66
			l1.4-5.74c3.2-8.11,8.62-14.18,13.94-20.66c2.85-1.56,4.6-4.14,6.99-5.81l1.02-0.25c4.03-2.06,7.44-3.97,11.92-5.07
			c6.51-1.59,13.37-0.89,19.67-0.7c2.13,0.77,2.64,0.22,5.08,0.48c3.96,0.33,7.97,1.72,11.57,3.21c0,0,0.71,0.26,0.91,0.21
			c13.34,4.29,21.01,14.5,27.65,25.82l4.63,7.49c2.22,3.77,3.51,9.06,4.6,13.54l0.85,3.46c-0.2,0.05-0.62,1.01-0.57,1.22
			c0.05,0.2,0.96,0.41,1.01,0.62l0.1,0.41l-0.31,0.51l0.35,1.43c0.25,1.02,0.75,1.33,1,2.34c0.75,3.05,0.78,6.71,1.57,9.97
			c0.1,0.41,1.15,2.95,1.25,3.36l0.35,1.43c0.02,5.39,0.81,10.37,0.88,15.96c0.82,8.64-2.99,16.9-5.78,24.92
			c-0.2,0.05-0.37,2.03-0.62,2.74c-0.63,3.6-7.01,9.26-10.38,11.38c-0.51,0.56-6.73,4.23-7.45,4.84c0,0-0.56,0.35-0.76,0.4
			c-0.92,0.66-6.17,3.02-7.34,3.52c-0.2,0.05-2.34,1-2.95,1.15l-0.41,0.1c-1.83,0.45-6.21,1.08-6.21,1.08
			c-3.92,0.74-9.2,1.17-13.47,1.35l-0.71-0.26C164.03,545.33,149.95,537.13,136.98,520.23z M164.86,524.86l-0.1-0.41
			c0,0-3.29-2.86-4.65-4.04c-0.3-0.36-0.56-0.51-1.17-0.36C159.39,521.88,163.34,523.94,164.86,524.86z M146.1,433.03l0.36-0.3
			l-0.81,0.2L146.1,433.03z M151.1,466.75l0.41-0.1l-0.05-0.2l-0.41,0.1L151.1,466.75z M151.06,464.82l0.41-0.1l-0.2-1.68
			l-0.61,0.15L151.06,464.82z M150.94,459.03c0.1,0.41,0.3,0.36,0.41-0.1C151.3,458.72,150.69,458.87,150.94,459.03z M154.02,472.51
			c1.02-0.25,0.72-1.47,0.57-2.08C153.77,470.63,153.82,471.69,154.02,472.51z M154.52,473.68l0.41-0.1l-0.05-0.2l-0.41,0.1
			L154.52,473.68z M153.64,467.42l0.41-0.1l-0.05-0.2l-0.41,0.1L153.64,467.42z M157.73,489.5l0.61-0.15l-0.1-0.41l-0.61,0.15
			L157.73,489.5z M169.26,527.88l0.41-0.1l-3.39-2.41c-0.05-0.2-0.51-0.31-0.51-0.31l-0.41,0.1
			C165.72,525.73,168.24,528.13,169.26,527.88z M159.84,485.75c0.36-0.3,0.51-0.56,0.41-0.96c-0.41,0.1-0.81,0.2-0.92,0.66
			L159.84,485.75z M190.46,516.67c1.98,0.16,4.02-0.33,5.85-0.78c5.7-1.39,7.31-8.04,11.25-12.24c0.05-0.66,0.68-4.26,0.69-5.13
			c-0.05-0.2,0.52-1.42,0.47-1.62l0.31-0.51c0,0,0.71,0.26,0.91,0.21c1.63-0.4-0.95-20.69-1.7-23.74
			c-1.59-6.51-4.19-13.64-6.24-20.26c-1.1-3.61-6.14-10.15-8.26-12.65c-0.86-0.87-6.82-7.61-7.48-8.53
			c-1.72-1.74-5.15-5.21-8.21-4.47l0.25,1.02c-1.68,0.19-1.46-1.58-4.31-0.89l-0.81,0.2c0.35,0.56,1.83,0.42,2.23,0.32l0.1,0.41
			c-2.04,0.5-2.64-1.08-4.27-0.68l-0.2,0.05l0.81,0.66l0.1,0.41c-5.3,2.16-5.36,3.68-9.54,6.86c-0.25-0.16-0.51-0.31-0.56-0.51
			c0.49,3.76-5.17,6.22-5.59,9.78c-0.12,3.05-0.45,7.01-0.36,10.01c0.15,0.61,0.48,4.63,0.53,5.69c0.1,1.27,1.23,7.68,1.58,9.1
			c-0.41,0.96-0.07,3.25,0.13,4.07l0.56,0.51c0.05,0.2-0.31,0.51-0.31,0.51c0.2,0.81,0.64,3.51,0.84,4.32
			c0.75,3.05,2.46,5.65,3.2,8.71l0.1,0.41c-0.56-0.51-1.27-0.77-1.88-0.62c0.25,1.02,0.71,1.12,0.9,1.94l0.15,0.61l-0.21,0.91
			l1.01,0.62l0.1,0.41c0.25,1.02-0.01,1.73,0.24,2.75c0.45,1.83,2.81,6.21,3.72,7.29c0,0,0.2-0.05,0.25,0.15l-0.15,0.25l-0.26,0.71
			l0.1,0.41c0.5,2.04,3.79,3.17,4.34,5.41l0.05,0.2l-0.31,0.51c0.51-0.55,1.27-0.09,1.42,0.52c0.81,0.67,4.56,2.77,5.32,3.23
			c1.01,0.62,2.23,0.32,3.09,1.19L190.46,516.67z M157.14,441.12c0.61-0.15,3.28-4.25,3.69-5.21l-0.2,0.05
			C159.4,436.25,156.79,439.7,157.14,441.12z M163.12,433.84l0.82-1.06l-0.41,0.1c-0.2,0.05-0.72,0.61-0.72,0.61L163.12,433.84z
			 M190.87,516.57c-0.41,0.1-0.61-0.72-0.2-0.81C190.88,515.7,191.07,516.52,190.87,516.57z M209.23,495.48
			c-0.41,0.1-0.51-0.31-0.05-0.2C209.38,495.22,209.43,495.43,209.23,495.48z M221.26,516.48c0.2-0.05,0.51,0.31,0.71,0.26l0.2-0.05
			c1.02-0.25,1.44-2.94,1.24-3.75c-0.81,0.2-2.3,2.93-2.2,3.34L221.26,516.48z M223.57,511.82c0.05,0.2,0.25,0.15,0.2-0.05
			C223.93,511.52,223.52,511.61,223.57,511.82z M224.3,509.48l0.2-0.05l-0.1-0.41l-0.2,0.05L224.3,509.48z"/>
		<path class="st1" d="M250.47,455.69c-0.02-0.21,0.28-1.7,0.25-2.12l-0.05-0.63c-0.1-1.25-1.01-7.28-1.29-8.09l-0.4-10.06
			l-0.45-0.38c-0.19-15.33-2.89-30.46-3.31-45.98c-0.21,0.02-0.7-0.78-0.92-0.98l-0.03-0.42c0.19-0.23,0.59-0.47,0.8-0.49
			l-0.03-0.42l-0.26-0.61c-0.02-0.21,0.32-1.29,0.52-1.31c0.63-0.05,0.66,0.37,1.71,0.28c2.3-0.19,0.38-0.45,1.38-1.16
			c0.19-0.22,1.01-0.5,1.41-0.74c0.63-0.05,4.58-0.58,5.41-0.65c4.22-2.44,22.02,2,21.08,3.33c0.21-0.02,2.53,2.74,3.45,3.71
			l2.31,2.55c0,0,1.3,0.52,1.32,0.73c0.23,0.19,0.54,1.43,0.55,1.64c0,0,0.23,0.19,0.43,0.17c1.91,2.79,3.45,6.24,5.36,9.02
			l8.38,10.04c2.07,2.14,2.53,5.26,4.18,7.44c0.23,0.19,2.78,3.14,3.91,4.1c2.07,2.14,4.31,3.85,5.59,6.69l3.71,6.85
			c-0.73,1.32,6.02,9.39,6.97,10.79c2.13,2.98,3.62,5.8,5.57,9.01l-1.86-72.16l-0.46-5.64c-0.24-2.92,1.78-1.4,2.34-2.29
			c0.21-0.02,0.33-1.08,0.54-1.1c1.5-2.22,6.6-4.11,8.27-4.24l0.21-0.02c0.21-0.02,0.64,0.16,0.64,0.16l6.89-0.56
			c0.94,1.18,3.03,1.01,3.9,1.37c4.26,0.7,6.23,6.85,6.8,11.22c0.15,1.88-0.06,9.68-0.11,11.57c0.02,0.21-0.04,2.11-0.02,2.31
			c0.02,0.21,0.29,1.03,0.31,1.24l0.07,0.84c0.15,1.88-0.08,4.21,0.11,6.51l0.2,2.51c0.47,0.59,0.61,5,0.73,6.46l0.33,6.7
			c1.13,0.96,2.57,10.93,2.48,12.41l0.08,1.04c0.02,0.21-0.1,4-0.06,4.42l0.02,0.21c-0.04,2.11,0.71,3.52,0.86,5.4
			c0.03,0.42-0.02,2.31,0.01,2.73c-0.38,0.45-0.37,0.66-0.31,1.29c-0.02,2.31,0.84,5.19,1.44,7.45l4.99,40.8
			c0.17,2.09,1.09,3.06,1.28,5.36c0.18,4.82-1.77,6.66-5.83,8.46c-1.64,0.55-9.49,2.24-11.14,2.59l-8.98,0.73
			c-0.45-0.38-3.46-1.19-4.1-1.35c-1.72-0.49-2.99-3.12-4.34-4.27l-3.35-2.46l-11.7-12.08c-3.15-5.21-7.76-10.09-11.49-14.62
			c-2.12-2.77-5.18-4.2-7.31-7.18l-19.12-25.78c-1.56-1.13-2.2-3.82-3.75-4.74c-0.44,2.35-0.31,6.54,0.03,8.2
			c-0.19,0.22-0.18,0.43-0.16,0.64c0.02,0.21-0.3,1.49-0.26,1.91l0.38,7.33c-0.38,0.45-0.35,0.87-0.32,1.29
			c0.12,1.46,2.07,2.14,1.99,3.83c0.02,0.21,0.08,1.04-0.33,1.08c-0.03-0.42-0.78-1.83-1.41-1.78l-0.21,0.02
			c0.73,1.2,1.67,10.17,2.12,10.55c0.22,2.72,0.19,7.55,1.06,10.43c2.28-0.4,4.12,11.86,4.06,13.75l0.64,0.16l0.63,12.98
			c-0.19,0.23-0.56,0.89-0.54,1.1l0.1,1.25c0,0-0.61,0.26-0.8,0.49c-5.26,2.53-10.78,4.45-16.63,4.92
			c-10.86,0.88-11.78-7.87-12.3-16.87l-0.14-1.67c-0.02-0.21-0.5-1.01-0.52-1.22c-0.24-0.4-0.38-2.07-0.41-2.49l0.63-0.05
			l-0.32-6.49l-0.45-0.38l-0.63-12.98l-0.47-0.59c-0.23-5.45-1.07-10.63-1.51-16.06c-0.42,0.03-0.47-0.59-0.05-0.63l-0.07-0.84
			c-0.21,0.02-0.24-0.4-0.03-0.42L250.47,455.69z M247.13,383.44c-0.03-0.42,0.38-0.45,0.42-0.03
			C247.36,383.63,247.15,383.65,247.13,383.44z M248.51,436.72c-0.21,0.02-0.26-0.61-0.05-0.63
			C248.88,436.06,248.93,436.69,248.51,436.72z M253.56,493.7c-0.42,0.03-0.47-0.59-0.05-0.63
			C253.73,493.27,253.75,493.48,253.56,493.7z M253.71,495.58c-0.42,0.03-0.49-0.8-0.07-0.83
			C253.87,494.94,253.9,495.36,253.71,495.58z M254.34,500.79c0.19-0.23,0.16-0.64-0.07-0.83
			C253.84,499.78,253.93,500.82,254.34,500.79z M257.56,444.61c0.42-0.03,0.33-1.08-0.08-1.04
			C257.06,443.6,257.15,444.64,257.56,444.61z M258.05,414.3c0.42-0.03,0.35-0.87,0.33-1.08c-0.03-0.42-0.08-1.04-0.52-1.22
			L258.05,414.3z M258.81,423.7c0.4-0.24,0.28-1.7-0.17-2.09C258.41,421.41,258.63,424.13,258.81,423.7z M258.96,428.1l0.11-1.27
			l-0.17,0.44l-0.16,0.64L258.96,428.1z M260.94,450.01l0.17-0.43l-0.51-6.26c-0.21,0.02-0.61,0.26-0.78,0.69l-0.05-0.63
			c0.21-0.02,0.75-1.11,0.75-1.11l-0.31-3.76c-0.21,0.02-0.82,0.28-0.78,0.7l0.25,5.66l0.21-0.02l0.39,4.8L260.94,450.01z
			 M260.29,454.9l0.21-0.02c0.21-0.02,0.47-1.93,0.62-2.78l-0.08-1.04C259.78,451.15,260.19,453.64,260.29,454.9z M260.39,458.67
			l0.4-0.24l-0.26-0.61L260.39,458.67z M261.28,469.74c0.4-0.24,0.33-1.08-0.1-1.25C260.97,468.51,261.09,469.97,261.28,469.74z
			 M261.86,507.95c0.21-0.02,0.14-0.85-0.07-0.83C261.38,507.15,261.44,507.99,261.86,507.95z M264.22,441.12
			c0.42-0.03,0.37-0.66-0.05-0.63L264.22,441.12z M264.99,448c0.38-0.45,0.73-1.32,0.89-1.96l0.02,0.21
			c0.24,0.4,0.26,0.61,0.89,0.56c-0.19-2.3-1.14-11.47-1.92-13.3c0.02,0.21-0.16,0.64-0.14,0.85l-0.17,0.44l0.29,1.03l0.05,0.63
			l-0.12,1.06c0.02,0.21,0.29,1.03,0.31,1.24l-0.16,0.64c-0.18,0.43,0.06,3.36,0.08,3.57c-0.12,1.06-0.75,1.11-0.7,1.74
			C264.4,445.94,265.09,446.73,264.99,448z M265.12,459.97c0.76,1.62,1.78,6.37,3.33,7.3l-0.12-1.46l-0.24-0.4
			c-0.02-0.21,0.35-0.87,0.35-0.87l-0.03-0.42c-0.05-0.63-0.07-0.84-0.73-1.2c1.01-0.5-0.48-3.32,0.55-3.62l-0.01-2.73l-0.24-0.4
			l-0.02-0.21c-0.08-1.04,0.04-2.11-0.05-3.15l-0.14-1.67c-1.27-0.11-1.44-2.2-1.52-3.24l-0.7,1.74l0.08,1.04
			c0.24,2.92-1.59,3.7-0.71,6.78l-0.16,0.64L265.12,459.97z M265.36,444.82l-0.21,0.02l-0.03-0.42L265.36,444.82z M266.44,458.18
			l0.07,0.84c-0.43-0.18-0.45-0.38-0.49-0.8L266.44,458.18z M266.45,455.66c-0.19,0.23-0.29-1.03-0.07-0.83
			C266.59,454.81,266.66,455.64,266.45,455.66z M266.65,460.69c-0.42,0.03-0.49-0.8-0.07-0.84
			C266.79,459.83,266.85,460.67,266.65,460.69z M267.27,452.86c-0.21,0.02-0.29-1.03-0.08-1.04
			C267.6,451.78,267.69,452.83,267.27,452.86z M277.71,454.54l0.03,0.42c0,0-0.49-0.8-0.5-1.01l-0.03-0.42
			C277.62,453.49,277.67,454.12,277.71,454.54z M277.71,452.01c-0.21,0.02-0.26-0.61-0.05-0.63
			C277.89,451.58,277.91,451.79,277.71,452.01z M279.51,450.82c-0.38,0.45-0.34-1.65-0.12-1.46
			C279.61,449.55,279.72,450.8,279.51,450.82z M351.25,505.96c0.42-0.03,1.04-0.08,1.2-0.73c-0.08-1.04-0.2-2.51-0.86-2.87
			c-0.78,0.69-0.36,3.39-1.21,3.25C350.41,506.02,350.83,505.99,351.25,505.96z"/>
		<path class="st1" d="M377.66,460.42c-0.02-0.21,0.28-1.7,0.25-2.12l-0.05-0.63c-0.1-1.25-1.01-7.28-1.29-8.09l-0.4-10.06
			l-0.45-0.38c-0.19-15.33-2.89-30.46-3.31-45.98c-0.21,0.02-0.69-0.78-0.92-0.98l-0.03-0.42c0.19-0.23,0.59-0.47,0.8-0.49
			l-0.03-0.42l-0.26-0.61c-0.02-0.21,0.32-1.29,0.53-1.31c0.63-0.05,0.66,0.37,1.7,0.28c2.3-0.19,0.38-0.45,1.38-1.16
			c0.19-0.22,1.01-0.5,1.41-0.74c0.63-0.05,4.58-0.58,5.41-0.65c4.22-2.44,22.02,2,21.08,3.33c0.21-0.02,2.53,2.74,3.45,3.71
			l2.31,2.54c0,0,1.3,0.52,1.32,0.73c0.23,0.19,0.54,1.43,0.55,1.64c0,0,0.23,0.19,0.44,0.17c1.91,2.79,3.45,6.24,5.36,9.02
			l8.38,10.04c2.07,2.14,2.53,5.26,4.18,7.44c0.23,0.19,2.78,3.14,3.91,4.1c2.07,2.14,4.31,3.86,5.59,6.69l3.71,6.85
			c-0.73,1.32,6.02,9.39,6.97,10.79c2.13,2.98,3.62,5.8,5.56,9.01l-1.86-72.16l-0.46-5.64c-0.24-2.92,1.78-1.4,2.34-2.29
			c0.21-0.02,0.33-1.08,0.54-1.1c1.5-2.22,6.6-4.11,8.27-4.24l0.21-0.02c0.21-0.02,0.64,0.16,0.64,0.16l6.89-0.56
			c0.94,1.18,3.03,1.02,3.89,1.37c4.26,0.7,6.23,6.85,6.8,11.22c0.15,1.88-0.06,9.68-0.11,11.57c0.02,0.21-0.04,2.11-0.02,2.31
			c0.02,0.21,0.29,1.03,0.31,1.24l0.07,0.84c0.15,1.88-0.08,4.21,0.11,6.51l0.2,2.51c0.47,0.59,0.62,5,0.73,6.46l0.33,6.7
			c1.13,0.96,2.57,10.93,2.48,12.41l0.08,1.04c0.02,0.21-0.1,4-0.06,4.42l0.02,0.21c-0.04,2.11,0.71,3.52,0.86,5.4
			c0.03,0.42-0.02,2.31,0.01,2.73c-0.38,0.45-0.37,0.66-0.32,1.29c-0.02,2.31,0.84,5.19,1.45,7.45l4.99,40.8
			c0.17,2.09,1.09,3.06,1.28,5.36c0.18,4.82-1.77,6.66-5.83,8.46c-1.64,0.55-9.49,2.24-11.14,2.59l-8.98,0.73
			c-0.45-0.38-3.46-1.19-4.1-1.35c-1.72-0.49-2.99-3.12-4.34-4.27l-3.35-2.46l-11.7-12.08c-3.16-5.21-7.76-10.09-11.49-14.62
			c-2.12-2.77-5.18-4.2-7.31-7.18l-19.12-25.78c-1.56-1.13-2.2-3.82-3.75-4.74c-0.44,2.35-0.31,6.54,0.03,8.2
			c-0.19,0.22-0.17,0.43-0.16,0.64c0.02,0.21-0.3,1.49-0.27,1.91l0.38,7.33c-0.38,0.45-0.35,0.87-0.32,1.29
			c0.12,1.46,2.07,2.14,1.99,3.83c0.02,0.21,0.08,1.04-0.33,1.08c-0.03-0.42-0.78-1.83-1.41-1.78l-0.21,0.02
			c0.73,1.2,1.67,10.17,2.12,10.55c0.22,2.72,0.19,7.55,1.06,10.43c2.28-0.4,4.12,11.86,4.06,13.75l0.64,0.16l0.63,12.98
			c-0.19,0.23-0.56,0.89-0.54,1.1l0.1,1.25c0,0-0.61,0.26-0.8,0.49c-5.26,2.53-10.78,4.45-16.63,4.92
			c-10.86,0.88-11.78-7.87-12.3-16.87l-0.14-1.67c-0.02-0.21-0.5-1.01-0.52-1.22c-0.24-0.4-0.38-2.07-0.41-2.49l0.63-0.05
			l-0.32-6.49l-0.45-0.38l-0.63-12.98l-0.47-0.59c-0.23-5.45-1.07-10.63-1.51-16.06c-0.42,0.03-0.47-0.59-0.05-0.63l-0.07-0.84
			c-0.21,0.02-0.24-0.4-0.03-0.42L377.66,460.42z M374.32,388.16c-0.03-0.42,0.38-0.45,0.42-0.03
			C374.54,388.36,374.33,388.37,374.32,388.16z M375.7,441.45c-0.21,0.02-0.26-0.61-0.05-0.63
			C376.06,440.79,376.11,441.41,375.7,441.45z M380.74,498.43c-0.42,0.03-0.47-0.59-0.05-0.63
			C380.92,497.99,380.93,498.2,380.74,498.43z M380.89,500.3c-0.42,0.03-0.49-0.8-0.07-0.83
			C381.05,499.66,381.09,500.08,380.89,500.3z M381.53,505.51c0.19-0.23,0.16-0.64-0.07-0.83
			C381.02,504.5,381.11,505.54,381.53,505.51z M384.75,449.33c0.42-0.03,0.33-1.08-0.08-1.04
			C384.24,448.32,384.33,449.37,384.75,449.33z M385.23,419.02c0.42-0.03,0.35-0.87,0.33-1.08c-0.03-0.42-0.08-1.04-0.52-1.22
			L385.23,419.02z M385.99,428.42c0.4-0.24,0.28-1.7-0.17-2.09C385.6,426.14,385.82,428.85,385.99,428.42z M386.14,432.82l0.11-1.27
			l-0.17,0.44l-0.16,0.64L386.14,432.82z M388.13,454.73l0.17-0.43l-0.51-6.26c-0.21,0.02-0.61,0.26-0.78,0.69l-0.05-0.63
			c0.21-0.02,0.75-1.11,0.75-1.11l-0.31-3.76c-0.21,0.02-0.82,0.28-0.78,0.7l0.25,5.65l0.21-0.02l0.39,4.8L388.13,454.73z
			 M387.47,459.62l0.21-0.02c0.21-0.02,0.47-1.93,0.62-2.78l-0.08-1.04C386.96,455.88,387.37,458.37,387.47,459.62z M387.57,463.4
			l0.4-0.24l-0.26-0.61L387.57,463.4z M388.47,474.46c0.4-0.24,0.33-1.08-0.1-1.25C388.16,473.23,388.27,474.69,388.47,474.46z
			 M389.04,512.67c0.21-0.02,0.14-0.85-0.07-0.83C388.56,511.87,388.63,512.71,389.04,512.67z M391.4,445.85
			c0.42-0.03,0.37-0.66-0.05-0.63L391.4,445.85z M392.17,452.72c0.38-0.45,0.73-1.32,0.89-1.96l0.02,0.21
			c0.24,0.4,0.26,0.61,0.89,0.56c-0.19-2.3-1.14-11.47-1.92-13.3c0.02,0.21-0.16,0.64-0.14,0.85l-0.17,0.44l0.29,1.03l0.05,0.63
			l-0.12,1.06c0.02,0.21,0.29,1.03,0.31,1.24l-0.16,0.64c-0.18,0.43,0.06,3.36,0.08,3.57c-0.12,1.06-0.75,1.11-0.7,1.74
			C391.58,450.67,392.27,451.45,392.17,452.72z M392.3,464.69c0.76,1.62,1.78,6.37,3.32,7.3l-0.12-1.46l-0.24-0.4
			c-0.02-0.21,0.35-0.87,0.35-0.87l-0.03-0.42c-0.05-0.63-0.07-0.84-0.73-1.2c1.01-0.5-0.48-3.32,0.55-3.62l-0.01-2.73l-0.24-0.4
			l-0.02-0.21c-0.08-1.04,0.04-2.11-0.05-3.15l-0.14-1.67c-1.27-0.11-1.44-2.2-1.52-3.24l-0.7,1.74l0.08,1.04
			c0.24,2.92-1.59,3.7-0.71,6.78l-0.16,0.64L392.3,464.69z M392.54,449.54l-0.21,0.02l-0.03-0.42L392.54,449.54z M393.62,462.9
			l0.07,0.84c-0.43-0.18-0.45-0.38-0.49-0.8L393.62,462.9z M393.63,460.38c-0.19,0.23-0.29-1.03-0.07-0.83
			C393.77,459.53,393.84,460.36,393.63,460.38z M393.83,465.41c-0.42,0.03-0.49-0.8-0.07-0.84
			C393.97,464.56,394.04,465.39,393.83,465.41z M394.45,457.58c-0.21,0.02-0.29-1.03-0.08-1.04
			C394.79,456.5,394.87,457.55,394.45,457.58z M404.89,459.26l0.03,0.42c0,0-0.49-0.8-0.5-1.01l-0.03-0.42
			C404.81,458.21,404.86,458.84,404.89,459.26z M404.9,456.73c-0.21,0.02-0.26-0.61-0.05-0.63
			C405.07,456.3,405.09,456.51,404.9,456.73z M406.69,455.54c-0.38,0.45-0.34-1.65-0.12-1.46
			C406.8,454.27,406.9,455.52,406.69,455.54z M478.43,510.68c0.42-0.03,1.04-0.08,1.2-0.73c-0.08-1.04-0.2-2.51-0.86-2.87
			c-0.79,0.69-0.36,3.39-1.21,3.25C477.6,510.75,478.01,510.71,478.43,510.68z"/>
		<path class="st1" d="M520.05,503.4c-9.52-0.7-9.57-6.58-11.24-14.22c-0.33-1.45-2.91-12.59-3.03-14.05
			c-1.74-8.48-2.5-17.88-3.21-26.65c-0.29-3.55-0.82-7.5-0.27-11.12c-0.6-4.79-2.38-26.71-2.56-31.53
			c-0.12-1.46-1.21-17.56-1.32-18.81l-0.29-3.55c0.11-1.27-0.01-10.51-0.11-11.76c-0.15-1.88-0.44-5.43,0.47-7.19
			c0.21-0.02,0.8-0.49,1.01-0.5c1.81-0.99,1.13-1.56,3.82-2.2c9.65-2.88,19.46-3.68,29.4-5.54l0.07,0.83l-1.67,0.14l0.03,0.42
			l36.76-2.98c2.3-0.19,5.52,0.6,7.88,1.25l0.23,0.19c0,0,0.23,0.19,0.24,0.4c4.68,5.93,7.67,11.57,8.29,19.3
			c0.12,1.46-0.11,1.27-0.81,3.01c-1.37,3.89-3.74,5.77-7.41,7.12c-1.03,0.29-0.87-0.35-1.41,0.74l-7.31,0.59
			c-1.97,1.63-22.99,4.18-26.13,4.43c-1.88,0.15-3.39-0.35-5.06-0.22c-1.88,0.15-3.73,0.72-3.56,2.81c0.41,5.01,2,14.34,2.41,19.35
			c4.59-0.37,9.36-1.18,13.96-1.55c3.13-0.25,16.06-1.51,19.25-1.14c1.5,0.3,4.01,2.83,4.93,3.8c3.87,3.68,6.24,9.58,6.67,14.8
			c0.1,1.25-1.48,7.69-1.46,7.9l-1.78,3.93c-1.12,1.77-27.64,3.92-30.35,4.14c-1.86,0.36-5.67,0.04-7.88,1.27
			c-0.63,0.05-0.61,0.26-0.58,0.68c0.41,5.01,1.55,13.96,2.38,18.94c0.08,1.04,1.12,3.48,1.12,3.48l0.45,0.38
			c0.42-0.03,1.85-0.57,2.26-0.6l0.63-0.05c0.42-0.03,0.63-0.05,1.11,0.75c2.25-0.81,5.15-1.26,7.24-1.43l0.42-0.03
			c2.09-0.17,21.96-1.36,24.05-1.53c7.41,0.66,14,4.12,14.64,12.05c0.19,2.3-1.12,4.3-0.97,6.18c0.1,1.25,0.62,2.47,0.71,3.52
			c0.25,3.13-1.97,4.15-3.68,6.39c-0.94,1.34-0.82,2.8-3.33,3l-11.07,0.9c-1.25,0.1-0.73-1.2-1.77-1.12
			c-6.47,0.53-23.03,3.76-29.29,4.27c-1.04,0.08-1.69-0.07-2.77-0.41l0.37-0.66c-0.42,0.03-1.69-0.07-1.9-0.06L520.05,503.4z
			 M534.01,356.8c-0.42,0.03-0.49-0.8-0.07-0.84C534.15,355.95,534.22,356.79,534.01,356.8z M542.39,501.59l0.61-0.26l-1.04,0.08
			L542.39,501.59z M549.75,413.54c0.21-0.02,12.34-0.79,12.76-0.83l5.11,0.85c0.63-0.05,2.82,1.03,3.86,0.95l0.4-0.24
			c-0.64-2.68-6.55-3.04-8.43-2.89c-1.46,0.12-12.53,1.02-13.96,1.55C549.51,413.14,549.74,413.33,549.75,413.54z M563.69,414.3
			c0.23,0.19,0.43,0.18,0.63-0.05C564.28,413.83,563.66,413.88,563.69,414.3z M567.54,466.96c-0.02-0.21,0.61-0.26,0.42-0.03
			C567.99,467.35,567.79,467.36,567.54,466.96z M577.98,466.12c-0.02-0.21,0.61-0.26,0.42-0.03
			C578.43,466.5,578.23,466.52,577.98,466.12z M590.04,482.59c0.42-0.03,1.22-0.52,1.39-0.95l-0.14-1.67
			c-0.22-2.71-1.04-2.44-2.62-3.78c-0.89-0.56-1.66-2.39-2.92-2.28c0.24,2.92,4.08,3.66,4.34,6.8l0.02,0.21c0,0-0.18,0.43-0.38,0.45
			c-0.02-0.21-0.5-1.01-0.52-1.22c-0.24-0.4-0.99-1.81-0.99-1.81l-0.42,0.03C587.91,479.6,588.58,482.7,590.04,482.59z"/>
		<path d="M692.37,458.72c-0.07-0.83-0.12-1.46-0.19-2.3c-0.34-4.18-0.26-8.39-0.63-12.98c-0.54-6.68-1.52-13.54-2.08-20.43
			c-1.44-17.75-1.21-35.64-2.67-53.6l-0.51-6.27c-0.24-2.92-0.87-8.13,0.13-11.36c0.35-0.87,6.91-2.87,8.13-3.39
			c0.21-0.02,2.44-1.04,2.65-1.06l3.55-0.29c6.47-0.53,15.85,1.03,17.73,8.65l0.46,5.64c0.71,8.77,1.44,17.75,1.75,26.77
			c0.1,3.77-0.43,7.6-0.13,11.36l0.02,0.21c0.02,0.21,0.28,0.82,0.28,0.82l0.64,7.94c0,0-0.61,0.26-0.8,0.49l0.03,0.42
			c0.22,0.19,0.59,2.05,0.81,2.25c0.05,0.63,0.55,4.16,0.6,4.79c-1.13,1.56,0.81,12.55-1.41,16.3c-0.66-0.37-0.94-1.19-0.97-1.6
			c-0.21,0.02-0.38,0.45-0.38,0.45c0.02,0.21-0.04,2.11-0.18,2.96l0.02,0.21c0.31,1.24,0.72,3.72,0.72,3.72l0.43,0.17
			c-0.61,0.26-0.47,1.93-0.67,2.16l0.02,0.21c0.12,1.46,1.52,3.24,1.64,4.7c0.05,0.63-0.82,0.28-0.77,0.9l0.03,0.42
			c0.12,1.46,0.81,4.77,0.81,4.77l0.87,0.35l-0.37,0.66l0.2,2.5c0.21-0.02,0.45,0.38,0.45,0.38c0.03,0.42-0.07,1.69-0.04,2.11
			c2.51-0.2,4.96-1.03,7.24-1.43c5.81-0.89,9.57-1.2,14.58-1.6c2.3-0.19,5.06,0.22,7.34-0.18c9.29,3.03,13.11,11.34,13.88,20.74
			c0.05,0.63,0.53,3.95-0.01,5.05c-1.63,3.29-7.19,7.31-10.53,7.58l-1.04,0.08c-0.42,0.03-5.24,0.22-5.86,0.27
			c-6.47,0.53-10.78,4.45-17.46,4.99c-4.39,0.36-27.5-2.18-30.18-4.07c-0.21,0.02-0.9-0.77-1.13-0.96
			c-0.28-0.82-3.12-4.79-3.42-5.82C693.71,475.22,693,466.44,692.37,458.72z M696.05,361.51c0.42-0.03,0.35-0.87-0.07-0.83
			C695.56,360.71,695.63,361.55,696.05,361.51z M695.97,479.66c0.19-0.23,0.14-0.85-0.07-0.84
			C695.67,478.63,695.76,479.67,695.97,479.66z M699.89,452.85c0.21-0.02,0.12-1.06-0.08-1.04
			C699.38,451.84,699.47,452.89,699.89,452.85z M703.23,429.25c0.17-0.44,0.01-2.52-0.22-2.71
			C702.75,425.92,703.05,429.68,703.23,429.25z M703.88,434.66l0.63-0.05c-0.08-1.04-0.41-2.49-0.91-3.5
			c0.02,0.21-0.09,1.48-0.07,1.69l0.03,0.42C703.58,433.63,703.88,434.66,703.88,434.66z M705.61,443.14l0.42-0.03
			c-0.19-2.3-1.07-5.38-1.64-7.22l-0.38,0.45L705.61,443.14z M705.31,447.16l-0.03-0.42l-0.42,0.03L705.31,447.16z M707.87,470.91
			c0.21-0.02,0.19-0.23-0.02-0.21C707.42,470.53,707.45,470.95,707.87,470.91z M707.72,484.59c0.21-0.02,0.17-0.44-0.03-0.42
			C707.47,484.19,707.52,484.82,707.72,484.59z M708.39,472.13l-0.07-0.83C708.09,471.11,708.18,472.15,708.39,472.13z
			 M715.15,482.93l0.42-0.03l-0.05-0.63L715.15,482.93z M717.06,483.2c0.42-0.03,0.33-1.08-0.08-1.04
			C716.77,482.17,716.85,483.22,717.06,483.2z M720.68,437.08c-0.21,0.02-0.24-0.4-0.03-0.42
			C720.85,436.65,720.89,437.06,720.68,437.08z M720.97,440.63c-0.19,0.23-0.28-0.82-0.07-0.83
			C721.11,439.78,721.16,440.41,720.97,440.63z M722.03,432.98c-0.42,0.03-0.5-1.01-0.08-1.04
			C722.15,431.92,722.24,432.96,722.03,432.98z M722.61,437.56c0.07,0.83-0.28,1.7-0.88,2.17l0.62-2.78
			C722.56,436.93,722.59,437.35,722.61,437.56z M722.23,451.04c-0.21,0.02-0.26-0.61-0.05-0.63
			C722.41,450.61,722.42,450.81,722.23,451.04z M723.08,443.4l-0.27-3.34C723.26,440.45,723.45,442.74,723.08,443.4z M724.03,449.84
			l0.49,6.06c0.02,0.21-0.38,0.45-0.59,0.47l-0.42,0.03c-0.21,0.02-0.44-0.18-0.45-0.38C724.69,455.46,722.36,449.98,724.03,449.84z
			 M723.69,445.67l0.23,0.19l-0.19,0.22c0,0-0.19,0.23-0.4,0.24l-0.08-1.04C723.44,445.26,723.67,445.46,723.69,445.67z M723.46,448
			l-0.03-0.42C723.84,447.55,723.87,447.96,723.46,448z M727.19,452.53c-0.21,0.02-0.24-0.4-0.02-0.21
			C727.38,452.3,727.4,452.51,727.19,452.53z M745.22,475.24c0.21-0.02,1.9,0.06,2.31,0.02l-0.05-0.63l-2.92,0.24
			C744.56,474.87,745.01,475.26,745.22,475.24z"/>
		<path d="M853.09,447.15c-1.25,0.1-2.25,0.81-3.48,1.12c-5.8,1.1-11.63,1.78-17.47,2.26c-1.46,0.12-7.33,0.38-8.58,0.49
			c-0.42,0.03-2.1-0.04-2.52-0.01l-0.42,0.03l-1.45,0.33c-1.03,0.29-6.02,0.91-7.27,1.01c-1.15,1.35-6,16.67-6.27,18.59
			c0.06,3.36,1.5,8.08-1.66,10.65c-1.38,1.16-3.5,0.92-4.88,2.08l-2.92,0.24c-3.13,0.25-6.32-0.12-9.24,0.12
			c-1.46,0.12-2.84,1.28-4.09,1.38c-3.34,0.27-8.05-0.82-8.38-4.78c-0.63-7.73,4.6-18.45,6.7-26.19
			c3.23-12.03,5.41-23.98,8.41-36.21c0.14-0.85,0.49-1.72,0.42-2.56l9.79-37.37c0.25-2.12,0.53-1.3,1-3.23
			c2.49-8.19,4.13-16.52,6.82-24.73c2.56-7.35,1.93-9.83,10.41-11.57c2.47-0.62,4.56-0.79,7.07-0.99c5.43-0.44,10.35,0.63,15.5,1.9
			c1.72,0.49,2.6,3.57,4.53,4.05c2.1,2.56,3.19,5.63,4.47,8.47l5.52,13.64c-0.3,1.49,1.47,2.61,1.59,4.07l-0.19,0.23l-0.56,0.89
			l0.03,0.42c0.52,1.22,2.92,7.54,3.67,8.95c0.02,0.21,0.24,0.4,0.26,0.61c0.59,2.05,1,4.54,2.2,6.34
			c6.57,11.03,10.08,23.15,14.82,34.95c1.09,3.06,3.47,6.45,4.75,9.29c3.05,6.48,5.68,12.99,8.5,19.28c0.57,1.85,2.22,4.02,2.37,5.9
			c0.03,0.42,0.31,1.24-0.28,1.7c1.3,0.53,3.88,6.41,4,7.87l0.02,0.21c-0.19,0.23-0.47,1.93-0.46,2.14
			c0.23,0.19,1.35,1.15,1.79,1.33c-1.36,1.37-1.14,1.56-2.7,2.95l-0.19,0.22c0.07,0.84,1.75,0.91,2.17,0.88l-4.7,1.64l-0.77,0.9
			c-0.21,0.02-2.89,0.65-4.13,0.97l-0.21,0.02c-2.92,0.24-6.09,0.07-8.8,0.29c-1.25,0.1-2.04,0.8-3.08,0.88
			c-2.09,0.17-5.66,0.25-7.45-1.08c-7.8-5.46-10.62-22.05-14.25-30.59L853.09,447.15z M818.93,365.62c0.42-0.03,0.35-0.87-0.07-0.83
			C818.45,364.82,818.52,365.66,818.93,365.62z M819.86,421.05c7.73-0.63,14.99-1.85,22.71-2.47c0.42-0.03,0.38-0.45,0.37-0.66
			c-0.14-1.67-1.75-3.43-2.09-5.09l-4.8-9.91l-6.92-20.46c-1.78,1.4-3.03,11.81-3.63,14.8c-0.12,1.06-2.61,9.25-2.74,10.31l-0.3,1.5
			c-0.49,1.72-2.37,9.65-2.65,11.36L819.86,421.05z M855.62,403.22c0.23,0.19,0.43,0.17,0.63-0.05
			C856.21,402.75,855.59,402.8,855.62,403.22z M882.99,468.48l-0.03-0.42l-0.42,0.03L882.99,468.48z"/>
		<path class="st1" d="M236.13,695.43c-0.82-3.04-2.05-6-2.67-9.08c-0.9-4.52-1.35-8.92-2.25-13.44l-1.11-5.55
			c-0.9-1.31-1.07-3.21-1.4-4.85c-1.85-9.25-3.2-18.16-5.04-27.41l-1.56-7.81c-0.29-0.37-0.78-1.77-0.86-2.18l-1.52-7.6
			c-0.25-0.16-1.19-1.69-1.27-2.1c-0.04-0.21,0.25-0.9,0.25-0.9c0.08-0.66,0.04-1.93,0.04-1.93l-0.49-0.33
			c-0.25-0.16-5.51,0.25-7.77,0.7l-3.29,0.66c-2.88,0.57-5.88,1.6-8.55,2.13c-4.73,0.94-7.89-3.12-9.9-6.78
			c-0.53-1.6-2.83-8.84-3.16-10.48c-0.04-0.21-0.53-1.6-0.66-2.22c-0.53-2.67-0.53-6.95,1.65-8.87c1.03-0.21,5.3-1.27,6.33-1.48
			c6.58-1.31,13.27-2.01,19.85-3.32c19.73-3.94,38.84-9.89,58.35-13.78c8.22-1.64,10.89,9.58,11.95,14.92
			c0.94,4.73,1.27,7.44-1.81,11.26c-1.97,0.82-4.6,1.56-6.53,2.59l-17.46,3.49c-0.41,0.08-4.85,1.4-5.26,1.48
			c-1.44,0.29-4.27,1.07-3.95,2.71c0.7,3.49,2.46,6.99,3.16,10.48c0.37,1.85,0.12,3.82,0.45,5.46c1.31,6.58,5.46,12.37,6.57,18.99
			c0.08,0.41,0.2,5.3,0.29,5.71l0.45,2.26c1.52,7.6,3.49,14.26,4.84,22.11c0.86,2.18,0.7,5.63,2.3,7.23
			c0.53,3.74,1.72,9.7,3.2,13.89c0.62,2.01,3,6.45,3.49,8.92c0.04,0.21-0.33,0.49-0.33,0.49c0.37,2.92,1.64,8.22-0.41,10.77
			c-1.19,1.52-2.96,2.3-4.19,3.61l-4.11,0.82c-1.03,0.21-7.48,1.06-8.96,1.15c-8.18,0.78-10.97,0.69-14.09-7.44
			c-1.19-2.75-0.57-2.88-2.34-5.3C237.85,703,236.41,696.87,236.13,695.43z M191.13,598.44c0.41-0.08,0.7-0.78,0.62-1.19
			c0,0-0.25-0.16-0.45-0.12l-0.41,0.08L191.13,598.44z"/>
		<path class="st1" d="M298.61,673.72c-4.36-10.25-6.92-21.34-8.23-32.58c-0.8-6.87-0.64-14.48-0.42-21.68
			c-0.02-3.79,1.26-7.32,2.32-10.82c0.84-3.68,0.58-4.08,1-7.71c-0.02-0.21,0.32-0.88,0.32-0.88c0.34-0.67,3.46-6.52,4.01-7.22
			l2.1-5.52c4.17-7.66,10.29-13.02,16.37-18.79c3.02-1.2,5.07-3.54,7.65-4.9l1.04-0.12c4.25-1.55,7.87-3.03,12.45-3.56
			c6.66-0.78,13.38,0.76,19.61,1.72c2.02,1.03,2.59,0.54,4.98,1.11c3.89,0.81,7.7,2.69,11.08,4.61c0,0,0.67,0.34,0.88,0.32
			c12.71,5.9,19.07,16.97,24.27,29.02l3.68,8.01c1.73,4.02,2.37,9.43,2.9,14.01l0.41,3.54c-0.21,0.02-0.74,0.93-0.71,1.14
			c0.02,0.21,0.91,0.53,0.93,0.73l0.05,0.42l-0.37,0.47l0.17,1.46c0.12,1.04,0.59,1.41,0.71,2.45c0.36,3.12-0.06,6.76,0.33,10.08
			c0.05,0.42,0.78,3.07,0.83,3.49l0.17,1.46c-0.64,5.35-0.47,10.39-1.09,15.95c-0.25,8.68-5.05,16.41-8.8,24.02
			c-0.21,0.02-0.61,1.97-0.96,2.64c-1.07,3.5-8.1,8.33-11.7,10.01c-0.58,0.49-7.2,3.37-7.98,3.88c0,0-0.6,0.28-0.81,0.3
			c-0.99,0.54-6.49,2.23-7.71,2.59c-0.21,0.02-2.45,0.71-3.07,0.78l-0.42,0.05c-1.87,0.22-6.29,0.31-6.29,0.31
			c-3.98,0.25-9.28,0.03-13.54-0.32l-0.67-0.34C322.37,701.96,309.41,692.08,298.61,673.72z M325.71,681.74l-0.05-0.41
			c0,0-2.91-3.25-4.12-4.58c-0.26-0.39-0.49-0.58-1.11-0.5C320.64,678.11,324.31,680.64,325.71,681.74z M318.39,588.3l0.39-0.26
			l-0.83,0.1L318.39,588.3z M319.2,622.38l0.42-0.05l-0.02-0.21l-0.42,0.05L319.2,622.38z M319.4,620.46l0.42-0.05l0.01-1.69
			l-0.62,0.07L319.4,620.46z M319.99,614.69c0.05,0.42,0.26,0.39,0.42-0.05C320.38,614.44,319.76,614.51,319.99,614.69z
			 M321.39,628.45c1.04-0.12,0.9-1.37,0.82-1.99C321.38,626.55,321.29,627.62,321.39,628.45z M321.74,629.68l0.42-0.05l-0.02-0.21
			l-0.42,0.05L321.74,629.68z M321.64,623.36l0.42-0.05l-0.02-0.21l-0.42,0.05L321.64,623.36z M322.99,645.77l0.62-0.07l-0.05-0.41
			l-0.62,0.07L322.99,645.77z M329.71,685.28l0.42-0.05l-3.07-2.81c-0.02-0.21-0.46-0.37-0.46-0.37l-0.42,0.05
			C326.45,682.71,328.67,685.4,329.71,685.28z M325.54,642.31c0.39-0.26,0.58-0.49,0.53-0.9c-0.42,0.05-0.83,0.1-0.99,0.54
			L325.54,642.31z M352.13,676.76c1.95,0.41,4.03,0.16,5.9-0.06c5.83-0.68,8.24-7.08,12.67-10.76c0.14-0.65,1.2-4.15,1.31-5.01
			c-0.02-0.21,0.69-1.35,0.66-1.55l0.37-0.46c0,0,0.67,0.34,0.88,0.32c1.66-0.2,1.6-20.65,1.23-23.77
			c-0.78-6.66-2.48-14.05-3.7-20.87c-0.64-3.72-4.85-10.82-6.65-13.57c-0.75-0.97-5.83-8.39-6.37-9.38
			c-1.49-1.94-4.47-5.81-7.6-5.44l0.12,1.04c-1.69-0.01-1.26-1.75-4.17-1.41l-0.83,0.1c0.28,0.6,1.76,0.64,2.18,0.59l0.05,0.42
			c-2.08,0.24-2.48-1.4-4.15-1.2l-0.21,0.02l0.72,0.76l0.05,0.42c-5.52,1.49-5.77,3-10.31,5.64c-0.23-0.19-0.46-0.37-0.49-0.58
			c0.02,3.8-5.89,5.54-6.75,9.01c-0.49,3.01-1.3,6.9-1.59,9.89c0.07,0.63-0.09,4.65-0.18,5.72c-0.06,1.27,0.27,7.77,0.44,9.23
			c-0.53,0.91-0.47,3.22-0.37,4.05l0.49,0.57c0.02,0.21-0.37,0.47-0.37,0.47c0.1,0.83,0.2,3.56,0.3,4.39
			c0.36,3.12,1.74,5.91,2.11,9.04l0.05,0.42c-0.49-0.58-1.16-0.92-1.79-0.85c0.12,1.04,0.56,1.2,0.66,2.03l0.07,0.62l-0.32,0.88
			l0.93,0.73l0.05,0.42c0.12,1.04-0.22,1.71-0.1,2.75c0.22,1.87,2.03,6.51,2.8,7.69c0,0,0.21-0.02,0.23,0.18l-0.18,0.23l-0.34,0.67
			l0.05,0.42c0.24,2.08,3.37,3.61,3.64,5.9l0.02,0.21l-0.37,0.46c0.58-0.49,1.27,0.06,1.35,0.69c0.72,0.76,4.18,3.31,4.88,3.86
			c0.93,0.73,2.18,0.59,2.92,1.56L352.13,676.76z M328.34,597.69c0.62-0.07,3.77-3.82,4.3-4.72l-0.21,0.02
			C331.19,593.13,328.17,596.23,328.34,597.69z M335.18,591.19l0.94-0.95l-0.42,0.05c-0.21,0.02-0.78,0.51-0.78,0.51L335.18,591.19z
			 M352.54,676.71c-0.42,0.05-0.51-0.79-0.1-0.83C352.65,675.85,352.75,676.68,352.54,676.71z M373.36,658.04
			c-0.42,0.05-0.46-0.37-0.02-0.21C373.54,657.8,373.56,658.01,373.36,658.04z M382.71,680.36c0.21-0.02,0.47,0.37,0.67,0.34
			l0.21-0.02c1.04-0.12,1.79-2.74,1.69-3.57c-0.83,0.1-2.65,2.63-2.6,3.05L382.71,680.36z M385.58,676.02
			c0.02,0.21,0.23,0.18,0.21-0.02C385.97,675.76,385.56,675.81,385.58,676.02z M386.59,673.79l0.21-0.02l-0.05-0.42l-0.21,0.02
			L386.59,673.79z"/>
		<path class="st1" d="M413.49,611.09l-0.11-2.09c-0.03-0.63-1.12-5.61-1.36-6.22c-0.7-5.63-0.78-11.29-2.32-16.88l-0.43-8.58
			c-0.15-2.93-0.66-8.99-0.22-12.58c0.59-0.87,2.06-0.73,2-1.99c-0.05-1.05-1.13-1.62-1.17-2.46c1.05-0.05,2.09-0.1,2.91-0.57
			c1.27,0.15,7.33-0.16,8.79-0.44c0.42-0.02,4.35-1.06,4.77-1.08c5.85-0.51,14.63-1.16,21.11-1.49c7.74-0.39,15.51-0.36,22.91,0.94
			c22.85,3.88,38.8,20.49,39.96,43.5c0.33,6.49-0.82,12.84-3.24,18.83c-0.73,2.13-5.13,6.34-5.07,7.6c1.25-0.06,1.66-0.29,2.67-1.18
			l0.44,0.4c-1.17,1.74-4.22,3.57-5.43,4.68c-0.21,0.01-7.9,5.64-9.55,6.15c-0.42,0.02-3.31,1.01-3.51,1.02
			c-2.07,0.52-3.66,2.28-5.53,2.59c-2.91,0.57-6.05,0.73-8.75,1.28c-0.21,0.01-1.84,0.93-2.05,0.94s-1.25,0.27-1.25,0.27l-11.93,0.6
			c-0.21,0.01-0.64-0.18-0.85-0.17s-2.08,0.32-2.29,0.33c-0.62,0.24-2.29,0.33-2.93,0.15c-0.39,0.65-0.36,1.07-0.34,1.49
			c0.81,15.9,4.12,31.68,4.52,47.82c0.46,0.81,0.49,1.44,0.54,2.49c0.33,6.49-10.1,7.64-15.12,7.9c-4.19,0.21-8.82-0.18-13.06-1.02
			c-0.43-0.19-4.26-1.25-5.31-1.2c-1.72-0.75-3.55-3.81-3.84-5.47c-1.8-10.82-1.76-22.36-2.31-33.24
			c-0.44-8.79-1.94-17.52-2.38-26.31C413.31,628.3,413.94,619.88,413.49,611.09z M439.79,695.56c1.88-0.1,1.78-2.19,1.7-3.65
			l-0.08-1.67c-0.65-0.39-0.55-2.49-1.59-2.44l-0.21,0.01c-1.01,0.68-1.57,6.37-1.55,6.58
			C438.11,695.44,438.74,695.62,439.79,695.56z M448.61,616.87c38.99-4.7,30.85-24.64,20.01-27.44c-2.73-0.07-3.4-0.88-6.38-1.77
			c-2.55-0.71-5.28-0.78-8.02-0.86c-2.93,0.15-5.92-0.96-9.27-0.79c0.15,2.93,0.7,5.63,0.84,8.35c0.14,2.72-0.15,5.25-0.02,7.97
			C446.01,606.93,447.54,612.31,448.61,616.87z M467.24,566.2c0.02,0.42,0.23,0.41,0.21-0.01
			C467.64,565.97,467.23,565.99,467.24,566.2z M478.02,605.31l0.42-0.02c0.21-0.01,0.12-1.69,0.1-2.1l-0.03-0.63
			c-0.04-0.84-0.34-2.5-0.34-2.5l-0.42,0.02L478.02,605.31z M480.49,595.95l-0.01-0.21c-0.02-0.42-0.04-0.84-0.68-1.01l0.02,0.42
			C479.84,595.57,479.86,595.99,480.49,595.95z M481.49,603.25c0.19-0.43,0.34-1.49,0.33-1.7c-0.02-0.42-0.29-1.66-0.51-1.86
			c0.01,0.21-0.32,1.9-0.3,2.32l0.02,0.42C481.04,602.64,481.06,603.06,481.49,603.25z M492.3,568.08l0.21-0.01
			c-0.01-0.21-0.66-0.59-0.66-0.59s-0.22-0.2-0.43-0.19c0,0,0.01,0.21-0.2,0.22C491.43,567.5,492.09,568.09,492.3,568.08z
			 M494.27,569.87c-0.04-0.84-0.68-1.02-1.33-1.4l0.02,0.42C493.41,569.29,493.65,569.9,494.27,569.87z"/>
		<path class="st1" d="M540.55,693.6c-9.54-0.36-9.8-6.24-11.74-13.82c-0.38-1.43-3.35-12.48-3.53-13.93
			c-2.04-8.41-3.13-17.78-4.15-26.52c-0.41-3.54-1.08-7.47-0.66-11.1c-0.77-4.76-3.32-26.61-3.67-31.43
			c-0.17-1.46-1.83-17.51-1.98-18.75l-0.41-3.54c0.06-1.27-0.38-10.5-0.53-11.75c-0.22-1.87-0.63-5.41,0.21-7.2
			c0.21-0.02,0.78-0.51,0.99-0.54c1.78-1.05,1.08-1.6,3.74-2.33c9.54-3.22,19.32-4.36,29.19-6.57l0.1,0.83l-1.66,0.19l0.05,0.42
			l36.63-4.27c2.29-0.27,5.53,0.41,7.92,0.97l0.23,0.18c0,0,0.23,0.18,0.26,0.39c4.89,5.76,8.07,11.29,8.97,18.99
			c0.17,1.46-0.06,1.27-0.7,3.04c-1.23,3.94-3.53,5.9-7.15,7.37c-1.02,0.33-0.88-0.32-1.38,0.79l-7.28,0.85
			c-1.91,1.7-22.83,4.99-25.95,5.35c-1.87,0.22-3.4-0.24-5.07-0.04c-1.87,0.22-3.7,0.85-3.45,2.93c0.58,4.99,2.51,14.26,3.09,19.26
			c4.58-0.53,9.32-1.51,13.89-2.04c3.12-0.36,16-2.08,19.19-1.82c1.51,0.25,4.11,2.68,5.06,3.63c4,3.54,6.58,9.36,7.18,14.56
			c0.14,1.25-1.21,7.74-1.18,7.94l-1.64,3.99c-1.05,1.81-27.48,4.89-30.19,5.21c-1.85,0.43-5.67,0.24-7.84,1.55
			c-0.62,0.07-0.6,0.28-0.55,0.7c0.58,4.99,2.04,13.89,3.04,18.84c0.12,1.04,1.25,3.44,1.25,3.44l0.47,0.37
			c0.42-0.05,1.82-0.64,2.24-0.68l0.62-0.07c0.42-0.05,0.62-0.07,1.14,0.71c2.22-0.89,5.11-1.44,7.19-1.68l0.42-0.05
			c2.08-0.24,21.9-2.13,23.98-2.38c7.43,0.4,14.13,3.62,15.06,11.53c0.27,2.29-0.97,4.33-0.75,6.21c0.14,1.25,0.71,2.45,0.83,3.49
			c0.36,3.12-1.83,4.22-3.46,6.52c-0.89,1.37-0.72,2.83-3.22,3.12l-11.03,1.29c-1.25,0.15-0.77-1.18-1.81-1.06
			c-6.45,0.75-22.88,4.57-29.13,5.3c-1.04,0.12-1.69-0.01-2.78-0.31l0.34-0.67c-0.42,0.05-1.69-0.01-1.9,0.01L540.55,693.6z
			 M549.34,546.6c-0.42,0.05-0.51-0.78-0.1-0.83C549.45,545.75,549.55,546.58,549.34,546.6z M562.82,691.01l0.6-0.28l-1.04,0.12
			L562.82,691.01z M567.07,602.76c0.21-0.02,12.3-1.22,12.72-1.27l5.14,0.67c0.62-0.07,2.85,0.93,3.89,0.81l0.39-0.26
			c-0.73-2.66-6.66-2.81-8.53-2.59c-1.46,0.17-12.49,1.46-13.9,2.04C566.82,602.36,567.05,602.55,567.07,602.76z M581.03,603.03
			c0.23,0.19,0.44,0.16,0.62-0.07C581.6,602.54,580.98,602.61,581.03,603.03z M586.73,655.52c-0.02-0.21,0.6-0.28,0.42-0.05
			C587.2,655.89,586.99,655.91,586.73,655.52z M597.14,654.3c-0.02-0.21,0.6-0.28,0.41-0.05C597.6,654.67,597.39,654.7,597.14,654.3
			z M609.77,670.34c0.42-0.05,1.2-0.56,1.36-1l-0.2-1.67c-0.32-2.7-1.12-2.4-2.75-3.69c-0.91-0.53-1.75-2.33-3-2.18
			c0.34,2.91,4.21,3.52,4.57,6.64l0.02,0.21c0,0-0.16,0.44-0.37,0.46c-0.02-0.21-0.54-0.99-0.56-1.2c-0.26-0.39-1.05-1.78-1.05-1.78
			l-0.42,0.05C607.53,667.43,608.31,670.51,609.77,670.34z"/>
		<path d="M709.33,644.43c-0.1-0.83-0.17-1.46-0.27-2.29c-0.49-4.16-0.56-8.37-1.09-12.95c-0.78-6.66-2-13.48-2.8-20.35
			c-2.06-17.69-2.46-35.57-4.55-53.47l-0.73-6.24c-0.34-2.91-1.16-8.09-0.27-11.36c0.32-0.88,6.81-3.12,8.01-3.68
			c0.21-0.02,2.4-1.12,2.61-1.15l3.54-0.41c6.45-0.75,15.88,0.47,18.02,8.02l0.66,5.62c1.02,8.74,2.06,17.69,2.69,26.69
			c0.23,3.77-0.17,7.61,0.27,11.36l0.02,0.21c0.02,0.21,0.31,0.81,0.31,0.81l0.92,7.91c0,0-0.6,0.28-0.78,0.51l0.05,0.41
			c0.23,0.18,0.66,2.03,0.89,2.22c0.07,0.62,0.69,4.14,0.77,4.76c-1.08,1.6,1.25,12.51-0.83,16.34c-0.67-0.34-0.98-1.15-1.03-1.57
			c-0.21,0.02-0.37,0.46-0.37,0.46c0.02,0.21,0.04,2.11-0.08,2.96l0.02,0.21c0.35,1.22,0.85,3.7,0.85,3.7l0.44,0.16
			c-0.6,0.28-0.41,1.95-0.59,2.18l0.02,0.21c0.17,1.46,1.64,3.18,1.81,4.64c0.07,0.62-0.81,0.31-0.73,0.93l0.05,0.42
			c0.17,1.46,0.97,4.74,0.97,4.74l0.88,0.32l-0.34,0.67l0.29,2.5c0.21-0.02,0.47,0.37,0.47,0.37c0.05,0.42-0.01,1.69,0.03,2.11
			c2.5-0.29,4.92-1.21,7.19-1.68c5.78-1.1,9.53-1.53,14.52-2.12c2.29-0.27,5.07,0.04,7.33-0.43c9.39,2.7,13.5,10.87,14.6,20.23
			c0.07,0.62,0.67,3.93,0.17,5.04c-1.51,3.34-6.92,7.56-10.25,7.95l-1.04,0.12c-0.42,0.05-5.23,0.4-5.85,0.47
			c-6.45,0.75-10.62,4.82-17.28,5.6c-4.37,0.51-27.56-1.21-30.3-3c-0.21,0.02-0.93-0.74-1.16-0.92c-0.31-0.81-3.29-4.68-3.62-5.69
			C711.24,660.87,710.22,652.13,709.33,644.43z M709.58,547.16c0.42-0.05,0.32-0.88-0.1-0.83
			C709.06,546.37,709.16,547.2,709.58,547.16z M713.65,665.23c0.18-0.23,0.11-0.86-0.1-0.83
			C713.32,664.21,713.44,665.26,713.65,665.23z M716.63,638.3c0.21-0.02,0.09-1.06-0.12-1.04
			C716.09,637.31,716.21,638.35,716.63,638.3z M719.13,614.6c0.16-0.44-0.08-2.52-0.32-2.71
			C718.54,611.29,718.97,615.04,719.13,614.6z M719.97,619.98l0.62-0.07c-0.12-1.04-0.5-2.47-1.04-3.46
			c0.02,0.21-0.04,1.48-0.01,1.69l0.05,0.42C719.64,618.97,719.97,619.98,719.97,619.98z M722.01,628.4l0.42-0.05
			c-0.27-2.29-1.26-5.34-1.89-7.16l-0.37,0.46L722.01,628.4z M721.85,632.42L721.8,632l-0.42,0.05L721.85,632.42z M725.24,656.07
			c0.21-0.02,0.18-0.23-0.02-0.21C724.78,655.71,724.82,656.12,725.24,656.07z M725.57,669.75c0.21-0.02,0.16-0.44-0.05-0.42
			C725.31,669.35,725.39,669.98,725.57,669.75z M725.8,657.27l-0.1-0.83C725.47,656.26,725.59,657.3,725.8,657.27z M732.94,667.83
			l0.42-0.05l-0.07-0.62L732.94,667.83z M734.86,668.03c0.42-0.05,0.29-1.09-0.12-1.04C734.53,667.01,734.65,668.05,734.86,668.03z
			 M736.85,621.81c-0.21,0.02-0.26-0.39-0.05-0.41C737.01,621.37,737.06,621.79,736.85,621.81z M737.26,625.35
			c-0.18,0.23-0.31-0.81-0.1-0.83C737.38,624.49,737.45,625.12,737.26,625.35z M738.05,617.66c-0.42,0.05-0.54-0.99-0.12-1.04
			C738.14,616.6,738.26,617.64,738.05,617.66z M738.8,622.22c0.1,0.83-0.22,1.71-0.8,2.2l0.52-2.8
			C738.72,621.59,738.77,622.01,738.8,622.22z M738.9,635.71c-0.21,0.02-0.28-0.6-0.07-0.62
			C739.05,635.27,739.08,635.47,738.9,635.71z M739.48,628.04l-0.39-3.33C739.55,625.08,739.82,627.37,739.48,628.04z
			 M740.65,634.45l0.7,6.04c0.02,0.21-0.37,0.46-0.58,0.49l-0.42,0.05c-0.21,0.02-0.44-0.16-0.47-0.37
			C741.51,640.04,738.98,634.64,740.65,634.45z M740.16,630.28l0.23,0.18l-0.18,0.23c0,0-0.18,0.23-0.39,0.26l-0.12-1.04
			C739.9,629.89,740.14,630.08,740.16,630.28z M740.01,632.62l-0.05-0.42C740.38,632.16,740.43,632.57,740.01,632.62z M743.9,637.02
			c-0.21,0.02-0.26-0.39-0.02-0.21C744.08,636.79,744.11,637,743.9,637.02z M762.72,659.08c0.21-0.02,1.9-0.01,2.31-0.06l-0.07-0.62
			l-2.91,0.34C762.04,658.74,762.51,659.11,762.72,659.08z"/>
		<path d="M867.51,631.48c-1.26,0-2.3,0.63-3.56,0.85c-5.87,0.64-11.73,0.87-17.6,0.89c-1.47,0-7.34-0.19-8.59-0.18
			c-0.42,0-2.1-0.2-2.51-0.2h-0.42l-1.47,0.21c-1.05,0.21-6.07,0.44-7.33,0.44c-1.25,1.26-7.29,16.15-7.7,18.04
			c-0.2,3.35,0.86,8.17-2.49,10.48c-1.46,1.05-3.56,0.64-5.02,1.69l-2.93,0.01c-3.14,0.01-6.29-0.61-9.22-0.6
			c-1.47,0-2.93,1.06-4.19,1.06c-3.35,0.01-7.97-1.44-7.98-5.42c-0.02-7.75,6.03-18.04,8.73-25.59
			c4.16-11.75,7.27-23.49,11.21-35.44c0.21-0.84,0.62-1.68,0.62-2.52l12.68-36.49c0.41-2.1,0.62-1.26,1.25-3.15
			c3.12-7.97,5.4-16.15,8.73-24.12c3.12-7.13,2.7-9.64,11.28-10.72c2.51-0.43,4.61-0.43,7.12-0.44c5.45-0.02,10.27,1.44,15.3,3.1
			c1.68,0.62,2.32,3.77,4.2,4.39c1.89,2.72,2.74,5.86,3.8,8.79l4.44,14.03c-0.42,1.47,1.26,2.72,1.27,4.19l-0.21,0.21l-0.63,0.84
			v0.42c0.42,1.26,2.33,7.75,2.96,9.21c0,0.21,0.21,0.42,0.21,0.63c0.42,2.09,0.64,4.61,1.69,6.49c5.69,11.51,8.24,23.86,12.04,36
			c0.85,3.14,2.95,6.7,4.01,9.63c2.53,6.7,4.65,13.4,6.97,19.88c0.43,1.88,1.9,4.19,1.9,6.07c0,0.42,0.21,1.26-0.41,1.68
			c1.26,0.63,3.37,6.7,3.38,8.16v0.21c-0.21,0.21-0.62,1.89-0.62,2.1c0.21,0.21,1.26,1.25,1.68,1.46c-1.46,1.26-1.25,1.47-2.93,2.73
			l-0.21,0.21c0,0.84,1.68,1.04,2.1,1.04l-4.82,1.27l-0.84,0.84c-0.21,0-2.93,0.43-4.19,0.64H899c-2.93,0.01-6.08-0.4-8.8-0.4
			c-1.26,0-2.09,0.63-3.14,0.64c-2.1,0.01-5.66-0.19-7.34-1.65c-7.35-6.06-8.86-22.81-11.82-31.61L867.51,631.48z M839.83,547.54
			c0.42,0,0.42-0.84,0-0.84C839.41,546.7,839.41,547.54,839.83,547.54z M836.42,602.86c7.75-0.02,15.08-0.67,22.84-0.69
			c0.42,0,0.42-0.42,0.42-0.63c0-1.68-1.48-3.56-1.69-5.23l-4.01-10.26l-5.3-20.94c-1.88,1.26-3.95,11.53-4.78,14.47
			c-0.21,1.05-3.33,9.02-3.53,10.07l-0.42,1.47c-0.62,1.68-3.12,9.44-3.53,11.11L836.42,602.86z M873.47,587.88
			c0.21,0.21,0.42,0.21,0.63,0C874.09,587.46,873.47,587.46,873.47,587.88z M895.65,655.08v-0.42h-0.42L895.65,655.08z"/>
		<path class="st1" d="M133.65,623.88c10.84-0.02,19.76,8.86,19.9,19.82c0.14,11.03-9.02,20.21-20.05,20.09s-20.06-9.09-19.9-19.78
			C113.77,632.63,122.46,623.9,133.65,623.88z M142.69,644.05c0.06-5.25-3.86-9.61-8.81-9.79c-4.74-0.17-9.26,4.31-9.44,9.34
			c-0.17,5.03,4,9.51,8.99,9.66C138.53,653.41,142.63,649.33,142.69,644.05z"/>
		<path class="st2" d="M934.68,357.64c0.67-2.79,1.28-5.59,2.02-8.35c0.77-2.87,2.56-4.3,5.69-3.93c3.2,0.38,4.6,2.41,4.48,5.26
			c-0.15,3.61-0.82,7.2-1.27,10.79c-1.04,4.91-2.03,9.83-3.12,14.73c-1.14,5.12-2.92,6.31-8.13,5.25
			c-4.78-0.97-9.54-2.09-14.28-3.24c-3.15-0.76-4.87,0.02-5.33,3.56c-0.55,4.22-1.57,8.39-2.43,12.57
			c-0.74,3.55-3.11,4.81-6.45,4.05c-3.29-0.75-4.3-3.27-3.77-6.32c1.26-7.22,2.68-14.4,4.04-21.6c0.88-4.65,4.2-5.27,7.99-4.56
			c4.64,0.87,9.25,1.93,13.8,3.19c3.53,0.98,5.6,0.43,5.79-3.71C933.84,362.74,934.35,360.19,934.68,357.64z"/>
		<path d="M98.72,251.16c2.79,0.67,5.59,1.28,8.35,2.02c2.87,0.77,4.3,2.56,3.93,5.69c-0.38,3.2-2.41,4.6-5.26,4.48
			c-3.61-0.15-7.2-0.82-10.79-1.27c-4.91-1.04-9.83-2.03-14.73-3.12c-5.12-1.14-6.31-2.92-5.25-8.13c0.97-4.78,2.09-9.54,3.24-14.28
			c0.76-3.15-0.02-4.87-3.56-5.33c-4.22-0.55-8.39-1.57-12.57-2.43c-3.55-0.74-4.81-3.11-4.05-6.45c0.75-3.29,3.27-4.3,6.32-3.77
			c7.22,1.26,14.4,2.68,21.6,4.04c4.65,0.88,5.27,4.2,4.56,7.99c-0.87,4.64-1.93,9.25-3.19,13.8c-0.98,3.53-0.43,5.6,3.71,5.79
			C93.61,250.32,96.16,250.83,98.72,251.16z"/>
		<path d="M647.52,104.58c-0.06,6.42-5.32,11.74-11.59,11.7c-6.16-0.03-11.63-5.58-11.62-11.77c0.01-6.5,5.1-11.51,11.7-11.49
			C642.72,93.02,647.58,97.91,647.52,104.58z"/>
		<path d="M121.72,600.38c-0.08-5.83,3.96-10.08,9.54-10.05c5.23,0.02,9.65,4.32,9.8,9.52c0.14,5.26-4.49,10.05-9.75,10.07
			C125.88,609.95,121.8,605.88,121.72,600.38z"/>
		<path class="st1" d="M669.28,50.83c10.84-0.02,19.76,8.86,19.9,19.82c0.14,11.03-9.02,20.21-20.05,20.09
			c-11.03-0.12-20.06-9.09-19.9-19.78C649.4,59.58,658.09,50.85,669.28,50.83z M678.32,71c0.06-5.25-3.86-9.61-8.81-9.79
			c-4.74-0.17-9.26,4.31-9.44,9.34c-0.17,5.03,4,9.51,8.99,9.66C674.16,80.36,678.25,76.29,678.32,71z"/>
		<g>
			<path d="M583.56,244.99l-0.47-4.71c0.66-1.24,0.44-6.48,1.67-7.14c0.48-0.07,2.45-0.16,2.95-0.07c0.95-0.29,8.5-1.64,9.33-1.59
				c1.43-0.36,3.07-0.41,4.36-0.59c2.1-0.28,11.34-1.36,13.28-1.62l0.81-0.11c2.61-0.19,3.9-0.36,6.67-0.57
				c2.12-0.12,4.45,0.06,6.9-0.11c3.44-0.13,6.84-1.74,10.26-2.04c1.98,0.06,5.54-0.42,6.91,1.21c1.57,3.08,2.83,6.37,2.97,9.8
				c0.02,0.16,0.22,1.62,0.26,1.94c-0.71,2.07-0.4,4.33-2.62,4.96c-1.11,0.31-2.15-0.04-2.87,0.72c-0.49,0.07-1.78,0.24-2.1,0.28
				c-2.12,0.12-4.15-0.26-6.27-0.14c-0.97,0.13-3.98,1.03-4.88,1.64c-1.32,0.01-6.81,0.75-7.94,0.91
				c-1.94,0.26-15.3,1.24-15.72,1.79c-4.02,0.71-9.57,2.28-13.81,2.52c-1.62,0.22-6.13-0.33-7.32-1.81
				C584.8,248.12,584.49,247.01,583.56,244.99z M588.91,239.5l0.07,0.48c0.81-0.11,1.18-0.98,1.08-1.79
				C589.22,238.14,588.78,238.53,588.91,239.5z M589.5,242.71c0.16-0.02,0.1-0.51-0.07-0.49
				C589.28,242.25,589.36,242.89,589.5,242.71z"/>
		</g>
		<g>
			<path d="M600.52,433.73l-0.47-4.71c0.66-1.24,0.44-6.48,1.67-7.14c0.48-0.07,2.45-0.16,2.95-0.07c0.95-0.29,8.5-1.64,9.33-1.59
				c1.43-0.36,3.07-0.41,4.36-0.59c2.1-0.28,11.34-1.36,13.28-1.62l0.81-0.11c2.61-0.19,3.9-0.36,6.67-0.57
				c2.12-0.12,4.45,0.06,6.9-0.11c3.44-0.13,6.84-1.74,10.26-2.04c1.98,0.06,5.54-0.42,6.91,1.21c1.57,3.08,2.83,6.37,2.97,9.8
				c0.02,0.16,0.22,1.62,0.26,1.94c-0.71,2.07-0.4,4.33-2.62,4.96c-1.11,0.31-2.15-0.04-2.87,0.72c-0.49,0.07-1.78,0.24-2.1,0.28
				c-2.12,0.12-4.15-0.26-6.27-0.14c-0.97,0.13-3.98,1.03-4.88,1.64c-1.32,0.01-6.81,0.75-7.94,0.91
				c-1.94,0.26-15.3,1.24-15.72,1.79c-4.02,0.71-9.57,2.28-13.81,2.52c-1.62,0.22-6.13-0.33-7.32-1.81
				C601.77,436.86,601.45,435.75,600.52,433.73z M605.87,428.24l0.07,0.48c0.81-0.11,1.18-0.98,1.08-1.79
				C606.18,426.88,605.74,427.27,605.87,428.24z M606.47,431.45c0.16-0.02,0.1-0.51-0.07-0.49
				C606.24,430.99,606.33,431.64,606.47,431.45z"/>
		</g>
		<g>
			<path d="M615.89,616.77l-0.47-4.71c0.66-1.24,0.44-6.48,1.67-7.14c0.48-0.07,2.45-0.16,2.95-0.07c0.95-0.29,8.5-1.64,9.33-1.59
				c1.43-0.36,3.07-0.41,4.36-0.59c2.1-0.28,11.34-1.36,13.28-1.62l0.81-0.11c2.61-0.19,3.9-0.36,6.67-0.57
				c2.12-0.12,4.45,0.06,6.9-0.11c3.44-0.13,6.84-1.74,10.26-2.04c1.98,0.06,5.54-0.42,6.91,1.21c1.57,3.08,2.83,6.37,2.97,9.8
				c0.02,0.16,0.22,1.62,0.26,1.94c-0.71,2.07-0.4,4.33-2.62,4.96c-1.11,0.31-2.14-0.04-2.87,0.72c-0.49,0.07-1.78,0.24-2.1,0.28
				c-2.12,0.12-4.15-0.26-6.27-0.14c-0.97,0.13-3.98,1.03-4.88,1.64c-1.32,0.01-6.81,0.75-7.94,0.91
				c-1.94,0.26-15.3,1.24-15.72,1.79c-4.02,0.71-9.57,2.28-13.81,2.52c-1.62,0.22-6.13-0.33-7.32-1.81
				C617.14,619.9,616.82,618.79,615.89,616.77z M621.24,611.28l0.07,0.48c0.81-0.11,1.18-0.98,1.08-1.79
				C621.55,609.92,621.11,610.31,621.24,611.28z M621.84,614.49c0.16-0.02,0.1-0.51-0.07-0.49
				C621.61,614.03,621.7,614.68,621.84,614.49z"/>
		</g>
	</g>
</g>
</svg>
