<?xml version="1.0" encoding="UTF-8" standalone="no"?>
<!-- Created with Inkscape (http://www.inkscape.org/) -->

<svg
   width="400"
   height="400"
   viewBox="0 0 105.83333 105.83333"
   version="1.1"
   id="svg1"
   inkscape:version="1.3.2 (091e20e, 2023-11-25)"
   sodipodi:docname="campaign.svg"
   xmlns:inkscape="http://www.inkscape.org/namespaces/inkscape"
   xmlns:sodipodi="http://sodipodi.sourceforge.net/DTD/sodipodi-0.dtd"
   xmlns="http://www.w3.org/2000/svg"
   xmlns:svg="http://www.w3.org/2000/svg">
  <sodipodi:namedview
     id="namedview1"
     pagecolor="#ffffff"
     bordercolor="#666666"
     borderopacity="1.0"
     inkscape:showpageshadow="2"
     inkscape:pageopacity="0.0"
     inkscape:pagecheckerboard="0"
     inkscape:deskcolor="#d1d1d1"
     inkscape:document-units="mm"
     inkscape:zoom="0.63325067"
     inkscape:cx="331.62223"
     inkscape:cy="255.03329"
     inkscape:window-width="1440"
     inkscape:window-height="760"
     inkscape:window-x="0"
     inkscape:window-y="25"
     inkscape:window-maximized="1"
     inkscape:current-layer="layer1" />
  <defs
     id="defs1" />
  <g
     inkscape:label="Layer 1"
     inkscape:groupmode="layer"
     id="layer1"
     transform="translate(-141.55208,-133.87917)">
    <g
       id="g11421"
       transform="matrix(1.3850248,0,0,1.3843363,1600.9081,1669.518)">
      <ellipse
         style="fill:#ff4401;stroke-width:2.00001;stroke-linecap:round;stroke-linejoin:round"
         id="ellipse3701"
         cx="-1015.4615"
         cy="-1070.2968"
         rx="38.206295"
         ry="37.45121" />
      <path
         style="color:#000000;fill:#ffffff;stroke-linecap:round;stroke-linejoin:round;-inkscape-stroke:none"
         d="m -1033.9883,-1077.5137 c -6.9901,0.5513 -12.0937,6.3907 -12.0937,6.3907 a 1.000105,1.000105 0 0 0 -0.2129,0.9589 l 4.5371,14.8848 a 1.000105,1.000105 0 0 0 0.8906,0.707 c 7.5833,0.5057 13.7695,-2.4726 13.7695,-2.4726 a 1.000105,1.000105 0 0 0 0.5137,-1.2266 l -6.3789,-18.5703 a 1.000105,1.000105 0 0 0 -1.0254,-0.6719 z m -0.5703,2.1836 5.7617,16.7754 c -1.05,0.4588 -5.3655,2.1838 -11.2695,1.9649 l -4.127,-13.5391 c 0.5315,-0.5582 4.4251,-4.4273 9.6348,-5.2012 z"
         id="path3698" />
      <path
         style="color:#000000;fill:#ffffff;stroke-linecap:round;stroke-linejoin:round;-inkscape-stroke:none"
         d="m -1044.0254,-1066.1523 -3.5703,1.0878 a 1.000105,1.000105 0 0 0 -0.6641,0.6641 c -0.8975,2.9226 0.4953,5.2565 1.5391,6.459 a 1.000105,1.000105 0 0 0 1.0469,0.3008 l 3.8808,-1.1836 a 1.000005,1.000005 0 0 0 0.666,-1.2481 1.000005,1.000005 0 0 0 -1.248,-0.664 l -3.1523,0.959 c -0.6359,-0.8534 -1.1135,-2.0278 -0.8165,-3.5762 l 2.9004,-0.8848 a 1.000005,1.000005 0 0 0 0.6661,-1.248 1.000005,1.000005 0 0 0 -1.2481,-0.666 z"
         id="path3695" />
      <path
         style="color:#000000;fill:#ffffff;stroke-linecap:round;stroke-linejoin:round;-inkscape-stroke:none"
         d="m -1027.7402,-1058.9238 a 1.000005,1.000005 0 0 0 -0.7676,1.1875 c 0,0 1.4054,6.0802 6.1836,11.8105 -1.0289,0.9739 -2.0015,1.6606 -2.9199,1.9434 -0.9286,0.2859 -1.8815,0.2117 -2.9532,-0.1133 0.1196,-5.7086 -2.373,-12.7891 -2.373,-12.7891 a 1.000005,1.000005 0 0 0 -1.2754,-0.6132 1.000005,1.000005 0 0 0 -0.6133,1.2753 c 0,0 2.6617,7.8252 2.3047,12.8418 a 1.000105,1.000105 0 0 0 0.6289,1 c 1.6643,0.6588 3.313,0.7903 4.8711,0.3106 1.5581,-0.4798 2.9831,-1.5206 4.4023,-3.0313 a 1.000105,1.000105 0 0 0 0.016,-1.3535 c -4.9763,-5.5329 -6.3164,-11.7031 -6.3164,-11.7031 a 1.000005,1.000005 0 0 0 -1.1875,-0.7656 z"
         id="path3692" />
      <path
         style="color:#000000;fill:#ffffff;stroke-linecap:round;stroke-linejoin:round;-inkscape-stroke:none"
         d="m -1028.8359,-1062.5508 a 1.000005,1.000005 0 0 0 -0.9297,1.0645 1.000005,1.000005 0 0 0 1.0644,0.9316 c 10.2106,-0.6881 21.4785,2.6641 21.4785,2.6641 a 1.000005,1.000005 0 0 0 1.2461,-0.6699 1.000005,1.000005 0 0 0 -0.6718,-1.2442 c 0,0 -11.4489,-3.4698 -22.1875,-2.7461 z"
         id="path3689" />
      <path
         style="color:#000000;fill:#ffffff;stroke-linecap:round;stroke-linejoin:round;-inkscape-stroke:none"
         d="m -1017.0352,-1095.7578 a 1.000005,1.000005 0 0 0 -1.3613,0.3887 c 0,0 -6.3371,11.3391 -15.5644,19.8691 a 1.000005,1.000005 0 0 0 -0.057,1.4141 1.000005,1.000005 0 0 0 1.4141,0.055 c 9.5396,-8.8186 15.9551,-20.3652 15.9551,-20.3652 a 1.000005,1.000005 0 0 0 -0.3868,-1.3613 z"
         id="path3686" />
      <path
         style="color:#000000;fill:#ffffff;stroke-linecap:round;stroke-linejoin:round;-inkscape-stroke:none"
         d="m -1017.0898,-1095.7852 a 1.000105,1.000105 0 0 0 -1.2325,0.3028 c -0.6533,0.8719 -0.6274,1.8635 -0.5781,3.1816 0.049,1.3181 0.263,2.9403 0.5938,4.7774 0.6615,3.6741 1.7996,8.1981 3.1074,12.5898 1.3078,4.3917 2.7815,8.6414 4.1289,11.7695 0.6737,1.5641 1.3086,2.8421 1.9199,3.7637 0.3057,0.4608 0.5963,0.8354 0.9629,1.1348 0.357,0.2916 0.9442,0.5589 1.5547,0.3574 0.8072,-0.2488 1.1237,-0.9522 1.3008,-1.5859 0.1803,-0.6454 0.2527,-1.3941 0.2812,-2.25 0.057,-1.7118 -0.093,-3.8399 -0.3125,-5.9473 -0.4385,-4.2149 -1.166,-8.3262 -1.166,-8.3262 a 1.000105,1.000105 0 0 0 -0.027,-0.1133 c 0,0 -1.2545,-4.1963 -3.1524,-8.7129 -0.9489,-2.2582 -2.0568,-4.6004 -3.2754,-6.5703 -1.2186,-1.9699 -2.502,-3.6009 -4.1054,-4.3711 z m 0.2519,2.7305 c 0.695,0.6659 1.4289,1.522 2.1524,2.6914 1.1299,1.8266 2.2086,4.0936 3.1328,6.293 1.8391,4.3766 3.052,8.4294 3.0644,8.4707 0.012,0.069 0.7116,4.0294 1.1367,8.1152 0.2144,2.0607 0.354,4.1381 0.3028,5.6739 -0.023,0.6936 -0.1018,1.2238 -0.1914,1.6054 -0.089,-0.1098 -0.1384,-0.1412 -0.2442,-0.3008 -0.4869,-0.734 -1.0999,-1.9446 -1.748,-3.4492 -1.2962,-3.0091 -2.7577,-7.2131 -4.0488,-11.5488 -1.2912,-4.3357 -2.4155,-8.8138 -3.0567,-12.375 -0.3206,-1.7806 -0.5191,-3.3349 -0.5625,-4.4961 -0.015,-0.4136 0.029,-0.3812 0.062,-0.6797 z"
         id="path3683" />
      <g
         id="path8962-1">
        <path
           style="color:#000000;fill:#ffffff;stroke-width:2.00001;stroke-linecap:round;stroke-linejoin:round;-inkscape-stroke:none"
           d="m -1014.8614,-1078.8122 c 0,0 10.4506,-6.59 12.332,0.3672 1.8813,6.9573 -9.9555,7.5481 -9.9555,7.5481"
           id="path3680" />
        <path
           style="color:#000000;fill:#ffffff;stroke-linecap:round;stroke-linejoin:round;-inkscape-stroke:none"
           d="m -1007.3203,-1082.623 c -0.7917,0.052 -1.5827,0.212 -2.3438,0.4199 -3.044,0.8314 -5.7304,2.5449 -5.7304,2.5449 a 1.000005,1.000005 0 0 0 -0.3125,1.3789 1.000005,1.000005 0 0 0 1.3789,0.3125 c 0,0 2.5398,-1.5824 5.1914,-2.3066 1.3258,-0.3622 2.6504,-0.481 3.6094,-0.2032 0.9589,0.2779 1.6341,0.8173 2.0332,2.293 0.4004,1.4808 0.099,2.3993 -0.5723,3.2207 -0.6715,0.8214 -1.8203,1.4921 -3.0859,1.9649 -2.5314,0.9454 -5.3829,1.1015 -5.3829,1.1015 a 1.000005,1.000005 0 0 0 -0.9492,1.0488 1.000005,1.000005 0 0 0 1.0489,0.9493 c 0,0 3.0676,-0.1373 5.9843,-1.2266 1.4584,-0.5447 2.9149,-1.3261 3.9336,-2.5723 1.0188,-1.2461 1.4934,-3.0099 0.9531,-5.0078 -0.5416,-2.0029 -1.8785,-3.2501 -3.4082,-3.6933 -0.7648,-0.2217 -1.5559,-0.277 -2.3476,-0.2246 z"
           id="path3677" />
      </g>
      <g
         id="path8964-5">
        <path
           style="color:#000000;fill:#000000;stroke-width:2.00001;stroke-linecap:round;stroke-linejoin:round;-inkscape-stroke:none"
           d="m -1010.313,-1095.4113 7.2779,-12.8846"
           id="path3674" />
        <path
           style="color:#000000;fill:#000000;stroke-linecap:round;stroke-linejoin:round;-inkscape-stroke:none"
           d="m -1003.3027,-1109.2598 a 1.000005,1.000005 0 0 0 -0.6035,0.4727 l -7.2774,12.8848 a 1.000005,1.000005 0 0 0 0.3789,1.3613 1.000005,1.000005 0 0 0 1.3633,-0.3789 l 7.2773,-12.8848 a 1.000005,1.000005 0 0 0 -0.3789,-1.3613 1.000005,1.000005 0 0 0 -0.7597,-0.094 z"
           id="path3671" />
      </g>
      <g
         id="path8966-9">
        <path
           style="color:#000000;fill:#000000;stroke-width:2.00001;stroke-linecap:round;stroke-linejoin:round;-inkscape-stroke:none"
           d="m -999.36392,-1084.8472 7.98987,-5.9082"
           id="path3668" />
        <path
           style="color:#000000;fill:#000000;stroke-linecap:round;stroke-linejoin:round;-inkscape-stroke:none"
           d="m -991.22656,-1091.7441 a 1.000005,1.000005 0 0 0 -0.74219,0.1855 l -7.99023,5.9082 a 1.000005,1.000005 0 0 0 -0.20902,1.3984 1.000005,1.000005 0 0 0 1.39847,0.209 l 7.99023,-5.9082 a 1.000005,1.000005 0 0 0 0.20899,-1.3984 1.000005,1.000005 0 0 0 -0.65625,-0.3945 z"
           id="path3665" />
      </g>
      <g
         id="path8968-7">
        <path
           style="color:#000000;fill:#000000;stroke-width:2.00001;stroke-linecap:round;stroke-linejoin:round;-inkscape-stroke:none"
           d="m -998.6886,-1067.0924 17.18969,8.7381"
           id="path3662" />
        <path
           style="color:#000000;fill:#000000;stroke-linecap:round;stroke-linejoin:round;-inkscape-stroke:none"
           d="m -998.23633,-1067.9844 a 1.000005,1.000005 0 0 0 -1.34375,0.4395 1.000005,1.000005 0 0 0 0.4375,1.3437 l 17.19141,8.7383 a 1.000005,1.000005 0 0 0 1.34375,-0.4375 1.000005,1.000005 0 0 0 -0.4375,-1.3457 z"
           id="path3659" />
      </g>
    </g>
  </g>
</svg>
