<?xml version="1.0" encoding="UTF-8" standalone="no"?>
<!-- Generator: Adobe Illustrator 26.3.1, SVG Export Plug-In . SVG Version: 6.00 Build 0)  -->

<svg
   version="1.1"
   id="Calque_1"
   x="0px"
   y="0px"
   viewBox="0 0 1267.32 706.75"
   style="enable-background:new 0 0 1267.32 706.75;"
   preserveAspectRatio="none"
   xml:space="preserve"
   sodipodi:docname="FOND-180.svg"
   inkscape:version="1.3.2 (091e20e, 2023-11-25)"
   xmlns:inkscape="http://www.inkscape.org/namespaces/inkscape"
   xmlns:sodipodi="http://sodipodi.sourceforge.net/DTD/sodipodi-0.dtd"
   xmlns="http://www.w3.org/2000/svg"
   xmlns:svg="http://www.w3.org/2000/svg"><defs
   id="defs1" /><sodipodi:namedview
   id="namedview1"
   pagecolor="#ffffff"
   bordercolor="#666666"
   borderopacity="1.0"
   inkscape:showpageshadow="2"
   inkscape:pageopacity="0.0"
   inkscape:pagecheckerboard="0"
   inkscape:deskcolor="#d1d1d1"
   inkscape:zoom="0.33392289"
   inkscape:cx="634.87712"
   inkscape:cy="353.375"
   inkscape:window-width="1440"
   inkscape:window-height="757"
   inkscape:window-x="0"
   inkscape:window-y="25"
   inkscape:window-maximized="1"
   inkscape:current-layer="Calque_1" />
<style
   type="text/css"
   id="style1">
	.st0{fill:#FCF5EF;}
</style>
<g
   id="g1"
   transform="rotate(-179.17393,633.65956,353.37248)">
	<path
   class="st0"
   d="m 920.29,9.98 173.58,3.68 c 47.58,21.54 99.46,14.43 148.97,31.9 23.92,4.62 16.81,78.38 17.97,111.26 0,0 1.41,20.56 1.32,24.67 1.85,0.04 5.19,16.53 5.19,16.53 -1.13,53.36 -13.43,110.59 -14.47,159.85 -0.35,16.42 3.08,28.81 2.56,53.44 -2,94.41 -8.04,205.16 -58.34,224.62 l -20.31,-0.43 c -33.41,7.51 -57.85,27.52 -91.09,26.81 -60.94,-1.29 -123.64,-6.73 -184.58,-8.02 -3.69,-0.08 -25.68,-8.76 -33.07,-8.91 -1.76,-4.14 -14.51,-12.63 -16.36,-12.67 -1.85,-0.04 -9.41,8.01 -11.34,12.08 -27.96,11.73 -59.35,11.06 -88.9,10.44 -1.85,-0.04 -10.99,-4.34 -14.69,-4.42 l -75.71,-1.6 c -3.69,-0.08 -18.29,-8.6 -18.29,-8.6 -1.85,-0.04 -13.1,7.94 -14.95,7.9 l -3.69,-0.08 -54.96,-21.7 c -5.54,-0.12 -51.79,3.01 -57.25,-1.21 -3.69,-0.08 -22.16,-0.47 -27.61,-4.69 -1.85,-0.04 -12.75,-8.48 -14.6,-8.52 l -3.69,-0.08 -384.43,94.52 C 18.77,705.41 -1.87,458.58 0.13,364.17 2.65,245.13 37.09,102.14 98.29,91.11 L 513.5,25.99 c 3.69,0.08 107.28,-5.94 149.84,-9.14 l 24.01,0.51 C 702.12,17.67 820.74,-0.35 837.36,0 l 5.54,0.12 c 7.39,0.16 70,9.7 77.39,9.86 z"
   id="path1" />
</g>
</svg>
