<?xml version="1.0" encoding="utf-8"?>
<!-- Generator: Adobe Illustrator 27.9.5, SVG Export Plug-In . SVG Version: 9.03 Build 54986)  -->
<svg version="1.1" id="Calque_1" xmlns="http://www.w3.org/2000/svg" xmlns:xlink="http://www.w3.org/1999/xlink" x="0px" y="0px"
	 viewBox="0 0 1061 1513" style="enable-background:new 0 0 1061 1513;" xml:space="preserve">
<style type="text/css">
	.st0{fill:#FFFFFF;filter:url(#Adobe_OpacityMaskFilter);}
	.st1{mask:url(#mask0_441_2_00000160874003576278881570000006115236750499877253_);}
	.st2{fill:#FFF0E3;}
	.st3{fill:#100F0D;}
	.st4{fill:#FFF0E3;stroke:#000000;stroke-width:10;}
	.st5{fill:#FFFFFF;filter:url(#Adobe_OpacityMaskFilter_00000033371259293040007980000010685671075355637916_);}
	.st6{mask:url(#mask1_441_2_00000047061315423884646100000012460927510336531089_);}
	.st7{fill:#FC4503;}
	.st8{fill:#FFFFFF;filter:url(#Adobe_OpacityMaskFilter_00000127016996293141816370000011126825809260164489_);}
	.st9{mask:url(#mask2_441_2_00000165208075685972546840000000300423443885477800_);}
</style>
<g class="st1">
	<path class="st2" d="M5.34,14.41C19.55,1.65,75.98,9.85,93.15,8.03c18.25-2.12,36.27,5.16,54.51,4.55
		c23.12-0.91,46.24-3.64,69.15-6.37c58.33-6.38,116.24,3.34,174.78,3.34c22.06,0,44.55-1.22,66.61,0
		c27.36,1.52,54.73-5.47,82.09-3.95c39.02,2.12,77.21-7.89,115.81-2.12c48.78,6.98,99.69,1.51,148.69,1.51
		c60.03,0,119.21,9.41,179.02,3.03c16.12-1.82,32.25,1.52,48.37-1.21c4.45-0.61,14.63-4.86,19.09,0
		c0.63,0.61,5.3,328.72,3.39,380.02c-3.39,90.76-1.91,180.3-1.91,271.05c0,114.44,3.82,228.86,0.21,343
		c-1.9,61.92,1.7,123.84,3.4,185.76c1.06,34.29-3.18,68.59-1.7,102.9c2.33,50.39-2.33,101.68-1.27,152.37
		c0.21,11.23,10.6,62.22,0,67.99c-5.09,2.73-344.9-3.64-413.41,0c-29.91,1.52-219.75-3.94-350.41-0.3S3.43,1512.03,1.52,1509
		c-1.69-2.73,0-57.98,1.91-70.73c8.27-51.29-5.52-261.64-0.42-313.54c8.27-83.77-7-261.35-0.21-408.56
		c6.78-147.21-2.54-243.73-0.85-311.73C3.64,336.45,2.58,19.86,5.55,14.71"/>
</g>
</svg>