<?xml version="1.0" encoding="utf-8"?>
<!-- Generator: Adobe Illustrator 27.9.5, SVG Export Plug-In . SVG Version: 9.03 Build 54986)  -->
<svg version="1.1" id="Calque_1" xmlns="http://www.w3.org/2000/svg" xmlns:xlink="http://www.w3.org/1999/xlink" x="0px" y="0px"
	 viewBox="0 0 595.28 595.28" style="enable-background:new 0 0 595.28 866.32;" xml:space="preserve">
<style type="text/css">
	.st0{fill:#E6BC9D;}
	.st1{fill:#E7B551;stroke:#1D1D1B;stroke-miterlimit:10;}
	.st2{fill:#E7B551;}
	.st3{fill:#DAB396;}
	.st4{fill:#232323;}
	.st5{fill:#010202;stroke:#000000;stroke-miterlimit:10;}
	.st6{fill:#325626;}
	.st7{fill:#D75530;}
	.st8{fill:#D44428;}
	.st9{fill:#E5BB9E;}
	.st10{fill:#325727;}
	.st11{fill:#E5775E;}
	.st12{fill:#010101;}
	.st13{fill:none;stroke:#754D24;stroke-miterlimit:10;}
	.st14{fill:#F2F2F2;}
	.st15{fill:#1D1D1B;}
	.st16{fill:#F9B03D;}
	.st17{opacity:0.19;fill:#54A4DB;enable-background:new    ;}
	.st18{fill:#CDCCCC;}
	.st19{fill:none;stroke:#B4B4B4;stroke-width:3;stroke-miterlimit:10;}
	.st20{display:none;fill:#936037;}
	.st21{display:none;fill:#344F3F;}
	.st22{display:none;fill:#3C5F4B;}
	.st23{fill:#E0BDA1;}
	.st24{fill:#E0B662;stroke:#000000;stroke-miterlimit:10;}
	.st25{fill:#E0B662;}
	.st26{fill:#D4B39A;}
	.st27{fill:#010202;}
	.st28{fill:#3A552C;}
	.st29{fill:#E4DAC1;}
	.st30{fill:#D1C6AA;}
	.st31{fill:#C6C6C6;}
	.st32{display:none;fill:#8C613E;}
	.st33{fill:#B2B2B2;}
	.st34{fill:#575756;}
	.st35{display:none;fill:#FFF2A5;}
	.st36{display:none;fill:#E8DB96;}
	.st37{opacity:0.41;fill:#DADADA;enable-background:new    ;}
	.st38{opacity:0.41;fill:#C7C6C6;enable-background:new    ;}
	.st39{fill:#E3E4E4;}
	.st40{fill:#D8D8D8;}
	.st41{fill:#DFBCA1;}
	.st42{fill:#E0B562;stroke:#1D1D1B;stroke-miterlimit:10;}
	.st43{fill:#E0B562;}
	.st44{fill:#D4B399;}
	.st45{fill:#FFFFFF;}
	.st46{fill:#F4F4F4;}
	.st47{fill:#EA5328;}
	.st48{fill:#CA9678;}
	.st49{fill:#A16E51;}
	.st50{fill:#E04B28;}
	.st51{fill:#C38F72;}
	.st52{fill:#93624A;}
	.st53{fill:#D6411E;}
	.st54{display:none;fill:#8B613E;}
	.st55{display:none;fill:#3A4E40;}
	.st56{display:none;fill:#445D4C;}
	.st57{display:none;}
	.st58{fill:#C49F6E;}
	.st59{fill:#E3C6A3;}
	.st60{fill:#DF7A6B;}
	.st61{fill:#DB664B;}
	.st62{display:none;fill:#445E4C;}
	.st63{fill:#D1A67C;}
	.st64{fill:#E3DAC1;}
	.st65{fill:#D1C5A9;}
	.st66{fill:#468B56;}
	.st67{fill:#4D9A5D;}
	.st68{fill:#56A76C;}
	.st69{fill:#CFCFCF;}
	.st70{fill:#8A613D;}
	.st71{fill:#51653D;}
	.st72{fill:#D02D26;}
	.st73{fill:#BC3539;}
	.st74{fill:#D9D9D9;}
	.st75{fill:#C6C6C5;}
	.st76{fill:#474746;}
	.st77{fill:#A2A1A1;}
	.st78{fill:#D2D2D2;}
	.st79{fill:#BEBDBD;}
	.st80{fill:#D23A2F;}
</style>
<g>
	<g id="corps_00000068657371569527468930000014790580835271351696_">
		<path class="st0" d="M306.7,595.59H106.87c2.13-27.13,9.02-65.42,30.48-105.33c6.74-12.53,13.99-23.51,21.17-33.02
			c10.57-7.34,23.82-14.98,39.8-21.17c45.17-17.49,86.41-13.35,108.38-9.31V595.59L306.7,595.59z"/>
		<path class="st0" d="M306.7,426.75v-82.13h-52.5c4.58,12.49,8.92,28.55,10.29,47.42c0.95,13.05,0.29,24.75-1.03,34.72"/>
		<path class="st0" d="M237,196.52c-13.85,0-27.17-0.53-40.72-0.82c-10.1,18.16-16.13,38.6-16.96,59.58
			c-2.8,70.53,53.49,137.92,127.54,138.43V198.47c-10.12-0.18-20.37-1-30.86-2.95C263,192.52,250,196.52,237,196.52L237,196.52z"/>
		<path class="st0" d="M306.01,127.85c-47.87,0.62-88.12,28.99-109.74,67.86c13.56,0.29,26.88,0.82,40.72,0.82c13,0,26-4,39-1
			c10.49,1.95,20.74,2.77,30.86,2.95v-70.63C306.57,127.85,306.29,127.85,306.01,127.85L306.01,127.85z"/>
		<path class="st3" d="M306.01,595.59h199.83c-2.13-27.13-9.02-65.42-30.48-105.33c-6.74-12.53-13.99-23.51-21.17-33.02
			c-10.57-7.34-23.82-14.98-39.8-21.17c-45.17-17.49-86.41-13.35-108.38-9.31V595.59L306.01,595.59z"/>
		<path class="st4" d="M299.36,114.29c-13.82,0.32-36.25,2.74-59.62,15.03c-50.5,26.57-66.56,78.81-73.09,100.05
			c-15.94,51.85-6.09,96.88,0,117.68c0,0,9.33,102.12,10.37,105.23l26.67-3.11l60.18-24.58l3.22-4.45v-26.42
			c-1.07-2.74-2.13-5.48-3.2-8.22c-12.24-5.59-28.37-14.85-43.87-30.13c-5.68-5.6-18.09-18.03-27.26-36.78
			c-3.78-7.73-6.2-14.89-7.29-18.29c-1.41-4.42-3.11-9.77-4-15.86c-0.88-6.03-1.46-16.2,2.27-29.16l2.78-19.18l1.37-6.74
			c4.47-1.19,11.12-2.97,19.18-5.18c20.64-5.66,31.09-8.54,37.32-10.89c6.94-2.61,19.65-7.5,33.9-17.38
			c12.52-8.68,21.51-17.94,27.55-25.13v-56.51h-6.5L299.36,114.29z"/>
		<path class="st3" d="M306.01,426.75v-82.13h52.5c-4.58,12.49-8.92,28.55-10.29,47.42c-0.95,13.05-0.29,24.75,1.03,34.72"/>
		<path class="st3" d="M433.4,255.28c-0.8-20.09-6.36-39.68-15.7-57.25c-5.86-0.55-12.1-0.71-17.71-1.51
			c-32.09-3.06-62.43,2.64-94.14,1.93v195.26c74.06-0.51,130.34-67.9,127.54-138.43H433.4z"/>
		<path class="st3" d="M400,196.52c5.61,0.8,11.85,0.97,17.71,1.51c-21.28-40.06-62.18-69.56-111-70.19c-0.28,0-0.56,0-0.85,0v70.6
			C337.57,199.15,367.91,193.46,400,196.52L400,196.52z"/>
		<ellipse class="st0" cx="186.53" cy="259.4" rx="17.16" ry="20.53"/>
		<path class="st4" d="M162.57,244.92c34.46-1.44,110.47-9.22,137.53-59.36c1.27-2.34,2.43-4.79,3.48-7.34l2.44-4.75v-59.18
			l-62.98,22.62l-49.51,50.58L162.57,244.92L162.57,244.92z"/>
		<path class="st5" d="M312.51,114.29c13.82,0.32,36.25,2.74,59.62,15.03c50.5,26.57,66.56,78.81,73.09,100.05
			c15.94,51.85,6.09,96.88,0,117.68c0,0-9.33,102.12-10.37,105.23l-26.67-3.11L348,424.59l-3.22-4.45v-26.42l3.2-8.22
			c5.1-2.92,54.88-31.9,72.73-68.5c8.23-16.87,9.68-32.55,9.68-32.55c1.14-12.31-0.61-22.52-2.27-29.16l-2.78-19.18l-1.37-6.74
			c-4.47-1.19-11.12-2.97-19.18-5.18c-20.64-5.66-31.09-8.54-37.32-10.89c-6.94-2.61-19.65-7.5-33.9-17.38
			c-12.52-8.68-21.51-17.94-27.55-25.13v-56.51h6.5L312.51,114.29z"/>
		<ellipse class="st3" cx="427.64" cy="259.4" rx="17.16" ry="20.53"/>
		<path class="st5" d="M449.3,244.92c-34.46-1.44-110.47-9.22-137.53-59.36c-1.27-2.34-2.43-4.79-3.48-7.34l-2.44-4.75v-59.18
			l62.98,22.62l49.51,50.58L449.3,244.92L449.3,244.92z"/>
	</g>
	<g id="yeux_00000166633613851399952790000005373946960230587272_">
		<ellipse cx="254.21" cy="267.03" rx="12.89" ry="27.68"/>
		<ellipse cx="358.51" cy="267.03" rx="12.89" ry="27.68"/>
	</g>
	<g id="TSHIRT_00000070088927766520482800000004798941333183925432_">
		<path class="st7" d="M263.87,423.26v1.34c0,20.05,16.45,36.3,36.75,36.3h6.23v134.69H103.18l14.7-92.9
			c1.47-6.37,4.35-15.58,10.39-25.32c2.12-3.41,9.97-15.51,28.66-28.13c28-18.91,63.81-24.61,73.69-26.02"/>
		<path class="st8" d="M348.51,423.26v1.34c0,20.05-16.45,36.3-36.75,36.3h-5.74c0,44.9,0.01,89.79,0.02,134.69h203.17l-14.7-92.9
			c-1.47-6.37-4.35-15.58-10.39-25.32c-2.12-3.41-9.97-15.51-28.66-28.13c-28-18.91-63.81-24.61-73.69-26.02"/>
		<path class="st9" d="M460.7,523.12c32.78,6.24,58.18,23.34,69.99,42.56c-9.32-1.57-18.49-3.01-27.99-4.74
			c-8.91-1.62-17.52-4.95-26.67-5.3c-7.34-0.48-14.44-1.41-21.39-2.6l5.47-30.04c0.19,0.04,0.39,0.07,0.58,0.11L460.7,523.12z"/>
		<path class="st9" d="M459.51,523.05c-32.87-5.72-62.68,1.32-80.51,15.15c9.28,1.82,18.37,3.7,27.86,5.43
			c8.91,1.62,18.14,1.55,26.82,4.45c7.04,2.14,14.01,3.77,20.93,5.11l5.47-30.04c-0.19-0.03-0.39-0.07-0.58-0.11L459.51,523.05z"/>
		<path class="st11" d="M439.14,521.02l-0.13,0.73c-2.01,11.03,3.89,21.34,13.17,23.04l2.85,0.52c-4.5,24.71-9,49.41-13.5,74.12
			c-31.05-5.66-62.11-11.31-93.16-16.97l16.04-49.9c1.31-3.38,3.55-8.21,7.29-13.07c1.31-1.7,6.11-7.7,15.93-13.09
			c14.7-8.07,31.65-8.22,36.32-8.18"/>
		<path class="st7" d="M478.6,528.06l-0.13,0.73c-2.01,11.03-11.16,18.6-20.45,16.91l-2.85-0.52c-4.5,24.71-9,49.41-13.5,74.12
			c31.05,5.66,62.11,11.31,93.16,16.97l2.59-52.35c-0.03-3.63-0.43-8.93-2.22-14.8c-0.63-2.05-3.01-9.36-10.29-17.87
			c-10.91-12.74-26.72-18.86-31.1-20.46"/>
		<path class="st9" d="M514.56,443.88c7.83,1.43,15.4,2.56,23.09,3.82c4.21,9.28,5.93,19.18,4.66,28.79
			c-4.25,32.3-41.65,57.09-83.56,49.7l16.14-88.62c5.74,0.96,11.6,1.64,17.69,1.84c7.6-0.02,14.62,3.13,21.97,4.47H514.56z"/>
		<path class="st9" d="M481.22,405.6c27.02,5.21,47.43,22.24,56.44,42.1c-7.69-1.27-15.26-2.4-23.09-3.82
			c-7.35-1.34-14.37-4.49-21.97-4.47c-6.09-0.19-11.96-0.88-17.69-1.84l5.84-32.06C480.91,405.54,481.07,405.57,481.22,405.6
			L481.22,405.6z"/>
		<path class="st9" d="M435.79,429.62c-7.83-1.43-15.32-3.04-22.96-4.56c-7.21,7.2-12.31,15.86-14.52,25.3
			c-7.41,31.73,18.84,68.11,60.67,75.97l16.14-88.62c-5.7-1.13-11.43-2.55-17.2-4.52C450.82,430.49,443.14,430.97,435.79,429.62
			L435.79,429.62z"/>
		<path class="st9" d="M480.48,405.55c-27.12-4.65-52.22,4.08-67.66,19.5c7.64,1.53,15.13,3.14,22.96,4.56
			c7.35,1.34,15.03,0.86,22.13,3.56c5.77,1.97,11.5,3.39,17.2,4.52l5.84-32.06c-0.16-0.03-0.32-0.06-0.48-0.09L480.48,405.55z"/>
		
			<ellipse transform="matrix(0.1791 -0.9838 0.9838 0.1791 -76.5405 813.8917)" class="st12" cx="449.47" cy="452.81" rx="12.77" ry="6.57"/>
		<path class="st7" d="M460.54,510.29c-0.43,0-1.09,0-1.89-0.07c-1.69-0.16-2.14-0.45-3.15-0.57c-1.21-0.15-2.51,0.22-5.07,0.98
			c-1.48,0.44-1.4,0.49-3.18,1.05c-2.84,0.9-4.26,1.35-5.69,1.41c-0.98,0.04-2.79,0.1-4.73-0.86c-0.51-0.25-1.5-0.75-2.39-1.79
			c-0.32-0.38-0.81-1.07-1.58-3.27c-0.47-1.35-0.9-2.61-1.12-4.28c-0.26-1.96-0.03-3.66,0.46-6.98c0.28-1.93,0.57-3.33,0.96-5.26
			c0.57-2.8,0.86-4.2,1.32-5.73c0.88-2.92,1.38-4.64,2.82-6.55c1.5-1.98,3.13-3.1,3.92-3.63c0.76-0.51,1.9-1.27,3.59-1.79
			c0.79-0.25,1.77-0.55,3.08-0.52c1.69,0.03,2.92,0.56,3.89,0.98c1.76,0.76,2.9,1.71,3.18,1.94c1.79,1.51,1.48,2.18,3.32,4.14
			c1.86,1.98,3.73,2.95,4.3,3.23c1.63,0.8,3.11,1.14,4.11,1.29l-4.92,27.01l0.08-0.46"/>
		
			<ellipse transform="matrix(0.1791 -0.9838 0.9838 0.1791 -48.1687 863.7503)" class="st12" cx="493.53" cy="460.74" rx="12.77" ry="6.57"/>
		<path class="st8" d="M462.95,510.65c0.4,0.16,1.02,0.39,1.79,0.6c1.64,0.45,2.16,0.34,3.15,0.57c1.18,0.29,2.27,1.09,4.4,2.7
			c1.23,0.93,1.14,0.95,2.6,2.1c2.34,1.84,3.51,2.76,4.83,3.32c0.9,0.38,2.57,1.07,4.73,0.86c0.57-0.06,1.67-0.17,2.87-0.84
			c0.44-0.24,1.14-0.71,2.63-2.51c0.91-1.1,1.76-2.13,2.56-3.61c0.93-1.74,1.31-3.41,2.03-6.69c0.42-1.9,0.65-3.32,0.96-5.26
			c0.45-2.82,0.68-4.23,0.79-5.83c0.21-3.04,0.34-4.83-0.33-7.12c-0.7-2.38-1.83-4-2.39-4.78c-0.53-0.75-1.33-1.86-2.72-2.94
			c-0.65-0.51-1.47-1.14-2.7-1.58c-1.59-0.57-2.93-0.51-3.99-0.46c-1.91,0.09-3.32,0.57-3.66,0.69c-2.21,0.78-2.15,1.52-4.57,2.7
			c-2.44,1.19-4.53,1.44-5.16,1.5c-1.81,0.18-3.31-0.03-4.3-0.24l-4.92,27.01l0.08-0.46"/>
		<path class="st13" d="M450.35,493.9c-1.33,0.6-3.17,1.67-4.64,3.61c-4.29,5.63-1.41,13.15-1.12,13.87
			c3.18,7.9,11.94,10.04,13.57,10.45c0.88,0.21,12.11,2.88,19.56-4.41c0.71-0.69,7.27-7.29,4.83-13.66
			c-1.05-2.74-3.34-4.32-4.7-5.08"/>
		<path class="st14" d="M466.05,487.53c-1.08-0.39-4.27-1.39-8.1-0.25c-1.4,0.42-5.71,1.63-7.24,5.47
			c-1.97,4.94,2.38,9.94,2.96,10.59c3.22,3.59,7.5,4.18,8.72,4.3"/>
		<path class="st14" d="M465.37,487.33c1.15,0.02,4.49,0.21,7.67,2.62c1.17,0.88,4.77,3.54,4.85,7.67c0.1,5.32-5.73,8.46-6.5,8.86
			c-4.28,2.23-8.49,1.27-9.68,0.95"/>
		<path class="st15" d="M481.09,415.39c-0.46,0.02-4.46,0.12-6.94-3.01c-2.42-3.07-1.46-6.79-1.19-7.79c0.83-3.19,3-5.03,4.6-6.36
			c6.32-5.22,14.26-4.59,16.28-4.36c0.9,0.1,6.2,0.2,6.49,1.7c0.09,0.5-0.36,1.16-0.85,1.49c-0.76,0.52-1.7,0.32-2.23,0.21
			c-1.69-0.33-3.43-0.35-5.11-0.74c-2.31-0.54-4.18,0-7.55,0.96c-4.08,1.16-8.15,2.31-9.36,5.64c-0.74,2.03-0.1,4.01,0.11,4.57
			c0.73,1.98,2.47,3.76,4.2,4.54c0.02,0,0.99,0.44,2.18,1.21c1.37,0.88,1.4,1.16,1.38,1.28c-0.1,0.55-1.8,0.65-2,0.67L481.09,415.39
			z"/>
	</g>
	<g id="Calque_8_00000090293438959060569990000017259010857295446182_">
		<g id="Calque_12_00000113332172135951692200000003068557015645217432_">
			<path class="st16" d="M99.37,506.79c-0.34-0.39-1.94-2.33-1.97-5.35c-0.02-2.56,1.1-4.88,2.62-6.12c1.11-0.9,2.39-1.19,3.93-1.53
				c1.92-0.43,2.38-0.12,3.28-0.76c1.63-1.18,1.94-3.56,1.97-3.82c0.15-1.29-0.14-2.28-0.66-3.82c-1.38-4.11-2.22-4.78-2.62-6.88
				c-0.18-0.95-0.69-3.82,0.66-6.12c1.28-2.18,3.57-2.69,5.24-3.06c1.96-0.43,3.6-0.21,4.59,0c0.35-0.01,0.69-0.02,1.04-0.03
				c-0.02,12.41-0.04,24.83-0.06,37.24L99.37,506.79L99.37,506.79z"/>
			<path class="st17" d="M117.39,638.4V530.11c-0.98,0.38-28.26,0-28.26,0l-4.57,4.21l-1.16,4.38l0.97,4.64l3.2,10.09l2.62,8.41
				l0.19,10.65l-3.42,12.88l-3.44,13.61l-3.19,10.3v4.15l1.52,7.42l2.1,8.57l2.31,6.58l3.72,1.53l25.48,0.89h1.93L117.39,638.4z"/>
			<path class="st18" d="M91.56,530.11v-16.72c0-3.78,2.63-6.84,5.87-6.84h19.97v24.71l-25.83-1.15H91.56z"/>
			<path class="st19" d="M117.39,637.89h-25.6c-3.41,0-6.4-2.63-7.34-6.45l-3.82-15.58c-0.39-1.59-0.39-3.27,0-4.86l5.31-22.03
				l4.07-14.25c0.34-1.19,0.46-2.45,0.35-3.7l-1.04-12.18c-0.07-0.8-0.23-1.59-0.48-2.34l-4.02-12.06c-0.13-0.38-0.27-0.74-0.44-1.1
				l0,0c-2.83-5.94,0.85-13.23,6.67-13.23h26.35"/>
			<path class="st16" d="M135.42,506.79c0.34-0.39,1.94-2.33,1.97-5.35c0.02-2.56-1.1-4.88-2.62-6.12c-1.11-0.9-2.39-1.19-3.93-1.53
				c-1.92-0.43-2.38-0.12-3.28-0.76c-1.63-1.18-1.94-3.56-1.97-3.82c-0.15-1.29,0.14-2.28,0.66-3.82c1.38-4.11,2.22-4.78,2.62-6.88
				c0.18-0.95,0.69-3.82-0.66-6.12c-1.28-2.18-3.57-2.69-5.24-3.06c-1.96-0.43-3.6-0.21-4.59,0c-0.31-0.01-0.62-0.02-0.93-0.03
				c-0.02,12.41-0.04,24.83-0.06,37.24L135.42,506.79L135.42,506.79z"/>
			<path class="st17" d="M117.39,638.4V530.11c0.98,0.38,28.26,0,28.26,0l4.57,4.21l1.16,4.38l-0.97,4.64l-3.2,10.09l-2.62,8.41
				l-0.19,10.65l3.42,12.88l3.44,13.61l3.19,10.3v4.15l-1.52,7.42l-2.1,8.57l-2.31,6.58l-3.72,1.53l-25.48,0.89h-1.93L117.39,638.4z
				"/>
			<path class="st18" d="M143.23,530.11v-16.72c0-3.78-2.63-6.84-5.87-6.84h-19.97v24.71L143.23,530.11L143.23,530.11z"/>
			<path class="st19" d="M117.39,637.89h25.6c3.41,0,6.4-2.63,7.34-6.45l3.82-15.58c0.39-1.59,0.39-3.27,0-4.86l-5.31-22.03
				l-4.07-14.25c-0.34-1.19-0.46-2.45-0.35-3.7l1.04-12.18c0.07-0.8,0.23-1.59,0.48-2.34l4.02-12.06c0.13-0.38,0.27-0.74,0.44-1.1
				l0,0c2.83-5.94-0.85-13.23-6.67-13.23h-18.39h-7.96"/>
		</g>
		<rect x="102.95" y="512.37" class="st20" width="26.32" height="320.9"/>
		
			<ellipse transform="matrix(0.9985 -0.0553 0.0553 0.9985 -33.0459 7.2727)" class="st0" cx="114.89" cy="600.75" rx="52.1" ry="52.1"/>
		<path class="st21" d="M51.34,495.73h126.48c1.66,0,3.01,1.35,3.01,3.01v4.13c0,5.24-4.26,9.5-9.5,9.5H58.8
			c-5.43,0-9.84-4.41-9.84-9.84v-4.41C48.96,496.81,50.03,495.74,51.34,495.73L51.34,495.73z"/>
		<path class="st22" d="M135.03,372.7h1.35c2.62,0,4.75,2.13,4.75,4.75v118.28H130.3v-118.3C130.3,374.82,132.42,372.7,135.03,372.7
			L135.03,372.7z"/>
		<path class="st22" d="M58.16,372.7h1.35c2.62,0,4.75,2.13,4.75,4.75v118.28H53.43v-118.3C53.43,374.82,55.55,372.7,58.16,372.7
			L58.16,372.7z"/>
		<path class="st22" d="M170.62,372.7h1.35c2.62,0,4.75,2.13,4.75,4.75v118.28h-10.83v-118.3
			C165.89,374.82,168.01,372.7,170.62,372.7L170.62,372.7z"/>
		<path class="st22" d="M96.59,372.7h1.35c2.62,0,4.75,2.13,4.75,4.75v118.28H91.86v-118.3C91.86,374.82,93.98,372.7,96.59,372.7
			L96.59,372.7z"/>
	</g>
	<g id="Calque_9_00000058564074048387643640000009443354278201114800_">
		<circle class="st3" cx="496.89" cy="592.53" r="52.1"/>
	</g>
</g>
</svg>
