<?xml version="1.0" encoding="utf-8"?>
<!-- Generator: Adobe Illustrator 27.9.5, SVG Export Plug-In . SVG Version: 9.03 Build 54986)  -->
<svg version="1.1" id="Calque_1" xmlns="http://www.w3.org/2000/svg" xmlns:xlink="http://www.w3.org/1999/xlink" x="0px" y="0px"
	 viewBox="0 0 595.28 595.28" style="enable-background:new 0 0 595.28 866.32;" xml:space="preserve">
<style type="text/css">
	.st0{fill:#E6BC9D;}
	.st1{fill:#E7B551;stroke:#1D1D1B;stroke-miterlimit:10;}
	.st2{fill:#E7B551;}
	.st3{fill:#DAB396;}
	.st4{fill:#232323;}
	.st5{fill:#010202;stroke:#000000;stroke-miterlimit:10;}
	.st6{fill:#325626;}
	.st7{fill:#D75530;}
	.st8{fill:#D44428;}
	.st9{fill:#E5BB9E;}
	.st10{fill:#325727;}
	.st11{fill:#E5775E;}
	.st12{fill:#010101;}
	.st13{fill:none;stroke:#754D24;stroke-miterlimit:10;}
	.st14{fill:#F2F2F2;}
	.st15{fill:#1D1D1B;}
	.st16{fill:#F9B03D;}
	.st17{opacity:0.19;fill:#54A4DB;enable-background:new    ;}
	.st18{fill:#CDCCCC;}
	.st19{fill:none;stroke:#B4B4B4;stroke-width:3;stroke-miterlimit:10;}
	.st20{display:none;fill:#936037;}
	.st21{display:none;fill:#344F3F;}
	.st22{display:none;fill:#3C5F4B;}
	.st23{fill:#E0BDA1;}
	.st24{fill:#E0B662;stroke:#000000;stroke-miterlimit:10;}
	.st25{fill:#E0B662;}
	.st26{fill:#D4B39A;}
	.st27{fill:#010202;}
	.st28{fill:#3A552C;}
	.st29{fill:#E4DAC1;}
	.st30{fill:#D1C6AA;}
	.st31{fill:#C6C6C6;}
	.st32{display:none;fill:#8C613E;}
	.st33{fill:#B2B2B2;}
	.st34{fill:#575756;}
	.st35{display:none;fill:#FFF2A5;}
	.st36{display:none;fill:#E8DB96;}
	.st37{opacity:0.41;fill:#DADADA;enable-background:new    ;}
	.st38{opacity:0.41;fill:#C7C6C6;enable-background:new    ;}
	.st39{fill:#E3E4E4;}
	.st40{fill:#D8D8D8;}
	.st41{fill:#DFBCA1;}
	.st42{fill:#E0B562;stroke:#1D1D1B;stroke-miterlimit:10;}
	.st43{fill:#E0B562;}
	.st44{fill:#D4B399;}
	.st45{fill:#FFFFFF;}
	.st46{fill:#F4F4F4;}
	.st47{fill:#EA5328;}
	.st48{fill:#CA9678;}
	.st49{fill:#A16E51;}
	.st50{fill:#E04B28;}
	.st51{fill:#C38F72;}
	.st52{fill:#93624A;}
	.st53{fill:#D6411E;}
	.st54{display:none;fill:#8B613E;}
	.st55{display:none;fill:#3A4E40;}
	.st56{display:none;fill:#445D4C;}
	.st57{display:none;}
	.st58{fill:#C49F6E;}
	.st59{fill:#E3C6A3;}
	.st60{fill:#DF7A6B;}
	.st61{fill:#DB664B;}
	.st62{display:none;fill:#445E4C;}
	.st63{fill:#D1A67C;}
	.st64{fill:#E3DAC1;}
	.st65{fill:#D1C5A9;}
	.st66{fill:#468B56;}
	.st67{fill:#4D9A5D;}
	.st68{fill:#56A76C;}
	.st69{fill:#CFCFCF;}
	.st70{fill:#8A613D;}
	.st71{fill:#51653D;}
	.st72{fill:#D02D26;}
	.st73{fill:#BC3539;}
	.st74{fill:#D9D9D9;}
	.st75{fill:#C6C6C5;}
	.st76{fill:#474746;}
	.st77{fill:#A2A1A1;}
	.st78{fill:#D2D2D2;}
	.st79{fill:#BEBDBD;}
	.st80{fill:#D23A2F;}
</style>
<g>
	<path class="st7" d="M258.94,403.78c-12.48-11.15-36.03,8.45-63.15,9.92c-1.67,0.09-6.15,0.39-9.14,3.6
		c-4.06,4.36-3.21,11.83-1.58,16.31c3.17,8.71,11.56,12.24,13.99,13.14c6.54,2.42,8.15-0.13,18.87,0.45
		c10.3,0.55,11.91,2.8,28.79,5.54c9.88,1.6,12.12,1.69,14.4,0.22c8.11-5.24,5.25-23,4.15-29.85
		C263.56,412.47,262.71,407.14,258.94,403.78z"/>
	<path class="st8" d="M342.27,403.78c12.48-11.15,36.03,8.45,63.15,9.92c1.67,0.09,6.15,0.39,9.14,3.6
		c4.06,4.36,3.21,11.83,1.58,16.31c-3.17,8.71-11.56,12.24-13.99,13.14c-6.54,2.42-8.15-0.13-18.87,0.45
		c-10.3,0.55-11.91,2.8-28.79,5.54c-9.88,1.6-12.12,1.69-14.4,0.22c-8.11-5.24-5.25-23-4.15-29.85
		C337.64,412.47,338.5,407.14,342.27,403.78z"/>
	<path class="st41" d="M301.42,610.7H101.59c2.13-27.13,9.02-65.42,30.48-105.33c6.74-12.53,13.99-23.51,21.17-33.02
		c10.57-7.34,23.82-14.98,39.8-21.17c45.17-17.49,86.41-13.35,108.38-9.31C301.42,498.14,301.42,554.42,301.42,610.7z"/>
	<path class="st41" d="M301.42,441.86v-82.13h-52.5c4.58,12.49,8.92,28.55,10.29,47.42c0.95,13.05,0.29,24.75-1.03,34.72"/>
	<path class="st41" d="M231.72,211.64c-13.85,0-27.17-0.53-40.72-0.82c-10.1,18.16-16.13,38.6-16.96,59.58
		c-2.8,70.53,53.49,137.92,127.54,138.43V213.59c-10.12-0.18-20.37-1-30.86-2.95C257.72,207.64,244.72,211.64,231.72,211.64z"/>
	<path class="st41" d="M300.73,142.96c-47.87,0.62-88.12,28.99-109.74,67.86c13.56,0.29,26.88,0.82,40.72,0.82c13,0,26-4,39-1
		c10.49,1.95,20.74,2.77,30.86,2.95v-70.63C301.29,142.96,301.01,142.96,300.73,142.96z"/>
	<path class="st44" d="M300.73,610.7h199.83c-2.13-27.13-9.02-65.42-30.48-105.33c-6.74-12.53-13.99-23.51-21.17-33.02
		c-10.57-7.34-23.82-14.98-39.8-21.17c-45.17-17.49-86.41-13.35-108.38-9.31C300.73,498.14,300.73,554.42,300.73,610.7z"/>
	<path class="st44" d="M300.73,441.86v-82.13h52.5c-4.58,12.49-8.92,28.55-10.29,47.42c-0.95,13.05-0.29,24.75,1.03,34.72"/>
	<path class="st44" d="M428.12,270.4c-0.8-20.09-6.36-39.68-15.7-57.25c-5.86-0.55-12.1-0.71-17.71-1.51
		c-32.09-3.06-62.43,2.64-94.14,1.93v195.26C374.63,408.32,430.92,340.93,428.12,270.4z"/>
	<path class="st44" d="M394.72,211.64c5.61,0.8,11.85,0.97,17.71,1.51c-21.28-40.06-62.18-69.56-111-70.19c-0.28,0-0.56,0-0.85,0
		v70.6C332.29,214.27,362.63,208.58,394.72,211.64z"/>
	<ellipse class="st41" cx="181.25" cy="274.51" rx="17.16" ry="20.53"/>
	<ellipse class="st44" cx="422.35" cy="274.51" rx="17.16" ry="20.53"/>
	<ellipse cx="248.92" cy="282.15" rx="12.89" ry="27.68"/>
	<ellipse cx="353.23" cy="282.15" rx="12.89" ry="27.68"/>
	<path class="st7" d="M258.59,438.38v1.34c0,20.05,16.45,36.3,36.75,36.3c2.08,0,4.15,0,6.23,0c0,44.9,0,89.79,0,134.69
		c-67.89,0-135.78,0-203.68,0l14.7-92.9c1.47-6.37,4.35-15.58,10.39-25.32c2.12-3.41,9.97-15.51,28.66-28.13
		c28-18.91,63.81-24.61,73.69-26.02"/>
	<path class="st8" d="M343.22,438.38v1.34c0,20.05-16.45,36.3-36.75,36.3c-1.91,0-3.83,0-5.74,0c0.01,44.9,0.01,89.79,0.02,134.69
		c67.72,0,135.44,0,203.17,0l-14.7-92.9c-1.47-6.37-4.35-15.58-10.39-25.32c-2.12-3.41-9.97-15.51-28.66-28.13
		c-28-18.91-63.81-24.61-73.69-26.02"/>
	<path d="M197.18,576.75c2.73-20.18,19.56-35.31,38.87-36.1c22.55-0.91,42.92,17.96,42.19,41.11c-0.69,21.94-20.09,39.77-42.7,38.6
		C212.81,619.2,195.13,599.3,197.18,576.75z"/>
	<path class="st7" d="M206.92,579.26c0.64-16.33,15.24-30.2,32.39-29.27c16.19,0.88,29.2,14.66,29.07,30.83
		c-0.13,15.45-12.22,28.19-26.54,30.05C223.86,613.2,206.19,597.87,206.92,579.26z"/>
	<path d="M326.58,576.75c2.73-20.18,19.56-35.31,38.87-36.1c22.55-0.91,42.92,17.96,42.19,41.11c-0.69,21.94-20.09,39.77-42.7,38.6
		C342.21,619.2,324.53,599.3,326.58,576.75z"/>
	<path class="st8" d="M336.32,579.26c0.64-16.33,15.24-30.2,32.39-29.27c16.19,0.88,29.2,14.66,29.07,30.83
		c-0.13,15.45-12.22,28.19-26.54,30.05C353.25,613.2,335.58,597.87,336.32,579.26z"/>
	<path d="M266.42,512.53h-11.18h-2.34l-0.81-1.2c-1.1-1.64-1.08-3.79,0.06-5.4l1.12-1.6h25.31l0.62,2.17
		c0.47,1.67,0.26,3.45-0.59,4.96l-0.48,0.85h-3.33l2.8,6.3h60.47l-7.66-19.03h-16.93h-1.37c-0.78,0-1.5-0.43-1.87-1.13l-0.88-1.67
		c-0.32-0.62-0.32-1.35,0.01-1.97l1.25-2.34c0.37-0.69,1.08-1.12,1.86-1.12h22.47l1.32,1.13l19.86,49.36l15.28,38.38
		c0.26,0.66,0.19,1.4-0.18,2l-1.02,1.62c-0.63,1-1.92,1.33-2.95,0.75l-3.08-1.72c-0.55-0.31-0.98-0.8-1.22-1.38L345.91,539
		l-40.57,39.28l-0.3,4.75c-0.05,0.76-0.35,1.48-0.85,2.05l-1.33,1.51c-0.47,0.54-1.11,0.91-1.8,1.07l-1.77,0.41
		c-0.31,0.07-0.62,0.1-0.94,0.08l-60.61-3.06c-0.5-0.03-0.99-0.15-1.44-0.38l-0.4-0.2c-0.99-0.49-1.7-1.41-1.93-2.5l-0.48-2.31
		c-0.19-0.92-0.02-1.88,0.48-2.67l35.32-56.32l-2.54-8.19"/>
	<polygon class="st7" points="280.5,527.28 298.39,572.55 342.61,530.65 341.14,527.28 301,527.28 	"/>
	<path class="st7" d="M273.55,530.76l16.42,43.06l-12.21,0.63c-0.13-0.97-0.3-1.95-0.53-2.95c-2.4-10.73-9.51-18.26-15.16-22.85
		L273.55,530.76z"/>
	<path class="st7" d="M244.91,575.82l24.11-0.84c-0.14-1.05-0.34-2.14-0.63-3.26c-2.05-7.89-7.35-13.14-10.95-16L244.91,575.82z"/>
	<polygon class="st8" points="301,527.28 301,570.08 342.61,530.65 341.14,527.28 	"/>
	<path d="M213.06,333.51c-0.57,0.06-1.18,0.12-1.86-0.21c-0.74-0.36-1.13-0.97-1.22-1.14c-0.1-0.16-0.31-0.53-0.37-1.04
		c-0.09-0.84,0.33-1.42,0.45-1.58c0.45-0.59,1.06-0.78,1.43-0.88c0.65-0.19,1.2-0.15,2.02-0.06c2.47,0.28,2.64,0.5,3.76,0.51
		c0.81,0,1.72,0.01,2.65-0.49c0.38-0.21,1.65-0.88,1.84-2.34c0.1-0.77-0.08-1.9-0.84-2.57c-0.51-0.44-0.78-0.24-1.84-0.84
		c-0.72-0.41-1.4-0.8-1.56-1.46c-0.12-0.49,0.06-0.99,0.38-1.28c0.63-0.59,1.8-0.36,2.43,0.12c0.34,0.27,0.3,0.43,0.84,0.93
		c0.33,0.3,0.66,0.6,1.1,0.74c0.63,0.21,1.34,0.07,1.81-0.27c0.87-0.62,1.05-1.98,0.71-2.85c-0.06-0.16-0.15-0.32-0.15-0.57
		c0.01-0.5,0.39-1.01,0.89-1.17c0.75-0.24,1.67,0.33,2.39,0.79c0.65,0.41,0.69,0.59,1.09,0.69c0.68,0.16,1.41-0.15,1.82-0.62
		c0.62-0.71,0.48-1.72,0.44-2.03c-0.1-0.71-0.36-0.88-0.28-1.42c0.01-0.08,0.18-1.04,0.9-1.11c0.5-0.05,1.03,0.36,1.23,0.79
		c0.09,0.19,0.15,0.48-0.19,1.39c-0.43,1.16-0.71,1.17-0.85,1.8c-0.14,0.63-0.13,1.83,0.7,2.46c0.58,0.44,1.53,0.31,1.99,0.26
		c0.62-0.07,0.85-0.23,1.15-0.06c0.33,0.19,0.33,0.56,0.58,1.32c0.29,0.88,0.51,1.54,1.04,1.98c0.61,0.52,1.49,0.6,2.1,0.46
		c0.47-0.11,0.79-0.41,1.41-1c1.12-1.07,1.1-1.48,1.81-1.77c0.18-0.07,1.04-0.42,1.89,0.04c0.69,0.37,1.11,1.14,1.12,1.8
		c0.02,1.22-1.37,1.91-1.76,2.11c-1.16,0.58-1.69,0.16-2.6,0.83c-0.25,0.18-1.01,0.76-0.98,1.69c0.02,0.51,0.27,1.19,0.78,1.48
		c0.31,0.17,0.4,0.03,1.28,0.19c0.55,0.09,0.91,0.16,1.31,0.42c0.23,0.14,0.57,0.36,0.72,0.73c0.29,0.7-0.32,1.47-0.54,1.75
		c-0.61,0.77-1.16,0.78-1.17,1.24c-0.01,0.5,0.64,0.95,1,1.21c0.4,0.28,0.74,0.42,1.62,0.71c1.77,0.6,2.16,0.65,2.87,1.08
		c0.7,0.43,0.95,0.76,1.08,0.97c0.08,0.14,0.43,0.71,0.3,1.33c-0.14,0.67-0.79,1.11-1.38,1.23c-1.27,0.24-2.67-0.97-3.42-1.62
		c-1.18-1.02-1.4-1.72-2.17-1.8c-0.72-0.07-1.27,0.48-1.54,0.75c-0.57,0.57-1.02,1.56-0.79,2.54c0.11,0.48,0.33,0.72,0.47,1.52
		c0.09,0.54,0.14,0.82-0.02,0.98c-0.29,0.29-1.04,0.02-2.33-0.44c-1.09-0.4-1.33-0.59-1.67-0.45c-0.46,0.19-0.35,0.69-0.93,1.09
		c-0.38,0.26-0.84,0.32-1.17,0.29c-1.15-0.08-1.48-1.21-2.31-1.22c-0.91-0.01-1.82,1.31-1.6,2.39c0.13,0.65,0.55,0.66,1.04,1.64
		c0.2,0.41,0.67,1.5,0.39,2.65c-0.04,0.18-0.33,1.36-0.95,1.37c-0.61,0.02-1.32-1.12-1.63-2.06c-0.53-1.64,0.32-2.23-0.2-3.89
		c-0.14-0.43-0.49-1.56-1.53-2.18c-1.04-0.63-2.38-0.51-3.22-0.02c-0.83,0.48-0.75,1.07-1.57,1.47c-0.23,0.11-1.4,0.68-2.34,0.04
		c-0.63-0.43-0.88-1.2-0.86-1.79c0.02-0.74,0.6-1.19,1.32-1.77c0.87-0.71,1.24-0.64,1.65-1.15c0.73-0.92,0.48-2.17,0.46-2.27
		c-0.3-1.45-1.6-2.26-1.99-2.5c-1.01-0.63-1.96-0.7-3.26-0.79c-0.77-0.06-1.55-0.11-2.51,0.11
		C214.51,332.93,214.32,333.37,213.06,333.51z"/>
	<path d="M228.52,314.39c-0.37-0.08-0.54-0.65-0.76-1.36c-0.15-0.49-0.13-0.7-0.08-0.86c0.02-0.05,0.14-0.38,0.45-0.48
		c0.45-0.15,1.07,0.25,1.33,0.73c0.36,0.66-0.02,1.3-0.12,1.44C229.28,313.94,228.92,314.47,228.52,314.39z"/>
	<path d="M241.77,319.53c-0.29-0.25-0.34-0.66-0.37-0.9c-0.06-0.49,0.1-0.85,0.18-1.04c0.11-0.24,0.37-0.81,1.02-1.06
		c0.19-0.07,0.88-0.34,1.49,0.06c0.7,0.46,0.66,1.38,0.66,1.43c-0.05,0.9-0.93,1.31-1.22,1.45
		C243.38,319.54,242.34,320.02,241.77,319.53z"/>
	<path d="M246.87,333.01c-0.03,0.18-0.08,0.47,0.12,0.74c0.2,0.28,0.6,0.43,0.93,0.35c0.49-0.12,0.58-0.67,0.58-0.72
		c0.08-0.6-0.45-1.33-0.9-1.33C247.18,332.04,246.93,332.64,246.87,333.01z"/>
	<path d="M214.6,339.28c0.2,0.43,1.01,0.54,1.45,0.52c0.66-0.02,1.09-0.35,1.44-0.63c0.44-0.35,1.42-1.28,1.1-1.84
		c-0.23-0.41-1.01-0.42-1.2-0.42c-0.82-0.01-1.38,0.44-1.79,0.79C215.2,338.04,214.36,338.75,214.6,339.28z"/>
	<path d="M395.31,339.78c0.47,0.08,0.99,0.15,1.54-0.1c0.6-0.28,0.9-0.78,0.97-0.92c0.07-0.13,0.24-0.44,0.26-0.87
		c0.04-0.71-0.34-1.22-0.44-1.36c-0.4-0.52-0.91-0.7-1.22-0.81c-0.55-0.19-1-0.17-1.68-0.13c-2.04,0.14-2.17,0.32-3.11,0.28
		c-0.68-0.03-1.43-0.06-2.22-0.53c-0.33-0.19-1.41-0.82-1.62-2.06c-0.11-0.65-0.02-1.61,0.59-2.14c0.41-0.36,0.64-0.17,1.5-0.64
		c0.58-0.32,1.13-0.62,1.24-1.18c0.08-0.41-0.09-0.84-0.37-1.11c-0.55-0.53-1.51-0.38-2.01,0.01c-0.28,0.21-0.23,0.36-0.66,0.75
		c-0.26,0.24-0.52,0.48-0.89,0.58c-0.52,0.15-1.11,0-1.52-0.31c-0.75-0.56-0.96-1.72-0.71-2.45c0.05-0.13,0.11-0.27,0.1-0.47
		c-0.03-0.42-0.36-0.87-0.79-1.03c-0.64-0.24-1.37,0.21-1.95,0.57c-0.52,0.32-0.55,0.47-0.88,0.54c-0.56,0.11-1.17-0.18-1.54-0.6
		c-0.54-0.62-0.47-1.48-0.45-1.74c0.05-0.6,0.27-0.73,0.17-1.19c-0.01-0.06-0.19-0.89-0.79-0.98c-0.42-0.06-0.84,0.26-0.99,0.62
		c-0.06,0.16-0.1,0.4,0.21,1.19c0.4,1,0.64,1.02,0.78,1.56c0.14,0.54,0.18,1.56-0.48,2.06c-0.47,0.35-1.25,0.2-1.64,0.14
		c-0.52-0.08-0.72-0.23-0.96-0.1c-0.27,0.15-0.25,0.46-0.43,1.09c-0.21,0.73-0.36,1.28-0.78,1.64c-0.49,0.41-1.21,0.45-1.73,0.3
		c-0.4-0.11-0.67-0.38-1.21-0.9c-0.98-0.95-0.98-1.3-1.58-1.57c-0.15-0.07-0.88-0.4-1.57-0.04c-0.56,0.29-0.88,0.92-0.86,1.48
		c0.03,1.04,1.22,1.68,1.55,1.86c0.99,0.54,1.41,0.2,2.19,0.81c0.21,0.17,0.87,0.68,0.89,1.48c0.01,0.43-0.18,1-0.59,1.22
		c-0.25,0.14-0.33,0.01-1.05,0.11c-0.45,0.06-0.75,0.1-1.07,0.3c-0.18,0.11-0.46,0.29-0.57,0.59c-0.21,0.58,0.32,1.26,0.52,1.51
		c0.53,0.68,1,0.71,1.02,1.1c0.03,0.42-0.49,0.78-0.78,0.98c-0.32,0.22-0.6,0.32-1.32,0.54c-1.45,0.43-1.77,0.46-2.34,0.79
		c-0.57,0.33-0.76,0.61-0.86,0.78c-0.06,0.12-0.33,0.59-0.19,1.12c0.15,0.58,0.7,0.98,1.19,1.1c1.07,0.26,2.18-0.72,2.77-1.23
		c0.94-0.82,1.09-1.41,1.73-1.44c0.6-0.03,1.08,0.46,1.31,0.7c0.49,0.51,0.91,1.37,0.76,2.19c-0.07,0.4-0.25,0.6-0.33,1.27
		c-0.05,0.46-0.08,0.69,0.06,0.83c0.25,0.26,0.87,0.06,1.92-0.28c0.89-0.29,1.08-0.44,1.37-0.32c0.39,0.18,0.32,0.6,0.82,0.96
		c0.33,0.23,0.71,0.3,0.99,0.3c0.95-0.02,1.18-0.97,1.87-0.94c0.75,0.03,1.56,1.18,1.43,2.09c-0.08,0.54-0.43,0.53-0.8,1.35
		c-0.15,0.34-0.49,1.24-0.21,2.23c0.04,0.15,0.33,1.16,0.84,1.2c0.51,0.04,1.05-0.9,1.27-1.68c0.38-1.37-0.36-1.91,0.01-3.29
		c0.09-0.36,0.34-1.3,1.18-1.79c0.84-0.49,1.96-0.33,2.68,0.11c0.71,0.44,0.67,0.94,1.36,1.31c0.19,0.1,1.19,0.64,1.95,0.13
		c0.51-0.34,0.68-0.99,0.64-1.48c-0.05-0.63-0.55-1.03-1.17-1.55c-0.75-0.64-1.05-0.59-1.42-1.05c-0.65-0.81-0.49-1.86-0.47-1.94
		c0.19-1.22,1.23-1.85,1.55-2.04c0.81-0.49,1.6-0.51,2.67-0.54c0.64-0.02,1.28-0.03,2.09,0.2
		C394.08,339.23,394.25,339.61,395.31,339.78z"/>
	<path d="M381.68,322.92c0.3-0.06,0.43-0.53,0.58-1.13c0.11-0.41,0.08-0.59,0.03-0.72c-0.02-0.05-0.13-0.33-0.39-0.43
		c-0.38-0.15-0.88,0.17-1.08,0.56c-0.28,0.54,0.07,1.1,0.16,1.23C381.03,322.52,381.35,322.98,381.68,322.92z"/>
	<path d="M370.88,326.75c0.23-0.2,0.26-0.54,0.27-0.75c0.03-0.41-0.12-0.72-0.2-0.89c-0.1-0.21-0.34-0.7-0.89-0.94
		c-0.16-0.07-0.74-0.33-1.23-0.01c-0.56,0.36-0.49,1.15-0.49,1.18c0.08,0.77,0.83,1.15,1.08,1.28
		C369.54,326.69,370.42,327.14,370.88,326.75z"/>
	<path d="M367.19,337.97c0.03,0.16,0.08,0.41-0.07,0.62c-0.16,0.23-0.48,0.34-0.75,0.26c-0.42-0.12-0.51-0.59-0.51-0.64
		c-0.09-0.51,0.32-1.11,0.7-1.09C366.9,337.14,367.13,337.66,367.19,337.97z"/>
	<path d="M394.26,344.61c-0.14,0.36-0.82,0.41-1.18,0.38c-0.55-0.05-0.92-0.34-1.22-0.59c-0.38-0.31-1.23-1.14-0.99-1.61
		c0.17-0.34,0.82-0.31,0.98-0.31c0.68,0.02,1.16,0.43,1.52,0.74C393.71,343.54,394.44,344.17,394.26,344.61z"/>
	<path class="st77" d="M79.06,459.4c0.01-0.06,0.01-0.13,0.03-0.19c0.98-5.26,2.01-9.66,2.86-12.95c2.06-8.03,3.24-10.56,4.87-12.83
		c1.41-1.98,2.81-4.27,5.53-5.53c0.32-0.15,0.62-0.27,0.92-0.37c1.11-0.39,2.28,0.37,2.42,1.53l2.55,21
		c0.05,0.41,0.24,0.79,0.53,1.08l0.38,0.38c0.45,0.45,1.09,0.64,1.71,0.5l17.82-4.01c0.4-0.09,0.77-0.32,1.03-0.64l0.62-0.76
		c0.33-0.41,0.48-0.95,0.39-1.47l-0.8-4.81c-0.01-0.05-0.02-0.11-0.03-0.16l-4.11-15.86c-0.02-0.08-0.05-0.16-0.08-0.24h0
		c-0.52-1.26,0.47-2.65,1.83-2.54c0.16,0.01,0.31,0.03,0.48,0.04c8.6,0.9,14.09,8.65,16.65,12.25c1.76,2.48,4.15,5.92,5.23,11.06
		c0.53,2.51,1.39,6.89-0.59,11.3c-0.34,0.75-0.64,1.24-2.26,3.57c-3.23,4.64-5.79,8.11-6.3,8.8c-4.78,6.43-7.18,9.64-8.8,14.16
		c-1.63,4.52-2.14,8.92-2.26,10.11c-0.24,2.35-0.24,4.13-0.24,4.76c0.04,15.58-0.48,31.18,0.12,46.75
		c0.79,20.53,0.27,35.79,0.48,46.51c0.02,0.95,0.09,4.76,0.12,9.87c0.01,2.23,0.01,4.11,0,5.48c0,0.53-0.23,1.03-0.62,1.38
		l-8.83,7.82c-0.67,0.59-1.66,0.62-2.36,0.07l-11.13-8.71c-0.46-0.36-0.73-0.92-0.71-1.51c1.09-36.77,2.18-73.54,3.26-110.31
		c0.01-0.17-0.01-0.34-0.05-0.5l-1.76-7.04c-0.04-0.18-0.12-0.35-0.21-0.51l-10.24-16.92c-0.3-0.5-0.83-0.83-1.41-0.88l-3.05-0.28
		c-2.59-0.24-4.51-2.51-4.3-5.11L79.06,459.4z"/>
	<circle class="st41" cx="109.61" cy="615.86" r="52.1"/>
	<path class="st78" d="M462.94,459.85l20.57,0.09l-0.39-31.67l-20.96-0.55l-3.25-2l-60.55-0.21c-0.44,0.92-0.85,1.87-1.24,2.85
		c-5,12.87-2.45,25.92,0.7,35.04l60.63-0.64L462.94,459.85z"/>
	<path class="st79" d="M481.21,472.87c-0.24-1.93-0.53-4.65-0.71-7.91c-0.15-2.76-0.19-5.57,0.15-14.37
		c0.56-14.13,1.1-17.52,1.5-19.67c0.42-2.27,0.89-4.25,1.31-5.82c0.31-1.17,1.28-2.05,2.47-2.24l2.1-0.33
		c1.79-0.28,3.6-0.36,5.4-0.22l2.07,0.16l1.98,0.2c1.7,0.17,3.36,0.6,4.93,1.28l0,0l1.63,0.71l-0.93,11.04l-0.4,4.72l-0.04,13.66
		l0.09,5.93l-0.41,14.86c-0.03,1.04-0.98,1.81-2.01,1.62L481.21,472.87z"/>
	<path class="st79" d="M503.13,435.69l2.47,0.22c0.54,0.05,0.95,0.5,0.95,1.04l-0.06,13.97c0,0.51-0.48,0.89-0.98,0.77l-3.75-0.87
		L503.13,435.69z"/>
	<polyline class="st79" points="496.41,565.53 497.77,473.6 484.08,472.59 479.46,568.79 496.41,565.53 	"/>
	<path class="st80" d="M473.57,565.36c-0.91,0.44-1.52,1.34-1.6,2.35l-1.63,21.89l-2.19,79.31c-0.09,1.75,0,4.28,0.97,7.06
		c2.18,6.25,8.59,13.21,16.68,12.87c7.25-0.31,11.75-6.3,12.83-7.74c3.55-4.73,4.01-9.73,4.09-11.79l-1.06-98.3
		c-0.02-1.95-1.19-3.71-2.98-4.49l-3.81-1.65l-17.73-0.29C475.9,564.55,474.68,564.82,473.57,565.36L473.57,565.36z"/>
	<circle class="st44" cx="491.61" cy="607.64" r="52.1"/>
	<path class="st4" d="M176.13,254.46c0,0,16.51,5.31,20.82-0.48s9.09-24.9,24.3-31.42s53.76-9.09,67.05-9.05
		c13.28,0.04,13.28,0.04,13.28,0.04v-70.6c0,0-13.89-0.53-26.4,3.05s-24.71,6.85-36.32,14.77s-27.05,20.97-32.48,27.8
		s-16.99,23.96-20.46,32.34c-3.47,8.38-9.78,28.31-9.78,30.93S176.13,254.46,176.13,254.46z"/>
	<path d="M426.02,254.46c0,0-16.51,5.31-20.82-0.48s-9.09-24.9-24.3-31.42c-15.2-6.52-53.76-9.09-67.05-9.05
		c-13.28,0.04-13.28,0.04-13.28,0.04v-70.6c0,0,13.89-0.53,26.4,3.05c12.51,3.58,24.71,6.85,36.32,14.77s27.05,20.97,32.48,27.8
		c5.42,6.83,16.99,23.96,20.46,32.34s9.78,28.31,9.78,30.93S426.02,254.46,426.02,254.46z"/>
	<path class="st7" d="M300.57,231.38H179.25v-5.62c0-53.53,38.77-96.93,86.6-96.93h34.73l0.15,54.28h-42.66
		c-10.88,0-19.7,9.87-19.7,22.05v0c0,3.4,2.46,6.16,5.5,6.16h56.7V231.38z"/>
	<path class="st8" d="M300.47,231.38h121.33v-5.62c0-53.53-38.77-96.93-86.6-96.93h-34.73l-0.15,54.28h42.66
		c10.88,0,19.7,9.87,19.7,22.05v0c0,3.4-2.46,6.16-5.5,6.16h-56.7V231.38z"/>
</g>
</svg>
