<?xml version="1.0" encoding="utf-8"?>
<!-- Generator: Adobe Illustrator 27.9.5, SVG Export Plug-In . SVG Version: 9.03 Build 54986)  -->
<svg version="1.1" id="Calque_1" xmlns="http://www.w3.org/2000/svg" xmlns:xlink="http://www.w3.org/1999/xlink" x="0px" y="0px"
	 viewBox="0 0 595.28 595.28" style="enable-background:new 0 0 595.28 866.32;" xml:space="preserve">
<style type="text/css">
	.st0{fill:#E6BC9D;}
	.st1{fill:#E7B551;stroke:#1D1D1B;stroke-miterlimit:10;}
	.st2{fill:#E7B551;}
	.st3{fill:#DAB396;}
	.st4{fill:#232323;}
	.st5{fill:#010202;stroke:#000000;stroke-miterlimit:10;}
	.st6{fill:#325626;}
	.st7{fill:#D75530;}
	.st8{fill:#D44428;}
	.st9{fill:#E5BB9E;}
	.st10{fill:#325727;}
	.st11{fill:#E5775E;}
	.st12{fill:#010101;}
	.st13{fill:none;stroke:#754D24;stroke-miterlimit:10;}
	.st14{fill:#F2F2F2;}
	.st15{fill:#1D1D1B;}
	.st16{fill:#F9B03D;}
	.st17{opacity:0.19;fill:#54A4DB;enable-background:new    ;}
	.st18{fill:#CDCCCC;}
	.st19{fill:none;stroke:#B4B4B4;stroke-width:3;stroke-miterlimit:10;}
	.st20{display:none;fill:#936037;}
	.st21{display:none;fill:#344F3F;}
	.st22{display:none;fill:#3C5F4B;}
	.st23{fill:#E0BDA1;}
	.st24{fill:#E0B662;stroke:#000000;stroke-miterlimit:10;}
	.st25{fill:#E0B662;}
	.st26{fill:#D4B39A;}
	.st27{fill:#010202;}
	.st28{fill:#3A552C;}
	.st29{fill:#E4DAC1;}
	.st30{fill:#D1C6AA;}
	.st31{fill:#C6C6C6;}
	.st32{display:none;fill:#8C613E;}
	.st33{fill:#B2B2B2;}
	.st34{fill:#575756;}
	.st35{display:none;fill:#FFF2A5;}
	.st36{display:none;fill:#E8DB96;}
	.st37{opacity:0.41;fill:#DADADA;enable-background:new    ;}
	.st38{opacity:0.41;fill:#C7C6C6;enable-background:new    ;}
	.st39{fill:#E3E4E4;}
	.st40{fill:#D8D8D8;}
	.st41{fill:#DFBCA1;}
	.st42{fill:#E0B562;stroke:#1D1D1B;stroke-miterlimit:10;}
	.st43{fill:#E0B562;}
	.st44{fill:#D4B399;}
	.st45{fill:#FFFFFF;}
	.st46{fill:#F4F4F4;}
	.st47{fill:#EA5328;}
	.st48{fill:#CA9678;}
	.st49{fill:#A16E51;}
	.st50{fill:#E04B28;}
	.st51{fill:#C38F72;}
	.st52{fill:#93624A;}
	.st53{fill:#D6411E;}
	.st54{display:none;fill:#8B613E;}
	.st55{display:none;fill:#3A4E40;}
	.st56{display:none;fill:#445D4C;}
	.st57{display:none;}
	.st58{fill:#C49F6E;}
	.st59{fill:#E3C6A3;}
	.st60{fill:#DF7A6B;}
	.st61{fill:#DB664B;}
	.st62{display:none;fill:#445E4C;}
	.st63{fill:#D1A67C;}
	.st64{fill:#E3DAC1;}
	.st65{fill:#D1C5A9;}
	.st66{fill:#468B56;}
	.st67{fill:#4D9A5D;}
	.st68{fill:#56A76C;}
	.st69{fill:#CFCFCF;}
	.st70{fill:#8A613D;}
	.st71{fill:#51653D;}
	.st72{fill:#D02D26;}
	.st73{fill:#BC3539;}
	.st74{fill:#D9D9D9;}
	.st75{fill:#C6C6C5;}
	.st76{fill:#474746;}
	.st77{fill:#A2A1A1;}
	.st78{fill:#D2D2D2;}
	.st79{fill:#BEBDBD;}
	.st80{fill:#D23A2F;}
</style>
<g>
	<path class="st41" d="M302.87,612.6H103.04c2.13-27.13,9.02-65.42,30.48-105.33c6.74-12.53,13.99-23.51,21.17-33.02
		c10.57-7.34,23.82-14.98,39.8-21.17c45.17-17.49,86.41-13.35,108.38-9.31C302.87,500.05,302.87,556.32,302.87,612.6z"/>
	<path class="st41" d="M302.87,443.77v-82.13h-52.5c4.58,12.49,8.92,28.55,10.29,47.42c0.95,13.05,0.29,24.75-1.03,34.72"/>
	<path class="st41" d="M233.16,213.54c-13.85,0-27.17-0.53-40.72-0.82c-10.1,18.16-16.13,38.6-16.96,59.58
		c-2.8,70.53,53.49,137.92,127.54,138.43V215.49c-10.12-0.18-20.37-1-30.86-2.95C259.16,209.54,246.16,213.54,233.16,213.54z"/>
	<path class="st41" d="M302.18,144.87c-47.87,0.62-88.12,28.99-109.74,67.86c13.56,0.29,26.88,0.82,40.72,0.82c13,0,26-4,39-1
		c10.49,1.95,20.74,2.77,30.86,2.95v-70.63C302.74,144.87,302.46,144.86,302.18,144.87z"/>
	<path class="st44" d="M302.18,612.6h199.83c-2.13-27.13-9.02-65.42-30.48-105.33c-6.74-12.53-13.99-23.51-21.17-33.02
		c-10.57-7.34-23.82-14.98-39.8-21.17c-45.17-17.49-86.41-13.35-108.38-9.31C302.18,500.05,302.18,556.32,302.18,612.6z"/>
	<path class="st44" d="M302.18,443.77v-82.13h52.5c-4.58,12.49-8.92,28.55-10.29,47.42c-0.95,13.05-0.29,24.75,1.03,34.72"/>
	<path class="st44" d="M429.57,272.3c-0.8-20.09-6.36-39.68-15.7-57.25c-5.86-0.55-12.1-0.71-17.71-1.51
		c-32.09-3.06-62.43,2.64-94.14,1.93v195.26C376.08,410.22,432.36,342.83,429.57,272.3z"/>
	<path class="st44" d="M396.16,213.54c5.61,0.8,11.85,0.97,17.71,1.51c-21.28-40.06-62.18-69.56-111-70.19c-0.28,0-0.56,0-0.85,0
		v70.6C333.73,216.18,364.07,210.49,396.16,213.54z"/>
	<ellipse class="st41" cx="182.7" cy="276.42" rx="17.16" ry="20.53"/>
	<ellipse class="st44" cx="423.8" cy="276.42" rx="17.16" ry="20.53"/>
	<ellipse cx="250.37" cy="284.05" rx="12.89" ry="27.68"/>
	<ellipse cx="354.67" cy="284.05" rx="12.89" ry="27.68"/>
	<path class="st64" d="M259.71,440.28v1.34c0,20.05,16.45,36.3,36.75,36.3c2.08,0,4.15,0,6.23,0c0,44.9,0,89.79,0,134.69
		c-67.89,0-135.78,0-203.68,0l14.7-92.9c1.47-6.37,4.35-15.58,10.39-25.32c2.12-3.41,9.97-15.51,28.66-28.13
		c28-18.91,63.81-24.61,73.69-26.02"/>
	<path class="st65" d="M344.34,440.28v1.34c0,20.05-16.45,36.3-36.75,36.3c-1.91,0-3.83,0-5.74,0c0.01,44.9,0.01,89.79,0.02,134.69
		c67.72,0,135.44,0,203.17,0l-14.7-92.9c-1.47-6.37-4.35-15.58-10.39-25.32c-2.12-3.41-9.97-15.51-28.66-28.13
		c-28-18.91-63.81-24.61-73.69-26.02"/>
	<path class="st66" d="M460.49,387.55l5.25-3.93c1.81-1.35,4.08-1.95,6.31-1.65l7.61,1.01c-0.83,19.95,1.45,34.87,3.71,44.88
		c2.42,10.69,6.07,21.32,5.43,37.26c-0.3,7.41-1.42,13.47-2.32,17.41l-14.63-1.95"/>
	<path class="st66" d="M489.36,384.28l6.27-1.94c2.16-0.67,4.49-0.46,6.5,0.57l6.83,3.51c-7.48,18.52-10.36,33.33-11.59,43.52
		c-1.32,10.88-1.44,22.12-7.41,36.92c-2.77,6.88-5.87,12.21-8.03,15.61l-13.13-6.75"/>
	<path class="st67" d="M518.91,398.61l-5.01-4.07c-1.73-1.4-3.93-2.07-6.15-1.86l-7.53,0.71c0.05,19.65-2.76,34.24-5.37,43.99
		c-2.78,10.42-6.79,20.73-6.77,36.44c0.01,7.29,0.89,13.3,1.61,17.21l14.46-1.36"/>
	<path class="st67" d="M438.78,405.21l3.64-5.46c1.25-1.88,3.19-3.19,5.41-3.66l7.52-1.58c5.87,19.09,12.97,32.4,18.44,41.09
		c5.84,9.27,12.82,18.08,17.53,33.33c2.18,7.08,3.14,13.18,3.61,17.19l-14.45,3.03"/>
	<path class="st68" d="M429.67,422.53l2.86-5.02c1.38-2.42,3.65-4.2,6.33-4.97l4.91-1.4c0.49-0.14,0.99-0.08,1.42,0.13
		c0.61,0.3,0.88,0.88,0.97,1.05c5.68,11.64,9.94,24.3,18.07,34.38c20.23,25.09,15.02,24.98,22.58,35.87
		c1.71,2.46,3.22,9.09,4.48,15.15c0.21,1.01-0.4,2.01-1.4,2.3c-4.16,1.19-8.33,2.38-12.49,3.56"/>
	<path class="st68" d="M534.14,413.18l-4.12-5.14c-1.42-1.77-3.47-2.91-5.72-3.18l-7.65-0.92c-4.2,19.6-10.15,33.52-14.85,42.68
		c-5.03,9.78-11.25,19.19-14.62,34.85c-1.57,7.27-1.99,13.45-2.11,17.5l14.71,1.77"/>
	<path class="st69" d="M500.56,619.09c-2.37-25.12-3.5-52.87-2.43-82.85c0.41-11.46,1.11-22.53,2.05-33.19
		c0.19-2.21-1.63-4.06-3.84-3.9c-5.69,0.43-11.37,0.85-17.06,1.28c-1.88,0.14-3.32,1.7-3.31,3.59c0.07,13.78,0.07,27.67-0.02,41.67
		c-0.23,37.36-1.05,74-2.38,109.9c-0.08,2.03,1.55,3.71,3.58,3.71h19.83c1.98,0,3.58-1.6,3.58-3.58v-41.19"/>
	<rect x="90.59" y="452.28" class="st70" width="32.94" height="401.55"/>
	<path d="M25.41,431.47h159.62c1.66,0,3.01,1.35,3.01,3.01v8.31c0,5.24-4.26,9.5-9.5,9.5H32.86c-5.43,0-9.84-4.41-9.84-9.84v-8.59
		c0-1.31,1.07-2.38,2.38-2.38L25.41,431.47z"/>
	<path class="st4" d="M129.55,277.51h4.07c2.62,0,4.75,2.13,4.75,4.75v149.2h-13.55V282.23c0-2.61,2.12-4.73,4.73-4.73
		L129.55,277.51z"/>
	<path class="st4" d="M33.35,277.51h4.07c2.62,0,4.75,2.13,4.75,4.75v149.2H28.62V282.23c0-2.61,2.12-4.73,4.73-4.73V277.51z"/>
	<path class="st4" d="M174.09,277.51h4.07c2.62,0,4.75,2.13,4.75,4.75v149.2h-13.55V282.23c0-2.61,2.12-4.73,4.73-4.73
		L174.09,277.51z"/>
	<path class="st4" d="M81.45,277.51h4.07c2.62,0,4.75,2.13,4.75,4.75v149.2H76.72V282.23c0-2.61,2.12-4.73,4.73-4.73V277.51z"/>
	<path class="st7" d="M302.11,512.73v99.83H195.39V501.9v-54.39c0-1.59,1.06-2.98,2.59-3.41l6.5-1.8l20.19-4
		c1.07-0.21,2.06,0.6,2.06,1.69v72.05L302.11,512.73z"/>
	<path class="st8" d="M302.24,512.73v99.83h106.72V501.9v-54.39c0-1.59-1.06-2.98-2.59-3.41l-6.5-1.8l-20.19-4
		c-1.07-0.21-2.06,0.6-2.06,1.69v72.05L302.24,512.73z"/>
	<circle class="st41" cx="111.06" cy="617.76" r="52.1"/>
	<circle class="st44" cx="493.06" cy="609.55" r="52.1"/>
	<path class="st4" d="M177.57,256.37c0,0,16.51,5.31,20.82-0.48c4.31-5.79,9.09-24.9,24.3-31.42s53.76-9.09,67.05-9.05
		c13.28,0.04,13.28,0.04,13.28,0.04v-70.6c0,0-13.89-0.53-26.4,3.05c-12.51,3.58-24.71,6.85-36.32,14.77
		c-11.61,7.92-27.05,20.97-32.48,27.8s-16.99,23.96-20.46,32.34c-3.47,8.38-9.78,28.31-9.78,30.93
		C177.57,256.37,177.57,256.37,177.57,256.37z"/>
	<path d="M427.47,256.37c0,0-16.51,5.31-20.82-0.48c-4.31-5.79-9.09-24.9-24.3-31.42c-15.2-6.52-53.76-9.09-67.05-9.05
		c-13.28,0.04-13.28,0.04-13.28,0.04v-70.6c0,0,13.89-0.53,26.4,3.05c12.51,3.58,24.71,6.85,36.32,14.77s27.05,20.97,32.48,27.8
		c5.42,6.83,16.99,23.96,20.46,32.34c3.47,8.38,9.78,28.31,9.78,30.93C427.47,256.37,427.47,256.37,427.47,256.37z"/>
	<path class="st60" d="M302.02,222.66H145.37c-3.28,0-5.93-2.66-5.93-5.93v-3.6v-4.07c0-3.02,2.45-5.46,5.46-5.46h157.12V222.66z"/>
	<path class="st61" d="M302.02,222.66h156.65c3.28,0,5.93-2.66,5.93-5.93v-3.6v-4.07c0-3.02-2.45-5.46-5.46-5.46H302.02V222.66z"/>
	<path class="st60" d="M302.02,203.6V100.15H279c-93.89,0-79.14,20.38-89.33,94.4l-1.24,9.05H302.02z"/>
	<path class="st61" d="M302.02,204.22V100.77h23.03c93.89,0,79.14,20.38,89.33,94.4l1.24,9.05H302.02z"/>
	<path class="st72" d="M188.43,203.6h113.6v-19.23H190.96c0,0-1.24,15.09-2.54,17.16C187.12,203.6,188.43,203.6,188.43,203.6z"/>
	<path class="st73" d="M415.62,203.6h-113.6v-19.23h111.06c0,0,1.24,15.09,2.54,17.16C416.92,203.6,415.62,203.6,415.62,203.6z"/>
</g>
</svg>
