<?xml version="1.0" encoding="utf-8"?>
<!-- Generator: Adobe Illustrator 27.9.5, SVG Export Plug-In . SVG Version: 9.03 Build 54986)  -->
<svg version="1.1" id="Calque_1" xmlns="http://www.w3.org/2000/svg" xmlns:xlink="http://www.w3.org/1999/xlink" x="0px" y="0px"
	 viewBox="0 0 595.28 595.28" style="enable-background:new 0 0 595.28 866.32;" xml:space="preserve">
<style type="text/css">
	.st0{fill:#E6BC9D;}
	.st1{fill:#E7B551;stroke:#1D1D1B;stroke-miterlimit:10;}
	.st2{fill:#E7B551;}
	.st3{fill:#DAB396;}
	.st4{fill:#232323;}
	.st5{fill:#010202;stroke:#000000;stroke-miterlimit:10;}
	.st6{fill:#325626;}
	.st7{fill:#D75530;}
	.st8{fill:#D44428;}
	.st9{fill:#E5BB9E;}
	.st10{fill:#325727;}
	.st11{fill:#E5775E;}
	.st12{fill:#010101;}
	.st13{fill:none;stroke:#754D24;stroke-miterlimit:10;}
	.st14{fill:#F2F2F2;}
	.st15{fill:#1D1D1B;}
	.st16{fill:#F9B03D;}
	.st17{opacity:0.19;fill:#54A4DB;enable-background:new    ;}
	.st18{fill:#CDCCCC;}
	.st19{fill:none;stroke:#B4B4B4;stroke-width:3;stroke-miterlimit:10;}
	.st20{display:none;fill:#936037;}
	.st21{display:none;fill:#344F3F;}
	.st22{display:none;fill:#3C5F4B;}
	.st23{fill:#E0BDA1;}
	.st24{fill:#E0B662;stroke:#000000;stroke-miterlimit:10;}
	.st25{fill:#E0B662;}
	.st26{fill:#D4B39A;}
	.st27{fill:#010202;}
	.st28{fill:#3A552C;}
	.st29{fill:#E4DAC1;}
	.st30{fill:#D1C6AA;}
	.st31{fill:#C6C6C6;}
	.st32{display:none;fill:#8C613E;}
	.st33{fill:#B2B2B2;}
	.st34{fill:#575756;}
	.st35{display:none;fill:#FFF2A5;}
	.st36{display:none;fill:#E8DB96;}
	.st37{opacity:0.41;fill:#DADADA;enable-background:new    ;}
	.st38{opacity:0.41;fill:#C7C6C6;enable-background:new    ;}
	.st39{fill:#E3E4E4;}
	.st40{fill:#D8D8D8;}
	.st41{fill:#DFBCA1;}
	.st42{fill:#E0B562;stroke:#1D1D1B;stroke-miterlimit:10;}
	.st43{fill:#E0B562;}
	.st44{fill:#D4B399;}
	.st45{fill:#FFFFFF;}
	.st46{fill:#F4F4F4;}
	.st47{fill:#EA5328;}
	.st48{fill:#CA9678;}
	.st49{fill:#A16E51;}
	.st50{fill:#E04B28;}
	.st51{fill:#C38F72;}
	.st52{fill:#93624A;}
	.st53{fill:#D6411E;}
	.st54{display:none;fill:#8B613E;}
	.st55{display:none;fill:#3A4E40;}
	.st56{display:none;fill:#445D4C;}
	.st57{display:none;}
	.st58{fill:#C49F6E;}
	.st59{fill:#E3C6A3;}
	.st60{fill:#DF7A6B;}
	.st61{fill:#DB664B;}
	.st62{display:none;fill:#445E4C;}
	.st63{fill:#D1A67C;}
	.st64{fill:#E3DAC1;}
	.st65{fill:#D1C5A9;}
	.st66{fill:#468B56;}
	.st67{fill:#4D9A5D;}
	.st68{fill:#56A76C;}
	.st69{fill:#CFCFCF;}
	.st70{fill:#8A613D;}
	.st71{fill:#51653D;}
	.st72{fill:#D02D26;}
	.st73{fill:#BC3539;}
	.st74{fill:#D9D9D9;}
	.st75{fill:#C6C6C5;}
	.st76{fill:#474746;}
	.st77{fill:#A2A1A1;}
	.st78{fill:#D2D2D2;}
	.st79{fill:#BEBDBD;}
	.st80{fill:#D23A2F;}
</style>
<g>
	<g id="corps_00000011748621881300981550000011602138522540698047_">
		<path class="st23" d="M306.66,595.56H106.83c2.13-27.13,9.02-65.42,30.48-105.33c6.74-12.53,13.99-23.51,21.17-33.02
			c10.57-7.34,23.82-14.98,39.8-21.17c45.17-17.49,86.41-13.35,108.38-9.31C306.66,483,306.66,539.28,306.66,595.56z"/>
		<path class="st23" d="M306.66,426.72v-82.13h-52.5c4.58,12.49,8.92,28.55,10.29,47.42c0.95,13.05,0.29,24.75-1.03,34.72"/>
		<path class="st23" d="M236.96,196.5c-13.85,0-27.17-0.53-40.72-0.82c-10.1,18.16-16.13,38.6-16.96,59.58
			c-2.8,70.53,53.49,137.92,127.54,138.43V198.45c-10.12-0.18-20.37-1-30.86-2.95C262.96,192.5,249.96,196.5,236.96,196.5z"/>
		<path class="st23" d="M305.97,127.82c-47.87,0.62-88.12,28.99-109.74,67.86c13.56,0.29,26.88,0.82,40.72,0.82c13,0,26-4,39-1
			c10.49,1.95,20.74,2.77,30.86,2.95v-70.63C306.54,127.83,306.25,127.82,305.97,127.82z"/>
		<path class="st26" d="M305.97,595.56H505.8c-2.13-27.13-9.02-65.42-30.48-105.33c-6.74-12.53-13.99-23.51-21.17-33.02
			c-10.57-7.34-23.82-14.98-39.8-21.17c-45.17-17.49-86.41-13.35-108.38-9.31C305.97,483,305.97,539.28,305.97,595.56z"/>
		<path class="st26" d="M305.97,426.72v-82.13h52.5c-4.58,12.49-8.92,28.55-10.29,47.42c-0.95,13.05-0.29,24.75,1.03,34.72"/>
		<path class="st26" d="M433.36,255.26c-0.8-20.09-6.36-39.68-15.7-57.25c-5.86-0.55-12.1-0.71-17.71-1.51
			c-32.09-3.06-62.43,2.64-94.14,1.93v195.26C379.88,393.18,436.16,325.79,433.36,255.26z"/>
		<path class="st26" d="M399.96,196.5c5.61,0.8,11.85,0.97,17.71,1.51c-21.28-40.06-62.18-69.56-111-70.19c-0.28,0-0.56,0-0.85,0
			v70.6C337.53,199.14,367.87,193.44,399.96,196.5z"/>
		<ellipse class="st23" cx="186.49" cy="259.38" rx="17.16" ry="20.53"/>
		<ellipse class="st26" cx="427.6" cy="259.38" rx="17.16" ry="20.53"/>
	</g>
	<g id="yeux_00000052066334983397061720000017815859568219541133_">
		<ellipse class="st27" cx="254.17" cy="267.01" rx="12.89" ry="27.68"/>
		<ellipse class="st27" cx="358.47" cy="267.01" rx="12.89" ry="27.68"/>
	</g>
	<g id="TSHIRT_00000063607746842203019910000004656621984772570535_">
		<path class="st29" d="M263.83,423.24v1.34c0,20.05,16.45,36.3,36.75,36.3c2.08,0,4.15,0,6.23,0c0,44.9,0,89.79,0,134.69
			c-67.89,0-135.78,0-203.68,0l14.7-92.9c1.47-6.37,4.35-15.58,10.39-25.32c2.12-3.41,9.97-15.51,28.66-28.13
			c28-18.91,63.81-24.61,73.69-26.02"/>
		<path class="st30" d="M348.47,423.24v1.34c0,20.05-16.45,36.3-36.75,36.3c-1.91,0-3.83,0-5.74,0c0.01,44.9,0.01,89.79,0.02,134.69
			c67.72,0,135.44,0,203.17,0l-14.7-92.9c-1.47-6.37-4.35-15.58-10.39-25.32c-2.12-3.41-9.97-15.51-28.66-28.13
			c-28-18.91-63.81-24.61-73.69-26.02"/>
	</g>
	<g id="Calque_8_00000068651178808013526810000000191530433302370487_">
		<g id="Calque_13_00000022523115119431718440000015517236796086553268_">
			<path class="st7" d="M305.75,496.68v99.83H199.03V485.86v-54.39c0-1.59,1.06-2.98,2.59-3.41l6.5-1.8l20.19-4
				c1.07-0.21,2.06,0.6,2.06,1.69V496L305.75,496.68z"/>
			<path class="st8" d="M305.89,496.68v99.83h106.72V485.86v-54.39c0-1.59-1.06-2.98-2.59-3.41l-6.5-1.8l-20.19-4
				c-1.07-0.21-2.06,0.6-2.06,1.69V496L305.89,496.68z"/>
			<path d="M194.2,597.15L206,635.9l-153.17,1.01v-51.73c0-2.72,1.13-5.31,3.12-7.15l14.56-13.48h57.96c-1.08,3.28-2.24,8.7,0,13.92
				c1.95,4.54,5.97,7.77,19.15,12.77"/>
			<path class="st7" d="M135.05,558.73l16.34-62.57H86.44c0.04,2.05,0.05,4.14,0,6.26c-0.28,13.33-0.62,32.33-9.89,50.44
				c-2.75,5.36-7.6,13.24-16.18,21.35"/>
			<path class="st7" d="M194.2,597.15c-11.26,4.5-21.04,6.98-28.19,8.41c-10.51,2.11-18.38,3.61-28.79,2.3
				c-2.48-0.31-10.31-1.45-18.78-5.22c-20.2-8.99-30.32-26.84-33.8-33.8l50.76-11.41c-0.28,0.83-0.64,2.03-0.97,3.51
				c0,0-0.38,1.72-0.54,3.11c-0.33,2.88,0.74,9.83,6,14.39c1.45,1.25,3.19,2.11,6.69,3.81c3.14,1.53,5.85,2.56,7.73,3.2
				C167.6,589.35,180.9,593.25,194.2,597.15z"/>
			<path class="st7" d="M86.44,496.16H71.31c-1.11-0.95-2.64-2.4-4.15-4.41c-6.52-8.68-5.75-18.55-5.63-19.84
				c0.17-1.85,1.27-13.62,10.66-19.54c2.45-1.54,4.81-2.28,6.51-2.66h99.76c2.8,0,5.06,2.27,5.06,5.06v37.11
				c0,2.36-1.92,4.28-4.28,4.28h-27.86"/>
			<path class="st31" d="M183.53,456.07h15.29c2.55,0,4.62,2.07,4.62,4.62v24.28c0,2.66-2.16,4.82-4.82,4.82h-15.1"/>
			<path d="M203.45,462.49h14.94c1.61,0,2.91,1.3,2.91,2.91v15.81c0,1.69-1.37,3.07-3.07,3.07h-14.79L203.45,462.49L203.45,462.49z"
				/>
			<path d="M221.31,471.4h27.03c0.85,0,1.53,0.69,1.53,1.53l0,0c0,0.85-0.69,1.53-1.53,1.53h-27.03"/>
		</g>
		<rect x="102.91" y="388.17" class="st32" width="26.32" height="320.9"/>
		
			<ellipse transform="matrix(0.9985 -0.0553 0.0553 0.9985 -33.0441 7.2706)" class="st23" cx="114.85" cy="600.72" rx="52.1" ry="52.1"/>
	</g>
	<g id="Calque_12_00000133519042987808161740000016285970613888749986_">
		<path class="st5" d="M431.87,271.2l-4.24,5.92c-0.02,0.03-0.04,0.06-0.07,0.09l0,0c-0.89,1.08-2.64,0.65-2.92-0.72l-4.83-23.41
			c-1.38-6.69-5.25-12.61-10.84-16.56l-5.48-3.87c-11.46-8.1-24.25-14.13-37.79-17.84l-59.89-16.37V121.8
			c1.44-0.04,3.62-0.08,6.27,0c38.53,1.15,75.72,23.65,98.07,53.83c17.12,23.12,22.07,46.08,23.18,51.7
			c1.1,5.56,1.63,10.29,1.91,13.68h-3.07v29.22C432.18,270.57,432.07,270.91,431.87,271.2z"/>
		<path class="st4" d="M179.95,271.2l4.24,5.92c0.02,0.03,0.04,0.06,0.07,0.09l0,0c0.89,1.08,2.64,0.65,2.92-0.72l4.83-23.41
			c1.38-6.69,5.25-12.61,10.84-16.56l5.48-3.87c11.46-8.1,24.25-14.13,37.79-17.84l59.89-16.37V121.8c-1.44-0.04-3.62-0.08-6.27,0
			c-38.53,1.15-75.72,23.65-98.07,53.83c-17.12,23.12-22.07,46.08-23.18,51.7c-1.1,5.56-1.63,10.29-1.91,13.68h3.07v29.22
			C179.63,270.57,179.74,270.91,179.95,271.2z"/>
	</g>
	<g id="Calque_9_00000119802575706883585980000013780323777683274624_">
		<g id="Calque_14_00000181796888881179273380000009379343253025142717_">
			<path class="st33" d="M432.47,520.41h15.39c1.39,0,2.52-1.13,2.52-2.52v-1.31c0-1.39-1.13-2.52-2.52-2.52h-15.39
				c-1.39,0-2.52,1.13-2.52,2.52v1.31C429.95,519.28,431.08,520.41,432.47,520.41z"/>
			<path class="st33" d="M434.34,514.05v-11c0-1.09,0.11-2.17,0.36-3.24c0.4-1.74,0.99-3.86,1.87-6.19
				c1.51-4,4.65-12.32,12.02-18.03c7.54-5.85,18.61-8.27,28.85-5.15c15.09,4.6,20.53,18.86,21.98,22.67
				c2.58,6.75,2.77,12.84,2.58,16.66v64.4h-14.94v-64.4c-0.28-1.8-0.81-4.33-1.89-7.21c-1.91-5.1-5.49-14.69-14.25-17.17
				c-7.99-2.27-15.22,2.81-16.31,3.61c-4.32,3.14-6.25,7.21-7.04,8.93c-1.81,3.93-2.17,7.49-2.23,9.62l0.34,8.07l-11.33-0.86"/>
			<path class="st34" d="M434.34,520.41h12.39c0,0,0.62-2.68,0-3.18c-1.92-1.56-10.17-1.37-12.39,0
				C433.67,517.65,434.34,520.41,434.34,520.41z"/>
		</g>
		<circle class="st26" cx="496.85" cy="592.5" r="52.1"/>
		<path class="st35" d="M306.82,206.49V82.19h-27.66c-112.8,0-95.09,24.49-107.32,113.42l-1.49,10.88H306.82z"/>
		<path class="st36" d="M306.82,206.49V82.19h27.66c112.8,0,95.09,24.49,107.32,113.42l1.49,10.88H306.82z"/>
	</g>
	<g id="lunettes_00000163053159345750529840000006678191092581314214_">
		<path class="st37" d="M305.82,267.01h-3.48l-1.48,1.03c-1.55,1.07-2.85,2.45-3.83,4.05l-0.56,0.91c-0.2,0.32-0.38,0.66-0.55,1
			l-2.4,4.8c-0.78,1.56-1.7,3.05-2.75,4.45l-2.35,3.13c-2.05,2.73-4.56,5.08-7.42,6.94l-3.33,2.17c-3.82,2.49-7.9,4.54-12.18,6.12
			l0,0c-2.23,0.82-4.54,1.43-6.89,1.81l-2.41,0.39c-3.1,0.5-6.25,0.59-9.37,0.29l-3.71-0.36c-3.05-0.3-6.05-0.98-8.93-2.03
			l-6.86-2.49c-0.34-0.12-0.67-0.26-0.99-0.41l-15.04-7.01c-5.21-3.32-13.56-8.65-18.76-11.98c-1.4-1.18-2.81-2.37-4.21-3.55
			l-2.4-2.49c-2.2-2.29-3.91-5-5.02-7.98l0,0c-1.13-3.05-1.6-6.31-1.39-9.55l0.92-13.77l0.37-2.44l1.23-6.58l16.29-1.43l26.38-1.49
			h26.83l22.1,1.06l23.97,2.13l8.22,1.28L305.82,267.01L305.82,267.01z"/>
		<path class="st38" d="M305.82,267.01h3.48l1.48,1.03c1.55,1.07,2.85,2.45,3.83,4.05l0.56,0.91c0.2,0.32,0.38,0.66,0.55,1l2.4,4.8
			c0.78,1.56,1.7,3.05,2.75,4.45l2.35,3.13c2.05,2.73,4.56,5.08,7.42,6.94l3.33,2.17c3.82,2.49,7.9,4.54,12.18,6.12l0,0
			c2.23,0.82,4.54,1.43,6.89,1.81l2.41,0.39c3.1,0.5,6.25,0.59,9.37,0.29l3.71-0.36c3.05-0.3,6.05-0.98,8.93-2.03l6.86-2.49
			c0.34-0.12,0.67-0.26,0.99-0.41l15.04-7.01c5.21-3.32,13.56-8.65,18.76-11.98c1.4-1.18,2.81-2.37,4.21-3.55l2.4-2.49
			c2.2-2.29,3.91-5,5.02-7.98l0,0c1.13-3.05,1.6-6.31,1.39-9.55l-0.92-13.77l-0.37-2.44l-1.23-6.58l-16.29-1.43l-26.38-1.49h-26.83
			l-22.1,1.06l-23.97,2.13l-8.22,1.28L305.82,267.01L305.82,267.01z"/>
		<path class="st39" d="M305.82,230.51v5.77H181.39l-0.59,3.7l-0.67,0.33l-0.67,0.37l-0.9,0.57c-0.32,0.19-0.64,0.37-0.96,0.56
			c0.19-1.42,0.37-2.84,0.56-4.25l0.76-4.78c0.14-0.88,0.9-1.53,1.79-1.54L305.82,230.51z"/>
		<path class="st40" d="M305.82,230.51v5.77h124.43l0.59,3.7l0.67,0.33l0.67,0.37l0.9,0.57c0.32,0.19,0.64,0.37,0.96,0.56
			c-0.19-1.42-0.37-2.84-0.56-4.25l-0.76-4.78c-0.14-0.88-0.9-1.53-1.79-1.54L305.82,230.51z"/>
	</g>
</g>
</svg>
