<?xml version="1.0" encoding="UTF-8"?>
<svg xmlns="http://www.w3.org/2000/svg" version="1.1" viewBox="0 0 595.3 595.3">
  <defs>
    <style>
      .cls-1, .cls-2 {
        fill: #e7b551;
      }

      .cls-3 {
        fill: #325626;
      }

      .cls-4 {
        fill: #a16e51;
      }

      .cls-5 {
        fill: #ddb90a;
      }

      .cls-6 {
        fill: #2c2c6d;
      }

      .cls-7 {
        fill: #b5b5aa;
      }

      .cls-8 {
        fill: #e6bc9d;
      }

      .cls-9 {
        fill: #232323;
      }

      .cls-2 {
        stroke: #1d1d1b;
      }

      .cls-2, .cls-10 {
        stroke-miterlimit: 10;
      }

      .cls-11 {
        fill: #312783;
      }

      .cls-12 {
        fill: #e2e2e2;
      }

      .cls-13 {
        fill: #344f3f;
      }

      .cls-13, .cls-14, .cls-15, .cls-16, .cls-17, .cls-18, .cls-19 {
        display: none;
      }

      .cls-20 {
        fill: #e04b28;
      }

      .cls-14 {
        fill: #936037;
      }

      .cls-21 {
        fill: #d8d8d8;
      }

      .cls-22 {
        fill: #c4c4c4;
      }

      .cls-23 {
        fill: #d75530;
      }

      .cls-15 {
        fill: #3f2517;
      }

      .cls-10 {
        fill: none;
        stroke: #b4b4b4;
        stroke-width: 3px;
      }

      .cls-24 {
        fill: #d44428;
      }

      .cls-16 {
        fill: #bbbab8;
      }

      .cls-25 {
        fill: #f4f4f4;
      }

      .cls-26 {
        fill: #dab396;
      }

      .cls-27 {
        fill: #010202;
      }

      .cls-28 {
        fill: #cdcccc;
      }

      .cls-18 {
        fill: #3c5f4b;
      }

      .cls-19 {
        fill: #432918;
      }

      .cls-29 {
        fill: #93624a;
      }

      .cls-30 {
        fill: #f9b03d;
      }

      .cls-31 {
        fill: #54a4db;
        isolation: isolate;
        opacity: .2;
      }
    </style>
  </defs>
  <!-- Generator: Adobe Illustrator 28.7.1, SVG Export Plug-In . SVG Version: 1.2.0 Build 142)  -->
  <g>
    <g id="Calque_1">
      <g id="Calque_1-2" data-name="Calque_1">
        <g>
          <g id="corps">
            <path class="cls-8" d="M306.7,595.6H106.9c2.1-27.1,9-65.4,30.5-105.3,6.7-12.5,14-23.5,21.2-33,10.6-7.3,23.8-15,39.8-21.2,45.2-17.5,86.4-13.4,108.4-9.3v168.8h0Z"/>
            <path class="cls-2" d="M284.7,469.1"/>
            <path class="cls-1" d="M146.7,403"/>
            <path class="cls-8" d="M306.7,426.8v-82.1h-52.5c4.6,12.5,8.9,28.5,10.3,47.4,1,13,.3,24.8-1,34.7"/>
            <path class="cls-1" d="M306.7,393.7"/>
            <path class="cls-8" d="M237,196.5c-13.9,0-27.2-.5-40.7-.8-10.1,18.2-16.1,38.6-17,59.6-2.8,70.5,53.5,137.9,127.5,138.4v-195.2c-10.1-.2-20.4-1-30.9-2.9-13-3-26,1-39,1h.1Z"/>
            <path class="cls-8" d="M306,127.8c-47.9.6-88.1,29-109.7,67.9,13.6.3,26.9.8,40.7.8s26-4,39-1c10.5,1.9,20.7,2.8,30.9,2.9v-70.6h-.9Z"/>
            <path class="cls-26" d="M306,595.6h199.8c-2.1-27.1-9-65.4-30.5-105.3-6.7-12.5-14-23.5-21.2-33-10.6-7.3-23.8-15-39.8-21.2-45.2-17.5-86.4-13.4-108.4-9.3v168.8h.1Z"/>
            <path class="cls-2" d="M328,469.1"/>
            <path class="cls-1" d="M466,403"/>
            <path class="cls-19" d="M299.4,114.3c-13.8.3-36.2,2.7-59.6,15-50.5,26.6-66.6,78.8-73.1,100.1-15.9,51.8-6.1,96.9,0,117.7,0,0,9.3,102.1,10.4,105.2l26.7-3.1,60.2-24.6,3.2-4.5v-26.4c-1.1-2.7-2.1-5.5-3.2-8.2-12.2-5.6-28.4-14.9-43.9-30.1-5.7-5.6-18.1-18-27.3-36.8-3.8-7.7-6.2-14.9-7.3-18.3-1.4-4.4-3.1-9.8-4-15.9-.9-6-1.5-16.2,2.3-29.2l2.8-19.2,1.4-6.7c4.5-1.2,11.1-3,19.2-5.2,20.6-5.7,31.1-8.5,37.3-10.9,6.9-2.6,19.6-7.5,33.9-17.4,12.5-8.7,21.5-17.9,27.5-25.1v-56.5h-6.5,0Z"/>
            <path class="cls-26" d="M306,426.8v-82.1h52.5c-4.6,12.5-8.9,28.5-10.3,47.4-1,13-.3,24.8,1,34.7"/>
            <path class="cls-1" d="M306,393.7"/>
            <path class="cls-26" d="M433.4,255.3c-.8-20.1-6.4-39.7-15.7-57.2-5.9-.6-12.1-.7-17.7-1.5-32.1-3.1-62.4,2.6-94.1,1.9v195.3c74.1-.5,130.3-67.9,127.5-138.4h0Z"/>
            <path class="cls-26" d="M400,196.5c5.6.8,11.9,1,17.7,1.5-21.3-40.1-62.2-69.6-111-70.2h-.9v70.6c31.7.7,62-5,94.1-1.9h0Z"/>
            <path class="cls-16" d="M306.2,202.2l16.1,11.8c3.2,2.3,7.3,2.8,10.9,1.2l15.6-6.8c5.2-2.2,11.2-.2,13.9,4.6l5.4,9.5c1.6,2.9,4.5,4.8,7.7,5.4l4.7.8c5.4.9,9.3,5.6,9.3,11l4.3,10.4,3.8,6.1c4.7,0,9.4-1.5,13.2-4.2l12.8-9c.5-.3,1-.6,1.6-.9l2.8-1.1c2.8-1.1,5.9-.6,8.2,1.3l.9.8c.6.5,1.1,1.1,1.6,1.8l2.6,4.2c.5.8.9,1.8,1.1,2.8l1.4,7.4,23.9-9.3c3-1.2,5.4-3.4,6.7-6.4l2.2-4.9.4-1.5c1-4.2.4-8.6-1.6-12.5l-3.5-6.7-2.8-2.1c-2.5-1.9-3.7-5-3.2-8.1l2.2-12.4-.5-7.4c-.3-4.2-2.8-10.4-5.5-13.7h0c-.5-.6-1-1.1-1.5-1.6l-3.4-3.4c-.9-.9-2.2-1.4-3.4-1.4l-6.3-2.9c-3.2-1.6-5.6-4.5-6.5-8l-4.3-16.2-.8-2.3c-3.4-9.4-9.1-17.8-16.5-24.6l-1.8-1.7-15.9-4.7-9.4-1.4c-3.7-.9-8.3,1.5-11.9,2.9l-8.4,3.3c-1,.4-1.8.9-2.6,1.7l-2.7,2.6c-1.9,1.9-5.1,1.4-6.4-1l-7.5-14.2c-1.5-2.8-3.3-5.4-5.5-7.7l-1.9-2c-3.1-3.2-6.9-5.5-11.2-6.5h0c-1.9-.5-3.8-.7-5.7-.7l-6.3-1.3c-2.2-.4-4.4-.5-6.6-.2l-9.5-.2v119l-.2.4Z"/>
            <path class="cls-27" d="M305.9,202.2l16,11.8c3.1,2.3,7.2,2.8,10.8,1.2l15.5-6.8c5.1-2.2,11.1-.2,13.8,4.6l5.4,9.5c1.6,2.9,4.4,4.8,7.6,5.4l4.7.8c5.3.9,9.2,5.6,9.2,11l4.2,10.4,3.8,6.1c4.7,0,9.3-1.5,13.1-4.2l12.7-9c.5-.3,1-.6,1.6-.9l2.8-1.1c2.7-1.1,5.9-.6,8.1,1.3l.9.8c.6.5,1.1,1.1,1.6,1.8l2.6,4.2c.5.8.9,1.8,1.1,2.8l1.4,7.4c-16.4,15.2-19.1,21.6-17.5,24.5,1,1.8,3.8,2,4.4,4.6.6,2.7-2,4.1-3.9,9.7-.9,2.6-2,6-.8,7,1.8,1.5,8.9-2.3,13.6-7.5,3.6-4.1,3.5-6.4,6.6-7.7,4-1.6,5.9,1.4,10.2,0,1.6-.5,4-3.3,8.7-8.7,3.7-4.2,4.5-5.4,5.1-6.6,1.2-2.2,2.6-4.8,2.6-8.2s-2.4-7.8-3.6-9.2c0-2.1.2-5.8,2.3-9.7.9-1.6,1.8-2.9,2.7-3.8l2.2-4.9.4-1.5c1-4.2.4-8.6-1.6-12.5l-3.5-6.7-2.8-2.1c-2.5-1.9-3.7-5-3.1-8.1l2.2-12.4-.5-7.4c-.3-4.2-2.7-10.4-5.4-13.7h0c-.5-.6-1-1.1-1.5-1.6l-3.4-3.4c-.9-.9-2.1-1.4-3.4-1.4l-6.3-2.9c-3.2-1.6-5.6-4.5-6.5-8l-4.3-16.2-.8-2.3c-3.4-9.4-9-17.8-16.4-24.6l-1.8-1.7-15.7-4.7-9.3-1.4c-3.7-.9-8.2,1.5-11.8,2.9l-8.4,3.3c-.9.4-1.8.9-2.5,1.7l-2.6,2.6c-1.9,1.9-5.1,1.4-6.4-1l-7.4-14.2c-1.5-2.8-3.3-5.4-5.5-7.7l-1.9-2c-3-3.2-6.9-5.5-11.2-6.5-1.9-.5-6.8-2.5-8.7-2.5l-5.6-.9c-2.2-.4-6.5-.4-8.7,0l-4.9,1.1v119l-.2.2Z"/>
            <path class="cls-9" d="M306.2,202.2l-16,11.8c-3.1,2.3-7.2,2.8-10.8,1.2l-15.5-6.8c-5.1-2.2-11.1-.2-13.8,4.6l-5.4,9.5c-1.6,2.9-4.4,4.8-7.6,5.4l-4.7.8c-5.3.9-9.2,5.6-9.2,11l-4.2,10.4-3.8,6.1c-4.7,0-9.3-1.5-13.1-4.2l-12.7-9c-.5-.3-1-.6-1.6-.9l-2.8-1.1c-2.7-1.1-5.9-.6-8.1,1.3l-.9.8c-.6.5-1.1,1.1-1.6,1.8l-2.6,4.2c-.5.8-.9,1.8-1.1,2.8l-1.4,7.4c16.4,15.2,19.1,21.6,17.5,24.5-1,1.8-3.8,2-4.4,4.6-.6,2.7,2,4.1,3.9,9.7.9,2.6,2,6,.8,7-1.8,1.5-8.9-2.3-13.6-7.5-3.6-4.1-3.5-6.4-6.6-7.7-4-1.6-5.9,1.4-10.2,0-1.6-.5-4-3.3-8.7-8.7-3.7-4.2-4.5-5.4-5.1-6.6-1.2-2.2-2.6-4.8-2.6-8.2s2.4-7.8,3.6-9.2c0-2.1-.2-5.8-2.3-9.7-.9-1.6-1.8-2.9-2.7-3.8l-2.2-4.9-.4-1.5c-1-4.2-.4-8.6,1.6-12.5l3.5-6.7,2.8-2.1c2.5-1.9,3.7-5,3.1-8.1l-2.2-12.4.5-7.4c.3-4.2,2.7-10.4,5.4-13.7h0c.5-.6,1-1.1,1.5-1.6l3.4-3.4c.9-.9,2.1-1.4,3.4-1.4l6.3-2.9c3.2-1.6,5.6-4.5,6.5-8l4.2-15.7c0-.3.2-.6.3-.9l.7-1.8c3.4-9.4,9-17.8,16.4-24.6h0c1.2-1.1,2.6-1.9,4.2-2.4l12.6-3.8c.5,0,1-.3,1.5-.3l8.5-1.3c3.7-.9,8.2,1.5,11.8,2.9l8.4,3.3c.9.4,1.8.9,2.5,1.7l2.6,2.6c1.9,1.9,5.1,1.4,6.4-1l6.1-11.8c2.3-4.4,5.2-8.5,8.6-12.1h0c3-3.2,6.9-5.5,11.2-6.5,1.9-.5,6.8-2.5,8.7-2.5l5.6-.9c1.7-.4,4.8-.4,7.1-.3s1.7.2,2.6.4l4,.9v119.2Z"/>
            <ellipse class="cls-8" cx="186.5" cy="259.4" rx="17.2" ry="20.5"/>
            <path class="cls-19" d="M162.6,244.9c34.5-1.4,110.5-9.2,137.5-59.4,1.3-2.3,2.4-4.8,3.5-7.3l2.4-4.8v-59.2l-63,22.6-49.5,50.6-31,57.4h.1Z"/>
            <path class="cls-15" d="M312.5,114.3c13.8.3,36.2,2.7,59.6,15,50.5,26.6,66.6,78.8,73.1,100.1,15.9,51.8,6.1,96.9,0,117.7,0,0-9.3,102.1-10.4,105.2l-26.7-3.1-60.2-24.6-3.2-4.5v-26.4l3.2-8.2c5.1-2.9,54.9-31.9,72.7-68.5,8.2-16.9,9.7-32.5,9.7-32.5,1.1-12.3-.6-22.5-2.3-29.2l-2.8-19.2-1.4-6.7c-4.5-1.2-11.1-3-19.2-5.2-20.6-5.7-31.1-8.5-37.3-10.9-6.9-2.6-19.6-7.5-33.9-17.4-12.5-8.7-21.5-17.9-27.5-25.1v-56.5h6.6Z"/>
            <ellipse class="cls-26" cx="427.6" cy="259.4" rx="17.2" ry="20.5"/>
            <path class="cls-15" d="M449.3,244.9c-34.5-1.4-110.5-9.2-137.5-59.4-1.3-2.3-2.4-4.8-3.5-7.3l-2.4-4.8v-59.2l63,22.6,49.5,50.6,31,57.4h-.1Z"/>
          </g>
          <g id="yeux">
            <ellipse cx="254.2" cy="267" rx="12.9" ry="27.7"/>
            <ellipse cx="358.5" cy="267" rx="12.9" ry="27.7"/>
          </g>
          <path class="cls-25" d="M343.8,439c-4.2,3.8-11.5,9.6-22.1,12.8-6.3,2-11.9,2.5-16.2,2.5v53.9h35.9l2.4-69.2h0Z"/>
          <path class="cls-25" d="M267.7,439c4.2,3.8,11.5,9.6,22.1,12.8,6.3,2,11.9,2.5,16.2,2.5v53.9h-35.9l-2.4-69.2h0Z"/>
          <path class="cls-24" d="M500,549.4c-.7-5.1-2.7-18.8-8.5-35.6-2.3-6.7-6.6-18.4-14.3-32.1-8.4-15.1-14.1-25.3-25.5-34.2-8.2-6.4-15.3-9-24.9-12.5-12.3-4.5-24.3-6.7-48.3-11.1-6.6-1.2-16.7-3-27.2-10.3-2.6-1.8-4.7-3.6-6.2-5-.3-.2-.5-.5-.7-.7l1.1,8.2c.5,3.6.4,7.3-.3,10.9l-.8,4.5-1.8,8.2c-.5,2.3-1.3,4.6-2.3,6.8l-5.3,11.7h0c-4.5,7.4-9,14.6-13.6,21.9-3.3,4.1-6.7,8.2-10,12.3l-5.8,16.5v89.6h194.5c2.7-20.3,1.6-37.3,0-49.1h-.1Z"/>
          <path class="cls-23" d="M111.5,549.4c.7-5.1,2.7-18.8,8.5-35.6,2.3-6.7,6.6-18.4,14.3-32.1,8.4-15.1,14.1-25.3,25.5-34.2,8.2-6.4,15.3-9,24.9-12.5,12.3-4.5,24.3-6.7,48.3-11.1,6.6-1.2,16.7-3,27.2-10.3,2.6-1.8,4.7-3.6,6.2-5,.3-.2.5-.5.7-.7l-1.1,8.2c-.5,3.6-.4,7.3.3,10.9l.8,4.5,1.8,8.2c.5,2.3,1.3,4.6,2.3,6.8l5.3,11.7h0c4.5,7.4,9,14.6,13.6,21.9,3.3,4.1,6.7,8.2,10,12.3,2,5.7,3.8,10.8,5.8,16.5v89.6H111.4c-2.7-20.3-1.6-37.3,0-49.1h.1Z"/>
          <path class="cls-20" d="M306,508.9l-6.3-10.2-22.9-10.4c-2.3-1.1-3.5-3.8-2.6-6.3l4.8-13.5-4.3-1.1-15.5,7.3c-1.4.6-2.9.6-4.3,0h0c-1.5-.7-2.7-2.2-3-3.9l-3-15.3c-.2-.8-.2-1.7-.2-2.5v-10c0-.7,0-1.4.2-2.1l2.1-12.5c.2-1.1.5-2.2,1-3.2l3.9-8.5,5.8-8.5c.2-.2.3-.4.5-.6l2.9-2.6c1.4-1.3,3.6-1.2,4.8.3l.3.4c.4.5.7,1,.8,1.6l2.4,10.6,2,13.4,1.9,13.9,3.7,12,8.8,16.3,13,18.2,3.2,17.1h0Z"/>
          <path class="cls-20" d="M306,508.2l6.3-10.2,23.8-10.8c1.8-.8,2.7-3,2-5l-5.1-14.4,4.3-1.1,13.1,6.2c2.9,1.4,6.2,1.4,9,0h0l3.6-18.4c.1-.6.2-1.3.2-1.9v-10.6c0-.5,0-1.1-.1-1.6l-2.2-13.2c-.1-.8-.4-1.7-.8-2.4l-3.8-8.1c-.2-.5-.5-1-.8-1.4l-5.4-7.8c-.2-.2-.3-.4-.5-.6l-2.7-2.5c-1.5-1.4-3.7-1.2-5,.3l-.2.3c-.4.5-.7,1-.8,1.7l-2.3,10.5-2,13.4-1.9,13.9-3.7,12-8.8,16.3-13,18.2-3.2,17.1h0Z"/>
          <g id="TSHIRT" class="cls-17">
            <path class="cls-3" d="M160.3,459.3"/>
            <path class="cls-11" d="M263.9,423.3v1.3c0,20,16.5,36.3,36.8,36.3h6.2v134.7H103.2l14.7-92.9c1.5-6.4,4.3-15.6,10.4-25.3,2.1-3.4,10-15.5,28.7-28.1,25.5-17.2,51.5-22,73.7-26,15.3-2.8,28-3.9,36.5-4.4"/>
            <path class="cls-6" d="M348.5,423.3v1.3c0,20-16.5,36.3-36.8,36.3h-5.7v134.7h203.2l-14.7-92.9c-1.5-6.4-4.4-15.6-10.4-25.3-2.1-3.4-10-15.5-28.7-28.1-28-18.9-63.8-24.6-73.7-26"/>
          </g>
          <g id="Calque_8">
            <g id="Calque_12" class="cls-17">
              <path class="cls-30" d="M100.4,506.8c-.3-.4-1.9-2.3-2-5.4,0-2.6,1.1-4.9,2.6-6.1,1.1-.9,2.4-1.2,3.9-1.5,1.9-.4,2.4-.1,3.3-.8,1.6-1.2,1.9-3.6,2-3.8.2-1.3,0-2.3-.7-3.8-1.4-4.1-2.2-4.8-2.6-6.9-.2-1-.7-3.8.7-6.1,1.3-2.2,3.6-2.7,5.2-3.1,2-.4,3.6-.2,4.6,0h1v37.2l-18,.2h0Z"/>
              <path class="cls-31" d="M118.4,638.4v-108.3c-1,.4-28.3,0-28.3,0l-4.6,4.2-1.2,4.4,1,4.6,3.2,10.1,2.6,8.4.2,10.7-3.4,12.9-3.4,13.6-3.2,10.3v4.2l1.5,7.4,2.1,8.6,2.3,6.6,3.7,1.5,25.5.9h2Z"/>
              <path class="cls-28" d="M92.6,530.1v-16.7c0-3.8,2.6-6.8,5.9-6.8h20v24.7l-25.8-1.2h0Z"/>
              <path class="cls-10" d="M118.4,637.9h-25.6c-3.4,0-6.4-2.6-7.3-6.5l-3.8-15.6c-.4-1.6-.4-3.3,0-4.9l5.3-22,4.1-14.2c.3-1.2.5-2.5.3-3.7l-1-12.2c0-.8-.2-1.6-.5-2.3l-4-12.1c0-.4-.3-.7-.4-1.1h0c-2.8-5.9.8-13.2,6.7-13.2h26.3"/>
              <path class="cls-28" d="M118.1,637.5"/>
              <path class="cls-30" d="M136.4,506.8c.3-.4,1.9-2.3,2-5.4,0-2.6-1.1-4.9-2.6-6.1-1.1-.9-2.4-1.2-3.9-1.5-1.9-.4-2.4-.1-3.3-.8-1.6-1.2-1.9-3.6-2-3.8-.2-1.3,0-2.3.7-3.8,1.4-4.1,2.2-4.8,2.6-6.9.2-1,.7-3.8-.7-6.1-1.3-2.2-3.6-2.7-5.2-3.1-2-.4-3.6-.2-4.6,0h-.9v37.2l18,.2h-.1Z"/>
              <path class="cls-31" d="M118.4,638.4v-108.3c1,.4,28.3,0,28.3,0l4.6,4.2,1.2,4.4-1,4.6-3.2,10.1-2.6,8.4-.2,10.7,3.4,12.9,3.4,13.6,3.2,10.3v4.2l-1.5,7.4-2.1,8.6-2.3,6.6-3.7,1.5-25.5.9h-2Z"/>
              <path class="cls-28" d="M144.2,530.1v-16.7c0-3.8-2.6-6.8-5.9-6.8h-20v24.7l25.8-1.2h0Z"/>
              <path class="cls-10" d="M118.4,637.9h25.6c3.4,0,6.4-2.6,7.3-6.5l3.8-15.6c.4-1.6.4-3.3,0-4.9l-5.3-22-4.1-14.2c-.3-1.2-.5-2.5-.4-3.7l1-12.2c0-.8.2-1.6.5-2.3l4-12.1c.1-.4.3-.7.4-1.1h0c2.8-5.9-.9-13.2-6.7-13.2h-26.3"/>
              <path class="cls-28" d="M118.7,637.5"/>
            </g>
            <rect class="cls-14" x="103.9" y="512.4" width="26.3" height="320.9"/>
            <path class="cls-13" d="M52.3,495.7h126.5c1.7,0,3,1.4,3,3v4.1c0,5.2-4.3,9.5-9.5,9.5H59.8c-5.4,0-9.8-4.4-9.8-9.8v-4.4c0-1.3,1.1-2.4,2.4-2.4h-.1Z"/>
            <path class="cls-18" d="M136,372.7h1.4c2.6,0,4.8,2.1,4.8,4.8v118.3h-10.8v-118.3c0-2.6,2.1-4.7,4.7-4.7h0Z"/>
            <path class="cls-18" d="M59.2,372.7h1.3c2.6,0,4.7,2.1,4.7,4.8v118.3h-10.8v-118.3c0-2.6,2.1-4.7,4.7-4.7h.1Z"/>
            <path class="cls-18" d="M171.6,372.7h1.4c2.6,0,4.8,2.1,4.8,4.8v118.3h-10.8v-118.3c0-2.6,2.1-4.7,4.7-4.7h0Z"/>
            <path class="cls-18" d="M97.6,372.7h1.3c2.6,0,4.8,2.1,4.8,4.8v118.3h-10.8v-118.3c0-2.6,2.1-4.7,4.7-4.7h0Z"/>
          </g>
          <path class="cls-5" d="M370.4,397.2"/>
        </g>
      </g>
      <g id="Calque_3">
        <rect class="cls-4" x="139.2" y="469.2" width="166.7" height="126.4"/>
        <rect class="cls-29" x="305.9" y="469.2" width="166.7" height="126.4"/>
        <g id="Calque_9">
          <circle class="cls-26" cx="497.9" cy="592.5" r="52.1"/>
        </g>
        <circle class="cls-8" cx="116.3" cy="600.7" r="52.1" transform="translate(-33.4 7.4) rotate(-3.2)"/>
        <path class="cls-22" d="M181.1,493.5c0,0,.2-1-.2-1.1,0,0,0,0-.1,0-.4,0-.7.4-.9.6-.1.2-.6.7-.4,1.3,0,.1,0,.2,0,.3,0,.2.2.4.7.8.2.2.6.4,1,.6v11.3h-.4v-10.4c-.1-.1-.3-.3-.6-.6-.8-.7-1.2-.6-1.6-1.1-.6-.7-.3-1.9-.3-1.9,0-.1.3-.8.9-1.2.6-.5,1.8-.8,2.2-.3.5.6-.3,1.8-.4,1.8Z"/>
        <path class="cls-22" d="M196.9,493.4c0,0-.2-.9.2-1.1,0,0,0,0,.1,0,.4,0,.7.4.8.5.1.2.5.7.4,1.3,0,.1,0,.2,0,.3,0,.2-.2.4-.7.8-.2.2-.5.4-.9.6v11.1s.4,0,.4,0v-10.2c.1-.1.3-.3.6-.5.8-.7,1.2-.6,1.6-1,.6-.7.3-1.8.3-1.9,0-.1-.2-.8-.9-1.2-.6-.4-1.8-.8-2.2-.3-.4.6.3,1.7.3,1.7Z"/>
        <ellipse class="cls-22" cx="179.9" cy="505.3" rx="6" ry="10.4"/>
        <ellipse class="cls-22" cx="179.9" cy="535.4" rx="6.8" ry="20.5"/>
        <ellipse class="cls-23" cx="179.9" cy="505.3" rx="4.7" ry="8.5"/>
        <ellipse class="cls-23" cx="179.9" cy="535.9" rx="6.1" ry="18.7"/>
        <ellipse class="cls-22" cx="198.1" cy="505" rx="5.9" ry="10.2"/>
        <ellipse class="cls-22" cx="198.1" cy="534.5" rx="6.7" ry="20.1"/>
        <ellipse class="cls-23" cx="198.1" cy="505" rx="4.7" ry="8.3"/>
        <ellipse class="cls-23" cx="198.1" cy="535" rx="6" ry="18.3"/>
        <path class="cls-12" d="M249.5,497.6c0,0,.2-1.1-.2-1.3,0,0,0,0-.1,0-.4,0-.7.4-.8.6-.1.2-.5.8-.4,1.5,0,.1,0,.2,0,.3,0,.2.2.5.7.9.2.2.5.4.9.7v12.6h-.4v-11.6c-.1-.1-.3-.4-.6-.6-.8-.8-1.2-.7-1.6-1.2-.6-.8-.3-2.1-.3-2.2,0-.2.2-.9.9-1.4.6-.5,1.7-.9,2.1-.3.4.6-.3,2-.3,2Z"/>
        <ellipse class="cls-12" cx="249.4" cy="529.7" rx="7.8" ry="18.4"/>
        <ellipse class="cls-27" cx="249.4" cy="529.7" rx="6.7" ry="15.8"/>
        <path class="cls-12" d="M267.5,497.6c0,0-.2-1.1.2-1.3,0,0,0,0,.1,0,.4,0,.7.4.8.6.1.2.5.8.4,1.5,0,.1,0,.2,0,.3,0,.2-.2.5-.7.9-.2.2-.5.4-.9.7v12.6s.4,0,.4,0v-11.6c.1-.1.3-.4.6-.6.8-.8,1.2-.7,1.6-1.2.6-.8.3-2.1.3-2.2,0-.2-.2-.9-.9-1.4-.6-.5-1.7-.9-2.1-.3-.4.6.3,2,.3,2Z"/>
        <ellipse class="cls-12" cx="267.6" cy="529.7" rx="7.8" ry="18.4"/>
        <ellipse class="cls-27" cx="267" cy="529.7" rx="6.7" ry="15.8"/>
        <path class="cls-7" d="M443.9,504.3c-.2,0-.4-.1-.8-.1-.4,0-.6.2-1.1.4-.4.2-.7.4-1.1.8-.3.4-.4.7-.6,1.2-.3.6-.5,1.1-.5,1.8,0,.4,0,1.6.7,2.5.4.5,1.1.9,1.3,1,.6.3,1,.4,1,.7,0,.2-.1.3-.4.9-.2.5-.4.8-.3,1.2.1.5.6.6.5.8,0,.2-.5.2-1.4.2-1.6,0-1.9.2-2.1.4,0,0-.5.4-.5.9,0,.4.1.8.4,1,.3.2.7.3,1.1.3.4,0,.6,0,.8.1.2.1.3.4.3.5.3,1.1.5,3.5.5,4.1.1,1.3.4,2.3.1,2.5-.2,0-.3-.1-.7-.1-.3,0-.9.2-1,.6,0,.3,0,.7.3.8.2,0,.3,0,.4.1,0,.1,0,.3,0,.4-.2.3-.5,0-.7.3-.2.2,0,.7,0,.7.2.4.6.5.6.6,0,.2-1,0-1,0-1.1-.1-2.1,0-3.2,0-2.2,0-3.3,0-3.6,0-.5.1-1.4.5-1.8.1,0,0-.2-.2-.3-.4-.2-.3-.1-.5-.2-.8-.1-.4-.5-.7-.9-.8-.5-.1-.9,0-1.1.2-.1,0-.6.3-.8.9,0,.2,0,.3-.1.6,0,.6,0,1.1.2,2.1.1.6.2.9.2,1.2.2.6.2.9.5,1.3.2.4.5.9,1,1,.5,0,.9-.2,1.1-.4,0,0,.8-.6.8-1.4,0-.6-.3-.8-.2-1.1.2-.3.9-.2,1.4-.2.3,0,1.3,0,3.3,0,2.3,0,3.5,0,3.6,0,.1,0,.6-.2.7,0,0,.1,0,.3-.1.8,0,.4-.1.6,0,.9.2.4.6.3.6.7,0,.2,0,.2-.1.6,0,.2-.1.5,0,.8,0,0,.2.7.6.8.3,0,.6,0,.7-.2.4-.3.5-.6.6-.6.6,0,.4,8.7.4,8.7-.1,7.4-.2,9.1,0,10.9,0,.4.3,2.1.3,3.7,0,.2,0,1.7,0,1.7,0,.1.4.6.8.6.5,0,.8-.9.9-1.3,0-.2,0-.3,0-.3,0-.3,0-.6,0-.6,0,0,0,.8.1,1.6,0,.1,0,.4.2.5,0,0,.3.2.6.2.3,0,.5-.4.6-.6.3-.5.3-1,.3-1.4,0-.6.1-1.3.1-1.9,0-2,.3-3.8.3-10.1,0-4.8,0-7.2-.1-7.7,0-.3-.5-1.6-.1-3.1,0-.3.2-.6.2-.7.1,0,.3,0,.5-.1.3-.1.5-.2.6-.3,0,0,.4-.3.4-.7,0-.4-.3-.6-.4-.7-.2-.1-.4-.2-.4-.2,0,0,.4.1.7,0,.3-.1.4-.5.4-.8,0,0,0-.2-.2-.5-.5-.6-1.1-.7-1.1-.8,0-.2,1.1,0,1.1,0,1.5.2,3.1,0,4.7.1,2.2.1,4.5-.3,6.7.1.3,0,1.2.3,1.7-.2,0,0,.4-.4.4-.8,0-.4-.6-.7-.8-.7-.6-.2-1.1-.2-1.2-.1-1.7.2-3.5-.2-5.3-.3-2.1,0-3.9,0-5.4,0h-.6c-.2-.5,0-.7,0-.7,0,0,.1,0,.4-.1.2,0,.4-.1.5-.2.2-.2.3-.7,0-1-.2-.3-.8-.3-1-.2-.6,0-.8.4-1.2.3,0,0-.3,0-.4-.2-.1-.2,0-.4,0-.5,0-.1,0,0,.1-1.8,0-1.3.1-1.5.2-2.8,0-1.4,0-1.3.1-3,0-1,.1-2.4.1-2.4.6,0,1,0,1.3-.2.4-.1.7-.2,1-.5.4-.4.5-.8.5-1,0-.3.1-.7,0-1-.1-.2-.4-.4-.8-.5-1-.4-1.8-.4-1.9-.4-1.1,0-1.8.3-2.7,0-.1,0-.3-.1-.3-.2,0-.2.5-.3,1-.6.6-.4.9-.9,1-1.1.3-.5.4-.9.5-1.5.2-.8.3-1.4.1-2.1-.1-.5-.4-.9-.5-1.1-.3-.5-.4-.7-.7-.9-.2-.2-.4-.2-.5-.4"/>
        <path class="cls-7" d="M443.5,497.7c0,0-.2-1.3.2-1.6,0,0,0,0,.1,0,.4,0,.9.5,1,.8.2.2.7,1,.5,1.8,0,.2,0,.3-.1.4-.1.3-.3.6-.8,1.1-.3.2-.7.5-1.1.8v15.3s.5,0,.5,0v-14.1c.1-.2.4-.5.7-.8,1-.9,1.5-.8,1.9-1.4.7-1,.3-2.5.3-2.6,0-.2-.3-1.1-1-1.7-.8-.6-2.1-1.1-2.6-.4-.5.8.3,2.4.4,2.4Z"/>
        <path class="cls-7" d="M407.8,504.2c.2,0,.4-.1.8-.1.4,0,.6.2,1.1.4.4.2.7.4,1.1.8.3.4.4.7.6,1.2.3.6.5,1.1.5,1.8,0,.4,0,1.6-.7,2.5-.4.5-1.1.9-1.3,1-.6.3-1,.4-1,.7,0,.2.1.3.4.9.2.5.4.8.3,1.2-.1.5-.6.6-.5.8,0,.2.5.2,1.4.2,1.6,0,1.9.2,2.1.4,0,0,.5.4.5.9,0,.4-.1.8-.4,1-.3.2-.7.3-1.1.3-.4,0-.6,0-.8.1-.2.1-.3.4-.3.5-.3,1.1-.5,3.5-.5,4.1-.1,1.3-.4,2.3-.1,2.5.2,0,.3-.1.7-.1.3,0,.9.2,1,.6,0,.3,0,.7-.3.8-.2,0-.3,0-.4.1,0,.1,0,.3,0,.4.2.3.5,0,.7.3.2.2,0,.7,0,.7-.2.4-.6.5-.6.6,0,.2,1,0,1,0,1.1-.1,2.1,0,3.2,0,2.2,0,3.3,0,3.6,0,.5.1,1.4.5,1.8.1,0,0,.2-.2.3-.4.2-.3.1-.5.2-.8.1-.4.5-.7.9-.8.5-.1.9,0,1.1.2.1,0,.6.3.8.9,0,.2,0,.3.1.6,0,.6,0,1.1-.2,2.1-.1.6-.2.9-.2,1.2-.2.6-.2.9-.5,1.3-.2.4-.5.9-1,1-.5,0-.9-.2-1.1-.4,0,0-.8-.6-.8-1.4,0-.6.3-.8.2-1.1-.2-.3-.9-.2-1.4-.2-.3,0-1.3,0-3.3,0-2.3,0-3.5,0-3.6,0-.1,0-.6-.2-.7,0,0,.1,0,.3.1.8,0,.4.1.6,0,.9-.2.4-.6.3-.6.7,0,.2,0,.2.1.6,0,.2.1.5,0,.8,0,0-.2.7-.6.8-.3,0-.6,0-.7-.2-.4-.3-.5-.6-.6-.6-.6,0-.4,8.7-.4,8.7.1,7.4.2,9.1,0,10.9,0,.4-.3,2.1-.3,3.7,0,.2,0,1.7,0,1.7,0,.1-.4.6-.8.6-.5,0-.8-.9-.9-1.3,0-.2,0-.3,0-.3,0-.3,0-.6,0-.6,0,0,0,.8-.1,1.6,0,.1,0,.4-.2.5,0,0-.3.2-.6.2-.3,0-.5-.4-.6-.6-.3-.5-.3-1-.3-1.4,0-.6-.1-1.3-.1-1.9,0-2-.3-3.8-.3-10.1,0-4.8,0-7.2.1-7.7,0-.3.5-1.6.1-3.1,0-.3-.2-.6-.2-.7-.1,0-.3,0-.5-.1-.3-.1-.5-.2-.6-.3,0,0-.4-.3-.4-.7,0-.4.3-.6.4-.7.2-.1.4-.2.4-.2,0,0-.4.1-.7,0-.3-.1-.4-.5-.4-.8,0,0,0-.2.2-.5.5-.6,1.1-.7,1.1-.8,0-.2-1.1,0-1.1,0-1.5.2-3.1,0-4.7.1-2.2.1-4.5-.3-6.7.1-.3,0-1.2.3-1.7-.2,0,0-.4-.4-.4-.8,0-.4.6-.7.8-.7.6-.2,1.1-.2,1.2-.1,1.7.2,3.5-.2,5.3-.3,2.1,0,3.9,0,5.4,0h.6c.2-.5,0-.7,0-.7,0,0-.1,0-.4-.1-.2,0-.4-.1-.5-.2-.2-.2-.3-.7,0-1,.2-.3.8-.3,1-.2.6,0,.8.4,1.2.3,0,0,.3,0,.4-.2.1-.2,0-.4,0-.5,0-.1,0,0-.1-1.8,0-1.3-.1-1.5-.2-2.8,0-1.4,0-1.3-.1-3,0-1-.1-2.4-.1-2.4-.6,0-1,0-1.3-.2-.4-.1-.7-.2-1-.5-.4-.4-.5-.8-.5-1,0-.3-.1-.7,0-1,.1-.2.4-.4.8-.5,1-.4,1.8-.4,1.9-.4,1.1,0,1.8.3,2.7,0,.1,0,.3-.1.3-.2,0-.2-.5-.3-1-.6-.6-.4-.9-.9-1-1.1-.3-.5-.4-.9-.5-1.5-.2-.8-.3-1.4-.1-2.1.1-.5.4-.9.5-1.1.3-.5.4-.7.7-.9.2-.2.4-.2.5-.4"/>
        <path class="cls-7" d="M408.1,497.5c0,0,.2-1.3-.2-1.6,0,0,0,0-.1,0-.4,0-.9.5-1,.8-.2.2-.7,1-.5,1.8,0,.2,0,.3.1.4.1.3.3.6.8,1.1.3.2.7.5,1.1.8v15.3h-.5v-14.1c-.1-.2-.4-.5-.7-.8-1-.9-1.5-.8-1.9-1.4-.7-1-.3-2.5-.3-2.6,0-.2.3-1.1,1-1.7.8-.6,2.1-1.1,2.6-.4.5.8-.3,2.4-.4,2.4Z"/>
        <path class="cls-22" d="M343.7,488.3c0,0,.2-1.1-.2-1.3,0,0,0,0-.1,0-.4,0-.8.4-1,.6-.2.2-.6.8-.5,1.5,0,.1,0,.2,0,.3,0,.2.3.5.8.9.3.2.6.4,1.1.7v12.6h-.5v-11.6c-.1-.1-.4-.4-.7-.6-.9-.8-1.4-.7-1.8-1.2-.7-.8-.3-2.1-.3-2.1,0-.2.3-.9,1-1.4.7-.5,2-.9,2.4-.3.5.6-.3,2-.4,2Z"/>
        <path class="cls-22" d="M363.4,488.3c0,0-.2-1.1.2-1.3,0,0,0,0,.1,0,.4,0,.8.4,1,.6.2.2.6.8.5,1.5,0,.1,0,.2,0,.3,0,.2-.3.5-.8.9-.3.2-.6.4-1.1.7v12.6s.5,0,.5,0v-11.6c.1-.1.4-.4.7-.6.9-.8,1.4-.7,1.8-1.2.7-.8.3-2.1.3-2.1,0-.2-.3-.9-1-1.4-.7-.5-2-.9-2.4-.3-.5.6.3,2,.4,2Z"/>
        <ellipse class="cls-22" cx="342.4" cy="501.4" rx="6.6" ry="11.6"/>
        <ellipse class="cls-25" cx="342.4" cy="501.4" rx="5.3" ry="9.4"/>
        <ellipse class="cls-22" cx="364.7" cy="501.4" rx="6.6" ry="11.6"/>
        <ellipse class="cls-25" cx="364.7" cy="501.4" rx="5.3" ry="9.4"/>
        <ellipse class="cls-22" cx="342.7" cy="523.2" rx="6.6" ry="11.6"/>
        <ellipse class="cls-25" cx="342.7" cy="523.2" rx="5.3" ry="9.4"/>
        <ellipse class="cls-22" cx="364.9" cy="523.2" rx="6.6" ry="11.6"/>
        <ellipse class="cls-25" cx="364.9" cy="523.2" rx="5.3" ry="9.4"/>
        <ellipse class="cls-22" cx="342.4" cy="554" rx="6.6" ry="20.2"/>
        <ellipse class="cls-25" cx="342.4" cy="554" rx="5.3" ry="16.4"/>
        <ellipse class="cls-22" cx="364.7" cy="554" rx="6.6" ry="20.2"/>
        <ellipse class="cls-25" cx="364.7" cy="554" rx="5.3" ry="16.4"/>
      </g>
      <ellipse class="cls-21" cx="180.8" cy="281.9" rx="4.3" ry="8.6"/>
      <ellipse class="cls-21" cx="180.8" cy="306.7" rx="4.9" ry="16.9"/>
      <g id="Calque_2">
        <ellipse class="cls-20" cx="180.8" cy="281.9" rx="3.4" ry="7"/>
        <ellipse class="cls-20" cx="180.8" cy="306.1" rx="4.4" ry="15.4"/>
        <ellipse class="cls-22" cx="430.8" cy="281.2" rx="4.3" ry="8.7"/>
        <ellipse class="cls-22" cx="430.8" cy="306.4" rx="4.9" ry="17.1"/>
        <ellipse class="cls-20" cx="430.8" cy="281.2" rx="3.4" ry="7.1"/>
        <ellipse class="cls-20" cx="430.8" cy="306.4" rx="4.4" ry="15.6"/>
      </g>
    </g>
  </g>
</svg>