<?xml version="1.0" encoding="utf-8"?>
<!-- Generator: Adobe Illustrator 27.9.5, SVG Export Plug-In . SVG Version: 9.03 Build 54986)  -->
<svg version="1.1" id="Calque_1" xmlns="http://www.w3.org/2000/svg" xmlns:xlink="http://www.w3.org/1999/xlink" x="0px" y="0px"
	 viewBox="0 0 595.28 595.28" style="enable-background:new 0 0 595.28 866.32;" xml:space="preserve">
<style type="text/css">
	.st0{fill:#E6BC9D;}
	.st1{fill:#E7B551;stroke:#1D1D1B;stroke-miterlimit:10;}
	.st2{fill:#E7B551;}
	.st3{fill:#DAB396;}
	.st4{fill:#232323;}
	.st5{fill:#010202;stroke:#000000;stroke-miterlimit:10;}
	.st6{fill:#325626;}
	.st7{fill:#D75530;}
	.st8{fill:#D44428;}
	.st9{fill:#E5BB9E;}
	.st10{fill:#325727;}
	.st11{fill:#E5775E;}
	.st12{fill:#010101;}
	.st13{fill:none;stroke:#754D24;stroke-miterlimit:10;}
	.st14{fill:#F2F2F2;}
	.st15{fill:#1D1D1B;}
	.st16{fill:#F9B03D;}
	.st17{opacity:0.19;fill:#54A4DB;enable-background:new    ;}
	.st18{fill:#CDCCCC;}
	.st19{fill:none;stroke:#B4B4B4;stroke-width:3;stroke-miterlimit:10;}
	.st20{display:none;fill:#936037;}
	.st21{display:none;fill:#344F3F;}
	.st22{display:none;fill:#3C5F4B;}
	.st23{fill:#E0BDA1;}
	.st24{fill:#E0B662;stroke:#000000;stroke-miterlimit:10;}
	.st25{fill:#E0B662;}
	.st26{fill:#D4B39A;}
	.st27{fill:#010202;}
	.st28{fill:#3A552C;}
	.st29{fill:#E4DAC1;}
	.st30{fill:#D1C6AA;}
	.st31{fill:#C6C6C6;}
	.st32{display:none;fill:#8C613E;}
	.st33{fill:#B2B2B2;}
	.st34{fill:#575756;}
	.st35{display:none;fill:#FFF2A5;}
	.st36{display:none;fill:#E8DB96;}
	.st37{opacity:0.41;fill:#DADADA;enable-background:new    ;}
	.st38{opacity:0.41;fill:#C7C6C6;enable-background:new    ;}
	.st39{fill:#E3E4E4;}
	.st40{fill:#D8D8D8;}
	.st41{fill:#DFBCA1;}
	.st42{fill:#E0B562;stroke:#1D1D1B;stroke-miterlimit:10;}
	.st43{fill:#E0B562;}
	.st44{fill:#D4B399;}
	.st45{fill:#FFFFFF;}
	.st46{fill:#F4F4F4;}
	.st47{fill:#EA5328;}
	.st48{fill:#CA9678;}
	.st49{fill:#A16E51;}
	.st50{fill:#E04B28;}
	.st51{fill:#C38F72;}
	.st52{fill:#93624A;}
	.st53{fill:#D6411E;}
	.st54{display:none;fill:#8B613E;}
	.st55{display:none;fill:#3A4E40;}
	.st56{display:none;fill:#445D4C;}
	.st57{display:none;}
	.st58{fill:#C49F6E;}
	.st59{fill:#E3C6A3;}
	.st60{fill:#DF7A6B;}
	.st61{fill:#DB664B;}
	.st62{display:none;fill:#445E4C;}
	.st63{fill:#D1A67C;}
	.st64{fill:#E3DAC1;}
	.st65{fill:#D1C5A9;}
	.st66{fill:#468B56;}
	.st67{fill:#4D9A5D;}
	.st68{fill:#56A76C;}
	.st69{fill:#CFCFCF;}
	.st70{fill:#8A613D;}
	.st71{fill:#51653D;}
	.st72{fill:#D02D26;}
	.st73{fill:#BC3539;}
	.st74{fill:#D9D9D9;}
	.st75{fill:#C6C6C5;}
	.st76{fill:#474746;}
	.st77{fill:#A2A1A1;}
	.st78{fill:#D2D2D2;}
	.st79{fill:#BEBDBD;}
	.st80{fill:#D23A2F;}
</style>
<g>
	<g id="corps_00000005980100790473475850000013897212152129858729_">
		<path class="st23" d="M303.25,611.35H103.42c2.13-27.13,9.02-65.42,30.48-105.33c6.74-12.53,13.99-23.51,21.17-33.02
			c10.57-7.34,23.82-14.98,39.8-21.17c45.17-17.49,86.41-13.35,108.38-9.31C303.25,498.79,303.25,555.07,303.25,611.35z"/>
		<path class="st23" d="M303.25,442.51v-82.13h-52.5c4.58,12.49,8.92,28.55,10.29,47.42c0.95,13.05,0.29,24.75-1.03,34.72"/>
		<path class="st23" d="M233.55,212.29c-13.85,0-27.17-0.53-40.72-0.82c-10.1,18.16-16.13,38.6-16.96,59.58
			c-2.8,70.53,53.49,137.92,127.54,138.43V214.24c-10.12-0.18-20.37-1-30.86-2.95C259.55,208.29,246.55,212.29,233.55,212.29z"/>
		<path class="st23" d="M302.56,143.61c-47.87,0.62-88.12,28.99-109.74,67.86c13.56,0.29,26.88,0.82,40.72,0.82c13,0,26-4,39-1
			c10.49,1.95,20.74,2.77,30.86,2.95v-70.63C303.13,143.62,302.84,143.61,302.56,143.61z"/>
		<path class="st26" d="M302.56,611.35h199.83c-2.13-27.13-9.02-65.42-30.48-105.33c-6.74-12.53-13.99-23.51-21.17-33.02
			c-10.57-7.34-23.82-14.98-39.8-21.17c-45.17-17.49-86.41-13.35-108.38-9.31C302.56,498.79,302.56,555.07,302.56,611.35z"/>
		<path class="st26" d="M302.56,442.51v-82.13h52.5c-4.58,12.49-8.92,28.55-10.29,47.42c-0.95,13.05-0.29,24.75,1.03,34.72"/>
		<path class="st26" d="M429.95,271.05c-0.8-20.09-6.36-39.68-15.7-57.25c-5.86-0.55-12.1-0.71-17.71-1.51
			c-32.09-3.06-62.43,2.64-94.14,1.93v195.26C376.47,408.97,432.75,341.58,429.95,271.05z"/>
		<path class="st26" d="M396.55,212.29c5.61,0.8,11.85,0.97,17.71,1.51c-21.28-40.06-62.18-69.56-111-70.19c-0.28,0-0.56,0-0.85,0
			v70.6C334.12,214.93,364.46,209.23,396.55,212.29z"/>
		<ellipse class="st23" cx="183.08" cy="275.17" rx="17.16" ry="20.53"/>
		<ellipse class="st26" cx="424.19" cy="275.17" rx="17.16" ry="20.53"/>
	</g>
	<g id="yeux_00000160183726528485805350000006603818639764527268_">
		<ellipse class="st27" cx="250.76" cy="282.8" rx="12.89" ry="27.68"/>
		<ellipse class="st27" cx="355.06" cy="282.8" rx="12.89" ry="27.68"/>
	</g>
	<g id="TSHIRT_00000049179718817744344910000005990880491026562962_">
		<path class="st7" d="M260.42,439.03v1.39c0,20.89,16.45,37.82,36.75,37.82c2.08,0,4.15,0,6.23,0c0,46.78,0,93.57,0,140.35
			c-67.89,0-135.78,0-203.68,0l14.7-96.81c1.47-6.64,4.35-16.23,10.39-26.38c2.12-3.55,9.97-16.16,28.66-29.31
			c28-19.71,63.81-25.64,73.69-27.12"/>
		<path class="st8" d="M345.06,439.03v1.39c0,20.89-16.45,37.82-36.75,37.82c-1.91,0-3.83,0-5.74,0
			c0.01,46.78,0.01,93.57,0.02,140.35c67.72,0,135.44,0,203.17,0l-14.7-96.81c-1.47-6.64-4.35-16.23-10.39-26.38
			c-2.12-3.55-9.97-16.16-28.66-29.31c-28-19.71-63.81-25.64-73.69-27.12"/>
	</g>
	<g id="main_gauche_00000080915194200369631280000003256773702884189321_">
		<g id="Calque_16_00000107557910535101102720000006505545873705521854_">
			<path class="st58" d="M87.13,421.24l8.73-1l24.29,212.33c0.28,2.41-1.46,4.59-3.87,4.87l0,0c-2.41,0.28-4.59-1.46-4.87-3.87
				L87.13,421.24z"/>
			<path class="st31" d="M85.23,415.46l10.69-1.22c1.02,8.88,2.03,17.76,3.05,26.64c0.08,0.67-0.4,1.27-1.07,1.35l-8.25,0.94
				c-0.68,0.08-1.3-0.41-1.38-1.1L85.23,415.46z"/>
			<path class="st31" d="M82.39,406.59c4.93-0.56,9.85-1.13,14.78-1.69c-0.11,0.56-0.24,1.33-0.35,2.26c0,0-0.18,1.46-0.26,3.08
				c-0.09,1.94,0.13,8.27,0.84,16.82l-10.69,1.22c-0.14-0.99-0.29-1.99-0.45-2.99C85.37,419.69,82.39,406.59,82.39,406.59z"/>
			<path class="st59" d="M80.49,389.98l1.64,14.33c0.02,0.2,0.08,0.4,0.18,0.58l0.84,1.61l13.38-1.53l0.28-1.38
				c0.09-0.44,0.11-0.88,0.06-1.32l-1.6-13.97L80.49,389.98z"/>
			<path class="st60" d="M81.5,398.81c0.52,0.13,1.25-1.05,1.61-0.84c0.2,0.12,0.11,0.58,0.24,0.6c0.17,0.03,0.32-0.84,0.64-0.87
				c0.35-0.03,0.69,1.03,0.79,0.99c0.08-0.03-0.19-0.65,0-1.48c0.01-0.05,0.03-0.14,0.07-0.24c0.25-0.72,0.79-1.24,0.9-1.17
				c0.14,0.08-0.51,0.93-0.18,1.44c0.17,0.26,0.59,0.42,0.88,0.3c0.49-0.2,0.27-1.03,0.76-1.28c0.37-0.19,0.61,0.23,1.38,0.18
				c0.55-0.03,1-0.28,1.26-0.43c0.66-0.37,0.76-0.69,1.01-0.63c0.27,0.07,0.24,0.49,0.78,1.39c0.26,0.43,0.41,0.56,0.58,0.61
				c0.41,0.14,0.81-0.14,0.83-0.15c0.57-0.39,0.51-1.21,0.71-1.22c0.2,0,0.34,0.82,0.43,0.8c0.11-0.02-0.26-1.3,0.31-1.79
				c0.19-0.17,0.34-0.11,0.91-0.45c0.17-0.1,0.4-0.25,0.51-0.34c0.51-0.44,0.33-1.48,0.21-2.24c-0.46-3.05-0.1-3.77-0.83-4.27
				c-0.37-0.26-0.75-0.27-1.34-0.3c-1.15-0.05-1.67,0.37-2.92,0.73c-1.3,0.38-2.4,0.42-3.41,0.45c-1.22,0.04-1.52-0.09-2.78,0.03
				c-1.03,0.1-0.93,0.2-1.9,0.27c-1.52,0.12-2.12-0.08-2.51,0.34c-0.31,0.33-0.28,0.8-0.24,1.33c0.17,2.34,0.47,3.83,0.63,5.03
				C81.13,397.57,81.03,398.68,81.5,398.81z"/>
			<path class="st58" d="M111.73,405.58h8.79V619.3c0,2.43-1.97,4.4-4.4,4.4l0,0c-2.43,0-4.4-1.97-4.4-4.4L111.73,405.58z"/>
			<path class="st31" d="M110.5,399.62h10.76c0,8.94,0,17.88,0,26.82c0,0.67-0.54,1.22-1.22,1.22h-8.3c-0.69,0-1.24-0.56-1.24-1.24
				V399.62z"/>
			<path class="st31" d="M108.69,390.49c4.96,0,9.91,0,14.87,0c-0.17,0.54-0.39,1.3-0.61,2.21c0,0-0.35,1.43-0.61,3.03
				c-0.31,1.92-0.81,8.23-1.08,16.81H110.5c-0.03-1-0.06-2.01-0.11-3.02C110.15,403.84,108.69,390.49,108.69,390.49z"/>
			<path class="st59" d="M108.69,373.77v14.43c0,0.2,0.04,0.41,0.11,0.6l0.65,1.69h13.46l0.44-1.34c0.14-0.42,0.21-0.86,0.21-1.3
				v-14.07h-14.87V373.77z"/>
			<path class="st61" d="M123.7,382.65c-0.5,0.19-1.37-0.9-1.7-0.65c-0.19,0.14-0.05,0.58-0.17,0.62c-0.17,0.05-0.42-0.8-0.73-0.79
				c-0.35,0.01-0.57,1.1-0.68,1.07c-0.08-0.02,0.12-0.67-0.17-1.47c-0.02-0.05-0.05-0.13-0.1-0.23c-0.33-0.69-0.93-1.14-1.03-1.06
				c-0.13,0.09,0.61,0.86,0.34,1.41c-0.14,0.28-0.54,0.48-0.85,0.39c-0.51-0.15-0.39-0.99-0.9-1.18c-0.39-0.15-0.58,0.3-1.35,0.34
				c-0.55,0.03-1.02-0.17-1.3-0.28c-0.7-0.29-0.83-0.6-1.07-0.51c-0.26,0.1-0.18,0.51-0.62,1.47c-0.21,0.46-0.34,0.6-0.51,0.68
				c-0.39,0.18-0.82-0.04-0.85-0.06c-0.61-0.33-0.65-1.15-0.85-1.13s-0.25,0.85-0.34,0.85c-0.12-0.01,0.11-1.33-0.51-1.75
				c-0.21-0.14-0.35-0.07-0.96-0.34c-0.18-0.08-0.43-0.2-0.55-0.28c-0.56-0.38-0.49-1.44-0.47-2.2c0.11-3.08-0.33-3.75,0.34-4.34
				c0.34-0.3,0.71-0.36,1.3-0.45c1.14-0.18,1.7,0.17,2.99,0.39c1.34,0.23,2.43,0.14,3.44,0.06c1.21-0.1,1.5-0.26,2.76-0.28
				c1.04-0.02,0.95,0.09,1.92,0.06c1.52-0.05,2.09-0.32,2.54,0.06c0.34,0.29,0.37,0.77,0.39,1.3c0.1,2.35-0.03,3.86-0.06,5.07
				C123.93,381.38,124.15,382.48,123.7,382.65z"/>
			<path class="st58" d="M139,431.57l8.69,1.35l-32.71,211.2c-0.37,2.4-2.62,4.04-5.02,3.67l0,0c-2.4-0.37-4.04-2.62-3.67-5.02
				L139,431.57z"/>
			<path class="st31" d="M138.7,425.5l10.64,1.65c-1.37,8.83-2.74,17.67-4.1,26.5c-0.1,0.66-0.72,1.12-1.39,1.02l-8.2-1.27
				c-0.68-0.11-1.14-0.74-1.04-1.42L138.7,425.5z"/>
			<path class="st31" d="M138.31,416.19c4.9,0.76,9.8,1.52,14.7,2.28c-0.25,0.51-0.58,1.22-0.94,2.09c0,0-0.56,1.36-1.07,2.9
				c-0.6,1.85-2.06,8.01-3.64,16.45l-10.64-1.65c0.13-0.99,0.25-1.99,0.36-3.01C137.71,429.62,138.31,416.19,138.31,416.19z"/>
			<path class="st59" d="M140.86,399.67l-2.21,14.26c-0.03,0.2-0.02,0.41,0.02,0.61l0.38,1.77l13.3,2.06l0.64-1.26
				c0.2-0.4,0.34-0.82,0.41-1.26l2.15-13.9L140.86,399.67z"/>
			<path class="st7" d="M139.51,408.45c0.46,0.26,1.49-0.68,1.78-0.38c0.16,0.17-0.04,0.59,0.07,0.64c0.16,0.07,0.53-0.73,0.85-0.67
				c0.35,0.07,0.39,1.17,0.5,1.16c0.09-0.01-0.01-0.68,0.39-1.42c0.02-0.05,0.07-0.12,0.13-0.22c0.43-0.63,1.09-0.99,1.18-0.89
				c0.11,0.11-0.74,0.76-0.55,1.34c0.1,0.3,0.46,0.56,0.78,0.52c0.52-0.07,0.53-0.92,1.07-1.03c0.41-0.08,0.53,0.38,1.29,0.54
				c0.54,0.11,1.03-0.01,1.32-0.08c0.73-0.18,0.92-0.46,1.14-0.34c0.25,0.14,0.1,0.54,0.39,1.54c0.14,0.48,0.24,0.64,0.4,0.75
				c0.36,0.24,0.82,0.08,0.84,0.07c0.65-0.23,0.81-1.04,1.01-0.98c0.19,0.05,0.11,0.88,0.2,0.89c0.12,0.01,0.09-1.33,0.77-1.65
				c0.23-0.11,0.36-0.02,1-0.19c0.19-0.05,0.46-0.13,0.58-0.19c0.61-0.29,0.71-1.35,0.8-2.1c0.37-3.06,0.9-3.66,0.33-4.34
				c-0.29-0.35-0.65-0.46-1.21-0.64c-1.09-0.35-1.71-0.09-3.01-0.07c-1.36,0.02-2.42-0.23-3.41-0.47c-1.18-0.29-1.44-0.49-2.69-0.7
				c-1.02-0.18-0.95-0.06-1.9-0.24c-1.49-0.28-2.02-0.64-2.52-0.33c-0.38,0.23-0.49,0.7-0.59,1.22c-0.46,2.31-0.56,3.82-0.72,5.02
				C139.47,407.16,139.08,408.21,139.51,408.45z"/>
		</g>
		<rect x="99.5" y="403.96" class="st32" width="26.32" height="320.9"/>
		
			<ellipse transform="matrix(0.9985 -0.0553 0.0553 0.9985 -33.9227 7.1061)" class="st23" cx="111.44" cy="616.51" rx="52.1" ry="52.1"/>
		<path class="st55" d="M167.88,403.96H55.35c-5.43,0-9.84-4.4-9.84-9.84v-4.41c0-1.32,1.07-2.38,2.38-2.38h126.48
			c1.66,0,3.01,1.35,3.01,3.01v4.13C177.38,399.71,173.13,403.96,167.88,403.96z"/>
		<path class="st62" d="M132.93,264.3h-1.35c-2.61,0-4.73,2.12-4.73,4.73v118.3h10.83V269.05
			C137.68,266.43,135.55,264.3,132.93,264.3z"/>
		<path class="st62" d="M56.06,264.3h-1.35c-2.61,0-4.73,2.12-4.73,4.73v118.3h10.83V269.05C60.81,266.43,58.68,264.3,56.06,264.3z"
			/>
		<path class="st62" d="M168.52,264.3h-1.35c-2.61,0-4.73,2.12-4.73,4.73v118.3h10.83V269.05
			C173.27,266.43,171.15,264.3,168.52,264.3z"/>
		<path class="st62" d="M94.49,264.3h-1.35c-2.61,0-4.73,2.12-4.73,4.73v118.3h10.83V269.05C99.24,266.43,97.12,264.3,94.49,264.3z"
			/>
	</g>
	<g id="Calque_18_00000120544289728587252300000009885600968650074001_">
		<path class="st63" d="M514.82,597.58c14.06-12.37,40.46-35.58,43.04-73.04c2.59-37.45-20.3-64.75-28.04-73.04
			c-40.67-43.54-105.3-35.25-125.87-32.61c-13.04,1.67-63.4,8.85-101.09,48.91c-31.21,33.17-33.82,67.71-31.96,75
			c1.25,4.89,3.91,9.13,3.91,9.13c0.92,1.5,7.82,12.41,17.68,14.26c4.42,0.83,7.42-0.54,26.49-12.25
			c9.84-6.04,20.58-10.77,29.63-17.95c1.75-1.39,8.14-6.54,17.38-8.83c3.14-0.78,7.65-1.72,9.92,0.64
			c2.29,2.39,1.08,6.94,0.05,10.76c-0.8,3.01-2.48,7.49-6.27,12.25c-5.36,9.63-10.54,16.86-14.24,21.65
			c-10.4,13.45-17.03,17.81-16.81,26.49c0.18,7.05,4.79,13.2,5.87,14.63c3.56,4.75,7.49,7.5,9.54,8.34
			c30.62,12.66,51.65,11.92,51.65,11.92C432.54,632.9,476.41,631.36,514.82,597.58z"/>
		<ellipse class="st60" cx="359.73" cy="478.46" rx="19.75" ry="20.47"/>
		<ellipse class="st61" cx="423.26" cy="448.11" rx="19.75" ry="20.47"/>
		<ellipse class="st7" cx="493.28" cy="482.57" rx="19.75" ry="20.47"/>
		<ellipse class="st8" cx="487.91" cy="556.34" rx="19.75" ry="20.47"/>
	</g>
	<g id="Calque_12_00000091704790149884425240000003689529702745075639_">
		<path d="M428.46,286.99l-4.24,5.92c-0.02,0.03-0.04,0.06-0.07,0.09l0,0c-0.89,1.08-2.64,0.65-2.92-0.72l-4.83-23.41
			c-1.38-6.69-5.25-12.61-10.84-16.56l-5.48-3.87c-11.46-8.1-24.25-14.13-37.79-17.84l-59.89-16.37v-76.64
			c1.44-0.04,3.62-0.08,6.27,0c38.53,1.15,75.72,23.65,98.07,53.83c17.12,23.12,22.07,46.08,23.18,51.7
			c1.1,5.56,1.63,10.29,1.91,13.68h-3.07v29.22C428.77,286.36,428.66,286.7,428.46,286.99z"/>
		<path class="st4" d="M176.54,286.99l4.24,5.92c0.02,0.03,0.04,0.06,0.07,0.09l0,0c0.89,1.08,2.64,0.65,2.92-0.72l4.83-23.41
			c1.38-6.69,5.25-12.61,10.84-16.56l5.48-3.87c11.46-8.1,24.25-14.13,37.79-17.84l59.89-16.37v-76.64c-1.44-0.04-3.62-0.08-6.27,0
			c-38.53,1.15-75.72,23.65-98.07,53.83c-17.12,23.12-22.07,46.08-23.18,51.7c-1.1,5.56-1.63,10.29-1.91,13.68h3.07v29.22
			C176.22,286.36,176.33,286.7,176.54,286.99z"/>
	</g>
	<g id="Calque_15_00000108287993044464150900000008358966352494069683_">
		<path class="st5" d="M179.31,192.67c-1.65,1.98-2.89,4.22-3.72,6.59c-3,8.56-8.58,19.74-19.3,29.71
			c-0.18,0.17-0.36,0.33-0.53,0.49c-4.24,3.87-9.47,6.69-15.2,8.27l-2.2,0.6c-0.62,0.17-1.25,0.26-1.89,0.26h-0.83
			c-3.64,0-6.59,2.71-6.59,6.06c0,1.94,1.01,3.76,2.72,4.9l1.99,1.33c0.7,0.47,1.49,0.8,2.33,0.99l13.58,3.01
			c0.23,0.04,0.45,0.08,0.68,0.12l26.6,3.24c0.44,0.05,0.89,0.07,1.34,0.04l26.98-1.76c6.09-0.4,12.11-1.54,17.92-3.4l37.87-12.11
			l12.64-4.56c11.1-4,22.59-6.81,34.28-8.36l26.95-3.58c0.34-0.05,0.68-0.08,1.03-0.11l64.96-4.91l45.35-1.95
			c1.54-0.07,3.06-0.33,4.52-0.77c5.47-1.68,9.63-5.82,11-10.97l1.97-7.41c0.46-1.72,0.69-3.5,0.69-5.28l0,0
			c0-5.98-2.61-11.7-7.23-15.9l-2-1.81c-1.61-1.46-3.44-2.72-5.44-3.71l-5.88-2.95c-0.47-0.23-0.93-0.48-1.38-0.75l-12.36-7.21
			c-2.72-1.59-5.07-3.65-6.91-6.08l-5.35-7.05c-1.19-1.56-2.59-2.98-4.17-4.22l-14.74-11.55c-0.45-0.36-0.92-0.7-1.4-1.02
			l-13.24-8.92c-1.16-0.78-2.43-1.43-3.77-1.91l-13.51-4.89c-1.17-0.42-2.38-0.72-3.62-0.9c-5.08-0.71-18.83-2.63-19.42-2.63
			c-0.37,0-10.84-1.56-20.8-3.06c-15.94-2.4-25.34-1.34-31.87-0.62c-1.74,0.19-3.18,0.39-4.14,0.53l0,0
			c-14.34,2.08-28.1,6.67-40.56,13.52l-5.01,2.76c-16.46,9.06-30.15,21.81-39.78,37.05l-9.4,14.88c-0.35,0.56-0.74,1.1-1.17,1.61
			L179.31,192.67z"/>
		<path class="st5" d="M293.19,99.58c0.26-2.23,0.64-4.74,2.01-5.43c1.28-0.65,2.89,0.57,3.76,1.6c1.44,1.71,1.7,3.94,2.01,6.39
			c1.54,12.31,2.06,12.85,1.25,14.38c-1.66,3.15-5.89,4.68-8.27,2.88C291.12,117.26,291.83,111.17,293.19,99.58z"/>
	</g>
</g>
</svg>
