<?xml version="1.0" encoding="utf-8"?>
<!-- Generator: Adobe Illustrator 27.9.5, SVG Export Plug-In . SVG Version: 9.03 Build 54986)  -->
<svg version="1.1" id="Calque_1" xmlns="http://www.w3.org/2000/svg" xmlns:xlink="http://www.w3.org/1999/xlink" x="0px" y="0px"
	 viewBox="0 0 595.28 595.28" style="enable-background:new 0 0 595.28 866.32;" xml:space="preserve">
<style type="text/css">
	.st0{fill:#E6BC9D;}
	.st1{fill:#E7B551;stroke:#1D1D1B;stroke-miterlimit:10;}
	.st2{fill:#E7B551;}
	.st3{fill:#DAB396;}
	.st4{fill:#232323;}
	.st5{fill:#010202;stroke:#000000;stroke-miterlimit:10;}
	.st6{fill:#325626;}
	.st7{fill:#D75530;}
	.st8{fill:#D44428;}
	.st9{fill:#E5BB9E;}
	.st10{fill:#325727;}
	.st11{fill:#E5775E;}
	.st12{fill:#010101;}
	.st13{fill:none;stroke:#754D24;stroke-miterlimit:10;}
	.st14{fill:#F2F2F2;}
	.st15{fill:#1D1D1B;}
	.st16{fill:#F9B03D;}
	.st17{opacity:0.19;fill:#54A4DB;enable-background:new    ;}
	.st18{fill:#CDCCCC;}
	.st19{fill:none;stroke:#B4B4B4;stroke-width:3;stroke-miterlimit:10;}
	.st20{display:none;fill:#936037;}
	.st21{display:none;fill:#344F3F;}
	.st22{display:none;fill:#3C5F4B;}
	.st23{fill:#E0BDA1;}
	.st24{fill:#E0B662;stroke:#000000;stroke-miterlimit:10;}
	.st25{fill:#E0B662;}
	.st26{fill:#D4B39A;}
	.st27{fill:#010202;}
	.st28{fill:#3A552C;}
	.st29{fill:#E4DAC1;}
	.st30{fill:#D1C6AA;}
	.st31{fill:#C6C6C6;}
	.st32{display:none;fill:#8C613E;}
	.st33{fill:#B2B2B2;}
	.st34{fill:#575756;}
	.st35{display:none;fill:#FFF2A5;}
	.st36{display:none;fill:#E8DB96;}
	.st37{opacity:0.41;fill:#DADADA;enable-background:new    ;}
	.st38{opacity:0.41;fill:#C7C6C6;enable-background:new    ;}
	.st39{fill:#E3E4E4;}
	.st40{fill:#D8D8D8;}
	.st41{fill:#DFBCA1;}
	.st42{fill:#E0B562;stroke:#1D1D1B;stroke-miterlimit:10;}
	.st43{fill:#E0B562;}
	.st44{fill:#D4B399;}
	.st45{fill:#FFFFFF;}
	.st46{fill:#F4F4F4;}
	.st47{fill:#EA5328;}
	.st48{fill:#CA9678;}
	.st49{fill:#A16E51;}
	.st50{fill:#E04B28;}
	.st51{fill:#C38F72;}
	.st52{fill:#93624A;}
	.st53{fill:#D6411E;}
	.st54{display:none;fill:#8B613E;}
	.st55{display:none;fill:#3A4E40;}
	.st56{display:none;fill:#445D4C;}
	.st57{display:none;}
	.st58{fill:#C49F6E;}
	.st59{fill:#E3C6A3;}
	.st60{fill:#DF7A6B;}
	.st61{fill:#DB664B;}
	.st62{display:none;fill:#445E4C;}
	.st63{fill:#D1A67C;}
	.st64{fill:#E3DAC1;}
	.st65{fill:#D1C5A9;}
	.st66{fill:#468B56;}
	.st67{fill:#4D9A5D;}
	.st68{fill:#56A76C;}
	.st69{fill:#CFCFCF;}
	.st70{fill:#8A613D;}
	.st71{fill:#51653D;}
	.st72{fill:#D02D26;}
	.st73{fill:#BC3539;}
	.st74{fill:#D9D9D9;}
	.st75{fill:#C6C6C5;}
	.st76{fill:#474746;}
	.st77{fill:#A2A1A1;}
	.st78{fill:#D2D2D2;}
	.st79{fill:#BEBDBD;}
	.st80{fill:#D23A2F;}
</style>
<g>
	<g id="corps_00000075847704870008843240000000685397909182281372_">
		<path class="st41" d="M306.11,592.28H106.28c2.13-27.13,9.02-65.42,30.48-105.33c6.74-12.53,13.99-23.51,21.17-33.02
			c10.57-7.34,23.82-14.98,39.8-21.17c45.17-17.49,86.41-13.35,108.38-9.31C306.11,479.72,306.11,536,306.11,592.28z"/>
		<path class="st41" d="M306.11,423.44v-82.13h-52.5c4.58,12.49,8.92,28.55,10.29,47.42c0.95,13.05,0.29,24.75-1.03,34.72"/>
		<path class="st41" d="M236.41,193.22c-13.85,0-27.17-0.53-40.72-0.82c-10.1,18.16-16.13,38.6-16.96,59.58
			c-2.8,70.53,53.49,137.92,127.54,138.43V195.17c-10.12-0.18-20.37-1-30.86-2.95C262.41,189.22,249.41,193.22,236.41,193.22z"/>
		<path class="st41" d="M305.42,124.54c-47.87,0.62-88.12,28.99-109.74,67.86c13.56,0.29,26.88,0.82,40.72,0.82c13,0,26-4,39-1
			c10.49,1.95,20.74,2.77,30.86,2.95v-70.63C305.99,124.54,305.7,124.54,305.42,124.54z"/>
		<path class="st44" d="M305.42,592.28h199.83c-2.13-27.13-9.02-65.42-30.48-105.33c-6.74-12.53-13.99-23.51-21.17-33.02
			c-10.57-7.34-23.82-14.98-39.8-21.17c-45.17-17.49-86.41-13.35-108.38-9.31C305.42,479.72,305.42,536,305.42,592.28z"/>
		<path class="st44" d="M305.42,423.44v-82.13h52.5c-4.58,12.49-8.92,28.55-10.29,47.42c-0.95,13.05-0.29,24.75,1.03,34.72"/>
		<path class="st44" d="M432.81,251.98c-0.8-20.09-6.36-39.68-15.7-57.25c-5.86-0.55-12.1-0.71-17.71-1.51
			c-32.09-3.06-62.43,2.64-94.14,1.93v195.26C379.33,389.9,435.61,322.5,432.81,251.98z"/>
		<path class="st44" d="M399.41,193.22c5.61,0.8,11.85,0.97,17.71,1.51c-21.28-40.06-62.18-69.56-111-70.19c-0.28,0-0.56,0-0.85,0
			v70.6C336.98,195.85,367.32,190.16,399.41,193.22z"/>
		<ellipse class="st41" cx="185.94" cy="256.09" rx="17.16" ry="20.53"/>
		<ellipse class="st44" cx="427.05" cy="256.09" rx="17.16" ry="20.53"/>
	</g>
	<g id="yeux_00000063592513860558036470000000882234427182558349_">
		<ellipse cx="253.62" cy="263.73" rx="12.89" ry="27.68"/>
		<ellipse cx="357.92" cy="263.73" rx="12.89" ry="27.68"/>
	</g>
	<g id="Calque_13_00000070082510045910436940000009666129670867162295_">
		<path class="st45" d="M263.28,419.96v1.34c0,20.05,16.45,36.3,36.75,36.3c2.08,0,4.15,0,6.23,0c0,44.9,0,89.79,0,134.69
			c-67.89,0-135.78,0-203.68,0l14.7-92.9c1.47-6.37,4.35-15.58,10.39-25.32c2.12-3.41,9.97-15.51,28.66-28.13
			c28-18.91,63.81-24.61,73.69-26.02"/>
		<path class="st46" d="M347.92,419.96v1.34c0,20.05-16.45,36.3-36.75,36.3c-1.91,0-3.83,0-5.74,0c0.01,44.9,0.01,89.79,0.02,134.69
			c67.72,0,135.44,0,203.17,0l-14.7-92.9c-1.47-6.37-4.35-15.58-10.39-25.32c-2.12-3.41-9.97-15.51-28.66-28.13
			c-28-18.91-63.81-24.61-73.69-26.02"/>
	</g>
	<g id="lunettes_00000021100628064788836650000012024375335605330857_">
		<path class="st47" d="M359.34,301.56c-17.6,0-28.97-14.85-28.97-37.84s11.37-37.84,28.97-37.84c17.17,0,27.01,13.79,27.01,37.84
			S376.51,301.56,359.34,301.56z M359.34,231.89c-16.93,0-22.97,16.45-22.97,31.84s6.03,31.84,22.97,31.84
			c9.58,0,21.01-5.52,21.01-31.84S368.93,231.89,359.34,231.89z"/>
		<polyline class="st47" points="384.52,252.71 413.72,247.18 432.06,243.51 435.49,243.47 437.49,244.1 438.8,244.98 
			439.86,246.77 437.67,239.67 426.68,240.21 385.3,250.23 		"/>
		<path class="st47" d="M330.86,263.73c-1.95-2.01-5.38-5.05-10.5-7.29c-6.35-2.77-12.07-2.91-15.09-2.77v-7.48
			c1.05-0.06,2.13-0.06,3.24,0c11,0.61,19.19,7.31,23.55,11.71"/>
		<path class="st47" d="M251.35,301.56c-17.17,0-27.01-13.79-27.01-37.84c0-24.04,9.84-37.84,27.01-37.84
			c17.6,0,28.97,14.85,28.97,37.84S268.94,301.56,251.35,301.56z M251.35,231.89c-9.58,0-21.01,5.52-21.01,31.84
			s11.43,31.84,21.01,31.84c16.93,0,22.97-16.45,22.97-31.84C274.31,248.34,268.28,231.89,251.35,231.89z"/>
		<polyline class="st47" points="226.17,252.71 196.97,247.18 178.63,243.51 175.2,243.47 173.2,244.1 171.89,244.98 170.83,246.77 
			173.02,239.67 184.01,240.21 225.39,250.23 		"/>
		<path class="st47" d="M279.83,263.73c1.95-2.01,5.38-5.05,10.5-7.29c6.35-2.77,12.07-2.91,15.09-2.77v-7.48
			c-1.05-0.06-2.13-0.06-3.24,0c-11,0.61-19.19,7.31-23.55,11.71"/>
	</g>
	<g id="cheveux_00000011750481070189509310000018185827496892384145_">
		<path class="st46" d="M305.27,201.83l16.08,11.79c3.15,2.31,7.29,2.78,10.88,1.23l15.64-6.76c5.15-2.23,11.15-0.22,13.93,4.65
			l5.43,9.51c1.63,2.86,4.46,4.84,7.7,5.39l4.73,0.81c5.38,0.92,9.3,5.59,9.3,11.04l4.25,10.38l3.85,6.06
			c4.73,0,9.35-1.46,13.23-4.18l12.76-8.95c0.49-0.34,1.01-0.63,1.57-0.85l2.82-1.15c2.75-1.12,5.9-0.62,8.16,1.31l0.92,0.78
			c0.61,0.52,1.14,1.13,1.57,1.81l2.64,4.18c0.53,0.85,0.9,1.78,1.09,2.76l1.4,7.38l23.91-9.28c2.98-1.16,5.39-3.44,6.7-6.36
			l2.19-4.88l0.36-1.54c0.98-4.21,0.42-8.64-1.58-12.47l-3.48-6.66l-2.79-2.11c-2.49-1.88-3.71-5-3.17-8.07l2.19-12.4l-0.52-7.37
			c-0.3-4.25-2.76-10.42-5.46-13.72l0,0c-0.47-0.57-0.97-1.12-1.49-1.64l-3.43-3.41c-0.91-0.91-2.15-1.42-3.44-1.42l-6.32-2.9
			c-3.22-1.59-5.59-4.49-6.52-7.95l-4.33-16.16l-0.83-2.28c-3.43-9.41-9.11-17.84-16.53-24.56l-1.83-1.65l-15.86-4.7l-9.39-1.37
			c-3.75-0.94-8.3,1.46-11.89,2.88l-8.43,3.35c-0.95,0.38-1.82,0.94-2.55,1.66l-2.67,2.62c-1.93,1.9-5.15,1.4-6.41-1l-7.47-14.19
			c-1.48-2.81-3.34-5.4-5.54-7.7l-1.9-1.99c-3.05-3.2-6.95-5.47-11.24-6.54l0,0c-1.86-0.47-3.78-0.7-5.7-0.7l-6.35-1.31
			c-2.19-0.45-4.44-0.51-6.64-0.16l-9.52-0.22v119.01H305.27z"/>
		<path class="st45" d="M305.27,201.83l-15.96,11.79c-3.13,2.31-7.24,2.78-10.8,1.23l-15.53-6.76c-5.11-2.23-11.07-0.22-13.83,4.65
			l-5.39,9.51c-1.62,2.86-4.42,4.84-7.64,5.39l-4.7,0.81c-5.34,0.92-9.24,5.59-9.24,11.04l-4.22,10.38l-3.82,6.06
			c-4.7,0-9.28-1.46-13.13-4.18l-12.66-8.95c-0.48-0.34-1.01-0.63-1.55-0.85l-2.8-1.15c-2.73-1.12-5.86-0.62-8.1,1.31l-0.91,0.78
			c-0.61,0.52-1.13,1.13-1.56,1.81l-2.62,4.18c-0.53,0.85-0.9,1.78-1.08,2.76l-1.39,7.38l-23.74-9.28
			c-2.96-1.16-5.35-3.44-6.65-6.36l-2.17-4.88l-0.36-1.54c-0.98-4.21-0.42-8.64,1.57-12.47l3.46-6.66l2.77-2.11
			c2.47-1.88,3.68-5,3.15-8.07l-2.18-12.4l0.52-7.37c0.3-4.25,2.74-10.42,5.42-13.72l0,0c0.47-0.57,0.96-1.12,1.48-1.64l3.4-3.41
			c0.91-0.91,2.14-1.42,3.42-1.42l6.27-2.9c3.19-1.59,5.55-4.49,6.47-7.95l4.3-16.16l0.83-2.28c3.41-9.41,9.04-17.84,16.41-24.56
			l1.81-1.65l15.74-4.7l9.32-1.37c3.72-0.94,8.24,1.46,11.8,2.88l8.37,3.35c0.95,0.38,1.81,0.94,2.54,1.66l2.65,2.62
			c1.92,1.9,5.11,1.4,6.36-1l7.41-14.19c1.47-2.81,3.32-5.4,5.49-7.7l1.89-1.99c3.03-3.2,6.9-5.47,11.15-6.54l0,0
			c1.85-0.47,6.83-2.51,8.74-2.51l5.62-0.85c2.17-0.45,6.5-0.43,8.69-0.09l4.95,1.06v119.01H305.27z"/>
	</g>
	<g id="Calque_14_00000130636089124487741190000015324546078350357415_">
		<path d="M306.05,493.4v99.83H199.33V482.58v-54.39c0-1.59,1.06-2.98,2.59-3.41l6.5-1.8l20.19-4c1.07-0.21,2.06,0.6,2.06,1.69
			v72.05L306.05,493.4z"/>
		<path d="M306.18,493.4v99.83H412.9V482.58v-54.39c0-1.59-1.06-2.98-2.59-3.41l-6.5-1.8l-20.19-4c-1.07-0.21-2.06,0.6-2.06,1.69
			v72.05L306.18,493.4z"/>
	</g>
	<g id="Calque_16_00000057829565199628680030000004336320560529797516_">
		<path class="st48" d="M139.34,549.52c0.69,32.21-0.03,45.46-1.17,50.04c-0.22,0.88-1.16,4.27,0,8.26c0,0,0.96,3.29,3.65,6.29
			c11.26,12.54,46.37,19.66,46.37,19.66c18.56,3.76,32.85,5.89,36.93,6.49c22.42,3.28,40.89,4.86,53.46,5.7
			c7.57,0.5,13.97,0.8,18.68,0.98h5.15h3.01V524.81l-14.38,1.24L232,524.81l-57.11-16.05l-32.63-9.04L139.34,549.52z"/>
		<path class="st49" d="M138.18,543.81c0,9.42,0,18.84,0,28.25c0.2,1.39,0.71,3.56,2.19,5.79c0.35,0.52,1.61,2.36,5.84,5.34
			c3.08,2.17,5.76,3.57,7.54,4.45c6.32,3.13,11.58,4.86,12.4,5.12c14.49,4.69,31.13,7.57,31.13,7.57
			c34.28,5.94,27.46,5.41,39.65,7.13c30.39,4.28,52.38,4.67,57.4,4.73c4.62,0.06,8.45,0.04,11.09,0v-33.9
			c-1.85-0.04-4.7-0.12-8.17-0.27c-8.79-0.38-43-2.15-94.86-14.87c-13.02-3.19-30.27-7.84-50.35-14.47L138.18,543.81z"/>
		<path class="st47" d="M305.42,524.81v-63.6h-7.35c-3.18-0.02-6.38-0.02-9.61,0c-6.98,0.05-20.86,0.24-41,1.44
			c-18.05,1.07-27.08,1.61-37.67,3.05c-12.72,1.74-21.71,3.71-31,5.75c-4.23,0.93-9.03,2.3-18.64,5.03
			c-0.37,0.11-6.65,1.92-12.95,5.21c0,0-3.45,1.8-6.67,5.21c-0.56,0.59-1.29,1.44-1.77,2.69c-0.43,1.15-0.62,2.6-0.33,3.61
			c0.84,2.91,6.12,4.05,7.2,4.29c12.26,2.76-39.31-2.15,44.54,15.56c21.99,4.64,48.4,9.81,78.67,14.79L305.42,524.81z"/>
		<path class="st50" d="M298.56,524.81c-45.86-0.36-99.69-8.68-159.42-33.26c-1.05,2.3-2.44,5.89-3.25,10.43
			c-0.62,3.47-0.64,6.08-0.65,8.64c-0.05,13.59,0.31,14.27,0.98,29.2c0.28,6.21,0.36,9.4,1.95,9.83c1.73,0.47,4.48-2.54,5.86-5.06
			c1.33-2.44,1.38-4.43,1.63-6.85c0.18-1.71,0.99-5.21,2.6-12.21c1.2-5.21,2.23-9.58,3.9-13.7c0.22-0.54,1.95-4.77,1.95-4.77
			c0.26-0.39,0.88-1.18,1.76-1.24c1.33-0.09,2.34,1.57,2.84,2.38c1.45,2.37,1.51,4.72,1.54,5.86c0.21,7.54,0.65,4.99,0.57,10.24
			c-0.08,5.44-0.12,8.16-0.49,10.32c-0.04,0.24-0.43,2.53-0.16,5.49c0.22,2.41,0.68,3.17,1.05,3.64c0.91,1.12,3.02,2.55,5.03,1.78
			c0.69-0.26,1.51-0.89,2.35-3.56c0.83-2.62,0.87-4.63,0.89-8.02c0.02-3.27,0.5-6.55,0.16-9.8c-0.13-1.27-0.36-2.9,0.49-4.68
			c0.5-1.05,1.21-1.79,2.19-2.82c1.18-1.24,1.79-1.86,2.76-2c0.98-0.15,2,0.18,2.68,0.74c0.5,0.42,0.73,0.89,1.05,1.78
			c0.6,1.66,0.9,2.49,1.05,3.93c0.29,2.64-0.36,2.91,0.08,4.9c0.27,1.21,0.51,2.29,1.54,3.04c1.4,1.03,3.71,1.05,5.03,0.07
			c0.92-0.68,1.21-1.74,1.46-2.67c0.45-1.68,0.02-2.58,0.81-3.27c0.53-0.46,1.25-0.5,1.7-0.52c1.99-0.1,3.43,1.38,3.81,1.78
			c0.57,0.59,0.87,1.14,0.97,1.34c2.16,4.07,2.76,6.75,2.76,6.75c2.04,9.18,0.99,2.92,2.35,10.17c1.23,6.58,2.13,11.96,2.27,12.77
			c0.57,3.39,1.11,6.78,2.03,11.36c0.11,0.56,0.56,2.77,1.3,5.64c0.62,2.4,0.98,3.8,1.7,5.64c0.84,2.15,1.47,3.71,2.92,5.42
			c1,1.17,2.04,2.37,3.89,2.89c0.49,0.14,2.17,0.62,3.81-0.07c0.59-0.25,1.79-0.91,3-3.79c1.14-2.71,1.29-4.99,1.38-6.31
			c0.26-3.64,0.75-7.27,1.05-10.91c0.32-3.85,0.5-6.05,0.81-8.98c0.35-3.28,0.68-5.83,1.13-8.54c0.77-4.63,1.49-7.37,3.57-9.8
			c0.72-0.84,1.37-1.37,2.03-1.78c3.04-1.88,6.41-1.25,6.73-1.19c0.72,0.14,2.96,0.63,4.54,2.45c0.98,1.13,1.23,2.22,1.62,4.01
			c0.48,2.23,0.46,4.13,0.41,6.98c-0.05,2.86-0.24,3.42,0.24,4.6c0.2,0.5,0.92,2.19,2.84,3.27c0.65,0.37,2.12,1.19,3.73,0.82
			c1.93-0.45,2.82-2.35,3.32-3.41c0.47-1,0.76-2.05,0.89-6.31c0.09-2.86,0.05-5.47,0.57-7.94c0,0,0.26-1.22,1.13-2.89
			c0.56-1.07,0.89-1.37,1.22-1.56c1.04-0.61,2.32-0.3,2.59-0.22c1.67,0.46,2.55,2.07,3.49,4.16c2.04,4.58,2.84,7.94,2.84,7.94
			c0.9,3.84,1.46,6.19,1.7,9.5c0.08,1.07,0.2,3.29,1.3,5.94c0.84,2.03,1.54,2.6,2.03,2.89c1.66,1,4.01,0.76,5.59-0.15
			c1.75-1,2.31-2.68,2.76-4.01c0.41-1.21,0.36-1.86,0.49-4.6c0.18-4.01,0.31-3.34,0.41-6.46c0.03-0.94,0.09-3.23,0-6.23
			c-0.11-3.76-0.34-4.97,0-7.5c0.44-3.24,1.2-4.1,1.95-4.53c1.06-0.61,2.27-0.43,3.16-0.3c2.24,0.33,4.41,1.71,5.27,3.64
			c0.43,0.97,0.41,1.82,0.41,2.15c-0.06,3.93,0.92,7.81,1.3,11.73c0.2,2.11,0.54,4.3,1.22,8.66c1.09,7.02,1.45,7.7,2.16,12.58
			c0.68,4.67,0.95,8.14,1.27,12.35c0.55,7.13,0.82,10.7,0.64,13.16c-0.22,2.87,0.11,5.75-0.13,8.62c-0.03,0.39-0.09,1.77,0.38,3.49
			c0.38,1.38,0.76,2.75,2.08,3.65c1.51,1.02,3.36,0.82,4.02,0.71v-87.4h-6.88V524.81z"/>
	</g>
	<g id="Calque_17_00000035495097922638363080000015210216058518193559_">
		<path class="st51" d="M471.5,549.52c-0.69,32.21,0.03,45.46,1.17,50.04c0.22,0.88,1.16,4.27,0,8.26c0,0-0.96,3.29-3.65,6.29
			c-11.26,12.54-46.37,19.66-46.37,19.66c-18.56,3.76-32.85,5.89-36.93,6.49c-22.42,3.28-40.89,4.86-53.46,5.7
			c-7.57,0.5-13.97,0.8-18.68,0.98h-5.15h-3.01V524.81l14.39,1.24l59.04-1.24l57.11-16.05l32.63-9.04L471.5,549.52z"/>
		<path class="st52" d="M472.66,543.81c0,9.42,0,18.84,0,28.25c-0.2,1.39-0.71,3.56-2.19,5.79c-0.35,0.52-1.61,2.36-5.84,5.34
			c-3.08,2.17-5.76,3.57-7.54,4.45c-6.32,3.13-11.58,4.86-12.4,5.12c-14.49,4.69-31.13,7.57-31.13,7.57
			c-34.28,5.94-27.46,5.41-39.65,7.13c-30.39,4.28-52.38,4.67-57.4,4.73c-4.62,0.06-8.45,0.04-11.09,0v-33.9
			c1.85-0.04,4.7-0.12,8.17-0.27c8.79-0.38,43-2.15,94.86-14.87c13.02-3.19,30.27-7.84,50.35-14.47L472.66,543.81z"/>
		<path class="st53" d="M305.42,524.81v-63.6h7.35c3.18-0.02,6.38-0.02,9.61,0c6.98,0.05,20.86,0.24,41,1.44
			c18.05,1.07,27.08,1.61,37.67,3.05c12.72,1.74,21.71,3.71,31,5.75c4.23,0.93,9.03,2.3,18.64,5.03c0.37,0.11,6.65,1.92,12.95,5.21
			c0,0,3.45,1.8,6.67,5.21c0.56,0.59,1.29,1.44,1.77,2.69c0.43,1.15,0.62,2.6,0.33,3.61c-0.84,2.91-6.12,4.05-7.2,4.29
			c-12.26,2.76,39.31-2.15-44.54,15.56c-21.99,4.64-48.4,9.81-78.67,14.79L305.42,524.81z"/>
		<path class="st50" d="M312.28,524.81c45.86-0.36,99.69-8.68,159.42-33.26c1.05,2.3,2.44,5.89,3.25,10.43
			c0.62,3.47,0.64,6.08,0.65,8.64c0.05,13.59-0.31,14.27-0.98,29.2c-0.28,6.21-0.36,9.4-1.95,9.83c-1.73,0.47-4.48-2.54-5.86-5.06
			c-1.33-2.44-1.38-4.43-1.63-6.85c-0.18-1.71-0.99-5.21-2.6-12.21c-1.2-5.21-2.23-9.58-3.9-13.7c-0.22-0.54-1.95-4.77-1.95-4.77
			c-0.26-0.39-0.88-1.18-1.76-1.24c-1.33-0.09-2.34,1.57-2.84,2.38c-1.45,2.37-1.51,4.72-1.54,5.86c-0.21,7.54-0.65,4.99-0.57,10.24
			c0.08,5.44,0.12,8.16,0.49,10.32c0.04,0.24,0.43,2.53,0.16,5.49c-0.22,2.41-0.68,3.17-1.05,3.64c-0.91,1.12-3.02,2.55-5.03,1.78
			c-0.69-0.26-1.51-0.89-2.35-3.56c-0.83-2.62-0.87-4.63-0.89-8.02c-0.02-3.27-0.5-6.55-0.16-9.8c0.13-1.27,0.36-2.9-0.49-4.68
			c-0.5-1.05-1.21-1.79-2.19-2.82c-1.18-1.24-1.79-1.86-2.76-2c-0.98-0.15-2,0.18-2.68,0.74c-0.5,0.42-0.73,0.89-1.05,1.78
			c-0.6,1.66-0.9,2.49-1.05,3.93c-0.29,2.64,0.36,2.91-0.08,4.9c-0.27,1.21-0.51,2.29-1.54,3.04c-1.4,1.03-3.71,1.05-5.03,0.07
			c-0.92-0.68-1.21-1.74-1.46-2.67c-0.45-1.68-0.02-2.58-0.81-3.27c-0.53-0.46-1.25-0.5-1.7-0.52c-1.99-0.1-3.43,1.38-3.81,1.78
			c-0.57,0.59-0.87,1.14-0.97,1.34c-2.16,4.07-2.76,6.75-2.76,6.75c-2.04,9.18-0.99,2.92-2.35,10.17
			c-1.23,6.58-2.13,11.96-2.27,12.77c-0.57,3.39-1.11,6.78-2.03,11.36c-0.11,0.56-0.56,2.77-1.3,5.64c-0.62,2.4-0.98,3.8-1.7,5.64
			c-0.84,2.15-1.47,3.71-2.92,5.42c-1,1.17-2.04,2.37-3.89,2.89c-0.49,0.14-2.17,0.62-3.81-0.07c-0.59-0.25-1.79-0.91-3-3.79
			c-1.14-2.71-1.29-4.99-1.38-6.31c-0.26-3.64-0.75-7.27-1.05-10.91c-0.32-3.85-0.5-6.05-0.81-8.98c-0.35-3.28-0.68-5.83-1.13-8.54
			c-0.77-4.63-1.49-7.37-3.57-9.8c-0.72-0.84-1.37-1.37-2.03-1.78c-3.04-1.88-6.41-1.25-6.73-1.19c-0.72,0.14-2.96,0.63-4.54,2.45
			c-0.98,1.13-1.23,2.22-1.62,4.01c-0.48,2.23-0.46,4.13-0.41,6.98c0.05,2.86,0.24,3.42-0.24,4.6c-0.2,0.5-0.92,2.19-2.84,3.27
			c-0.65,0.37-2.12,1.19-3.73,0.82c-1.93-0.45-2.82-2.35-3.32-3.41c-0.47-1-0.76-2.05-0.89-6.31c-0.09-2.86-0.05-5.47-0.57-7.94
			c0,0-0.26-1.22-1.13-2.89c-0.56-1.07-0.89-1.37-1.22-1.56c-1.04-0.61-2.32-0.3-2.59-0.22c-1.67,0.46-2.55,2.07-3.49,4.16
			c-2.04,4.58-2.84,7.94-2.84,7.94c-0.9,3.84-1.46,6.19-1.7,9.5c-0.08,1.07-0.2,3.29-1.3,5.94c-0.84,2.03-1.54,2.6-2.03,2.89
			c-1.66,1-4.01,0.76-5.59-0.15c-1.75-1-2.31-2.68-2.76-4.01c-0.41-1.21-0.36-1.86-0.49-4.6c-0.18-4.01-0.31-3.34-0.41-6.46
			c-0.03-0.94-0.09-3.23,0-6.23c0.11-3.76,0.34-4.97,0-7.5c-0.44-3.24-1.2-4.1-1.95-4.53c-1.06-0.61-2.27-0.43-3.16-0.3
			c-2.24,0.33-4.41,1.71-5.27,3.64c-0.43,0.97-0.41,1.82-0.41,2.15c0.06,3.93-0.92,7.81-1.3,11.73c-0.2,2.11-0.54,4.3-1.22,8.66
			c-1.09,7.02-1.45,7.7-2.16,12.58c-0.68,4.67-0.95,8.14-1.27,12.35c-0.55,7.13-0.82,10.7-0.64,13.16c0.22,2.87-0.11,5.75,0.13,8.62
			c0.03,0.39,0.09,1.77-0.38,3.49c-0.38,1.38-0.76,2.75-2.08,3.65c-1.51,1.02-3.36,0.82-4.02,0.71v-87.4h6.88V524.81z"/>
	</g>
	<g id="Calque_8_00000017496244671137515470000013698507438296315569_">
		<rect x="102.36" y="509.42" class="st54" width="26.32" height="320.9"/>
		
			<ellipse transform="matrix(0.9985 -0.0553 0.0553 0.9985 -32.8638 7.235)" class="st41" cx="114.3" cy="597.44" rx="52.1" ry="52.1"/>
		<path class="st55" d="M170.74,509.42H58.21c-5.43,0-9.84-4.4-9.84-9.84v-4.41c0-1.32,1.07-2.38,2.38-2.38h126.48
			c1.66,0,3.01,1.35,3.01,3.01v4.13C180.24,505.16,175.99,509.42,170.74,509.42z"/>
		<path class="st56" d="M135.79,369.75h-1.35c-2.61,0-4.73,2.12-4.73,4.73v118.3h10.83V374.5
			C140.54,371.88,138.41,369.75,135.79,369.75z"/>
		<path class="st56" d="M58.92,369.75h-1.35c-2.61,0-4.73,2.12-4.73,4.73v118.3h10.83V374.5C63.67,371.88,61.54,369.75,58.92,369.75
			z"/>
		<path class="st56" d="M171.38,369.75h-1.35c-2.61,0-4.73,2.12-4.73,4.73v118.3h10.83V374.5
			C176.13,371.88,174.01,369.75,171.38,369.75z"/>
		<path class="st56" d="M97.35,369.75H96c-2.61,0-4.73,2.12-4.73,4.73v118.3h10.83V374.5C102.1,371.88,99.98,369.75,97.35,369.75z"
			/>
		<circle class="st44" cx="501.28" cy="597.44" r="52.1"/>
	</g>
</g>
</svg>
