<?xml version="1.0" encoding="UTF-8"?>
<svg xmlns="http://www.w3.org/2000/svg" version="1.1" viewBox="0 0 595.28 595.28">
  <defs>
    <style>
      .cls-1 {
        fill: #3c5f4b;
      }

      .cls-1, .cls-2, .cls-3, .cls-4, .cls-5, .cls-6, .cls-7, .cls-8, .cls-9, .cls-10 {
        display: none;
      }

      .cls-2, .cls-11 {
        fill: #259e55;
      }

      .cls-12 {
        fill: #dbccac;
      }

      .cls-13, .cls-5 {
        fill: #248e50;
      }

      .cls-14 {
        fill: #8c663b;
      }

      .cls-15 {
        stroke: #1d1d1b;
        stroke-miterlimit: 10;
      }

      .cls-15, .cls-16 {
        fill: #e7b551;
      }

      .cls-17 {
        fill: #3b512d;
      }

      .cls-18 {
        fill: #dab396;
      }

      .cls-19 {
        fill: #ccba9f;
      }

      .cls-20 {
        fill: #4a6738;
      }

      .cls-3, .cls-21 {
        fill: #2fac66;
      }

      .cls-22, .cls-10 {
        fill: #d3c6a7;
      }

      .cls-23 {
        fill: #325626;
      }

      .cls-4 {
        fill: #c9ba9d;
      }

      .cls-24 {
        fill: #d54428;
      }

      .cls-25 {
        fill: #d75530;
      }

      .cls-26 {
        fill: #c6b491;
      }

      .cls-27 {
        fill: #e04b26;
      }

      .cls-28, .cls-9 {
        fill: #936037;
      }

      .cls-6, .cls-29 {
        fill: #d0d0d0;
      }

      .cls-8 {
        fill: #344f3f;
      }

      .cls-30 {
        fill: #365040;
      }

      .cls-31 {
        fill: #f4f4f4;
      }

      .cls-32 {
        fill: #432f14;
      }

      .cls-33 {
        fill: #010202;
      }

      .cls-34 {
        fill: #e6bc9d;
      }

      .cls-35 {
        fill: #936e4c;
      }

      .cls-36 {
        fill: #e5dabe;
      }

      .cls-37 {
        fill: #222323;
      }

      .cls-38 {
        fill: #3d604c;
      }
    </style>
  </defs>
  <!-- Generator: Adobe Illustrator 28.7.1, SVG Export Plug-In . SVG Version: 1.2.0 Build 142)  -->
  <g>
    <g id="corps">
      <path class="cls-34" d="M316.42,597.25H116.59c2.13-27.13,9.02-65.42,30.48-105.33,6.74-12.53,13.99-23.51,21.17-33.02,10.57-7.34,23.82-14.98,39.8-21.17,45.17-17.49,86.41-13.35,108.38-9.31v168.84Z"/>
      <path class="cls-15" d="M294.4,470.75"/>
      <path class="cls-16" d="M156.38,404.7"/>
      <path class="cls-34" d="M316.42,428.41v-82.13h-52.5c4.58,12.49,8.92,28.55,10.29,47.42.95,13.05.29,24.75-1.03,34.72"/>
      <path class="cls-16" d="M316.42,395.39"/>
      <path class="cls-34" d="M246.71,198.18c-13.85,0-27.17-.53-40.72-.82-10.1,18.16-16.13,38.6-16.96,59.58-2.8,70.53,53.49,137.92,127.54,138.43v-195.24c-10.12-.18-20.37-1-30.86-2.95-13-3-26,1-39,1Z"/>
      <path class="cls-34" d="M315.72,129.51c-47.87.62-88.12,28.99-109.74,67.86,13.56.29,26.88.82,40.72.82,13,0,26-4,39-1,10.49,1.95,20.74,2.77,30.86,2.95v-70.63c-.28,0-.56,0-.85,0Z"/>
      <path class="cls-18" d="M315.72,597.25h199.83c-2.13-27.13-9.02-65.42-30.48-105.33-6.74-12.53-13.99-23.51-21.17-33.02-10.57-7.34-23.82-14.98-39.8-21.17-45.17-17.49-86.41-13.35-108.38-9.31v168.84Z"/>
      <path class="cls-15" d="M337.74,470.75"/>
      <path class="cls-16" d="M475.76,404.7"/>
      <path class="cls-18" d="M315.72,428.41v-82.13h52.5c-4.58,12.49-8.92,28.55-10.29,47.42-.95,13.05-.29,24.75,1.03,34.72"/>
      <path class="cls-16" d="M315.72,395.39"/>
      <path class="cls-18" d="M443.11,256.94c-.8-20.09-6.36-39.68-15.7-57.25-5.86-.55-12.1-.71-17.71-1.51-32.09-3.06-62.43,2.64-94.14,1.93v195.26c74.06-.51,130.34-67.9,127.54-138.43Z"/>
      <path class="cls-18" d="M409.71,198.18c5.61.8,11.85.97,17.71,1.51-21.28-40.06-62.18-69.56-111-70.19-.28,0-.56,0-.85,0v70.6c31.71.71,62.05-4.98,94.14-1.93Z"/>
      <ellipse class="cls-34" cx="196.25" cy="261.06" rx="17.16" ry="20.53"/>
      <ellipse class="cls-18" cx="437.35" cy="261.06" rx="17.16" ry="20.53"/>
    </g>
    <g id="yeux">
      <ellipse cx="263.92" cy="268.69" rx="12.89" ry="27.68"/>
      <ellipse cx="368.22" cy="268.69" rx="12.89" ry="27.68"/>
    </g>
    <g id="TSHIRT">
      <path class="cls-23" d="M170.04,460.92"/>
      <path class="cls-12" d="M273.43,424.92c-1.86.73-4.05,1.98-5.75,4.15-3.77,4.82-3.72,12.31,0,19.06,10.05,9.26,16.08,17.9,19.74,24.17,3.3,5.64,5.44,10.65,11.07,15.32,5.93,4.92,12.53,6.82,17.19,7.66.24,33.99.49,67.97.73,101.96H112.74l14.7-92.9c1.47-6.37,4.35-15.58,10.39-25.32,2.2-3.54,10.01-15.55,28.66-28.13,27.25-18.38,56.96-24.03,73.69-26.02"/>
      <path class="cls-22" d="M358.2,424.92v1.34c4.79,12.39,3.49,20.32,1.4,25.29-3.64,8.64-9.45,7.79-17.65,20.43-5.66,8.72-5.43,13.36-11.57,17.87-5.23,3.84-10.84,5.03-14.55,5.45-.03,33.99-.06,67.97-.1,101.96h203.16l-14.7-92.9c-1.47-6.37-4.35-15.58-10.39-25.32-2.12-3.41-9.97-15.51-28.66-28.13-27.24-18.39-56.96-24.03-73.69-26.02"/>
      <g id="Calque_16">
        <path class="cls-25" d="M423.96,429.78c8.09,2.41,14.9,5.14,20.26,7.59,2.17.99,10.94,5.04,21.67,12.05,4.95,3.24,7.43,4.85,8.14,5.96,6.07,9.51-10.45,30.59-24.76,47.68-33.8,40.39-50.71,60.58-69.91,72.04-26.99,16.1-52.09,21.51-69.56,25.28-11.08,2.39-6.84.49-37.72,4.5-7.05.92-12.04,1.63-17.65-.69-3.54-1.47-6.09-3.63-12.81-5.89-4.11-1.38-5.26-1.28-5.54-2-1.54-4.07,28.74-18.16,47.41-28.13,10.03-5.35,46.86-25.6,82.37-59.57,29.93-28.63,41.76-50.6,48.11-65.8,2.46-5.9,4.16-10.93,5.24-14.39l4.75,1.37Z"/>
        <polygon class="cls-25" points="416.35 429.49 419.21 428.41 421.6 430.22 421.6 430.92 416.35 429.49"/>
      </g>
      <g id="Calque_12">
        <g id="Calque_10">
          <path class="cls-27" d="M301.72,501.59c1.23,2.69,1.88,5.05,2.25,6.76.4,1.87.53,3.31.56,3.71.14,1.69.31,3.89-.26,6.64-.26,1.27-1,4.09-1.73,5,0,0-.04.05-.05.11-.23.86,3.48,3.05,6.89,3.57,1.23.19,3.48.32,6.34-.77v-27.32h-14v2.3Z"/>
          <path class="cls-27" d="M307.09,506.95c-.69.41-1.75.96-3.12,1.4-3.37,1.08-5.84.58-8.63.39-3.12-.21-11.69-.79-14.04,3.06-.63,1.03-.2,1.38-1.28,4.34,0,0-.85,2.33-2.3,4.85-1.91,3.33-5.76,10.01-13.02,13.28-3.7,1.66-6.92,1.83-6.89,2.81.03.97,3.21,1.61,4.09,1.79,5.52,1.11,8.89-.21,15.06-1.02,8.38-1.11,8.27.52,12.26-1.02,1.29-.5,6.77-2.61,9.96-7.91,2.14-3.55,1.82-6.16,4.8-8.93,1.74-1.62,3.64-2.41,4.9-2.81"/>
        </g>
        <path class="cls-27" d="M303.03,504.9c-2.74.48-5.63.3-11-1.4-4.37-1.38-11.13-3.58-18.89-9.27-7.55-5.54-11.85-11.3-14.98-15.56-6.89-9.39-10.14-17.97-11.4-21.68-3.27-9.58-4.9-14.37-4.43-18.54,0,0,.73-6.33-1.7-10.43-.29-.48-.93-1.57-2.21-2.15-1.28-.58-2.31-.25-2.38-.5-.13-.49,3.66-2.29,8.17-3.15,3.28-.63,5.47-1.04,8.17-.33,3.08.81,4.12,2.39,5.96,1.82,1.19-.37,1.17-1.17,3.23-3.48,1.87-2.09,3.42-3.84,5.62-4.3,1.58-.34,3.88-.1,5.28,1.16,3.13,2.82-.74,8.59-.85,17.38-.09,6.94,2.22,12.11,4.43,17.05,3.52,7.88,5.35,6.6,12.77,18.04,8.12,12.52,12.17,18.78,13.28,22.68.49,1.75,1.53,5.91,4.77,7.2,2.82,1.12,5.68-.57,5.95,0,.34.74-4.02,4.46-9.75,5.45Z"/>
        <path class="cls-24" d="M329.48,501.59c-1.23,2.69-1.88,5.05-2.25,6.76-.4,1.87-.53,3.31-.56,3.71-.14,1.69-.31,3.89.26,6.64.26,1.27,1,4.09,1.73,5,0,0,.04.05.05.11.23.86-3.48,3.05-6.89,3.57-1.23.19-3.48.32-6.34-.77v-27.32h14v2.3Z"/>
        <path class="cls-24" d="M324.12,506.95c.69.41,1.75.96,3.12,1.4,3.37,1.08,5.84.58,8.63.39,3.12-.21,11.69-.79,14.04,3.06.63,1.03.2,1.38,1.28,4.34,0,0,.85,2.33,2.3,4.85,1.91,3.33,5.76,10.01,13.02,13.28,3.7,1.66,6.92,1.83,6.89,2.81-.03.97-3.21,1.61-4.09,1.79-5.52,1.11-8.89-.21-15.06-1.02-8.38-1.11-8.27.52-12.26-1.02-1.29-.5-6.77-2.61-9.96-7.91-2.14-3.55-1.82-6.16-4.8-8.93-1.74-1.62-3.64-2.41-4.9-2.81"/>
        <path class="cls-24" d="M328.18,504.9c2.74.48,5.63.3,11-1.4,4.37-1.38,11.13-3.58,18.89-9.27,7.55-5.54,11.85-11.3,14.98-15.56,6.89-9.39,10.14-17.97,11.4-21.68,3.27-9.58,4.9-14.37,4.43-18.54,0,0-.73-6.33,1.7-10.43.29-.48.93-1.57,2.21-2.15,1.28-.58,2.31-.25,2.38-.5.13-.49-3.66-2.29-8.17-3.15-3.28-.63-5.47-1.04-8.17-.33-3.08.81-4.12,2.39-5.96,1.82-1.19-.37-1.17-1.17-3.23-3.48-1.87-2.09-3.42-3.84-5.62-4.3-1.58-.34-3.88-.1-5.28,1.16-3.13,2.82.74,8.59.85,17.38.09,6.94-2.22,12.11-4.43,17.05-3.52,7.88-5.35,6.6-12.77,18.04-8.12,12.52-12.17,18.78-13.28,22.68-.49,1.75-1.53,5.91-4.77,7.2-2.82,1.12-5.68-.57-5.95,0-.34.74,4.02,4.46,9.75,5.45Z"/>
      </g>
      <g id="Calque_13">
        <polyline class="cls-19" points="239.94 540.65 239.94 586.35 179.94 586.35 179.94 540.65"/>
        <path class="cls-26" d="M210.32,552.14c11.15-3.06,22.3-6.13,33.45-9.19v-10.98h-68.17v10.21c11.57,3.32,23.15,6.64,34.72,9.96Z"/>
      </g>
      <path class="cls-10" d="M315.44,513.64l-6.3-10.2-22.9-10.4c-2.3-1.1-3.5-3.8-2.6-6.3l4.8-13.5-4.3-1.1-15.5,7.3c-1.4.6-2.9.6-4.3,0h0c-1.5-.7-2.7-2.2-3-3.9l-3-15.3c-.2-.8-.2-1.7-.2-2.5v-10c0-.7,0-1.4.2-2.1l2.1-12.5c.2-1.1.5-2.2,1-3.2l3.9-8.5,5.8-8.5c.2-.2.3-.4.5-.6l2.9-2.6c1.4-1.3,3.6-1.2,4.8.3l.3.4c.4.5.7,1,.8,1.6l2.4,10.6,2,13.4,1.9,13.9,3.7,12,8.8,16.3,13,18.2,3.2,17.1v.1Z"/>
      <path class="cls-4" d="M315.44,512.94l6.3-10.2,23.8-10.8c1.8-.8,2.7-3,2-5l-5.1-14.4,4.3-1.1,13.1,6.2c2.9,1.4,6.2,1.4,9,0h0l3.6-18.4c.1-.6.2-1.3.2-1.9v-10.6c0-.5,0-1.1-.1-1.6l-2.2-13.2c-.1-.8-.4-1.7-.8-2.4l-3.8-8.1c-.2-.5-.5-1-.8-1.4l-5.4-7.8c-.2-.2-.3-.4-.5-.6l-2.7-2.5c-1.5-1.4-3.7-1.2-5,.3l-.2.3c-.4.5-.7,1-.8,1.7l-2.3,10.5-2,13.4-1.9,13.9-3.7,12-8.8,16.3-13,18.2-3.2,17.1v.1Z"/>
      <path class="cls-36" d="M131.51,356.57"/>
    </g>
    <g id="Calque_14">
      <polygon class="cls-31" points="116.59 308.57 116.59 447.46 236.02 374.44 116.59 308.57"/>
      <path class="cls-32" d="M107.97,553.02c.15-8.14.29-19.69.22-33.56-.12-24.93-.19-40.02-1.53-58.21-2.63-35.71-6.5-34.04-6.64-60.26-.1-19.41-.17-32.26,2.55-45.96,1.06-5.36,2.99-13.05,3.06-24,.03-4.28-.24-7.57,0-13.79.11-3.01.31-5.77.54-8.24.43-4.6,4.31-8.1,8.93-8.1h.52c4.95,0,8.97,4.01,8.97,8.97,0,1.52,0,3.13,0,4.82.02,8.03.06,25.13.44,45.45.26,14.17.58,24.37,1.02,38.3,1.27,40.21,1.66,37.06,2.04,55.66.66,32.19-.6,37.41.51,62.81.76,17.35,2.07,31.53,3.06,40.85"/>
    </g>
    <g id="Calque_11" class="cls-7">
      <path class="cls-13" d="M474.04,372.19l5.25-3.93c1.81-1.35,4.08-1.95,6.31-1.65l7.61,1.01c-.83,19.95,1.45,34.87,3.71,44.88,2.42,10.69,6.07,21.32,5.43,37.26-.3,7.41-1.42,13.47-2.32,17.41l-14.63-1.95"/>
      <path class="cls-13" d="M502.91,368.92l6.27-1.94c2.16-.67,4.49-.46,6.5.57l6.83,3.51c-7.48,18.52-10.36,33.33-11.59,43.52-1.32,10.88-1.44,22.12-7.41,36.92-2.77,6.88-5.87,12.21-8.03,15.61l-13.13-6.75"/>
      <path class="cls-11" d="M532.46,383.26l-5.01-4.07c-1.73-1.4-3.93-2.07-6.15-1.86l-7.53.71c.05,19.65-2.76,34.24-5.37,43.99-2.78,10.42-6.79,20.73-6.77,36.44,0,7.29.89,13.3,1.61,17.21l14.46-1.36"/>
      <path class="cls-11" d="M452.33,389.85l3.64-5.46c1.25-1.88,3.19-3.19,5.41-3.66l7.52-1.58c5.87,19.09,12.97,32.4,18.44,41.09,5.84,9.27,12.82,18.08,17.53,33.33,2.18,7.08,3.14,13.18,3.61,17.19l-14.45,3.03"/>
      <path class="cls-21" d="M443.21,407.17l2.86-5.02c1.38-2.42,3.65-4.2,6.33-4.97l4.91-1.4c.49-.14.99-.08,1.42.13.61.3.88.88.97,1.05,5.68,11.64,9.94,24.3,18.07,34.38,20.23,25.09,15.02,24.98,22.58,35.87,1.71,2.46,3.22,9.09,4.48,15.15.21,1.01-.4,2.01-1.4,2.3-4.16,1.19-8.33,2.38-12.49,3.56"/>
      <path class="cls-21" d="M547.69,397.82l-4.12-5.14c-1.42-1.77-3.47-2.91-5.72-3.18l-7.65-.92c-4.2,19.6-10.15,33.52-14.85,42.68-5.03,9.78-11.25,19.19-14.62,34.85-1.57,7.27-1.99,13.45-2.11,17.5l14.71,1.77"/>
      <path class="cls-29" d="M514.11,603.73c-2.37-25.12-3.5-52.87-2.43-82.85.41-11.46,1.11-22.53,2.05-33.19.19-2.21-1.63-4.06-3.84-3.9-5.69.43-11.37.85-17.06,1.28-1.88.14-3.32,1.7-3.31,3.59.07,13.78.07,27.67-.02,41.67-.23,37.36-1.05,74-2.38,109.9-.08,2.03,1.55,3.71,3.58,3.71h19.83c1.98,0,3.58-1.6,3.58-3.58v-41.19"/>
      <rect class="cls-28" x="104.14" y="436.92" width="32.94" height="401.55"/>
      <path class="cls-30" d="M38.96,416.11h159.62c1.66,0,3.01,1.35,3.01,3.01v8.31c0,5.24-4.26,9.5-9.5,9.5H46.41c-5.43,0-9.84-4.41-9.84-9.84v-8.59c0-1.31,1.07-2.38,2.38-2.38h0Z"/>
      <path class="cls-38" d="M143.1,262.15h4.07c2.62,0,4.75,2.13,4.75,4.75v149.2h-13.55v-149.23c0-2.61,2.12-4.73,4.73-4.73h0Z"/>
      <path class="cls-38" d="M46.9,262.15h4.07c2.62,0,4.75,2.13,4.75,4.75v149.2h-13.55v-149.23c0-2.61,2.12-4.73,4.73-4.73h0Z"/>
      <path class="cls-38" d="M187.64,262.15h4.07c2.62,0,4.75,2.13,4.75,4.75v149.2h-13.55v-149.23c0-2.61,2.12-4.73,4.73-4.73h0Z"/>
      <path class="cls-38" d="M95,262.15h4.07c2.62,0,4.75,2.13,4.75,4.75v149.2h-13.55v-149.23c0-2.61,2.12-4.73,4.73-4.73h0Z"/>
      <path class="cls-20" d="M315.65,497.37v99.83h-106.72s0-110.66,0-110.66v-54.39c0-1.59,1.06-2.98,2.59-3.41l6.5-1.8,20.19-4c1.07-.21,2.06.6,2.06,1.69v72.05l75.38.68Z"/>
      <path class="cls-17" d="M315.79,497.37v99.83s106.72,0,106.72,0v-110.66s0-54.39,0-54.39c0-1.59-1.06-2.98-2.59-3.41l-6.5-1.8-20.19-4c-1.07-.21-2.06.6-2.06,1.69v72.05s-75.38.68-75.38.68Z"/>
    </g>
    <g id="_x31_">
      <rect class="cls-9" x="112.66" y="389.86" width="26.32" height="320.9"/>
      <circle class="cls-34" cx="124.61" cy="602.41" r="52.1"/>
      <path class="cls-8" d="M61.05,373.22h126.48c1.66,0,3.01,1.35,3.01,3.01v4.13c0,5.24-4.26,9.5-9.5,9.5h-112.53c-5.43,0-9.84-4.41-9.84-9.84v-4.41c0-1.31,1.07-2.38,2.38-2.38Z"/>
      <path class="cls-1" d="M144.74,250.19h1.35c2.62,0,4.75,2.13,4.75,4.75v118.28h-10.83v-118.3c0-2.61,2.12-4.73,4.73-4.73Z"/>
      <path class="cls-1" d="M67.87,250.19h1.35c2.62,0,4.75,2.13,4.75,4.75v118.28h-10.83v-118.3c0-2.61,2.12-4.73,4.73-4.73Z"/>
      <path class="cls-1" d="M180.34,250.19h1.35c2.62,0,4.75,2.13,4.75,4.75v118.28h-10.83v-118.3c0-2.61,2.12-4.73,4.73-4.73Z"/>
      <path class="cls-1" d="M106.31,250.19h1.35c2.62,0,4.75,2.13,4.75,4.75v118.28h-10.83v-118.3c0-2.61,2.12-4.73,4.73-4.73Z"/>
    </g>
    <g id="_x32_">
      <path class="cls-5" d="M480.03,393l5.25-3.93c1.81-1.35,4.08-1.95,6.31-1.65l7.61,1.01c-.83,19.95,1.45,34.87,3.71,44.88,2.42,10.69,6.07,21.32,5.43,37.26-.3,7.41-1.42,13.47-2.32,17.41l-14.63-1.95"/>
      <path class="cls-5" d="M508.9,389.73l6.27-1.94c2.16-.67,4.49-.46,6.5.57l6.83,3.51c-7.48,18.52-10.36,33.33-11.59,43.52-1.32,10.88-1.44,22.12-7.41,36.92-2.77,6.88-5.87,12.21-8.03,15.61l-13.13-6.75"/>
      <path class="cls-2" d="M538.44,404.06l-5.01-4.07c-1.73-1.4-3.93-2.07-6.15-1.86l-7.53.71c.05,19.65-2.76,34.24-5.37,43.99-2.78,10.42-6.79,20.73-6.77,36.44,0,7.29.89,13.3,1.61,17.21l14.46-1.36"/>
      <path class="cls-2" d="M458.32,410.66l3.64-5.46c1.25-1.88,3.19-3.19,5.41-3.66l7.52-1.58c5.87,19.09,12.97,32.4,18.44,41.09,5.84,9.27,12.82,18.08,17.53,33.33,2.18,7.08,3.14,13.18,3.61,17.19l-14.45,3.03"/>
      <path class="cls-3" d="M449.2,427.98l2.86-5.02c1.38-2.42,3.65-4.2,6.33-4.97l4.91-1.4c.49-.14.99-.08,1.42.13.61.3.88.88.97,1.05,5.68,11.64,9.94,24.3,18.07,34.38,20.23,25.09,15.02,24.98,22.58,35.87,1.71,2.46,3.22,9.09,4.48,15.15.21,1.01-.4,2.01-1.4,2.3-4.16,1.19-8.33,2.38-12.49,3.56"/>
      <path class="cls-3" d="M553.68,418.62l-4.12-5.14c-1.42-1.77-3.47-2.91-5.72-3.18l-7.65-.92c-4.2,19.6-10.15,33.52-14.85,42.68-5.03,9.78-11.25,19.19-14.62,34.85-1.57,7.27-1.99,13.45-2.11,17.5l14.71,1.77"/>
      <path class="cls-6" d="M520.1,624.53c-2.37-25.12-3.5-52.87-2.43-82.85.41-11.46,1.11-22.53,2.05-33.19.19-2.21-1.63-4.06-3.84-3.9-5.69.43-11.37.85-17.06,1.28-1.88.14-3.32,1.7-3.31,3.59.07,13.78.07,27.67-.02,41.67-.23,37.36-1.05,74-2.38,109.9-.08,2.03,1.55,3.71,3.58,3.71h19.83c1.98,0,3.58-1.6,3.58-3.58v-41.19"/>
      <circle class="cls-18" cx="506.61" cy="594.19" r="52.1"/>
    </g>
    <g id="cheveux">
      <path class="cls-33" d="M191.12,241.01s16.51,5.31,20.82-.48,9.09-24.9,24.3-31.42c15.2-6.52,53.76-9.09,67.05-9.05l13.28.04v-70.6s-13.89-.53-26.4,3.05-24.71,6.85-36.32,14.77c-11.61,7.92-27.05,20.97-32.48,27.8-5.42,6.83-16.99,23.96-20.46,32.34-3.47,8.38-9.78,28.31-9.78,30.93v2.61Z"/>
      <path class="cls-37" d="M441.02,241.01s-16.51,5.31-20.82-.48-9.09-24.9-24.3-31.42-53.76-9.09-67.05-9.05l-13.28.04v-70.6s13.89-.53,26.4,3.05,24.71,6.85,36.32,14.77,27.05,20.97,32.48,27.8,16.99,23.96,20.46,32.34,9.78,28.31,9.78,30.93v2.61Z"/>
    </g>
    <g id="Calque_15">
      <path class="cls-20" d="M172.52,205.21"/>
      <path class="cls-14" d="M315.48,229.13c6.96.53,18.11,1.25,31.88,1.48,22.33.37,31.64-.87,54.88-1.02,17.32-.11,30.23.45,43.59,1.04,24.53,1.08,40.05,2.66,62.49-.68,4.01-.6,7.88-1.28,11.62-2.04,2.54-1.25,5.07-2.5,7.61-3.74,2.03-2.28,4.05-4.55,6.08-6.83-.75-1.96-2.23-4.82-5.31-7.15-4.68-3.54-10.67-4.07-20.8-4.06-11.82.02-17.64.78-24.04,1.02-57.5,2.21-113.54,2.68-168.02,1.67v20.31Z"/>
      <path class="cls-35" d="M315.48,229.13c-21.24-.89-43.79-1.25-67.51-.88-20.42.32-39.92,1.16-58.45,2.38-17.33,2.18-37.88,2.78-60.38-.68-3.87-.6-7.61-1.28-11.22-2.04-2.45-1.25-4.9-2.5-7.35-3.74-1.42-2.04-2.84-4.09-4.26-6.13-.14-1.51-.04-3.54,1.16-5.47,1.68-2.7,5.9-5.82,22.45-6.45,10.02-.38,14.84.69,23.22,1.02,55.56,2.21,109.7,2.68,162.34,1.67v20.31Z"/>
      <path class="cls-14" d="M312.86,209.81c0-32.07,0-64.13,0-96.2l23.1-3.06c34.72-11.32,50.37-6.26,58.21.77,8.08,7.24,8.25,16.91,13.79,35.23,4.17,13.82,11.37,32.48,24.64,53.62.44,3.22.88,6.43,1.33,9.65h-121.07Z"/>
      <path class="cls-35" d="M315.48,209.81v-96.2l-23.1-3.06c-34.72-11.32-50.37-6.26-58.21.77-8.08,7.24-8.25,16.91-13.79,35.23-4.17,13.82-11.37,32.48-24.64,53.62-.44,3.22-.88,6.43-1.33,9.65h121.07Z"/>
      <path class="cls-27" d="M194.41,209.81h121.07v-20.5c-38.29.77-76.58,1.54-114.86,2.31-1.5,1.74-3.57,4.61-4.88,8.53-.28.84-1.17,3.67-1.33,7.44-.04.9-.02,1.65,0,2.21Z"/>
      <path class="cls-27" d="M436.55,209.81h-121.07v-20.5h110.71c2.1,2.97,4.34,6.59,6.42,10.85,1.69,3.45,2.97,6.72,3.94,9.65Z"/>
    </g>
  </g>
</svg>