<?xml version="1.0" encoding="UTF-8" standalone="no"?>
<svg
   version="1.1"
   viewBox="0 0 341.99999 325.00001"
   id="svg3"
   sodipodi:docname="COIN.svg"
   width="342"
   height="325"
   inkscape:version="1.3.2 (091e20e, 2023-11-25)"
   xmlns:inkscape="http://www.inkscape.org/namespaces/inkscape"
   xmlns:sodipodi="http://sodipodi.sourceforge.net/DTD/sodipodi-0.dtd"
   xmlns="http://www.w3.org/2000/svg"
   xmlns:svg="http://www.w3.org/2000/svg">
  <sodipodi:namedview
     id="namedview3"
     pagecolor="#ffffff"
     bordercolor="#666666"
     borderopacity="1.0"
     inkscape:showpageshadow="2"
     inkscape:pageopacity="0.0"
     inkscape:pagecheckerboard="0"
     inkscape:deskcolor="#d1d1d1"
     inkscape:zoom="0.39643878"
     inkscape:cx="421.25041"
     inkscape:cy="297.64999"
     inkscape:window-width="1440"
     inkscape:window-height="757"
     inkscape:window-x="0"
     inkscape:window-y="25"
     inkscape:window-maximized="1"
     inkscape:current-layer="svg3" />
  <!-- Generator: Adobe Illustrator 29.3.1, SVG Export Plug-In . SVG Version: 2.1.0 Build 151)  -->
  <defs
     id="defs1">
    <style
       id="style1">
      .st0 {
        fill: #f8cfb0;
      }

      .st1 {
        fill: #e94e1b;
      }

      .st2 {
        fill: #fde0c7;
      }

      .st3 {
        fill: #e56d4b;
      }

      .st4 {
        fill: #eb7e65;
      }

      .st5 {
        fill: #a43223;
      }

      .st6 {
        fill: #ed6f4f;
      }

      .st7 {
        fill: #eb775c;
        stroke: #e04b26;
        stroke-miterlimit: 10;
        stroke-width: 18px;
      }

      .st8 {
        fill: #f49a6c;
      }

      .st9 {
        fill: #d54428;
      }

      .st10 {
        fill: #d75530;
      }

      .st11 {
        display: none;
      }
    </style>
  </defs>
  <g
     id="Calque_3"
     transform="translate(-259.3,-143.24567)">
    <ellipse
       class="st6"
       cx="422.39999"
       cy="307.70001"
       rx="163"
       ry="160.10001"
       transform="rotate(-5.6,422.53248,307.6008)"
       id="ellipse1" />
    <g
       id="Calque_5">
      <path
         class="st9"
         d="m 584.4,292.3 c -8.6,-88 -88.2,-152.2 -177.8,-143.4 -28.4,2.8 -54.4,12.6 -76.4,27.4 l 74.2,-20.8 2.2,7.7 -93.2,26.2 c -3.8,3.4 -7.4,6.9 -10.9,10.6 l 106,-29.8 2.2,7.7 -117.6,33 c -2.4,3.1 -4.7,6.2 -6.9,9.5 l 126.4,-35.5 2.2,7.7 -134.8,37.9 c -1.7,2.9 -3.2,5.9 -4.7,8.9 l 141.5,-39.7 2.2,7.7 -147.9,41.5 c -4.4,10.7 -7.6,21.9 -9.6,33.4 l 165.5,-46.5 2.2,7.7 -168.9,47.4 c -0.3,2.6 -0.5,5.1 -0.7,7.7 l 171.5,-48.2 2.2,7.7 -174,48.9 c 0,2.5 0,5 0.1,7.5 l 175.9,-49.4 2.2,7.7 -177.5,49.8 c 0,0.5 0,0.9 0.1,1.4 0.2,2 0.4,3.9 0.7,5.9 l 178.6,-50.2 2.2,7.7 -179.5,50.4 c 1.6,8.7 3.9,17.1 6.9,25.1 l 179.7,-50.5 2.2,7.7 -178.9,50.2 c 1,2.3 2,4.5 3,6.7 l 177.8,-49.9 2.2,7.7 -176.2,49.5 c 1.2,2.2 2.5,4.4 3.8,6.5 l 174.4,-49 2.2,7.7 -172,48.3 c 1.5,2.1 3,4.2 4.5,6.3 l 169.4,-47.6 2.2,7.7 -166.1,46.7 c 6.5,7.7 13.7,14.7 21.6,21 l 151.6,-42.6 2.2,7.7 -145.8,40.9 c 2.6,1.8 5.2,3.6 8,5.3 l 139.8,-39.3 2.2,7.7 -132.3,37.2 c 3.2,1.7 6.5,3.3 9.8,4.8 l 124.5,-35 2.2,7.7 -114.5,32.2 c 4.2,1.5 8.4,2.8 12.7,4 l 103.8,-29.1 2.2,7.7 -89.1,25 c 13.7,2.2 27.8,2.7 42.2,1.2 89.6,-8.8 155.2,-87.2 146.6,-175.2 z"
         id="path1" />
    </g>
    <ellipse
       class="st8"
       cx="447.5"
       cy="303.29999"
       rx="153.5"
       ry="160.10001"
       transform="rotate(-5.6,447.36826,302.66686)"
       id="ellipse2" />
    <ellipse
       class="st2"
       cx="447.5"
       cy="303.29999"
       rx="112.7"
       ry="117.6"
       transform="rotate(-5.6,447.36826,302.66686)"
       id="ellipse3" />
    <path
       class="st0"
       d="m 426.9,203.1 c 62,-6.1 117.3,41.4 123.7,106 2.1,21.1 -1.3,41.3 -9,59.3 13.9,-21.8 21,-48.5 18.2,-76.7 -6.3,-64.6 -61.7,-112.1 -123.7,-106 -41.8,4.1 -75.9,31.5 -91.7,68.7 18,-28.1 47.6,-47.8 82.5,-51.3 z"
       id="path3" />
  </g>
  <g
     class="st9"
     id="g350"
     style="enable-background:new"
     transform="matrix(0.90122819,0,0,0.90302902,-172.5596,-164.49091)">
	<g
   id="g349">
		<g
   id="g348">
			<path
   class="st10"
   d="m 453.7,264.3 c 3.4,1.6 5.1,4.6 6,8.1 1.8,7 1.8,14.2 0.9,21.3 -0.4,3 -2.1,5.5 -4.1,7.7 -0.4,0.5 -1,0.8 -1.6,1 -2.5,0.8 -5,1.6 -7.5,2.4 -2.4,0.8 -4.9,0.8 -7.3,1.2 -8.2,1.2 -16.4,2.1 -24.5,4.1 -0.7,0.2 -1.5,0.4 -2.2,0.7 -1.9,0.8 -2.3,1.6 -2.3,3.6 0,3.5 0.7,6.8 1.1,10.3 0.3,2.8 0.2,5.6 -0.3,8.4 -0.7,4.1 -0.1,8.1 0.6,12.2 0.8,4.5 1.9,8.8 2.4,13.3 0.3,3.1 0.3,6.1 -0.3,9.2 -1,5.5 -0.6,11.1 -0.4,16.7 0.2,6.2 0.4,12.5 0.4,18.7 0,3.7 -0.4,7.5 0.3,11.1 1.1,5.8 0.3,11.6 0.8,17.5 0.4,4.6 1.2,9.1 2.1,13.6 0.2,1.2 0.4,2.4 0.6,3.6 0,0.2 0.1,0.4 0,0.6 -1.2,3.5 -0.6,7.1 -1.3,10.7 -0.7,3.4 -2.4,5.9 -5.3,8 -2.7,2 -5.6,2.9 -8.8,3.2 -5.4,0.5 -10.8,0.9 -16.2,0.9 -1.3,0 -2.6,-0.2 -3.8,-0.3 -3.2,-0.5 -5.2,-2.4 -6.3,-5.4 -1.2,-3.3 -1.7,-6.8 -2.1,-10.3 0,-0.1 0,-0.2 0,-0.4 -1.6,-4.3 -1.4,-8.8 -1.5,-13.3 -0.1,-3.9 -0.6,-7.8 -1,-11.7 -0.3,-3.4 -0.3,-6.7 -0.1,-10.1 0.4,-6.9 0.8,-13.8 0.3,-20.6 -0.5,-6.8 -0.4,-13.5 -0.3,-20.3 0.2,-11.4 0.6,-22.9 0.4,-34.3 -0.1,-5.5 -0.7,-11 -0.5,-16.5 0,-0.1 0,-0.2 0,-0.2 -0.9,-2.3 -1,-4.5 -0.2,-6.8 0.4,-1.1 -0.2,-1.6 -1.6,-1.6 -3.3,-0.1 -6.6,0.1 -9.9,0.5 -4.9,0.5 -9.6,1.8 -14.4,2.6 -3.2,0.5 -5.7,-0.5 -7.7,-2.9 -2.4,-3 -3.6,-6.4 -4.1,-10.2 -0.8,-7.2 -0.4,-14.5 -0.4,-21.7 0,-2.3 1.3,-4.3 3,-6 0.5,-0.5 1.1,-0.6 1.8,-0.7 8,-1.5 16.1,-2.3 24.1,-2.9 5.7,-0.5 11.4,-1.3 17,-2.2 17,-2.7 33.8,-6.4 50.7,-9.5 5.5,-1 11,-1.8 16.6,-2.7 0.3,0 0.5,-0.2 0.8,-0.3 1.9,-0.3 4,-0.3 6.1,-0.3 z m -113.4,33.6 c 0.4,-0.2 0.6,-0.5 0.6,-0.9 0,-0.3 -0.2,-0.5 -0.5,-0.5 -0.5,0.1 -0.6,0.5 -0.6,0.9 0.1,0.3 0.1,0.5 0.5,0.5 z"
   id="path347"
   style="fill:#f15727" />

		</g>

	</g>

</g>
</svg>
