<?xml version="1.0" encoding="UTF-8" standalone="no"?>
<!-- Created with Inkscape (http://www.inkscape.org/) -->

<svg
   width="20.455248mm"
   height="19.699699mm"
   viewBox="0 0 20.455248 19.699699"
   version="1.1"
   id="svg1"
   inkscape:version="1.3.2 (091e20e, 2023-11-25)"
   sodipodi:docname="airdrop.svg"
   xmlns:inkscape="http://www.inkscape.org/namespaces/inkscape"
   xmlns:sodipodi="http://sodipodi.sourceforge.net/DTD/sodipodi-0.dtd"
   xmlns="http://www.w3.org/2000/svg"
   xmlns:svg="http://www.w3.org/2000/svg">
  <sodipodi:namedview
     id="namedview1"
     pagecolor="#ffffff"
     bordercolor="#666666"
     borderopacity="1.0"
     inkscape:showpageshadow="2"
     inkscape:pageopacity="0.0"
     inkscape:pagecheckerboard="0"
     inkscape:deskcolor="#d1d1d1"
     inkscape:document-units="mm"
     inkscape:zoom="0.2102413"
     inkscape:cx="76.103029"
     inkscape:cy="16.647538"
     inkscape:window-width="736"
     inkscape:window-height="480"
     inkscape:window-x="0"
     inkscape:window-y="25"
     inkscape:window-maximized="0"
     inkscape:current-layer="layer1" />
  <defs
     id="defs1" />
  <g
     inkscape:label="Layer 1"
     inkscape:groupmode="layer"
     id="layer1"
     transform="translate(-84.137501,-143.66875)">
    <g
       id="g11368"
       transform="matrix(0.24776134,0,0,0.24776134,249.05787,347.43498)">
      <path
         id="path3821"
         style="fill:#ff4401;stroke-width:3.4698;stroke-linecap:round;stroke-linejoin:round;paint-order:markers stroke fill"
         d="m -637.61808,-820.31858 c 60.06542,-16.41118 76.51978,67.98521 18.74723,76.68222 -58.30231,8.77676 -59.1904,-65.63227 -18.74723,-76.68222 z"
         sodipodi:nodetypes="sss" />
      <path
         style="color:#000000;fill:#ffffff;stroke-linecap:round;stroke-linejoin:round;-inkscape-stroke:none"
         d="m -624.39258,-817.65625 c -9.40889,0.14571 -15.43608,3.98285 -18.97851,8.15234 -1.77122,2.08475 -2.93313,4.2426 -3.63868,6.07422 -0.69328,1.7998 -0.96415,3.16334 -0.86328,4.20117 a 1.0001,1.0001 0 0 0 1.58985,0.75391 c 2.08745,-1.61736 4.09169,-2.14913 5.81445,-1.9668 1.72276,0.18233 3.20439,1.07878 4.26367,2.53711 a 1.0001,1.0001 0 0 0 1.4961,0.13868 c 2.63966,-2.49013 5.05304,-3.01394 7.05664,-2.71875 2.00359,0.29518 3.64082,1.50736 4.42968,2.62109 a 1.0001,1.0001 0 0 0 1.48047,0.16992 c 2.54413,-2.2564 4.67393,-2.59189 6.40625,-2.2793 1.73232,0.3126 3.11922,1.38727 3.7793,2.13477 a 1.0001,1.0001 0 0 0 1.29883,0.17383 c 2.77184,-1.82119 4.64776,-1.74638 5.89062,-1.34961 1.24287,0.39676 1.81641,1.12695 1.81641,1.12695 a 1.0001,1.0001 0 0 0 1.78125,-0.62305 c 0,-1.00591 -0.29873,-2.57107 -1.02149,-4.52734 -0.72275,-1.95627 -1.88037,-4.24804 -3.64257,-6.43945 -3.52441,-4.38283 -9.53124,-8.32569 -18.95899,-8.17969 z m 0.0312,2 c 8.86674,-0.13732 14.16319,3.44678 17.36914,7.43359 1.60298,1.99341 2.6665,4.09867 3.32422,5.87891 0.28914,0.78261 0.25172,1.06623 0.39453,1.68555 -0.18878,-0.0824 -0.27455,-0.19412 -0.48633,-0.26172 -1.66074,-0.53017 -4.07195,-0.42774 -6.92773,1.23047 -0.98049,-0.92549 -2.35886,-1.90295 -4.29297,-2.25196 -2.11425,-0.38151 -4.70927,0.16275 -7.36133,2.22266 -1.18417,-1.2806 -2.83314,-2.42231 -5.01757,-2.74414 -2.39394,-0.35269 -5.22564,0.37515 -7.99415,2.67773 -1.31364,-1.40949 -2.964,-2.43897 -4.90625,-2.64453 -1.66822,-0.17656 -3.45738,0.3716 -5.24023,1.29102 0.11756,-0.57617 0.0607,-0.80009 0.35742,-1.57031 0.62996,-1.6354 1.68615,-3.60646 3.29492,-5.5 3.21755,-3.7871 8.60074,-7.30966 17.48633,-7.44727 z"
         id="path3818" />
      <path
         style="color:#000000;fill:#ffffff;stroke-linecap:round;stroke-linejoin:round;-inkscape-stroke:none"
         d="m -646.95117,-800.26367 a 1,1 0 0 0 -0.68945,0.33203 1,1 0 0 0 0.0781,1.41211 c 0,0 5.28447,4.72991 10.80078,10.32031 2.75816,2.7952 5.57264,5.80528 7.79883,8.52539 2.22619,2.72012 3.84808,5.22846 4.23437,6.62891 a 1,1 0 0 0 1.23047,0.69726 1,1 0 0 0 0.69727,-1.23046 c -0.57504,-2.08472 -2.32407,-4.56378 -4.61524,-7.36329 -2.29116,-2.7995 -5.13755,-5.84039 -7.92187,-8.66211 -5.56864,-5.64342 -10.89063,-10.40625 -10.89063,-10.40625 a 1,1 0 0 0 -0.72265,-0.2539 z"
         id="path3815" />
      <path
         style="color:#000000;fill:#ffffff;stroke-linecap:round;stroke-linejoin:round;-inkscape-stroke:none"
         d="m -635.38672,-799.49219 a 1,1 0 0 0 -0.70898,0.28516 1,1 0 0 0 -0.0137,1.41601 c 0,0 3.24007,3.29843 6.2871,8.03516 3.04704,4.73673 5.80966,10.86631 5.06836,16.30859 a 1,1 0 0 0 0.85547,1.12696 1,1 0 0 0 1.125,-0.85742 c 0.85484,-6.27584 -2.19955,-12.73595 -5.36718,-17.66016 -3.16764,-4.92421 -6.54102,-8.35547 -6.54102,-8.35547 a 1,1 0 0 0 -0.70508,-0.29883 z"
         id="path3812" />
      <path
         style="color:#000000;fill:#ffffff;stroke-linecap:round;stroke-linejoin:round;-inkscape-stroke:none"
         d="m -622.35156,-799.43945 a 1,1 0 0 0 -1.05274,0.94531 l -1.35742,25.12891 a 1,1 0 0 0 0.94336,1.05273 1,1 0 0 0 1.05274,-0.94531 l 1.35742,-25.12891 a 1,1 0 0 0 -0.94336,-1.05273 z"
         id="path3809" />
      <path
         style="color:#000000;fill:#ffffff;stroke-linecap:round;stroke-linejoin:round;-inkscape-stroke:none"
         d="m -610.12109,-799.22656 a 1,1 0 0 0 -1.41407,0.041 c 0,0 -10.68533,11.25329 -13.21289,25.70118 a 1,1 0 0 0 0.8125,1.1582 1,1 0 0 0 1.15625,-0.8125 c 2.39198,-13.67289 12.69922,-24.67578 12.69922,-24.67578 a 1,1 0 0 0 -0.041,-1.41211 z"
         id="path3806" />
      <path
         style="color:#000000;fill:#ffffff;stroke-linecap:round;stroke-linejoin:round;-inkscape-stroke:none"
         d="m -601.70898,-799.50977 a 1,1 0 0 0 -0.72266,0.25 c 0,0 -12.17359,10.77302 -22.1582,25.38477 a 1,1 0 0 0 0.26172,1.38867 1,1 0 0 0 1.39062,-0.26172 c 9.81559,-14.3644 21.83008,-25.01367 21.83008,-25.01367 a 1,1 0 0 0 0.0859,-1.41211 1,1 0 0 0 -0.6875,-0.33594 z"
         id="path3803" />
      <g
         id="rect9570-6"
         transform="rotate(4.2573933)">
        <path
           style="color:#000000;fill:#ffffff;stroke-width:2;stroke-linecap:round;stroke-linejoin:round;-inkscape-stroke:none"
           d="m -686.03577,-724.44537 h 12.38012 v 9.7058 h -12.38012 z"
           id="path3800" />
        <path
           style="color:#000000;fill:#ffffff;stroke-linecap:round;stroke-linejoin:round;-inkscape-stroke:none"
           d="m -686.03516,-725.44531 a 1.0001,1.0001 0 0 0 -1,1 v 9.70508 a 1.0001,1.0001 0 0 0 1,1 h 12.37891 a 1.0001,1.0001 0 0 0 1,-1 v -9.70508 a 1.0001,1.0001 0 0 0 -1,-1 z m 1,2 h 10.37891 v 7.70508 h -10.37891 z"
           id="path3797" />
      </g>
      <path
         style="color:#000000;fill:#000000;stroke-linecap:round;stroke-linejoin:round;-inkscape-stroke:none"
         d="m -648.07422,-774.48828 a 1,1 0 0 0 -1.26562,0.63086 1,1 0 0 0 0.63281,1.26562 l 12.62305,4.22266 a 1,1 0 0 0 1.26562,-0.63086 1,1 0 0 0 -0.63086,-1.26562 z"
         id="path3794" />
      <path
         style="color:#000000;fill:#000000;stroke-linecap:round;stroke-linejoin:round;-inkscape-stroke:none"
         d="m -636.29297,-761.74219 a 1,1 0 0 0 -0.73633,0.20703 l -7.41406,5.82227 a 1,1 0 0 0 -0.16992,1.4043 1,1 0 0 0 1.4043,0.16797 l 7.41406,-5.82227 a 1,1 0 0 0 0.16992,-1.4043 1,1 0 0 0 -0.66797,-0.375 z"
         id="path3791" />
      <path
         style="color:#000000;fill:#000000;stroke-linecap:round;stroke-linejoin:round;-inkscape-stroke:none"
         d="m -624.83789,-758.58789 a 1,1 0 0 0 -1.22266,0.71094 l -3.54492,13.37109 a 1,1 0 0 0 0.71094,1.22266 1,1 0 0 0 1.22266,-0.71094 l 3.54492,-13.37109 a 1,1 0 0 0 -0.71094,-1.22266 z"
         id="path3788" />
      <path
         style="color:#000000;fill:#000000;stroke-linecap:round;stroke-linejoin:round;-inkscape-stroke:none"
         d="m -614.69336,-759.91016 a 1,1 0 0 0 -0.006,1.41407 l 6.56836,6.62695 a 1,1 0 0 0 1.41406,0.006 1,1 0 0 0 0.006,-1.41406 l -6.56836,-6.62696 a 1,1 0 0 0 -1.41406,-0.006 z"
         id="path3785" />
      <path
         style="color:#000000;fill:#000000;stroke-linecap:round;stroke-linejoin:round;-inkscape-stroke:none"
         d="m -599.36914,-768.44531 -11.99805,0.36328 a 1,1 0 0 0 -0.96875,1.0293 1,1 0 0 0 1.0293,0.96875 l 11.99805,-0.36133 a 1,1 0 0 0 0.9707,-1.0293 1,1 0 0 0 -1.03125,-0.9707 z"
         id="path3782" />
    </g>
  </g>
</svg>
