<?xml version="1.0" encoding="UTF-8"?>
<svg xmlns="http://www.w3.org/2000/svg" version="1.1" viewBox="0 0 200 200">
  <!-- Generator: Adobe Illustrator 28.7.1, SVG Export Plug-In . SVG Version: 1.2.0 Build 142)  -->
  <g>
    <g id="Calque_3">
      <g id="fléche">
        <g id="Fléche">
          <path class="cls-1" d="M195.8,102.5v-.72c0-.24,0-.48-.24-.72,0-.24-.24-.48-.24-.72s-.24-.48-.24-.72-.24-.48-.24-.48c-.24-.24-.24-.48-.48-.72v-.24l-.24-.24-.24-.24-67.82-58.2c-2.16-1.68-4.81-2.16-7.46-1.2-2.41,1.2-4.09,3.61-4.09,6.25v30.3H10.37c-3.85,0-6.97,3.13-6.97,6.97v43.05c0,3.85,3.13,6.97,6.97,6.97h104.62v30.3c0,2.65,1.68,5.05,4.09,6.25.96.48,1.92.72,2.89.72,1.68,0,3.13-.48,4.57-1.68l67.34-58.68c.24,0,.24-.24.48-.48l.24-.24v-.24c.24-.24.24-.48.48-.72,0-.24.24-.24.24-.48s.24-.48.24-.72.24-.48.24-.72,0-.48.24-.72v-1.44c-.24,0-.24-.24-.24-.48Z"/>
        </g>
      </g>
    </g>
  </g>
</svg>