<?xml version="1.0" encoding="UTF-8"?><svg id="Calque_1" xmlns="http://www.w3.org/2000/svg" viewBox="0 0 1080 1920"><defs></defs><path d="M84.63,40.68c-11.54-2.23-23.18-3.77-34.66-6.39C28.97,29.48,9.69,21.02-8.12,8.95-36-9.94-64.01-28.64-91.95-47.44c-1.8-1.21-3.59-2.49-5.15-3.98-3.88-3.72-4.55-7.61-2.25-11.73,2.5-4.46,6.84-6.4,11.79-5.22,4.34,1.03,8.23,3.52,12.77,4.16,.63-1.88-.86-2.63-1.67-3.59-5.28-6.29-10.65-12.52-15.95-18.8-.9-1.06-1.72-2.2-2.45-3.38-3.89-6.34-3.64-12.23,.65-16.15,3.81-3.48,9.54-3.11,15.33,1.22,2.08,1.55,4.12,3.18,6.03,4.98,1.69,1.59,3.01,3.95,6.39,4.5-1.06-4.25-3.39-7.58-5.17-11.06-2.11-4.14-4.75-8-7.22-11.95-1.33-2.13-2.3-4.39-2.83-6.84-1.41-6.51,1.44-13.06,6.9-15.87,5.22-2.68,10.96-1.17,15.44,4.81,5.76,7.69,11.09,15.71,16.61,23.58,.52,.74,1.08,1.45,2.3,1.92-1.29-4.92-2.59-9.83-3.87-14.75-1.98-7.62,.5-13.15,6.96-15.51,6.33-2.31,13.04,.54,16.24,7.11,5.05,10.35,8.23,21.39,11.92,32.25,1.16,3.41,2.32,6.83,3.85,11.33,1.62-3.71,1.91-6.41,2.24-9.09,.43-3.57,1.19-7.02,3.28-10.07,2.9-4.23,6.84-6.26,11.93-5.65,5.08,.61,8.03,3.88,9.32,8.58,2.31,8.43,2.41,17.18,3.19,25.81,.72,7.92,3.08,15.12,7.22,21.87,2.35,3.84,5.61,5.97,9.98,6.88,22.23,4.61,44.65,5.46,67.13,2.76,55.63-6.68,104.62-28.73,147.4-64.75,4.5-3.79,8.73-7.93,13-11.99,2.25-2.14,4.68-3.55,7.28-1.02,2.76,2.7,.9,5.07-1.23,7.15-28.01,27.37-60.45,47.85-96.85,62.11-25.6,10.03-52.12,16.14-79.58,18.03-20.87,1.44-41.56,.03-61.93-4.72-8.81-2.05-12.54-9.5-16.14-16.84-5.51-11.23-4.72-23.58-6.33-35.51-.29-2.15-.46-4.32-.9-6.44-.32-1.55-1.08-3.02-2.91-3.22-1.98-.22-3.28,1.01-3.97,2.64-.71,1.7-1.19,3.53-1.51,5.34-1.59,9.01-3.14,18.02-4.62,27.05-.44,2.68-1.29,4.95-4.43,5.03-3.1,.08-4-2.19-4.79-4.74-5.88-19.1-11.85-38.17-19.1-56.81-.5-1.28-1.24-2.52-2.1-3.6-1.27-1.6-2.94-2.24-4.95-1.27-1.86,.9-2.28,2.5-1.8,4.31,1.11,4.19,2.36,8.34,3.51,12.51,2.53,9.11,4.99,18.24,7.56,27.35,.77,2.73,1.13,5.4-1.79,6.91-3.08,1.59-4.89-.59-6.47-2.86-10.08-14.52-20.16-29.05-30.24-43.57-.53-.76-.97-1.62-1.61-2.28-1.55-1.58-2.85-4.2-5.7-2.44-2.69,1.66-3.09,4.38-1.76,6.95,2.27,4.4,4.86,8.64,7.43,12.87,7.73,12.72,15.52,25.4,23.29,38.1,.49,.79,.93,1.61,1.4,2.42,1.23,2.11,1.41,4.16-.61,5.86-2.01,1.68-4.09,1.19-5.92-.34-4.89-4.07-9.73-8.19-14.58-12.32-6.97-5.93-13.88-11.94-20.92-17.78-1.55-1.29-3.66-3.76-5.54-1.9-1.73,1.72,.29,4.03,1.67,5.68,9.95,11.9,19.93,23.77,29.93,35.62,1.75,2.07,3.76,4.16,1.84,6.94-1.88,2.72-4.57,1.9-7.16,.93-7.99-2.99-15.97-5.98-24-8.87-1.61-.58-3.84-2.55-4.97-.5-1.35,2.45,1.78,3.22,3.22,4.2,19.49,13.28,39.08,26.42,58.61,39.64C-17.16-7.23-4.94,.73,7.42,8.48c19.64,12.31,41.61,17.63,64.04,21.26,49.25,7.97,97.37,2.5,144.61-12.89,33.11-10.79,64.06-25.92,92.87-45.47,2.64-1.79,5.46-3.08,7.66,.29,2.07,3.17-.2,5.16-2.67,6.82C281.19,.34,246.13,17.3,208.29,28.31c-27.68,8.05-55.9,12.93-84.79,13.54-.45,0-.89,.23-1.34,.35-12.51-.5-25.02-1.01-37.53-1.51Z"/><g><g><path d="M145.07,338.37c-11.54-2.23-23.18-3.77-34.66-6.39-21-4.81-40.27-13.26-58.09-25.33-27.88-18.89-55.89-37.59-83.83-56.4-1.8-1.21-3.59-2.49-5.15-3.98-3.88-3.72-4.55-7.61-2.25-11.73,2.5-4.46,6.84-6.4,11.79-5.22,4.34,1.03,8.23,3.52,12.77,4.16,.63-1.88-.86-2.63-1.67-3.59-5.28-6.29-10.65-12.52-15.95-18.8-.9-1.06-1.72-2.2-2.45-3.38-3.89-6.34-3.64-12.23,.65-16.15,3.81-3.48,9.54-3.11,15.33,1.22,2.08,1.55,4.12,3.18,6.03,4.98,1.69,1.59,3.01,3.95,6.39,4.5-1.06-4.25-3.39-7.58-5.17-11.06-2.11-4.14-4.75-8-7.22-11.95-1.33-2.13-2.3-4.39-2.83-6.84-1.41-6.51,1.44-13.06,6.9-15.87,5.22-2.68,10.96-1.17,15.44,4.81,5.76,7.69,11.09,15.71,16.61,23.58,.52,.74,1.08,1.45,2.3,1.92-1.29-4.92-2.59-9.83-3.87-14.75-1.98-7.62,.5-13.15,6.96-15.51,6.33-2.31,13.04,.54,16.24,7.11,5.05,10.35,8.23,21.39,11.92,32.25,1.16,3.41,2.32,6.83,3.85,11.33,1.62-3.71,1.91-6.41,2.24-9.09,.43-3.57,1.19-7.02,3.28-10.07,2.9-4.23,6.84-6.26,11.93-5.65,5.08,.61,8.03,3.88,9.32,8.58,2.31,8.43,2.41,17.18,3.19,25.81,.72,7.92,3.08,15.12,7.22,21.87,2.35,3.84,5.61,5.97,9.98,6.88,22.23,4.61,44.65,5.46,67.13,2.76,55.63-6.68,104.62-28.73,147.4-64.75,4.5-3.79,8.73-7.93,13-11.99,2.25-2.14,4.68-3.55,7.28-1.02,2.76,2.7,.9,5.07-1.23,7.15-28.01,27.37-60.45,47.85-96.85,62.11-25.6,10.03-52.12,16.14-79.58,18.03-20.87,1.44-41.56,.03-61.93-4.72-8.81-2.05-12.54-9.5-16.14-16.84-5.51-11.23-4.72-23.58-6.33-35.51-.29-2.15-.46-4.32-.9-6.44-.32-1.55-1.08-3.02-2.91-3.22-1.98-.22-3.28,1.01-3.97,2.64-.71,1.7-1.19,3.53-1.51,5.34-1.59,9.01-3.14,18.02-4.62,27.05-.44,2.68-1.29,4.95-4.43,5.03-3.1,.08-4-2.19-4.79-4.74-5.88-19.1-11.85-38.17-19.1-56.81-.5-1.28-1.24-2.52-2.1-3.6-1.27-1.6-2.94-2.24-4.95-1.27-1.86,.9-2.28,2.5-1.8,4.31,1.11,4.19,2.36,8.34,3.51,12.51,2.53,9.11,4.99,18.24,7.56,27.35,.77,2.73,1.13,5.4-1.79,6.91-3.08,1.59-4.89-.59-6.47-2.86-10.08-14.52-20.16-29.05-30.24-43.57-.53-.76-.97-1.62-1.61-2.28-1.55-1.58-2.85-4.2-5.7-2.44-2.69,1.66-3.09,4.38-1.76,6.95,2.27,4.4,4.86,8.64,7.43,12.87,7.73,12.72,15.52,25.4,23.29,38.1,.49,.79,.93,1.61,1.4,2.42,1.23,2.11,1.41,4.16-.61,5.86-2.01,1.68-4.09,1.19-5.92-.34-4.89-4.07-9.73-8.19-14.58-12.32-6.97-5.93-13.88-11.94-20.92-17.78-1.55-1.29-3.66-3.76-5.54-1.9-1.73,1.72,.29,4.03,1.67,5.68,9.95,11.9,19.93,23.77,29.93,35.62,1.75,2.07,3.76,4.16,1.84,6.94-1.88,2.72-4.57,1.9-7.16,.93-7.99-2.99-15.97-5.98-24-8.87-1.61-.58-3.84-2.55-4.97-.5-1.35,2.45,1.78,3.22,3.22,4.2,19.49,13.28,39.08,26.42,58.61,39.64,12.08,8.18,24.3,16.13,36.66,23.88,19.64,12.31,41.61,17.63,64.04,21.26,49.25,7.97,97.37,2.5,144.61-12.89,33.11-10.79,64.06-25.92,92.87-45.47,2.64-1.79,5.46-3.08,7.66,.29,2.07,3.17-.2,5.16-2.67,6.82-32.74,21.85-67.8,38.81-105.64,49.82-27.68,8.05-55.9,12.93-84.79,13.54-.45,0-.89,.23-1.34,.35-12.51-.5-25.02-1.01-37.53-1.51Z"/><path d="M123.89,157.21c.1-2.91,.14-5.82,.32-8.72,.18-3.01,1.68-4.8,4.87-5.06,3.26-.27,5.06,1.47,5.52,4.33,.58,3.62,.64,7.32,.92,10.99-.04,5.09-.03,10.19-.13,15.29-.1,5.33-1.63,6.86-7.03,6.87-4.95,0-9.91-.15-14.86-.34-3.29-.12-4.84,1-4.58,4.61,.31,4.31,.14,8.66,.12,12.99-.02,3.68-2.13,5.42-5.6,5.33-3.42-.08-4.94-2.38-5.02-5.53-.2-7.43-.24-14.87-.34-22.31-.07-4.8,3.12-6.09,7.03-6.15,4.79-.07,9.6,.05,14.37,.38,3.71,.26,5.66-.7,5.02-4.86-.4-2.58-.41-5.22-.59-7.83Z"/><path d="M42.03,142.36c-1.26-5.78,1.9-10.82,7.46-11.93,5.21-1.03,10.48,2.35,11.67,7.49,1.2,5.2-2.44,10.9-7.67,11.99-5.39,1.12-10.28-2.1-11.47-7.55Z"/></g><g><path d="M992.57,166.29c-11.54-2.23-23.18-3.77-34.66-6.39-21-4.81-40.27-13.26-58.09-25.33-27.88-18.89-55.89-37.59-83.83-56.4-1.8-1.21-3.59-2.49-5.15-3.98-3.88-3.72-4.55-7.61-2.25-11.73,2.5-4.46,6.84-6.4,11.79-5.22,4.34,1.03,8.23,3.52,12.77,4.16,.63-1.88-.86-2.63-1.67-3.59-5.28-6.29-10.65-12.52-15.95-18.8-.9-1.06-1.72-2.2-2.45-3.38-3.89-6.34-3.64-12.23,.65-16.15,3.81-3.48,9.54-3.11,15.33,1.22,2.08,1.55,4.12,3.18,6.03,4.98,1.69,1.59,3.01,3.95,6.39,4.5-1.06-4.25-3.39-7.58-5.17-11.06-2.11-4.14-4.75-8-7.22-11.95-1.33-2.13-2.3-4.39-2.83-6.84-1.41-6.51,1.44-13.06,6.9-15.87,5.22-2.68,10.96-1.17,15.44,4.81,5.76,7.69,11.09,15.71,16.61,23.58,.52,.74,1.08,1.45,2.3,1.92-1.29-4.92-2.59-9.83-3.87-14.75-1.98-7.62,.5-13.15,6.96-15.51,6.33-2.31,13.04,.54,16.24,7.11,5.05,10.35,8.23,21.39,11.92,32.25,1.16,3.41,2.32,6.83,3.85,11.33,1.62-3.71,1.91-6.41,2.24-9.09,.43-3.57,1.19-7.02,3.28-10.07,2.9-4.23,6.84-6.26,11.93-5.65,5.08,.61,8.03,3.88,9.32,8.58,2.31,8.43,2.41,17.18,3.19,25.81,.72,7.92,3.08,15.12,7.22,21.87,2.35,3.84,5.61,5.97,9.98,6.88,22.23,4.61,44.65,5.46,67.13,2.76,55.63-6.68,104.62-28.73,147.4-64.75,4.5-3.79,8.73-7.93,13-11.99,2.25-2.14,4.68-3.55,7.28-1.02,2.76,2.7,.9,5.07-1.23,7.15-28.01,27.37-60.45,47.85-96.85,62.11-25.6,10.03-52.12,16.14-79.58,18.03-20.87,1.44-41.56,.03-61.93-4.72-8.81-2.05-12.54-9.5-16.14-16.84-5.51-11.23-4.72-23.58-6.33-35.51-.29-2.15-.46-4.32-.9-6.44-.32-1.55-1.08-3.02-2.91-3.22-1.98-.22-3.28,1.01-3.97,2.64-.71,1.7-1.19,3.53-1.51,5.34-1.59,9.01-3.14,18.02-4.62,27.05-.44,2.68-1.29,4.95-4.43,5.03-3.1,.08-4-2.19-4.79-4.74-5.88-19.1-11.85-38.17-19.1-56.81-.5-1.28-1.24-2.52-2.1-3.6-1.27-1.6-2.94-2.24-4.95-1.27-1.86,.9-2.28,2.5-1.8,4.31,1.11,4.19,2.36,8.34,3.51,12.51,2.53,9.11,4.99,18.24,7.56,27.35,.77,2.73,1.13,5.4-1.79,6.91-3.08,1.59-4.89-.59-6.47-2.86-10.08-14.52-20.16-29.05-30.24-43.57-.53-.76-.97-1.62-1.61-2.28-1.55-1.58-2.85-4.2-5.7-2.44-2.69,1.66-3.09,4.38-1.76,6.95,2.27,4.4,4.86,8.64,7.43,12.87,7.73,12.72,15.52,25.4,23.29,38.1,.49,.79,.93,1.61,1.4,2.42,1.23,2.11,1.41,4.16-.61,5.86-2.01,1.68-4.09,1.19-5.92-.34-4.89-4.07-9.73-8.19-14.58-12.32-6.97-5.93-13.88-11.94-20.92-17.78-1.55-1.29-3.66-3.76-5.54-1.9-1.73,1.72,.29,4.03,1.67,5.68,9.95,11.9,19.93,23.77,29.93,35.62,1.75,2.07,3.76,4.16,1.84,6.94-1.88,2.72-4.57,1.9-7.16,.93-7.99-2.99-15.97-5.98-24-8.87-1.61-.58-3.84-2.55-4.97-.5-1.35,2.45,1.78,3.22,3.22,4.2,19.49,13.28,39.08,26.42,58.61,39.64,12.08,8.18,24.3,16.13,36.66,23.88,19.64,12.31,41.61,17.63,64.04,21.26,49.25,7.97,97.37,2.5,144.61-12.89,33.11-10.79,64.06-25.92,92.87-45.47,2.64-1.79,5.46-3.08,7.66,.29,2.07,3.17-.2,5.16-2.67,6.82-32.74,21.85-67.8,38.81-105.64,49.82-27.68,8.05-55.9,12.93-84.79,13.54-.45,0-.89,.23-1.34,.35-12.51-.5-25.02-1.01-37.53-1.51Z"/><path d="M624,73.46c10.78-2.21,21.45,4.83,23.8,15.7,2.37,10.95-4.89,21.93-15.89,24.04-11,2.11-21.79-4.99-23.79-15.66-2.13-11.36,4.75-21.8,15.88-24.08Zm13.07,18.24c-1-5.24-5.78-8.78-10.74-7.96-4.75,.79-8.35,6.15-7.5,11.2,.84,5.03,5.91,8.66,10.89,7.79,5.1-.88,8.35-5.77,7.35-11.03Z"/><path d="M971.39-14.86c.1-2.91,.14-5.82,.32-8.72,.18-3.01,1.68-4.8,4.87-5.06,3.26-.27,5.06,1.47,5.52,4.33,.58,3.62,.64,7.32,.92,10.99-.04,5.09-.03,10.19-.13,15.29-.1,5.33-1.63,6.86-7.03,6.87-4.95,0-9.91-.15-14.86-.34-3.29-.12-4.84,1-4.58,4.61,.31,4.31,.14,8.66,.12,12.99-.02,3.68-2.13,5.42-5.6,5.33-3.42-.08-4.94-2.38-5.02-5.53-.2-7.43-.24-14.87-.34-22.31-.07-4.8,3.12-6.09,7.03-6.15,4.79-.07,9.6,.05,14.37,.38,3.71,.26,5.66-.7,5.02-4.86-.4-2.58-.41-5.22-.59-7.83Z"/><path d="M635.09,34.84c1.24,6.4-2.92,12.75-9.17,13.98-6.14,1.21-12.7-3.2-13.94-9.37-1.3-6.47,2.75-12.48,9.32-13.8,6.68-1.34,12.51,2.54,13.79,9.18Z"/><path d="M656.47,242.71c9.75-6.55,19.88-12.51,29.43-19.41,17.46-12.61,31.91-27.91,43.61-45.98,18.3-28.27,36.8-56.41,55.2-84.62,1.18-1.81,2.33-3.69,3.19-5.67,2.12-4.94,1.22-8.79-2.5-11.67-4.04-3.13-8.8-3.22-12.89-.21-3.59,2.65-6.21,6.45-10.13,8.81-1.31-1.48-.24-2.76,.13-3.96,2.41-7.86,4.92-15.68,7.36-23.53,.41-1.33,.72-2.7,.93-4.07,1.11-7.35-1.42-12.68-6.9-14.62-4.87-1.72-10,.86-13.64,7.11-1.31,2.24-2.55,4.53-3.61,6.94-.94,2.13-1.23,4.81-4.13,6.64-.68-4.32,.17-8.3,.44-12.2,.33-4.63,1.26-9.22,1.99-13.82,.4-2.48,.41-4.94-.06-7.4-1.24-6.54-6.42-11.47-12.54-11.93-5.85-.44-10.55,3.2-12.34,10.45-2.3,9.33-4.09,18.79-6.1,28.19-.19,.88-.43,1.75-1.37,2.66-.73-5.03-1.45-10.06-2.19-15.09-1.14-7.79-5.59-11.91-12.46-11.56-6.73,.34-11.79,5.58-12.18,12.89-.61,11.49,.76,22.91,1.6,34.34,.26,3.6,.53,7.19,.87,11.93-2.94-2.79-4.26-5.15-5.61-7.5-1.79-3.12-3.83-6-6.95-7.99-4.32-2.76-8.74-3.09-13.19-.55-4.44,2.54-5.88,6.7-5.24,11.53,1.16,8.67,4.48,16.76,7.13,25.01,2.43,7.58,3.06,15.13,1.88,22.95-.67,4.45-2.84,7.69-6.51,10.23-18.68,12.91-38.99,22.44-60.74,28.72-53.83,15.54-107.54,14.35-160.97-2.14-5.63-1.74-11.13-3.9-16.64-5.97-2.91-1.1-5.69-1.45-7.1,1.9-1.49,3.56,1.15,5.02,3.92,6.11,36.47,14.28,74.33,20.48,113.41,19.42,27.49-.75,54.29-5.46,80.31-14.43,19.78-6.82,38.28-16.18,55.19-28.5,7.31-5.33,7.85-13.64,8.3-21.8,.69-12.49-4.86-23.55-8.02-35.16-.57-2.09-1.26-4.16-1.68-6.28-.31-1.55-.18-3.2,1.43-4.1,1.74-.98,3.42-.35,4.68,.89,1.32,1.28,2.47,2.79,3.47,4.33,4.98,7.67,9.92,15.37,14.8,23.11,1.45,2.3,3.12,4.05,6.04,2.9,2.89-1.14,2.83-3.57,2.56-6.24-2.03-19.88-3.98-39.77-4.57-59.76-.04-1.38,.16-2.81,.52-4.14,.54-1.97,1.83-3.21,4.06-3.1,2.07,.1,3.08,1.42,3.34,3.26,.61,4.29,1.08,8.6,1.64,12.89,1.23,9.38,2.52,18.75,3.7,28.13,.36,2.82,1.07,5.41,4.34,5.67,3.45,.27,4.27-2.45,4.84-5.16,3.62-17.3,7.24-34.61,10.86-51.91,.19-.91,.26-1.87,.59-2.72,.81-2.06,.99-4.98,4.29-4.47,3.12,.48,4.55,2.83,4.34,5.72-.37,4.94-1.11,9.85-1.82,14.75-2.16,14.73-4.39,29.44-6.59,44.17-.14,.92-.23,1.85-.35,2.77-.31,2.42,.32,4.38,2.85,5.16,2.51,.77,4.23-.5,5.32-2.62,2.92-5.65,5.77-11.34,8.62-17.03,4.1-8.18,8.12-16.4,12.33-24.53,.93-1.79,1.9-4.89,4.36-3.91,2.27,.91,1.31,3.82,.68,5.89-4.53,14.84-9.08,29.66-13.67,44.48-.8,2.59-1.84,5.29,1.01,7.11,2.79,1.77,4.95-.03,6.95-1.93,6.19-5.87,12.38-11.74,18.64-17.52,1.26-1.16,2.54-3.84,4.38-2.4,2.2,1.73-.39,3.66-1.33,5.12-12.77,19.83-25.68,39.57-38.51,59.36-7.93,12.24-16.08,24.33-24.44,36.29-13.29,19-31.44,32.47-50.68,44.56-42.24,26.55-88.69,40.28-138.18,44.52-34.7,2.98-69.1,1.11-103.25-5.65-3.13-.62-6.23-.71-6.94,3.25-.67,3.73,2.2,4.68,5.12,5.24,38.67,7.36,77.57,9.29,116.7,4.67,28.63-3.38,56.52-9.89,83.36-20.6,.42-.17,.91-.14,1.37-.2,11.32-5.34,22.65-10.69,33.97-16.03Z"/></g></g><g><g><path d="M205.52,636.06c-11.54-2.23-23.18-3.77-34.66-6.39-21-4.81-40.27-13.26-58.09-25.33-27.88-18.89-55.89-37.59-83.83-56.4-1.8-1.21-3.59-2.49-5.15-3.98-3.88-3.72-4.55-7.61-2.25-11.73,2.5-4.46,6.84-6.4,11.79-5.22,4.34,1.03,8.23,3.52,12.77,4.16,.63-1.88-.86-2.63-1.67-3.59-5.28-6.29-10.65-12.52-15.95-18.8-.9-1.06-1.72-2.2-2.45-3.38-3.89-6.34-3.64-12.23,.65-16.15,3.81-3.48,9.54-3.11,15.33,1.22,2.08,1.55,4.12,3.18,6.03,4.98,1.69,1.59,3.01,3.95,6.39,4.5-1.06-4.25-3.39-7.58-5.17-11.06-2.11-4.14-4.75-8-7.22-11.95-1.33-2.13-2.3-4.39-2.83-6.84-1.41-6.51,1.44-13.06,6.9-15.87,5.22-2.68,10.96-1.17,15.44,4.81,5.76,7.69,11.09,15.71,16.61,23.58,.52,.74,1.08,1.45,2.3,1.92-1.29-4.92-2.59-9.83-3.87-14.75-1.98-7.62,.5-13.15,6.96-15.51,6.33-2.31,13.04,.54,16.24,7.11,5.05,10.35,8.23,21.39,11.92,32.25,1.16,3.41,2.32,6.83,3.85,11.33,1.62-3.71,1.91-6.41,2.24-9.09,.43-3.57,1.19-7.02,3.28-10.07,2.9-4.23,6.84-6.26,11.93-5.65,5.08,.61,8.03,3.88,9.32,8.58,2.31,8.43,2.41,17.18,3.19,25.81,.72,7.92,3.08,15.12,7.22,21.87,2.35,3.84,5.61,5.97,9.98,6.88,22.23,4.61,44.65,5.46,67.13,2.76,55.63-6.68,104.62-28.73,147.4-64.75,4.5-3.79,8.73-7.93,13-11.99,2.25-2.14,4.68-3.55,7.28-1.02,2.76,2.7,.9,5.07-1.23,7.15-28.01,27.37-60.45,47.85-96.85,62.11-25.6,10.03-52.12,16.14-79.58,18.03-20.87,1.44-41.56,.03-61.93-4.72-8.81-2.05-12.54-9.5-16.14-16.84-5.51-11.23-4.72-23.58-6.33-35.51-.29-2.15-.46-4.32-.9-6.44-.32-1.55-1.08-3.02-2.91-3.22-1.98-.22-3.28,1.01-3.97,2.64-.71,1.7-1.19,3.53-1.51,5.34-1.59,9.01-3.14,18.02-4.62,27.05-.44,2.68-1.29,4.95-4.43,5.03-3.1,.08-4-2.19-4.79-4.74-5.88-19.1-11.85-38.17-19.1-56.81-.5-1.28-1.24-2.52-2.1-3.6-1.27-1.6-2.94-2.24-4.95-1.27-1.86,.9-2.28,2.5-1.8,4.31,1.11,4.19,2.36,8.34,3.51,12.51,2.53,9.11,4.99,18.24,7.56,27.35,.77,2.73,1.13,5.4-1.79,6.91-3.08,1.59-4.89-.59-6.47-2.86-10.08-14.52-20.16-29.05-30.24-43.57-.53-.76-.97-1.62-1.61-2.28-1.55-1.58-2.85-4.2-5.7-2.44-2.69,1.66-3.09,4.38-1.76,6.95,2.27,4.4,4.86,8.64,7.43,12.87,7.73,12.72,15.52,25.4,23.29,38.1,.49,.79,.93,1.61,1.4,2.42,1.23,2.11,1.41,4.16-.61,5.86-2.01,1.68-4.09,1.19-5.92-.34-4.89-4.07-9.73-8.19-14.58-12.32-6.97-5.93-13.88-11.94-20.92-17.78-1.55-1.29-3.66-3.76-5.54-1.9-1.73,1.72,.29,4.03,1.67,5.68,9.95,11.9,19.93,23.77,29.93,35.62,1.75,2.07,3.76,4.16,1.84,6.94-1.88,2.72-4.57,1.9-7.16,.93-7.99-2.99-15.97-5.98-24-8.87-1.61-.58-3.84-2.55-4.97-.5-1.35,2.45,1.78,3.22,3.22,4.2,19.49,13.28,39.08,26.42,58.61,39.64,12.08,8.18,24.3,16.13,36.66,23.88,19.64,12.31,41.61,17.63,64.04,21.26,49.25,7.97,97.37,2.5,144.61-12.89,33.11-10.79,64.06-25.92,92.87-45.47,2.64-1.79,5.46-3.08,7.66,.29,2.07,3.17-.2,5.16-2.67,6.82-32.74,21.85-67.8,38.81-105.64,49.82-27.68,8.05-55.9,12.93-84.79,13.54-.45,0-.89,.23-1.34,.35-12.51-.5-25.02-1.01-37.53-1.51Z"/><path d="M184.33,454.91c.1-2.91,.14-5.82,.32-8.72,.18-3.01,1.68-4.8,4.87-5.06,3.26-.27,5.06,1.47,5.52,4.33,.58,3.62,.64,7.32,.92,10.99-.04,5.09-.03,10.19-.13,15.29-.1,5.33-1.63,6.86-7.03,6.87-4.95,0-9.91-.15-14.86-.34-3.29-.12-4.84,1-4.58,4.61,.31,4.31,.14,8.66,.12,12.99-.02,3.68-2.13,5.42-5.6,5.33-3.42-.08-4.94-2.38-5.02-5.53-.2-7.43-.24-14.87-.34-22.31-.07-4.8,3.12-6.09,7.03-6.15,4.79-.07,9.6,.05,14.37,.38,3.71,.26,5.66-.7,5.02-4.86-.4-2.58-.41-5.22-.59-7.83Z"/><path d="M12.79,437.81c2.39-15.26,4.79-30.52,7.18-45.78,.17-1.07,.3-2.15,.46-3.22,.57-3.7,1.95-6.88,6.42-6.22,4.6,.69,4.69,4.41,4.23,7.93-.96,7.21-2.17,14.39-3.21,21.6-1.36,9.48-2.66,18.97-3.99,28.45-.49,2.09-.94,4.19-1.49,6.27-.76,2.86-2.84,3.97-5.61,3.79-3.01-.2-4.4-2.23-4.49-4.97-.08-2.61,.31-5.24,.49-7.85Z"/><path d="M102.47,440.05c-1.26-5.78,1.9-10.82,7.46-11.93,5.21-1.03,10.48,2.35,11.67,7.49,1.2,5.2-2.44,10.9-7.67,11.99-5.39,1.12-10.28-2.1-11.47-7.55Z"/><path d="M-130.58,712.48c9.75-6.55,19.88-12.51,29.43-19.41,17.46-12.61,31.91-27.91,43.61-45.98,18.3-28.27,36.8-56.41,55.2-84.62,1.18-1.81,2.33-3.69,3.19-5.67,2.12-4.94,1.22-8.79-2.5-11.67-4.04-3.13-8.8-3.22-12.89-.21-3.59,2.65-6.21,6.45-10.13,8.81-1.31-1.48-.24-2.76,.13-3.96,2.41-7.86,4.92-15.68,7.36-23.53,.41-1.33,.72-2.7,.93-4.07,1.11-7.35-1.42-12.68-6.9-14.62-4.87-1.72-10,.86-13.64,7.11-1.31,2.24-2.55,4.53-3.61,6.94-.94,2.13-1.23,4.81-4.13,6.64-.68-4.32,.17-8.3,.44-12.2,.33-4.63,1.26-9.22,1.99-13.82,.4-2.48,.41-4.94-.06-7.4-1.24-6.54-6.42-11.47-12.54-11.93-5.85-.44-10.55,3.2-12.34,10.45-2.3,9.33-4.09,18.79-6.1,28.19-.19,.88-.43,1.75-1.37,2.66-.73-5.03-1.45-10.06-2.19-15.09-1.14-7.79-5.59-11.91-12.46-11.56-6.73,.34-11.79,5.58-12.18,12.89-.61,11.49,.76,22.91,1.6,34.34,.26,3.6,.53,7.19,.87,11.93-2.94-2.79-4.26-5.15-5.61-7.5-1.79-3.12-3.83-6-6.95-7.99-4.32-2.76-8.74-3.09-13.19-.55-4.44,2.54-5.88,6.7-5.24,11.53,1.16,8.67,4.48,16.76,7.13,25.01,2.43,7.58,3.06,15.13,1.88,22.95-.67,4.45-2.84,7.69-6.51,10.23-18.68,12.91-38.99,22.44-60.74,28.72-53.83,15.54-107.54,14.35-160.97-2.14-5.63-1.74-11.13-3.9-16.64-5.97-2.91-1.1-5.69-1.45-7.1,1.9-1.49,3.56,1.15,5.02,3.92,6.11,36.47,14.28,74.33,20.48,113.41,19.42,27.49-.75,54.29-5.46,80.31-14.43,19.78-6.82,38.28-16.18,55.19-28.5,7.31-5.33,7.85-13.64,8.3-21.8,.69-12.49-4.86-23.55-8.02-35.16-.57-2.09-1.26-4.16-1.68-6.28-.31-1.55-.18-3.2,1.43-4.1,1.74-.98,3.42-.35,4.68,.89,1.32,1.28,2.47,2.79,3.47,4.33,4.98,7.67,9.92,15.37,14.8,23.11,1.45,2.3,3.12,4.05,6.04,2.9,2.89-1.14,2.83-3.57,2.56-6.24-2.03-19.88-3.98-39.77-4.57-59.76-.04-1.38,.16-2.81,.52-4.14,.54-1.97,1.83-3.21,4.06-3.1,2.07,.1,3.08,1.42,3.34,3.26,.61,4.29,1.08,8.6,1.64,12.89,1.23,9.38,2.52,18.75,3.7,28.13,.36,2.82,1.07,5.41,4.34,5.67,3.45,.27,4.27-2.45,4.84-5.16,3.62-17.3,7.24-34.61,10.86-51.91,.19-.91,.26-1.87,.59-2.72,.81-2.06,.99-4.98,4.29-4.47,3.12,.48,4.55,2.83,4.34,5.72-.37,4.94-1.11,9.85-1.82,14.75-2.16,14.73-4.39,29.44-6.59,44.17-.14,.92-.23,1.85-.35,2.77-.31,2.42,.32,4.38,2.85,5.16,2.51,.77,4.23-.5,5.32-2.62,2.92-5.65,5.77-11.34,8.62-17.03,4.1-8.18,8.12-16.4,12.33-24.53,.93-1.79,1.9-4.89,4.36-3.91,2.27,.91,1.31,3.82,.68,5.89-4.53,14.84-9.08,29.66-13.67,44.48-.8,2.59-1.84,5.29,1.01,7.11,2.79,1.77,4.95-.03,6.95-1.93,6.19-5.87,12.38-11.74,18.64-17.52,1.26-1.16,2.54-3.84,4.38-2.4,2.2,1.73-.39,3.66-1.33,5.12-12.77,19.83-25.68,39.57-38.51,59.36-7.93,12.24-16.08,24.33-24.44,36.29-13.29,19-31.44,32.47-50.68,44.56-42.24,26.55-88.69,40.28-138.18,44.52-34.7,2.98-69.1,1.11-103.25-5.65-3.13-.62-6.23-.71-6.94,3.25-.67,3.73,2.2,4.68,5.12,5.24,38.67,7.36,77.57,9.29,116.7,4.67,28.63-3.38,56.52-9.89,83.36-20.6,.42-.17,.91-.14,1.37-.2,11.32-5.34,22.65-10.69,33.97-16.03Z"/></g><g><path d="M1053.02,463.99c-11.54-2.23-23.18-3.77-34.66-6.39-21-4.81-40.27-13.26-58.09-25.33-27.88-18.89-55.89-37.59-83.83-56.4-1.8-1.21-3.59-2.49-5.15-3.98-3.88-3.72-4.55-7.61-2.25-11.73,2.5-4.46,6.84-6.4,11.79-5.22,4.34,1.03,8.23,3.52,12.77,4.16,.63-1.88-.86-2.63-1.67-3.59-5.28-6.29-10.65-12.52-15.95-18.8-.9-1.06-1.72-2.2-2.45-3.38-3.89-6.34-3.64-12.23,.65-16.15,3.81-3.48,9.54-3.11,15.33,1.22,2.08,1.55,4.12,3.18,6.03,4.98,1.69,1.59,3.01,3.95,6.39,4.5-1.06-4.25-3.39-7.58-5.17-11.06-2.11-4.14-4.75-8-7.22-11.95-1.33-2.13-2.3-4.39-2.83-6.84-1.41-6.51,1.44-13.06,6.9-15.87,5.22-2.68,10.96-1.17,15.44,4.81,5.76,7.69,11.09,15.71,16.61,23.58,.52,.74,1.08,1.45,2.3,1.92-1.29-4.92-2.59-9.83-3.87-14.75-1.98-7.62,.5-13.15,6.96-15.51,6.33-2.31,13.04,.54,16.24,7.11,5.05,10.35,8.23,21.39,11.92,32.25,1.16,3.41,2.32,6.83,3.85,11.33,1.62-3.71,1.91-6.41,2.24-9.09,.43-3.57,1.19-7.02,3.28-10.07,2.9-4.23,6.84-6.26,11.93-5.65,5.08,.61,8.03,3.88,9.32,8.58,2.31,8.43,2.41,17.18,3.19,25.81,.72,7.92,3.08,15.12,7.22,21.87,2.35,3.84,5.61,5.97,9.98,6.88,22.23,4.61,44.65,5.46,67.13,2.76,55.63-6.68,104.62-28.73,147.4-64.75,4.5-3.79,8.73-7.93,13-11.99,2.25-2.14,4.68-3.55,7.28-1.02,2.76,2.7,.9,5.07-1.23,7.15-28.01,27.37-60.45,47.85-96.85,62.11-25.6,10.03-52.12,16.14-79.58,18.03-20.87,1.44-41.56,.03-61.93-4.72-8.81-2.05-12.54-9.5-16.14-16.84-5.51-11.23-4.72-23.58-6.33-35.51-.29-2.15-.46-4.32-.9-6.44-.32-1.55-1.08-3.02-2.91-3.22-1.98-.22-3.28,1.01-3.97,2.64-.71,1.7-1.19,3.53-1.51,5.34-1.59,9.01-3.14,18.02-4.62,27.05-.44,2.68-1.29,4.95-4.43,5.03-3.1,.08-4-2.19-4.79-4.74-5.88-19.1-11.85-38.17-19.1-56.81-.5-1.28-1.24-2.52-2.1-3.6-1.27-1.6-2.94-2.24-4.95-1.27-1.86,.9-2.28,2.5-1.8,4.31,1.11,4.19,2.36,8.34,3.51,12.51,2.53,9.11,4.99,18.24,7.56,27.35,.77,2.73,1.13,5.4-1.79,6.91-3.08,1.59-4.89-.59-6.47-2.86-10.08-14.52-20.16-29.05-30.24-43.57-.53-.76-.97-1.62-1.61-2.28-1.55-1.58-2.85-4.2-5.7-2.44-2.69,1.66-3.09,4.38-1.76,6.95,2.27,4.4,4.86,8.64,7.43,12.87,7.73,12.72,15.52,25.4,23.29,38.1,.49,.79,.93,1.61,1.4,2.42,1.23,2.11,1.41,4.16-.61,5.86-2.01,1.68-4.09,1.19-5.92-.34-4.89-4.07-9.73-8.19-14.58-12.32-6.97-5.93-13.88-11.94-20.92-17.78-1.55-1.29-3.66-3.76-5.54-1.9-1.73,1.72,.29,4.03,1.67,5.68,9.95,11.9,19.93,23.77,29.93,35.62,1.75,2.07,3.76,4.16,1.84,6.94-1.88,2.72-4.57,1.9-7.16,.93-7.99-2.99-15.97-5.98-24-8.87-1.61-.58-3.84-2.55-4.97-.5-1.35,2.45,1.78,3.22,3.22,4.2,19.49,13.28,39.08,26.42,58.61,39.64,12.08,8.18,24.3,16.13,36.66,23.88,19.64,12.31,41.61,17.63,64.04,21.26,49.25,7.97,97.37,2.5,144.61-12.89,33.11-10.79,64.06-25.92,92.87-45.47,2.64-1.79,5.46-3.08,7.66,.29,2.07,3.17-.2,5.16-2.67,6.82-32.74,21.85-67.8,38.81-105.64,49.82-27.68,8.05-55.9,12.93-84.79,13.54-.45,0-.89,.23-1.34,.35-12.51-.5-25.02-1.01-37.53-1.51Z"/><path d="M684.44,371.15c10.78-2.21,21.45,4.83,23.8,15.7,2.37,10.95-4.89,21.93-15.89,24.04-11,2.11-21.79-4.99-23.79-15.66-2.13-11.36,4.75-21.8,15.88-24.08Zm13.07,18.24c-1-5.24-5.78-8.78-10.74-7.96-4.75,.79-8.35,6.15-7.5,11.2,.84,5.03,5.91,8.66,10.89,7.79,5.1-.88,8.35-5.77,7.35-11.03Z"/><path d="M1031.83,282.83c.1-2.91,.14-5.82,.32-8.72,.18-3.01,1.68-4.8,4.87-5.06,3.26-.27,5.06,1.47,5.52,4.33,.58,3.62,.64,7.32,.92,10.99-.04,5.09-.03,10.19-.13,15.29-.1,5.33-1.63,6.86-7.03,6.87-4.95,0-9.91-.15-14.86-.34-3.29-.12-4.84,1-4.58,4.61,.31,4.31,.14,8.66,.12,12.99-.02,3.68-2.13,5.42-5.6,5.33-3.42-.08-4.94-2.38-5.02-5.53-.2-7.43-.24-14.87-.34-22.31-.07-4.8,3.12-6.09,7.03-6.15,4.79-.07,9.6,.05,14.37,.38,3.71,.26,5.66-.7,5.02-4.86-.4-2.58-.41-5.22-.59-7.83Z"/><path d="M860.29,265.73c2.39-15.26,4.79-30.52,7.18-45.78,.17-1.07,.3-2.15,.46-3.22,.57-3.7,1.95-6.88,6.42-6.22,4.6,.69,4.69,4.41,4.23,7.93-.96,7.21-2.17,14.39-3.21,21.6-1.36,9.48-2.66,18.97-3.99,28.45-.49,2.09-.94,4.19-1.49,6.27-.76,2.86-2.84,3.97-5.61,3.79-3.01-.2-4.4-2.23-4.49-4.97-.08-2.61,.31-5.24,.49-7.85Z"/><path d="M797.4,264.64c-3.12-5.25-7.98-9.02-11.7-13.76-2.14-2.72-2.57-5.33,.28-7.73,2.6-2.19,5.1-1.73,7.39,.66,2.24,2.33,4.08,5.06,6.8,6.92,5.33,5.96,10.65,11.93,15.98,17.89,.82,.92,1.73,1.77,2.46,2.76,1.92,2.55,2.1,5.28-.27,7.5-2.42,2.26-5.16,1.88-7.41-.44-3.54-3.66-6.94-7.44-10.38-11.18-.94-1.02-1.73-2.19-3.15-2.61Z"/><path d="M695.53,332.53c1.24,6.4-2.92,12.75-9.17,13.98-6.14,1.21-12.7-3.2-13.94-9.37-1.3-6.47,2.75-12.48,9.32-13.8,6.68-1.34,12.51,2.54,13.79,9.18Z"/><path d="M824.42,232.05c-1.22-4.63-2.46-9.26-3.64-13.9-.78-3.08-.14-5.69,3.16-6.71,3.44-1.07,5.85,.6,6.77,3.86,2.65,9.36,5.15,18.77,7.59,28.19,.93,3.57,.13,6.74-3.93,7.57-4.16,.85-5.62-2.01-6.46-5.55-1.07-4.51-2.41-8.95-3.64-13.42l.14-.04Z"/><path d="M949.97,267.98c-1.26-5.78,1.9-10.82,7.46-11.93,5.21-1.03,10.48,2.35,11.67,7.49,1.2,5.2-2.44,10.9-7.67,11.99-5.39,1.12-10.28-2.1-11.47-7.55Z"/><path d="M716.92,540.4c9.75-6.55,19.88-12.51,29.43-19.41,17.46-12.61,31.91-27.91,43.61-45.98,18.3-28.27,36.8-56.41,55.2-84.62,1.18-1.81,2.33-3.69,3.19-5.67,2.12-4.94,1.22-8.79-2.5-11.67-4.04-3.13-8.8-3.22-12.89-.21-3.59,2.65-6.21,6.45-10.13,8.81-1.31-1.48-.24-2.76,.13-3.96,2.41-7.86,4.92-15.68,7.36-23.53,.41-1.33,.72-2.7,.93-4.07,1.11-7.35-1.42-12.68-6.9-14.62-4.87-1.72-10,.86-13.64,7.11-1.31,2.24-2.55,4.53-3.61,6.94-.94,2.13-1.23,4.81-4.13,6.64-.68-4.32,.17-8.3,.44-12.2,.33-4.63,1.26-9.22,1.99-13.82,.4-2.48,.41-4.94-.06-7.4-1.24-6.54-6.42-11.47-12.54-11.93-5.85-.44-10.55,3.2-12.34,10.45-2.3,9.33-4.09,18.79-6.1,28.19-.19,.88-.43,1.75-1.37,2.66-.73-5.03-1.45-10.06-2.19-15.09-1.14-7.79-5.59-11.91-12.46-11.56-6.73,.34-11.79,5.58-12.18,12.89-.61,11.49,.76,22.91,1.6,34.34,.26,3.6,.53,7.19,.87,11.93-2.94-2.79-4.26-5.15-5.61-7.5-1.79-3.12-3.83-6-6.95-7.99-4.32-2.76-8.74-3.09-13.19-.55-4.44,2.54-5.88,6.7-5.24,11.53,1.16,8.67,4.48,16.76,7.13,25.01,2.43,7.58,3.06,15.13,1.88,22.95-.67,4.45-2.84,7.69-6.51,10.23-18.68,12.91-38.99,22.44-60.74,28.72-53.83,15.54-107.54,14.35-160.97-2.14-5.63-1.74-11.13-3.9-16.64-5.97-2.91-1.1-5.69-1.45-7.1,1.9-1.49,3.56,1.15,5.02,3.92,6.11,36.47,14.28,74.33,20.48,113.41,19.42,27.49-.75,54.29-5.46,80.31-14.43,19.78-6.82,38.28-16.18,55.19-28.5,7.31-5.33,7.85-13.64,8.3-21.8,.69-12.49-4.86-23.55-8.02-35.16-.57-2.09-1.26-4.16-1.68-6.28-.31-1.55-.18-3.2,1.43-4.1,1.74-.98,3.42-.35,4.68,.89,1.32,1.28,2.47,2.79,3.47,4.33,4.98,7.67,9.92,15.37,14.8,23.11,1.45,2.3,3.12,4.05,6.04,2.9,2.89-1.14,2.83-3.57,2.56-6.24-2.03-19.88-3.98-39.77-4.57-59.76-.04-1.38,.16-2.81,.52-4.14,.54-1.97,1.83-3.21,4.06-3.1,2.07,.1,3.08,1.42,3.34,3.26,.61,4.29,1.08,8.6,1.64,12.89,1.23,9.38,2.52,18.75,3.7,28.13,.36,2.82,1.07,5.41,4.34,5.67,3.45,.27,4.27-2.45,4.84-5.16,3.62-17.3,7.24-34.61,10.86-51.91,.19-.91,.26-1.87,.59-2.72,.81-2.06,.99-4.98,4.29-4.47,3.12,.48,4.55,2.83,4.34,5.72-.37,4.94-1.11,9.85-1.82,14.75-2.16,14.73-4.39,29.44-6.59,44.17-.14,.92-.23,1.85-.35,2.77-.31,2.42,.32,4.38,2.85,5.16,2.51,.77,4.23-.5,5.32-2.62,2.92-5.65,5.77-11.34,8.62-17.03,4.1-8.18,8.12-16.4,12.33-24.53,.93-1.79,1.9-4.89,4.36-3.91,2.27,.91,1.31,3.82,.68,5.89-4.53,14.84-9.08,29.66-13.67,44.48-.8,2.59-1.84,5.29,1.01,7.11,2.79,1.77,4.95-.03,6.95-1.93,6.19-5.87,12.38-11.74,18.64-17.52,1.26-1.16,2.54-3.84,4.38-2.4,2.2,1.73-.39,3.66-1.33,5.12-12.77,19.83-25.68,39.57-38.51,59.36-7.93,12.24-16.08,24.33-24.44,36.29-13.29,19-31.44,32.47-50.68,44.56-42.24,26.55-88.69,40.28-138.18,44.52-34.7,2.98-69.1,1.11-103.25-5.65-3.13-.62-6.23-.71-6.94,3.25-.67,3.73,2.2,4.68,5.12,5.24,38.67,7.36,77.57,9.29,116.7,4.67,28.63-3.38,56.52-9.89,83.36-20.6,.42-.17,.91-.14,1.37-.2,11.32-5.34,22.65-10.69,33.97-16.03Z"/></g></g><g><g><path d="M265.96,933.76c-11.54-2.23-23.18-3.77-34.66-6.39-21-4.81-40.27-13.26-58.09-25.33-27.88-18.89-55.89-37.59-83.83-56.4-1.8-1.21-3.59-2.49-5.15-3.98-3.88-3.72-4.55-7.61-2.25-11.73,2.5-4.46,6.84-6.4,11.79-5.22,4.34,1.03,8.23,3.52,12.77,4.16,.63-1.88-.86-2.63-1.67-3.59-5.28-6.29-10.65-12.52-15.95-18.8-.9-1.06-1.72-2.2-2.45-3.38-3.89-6.34-3.64-12.23,.65-16.15,3.81-3.48,9.54-3.11,15.33,1.22,2.08,1.55,4.12,3.18,6.03,4.98,1.69,1.59,3.01,3.95,6.39,4.5-1.06-4.25-3.39-7.58-5.17-11.06-2.11-4.14-4.75-8-7.22-11.95-1.33-2.13-2.3-4.39-2.83-6.84-1.41-6.51,1.44-13.06,6.9-15.87,5.22-2.68,10.96-1.17,15.44,4.81,5.76,7.69,11.09,15.71,16.61,23.58,.52,.74,1.08,1.45,2.3,1.92-1.29-4.92-2.59-9.83-3.87-14.75-1.98-7.62,.5-13.15,6.96-15.51,6.33-2.31,13.04,.54,16.24,7.11,5.05,10.35,8.23,21.39,11.92,32.25,1.16,3.41,2.32,6.83,3.85,11.33,1.62-3.71,1.91-6.41,2.24-9.09,.43-3.57,1.19-7.02,3.28-10.07,2.9-4.23,6.84-6.26,11.93-5.65,5.08,.61,8.03,3.88,9.32,8.58,2.31,8.43,2.41,17.18,3.19,25.81,.72,7.92,3.08,15.12,7.22,21.87,2.35,3.84,5.61,5.97,9.98,6.88,22.23,4.61,44.65,5.46,67.13,2.76,55.63-6.68,104.62-28.73,147.4-64.75,4.5-3.79,8.73-7.93,13-11.99,2.25-2.14,4.68-3.55,7.28-1.02,2.76,2.7,.9,5.07-1.23,7.15-28.01,27.37-60.45,47.85-96.85,62.11-25.6,10.03-52.12,16.14-79.58,18.03-20.87,1.44-41.56,.03-61.93-4.72-8.81-2.05-12.54-9.5-16.14-16.84-5.51-11.23-4.72-23.58-6.33-35.51-.29-2.15-.46-4.32-.9-6.44-.32-1.55-1.08-3.02-2.91-3.22-1.98-.22-3.28,1.01-3.97,2.64-.71,1.7-1.19,3.53-1.51,5.34-1.59,9.01-3.14,18.02-4.62,27.05-.44,2.68-1.29,4.95-4.43,5.03-3.1,.08-4-2.19-4.79-4.74-5.88-19.1-11.85-38.17-19.1-56.81-.5-1.28-1.24-2.52-2.1-3.6-1.27-1.6-2.94-2.24-4.95-1.27-1.86,.9-2.28,2.5-1.8,4.31,1.11,4.19,2.36,8.34,3.51,12.51,2.53,9.11,4.99,18.24,7.56,27.35,.77,2.73,1.13,5.4-1.79,6.91-3.08,1.59-4.89-.59-6.47-2.86-10.08-14.52-20.16-29.05-30.24-43.57-.53-.76-.97-1.62-1.61-2.28-1.55-1.58-2.85-4.2-5.7-2.44-2.69,1.66-3.09,4.38-1.76,6.95,2.27,4.4,4.86,8.64,7.43,12.87,7.73,12.72,15.52,25.4,23.29,38.1,.49,.79,.93,1.61,1.4,2.42,1.23,2.11,1.41,4.16-.61,5.86-2.01,1.68-4.09,1.19-5.92-.34-4.89-4.07-9.73-8.19-14.58-12.32-6.97-5.93-13.88-11.94-20.92-17.78-1.55-1.29-3.66-3.76-5.54-1.9-1.73,1.72,.29,4.03,1.67,5.68,9.95,11.9,19.93,23.77,29.93,35.62,1.75,2.07,3.76,4.16,1.84,6.94-1.88,2.72-4.57,1.9-7.16,.93-7.99-2.99-15.97-5.98-24-8.87-1.61-.58-3.84-2.55-4.97-.5-1.35,2.45,1.78,3.22,3.22,4.2,19.49,13.28,39.08,26.42,58.61,39.64,12.08,8.18,24.3,16.13,36.66,23.88,19.64,12.31,41.61,17.63,64.04,21.26,49.25,7.97,97.37,2.5,144.61-12.89,33.11-10.79,64.06-25.92,92.87-45.47,2.64-1.79,5.46-3.08,7.66,.29,2.07,3.17-.2,5.16-2.67,6.82-32.74,21.85-67.8,38.81-105.64,49.82-27.68,8.05-55.9,12.93-84.79,13.54-.45,0-.89,.23-1.34,.35-12.51-.5-25.02-1.01-37.53-1.51Z"/><path d="M244.77,752.6c.1-2.91,.14-5.82,.32-8.72,.18-3.01,1.68-4.8,4.87-5.06,3.26-.27,5.06,1.47,5.52,4.33,.58,3.62,.64,7.32,.92,10.99-.04,5.09-.03,10.19-.13,15.29-.1,5.33-1.63,6.86-7.03,6.87-4.95,0-9.91-.15-14.86-.34-3.29-.12-4.84,1-4.58,4.61,.31,4.31,.14,8.66,.12,12.99-.02,3.68-2.13,5.42-5.6,5.33-3.42-.08-4.94-2.38-5.02-5.53-.2-7.43-.24-14.87-.34-22.31-.07-4.8,3.12-6.09,7.03-6.15,4.79-.07,9.6,.05,14.37,.38,3.71,.26,5.66-.7,5.02-4.86-.4-2.58-.41-5.22-.59-7.83Z"/><path d="M73.23,735.5c2.39-15.26,4.79-30.52,7.18-45.78,.17-1.07,.3-2.15,.46-3.22,.57-3.7,1.95-6.88,6.42-6.22,4.6,.69,4.69,4.41,4.23,7.93-.96,7.21-2.17,14.39-3.21,21.6-1.36,9.48-2.66,18.97-3.99,28.45-.49,2.09-.94,4.19-1.49,6.27-.76,2.86-2.84,3.97-5.61,3.79-3.01-.2-4.4-2.23-4.49-4.97-.08-2.61,.31-5.24,.49-7.85Z"/><path d="M10.34,734.41c-3.12-5.25-7.98-9.02-11.7-13.76-2.14-2.72-2.57-5.33,.28-7.73,2.6-2.19,5.1-1.73,7.39,.66,2.24,2.33,4.08,5.06,6.8,6.92,5.33,5.96,10.65,11.93,15.98,17.89,.82,.92,1.73,1.77,2.46,2.76,1.92,2.55,2.1,5.28-.27,7.5-2.42,2.26-5.16,1.88-7.41-.44-3.54-3.66-6.94-7.44-10.38-11.18-.94-1.02-1.73-2.19-3.15-2.61Z"/><path d="M37.36,701.82c-1.22-4.63-2.46-9.26-3.64-13.9-.78-3.08-.14-5.69,3.16-6.71,3.44-1.07,5.85,.6,6.77,3.86,2.65,9.36,5.15,18.77,7.59,28.19,.93,3.57,.13,6.74-3.93,7.57-4.16,.85-5.62-2.01-6.46-5.55-1.07-4.51-2.41-8.95-3.64-13.42l.14-.04Z"/><path d="M162.91,737.75c-1.26-5.78,1.9-10.82,7.46-11.93,5.21-1.03,10.48,2.35,11.67,7.49,1.2,5.2-2.44,10.9-7.67,11.99-5.39,1.12-10.28-2.1-11.47-7.55Z"/><path d="M-70.14,1010.17c9.75-6.55,19.88-12.51,29.43-19.41,17.46-12.61,31.91-27.91,43.61-45.98,18.3-28.27,36.8-56.41,55.2-84.62,1.18-1.81,2.33-3.69,3.19-5.67,2.12-4.94,1.22-8.79-2.5-11.67-4.04-3.13-8.8-3.22-12.89-.21-3.59,2.65-6.21,6.45-10.13,8.81-1.31-1.48-.24-2.76,.13-3.96,2.41-7.86,4.92-15.68,7.36-23.53,.41-1.33,.72-2.7,.93-4.07,1.11-7.35-1.42-12.68-6.9-14.62-4.87-1.72-10,.86-13.64,7.11-1.31,2.24-2.55,4.53-3.61,6.94-.94,2.13-1.23,4.81-4.13,6.64-.68-4.32,.17-8.3,.44-12.2,.33-4.63,1.26-9.22,1.99-13.82,.4-2.48,.41-4.94-.06-7.4-1.24-6.54-6.42-11.47-12.54-11.93-5.85-.44-10.55,3.2-12.34,10.45-2.3,9.33-4.09,18.79-6.1,28.19-.19,.88-.43,1.75-1.37,2.66-.73-5.03-1.45-10.06-2.19-15.09-1.14-7.79-5.59-11.91-12.46-11.56-6.73,.34-11.79,5.58-12.18,12.89-.61,11.49,.76,22.91,1.6,34.34,.26,3.6,.53,7.19,.87,11.93-2.94-2.79-4.26-5.15-5.61-7.5-1.79-3.12-3.83-6-6.95-7.99-4.32-2.76-8.74-3.09-13.19-.55-4.44,2.54-5.88,6.7-5.24,11.53,1.16,8.67,4.48,16.76,7.13,25.01,2.43,7.58,3.06,15.13,1.88,22.95-.67,4.45-2.84,7.69-6.51,10.23-18.68,12.91-38.99,22.44-60.74,28.72-53.83,15.54-107.54,14.35-160.97-2.14-5.63-1.74-11.13-3.9-16.64-5.97-2.91-1.1-5.69-1.45-7.1,1.9-1.49,3.56,1.15,5.02,3.92,6.11,36.47,14.28,74.33,20.48,113.41,19.42,27.49-.75,54.29-5.46,80.31-14.43,19.78-6.82,38.28-16.18,55.19-28.5,7.31-5.33,7.85-13.64,8.3-21.8,.69-12.49-4.86-23.55-8.02-35.16-.57-2.09-1.26-4.16-1.68-6.28-.31-1.55-.18-3.2,1.43-4.1,1.74-.98,3.42-.35,4.68,.89,1.32,1.28,2.47,2.79,3.47,4.33,4.98,7.67,9.92,15.37,14.8,23.11,1.45,2.3,3.12,4.05,6.04,2.9,2.89-1.14,2.83-3.57,2.56-6.24-2.03-19.88-3.98-39.77-4.57-59.76-.04-1.38,.16-2.81,.52-4.14,.54-1.97,1.83-3.21,4.06-3.1,2.07,.1,3.08,1.42,3.34,3.26,.61,4.29,1.08,8.6,1.64,12.89,1.23,9.38,2.52,18.75,3.7,28.13,.36,2.82,1.07,5.41,4.34,5.67,3.45,.27,4.27-2.45,4.84-5.16,3.62-17.3,7.24-34.61,10.86-51.91,.19-.91,.26-1.87,.59-2.72,.81-2.06,.99-4.98,4.29-4.47,3.12,.48,4.55,2.83,4.34,5.72-.37,4.94-1.11,9.85-1.82,14.75-2.16,14.73-4.39,29.44-6.59,44.17-.14,.92-.23,1.85-.35,2.77-.31,2.42,.32,4.38,2.85,5.16,2.51,.77,4.23-.5,5.32-2.62,2.92-5.65,5.77-11.34,8.62-17.03,4.1-8.18,8.12-16.4,12.33-24.53,.93-1.79,1.9-4.89,4.36-3.91,2.27,.91,1.31,3.82,.68,5.89-4.53,14.84-9.08,29.66-13.67,44.48-.8,2.59-1.84,5.29,1.01,7.11,2.79,1.77,4.95-.03,6.95-1.93,6.19-5.87,12.38-11.74,18.64-17.52,1.26-1.16,2.54-3.84,4.38-2.4,2.2,1.73-.39,3.66-1.33,5.12-12.77,19.83-25.68,39.57-38.51,59.36-7.93,12.24-16.08,24.33-24.44,36.29-13.29,19-31.44,32.47-50.68,44.56-42.24,26.55-88.69,40.28-138.18,44.52-34.7,2.98-69.1,1.11-103.25-5.65-3.13-.62-6.23-.71-6.94,3.25-.67,3.73,2.2,4.68,5.12,5.24,38.67,7.36,77.57,9.29,116.7,4.67,28.63-3.38,56.52-9.89,83.36-20.6,.42-.17,.91-.14,1.37-.2,11.32-5.34,22.65-10.69,33.97-16.03Z"/></g><g><path d="M1113.46,761.68c-11.54-2.23-23.18-3.77-34.66-6.39-21-4.81-40.27-13.26-58.09-25.33-27.88-18.89-55.89-37.59-83.83-56.4-1.8-1.21-3.59-2.49-5.15-3.98-3.88-3.72-4.55-7.61-2.25-11.73,2.5-4.46,6.84-6.4,11.79-5.22,4.34,1.03,8.23,3.52,12.77,4.16,.63-1.88-.86-2.63-1.67-3.59-5.28-6.29-10.65-12.52-15.95-18.8-.9-1.06-1.72-2.2-2.45-3.38-3.89-6.34-3.64-12.23,.65-16.15,3.81-3.48,9.54-3.11,15.33,1.22,2.08,1.55,4.12,3.18,6.03,4.98,1.69,1.59,3.01,3.95,6.39,4.5-1.06-4.25-3.39-7.58-5.17-11.06-2.11-4.14-4.75-8-7.22-11.95-1.33-2.13-2.3-4.39-2.83-6.84-1.41-6.51,1.44-13.06,6.9-15.87,5.22-2.68,10.96-1.17,15.44,4.81,5.76,7.69,11.09,15.71,16.61,23.58,.52,.74,1.08,1.45,2.3,1.92-1.29-4.92-2.59-9.83-3.87-14.75-1.98-7.62,.5-13.15,6.96-15.51,6.33-2.31,13.04,.54,16.24,7.11,5.05,10.35,8.23,21.39,11.92,32.25,1.16,3.41,2.32,6.83,3.85,11.33,1.62-3.71,1.91-6.41,2.24-9.09,.43-3.57,1.19-7.02,3.28-10.07,2.9-4.23,6.84-6.26,11.93-5.65,5.08,.61,8.03,3.88,9.32,8.58,2.31,8.43,2.41,17.18,3.19,25.81,.72,7.92,3.08,15.12,7.22,21.87,2.35,3.84,5.61,5.97,9.98,6.88,22.23,4.61,44.65,5.46,67.13,2.76,55.63-6.68,104.62-28.73,147.4-64.75,4.5-3.79,8.73-7.93,13-11.99,2.25-2.14,4.68-3.55,7.28-1.02,2.76,2.7,.9,5.07-1.23,7.15-28.01,27.37-60.45,47.85-96.85,62.11-25.6,10.03-52.12,16.14-79.58,18.03-20.87,1.44-41.56,.03-61.93-4.72-8.81-2.05-12.54-9.5-16.14-16.84-5.51-11.23-4.72-23.58-6.33-35.51-.29-2.15-.46-4.32-.9-6.44-.32-1.55-1.08-3.02-2.91-3.22-1.98-.22-3.28,1.01-3.97,2.64-.71,1.7-1.19,3.53-1.51,5.34-1.59,9.01-3.14,18.02-4.62,27.05-.44,2.68-1.29,4.95-4.43,5.03-3.1,.08-4-2.19-4.79-4.74-5.88-19.1-11.85-38.17-19.1-56.81-.5-1.28-1.24-2.52-2.1-3.6-1.27-1.6-2.94-2.24-4.95-1.27-1.86,.9-2.28,2.5-1.8,4.31,1.11,4.19,2.36,8.34,3.51,12.51,2.53,9.11,4.99,18.24,7.56,27.35,.77,2.73,1.13,5.4-1.79,6.91-3.08,1.59-4.89-.59-6.47-2.86-10.08-14.52-20.16-29.05-30.24-43.57-.53-.76-.97-1.62-1.61-2.28-1.55-1.58-2.85-4.2-5.7-2.44-2.69,1.66-3.09,4.38-1.76,6.95,2.27,4.4,4.86,8.64,7.43,12.87,7.73,12.72,15.52,25.4,23.29,38.1,.49,.79,.93,1.61,1.4,2.42,1.23,2.11,1.41,4.16-.61,5.86-2.01,1.68-4.09,1.19-5.92-.34-4.89-4.07-9.73-8.19-14.58-12.32-6.97-5.93-13.88-11.94-20.92-17.78-1.55-1.29-3.66-3.76-5.54-1.9-1.73,1.72,.29,4.03,1.67,5.68,9.95,11.9,19.93,23.77,29.93,35.62,1.75,2.07,3.76,4.16,1.84,6.94-1.88,2.72-4.57,1.9-7.16,.93-7.99-2.99-15.97-5.98-24-8.87-1.61-.58-3.84-2.55-4.97-.5-1.35,2.45,1.78,3.22,3.22,4.2,19.49,13.28,39.08,26.42,58.61,39.64,12.08,8.18,24.3,16.13,36.66,23.88,19.64,12.31,41.61,17.63,64.04,21.26,49.25,7.97,97.37,2.5,144.61-12.89,33.11-10.79,64.06-25.92,92.87-45.47,2.64-1.79,5.46-3.08,7.66,.29,2.07,3.17-.2,5.16-2.67,6.82-32.74,21.85-67.8,38.81-105.64,49.82-27.68,8.05-55.9,12.93-84.79,13.54-.45,0-.89,.23-1.34,.35-12.51-.5-25.02-1.01-37.53-1.51Z"/><path d="M744.89,668.85c10.78-2.21,21.45,4.83,23.8,15.7,2.37,10.95-4.89,21.93-15.89,24.04-11,2.11-21.79-4.99-23.79-15.66-2.13-11.36,4.75-21.8,15.88-24.08Zm13.07,18.24c-1-5.24-5.78-8.78-10.74-7.96-4.75,.79-8.35,6.15-7.5,11.2,.84,5.03,5.91,8.66,10.89,7.79,5.1-.88,8.35-5.77,7.35-11.03Z"/><path d="M1092.28,580.52c.1-2.91,.14-5.82,.32-8.72,.18-3.01,1.68-4.8,4.87-5.06,3.26-.27,5.06,1.47,5.52,4.33,.58,3.62,.64,7.32,.92,10.99-.04,5.09-.03,10.19-.13,15.29-.1,5.33-1.63,6.86-7.03,6.87-4.95,0-9.91-.15-14.86-.34-3.29-.12-4.84,1-4.58,4.61,.31,4.31,.14,8.66,.12,12.99-.02,3.68-2.13,5.42-5.6,5.33-3.42-.08-4.94-2.38-5.02-5.53-.2-7.43-.24-14.87-.34-22.31-.07-4.8,3.12-6.09,7.03-6.15,4.79-.07,9.6,.05,14.37,.38,3.71,.26,5.66-.7,5.02-4.86-.4-2.58-.41-5.22-.59-7.83Z"/><path d="M920.73,563.43c2.39-15.26,4.79-30.52,7.18-45.78,.17-1.07,.3-2.15,.46-3.22,.57-3.7,1.95-6.88,6.42-6.22,4.6,.69,4.69,4.41,4.23,7.93-.96,7.21-2.17,14.39-3.21,21.6-1.36,9.48-2.66,18.97-3.99,28.45-.49,2.09-.94,4.19-1.49,6.27-.76,2.86-2.84,3.97-5.61,3.79-3.01-.2-4.4-2.23-4.49-4.97-.08-2.61,.31-5.24,.49-7.85Z"/><path d="M857.84,562.33c-3.12-5.25-7.98-9.02-11.7-13.76-2.14-2.72-2.57-5.33,.28-7.73,2.6-2.19,5.1-1.73,7.39,.66,2.24,2.33,4.08,5.06,6.8,6.92,5.33,5.96,10.65,11.93,15.98,17.89,.82,.92,1.73,1.77,2.46,2.76,1.92,2.55,2.1,5.28-.27,7.5-2.42,2.26-5.16,1.88-7.41-.44-3.54-3.66-6.94-7.44-10.38-11.18-.94-1.02-1.73-2.19-3.15-2.61Z"/><path d="M755.97,630.23c1.24,6.4-2.92,12.75-9.17,13.98-6.14,1.21-12.7-3.2-13.94-9.37-1.3-6.47,2.75-12.48,9.32-13.8,6.68-1.34,12.51,2.54,13.79,9.18Z"/><path d="M884.87,529.74c-1.22-4.63-2.46-9.26-3.64-13.9-.78-3.08-.14-5.69,3.16-6.71,3.44-1.07,5.85,.6,6.77,3.86,2.65,9.36,5.15,18.77,7.59,28.19,.93,3.57,.13,6.74-3.93,7.57-4.16,.85-5.62-2.01-6.46-5.55-1.07-4.51-2.41-8.95-3.64-13.42l.14-.04Z"/><path d="M1010.41,565.67c-1.26-5.78,1.9-10.82,7.46-11.93,5.21-1.03,10.48,2.35,11.67,7.49,1.2,5.2-2.44,10.9-7.67,11.99-5.39,1.12-10.28-2.1-11.47-7.55Z"/><path d="M777.36,838.09c9.75-6.55,19.88-12.51,29.43-19.41,17.46-12.61,31.91-27.91,43.61-45.98,18.3-28.27,36.8-56.41,55.2-84.62,1.18-1.81,2.33-3.69,3.19-5.67,2.12-4.94,1.22-8.79-2.5-11.67-4.04-3.13-8.8-3.22-12.89-.21-3.59,2.65-6.21,6.45-10.13,8.81-1.31-1.48-.24-2.76,.13-3.96,2.41-7.86,4.92-15.68,7.36-23.53,.41-1.33,.72-2.7,.93-4.07,1.11-7.35-1.42-12.68-6.9-14.62-4.87-1.72-10,.86-13.64,7.11-1.31,2.24-2.55,4.53-3.61,6.94-.94,2.13-1.23,4.81-4.13,6.64-.68-4.32,.17-8.3,.44-12.2,.33-4.63,1.26-9.22,1.99-13.82,.4-2.48,.41-4.94-.06-7.4-1.24-6.54-6.42-11.47-12.54-11.93-5.85-.44-10.55,3.2-12.34,10.45-2.3,9.33-4.09,18.79-6.1,28.19-.19,.88-.43,1.75-1.37,2.66-.73-5.03-1.45-10.06-2.19-15.09-1.14-7.79-5.59-11.91-12.46-11.56-6.73,.34-11.79,5.58-12.18,12.89-.61,11.49,.76,22.91,1.6,34.34,.26,3.6,.53,7.19,.87,11.93-2.94-2.79-4.26-5.15-5.61-7.5-1.79-3.12-3.83-6-6.95-7.99-4.32-2.76-8.74-3.09-13.19-.55-4.44,2.54-5.88,6.7-5.24,11.53,1.16,8.67,4.48,16.76,7.13,25.01,2.43,7.58,3.06,15.13,1.88,22.95-.67,4.45-2.84,7.69-6.51,10.23-18.68,12.91-38.99,22.44-60.74,28.72-53.83,15.54-107.54,14.35-160.97-2.14-5.63-1.74-11.13-3.9-16.64-5.97-2.91-1.1-5.69-1.45-7.1,1.9-1.49,3.56,1.15,5.02,3.92,6.11,36.47,14.28,74.33,20.48,113.41,19.42,27.49-.75,54.29-5.46,80.31-14.43,19.78-6.82,38.28-16.18,55.19-28.5,7.31-5.33,7.85-13.64,8.3-21.8,.69-12.49-4.86-23.55-8.02-35.16-.57-2.09-1.26-4.16-1.68-6.28-.31-1.55-.18-3.2,1.43-4.1,1.74-.98,3.42-.35,4.68,.89,1.32,1.28,2.47,2.79,3.47,4.33,4.98,7.67,9.92,15.37,14.8,23.11,1.45,2.3,3.12,4.05,6.04,2.9,2.89-1.14,2.83-3.57,2.56-6.24-2.03-19.88-3.98-39.77-4.57-59.76-.04-1.38,.16-2.81,.52-4.14,.54-1.97,1.83-3.21,4.06-3.1,2.07,.1,3.08,1.42,3.34,3.26,.61,4.29,1.08,8.6,1.64,12.89,1.23,9.38,2.52,18.75,3.7,28.13,.36,2.82,1.07,5.41,4.34,5.67,3.45,.27,4.27-2.45,4.84-5.16,3.62-17.3,7.24-34.61,10.86-51.91,.19-.91,.26-1.87,.59-2.72,.81-2.06,.99-4.98,4.29-4.47,3.12,.48,4.55,2.83,4.34,5.72-.37,4.94-1.11,9.85-1.82,14.75-2.16,14.73-4.39,29.44-6.59,44.17-.14,.92-.23,1.85-.35,2.77-.31,2.42,.32,4.38,2.85,5.16,2.51,.77,4.23-.5,5.32-2.62,2.92-5.65,5.77-11.34,8.62-17.03,4.1-8.18,8.12-16.4,12.33-24.53,.93-1.79,1.9-4.89,4.36-3.91,2.27,.91,1.31,3.82,.68,5.89-4.53,14.84-9.08,29.66-13.67,44.48-.8,2.59-1.84,5.29,1.01,7.11,2.79,1.77,4.95-.03,6.95-1.93,6.19-5.87,12.38-11.74,18.64-17.52,1.26-1.16,2.54-3.84,4.38-2.4,2.2,1.73-.39,3.66-1.33,5.12-12.77,19.83-25.68,39.57-38.51,59.36-7.93,12.24-16.08,24.33-24.44,36.29-13.29,19-31.44,32.47-50.68,44.56-42.24,26.55-88.69,40.28-138.18,44.52-34.7,2.98-69.1,1.11-103.25-5.65-3.13-.62-6.23-.71-6.94,3.25-.67,3.73,2.2,4.68,5.12,5.24,38.67,7.36,77.57,9.29,116.7,4.67,28.63-3.38,56.52-9.89,83.36-20.6,.42-.17,.91-.14,1.37-.2,11.32-5.34,22.65-10.69,33.97-16.03Z"/></g></g><g><g><path d="M326.4,1231.45c-11.54-2.23-23.18-3.77-34.66-6.39-21-4.81-40.27-13.26-58.09-25.33-27.88-18.89-55.89-37.59-83.83-56.4-1.8-1.21-3.59-2.49-5.15-3.98-3.88-3.72-4.55-7.61-2.25-11.73,2.5-4.46,6.84-6.4,11.79-5.22,4.34,1.03,8.23,3.52,12.77,4.16,.63-1.88-.86-2.63-1.67-3.59-5.28-6.29-10.65-12.52-15.95-18.8-.9-1.06-1.72-2.2-2.45-3.38-3.89-6.34-3.64-12.23,.65-16.15,3.81-3.48,9.54-3.11,15.33,1.22,2.08,1.55,4.12,3.18,6.03,4.98,1.69,1.59,3.01,3.95,6.39,4.5-1.06-4.25-3.39-7.58-5.17-11.06-2.11-4.14-4.75-8-7.22-11.95-1.33-2.13-2.3-4.39-2.83-6.84-1.41-6.51,1.44-13.06,6.9-15.87,5.22-2.68,10.96-1.17,15.44,4.81,5.76,7.69,11.09,15.71,16.61,23.58,.52,.74,1.08,1.45,2.3,1.92-1.29-4.92-2.59-9.83-3.87-14.75-1.98-7.62,.5-13.15,6.96-15.51,6.33-2.31,13.04,.54,16.24,7.11,5.05,10.35,8.23,21.39,11.92,32.25,1.16,3.41,2.32,6.83,3.85,11.33,1.62-3.71,1.91-6.41,2.24-9.09,.43-3.57,1.19-7.02,3.28-10.07,2.9-4.23,6.84-6.26,11.93-5.65,5.08,.61,8.03,3.88,9.32,8.58,2.31,8.43,2.41,17.18,3.19,25.81,.72,7.92,3.08,15.12,7.22,21.87,2.35,3.84,5.61,5.97,9.98,6.88,22.23,4.61,44.65,5.46,67.13,2.76,55.63-6.68,104.62-28.73,147.4-64.75,4.5-3.79,8.73-7.93,13-11.99,2.25-2.14,4.68-3.55,7.28-1.02,2.76,2.7,.9,5.07-1.23,7.15-28.01,27.37-60.45,47.85-96.85,62.11-25.6,10.03-52.12,16.14-79.58,18.03-20.87,1.44-41.56,.03-61.93-4.72-8.81-2.05-12.54-9.5-16.14-16.84-5.51-11.23-4.72-23.58-6.33-35.51-.29-2.15-.46-4.32-.9-6.44-.32-1.55-1.08-3.02-2.91-3.22-1.98-.22-3.28,1.01-3.97,2.64-.71,1.7-1.19,3.53-1.51,5.34-1.59,9.01-3.14,18.02-4.62,27.05-.44,2.68-1.29,4.95-4.43,5.03-3.1,.08-4-2.19-4.79-4.74-5.88-19.1-11.85-38.17-19.1-56.81-.5-1.28-1.24-2.52-2.1-3.6-1.27-1.6-2.94-2.24-4.95-1.27-1.86,.9-2.28,2.5-1.8,4.31,1.11,4.19,2.36,8.34,3.51,12.51,2.53,9.11,4.99,18.24,7.56,27.35,.77,2.73,1.13,5.4-1.79,6.91-3.08,1.59-4.89-.59-6.47-2.86-10.08-14.52-20.16-29.05-30.24-43.57-.53-.76-.97-1.62-1.61-2.28-1.55-1.58-2.85-4.2-5.7-2.44-2.69,1.66-3.09,4.38-1.76,6.95,2.27,4.4,4.86,8.64,7.43,12.87,7.73,12.72,15.52,25.4,23.29,38.1,.49,.79,.93,1.61,1.4,2.42,1.23,2.11,1.41,4.16-.61,5.86-2.01,1.68-4.09,1.19-5.92-.34-4.89-4.07-9.73-8.19-14.58-12.32-6.97-5.93-13.88-11.94-20.92-17.78-1.55-1.29-3.66-3.76-5.54-1.9-1.73,1.72,.29,4.03,1.67,5.68,9.95,11.9,19.93,23.77,29.93,35.62,1.75,2.07,3.76,4.16,1.84,6.94-1.88,2.72-4.57,1.9-7.16,.93-7.99-2.99-15.97-5.98-24-8.87-1.61-.58-3.84-2.55-4.97-.5-1.35,2.45,1.78,3.22,3.22,4.2,19.49,13.28,39.08,26.42,58.61,39.64,12.08,8.18,24.3,16.13,36.66,23.88,19.64,12.31,41.61,17.63,64.04,21.26,49.25,7.97,97.37,2.5,144.61-12.89,33.11-10.79,64.06-25.92,92.87-45.47,2.64-1.79,5.46-3.08,7.66,.29,2.07,3.17-.2,5.16-2.67,6.82-32.74,21.85-67.8,38.81-105.64,49.82-27.68,8.05-55.9,12.93-84.79,13.54-.45,0-.89,.23-1.34,.35-12.51-.5-25.02-1.01-37.53-1.51Z"/><path d="M305.22,1050.29c.1-2.91,.14-5.82,.32-8.72,.18-3.01,1.68-4.8,4.87-5.06,3.26-.27,5.06,1.47,5.52,4.33,.58,3.62,.64,7.32,.92,10.99-.04,5.09-.03,10.19-.13,15.29-.1,5.33-1.63,6.86-7.03,6.87-4.95,0-9.91-.15-14.86-.34-3.29-.12-4.84,1-4.58,4.61,.31,4.31,.14,8.66,.12,12.99-.02,3.68-2.13,5.42-5.6,5.33-3.42-.08-4.94-2.38-5.02-5.53-.2-7.43-.24-14.87-.34-22.31-.07-4.8,3.12-6.09,7.03-6.15,4.79-.07,9.6,.05,14.37,.38,3.71,.26,5.66-.7,5.02-4.86-.4-2.58-.41-5.22-.59-7.83Z"/><path d="M133.68,1033.2c2.39-15.26,4.79-30.52,7.18-45.78,.17-1.07,.3-2.15,.46-3.22,.57-3.7,1.95-6.88,6.42-6.22,4.6,.69,4.69,4.41,4.23,7.93-.96,7.21-2.17,14.39-3.21,21.6-1.36,9.48-2.66,18.97-3.99,28.45-.49,2.09-.94,4.19-1.49,6.27-.76,2.86-2.84,3.97-5.61,3.79-3.01-.2-4.4-2.23-4.49-4.97-.08-2.61,.31-5.24,.49-7.85Z"/><path d="M70.79,1032.1c-3.12-5.25-7.98-9.02-11.7-13.76-2.14-2.72-2.57-5.33,.28-7.73,2.6-2.19,5.1-1.73,7.39,.66,2.24,2.33,4.08,5.06,6.8,6.92,5.33,5.96,10.65,11.93,15.98,17.89,.82,.92,1.73,1.77,2.46,2.76,1.92,2.55,2.1,5.28-.27,7.5-2.42,2.26-5.16,1.88-7.41-.44-3.54-3.66-6.94-7.44-10.38-11.18-.94-1.02-1.73-2.19-3.15-2.61Z"/><path d="M97.81,999.51c-1.22-4.63-2.46-9.26-3.64-13.9-.78-3.08-.14-5.69,3.16-6.71,3.44-1.07,5.85,.6,6.77,3.86,2.65,9.36,5.15,18.77,7.59,28.19,.93,3.57,.13,6.74-3.93,7.57-4.16,.85-5.62-2.01-6.46-5.55-1.07-4.51-2.41-8.95-3.64-13.42l.14-.04Z"/><path d="M223.36,1035.44c-1.26-5.78,1.9-10.82,7.46-11.93,5.21-1.03,10.48,2.35,11.67,7.49,1.2,5.2-2.44,10.9-7.67,11.99-5.39,1.12-10.28-2.1-11.47-7.55Z"/><path d="M-9.7,1307.86c9.75-6.55,19.88-12.51,29.43-19.41,17.46-12.61,31.91-27.91,43.61-45.98,18.3-28.27,36.8-56.41,55.2-84.62,1.18-1.81,2.33-3.69,3.19-5.67,2.12-4.94,1.22-8.79-2.5-11.67-4.04-3.13-8.8-3.22-12.89-.21-3.59,2.65-6.21,6.45-10.13,8.81-1.31-1.48-.24-2.76,.13-3.96,2.41-7.86,4.92-15.68,7.36-23.53,.41-1.33,.72-2.7,.93-4.07,1.11-7.35-1.42-12.68-6.9-14.62-4.87-1.72-10,.86-13.64,7.11-1.31,2.24-2.55,4.53-3.61,6.94-.94,2.13-1.23,4.81-4.13,6.64-.68-4.32,.17-8.3,.44-12.2,.33-4.63,1.26-9.22,1.99-13.82,.4-2.48,.41-4.94-.06-7.4-1.24-6.54-6.42-11.47-12.54-11.93-5.85-.44-10.55,3.2-12.34,10.45-2.3,9.33-4.09,18.79-6.1,28.19-.19,.88-.43,1.75-1.37,2.66-.73-5.03-1.45-10.06-2.19-15.09-1.14-7.79-5.59-11.91-12.46-11.56-6.73,.34-11.79,5.58-12.18,12.89-.61,11.49,.76,22.91,1.6,34.34,.26,3.6,.53,7.19,.87,11.93-2.94-2.79-4.26-5.15-5.61-7.5-1.79-3.12-3.83-6-6.95-7.99-4.32-2.76-8.74-3.09-13.19-.55-4.44,2.54-5.88,6.7-5.24,11.53,1.16,8.67,4.48,16.76,7.13,25.01,2.43,7.58,3.06,15.13,1.88,22.95-.67,4.45-2.84,7.69-6.51,10.23-18.68,12.91-38.99,22.44-60.74,28.72-53.83,15.54-107.54,14.35-160.97-2.14-5.63-1.74-11.13-3.9-16.64-5.97-2.91-1.1-5.69-1.45-7.1,1.9-1.49,3.56,1.15,5.02,3.92,6.11,36.47,14.28,74.33,20.48,113.41,19.42,27.49-.75,54.29-5.46,80.31-14.43,19.78-6.82,38.28-16.18,55.19-28.5,7.31-5.33,7.85-13.64,8.3-21.8,.69-12.49-4.86-23.55-8.02-35.16-.57-2.09-1.26-4.16-1.68-6.28-.31-1.55-.18-3.2,1.43-4.1,1.74-.98,3.42-.35,4.68,.89,1.32,1.28,2.47,2.79,3.47,4.33,4.98,7.67,9.92,15.37,14.8,23.11,1.45,2.3,3.12,4.05,6.04,2.9,2.89-1.14,2.83-3.57,2.56-6.24-2.03-19.88-3.98-39.77-4.57-59.76-.04-1.38,.16-2.81,.52-4.14,.54-1.97,1.83-3.21,4.06-3.1,2.07,.1,3.08,1.42,3.34,3.26,.61,4.29,1.08,8.6,1.64,12.89,1.23,9.38,2.52,18.75,3.7,28.13,.36,2.82,1.07,5.41,4.34,5.67,3.45,.27,4.27-2.45,4.84-5.16,3.62-17.3,7.24-34.61,10.86-51.91,.19-.91,.26-1.87,.59-2.72,.81-2.06,.99-4.98,4.29-4.47,3.12,.48,4.55,2.83,4.34,5.72-.37,4.94-1.11,9.85-1.82,14.75-2.16,14.73-4.39,29.44-6.59,44.17-.14,.92-.23,1.85-.35,2.77-.31,2.42,.32,4.38,2.85,5.16,2.51,.77,4.23-.5,5.32-2.62,2.92-5.65,5.77-11.34,8.62-17.03,4.1-8.18,8.12-16.4,12.33-24.53,.93-1.79,1.9-4.89,4.36-3.91,2.27,.91,1.31,3.82,.68,5.89-4.53,14.84-9.08,29.66-13.67,44.48-.8,2.59-1.84,5.29,1.01,7.11,2.79,1.77,4.95-.03,6.95-1.93,6.19-5.87,12.38-11.74,18.64-17.52,1.26-1.16,2.54-3.84,4.38-2.4,2.2,1.73-.39,3.66-1.33,5.12-12.77,19.83-25.68,39.57-38.51,59.36-7.93,12.24-16.08,24.33-24.44,36.29-13.29,19-31.44,32.47-50.68,44.56-42.24,26.55-88.69,40.28-138.18,44.52-34.7,2.98-69.1,1.11-103.25-5.65-3.13-.62-6.23-.71-6.94,3.25-.67,3.73,2.2,4.68,5.12,5.24,38.67,7.36,77.57,9.29,116.7,4.67,28.63-3.38,56.52-9.89,83.36-20.6,.42-.17,.91-.14,1.37-.2,11.32-5.34,22.65-10.69,33.97-16.03Z"/></g><g><path d="M1173.9,1059.38c-11.54-2.23-23.18-3.77-34.66-6.39-21-4.81-40.27-13.26-58.09-25.33-27.88-18.89-55.89-37.59-83.83-56.4-1.8-1.21-3.59-2.49-5.15-3.98-3.88-3.72-4.55-7.61-2.25-11.73,2.5-4.46,6.84-6.4,11.79-5.22,4.34,1.03,8.23,3.52,12.77,4.16,.63-1.88-.86-2.63-1.67-3.59-5.28-6.29-10.65-12.52-15.95-18.8-.9-1.06-1.72-2.2-2.45-3.38-3.89-6.34-3.64-12.23,.65-16.15,3.81-3.48,9.54-3.11,15.33,1.22,2.08,1.55,4.12,3.18,6.03,4.98,1.69,1.59,3.01,3.95,6.39,4.5-1.06-4.25-3.39-7.58-5.17-11.06-2.11-4.14-4.75-8-7.22-11.95-1.33-2.13-2.3-4.39-2.83-6.84-1.41-6.51,1.44-13.06,6.9-15.87,5.22-2.68,10.96-1.17,15.44,4.81,5.76,7.69,11.09,15.71,16.61,23.58,.52,.74,1.08,1.45,2.3,1.92-1.29-4.92-2.59-9.83-3.87-14.75-1.98-7.62,.5-13.15,6.96-15.51,6.33-2.31,13.04,.54,16.24,7.11,5.05,10.35,8.23,21.39,11.92,32.25,1.16,3.41,2.32,6.83,3.85,11.33,1.62-3.71,1.91-6.41,2.24-9.09,.43-3.57,1.19-7.02,3.28-10.07,2.9-4.23,6.84-6.26,11.93-5.65,5.08,.61,8.03,3.88,9.32,8.58,2.31,8.43,2.41,17.18,3.19,25.81,.72,7.92,3.08,15.12,7.22,21.87,2.35,3.84,5.61,5.97,9.98,6.88,22.23,4.61,44.65,5.46,67.13,2.76,55.63-6.68,104.62-28.73,147.4-64.75,4.5-3.79,8.73-7.93,13-11.99,2.25-2.14,4.68-3.55,7.28-1.02,2.76,2.7,.9,5.07-1.23,7.15-28.01,27.37-60.45,47.85-96.85,62.11-25.6,10.03-52.12,16.14-79.58,18.03-20.87,1.44-41.56,.03-61.93-4.72-8.81-2.05-12.54-9.5-16.14-16.84-5.51-11.23-4.72-23.58-6.33-35.51-.29-2.15-.46-4.32-.9-6.44-.32-1.55-1.08-3.02-2.91-3.22-1.98-.22-3.28,1.01-3.97,2.64-.71,1.7-1.19,3.53-1.51,5.34-1.59,9.01-3.14,18.02-4.62,27.05-.44,2.68-1.29,4.95-4.43,5.03-3.1,.08-4-2.19-4.79-4.74-5.88-19.1-11.85-38.17-19.1-56.81-.5-1.28-1.24-2.52-2.1-3.6-1.27-1.6-2.94-2.24-4.95-1.27-1.86,.9-2.28,2.5-1.8,4.31,1.11,4.19,2.36,8.34,3.51,12.51,2.53,9.11,4.99,18.24,7.56,27.35,.77,2.73,1.13,5.4-1.79,6.91-3.08,1.59-4.89-.59-6.47-2.86-10.08-14.52-20.16-29.05-30.24-43.57-.53-.76-.97-1.62-1.61-2.28-1.55-1.58-2.85-4.2-5.7-2.44-2.69,1.66-3.09,4.38-1.76,6.95,2.27,4.4,4.86,8.64,7.43,12.87,7.73,12.72,15.52,25.4,23.29,38.1,.49,.79,.93,1.61,1.4,2.42,1.23,2.11,1.41,4.16-.61,5.86-2.01,1.68-4.09,1.19-5.92-.34-4.89-4.07-9.73-8.19-14.58-12.32-6.97-5.93-13.88-11.94-20.92-17.78-1.55-1.29-3.66-3.76-5.54-1.9-1.73,1.72,.29,4.03,1.67,5.68,9.95,11.9,19.93,23.77,29.93,35.62,1.75,2.07,3.76,4.16,1.84,6.94-1.88,2.72-4.57,1.9-7.16,.93-7.99-2.99-15.97-5.98-24-8.87-1.61-.58-3.84-2.55-4.97-.5-1.35,2.45,1.78,3.22,3.22,4.2,19.49,13.28,39.08,26.42,58.61,39.64,12.08,8.18,24.3,16.13,36.66,23.88,19.64,12.31,41.61,17.63,64.04,21.26,49.25,7.97,97.37,2.5,144.61-12.89,33.11-10.79,64.06-25.92,92.87-45.47,2.64-1.79,5.46-3.08,7.66,.29,2.07,3.17-.2,5.16-2.67,6.82-32.74,21.85-67.8,38.81-105.64,49.82-27.68,8.05-55.9,12.93-84.79,13.54-.45,0-.89,.23-1.34,.35-12.51-.5-25.02-1.01-37.53-1.51Z"/><path d="M805.33,966.54c10.78-2.21,21.45,4.83,23.8,15.7,2.37,10.95-4.89,21.93-15.89,24.04-11,2.11-21.79-4.99-23.79-15.66-2.13-11.36,4.75-21.8,15.88-24.08Zm13.07,18.24c-1-5.24-5.78-8.78-10.74-7.96-4.75,.79-8.35,6.15-7.5,11.2,.84,5.03,5.91,8.66,10.89,7.79,5.1-.88,8.35-5.77,7.35-11.03Z"/><path d="M981.18,861.12c2.39-15.26,4.79-30.52,7.18-45.78,.17-1.07,.3-2.15,.46-3.22,.57-3.7,1.95-6.88,6.42-6.22,4.6,.69,4.69,4.41,4.23,7.93-.96,7.21-2.17,14.39-3.21,21.6-1.36,9.48-2.66,18.97-3.99,28.45-.49,2.09-.94,4.19-1.49,6.27-.76,2.86-2.84,3.97-5.61,3.79-3.01-.2-4.4-2.23-4.49-4.97-.08-2.61,.31-5.24,.49-7.85Z"/><path d="M918.29,860.03c-3.12-5.25-7.98-9.02-11.7-13.76-2.14-2.72-2.57-5.33,.28-7.73,2.6-2.19,5.1-1.73,7.39,.66,2.24,2.33,4.08,5.06,6.8,6.92,5.33,5.96,10.65,11.93,15.98,17.89,.82,.92,1.73,1.77,2.46,2.76,1.92,2.55,2.1,5.28-.27,7.5-2.42,2.26-5.16,1.88-7.41-.44-3.54-3.66-6.94-7.44-10.38-11.18-.94-1.02-1.73-2.19-3.15-2.61Z"/><path d="M816.42,927.92c1.24,6.4-2.92,12.75-9.17,13.98-6.14,1.21-12.7-3.2-13.94-9.37-1.3-6.47,2.75-12.48,9.32-13.8,6.68-1.34,12.51,2.54,13.79,9.18Z"/><path d="M945.31,827.44c-1.22-4.63-2.46-9.26-3.64-13.9-.78-3.08-.14-5.69,3.16-6.71,3.44-1.07,5.85,.6,6.77,3.86,2.65,9.36,5.15,18.77,7.59,28.19,.93,3.57,.13,6.74-3.93,7.57-4.16,.85-5.62-2.01-6.46-5.55-1.07-4.51-2.41-8.95-3.64-13.42l.14-.04Z"/><path d="M1070.86,863.36c-1.26-5.78,1.9-10.82,7.46-11.93,5.21-1.03,10.48,2.35,11.67,7.49,1.2,5.2-2.44,10.9-7.67,11.99-5.39,1.12-10.28-2.1-11.47-7.55Z"/><path d="M837.8,1135.79c9.75-6.55,19.88-12.51,29.43-19.41,17.46-12.61,31.91-27.91,43.61-45.98,18.3-28.27,36.8-56.41,55.2-84.62,1.18-1.81,2.33-3.69,3.19-5.67,2.12-4.94,1.22-8.79-2.5-11.67-4.04-3.13-8.8-3.22-12.89-.21-3.59,2.65-6.21,6.45-10.13,8.81-1.31-1.48-.24-2.76,.13-3.96,2.41-7.86,4.92-15.68,7.36-23.53,.41-1.33,.72-2.7,.93-4.07,1.11-7.35-1.42-12.68-6.9-14.62-4.87-1.72-10,.86-13.64,7.11-1.31,2.24-2.55,4.53-3.61,6.94-.94,2.13-1.23,4.81-4.13,6.64-.68-4.32,.17-8.3,.44-12.2,.33-4.63,1.26-9.22,1.99-13.82,.4-2.48,.41-4.94-.06-7.4-1.24-6.54-6.42-11.47-12.54-11.93-5.85-.44-10.55,3.2-12.34,10.45-2.3,9.33-4.09,18.79-6.1,28.19-.19,.88-.43,1.75-1.37,2.66-.73-5.03-1.45-10.06-2.19-15.09-1.14-7.79-5.59-11.91-12.46-11.56-6.73,.34-11.79,5.58-12.18,12.89-.61,11.49,.76,22.91,1.6,34.34,.26,3.6,.53,7.19,.87,11.93-2.94-2.79-4.26-5.15-5.61-7.5-1.79-3.12-3.83-6-6.95-7.99-4.32-2.76-8.74-3.09-13.19-.55-4.44,2.54-5.88,6.7-5.24,11.53,1.16,8.67,4.48,16.76,7.13,25.01,2.43,7.58,3.06,15.13,1.88,22.95-.67,4.45-2.84,7.69-6.51,10.23-18.68,12.91-38.99,22.44-60.74,28.72-53.83,15.54-107.54,14.35-160.97-2.14-5.63-1.74-11.13-3.9-16.64-5.97-2.91-1.1-5.69-1.45-7.1,1.9-1.49,3.56,1.15,5.02,3.92,6.11,36.47,14.28,74.33,20.48,113.41,19.42,27.49-.75,54.29-5.46,80.31-14.43,19.78-6.82,38.28-16.18,55.19-28.5,7.31-5.33,7.85-13.64,8.3-21.8,.69-12.49-4.86-23.55-8.02-35.16-.57-2.09-1.26-4.16-1.68-6.28-.31-1.55-.18-3.2,1.43-4.1,1.74-.98,3.42-.35,4.68,.89,1.32,1.28,2.47,2.79,3.47,4.33,4.98,7.67,9.92,15.37,14.8,23.11,1.45,2.3,3.12,4.05,6.04,2.9,2.89-1.14,2.83-3.57,2.56-6.24-2.03-19.88-3.98-39.77-4.57-59.76-.04-1.38,.16-2.81,.52-4.14,.54-1.97,1.83-3.21,4.06-3.1,2.07,.1,3.08,1.42,3.34,3.26,.61,4.29,1.08,8.6,1.64,12.89,1.23,9.38,2.52,18.75,3.7,28.13,.36,2.82,1.07,5.41,4.34,5.67,3.45,.27,4.27-2.45,4.84-5.16,3.62-17.3,7.24-34.61,10.86-51.91,.19-.91,.26-1.87,.59-2.72,.81-2.06,.99-4.98,4.29-4.47,3.12,.48,4.55,2.83,4.34,5.72-.37,4.94-1.11,9.85-1.82,14.75-2.16,14.73-4.39,29.44-6.59,44.17-.14,.92-.23,1.85-.35,2.77-.31,2.42,.32,4.38,2.85,5.16,2.51,.77,4.23-.5,5.32-2.62,2.92-5.65,5.77-11.34,8.62-17.03,4.1-8.18,8.12-16.4,12.33-24.53,.93-1.79,1.9-4.89,4.36-3.91,2.27,.91,1.31,3.82,.68,5.89-4.53,14.84-9.08,29.66-13.67,44.48-.8,2.59-1.84,5.29,1.01,7.11,2.79,1.77,4.95-.03,6.95-1.93,6.19-5.87,12.38-11.74,18.64-17.52,1.26-1.16,2.54-3.84,4.38-2.4,2.2,1.73-.39,3.66-1.33,5.12-12.77,19.83-25.68,39.57-38.51,59.36-7.93,12.24-16.08,24.33-24.44,36.29-13.29,19-31.44,32.47-50.68,44.56-42.24,26.55-88.69,40.28-138.18,44.52-34.7,2.98-69.1,1.11-103.25-5.65-3.13-.62-6.23-.71-6.94,3.25-.67,3.73,2.2,4.68,5.12,5.24,38.67,7.36,77.57,9.29,116.7,4.67,28.63-3.38,56.52-9.89,83.36-20.6,.42-.17,.91-.14,1.37-.2,11.32-5.34,22.65-10.69,33.97-16.03Z"/></g></g><g><g><path d="M386.85,1529.15c-11.54-2.23-23.18-3.77-34.66-6.39-21-4.81-40.27-13.26-58.09-25.33-27.88-18.89-55.89-37.59-83.83-56.4-1.8-1.21-3.59-2.49-5.15-3.98-3.88-3.72-4.55-7.61-2.25-11.73,2.5-4.46,6.84-6.4,11.79-5.22,4.34,1.03,8.23,3.52,12.77,4.16,.63-1.88-.86-2.63-1.67-3.59-5.28-6.29-10.65-12.52-15.95-18.8-.9-1.06-1.72-2.2-2.45-3.38-3.89-6.34-3.64-12.23,.65-16.15,3.81-3.48,9.54-3.11,15.33,1.22,2.08,1.55,4.12,3.18,6.03,4.98,1.69,1.59,3.01,3.95,6.39,4.5-1.06-4.25-3.39-7.58-5.17-11.06-2.11-4.14-4.75-8-7.22-11.95-1.33-2.13-2.3-4.39-2.83-6.84-1.41-6.51,1.44-13.06,6.9-15.87,5.22-2.68,10.96-1.17,15.44,4.81,5.76,7.69,11.09,15.71,16.61,23.58,.52,.74,1.08,1.45,2.3,1.92-1.29-4.92-2.59-9.83-3.87-14.75-1.98-7.62,.5-13.15,6.96-15.51,6.33-2.31,13.04,.54,16.24,7.11,5.05,10.35,8.23,21.39,11.92,32.25,1.16,3.41,2.32,6.83,3.85,11.33,1.62-3.71,1.91-6.41,2.24-9.09,.43-3.57,1.19-7.02,3.28-10.07,2.9-4.23,6.84-6.26,11.93-5.65,5.08,.61,8.03,3.88,9.32,8.58,2.31,8.43,2.41,17.18,3.19,25.81,.72,7.92,3.08,15.12,7.22,21.87,2.35,3.84,5.61,5.97,9.98,6.88,22.23,4.61,44.65,5.46,67.13,2.76,55.63-6.68,104.62-28.73,147.4-64.75,4.5-3.79,8.73-7.93,13-11.99,2.25-2.14,4.68-3.55,7.28-1.02,2.76,2.7,.9,5.07-1.23,7.15-28.01,27.37-60.45,47.85-96.85,62.11-25.6,10.03-52.12,16.14-79.58,18.03-20.87,1.44-41.56,.03-61.93-4.72-8.81-2.05-12.54-9.5-16.14-16.84-5.51-11.23-4.72-23.58-6.33-35.51-.29-2.15-.46-4.32-.9-6.44-.32-1.55-1.08-3.02-2.91-3.22-1.98-.22-3.28,1.01-3.97,2.64-.71,1.7-1.19,3.53-1.51,5.34-1.59,9.01-3.14,18.02-4.62,27.05-.44,2.68-1.29,4.95-4.43,5.03-3.1,.08-4-2.19-4.79-4.74-5.88-19.1-11.85-38.17-19.1-56.81-.5-1.28-1.24-2.52-2.1-3.6-1.27-1.6-2.94-2.24-4.95-1.27-1.86,.9-2.28,2.5-1.8,4.31,1.11,4.19,2.36,8.34,3.51,12.51,2.53,9.11,4.99,18.24,7.56,27.35,.77,2.73,1.13,5.4-1.79,6.91-3.08,1.59-4.89-.59-6.47-2.86-10.08-14.52-20.16-29.05-30.24-43.57-.53-.76-.97-1.62-1.61-2.28-1.55-1.58-2.85-4.2-5.7-2.44-2.69,1.66-3.09,4.38-1.76,6.95,2.27,4.4,4.86,8.64,7.43,12.87,7.73,12.72,15.52,25.4,23.29,38.1,.49,.79,.93,1.61,1.4,2.42,1.23,2.11,1.41,4.16-.61,5.86-2.01,1.68-4.09,1.19-5.92-.34-4.89-4.07-9.73-8.19-14.58-12.32-6.97-5.93-13.88-11.94-20.92-17.78-1.55-1.29-3.66-3.76-5.54-1.9-1.73,1.72,.29,4.03,1.67,5.68,9.95,11.9,19.93,23.77,29.93,35.62,1.75,2.07,3.76,4.16,1.84,6.94-1.88,2.72-4.57,1.9-7.16,.93-7.99-2.99-15.97-5.98-24-8.87-1.61-.58-3.84-2.55-4.97-.5-1.35,2.45,1.78,3.22,3.22,4.2,19.49,13.28,39.08,26.42,58.61,39.64,12.08,8.18,24.3,16.13,36.66,23.88,19.64,12.31,41.61,17.63,64.04,21.26,49.25,7.97,97.37,2.5,144.61-12.89,33.11-10.79,64.06-25.92,92.87-45.47,2.64-1.79,5.46-3.08,7.66,.29,2.07,3.17-.2,5.16-2.67,6.82-32.74,21.85-67.8,38.81-105.64,49.82-27.68,8.05-55.9,12.93-84.79,13.54-.45,0-.89,.23-1.34,.35-12.51-.5-25.02-1.01-37.53-1.51Z"/><path d="M18.27,1436.31c10.78-2.21,21.45,4.83,23.8,15.7,2.37,10.95-4.89,21.93-15.89,24.04-11,2.11-21.79-4.99-23.79-15.66-2.13-11.36,4.75-21.8,15.88-24.08Zm13.07,18.24c-1-5.24-5.78-8.78-10.74-7.96-4.75,.79-8.35,6.15-7.5,11.2,.84,5.03,5.91,8.66,10.89,7.79,5.1-.88,8.35-5.77,7.35-11.03Z"/><path d="M365.66,1347.99c.1-2.91,.14-5.82,.32-8.72,.18-3.01,1.68-4.8,4.87-5.06,3.26-.27,5.06,1.47,5.52,4.33,.58,3.62,.64,7.32,.92,10.99-.04,5.09-.03,10.19-.13,15.29-.1,5.33-1.63,6.86-7.03,6.87-4.95,0-9.91-.15-14.86-.34-3.29-.12-4.84,1-4.58,4.61,.31,4.31,.14,8.66,.12,12.99-.02,3.68-2.13,5.42-5.6,5.33-3.42-.08-4.94-2.38-5.02-5.53-.2-7.43-.24-14.87-.34-22.31-.07-4.8,3.12-6.09,7.03-6.15,4.79-.07,9.6,.05,14.37,.38,3.71,.26,5.66-.7,5.02-4.86-.4-2.58-.41-5.22-.59-7.83Z"/><path d="M194.12,1330.89c2.39-15.26,4.79-30.52,7.18-45.78,.17-1.07,.3-2.15,.46-3.22,.57-3.7,1.95-6.88,6.42-6.22,4.6,.69,4.69,4.41,4.23,7.93-.96,7.21-2.17,14.39-3.21,21.6-1.36,9.48-2.66,18.97-3.99,28.45-.49,2.09-.94,4.19-1.49,6.27-.76,2.86-2.84,3.97-5.61,3.79-3.01-.2-4.4-2.23-4.49-4.97-.08-2.61,.31-5.24,.49-7.85Z"/><path d="M131.23,1329.8c-3.12-5.25-7.98-9.02-11.7-13.76-2.14-2.72-2.57-5.33,.28-7.73,2.6-2.19,5.1-1.73,7.39,.66,2.24,2.33,4.08,5.06,6.8,6.92,5.33,5.96,10.65,11.93,15.98,17.89,.82,.92,1.73,1.77,2.46,2.76,1.92,2.55,2.1,5.28-.27,7.5-2.42,2.26-5.16,1.88-7.41-.44-3.54-3.66-6.94-7.44-10.38-11.18-.94-1.02-1.73-2.19-3.15-2.61Z"/><path d="M29.36,1397.69c1.24,6.4-2.92,12.75-9.17,13.98-6.14,1.21-12.7-3.2-13.94-9.37-1.3-6.47,2.75-12.48,9.32-13.8,6.68-1.34,12.51,2.54,13.79,9.18Z"/><path d="M158.25,1297.21c-1.22-4.63-2.46-9.26-3.64-13.9-.78-3.08-.14-5.69,3.16-6.71,3.44-1.07,5.85,.6,6.77,3.86,2.65,9.36,5.15,18.77,7.59,28.19,.93,3.57,.13,6.74-3.93,7.57-4.16,.85-5.62-2.01-6.46-5.55-1.07-4.51-2.41-8.95-3.64-13.42l.14-.04Z"/><path d="M283.8,1333.13c-1.26-5.78,1.9-10.82,7.46-11.93,5.21-1.03,10.48,2.35,11.67,7.49,1.2,5.2-2.44,10.9-7.67,11.99-5.39,1.12-10.28-2.1-11.47-7.55Z"/><path d="M50.75,1605.56c9.75-6.55,19.88-12.51,29.43-19.41,17.46-12.61,31.91-27.91,43.61-45.98,18.3-28.27,36.8-56.41,55.2-84.62,1.18-1.81,2.33-3.69,3.19-5.67,2.12-4.94,1.22-8.79-2.5-11.67-4.04-3.13-8.8-3.22-12.89-.21-3.59,2.65-6.21,6.45-10.13,8.81-1.31-1.48-.24-2.76,.13-3.96,2.41-7.86,4.92-15.68,7.36-23.53,.41-1.33,.72-2.7,.93-4.07,1.11-7.35-1.42-12.68-6.9-14.62-4.87-1.72-10,.86-13.64,7.11-1.31,2.24-2.55,4.53-3.61,6.94-.94,2.13-1.23,4.81-4.13,6.64-.68-4.32,.17-8.3,.44-12.2,.33-4.63,1.26-9.22,1.99-13.82,.4-2.48,.41-4.94-.06-7.4-1.24-6.54-6.42-11.47-12.54-11.93-5.85-.44-10.55,3.2-12.34,10.45-2.3,9.33-4.09,18.79-6.1,28.19-.19,.88-.43,1.75-1.37,2.66-.73-5.03-1.45-10.06-2.19-15.09-1.14-7.79-5.59-11.91-12.46-11.56-6.73,.34-11.79,5.58-12.18,12.89-.61,11.49,.76,22.91,1.6,34.34,.26,3.6,.53,7.19,.87,11.93-2.94-2.79-4.26-5.15-5.61-7.5-1.79-3.12-3.83-6-6.95-7.99-4.32-2.76-8.74-3.09-13.19-.55-4.44,2.54-5.88,6.7-5.24,11.53,1.16,8.67,4.48,16.76,7.13,25.01,2.43,7.58,3.06,15.13,1.88,22.95-.67,4.45-2.84,7.69-6.51,10.23-18.68,12.91-38.99,22.44-60.74,28.72-53.83,15.54-107.54,14.35-160.97-2.14-5.63-1.74-11.13-3.9-16.64-5.97-2.91-1.1-5.69-1.45-7.1,1.9-1.49,3.56,1.15,5.02,3.92,6.11,36.47,14.28,74.33,20.48,113.41,19.42,27.49-.75,54.29-5.46,80.31-14.43,19.78-6.82,38.28-16.18,55.19-28.5,7.31-5.33,7.85-13.64,8.3-21.8,.69-12.49-4.86-23.55-8.02-35.16-.57-2.09-1.26-4.16-1.68-6.28-.31-1.55-.18-3.2,1.43-4.1,1.74-.98,3.42-.35,4.68,.89,1.32,1.28,2.47,2.79,3.47,4.33,4.98,7.67,9.92,15.37,14.8,23.11,1.45,2.3,3.12,4.05,6.04,2.9,2.89-1.14,2.83-3.57,2.56-6.24-2.03-19.88-3.98-39.77-4.57-59.76-.04-1.38,.16-2.81,.52-4.14,.54-1.97,1.83-3.21,4.06-3.1,2.07,.1,3.08,1.42,3.34,3.26,.61,4.29,1.08,8.6,1.64,12.89,1.23,9.38,2.52,18.75,3.7,28.13,.36,2.82,1.07,5.41,4.34,5.67,3.45,.27,4.27-2.45,4.84-5.16,3.62-17.3,7.24-34.61,10.86-51.91,.19-.91,.26-1.87,.59-2.72,.81-2.06,.99-4.98,4.29-4.47,3.12,.48,4.55,2.83,4.34,5.72-.37,4.94-1.11,9.85-1.82,14.75-2.16,14.73-4.39,29.44-6.59,44.17-.14,.92-.23,1.85-.35,2.77-.31,2.42,.32,4.38,2.85,5.16,2.51,.77,4.23-.5,5.32-2.62,2.92-5.65,5.77-11.34,8.62-17.03,4.1-8.18,8.12-16.4,12.33-24.53,.93-1.79,1.9-4.89,4.36-3.91,2.27,.91,1.31,3.82,.68,5.89-4.53,14.84-9.08,29.66-13.67,44.48-.8,2.59-1.84,5.29,1.01,7.11,2.79,1.77,4.95-.03,6.95-1.93,6.19-5.87,12.38-11.74,18.64-17.52,1.26-1.16,2.54-3.84,4.38-2.4,2.2,1.73-.39,3.66-1.33,5.12-12.77,19.83-25.68,39.57-38.51,59.36-7.93,12.24-16.08,24.33-24.44,36.29-13.29,19-31.44,32.47-50.68,44.56-42.24,26.55-88.69,40.28-138.18,44.52-34.7,2.98-69.1,1.11-103.25-5.65-3.13-.62-6.23-.71-6.94,3.25-.67,3.73,2.2,4.68,5.12,5.24,38.67,7.36,77.57,9.29,116.7,4.67,28.63-3.38,56.52-9.89,83.36-20.6,.42-.17,.91-.14,1.37-.2,11.32-5.34,22.65-10.69,33.97-16.03Z"/></g><g><path d="M1234.35,1357.07c-11.54-2.23-23.18-3.77-34.66-6.39-21-4.81-40.27-13.26-58.09-25.33-27.88-18.89-55.89-37.59-83.83-56.4-1.8-1.21-3.59-2.49-5.15-3.98-3.88-3.72-4.55-7.61-2.25-11.73,2.5-4.46,6.84-6.4,11.79-5.22,4.34,1.03,8.23,3.52,12.77,4.16,.63-1.88-.86-2.63-1.67-3.59-5.28-6.29-10.65-12.52-15.95-18.8-.9-1.06-1.72-2.2-2.45-3.38-3.89-6.34-3.64-12.23,.65-16.15,3.81-3.48,9.54-3.11,15.33,1.22,2.08,1.55,4.12,3.18,6.03,4.98,1.69,1.59,3.01,3.95,6.39,4.5-1.06-4.25-3.39-7.58-5.17-11.06-2.11-4.14-4.75-8-7.22-11.95-1.33-2.13-2.3-4.39-2.83-6.84-1.41-6.51,1.44-13.06,6.9-15.87,5.22-2.68,10.96-1.17,15.44,4.81,5.76,7.69,11.09,15.71,16.61,23.58,.52,.74,1.08,1.45,2.3,1.92-1.29-4.92-2.59-9.83-3.87-14.75-1.98-7.62,.5-13.15,6.96-15.51,6.33-2.31,13.04,.54,16.24,7.11,5.05,10.35,8.23,21.39,11.92,32.25,1.16,3.41,2.32,6.83,3.85,11.33,1.62-3.71,1.91-6.41,2.24-9.09,.43-3.57,1.19-7.02,3.28-10.07,2.9-4.23,6.84-6.26,11.93-5.65,5.08,.61,8.03,3.88,9.32,8.58,2.31,8.43,2.41,17.18,3.19,25.81,.72,7.92,3.08,15.12,7.22,21.87,2.35,3.84,5.61,5.97,9.98,6.88,22.23,4.61,44.65,5.46,67.13,2.76,55.63-6.68,104.62-28.73,147.4-64.75,4.5-3.79,8.73-7.93,13-11.99,2.25-2.14,4.68-3.55,7.28-1.02,2.76,2.7,.9,5.07-1.23,7.15-28.01,27.37-60.45,47.85-96.85,62.11-25.6,10.03-52.12,16.14-79.58,18.03-20.87,1.44-41.56,.03-61.93-4.72-8.81-2.05-12.54-9.5-16.14-16.84-5.51-11.23-4.72-23.58-6.33-35.51-.29-2.15-.46-4.32-.9-6.44-.32-1.55-1.08-3.02-2.91-3.22-1.98-.22-3.28,1.01-3.97,2.64-.71,1.7-1.19,3.53-1.51,5.34-1.59,9.01-3.14,18.02-4.62,27.05-.44,2.68-1.29,4.95-4.43,5.03-3.1,.08-4-2.19-4.79-4.74-5.88-19.1-11.85-38.17-19.1-56.81-.5-1.28-1.24-2.52-2.1-3.6-1.27-1.6-2.94-2.24-4.95-1.27-1.86,.9-2.28,2.5-1.8,4.31,1.11,4.19,2.36,8.34,3.51,12.51,2.53,9.11,4.99,18.24,7.56,27.35,.77,2.73,1.13,5.4-1.79,6.91-3.08,1.59-4.89-.59-6.47-2.86-10.08-14.52-20.16-29.05-30.24-43.57-.53-.76-.97-1.62-1.61-2.28-1.55-1.58-2.85-4.2-5.7-2.44-2.69,1.66-3.09,4.38-1.76,6.95,2.27,4.4,4.86,8.64,7.43,12.87,7.73,12.72,15.52,25.4,23.29,38.1,.49,.79,.93,1.61,1.4,2.42,1.23,2.11,1.41,4.16-.61,5.86-2.01,1.68-4.09,1.19-5.92-.34-4.89-4.07-9.73-8.19-14.58-12.32-6.97-5.93-13.88-11.94-20.92-17.78-1.55-1.29-3.66-3.76-5.54-1.9-1.73,1.72,.29,4.03,1.67,5.68,9.95,11.9,19.93,23.77,29.93,35.62,1.75,2.07,3.76,4.16,1.84,6.94-1.88,2.72-4.57,1.9-7.16,.93-7.99-2.99-15.97-5.98-24-8.87-1.61-.58-3.84-2.55-4.97-.5-1.35,2.45,1.78,3.22,3.22,4.2,19.49,13.28,39.08,26.42,58.61,39.64,12.08,8.18,24.3,16.13,36.66,23.88,19.64,12.31,41.61,17.63,64.04,21.26,49.25,7.97,97.37,2.5,144.61-12.89,33.11-10.79,64.06-25.92,92.87-45.47,2.64-1.79,5.46-3.08,7.66,.29,2.07,3.17-.2,5.16-2.67,6.82-32.74,21.85-67.8,38.81-105.64,49.82-27.68,8.05-55.9,12.93-84.79,13.54-.45,0-.89,.23-1.34,.35-12.51-.5-25.02-1.01-37.53-1.51Z"/><path d="M865.77,1264.24c10.78-2.21,21.45,4.83,23.8,15.7,2.37,10.95-4.89,21.93-15.89,24.04-11,2.11-21.79-4.99-23.79-15.66-2.13-11.36,4.75-21.8,15.88-24.08Zm13.07,18.24c-1-5.24-5.78-8.78-10.74-7.96-4.75,.79-8.35,6.15-7.5,11.2,.84,5.03,5.91,8.66,10.89,7.79,5.1-.88,8.35-5.77,7.35-11.03Z"/><path d="M1041.62,1158.81c2.39-15.26,4.79-30.52,7.18-45.78,.17-1.07,.3-2.15,.46-3.22,.57-3.7,1.95-6.88,6.42-6.22,4.6,.69,4.69,4.41,4.23,7.93-.96,7.21-2.17,14.39-3.21,21.6-1.36,9.48-2.66,18.97-3.99,28.45-.49,2.09-.94,4.19-1.49,6.27-.76,2.86-2.84,3.97-5.61,3.79-3.01-.2-4.4-2.23-4.49-4.97-.08-2.61,.31-5.24,.49-7.85Z"/><path d="M978.73,1157.72c-3.12-5.25-7.98-9.02-11.7-13.76-2.14-2.72-2.57-5.33,.28-7.73,2.6-2.19,5.1-1.73,7.39,.66,2.24,2.33,4.08,5.06,6.8,6.92,5.33,5.96,10.65,11.93,15.98,17.89,.82,.92,1.73,1.77,2.46,2.76,1.92,2.55,2.1,5.28-.27,7.5-2.42,2.26-5.16,1.88-7.41-.44-3.54-3.66-6.94-7.44-10.38-11.18-.94-1.02-1.73-2.19-3.15-2.61Z"/><path d="M876.86,1225.61c1.24,6.4-2.92,12.75-9.17,13.98-6.14,1.21-12.7-3.2-13.94-9.37-1.3-6.47,2.75-12.48,9.32-13.8,6.68-1.34,12.51,2.54,13.79,9.18Z"/><path d="M1005.75,1125.13c-1.22-4.63-2.46-9.26-3.64-13.9-.78-3.08-.14-5.69,3.16-6.71,3.44-1.07,5.85,.6,6.77,3.86,2.65,9.36,5.15,18.77,7.59,28.19,.93,3.57,.13,6.74-3.93,7.57-4.16,.85-5.62-2.01-6.46-5.55-1.07-4.51-2.41-8.95-3.64-13.42l.14-.04Z"/><path d="M898.25,1433.48c9.75-6.55,19.88-12.51,29.43-19.41,17.46-12.61,31.91-27.91,43.61-45.98,18.3-28.27,36.8-56.41,55.2-84.62,1.18-1.81,2.33-3.69,3.19-5.67,2.12-4.94,1.22-8.79-2.5-11.67-4.04-3.13-8.8-3.22-12.89-.21-3.59,2.65-6.21,6.45-10.13,8.81-1.31-1.48-.24-2.76,.13-3.96,2.41-7.86,4.92-15.68,7.36-23.53,.41-1.33,.72-2.7,.93-4.07,1.11-7.35-1.42-12.68-6.9-14.62-4.87-1.72-10,.86-13.64,7.11-1.31,2.24-2.55,4.53-3.61,6.94-.94,2.13-1.23,4.81-4.13,6.64-.68-4.32,.17-8.3,.44-12.2,.33-4.63,1.26-9.22,1.99-13.82,.4-2.48,.41-4.94-.06-7.4-1.24-6.54-6.42-11.47-12.54-11.93-5.85-.44-10.55,3.2-12.34,10.45-2.3,9.33-4.09,18.79-6.1,28.19-.19,.88-.43,1.75-1.37,2.66-.73-5.03-1.45-10.06-2.19-15.09-1.14-7.79-5.59-11.91-12.46-11.56-6.73,.34-11.79,5.58-12.18,12.89-.61,11.49,.76,22.91,1.6,34.34,.26,3.6,.53,7.19,.87,11.93-2.94-2.79-4.26-5.15-5.61-7.5-1.79-3.12-3.83-6-6.95-7.99-4.32-2.76-8.74-3.09-13.19-.55-4.44,2.54-5.88,6.7-5.24,11.53,1.16,8.67,4.48,16.76,7.13,25.01,2.43,7.58,3.06,15.13,1.88,22.95-.67,4.45-2.84,7.69-6.51,10.23-18.68,12.91-38.99,22.44-60.74,28.72-53.83,15.54-107.54,14.35-160.97-2.14-5.63-1.74-11.13-3.9-16.64-5.97-2.91-1.1-5.69-1.45-7.1,1.9-1.49,3.56,1.15,5.02,3.92,6.11,36.47,14.28,74.33,20.48,113.41,19.42,27.49-.75,54.29-5.46,80.31-14.43,19.78-6.82,38.28-16.18,55.19-28.5,7.31-5.33,7.85-13.64,8.3-21.8,.69-12.49-4.86-23.55-8.02-35.16-.57-2.09-1.26-4.16-1.68-6.28-.31-1.55-.18-3.2,1.43-4.1,1.74-.98,3.42-.35,4.68,.89,1.32,1.28,2.47,2.79,3.47,4.33,4.98,7.67,9.92,15.37,14.8,23.11,1.45,2.3,3.12,4.05,6.04,2.9,2.89-1.14,2.83-3.57,2.56-6.24-2.03-19.88-3.98-39.77-4.57-59.76-.04-1.38,.16-2.81,.52-4.14,.54-1.97,1.83-3.21,4.06-3.1,2.07,.1,3.08,1.42,3.34,3.26,.61,4.29,1.08,8.6,1.64,12.89,1.23,9.38,2.52,18.75,3.7,28.13,.36,2.82,1.07,5.41,4.34,5.67,3.45,.27,4.27-2.45,4.84-5.16,3.62-17.3,7.24-34.61,10.86-51.91,.19-.91,.26-1.87,.59-2.72,.81-2.06,.99-4.98,4.29-4.47,3.12,.48,4.55,2.83,4.34,5.72-.37,4.94-1.11,9.85-1.82,14.75-2.16,14.73-4.39,29.44-6.59,44.17-.14,.92-.23,1.85-.35,2.77-.31,2.42,.32,4.38,2.85,5.16,2.51,.77,4.23-.5,5.32-2.62,2.92-5.65,5.77-11.34,8.62-17.03,4.1-8.18,8.12-16.4,12.33-24.53,.93-1.79,1.9-4.89,4.36-3.91,2.27,.91,1.31,3.82,.68,5.89-4.53,14.84-9.08,29.66-13.67,44.48-.8,2.59-1.84,5.29,1.01,7.11,2.79,1.77,4.95-.03,6.95-1.93,6.19-5.87,12.38-11.74,18.64-17.52,1.26-1.16,2.54-3.84,4.38-2.4,2.2,1.73-.39,3.66-1.33,5.12-12.77,19.83-25.68,39.57-38.51,59.36-7.93,12.24-16.08,24.33-24.44,36.29-13.29,19-31.44,32.47-50.68,44.56-42.24,26.55-88.69,40.28-138.18,44.52-34.7,2.98-69.1,1.11-103.25-5.65-3.13-.62-6.23-.71-6.94,3.25-.67,3.73,2.2,4.68,5.12,5.24,38.67,7.36,77.57,9.29,116.7,4.67,28.63-3.38,56.52-9.89,83.36-20.6,.42-.17,.91-.14,1.37-.2,11.32-5.34,22.65-10.69,33.97-16.03Z"/></g></g><g><g><path d="M447.29,1826.84c-11.54-2.23-23.18-3.77-34.66-6.39-21-4.81-40.27-13.26-58.09-25.33-27.88-18.89-55.89-37.59-83.83-56.4-1.8-1.21-3.59-2.49-5.15-3.98-3.88-3.72-4.55-7.61-2.25-11.73,2.5-4.46,6.84-6.4,11.79-5.22,4.34,1.03,8.23,3.52,12.77,4.16,.63-1.88-.86-2.63-1.67-3.59-5.28-6.29-10.65-12.52-15.95-18.8-.9-1.06-1.72-2.2-2.45-3.38-3.89-6.34-3.64-12.23,.65-16.15,3.81-3.48,9.54-3.11,15.33,1.22,2.08,1.55,4.12,3.18,6.03,4.98,1.69,1.59,3.01,3.95,6.39,4.5-1.06-4.25-3.39-7.58-5.17-11.06-2.11-4.14-4.75-8-7.22-11.95-1.33-2.13-2.3-4.39-2.83-6.84-1.41-6.51,1.44-13.06,6.9-15.87,5.22-2.68,10.96-1.17,15.44,4.81,5.76,7.69,11.09,15.71,16.61,23.58,.52,.74,1.08,1.45,2.3,1.92-1.29-4.92-2.59-9.83-3.87-14.75-1.98-7.62,.5-13.15,6.96-15.51,6.33-2.31,13.04,.54,16.24,7.11,5.05,10.35,8.23,21.39,11.92,32.25,1.16,3.41,2.32,6.83,3.85,11.33,1.62-3.71,1.91-6.41,2.24-9.09,.43-3.57,1.19-7.02,3.28-10.07,2.9-4.23,6.84-6.26,11.93-5.65,5.08,.61,8.03,3.88,9.32,8.58,2.31,8.43,2.41,17.18,3.19,25.81,.72,7.92,3.08,15.12,7.22,21.87,2.35,3.84,5.61,5.97,9.98,6.88,22.23,4.61,44.65,5.46,67.13,2.76,55.63-6.68,104.62-28.73,147.4-64.75,4.5-3.79,8.73-7.93,13-11.99,2.25-2.14,4.68-3.55,7.28-1.02,2.76,2.7,.9,5.07-1.23,7.15-28.01,27.37-60.45,47.85-96.85,62.11-25.6,10.03-52.12,16.14-79.58,18.03-20.87,1.44-41.56,.03-61.93-4.72-8.81-2.05-12.54-9.5-16.14-16.84-5.51-11.23-4.72-23.58-6.33-35.51-.29-2.15-.46-4.32-.9-6.44-.32-1.55-1.08-3.02-2.91-3.22-1.98-.22-3.28,1.01-3.97,2.64-.71,1.7-1.19,3.53-1.51,5.34-1.59,9.01-3.14,18.02-4.62,27.05-.44,2.68-1.29,4.95-4.43,5.03-3.1,.08-4-2.19-4.79-4.74-5.88-19.1-11.85-38.17-19.1-56.81-.5-1.28-1.24-2.52-2.1-3.6-1.27-1.6-2.94-2.24-4.95-1.27-1.86,.9-2.28,2.5-1.8,4.31,1.11,4.19,2.36,8.34,3.51,12.51,2.53,9.11,4.99,18.24,7.56,27.35,.77,2.73,1.13,5.4-1.79,6.91-3.08,1.59-4.89-.59-6.47-2.86-10.08-14.52-20.16-29.05-30.24-43.57-.53-.76-.97-1.62-1.61-2.28-1.55-1.58-2.85-4.2-5.7-2.44-2.69,1.66-3.09,4.38-1.76,6.95,2.27,4.4,4.86,8.64,7.43,12.87,7.73,12.72,15.52,25.4,23.29,38.1,.49,.79,.93,1.61,1.4,2.42,1.23,2.11,1.41,4.16-.61,5.86-2.01,1.68-4.09,1.19-5.92-.34-4.89-4.07-9.73-8.19-14.58-12.32-6.97-5.93-13.88-11.94-20.92-17.78-1.55-1.29-3.66-3.76-5.54-1.9-1.73,1.72,.29,4.03,1.67,5.68,9.95,11.9,19.93,23.77,29.93,35.62,1.75,2.07,3.76,4.16,1.84,6.94-1.88,2.72-4.57,1.9-7.16,.93-7.99-2.99-15.97-5.98-24-8.87-1.61-.58-3.84-2.55-4.97-.5-1.35,2.45,1.78,3.22,3.22,4.2,19.49,13.28,39.08,26.42,58.61,39.64,12.08,8.18,24.3,16.13,36.66,23.88,19.64,12.31,41.61,17.63,64.04,21.26,49.25,7.97,97.37,2.5,144.61-12.89,33.11-10.79,64.06-25.92,92.87-45.47,2.64-1.79,5.46-3.08,7.66,.29,2.07,3.17-.2,5.16-2.67,6.82-32.74,21.85-67.8,38.81-105.64,49.82-27.68,8.05-55.9,12.93-84.79,13.54-.45,0-.89,.23-1.34,.35-12.51-.5-25.02-1.01-37.53-1.51Z"/><path d="M78.72,1734.01c10.78-2.21,21.45,4.83,23.8,15.7,2.37,10.95-4.89,21.93-15.89,24.04-11,2.11-21.79-4.99-23.79-15.66-2.13-11.36,4.75-21.8,15.88-24.08Zm13.07,18.24c-1-5.24-5.78-8.78-10.74-7.96-4.75,.79-8.35,6.15-7.5,11.2,.84,5.03,5.91,8.66,10.89,7.79,5.1-.88,8.35-5.77,7.35-11.03Z"/><path d="M426.1,1645.68c.1-2.91,.14-5.82,.32-8.72,.18-3.01,1.68-4.8,4.87-5.06,3.26-.27,5.06,1.47,5.52,4.33,.58,3.62,.64,7.32,.92,10.99-.04,5.09-.03,10.19-.13,15.29-.1,5.33-1.63,6.86-7.03,6.87-4.95,0-9.91-.15-14.86-.34-3.29-.12-4.84,1-4.58,4.61,.31,4.31,.14,8.66,.12,12.99-.02,3.68-2.13,5.42-5.6,5.33-3.42-.08-4.94-2.38-5.02-5.53-.2-7.43-.24-14.87-.34-22.31-.07-4.8,3.12-6.09,7.03-6.15,4.79-.07,9.6,.05,14.37,.38,3.71,.26,5.66-.7,5.02-4.86-.4-2.58-.41-5.22-.59-7.83Z"/><path d="M254.56,1628.58c2.39-15.26,4.79-30.52,7.18-45.78,.17-1.07,.3-2.15,.46-3.22,.57-3.7,1.95-6.88,6.42-6.22,4.6,.69,4.69,4.41,4.23,7.93-.96,7.21-2.17,14.39-3.21,21.6-1.36,9.48-2.66,18.97-3.99,28.45-.49,2.09-.94,4.19-1.49,6.27-.76,2.86-2.84,3.97-5.61,3.79-3.01-.2-4.4-2.23-4.49-4.97-.08-2.61,.31-5.24,.49-7.85Z"/><path d="M191.67,1627.49c-3.12-5.25-7.98-9.02-11.7-13.76-2.14-2.72-2.57-5.33,.28-7.73,2.6-2.19,5.1-1.73,7.39,.66,2.24,2.33,4.08,5.06,6.8,6.92,5.33,5.96,10.65,11.93,15.98,17.89,.82,.92,1.73,1.77,2.46,2.76,1.92,2.55,2.1,5.28-.27,7.5-2.42,2.26-5.16,1.88-7.41-.44-3.54-3.66-6.94-7.44-10.38-11.18-.94-1.02-1.73-2.19-3.15-2.61Z"/><path d="M89.8,1695.38c1.24,6.4-2.92,12.75-9.17,13.98-6.14,1.21-12.7-3.2-13.94-9.37-1.3-6.47,2.75-12.48,9.32-13.8,6.68-1.34,12.51,2.54,13.79,9.18Z"/><path d="M218.69,1594.9c-1.22-4.63-2.46-9.26-3.64-13.9-.78-3.08-.14-5.69,3.16-6.71,3.44-1.07,5.85,.6,6.77,3.86,2.65,9.36,5.15,18.77,7.59,28.19,.93,3.57,.13,6.74-3.93,7.57-4.16,.85-5.62-2.01-6.46-5.55-1.07-4.51-2.41-8.95-3.64-13.42l.14-.04Z"/><path d="M344.24,1630.83c-1.26-5.78,1.9-10.82,7.46-11.93,5.21-1.03,10.48,2.35,11.67,7.49,1.2,5.2-2.44,10.9-7.67,11.99-5.39,1.12-10.28-2.1-11.47-7.55Z"/><path d="M111.19,1903.25c9.75-6.55,19.88-12.51,29.43-19.41,17.46-12.61,31.91-27.91,43.61-45.98,18.3-28.27,36.8-56.41,55.2-84.62,1.18-1.81,2.33-3.69,3.19-5.67,2.12-4.94,1.22-8.79-2.5-11.67-4.04-3.13-8.8-3.22-12.89-.21-3.59,2.65-6.21,6.45-10.13,8.81-1.31-1.48-.24-2.76,.13-3.96,2.41-7.86,4.92-15.68,7.36-23.53,.41-1.33,.72-2.7,.93-4.07,1.11-7.35-1.42-12.68-6.9-14.62-4.87-1.72-10,.86-13.64,7.11-1.31,2.24-2.55,4.53-3.61,6.94-.94,2.13-1.23,4.81-4.13,6.64-.68-4.32,.17-8.3,.44-12.2,.33-4.63,1.26-9.22,1.99-13.82,.4-2.48,.41-4.94-.06-7.4-1.24-6.54-6.42-11.47-12.54-11.93-5.85-.44-10.55,3.2-12.34,10.45-2.3,9.33-4.09,18.79-6.1,28.19-.19,.88-.43,1.75-1.37,2.66-.73-5.03-1.45-10.06-2.19-15.09-1.14-7.79-5.59-11.91-12.46-11.56-6.73,.34-11.79,5.58-12.18,12.89-.61,11.49,.76,22.91,1.6,34.34,.26,3.6,.53,7.19,.87,11.93-2.94-2.79-4.26-5.15-5.61-7.5-1.79-3.12-3.83-6-6.95-7.99-4.32-2.76-8.74-3.09-13.19-.55-4.44,2.54-5.88,6.7-5.24,11.53,1.16,8.67,4.48,16.76,7.13,25.01,2.43,7.58,3.06,15.13,1.88,22.95-.67,4.45-2.84,7.69-6.51,10.23-18.68,12.91-38.99,22.44-60.74,28.72-53.83,15.54-107.54,14.35-160.97-2.14-5.63-1.74-11.13-3.9-16.64-5.97-2.91-1.1-5.69-1.45-7.1,1.9-1.49,3.56,1.15,5.02,3.92,6.11,36.47,14.28,74.33,20.48,113.41,19.42,27.49-.75,54.29-5.46,80.31-14.43,19.78-6.82,38.28-16.18,55.19-28.5,7.31-5.33,7.85-13.64,8.3-21.8,.69-12.49-4.86-23.55-8.02-35.16-.57-2.09-1.26-4.16-1.68-6.28-.31-1.55-.18-3.2,1.43-4.1,1.74-.98,3.42-.35,4.68,.89,1.32,1.28,2.47,2.79,3.47,4.33,4.98,7.67,9.92,15.37,14.8,23.11,1.45,2.3,3.12,4.05,6.04,2.9,2.89-1.14,2.83-3.57,2.56-6.24-2.03-19.88-3.98-39.77-4.57-59.76-.04-1.38,.16-2.81,.52-4.14,.54-1.97,1.83-3.21,4.06-3.1,2.07,.1,3.08,1.42,3.34,3.26,.61,4.29,1.08,8.6,1.64,12.89,1.23,9.38,2.52,18.75,3.7,28.13,.36,2.82,1.07,5.41,4.34,5.67,3.45,.27,4.27-2.45,4.84-5.16,3.62-17.3,7.24-34.61,10.86-51.91,.19-.91,.26-1.87,.59-2.72,.81-2.06,.99-4.98,4.29-4.47,3.12,.48,4.55,2.83,4.34,5.72-.37,4.94-1.11,9.85-1.82,14.75-2.16,14.73-4.39,29.44-6.59,44.17-.14,.92-.23,1.85-.35,2.77-.31,2.42,.32,4.38,2.85,5.16,2.51,.77,4.23-.5,5.32-2.62,2.92-5.65,5.77-11.34,8.62-17.03,4.1-8.18,8.12-16.4,12.33-24.53,.93-1.79,1.9-4.89,4.36-3.91,2.27,.91,1.31,3.82,.68,5.89-4.53,14.84-9.08,29.66-13.67,44.48-.8,2.59-1.84,5.29,1.01,7.11,2.79,1.77,4.95-.03,6.95-1.93,6.19-5.87,12.38-11.74,18.64-17.52,1.26-1.16,2.54-3.84,4.38-2.4,2.2,1.73-.39,3.66-1.33,5.12-12.77,19.83-25.68,39.57-38.51,59.36-7.93,12.24-16.08,24.33-24.44,36.29-13.29,19-31.44,32.47-50.68,44.56-42.24,26.55-88.69,40.28-138.18,44.52-34.7,2.98-69.1,1.11-103.25-5.65-3.13-.62-6.23-.71-6.94,3.25-.67,3.73,2.2,4.68,5.12,5.24,38.67,7.36,77.57,9.29,116.7,4.67,28.63-3.38,56.52-9.89,83.36-20.6,.42-.17,.91-.14,1.37-.2,11.32-5.34,22.65-10.69,33.97-16.03Z"/></g><g><path d="M926.22,1561.93c10.78-2.21,21.45,4.83,23.8,15.7,2.37,10.95-4.89,21.93-15.89,24.04-11,2.11-21.79-4.99-23.79-15.66-2.13-11.36,4.75-21.8,15.88-24.08Zm13.07,18.24c-1-5.24-5.78-8.78-10.74-7.96-4.75,.79-8.35,6.15-7.5,11.2,.84,5.03,5.91,8.66,10.89,7.79,5.1-.88,8.35-5.77,7.35-11.03Z"/><path d="M1039.17,1455.41c-3.12-5.25-7.98-9.02-11.7-13.76-2.14-2.72-2.57-5.33,.28-7.73,2.6-2.19,5.1-1.73,7.39,.66,2.24,2.33,4.08,5.06,6.8,6.92,5.33,5.96,10.65,11.93,15.98,17.89,.82,.92,1.73,1.77,2.46,2.76,1.92,2.55,2.1,5.28-.27,7.5-2.42,2.26-5.16,1.88-7.41-.44-3.54-3.66-6.94-7.44-10.38-11.18-.94-1.02-1.73-2.19-3.15-2.61Z"/><path d="M937.3,1523.31c1.24,6.4-2.92,12.75-9.17,13.98-6.14,1.21-12.7-3.2-13.94-9.37-1.3-6.47,2.75-12.48,9.32-13.8,6.68-1.34,12.51,2.54,13.79,9.18Z"/><path d="M1066.19,1422.83c-1.22-4.63-2.46-9.26-3.64-13.9-.78-3.08-.14-5.69,3.16-6.71,3.44-1.07,5.85,.6,6.77,3.86,2.65,9.36,5.15,18.77,7.59,28.19,.93,3.57,.13,6.74-3.93,7.57-4.16,.85-5.62-2.01-6.46-5.55-1.07-4.51-2.41-8.95-3.64-13.42l.14-.04Z"/><path d="M958.69,1731.18c9.75-6.55,19.88-12.51,29.43-19.41,17.46-12.61,31.91-27.91,43.61-45.98,18.3-28.27,36.8-56.41,55.2-84.62,1.18-1.81,2.33-3.69,3.19-5.67,2.12-4.94,1.22-8.79-2.5-11.67-4.04-3.13-8.8-3.22-12.89-.21-3.59,2.65-6.21,6.45-10.13,8.81-1.31-1.48-.24-2.76,.13-3.96,2.41-7.86,4.92-15.68,7.36-23.53,.41-1.33,.72-2.7,.93-4.07,1.11-7.35-1.42-12.68-6.9-14.62-4.87-1.72-10,.86-13.64,7.11-1.31,2.24-2.55,4.53-3.61,6.94-.94,2.13-1.23,4.81-4.13,6.64-.68-4.32,.17-8.3,.44-12.2,.33-4.63,1.26-9.22,1.99-13.82,.4-2.48,.41-4.94-.06-7.4-1.24-6.54-6.42-11.47-12.54-11.93-5.85-.44-10.55,3.2-12.34,10.45-2.3,9.33-4.09,18.79-6.1,28.19-.19,.88-.43,1.75-1.37,2.66-.73-5.03-1.45-10.06-2.19-15.09-1.14-7.79-5.59-11.91-12.46-11.56-6.73,.34-11.79,5.58-12.18,12.89-.61,11.49,.76,22.91,1.6,34.34,.26,3.6,.53,7.19,.87,11.93-2.94-2.79-4.26-5.15-5.61-7.5-1.79-3.12-3.83-6-6.95-7.99-4.32-2.76-8.74-3.09-13.19-.55-4.44,2.54-5.88,6.7-5.24,11.53,1.16,8.67,4.48,16.76,7.13,25.01,2.43,7.58,3.06,15.13,1.88,22.95-.67,4.45-2.84,7.69-6.51,10.23-18.68,12.91-38.99,22.44-60.74,28.72-53.83,15.54-107.54,14.35-160.97-2.14-5.63-1.74-11.13-3.9-16.64-5.97-2.91-1.1-5.69-1.45-7.1,1.9-1.49,3.56,1.15,5.02,3.92,6.11,36.47,14.28,74.33,20.48,113.41,19.42,27.49-.75,54.29-5.46,80.31-14.43,19.78-6.82,38.28-16.18,55.19-28.5,7.31-5.33,7.85-13.64,8.3-21.8,.69-12.49-4.86-23.55-8.02-35.16-.57-2.09-1.26-4.16-1.68-6.28-.31-1.55-.18-3.2,1.43-4.1,1.74-.98,3.42-.35,4.68,.89,1.32,1.28,2.47,2.79,3.47,4.33,4.98,7.67,9.92,15.37,14.8,23.11,1.45,2.3,3.12,4.05,6.04,2.9,2.89-1.14,2.83-3.57,2.56-6.24-2.03-19.88-3.98-39.77-4.57-59.76-.04-1.38,.16-2.81,.52-4.14,.54-1.97,1.83-3.21,4.06-3.1,2.07,.1,3.08,1.42,3.34,3.26,.61,4.29,1.08,8.6,1.64,12.89,1.23,9.38,2.52,18.75,3.7,28.13,.36,2.82,1.07,5.41,4.34,5.67,3.45,.27,4.27-2.45,4.84-5.16,3.62-17.3,7.24-34.61,10.86-51.91,.19-.91,.26-1.87,.59-2.72,.81-2.06,.99-4.98,4.29-4.47,3.12,.48,4.55,2.83,4.34,5.72-.37,4.94-1.11,9.85-1.82,14.75-2.16,14.73-4.39,29.44-6.59,44.17-.14,.92-.23,1.85-.35,2.77-.31,2.42,.32,4.38,2.85,5.16,2.51,.77,4.23-.5,5.32-2.62,2.92-5.65,5.77-11.34,8.62-17.03,4.1-8.18,8.12-16.4,12.33-24.53,.93-1.79,1.9-4.89,4.36-3.91,2.27,.91,1.31,3.82,.68,5.89-4.53,14.84-9.08,29.66-13.67,44.48-.8,2.59-1.84,5.29,1.01,7.11,2.79,1.77,4.95-.03,6.95-1.93,6.19-5.87,12.38-11.74,18.64-17.52,1.26-1.16,2.54-3.84,4.38-2.4,2.2,1.73-.39,3.66-1.33,5.12-12.77,19.83-25.68,39.57-38.51,59.36-7.93,12.24-16.08,24.33-24.44,36.29-13.29,19-31.44,32.47-50.68,44.56-42.24,26.55-88.69,40.28-138.18,44.52-34.7,2.98-69.1,1.11-103.25-5.65-3.13-.62-6.23-.71-6.94,3.25-.67,3.73,2.2,4.68,5.12,5.24,38.67,7.36,77.57,9.29,116.7,4.67,28.63-3.38,56.52-9.89,83.36-20.6,.42-.17,.91-.14,1.37-.2,11.32-5.34,22.65-10.69,33.97-16.03Z"/></g></g><g><g><path d="M315.01,1926.28c2.39-15.26,4.79-30.52,7.18-45.78,.17-1.07,.3-2.15,.46-3.22,.57-3.7,1.95-6.88,6.42-6.22,4.6,.69,4.69,4.41,4.23,7.93-.96,7.21-2.17,14.39-3.21,21.6-1.36,9.48-2.66,18.97-3.99,28.45-.49,2.09-.94,4.19-1.49,6.27-.76,2.86-2.84,3.97-5.61,3.79-3.01-.2-4.4-2.23-4.49-4.97-.08-2.61,.31-5.24,.49-7.85Z"/><path d="M252.12,1925.18c-3.12-5.25-7.98-9.02-11.7-13.76-2.14-2.72-2.57-5.33,.28-7.73,2.6-2.19,5.1-1.73,7.39,.66,2.24,2.33,4.08,5.06,6.8,6.92,5.33,5.96,10.65,11.93,15.98,17.89,.82,.92,1.73,1.77,2.46,2.76,1.92,2.55,2.1,5.28-.27,7.5-2.42,2.26-5.16,1.88-7.41-.44-3.54-3.66-6.94-7.44-10.38-11.18-.94-1.02-1.73-2.19-3.15-2.61Z"/><path d="M279.14,1892.6c-1.22-4.63-2.46-9.26-3.64-13.9-.78-3.08-.14-5.69,3.16-6.71,3.44-1.07,5.85,.6,6.77,3.86,2.65,9.36,5.15,18.77,7.59,28.19,.93,3.57,.13,6.74-3.93,7.57-4.16,.85-5.62-2.01-6.46-5.55-1.07-4.51-2.41-8.95-3.64-13.42l.14-.04Z"/><path d="M404.68,1928.52c-1.26-5.78,1.9-10.82,7.46-11.93,5.21-1.03,10.48,2.35,11.67,7.49,1.2,5.2-2.44,10.9-7.67,11.99-5.39,1.12-10.28-2.1-11.47-7.55Z"/></g><g><path d="M986.66,1859.62c10.78-2.21,21.45,4.83,23.8,15.7,2.37,10.95-4.89,21.93-15.89,24.04-11,2.11-21.79-4.99-23.79-15.66-2.13-11.36,4.75-21.8,15.88-24.08Zm13.07,18.24c-1-5.24-5.78-8.78-10.74-7.96-4.75,.79-8.35,6.15-7.5,11.2,.84,5.03,5.91,8.66,10.89,7.79,5.1-.88,8.35-5.77,7.35-11.03Z"/><path d="M997.74,1821c1.24,6.4-2.92,12.75-9.17,13.98-6.14,1.21-12.7-3.2-13.94-9.37-1.3-6.47,2.75-12.48,9.32-13.8,6.68-1.34,12.51,2.54,13.79,9.18Z"/><path d="M1019.13,2028.87c9.75-6.55,19.88-12.51,29.43-19.41,17.46-12.61,31.91-27.91,43.61-45.98,18.3-28.27,36.8-56.41,55.2-84.62,1.18-1.81,2.33-3.69,3.19-5.67,2.12-4.94,1.22-8.79-2.5-11.67-4.04-3.13-8.8-3.22-12.89-.21-3.59,2.65-6.21,6.45-10.13,8.81-1.31-1.48-.24-2.76,.13-3.96,2.41-7.86,4.92-15.68,7.36-23.53,.41-1.33,.72-2.7,.93-4.07,1.11-7.35-1.42-12.68-6.9-14.62-4.87-1.72-10,.86-13.64,7.11-1.31,2.24-2.55,4.53-3.61,6.94-.94,2.13-1.23,4.81-4.13,6.64-.68-4.32,.17-8.3,.44-12.2,.33-4.63,1.26-9.22,1.99-13.82,.4-2.48,.41-4.94-.06-7.4-1.24-6.54-6.42-11.47-12.54-11.93-5.85-.44-10.55,3.2-12.34,10.45-2.3,9.33-4.09,18.79-6.1,28.19-.19,.88-.43,1.75-1.37,2.66-.73-5.03-1.45-10.06-2.19-15.09-1.14-7.79-5.59-11.91-12.46-11.56-6.73,.34-11.79,5.58-12.18,12.89-.61,11.49,.76,22.91,1.6,34.34,.26,3.6,.53,7.19,.87,11.93-2.94-2.79-4.26-5.15-5.61-7.5-1.79-3.12-3.83-6-6.95-7.99-4.32-2.76-8.74-3.09-13.19-.55-4.44,2.54-5.88,6.7-5.24,11.53,1.16,8.67,4.48,16.76,7.13,25.01,2.43,7.58,3.06,15.13,1.88,22.95-.67,4.45-2.84,7.69-6.51,10.23-18.68,12.91-38.99,22.44-60.74,28.72-53.83,15.54-107.54,14.35-160.97-2.14-5.63-1.74-11.13-3.9-16.64-5.97-2.91-1.1-5.69-1.45-7.1,1.9-1.49,3.56,1.15,5.02,3.92,6.11,36.47,14.28,74.33,20.48,113.41,19.42,27.49-.75,54.29-5.46,80.31-14.43,19.78-6.82,38.28-16.18,55.19-28.5,7.31-5.33,7.85-13.64,8.3-21.8,.69-12.49-4.86-23.55-8.02-35.16-.57-2.09-1.26-4.16-1.68-6.28-.31-1.55-.18-3.2,1.43-4.1,1.74-.98,3.42-.35,4.68,.89,1.32,1.28,2.47,2.79,3.47,4.33,4.98,7.67,9.92,15.37,14.8,23.11,1.45,2.3,3.12,4.05,6.04,2.9,2.89-1.14,2.83-3.57,2.56-6.24-2.03-19.88-3.98-39.77-4.57-59.76-.04-1.38,.16-2.81,.52-4.14,.54-1.97,1.83-3.21,4.06-3.1,2.07,.1,3.08,1.42,3.34,3.26,.61,4.29,1.08,8.6,1.64,12.89,1.23,9.38,2.52,18.75,3.7,28.13,.36,2.82,1.07,5.41,4.34,5.67,3.45,.27,4.27-2.45,4.84-5.16,3.62-17.3,7.24-34.61,10.86-51.91,.19-.91,.26-1.87,.59-2.72,.81-2.06,.99-4.98,4.29-4.47,3.12,.48,4.55,2.83,4.34,5.72-.37,4.94-1.11,9.85-1.82,14.75-2.16,14.73-4.39,29.44-6.59,44.17-.14,.92-.23,1.85-.35,2.77-.31,2.42,.32,4.38,2.85,5.16,2.51,.77,4.23-.5,5.32-2.62,2.92-5.65,5.77-11.34,8.62-17.03,4.1-8.18,8.12-16.4,12.33-24.53,.93-1.79,1.9-4.89,4.36-3.91,2.27,.91,1.31,3.82,.68,5.89-4.53,14.84-9.08,29.66-13.67,44.48-.8,2.59-1.84,5.29,1.01,7.11,2.79,1.77,4.95-.03,6.95-1.93,6.19-5.87,12.38-11.74,18.64-17.52,1.26-1.16,2.54-3.84,4.38-2.4,2.2,1.73-.39,3.66-1.33,5.12-12.77,19.83-25.68,39.57-38.51,59.36-7.93,12.24-16.08,24.33-24.44,36.29-13.29,19-31.44,32.47-50.68,44.56-42.24,26.55-88.69,40.28-138.18,44.52-34.7,2.98-69.1,1.11-103.25-5.65-3.13-.62-6.23-.71-6.94,3.25-.67,3.73,2.2,4.68,5.12,5.24,38.67,7.36,77.57,9.29,116.7,4.67,28.63-3.38,56.52-9.89,83.36-20.6,.42-.17,.91-.14,1.37-.2,11.32-5.34,22.65-10.69,33.97-16.03Z"/></g></g></svg>