<?xml version="1.0" encoding="UTF-8"?>
<svg xmlns="http://www.w3.org/2000/svg" version="1.1" viewBox="0 0 200 200">
  <!-- Generator: Adobe Illustrator 28.7.1, SVG Export Plug-In . SVG Version: 1.2.0 Build 142)  -->
  <g>
    <g id="Calque_3">
      <g id="Cloche">
        <g id="Cloche-2" data-name="Cloche">
          <path class="cls-1" d="M183.37,149.85c-.94-1.88-2.59-3.52-4.93-4.93-8.22-4.7-12.21-24.9-12.21-24.9,0,0-5.4-12.01-11.98-56.41-4.93-32.65-29.37-43.7-41.82-46.99-.23-7.51-6.34-13.62-13.87-13.62s-13.86,6.11-13.86,13.62c-12.45,3.52-36.88,14.33-41.82,46.99-6.58,44.16-11.98,56.41-11.98,56.41,0,0-3.99,20.2-12.21,24.9-4.23,2.59-5.87,6.11-6.34,8.92-.47,3.06.23,5.87,2.11,8.22.7.7,1.41,1.41,2.35,2.11,1.64,1.18,3.99,1.88,6.58,1.88h150.35c1.88,0,3.99-.47,5.64-1.41,0,0,.23,0,.23-.23,4.71-3.05,6.35-9.63,3.77-14.56h0Z"/>
          <path class="cls-1" d="M123.7,171.63c0,13.86-11.28,25.37-25.37,25.37s-25.37-11.28-25.37-25.37h50.74Z"/>
        </g>
      </g>
    </g>
  </g>
</svg>