<?xml version="1.0" encoding="UTF-8" standalone="no"?>
<!-- Created with Inkscape (http://www.inkscape.org/) -->

<svg
   width="20.011803mm"
   height="20.708759mm"
   viewBox="0 0 20.011803 20.708759"
   version="1.1"
   id="svg1"
   inkscape:version="1.3.2 (091e20e, 2023-11-25)"
   sodipodi:docname="bid-sent.svg"
   xmlns:inkscape="http://www.inkscape.org/namespaces/inkscape"
   xmlns:sodipodi="http://sodipodi.sourceforge.net/DTD/sodipodi-0.dtd"
   xmlns="http://www.w3.org/2000/svg"
   xmlns:svg="http://www.w3.org/2000/svg">
  <sodipodi:namedview
     id="namedview1"
     pagecolor="#ffffff"
     bordercolor="#666666"
     borderopacity="1.0"
     inkscape:showpageshadow="2"
     inkscape:pageopacity="0.0"
     inkscape:pagecheckerboard="0"
     inkscape:deskcolor="#d1d1d1"
     inkscape:document-units="mm"
     inkscape:zoom="0.2102413"
     inkscape:cx="38.051515"
     inkscape:cy="40.429734"
     inkscape:window-width="736"
     inkscape:window-height="480"
     inkscape:window-x="567"
     inkscape:window-y="165"
     inkscape:window-maximized="0"
     inkscape:current-layer="layer1" />
  <defs
     id="defs1" />
  <g
     inkscape:label="Layer 1"
     inkscape:groupmode="layer"
     id="layer1"
     transform="translate(-94.456255,-137.58334)">
    <g
       id="g11267"
       transform="matrix(0.29307032,0,0,0.26961372,434.7589,389.08118)">
      <path
         id="path3602"
         style="fill:#ff4401;stroke-width:3.4698;stroke-linecap:round;stroke-linejoin:round;paint-order:markers stroke fill"
         d="m -1117.9405,-857.77061 c -11.8418,4.59796 -25.9603,-0.0507 -33.7515,-10.51323 -10.3894,-13.95148 -11.9056,-26.59685 -6.1434,-43.13091 3.9794,-11.4186 14.4108,-19.68327 26.0572,-21.22219 51.4631,-3.83576 47.3705,57.92366 13.8377,74.86633 z"
         sodipodi:nodetypes="csscc" />
      <path
         style="color:#000000;fill:#ffffff;stroke-linecap:round;stroke-linejoin:round;-inkscape-stroke:none;paint-order:markers stroke fill"
         d="m -1119.8145,-900.44727 c -1.1027,0.0584 -2.3287,0.58362 -3.7148,1.42579 -1.3861,0.84217 -2.8758,2.02645 -4.2012,3.50781 -2.6507,2.96271 -4.6587,7.21618 -3.3711,12.00781 a 1,1 0 0 0 1.2246,0.70703 1,1 0 0 0 0.7071,-1.22656 c -1.0772,-4.00844 0.569,-7.51574 2.9297,-10.1543 1.1803,-1.31928 2.534,-2.39406 3.75,-3.13281 1.2159,-0.73875 2.3506,-1.11587 2.7812,-1.13867 0.7968,-0.0422 1.2405,0.14856 1.5918,0.43945 0.3514,0.29089 0.6158,0.7398 0.7949,1.27149 0.3583,1.06337 0.3172,2.3626 0.3008,2.62695 a 1.0001,1.0001 0 0 0 1.584,0.87305 c 1.32,-0.95222 2.3336,-1.27319 3.0098,-1.28711 0.6761,-0.0139 1.0551,0.20899 1.373,0.5957 0.6358,0.77343 0.6877,2.44423 0.1133,3.29883 a 1.0001,1.0001 0 0 0 1.1953,1.48828 c 1.4845,-0.58427 2.3978,-0.56624 2.9141,-0.38281 0.5163,0.18342 0.7882,0.52765 0.9941,1.08593 0.206,0.55829 0.2682,1.29705 0.2324,1.91993 -0.018,0.31143 -0.058,0.59569 -0.1015,0.80468 -0.044,0.209 -0.1236,0.37438 -0.074,0.28711 a 1.0001,1.0001 0 0 0 0.7696,1.48633 c 1.4053,0.14204 2.1741,0.54892 2.6191,0.98828 0.445,0.43936 0.6269,0.96158 0.6778,1.5625 0.051,0.60092 -0.059,1.25393 -0.1993,1.7461 -0.07,0.24608 -0.1461,0.45304 -0.2031,0.58789 -0.027,0.0635 -0.048,0.10822 -0.059,0.1289 0.011,-0.0176 0,-0.0348 0.1543,-0.17773 a 1.0001,1.0001 0 0 0 -0.1582,0.18555 1.0001,1.0001 0 0 0 -0.014,0.0176 c -0.9281,1.45002 -3.0615,2.58035 -6.9296,4.01368 -6.2142,2.30262 -10.5598,2.6567 -14.3887,4.36328 -3.829,1.70657 -6.8828,4.83705 -10.0821,12.16992 a 1,1 0 0 0 0.5157,1.3164 1,1 0 0 0 1.3164,-0.51757 c 3.1011,-7.10808 5.6765,-9.63345 9.0625,-11.14258 3.3859,-1.50913 7.8413,-1.93179 14.2715,-4.31445 3.8756,-1.4361 6.4235,-2.61402 7.8261,-4.70313 0.04,-0.0496 0.1006,-0.11689 0.1192,-0.14648 0.031,-0.0492 0.054,-0.0885 0.076,-0.13086 0.044,-0.0847 0.086,-0.17572 0.1309,-0.28321 0.091,-0.21498 0.1917,-0.4919 0.2852,-0.82031 0.1869,-0.65683 0.3493,-1.51832 0.2695,-2.46094 -0.08,-0.94261 -0.4304,-1.99182 -1.2676,-2.81836 -0.6304,-0.62244 -1.5872,-1.02379 -2.7148,-1.29101 0.037,-0.23573 0.08,-0.46229 0.096,-0.73633 0.047,-0.81988 -0.01,-1.78966 -0.3535,-2.72656 -0.3457,-0.9369 -1.0587,-1.8734 -2.2012,-2.2793 -0.7255,-0.25775 -1.6108,-0.22122 -2.5742,-0.043 0.2188,-1.3205 0.1024,-2.68064 -0.7735,-3.74609 -0.6604,-0.80346 -1.7232,-1.35161 -2.959,-1.32617 -0.8122,0.0167 -1.7081,0.34059 -2.6445,0.81445 -0.056,-0.52211 -0.1112,-1.06845 -0.3125,-1.66602 -0.2587,-0.76785 -0.6843,-1.56607 -1.416,-2.17187 -0.7317,-0.6058 -1.7633,-0.96053 -2.9727,-0.89649 z"
         id="path3599" />
      <path
         id="path3596"
         style="fill:#ffffff;stroke-width:2;stroke-linecap:round;stroke-linejoin:round;paint-order:markers stroke fill"
         d="m -1128.0026,-931.18102 c -6.8114,1.86899 -25.3644,17.0132 -28.5783,24.48453 4.1158,1.11285 12.4937,5.38996 15.6603,12.61223 2.335,-2.45154 5.3857,-5.87386 8.8018,-9.20007 0.7512,2.10306 5.6384,7.56875 5.6384,7.56875 l 5.3217,-3.47396 c 0,0 -5.1779,-5.79091 -6.0793,-8.49215 3.571,-2.92654 7.3368,-5.30389 10.9809,-6.15195 0.046,-4.83499 -4.2926,-13.89579 -11.7455,-17.34738 z"
         sodipodi:nodetypes="ccccccccc" />
      <path
         style="color:#000000;fill:#000000;stroke-linecap:round;stroke-linejoin:round;-inkscape-stroke:none;paint-order:markers stroke fill"
         d="m -1132,-925.89844 a 1.5,1.5 0 0 0 -0.8203,0.80274 c -2.8796,6.75472 -2.8441,11.55788 -2.6094,15.12109 -0.3451,-0.17016 -0.667,-0.36522 -1.0293,-0.51562 -1.4711,-0.61077 -2.9874,-1.03321 -4.3672,-1.03321 a 1.5,1.5 0 0 0 -1.5,1.5 1.5,1.5 0 0 0 1.5,1.5 c 0.6665,0 2.0178,0.30691 3.2168,0.80469 1.199,0.49778 2.3011,1.24266 2.6172,1.625 a 1.50015,1.50015 0 0 0 2.6504,-1.08398 c -0.2984,-3.48266 -1.1237,-8.75503 2.2813,-16.74219 a 1.5,1.5 0 0 0 -0.7911,-1.9668 1.5,1.5 0 0 0 -1.1484,-0.0117 z"
         id="path3593" />
    </g>
  </g>
</svg>
