<?xml version="1.0" encoding="UTF-8"?>
<svg xmlns="http://www.w3.org/2000/svg" version="1.1" viewBox="0 0 200 200">
  <!-- Generator: Adobe Illustrator 28.7.1, SVG Export Plug-In . SVG Version: 1.2.0 Build 142)  -->
  <g>
    <g id="Calque_3">
      <g id="bulle">
        <g id="Poubelle">
          <path class="cls-1" d="M164.5,53.52H35.5c-8.22-.1-14.81-6.84-14.71-15.06.09-8.09,6.63-14.62,14.71-14.71h129c8.22.09,14.81,6.83,14.72,15.05-.09,8.09-6.63,14.62-14.72,14.72ZM127.01,11.95c0-3.92-3.18-7.09-7.09-7.09h-39.83c-3.92,0-7.1,3.17-7.1,7.09,0,3.92,3.17,7.1,7.09,7.1h39.84c3.92,0,7.09-3.18,7.09-7.09ZM163.21,64.18l-9.79,111.59c-1,10.97-10.2,19.37-21.21,19.37h-64.42c-11.02,0-20.22-8.4-21.21-19.37l-9.79-111.59h126.42ZM82.35,165.56l-5.26-72.82c-.34-3.9-3.79-6.79-7.69-6.45-3.82.34-6.68,3.65-6.46,7.47l5.26,72.82c.34,3.9,3.78,6.8,7.68,6.46,3.83-.33,6.7-3.65,6.47-7.49ZM107.09,93.25c-.06-3.92-3.28-7.05-7.2-6.99-3.84.05-6.94,3.15-6.99,6.99v72.82c.05,3.92,3.27,7.05,7.19,7,3.84-.05,6.95-3.16,7-7v-72.82ZM137.06,93.76c.23-3.91-2.75-7.27-6.67-7.5-3.84-.23-7.16,2.65-7.49,6.48l-5.26,72.82c-.23,3.91,2.76,7.27,6.67,7.5,3.83.22,7.15-2.64,7.48-6.47l5.26-72.82Z"/>
        </g>
      </g>
    </g>
  </g>
</svg>