<?xml version="1.0" encoding="utf-8"?>
<!-- Generator: Adobe Illustrator 26.3.1, SVG Export Plug-In . SVG Version: 6.00 Build 0)  -->
<svg version="1.1" id="Calque_1" xmlns="http://www.w3.org/2000/svg" xmlns:xlink="http://www.w3.org/1999/xlink" x="0px" y="0px"
	 viewBox="0 0 405.61 405.55" style="enable-background:new 0 0 405.61 405.55;" xml:space="preserve">
<style type="text/css">
	.st0{fill:#FFF0E3;}
</style>
<path d="M398.66,199.24c0.06-18.79-2.19-35.41-6.6-51.76c-3.77-13.96-9.04-27.32-15.87-40.05c-12.45-23.22-28.97-43.06-49.52-59.55
	c-13.42-10.77-28.02-19.6-43.82-26.38c-12.34-5.3-25.11-9.3-38.33-11.87c-9.09-1.77-18.24-3-27.47-3.42
	c-20.37-0.92-40.44,1.07-60.14,6.49c-11.17,3.08-22,7.07-32.43,12.09c-15.3,7.37-29.38,16.6-42.23,27.72
	C62.12,69.95,46.18,90.6,34.61,114.59c-7.18,14.89-12.33,30.46-15.43,46.73c-1.8,9.45-2.89,18.97-3.33,28.55
	c-0.61,13.11,0.35,26.13,2.52,39.08c1.65,9.83,4.03,19.45,7.19,28.89c3.68,10.99,8.35,21.55,13.96,31.69
	c0.57,1.02,0.62,1.85,0.19,2.98c-5.3,13.76-10.52,27.55-15.78,41.33c-6.04,15.83-12.21,31.61-18.1,47.5
	c-1.97,5.31-0.67,10.31,3.42,14.28c3.93,3.81,8.76,5.05,13.96,3.3c6.24-2.11,12.35-4.61,18.51-6.96
	c12.06-4.59,24.11-9.18,36.16-13.79c11.26-4.3,22.52-8.59,33.74-12.99c1.57-0.62,2.77-0.49,4.17,0.28
	c14.74,8.12,30.29,14.11,46.65,18.12c12.06,2.95,24.28,4.73,36.65,5.26c19.36,0.82,38.43-1.3,57.19-6.27
	c14.19-3.76,27.76-9.05,40.69-15.96c24.01-12.84,44.4-29.99,61.19-51.44c18.15-23.19,30.25-49.23,36.44-77.97
	C397.4,224.1,398.87,210.82,398.66,199.24z M284.01,208.08c-8.17,13.36-19,24.34-30.93,34.31c-11.75,9.82-24.39,18.37-37.72,25.89
	c-1.22,0.69-2.14,0.77-3.42,0.04c-19.36-11.01-37.35-23.82-52.84-39.93c-9.88-10.28-18.31-21.57-23.01-35.22
	c-3.6-10.44-4.66-21.03-0.96-31.73c6.45-18.65,25.1-30.44,44.72-28.41c13.56,1.4,24.73,7.06,33.05,17.99
	c1.05,1.38,1.27,0.1,1.66-0.4c11.81-15.47,33.73-21.91,51.89-15.23c16.78,6.17,28.02,22.24,27.87,42.97
	C294.18,187.24,290.16,198.01,284.01,208.08z"/>
</svg>
