<?xml version="1.0" encoding="UTF-8"?>
<svg xmlns="http://www.w3.org/2000/svg" version="1.1" viewBox="0 0 200 200">
  <!-- Generator: Adobe Illustrator 28.7.1, SVG Export Plug-In . SVG Version: 1.2.0 Build 142)  -->
  <g>
    <g id="Calque_3">
      <g id="horloge">
        <g id="Horloge">
          <g>
            <path class="cls-1" d="M100.42,6.44C47.75,6.44,4.9,49.29,4.9,101.96s42.85,95.52,95.52,95.52,95.52-42.85,95.52-95.52S153.09,6.44,100.42,6.44ZM100.42,178.39c-42.14,0-76.43-34.29-76.43-76.43S58.28,25.53,100.42,25.53s76.43,34.29,76.43,76.43-34.29,76.43-76.43,76.43Z"/>
            <path class="cls-1" d="M109.82,99.2c.08-.49.15-.98.15-1.49v-41.64c0-5.27-4.28-9.55-9.55-9.55s-9.55,4.28-9.55,9.55v41.64c0,.81-.1,10.05,2.9,12.74l29.55,26.49c1.82,1.64,4.1,2.44,6.37,2.44,2.62,0,5.23-1.07,7.11-3.17,3.52-3.93,3.19-9.96-.74-13.48l-26.24-23.53Z"/>
          </g>
        </g>
      </g>
    </g>
  </g>
</svg>