<?xml version="1.0" encoding="utf-8"?>
<!-- Generator: Adobe Illustrator 26.3.1, SVG Export Plug-In . SVG Version: 6.00 Build 0)  -->
<svg version="1.1" id="Calque_1" xmlns="http://www.w3.org/2000/svg" xmlns:xlink="http://www.w3.org/1999/xlink" x="0px" y="0px"
	 viewBox="0 0 481.77 481.91" style="enable-background:new 0 0 481.77 481.91;" xml:space="preserve">
<g>
	<path d="M240.82,481.91C106.33,481.04,0.2,373.83,0,241.67C-0.2,106.82,107.83,0.2,240.59,0
		c132.88-0.2,241.02,106.69,241.18,240.33C481.93,375.15,373.81,481.56,240.82,481.91z M437.27,241.22
		C437.14,132.73,350,45.1,241.8,44.65C133.16,44.19,44.74,131.87,44.7,240.8c-0.04,108.28,87.35,196.27,196.18,196.33
		C349.23,437.2,436.77,349.84,437.27,241.22z"/>
	<path d="M331.57,172.15c0.12,6.62-2.39,12.14-7.02,16.77c-16.42,16.43-32.84,32.86-49.26,49.29c-2.7,2.7-2.7,2.71,0.05,5.46
		c16.07,16.07,32.08,32.21,48.24,48.18c5.83,5.76,8.92,12.36,7.78,20.6c-1.29,9.25-8.66,18.5-19.63,19.11
		c-7.97,0.45-14.34-2.39-19.88-7.99c-16.05-16.21-32.22-32.3-48.35-48.44c-2.56-2.56-2.59-2.55-5.1-0.03
		c-16.49,16.48-33.08,32.86-49.42,49.48c-10.8,10.99-27.72,8.16-35.32-2.66c-5.6-7.98-4.64-20.24,2.65-27.87
		c8.57-8.96,17.48-17.61,26.24-26.39c8.18-8.19,16.33-16.41,24.58-24.53c1.73-1.7,1.63-2.82-0.05-4.49
		c-16.53-16.44-32.96-32.99-49.51-49.4c-5.68-5.63-8.19-12.21-7.1-20.1c1.21-8.78,8.46-18.24,19.29-18.89
		c7.52-0.45,13.89,1.74,19.23,7.09c16.41,16.44,32.85,32.85,49.28,49.27c2.67,2.67,2.67,2.67,5.28,0.06
		c16.42-16.43,32.87-32.83,49.26-49.3c5.06-5.08,10.98-7.5,18.2-7.05C320.6,150.92,332.15,158.96,331.57,172.15z"/>
</g>
</svg>
