<svg width="37" height="26" viewBox="0 0 37 26" fill="none" xmlns="http://www.w3.org/2000/svg">
<path d="M7.7533 12.5456C7.7533 10.0732 7.762 7.59199 7.7533 5.11955C7.7533 4.35947 7.96214 3.68675 8.49295 3.12761C9.04986 2.53353 9.74601 2.27143 10.5553 2.27143C13.6183 2.27143 16.6726 2.27143 19.7357 2.27143C20.0489 2.27143 20.3709 2.23648 20.6842 2.35006C21.3107 2.57721 21.7458 3.18003 21.7545 3.87022C21.7632 4.56041 21.3455 5.1807 20.7277 5.42533C20.5275 5.50396 20.3187 5.53017 20.1098 5.53017C17.4297 5.52143 14.7408 5.52143 12.0607 5.52143C11.469 5.52143 11.0252 5.96699 10.9991 6.56108C10.9991 6.63971 10.9991 6.71834 10.9991 6.79697C10.9991 10.6323 10.9991 14.4677 10.9991 18.303C10.9991 18.4952 10.9817 18.6787 11.0513 18.8622C11.234 19.3252 11.5995 19.5873 12.1129 19.5873C13.8968 19.5873 15.6806 19.5873 17.4645 19.5873C18.3695 19.5873 19.2745 19.5786 20.1794 19.5786C20.9191 19.5786 21.6152 20.1639 21.7284 20.8628C21.8676 21.7277 21.4325 22.4966 20.658 22.7587C20.4927 22.8111 20.3361 22.846 20.1707 22.846C16.9424 22.8373 13.714 22.846 10.4944 22.8286C9.46755 22.8198 8.66698 22.3743 8.13617 21.4831C7.91863 21.1337 7.7881 20.7493 7.7794 20.3299C7.7707 19.9368 7.7707 19.5436 7.7707 19.1505C7.7533 16.9576 7.7533 14.756 7.7533 12.5456Z" fill="black"/>
<path d="M21.6152 14.2056C20.3709 14.2056 19.1178 14.2056 17.8735 14.2056C17.3079 14.2056 16.8554 14.0222 16.5595 13.5154C16.4725 13.3582 16.4029 13.1922 16.4029 13C16.3942 12.6418 16.342 12.2836 16.4464 11.9341C16.6291 11.3138 17.1425 10.9644 17.83 10.9644C20.1794 10.9644 22.5289 10.9644 24.8784 10.9644C25.1221 10.9644 25.3744 10.9644 25.6181 10.9644C25.6703 10.9644 25.7486 10.9818 25.7747 10.9207C25.8182 10.8421 25.7312 10.8071 25.6877 10.7634C25.2613 10.3266 24.8349 9.88978 24.4085 9.45295C24.1997 9.23453 24.0256 9.00738 23.9473 8.7016C23.869 8.38709 23.8951 8.09005 24.0343 7.81048C24.2432 7.39986 24.5651 7.07661 24.948 6.84072C25.5136 6.48252 26.1576 6.58736 26.6536 7.08534C27.3323 7.76679 28.0024 8.44824 28.6724 9.1297C29.473 9.9422 30.2735 10.7547 31.0654 11.5672C31.5788 12.0914 31.6571 12.7204 31.3003 13.3145C31.2481 13.4106 31.1698 13.4892 31.1002 13.5679C29.6383 15.0531 28.1851 16.547 26.7232 18.0322C26.4099 18.3555 26.0532 18.5564 25.592 18.539C25.3657 18.5302 25.1569 18.4778 24.9741 18.3555C24.5564 18.0585 24.1562 17.7265 23.9821 17.211C23.8168 16.7218 23.9212 16.2849 24.2519 15.9093C24.6957 15.4113 25.1743 14.9482 25.6442 14.4677C25.6616 14.4503 25.6877 14.4328 25.7051 14.4066C25.7486 14.3542 25.8356 14.3105 25.8008 14.2318C25.766 14.162 25.6877 14.1969 25.6268 14.1969C24.9654 14.1969 24.3041 14.1969 23.6515 14.1969C22.964 14.2056 22.2853 14.2056 21.6152 14.2056Z" fill="black"/>
</svg>
