<?xml version="1.0" encoding="utf-8"?>
<!-- Generator: Adobe Illustrator 26.3.1, SVG Export Plug-In . SVG Version: 6.00 Build 0)  -->
<svg version="1.1" id="Calque_1" xmlns="http://www.w3.org/2000/svg" xmlns:xlink="http://www.w3.org/1999/xlink" x="0px" y="0px"
	 viewBox="0 0 425.2 297.64" style="enable-background:new 0 0 425.2 297.64;" xml:space="preserve">
<g>
	<path d="M225.5,247.09c0-10.37-0.05-20.73,0.04-31.1c0.02-2.05-0.42-2.84-2.66-2.81c-14.24,0.18-28.42-0.86-42.51-2.81
		c-31.36-4.35-61.15-13.36-88.11-30.5c-27.21-17.3-47.69-40.63-62.21-69.3C22.27,95.21,16.6,79.09,12.61,62.35
		C9.45,49.08,7.19,35.68,6.24,22.08c-0.61-8.76,5.64-14.93,14.37-14.2c3.5,0.29,6.25,2.09,8.5,4.72
		c9.57,11.16,20.15,21.26,31.85,30.17c15.99,12.17,33.41,21.72,52.21,28.82c12.34,4.66,25,8.19,37.95,10.58
		c21.36,3.94,42.89,5.13,64.55,3.14c2.5-0.23,5.01-0.44,7.5-0.78c1.92-0.26,2.36-1.03,2.35-2.86c-0.06-20.44-0.01-40.87-0.06-61.31
		c-0.01-4.47,1.25-8.33,4.77-11.2c4.62-3.76,10.8-3.75,15.81,0c9.78,7.3,19.52,14.64,29.29,21.95
		c29.77,22.3,59.55,44.59,89.32,66.89c15.39,11.53,30.8,23.02,46.14,34.62c10.91,8.25,10.93,24-0.02,32.26
		c-21.48,16.22-43.06,32.32-64.6,48.47c-26.38,19.79-52.76,39.59-79.14,59.38c-6.98,5.24-13.95,10.49-20.96,15.69
		c-4.2,3.11-8.75,3.89-13.54,1.47c-4.83-2.45-7.04-6.58-7.06-11.9C225.47,267.68,225.5,257.39,225.5,247.09z"/>
</g>
</svg>
