<?xml version="1.0" encoding="UTF-8" standalone="no"?>
<!-- Created with Inkscape (http://www.inkscape.org/) -->

<svg
   width="24.331579mm"
   height="15.958839mm"
   viewBox="0 0 24.331579 15.958839"
   version="1.1"
   id="svg1"
   inkscape:version="1.3.2 (091e20e, 2023-11-25)"
   sodipodi:docname="gist-sent.svg"
   xmlns:inkscape="http://www.inkscape.org/namespaces/inkscape"
   xmlns:sodipodi="http://sodipodi.sourceforge.net/DTD/sodipodi-0.dtd"
   xmlns="http://www.w3.org/2000/svg"
   xmlns:svg="http://www.w3.org/2000/svg">
  <sodipodi:namedview
     id="namedview1"
     pagecolor="#ffffff"
     bordercolor="#666666"
     borderopacity="1.0"
     inkscape:showpageshadow="2"
     inkscape:pageopacity="0.0"
     inkscape:pagecheckerboard="0"
     inkscape:deskcolor="#d1d1d1"
     inkscape:document-units="mm"
     inkscape:zoom="2.6380707"
     inkscape:cx="79.603627"
     inkscape:cy="-30.893789"
     inkscape:window-width="1440"
     inkscape:window-height="748"
     inkscape:window-x="0"
     inkscape:window-y="25"
     inkscape:window-maximized="1"
     inkscape:current-layer="layer1" />
  <defs
     id="defs1" />
  <g
     inkscape:label="Layer 1"
     inkscape:groupmode="layer"
     id="layer1"
     transform="translate(-92.339586,-139.96458)">
    <g
       id="g11308"
       transform="matrix(0.24837321,0,0,0.24837321,179.34044,278.17919)">
      <path
         style="fill:#ff4401;stroke-width:1.68385;stroke-linecap:round;stroke-linejoin:round;paint-order:markers stroke fill"
         d="m -308.66732,-553.45779 c -15.75873,-7.81728 -32.9444,0.0387 -38.97625,17.73043 -7.95746,20.70243 2.70202,40.89653 23.6073,43.46494 23.24979,0.47651 65.11182,-3.47343 71.56929,-27.29931 3.01353,-31.37653 -40.8175,-26.76414 -56.20034,-33.89606 z"
         id="path4010"
         sodipodi:nodetypes="csccc" />
      <g
         id="path576-7">
        <path
           style="color:#000000;fill:#808080;-inkscape-stroke:none;paint-order:markers stroke fill"
           d="m -266.05469,-529.26758 c -0.24169,0.021 -0.42826,0.099 -0.56445,0.22266 -0.13619,0.12367 -0.22066,0.29029 -0.26563,0.48047 -0.0899,0.38035 -0.029,0.85847 0.0899,1.33008 0.2377,0.94321 0.70898,1.86132 0.70898,1.86132 l 0.0469,-0.0664 -0.008,0.0937 h 0.004 l 0.0899,0.01 -0.004,-0.006 1.42383,0.0664 0.006,-0.0449 c 0,0 0.13269,-1.0207 0.0137,-2.02344 -0.0595,-0.50137 -0.18077,-0.99963 -0.41992,-1.36719 -0.23916,-0.36755 -0.60381,-0.60148 -1.1211,-0.55664 z m 0.008,0.0996 c 0.48422,-0.042 0.80435,0.166 1.02929,0.51172 0.22494,0.34572 0.34577,0.83115 0.4043,1.32422 0.11442,0.96396 -0.008,1.90915 -0.0137,1.95312 l -1.37891,-0.0644 c -0.0126,-0.0247 -0.46083,-0.89954 -0.69141,-1.81445 -0.1169,-0.46387 -0.17492,-0.93162 -0.0918,-1.28321 0.0416,-0.17579 0.11794,-0.32218 0.23633,-0.42968 0.11838,-0.1075 0.28104,-0.17778 0.50586,-0.19727 z"
           id="path4007" />
        <path
           style="color:#000000;fill:#000000;stroke-width:0.1;-inkscape-stroke:none;paint-order:markers stroke fill"
           d="m -266.04152,-525.39569 1.4641,0.0682 c 0,0 0.52937,-4.06458 -1.47366,-3.89093 -1.86603,0.16177 0.01,3.82278 0.01,3.82278 z"
           id="path4004" />
      </g>
      <g
         id="path684-3">
        <path
           style="color:#000000;fill:#808080;-inkscape-stroke:none;paint-order:markers stroke fill"
           d="m -260.87305,-529.57812 c -0.678,-0.0752 -1.25393,0.18676 -1.72851,0.61523 -0.47458,0.42847 -0.85104,1.02229 -1.14453,1.625 -0.587,1.20541 -0.83985,2.44531 -0.83985,2.44531 l -0.0117,0.0547 0.0547,0.006 1.53125,0.1582 h 0.004 c 0.43287,-0.0175 0.92847,-0.31706 1.39844,-0.7539 0.46996,-0.43685 0.91317,-1.01491 1.23046,-1.59961 0.3173,-0.58471 0.51005,-1.17532 0.4668,-1.65039 -0.0216,-0.23754 -0.10385,-0.44806 -0.26172,-0.60547 -0.15787,-0.15742 -0.38948,-0.26058 -0.69922,-0.29492 z m -0.0117,0.0996 c 0.2935,0.0326 0.49977,0.12712 0.63868,0.26563 0.13891,0.13851 0.21433,0.32277 0.23437,0.54297 0.0401,0.44038 -0.1433,1.02116 -0.45508,1.5957 -0.31177,0.57454 -0.75015,1.14396 -1.21093,1.57227 -0.46027,0.42782 -0.94342,0.71224 -1.33204,0.72851 l -1.46093,-0.15234 c 0.0111,-0.0533 0.24734,-1.20261 0.81445,-2.36719 0.29006,-0.59565 0.6612,-1.18049 1.12109,-1.5957 0.45989,-0.41521 1.00359,-0.66156 1.65039,-0.58985 z"
           id="path4001" />
        <path
           style="color:#000000;fill:#000000;stroke-width:0.1;-inkscape-stroke:none;paint-order:markers stroke fill"
           d="m -264.53752,-524.88171 c 0,0 1.00942,-4.94032 3.65904,-4.64653 2.41294,0.26754 -0.48809,4.73763 -2.13151,4.80393 z"
           id="path3998" />
      </g>
      <path
         style="color:#000000;fill:#ffffff;stroke-linecap:round;stroke-linejoin:round;-inkscape-stroke:none;paint-order:markers stroke fill"
         d="m -332.0625,-553.9043 c -2.06617,0.034 -4.10613,0.37709 -6.05469,1.07227 a 1.0001,1.0001 0 0 0 -0.66211,0.91406 c -0.027,0.95152 0.12381,2.37035 0.58203,3.84766 0.39768,1.28209 1.10252,2.55354 2.16602,3.51562 -0.24875,1.83204 -0.12286,3.64687 0.75586,5.22266 0.86222,1.54621 2.47341,2.72952 4.64258,3.55078 -0.16639,1.45051 0.22712,2.90468 1.09179,4.01758 0.81479,1.04868 2.0056,1.68739 3.28321,1.83203 0.14765,2.20028 1.56452,4.58415 4.58984,5.85352 -1.94026,0.51647 -4.28271,0.46757 -6.61328,0.23046 -1.65911,-0.16879 -3.27793,-0.39996 -4.7207,-0.47265 -1.44278,-0.0727 -2.74265,-0.0493 -3.8086,0.65429 a 1.0001,1.0001 0 0 0 -0.37304,1.21485 c 4.10641,9.93448 8.48256,14.87315 11.93554,17.32031 1.7265,1.22358 3.21802,1.81855 4.30078,2.10156 1.06785,0.27911 1.80159,0.24502 1.82227,0.24414 6.19197,0.21841 13.103,-2.45369 19.67383,-6.26562 6.43026,-3.73039 12.48144,-8.56743 17.1543,-13.02344 3.4264,0.81628 6.01766,1.13337 7.91601,0.90039 1.00333,-0.12313 1.84809,-0.39378 2.52344,-0.86328 0.67535,-0.46949 1.14787,-1.15458 1.36133,-1.90625 0.4269,-1.50333 -0.004,-3.16517 -0.78321,-5.00781 -0.77946,-1.84265 -1.96805,-3.88556 -3.36132,-6.05664 a 1.0001,1.0001 0 0 0 -1.45508,-0.25 l -19.14844,14.86914 c -1.48786,-1.68951 -3.56679,-3.0184 -5.7793,-3.875 -1.96707,-0.76157 -3.79128,-1.09108 -5.39062,-1.10547 2.17578,-8.30497 -1.74827,-16.36816 -8.04492,-21.73438 -4.96415,-4.2306 -11.40501,-6.90274 -17.60352,-6.80078 z m 0.0488,2.01758 c 5.62413,-0.0688 11.63107,2.36163 16.25781,6.30469 6.16898,5.25741 9.79663,12.99865 7.14063,20.84375 a 1.0001,1.0001 0 0 0 1.14648,1.30078 c 0.94726,-0.19219 3.4029,0.14019 5.72461,1.03906 2.32171,0.89888 4.58047,2.33746 5.62305,3.875 a 1.0001,1.0001 0 0 0 1.4414,0.22852 l 18.89063,-14.66992 c 1.06761,1.72366 2.08451,3.41368 2.66797,4.79297 0.70062,1.65627 0.90274,2.97181 0.70117,3.68164 -0.10079,0.35491 -0.25803,0.58666 -0.58008,0.81054 -0.32205,0.22389 -0.84179,0.42365 -1.62305,0.51953 -1.56251,0.19176 -4.10667,-0.0589 -7.71679,-0.95703 a 1.0001,1.0001 0 0 0 -0.93555,0.25 c -4.60841,4.44512 -10.7622,9.36296 -17.17969,13.08594 -6.41749,3.72298 -13.10265,6.22184 -18.66797,6.00391 a 1.0001,1.0001 0 0 0 -0.10351,0 c 0,0 -0.35922,0.0361 -1.21485,-0.1875 -0.85562,-0.22364 -2.11648,-0.71174 -3.65039,-1.79883 -2.93431,-2.07957 -6.87715,-6.49962 -10.71875,-15.3457 0.48272,-0.10709 0.85531,-0.25581 1.70703,-0.2129 1.29996,0.0655 2.91171,0.29094 4.6211,0.46485 3.41878,0.34782 7.32038,0.54969 10.22656,-1.58985 a 1.0001,1.0001 0 0 0 -0.4668,-1.79687 c -4.68461,-0.59643 -5.82689,-3.55855 -5.64843,-5.41602 a 1.0001,1.0001 0 0 0 -1.23438,-1.0664 c -0.61481,0.15196 -1.61734,-0.31365 -2.35547,-1.26367 -0.73813,-0.95003 -1.07184,-2.19952 -0.7539,-3.06836 a 1.0001,1.0001 0 0 0 -0.64258,-1.29883 c -2.24433,-0.69548 -3.49258,-1.73105 -4.17188,-2.94922 -0.6793,-1.21817 -0.81559,-2.70991 -0.50976,-4.41406 a 1.0001,1.0001 0 0 0 -0.41211,-0.99805 c -0.81005,-0.56478 -1.45292,-1.70851 -1.83594,-2.94336 -0.28997,-0.93486 -0.3299,-1.71779 -0.375,-2.42187 1.50139,-0.44962 3.04402,-0.7831 4.64844,-0.80274 z"
         id="path3995" />
      <path
         style="color:#000000;fill:#ffffff;stroke-linecap:round;stroke-linejoin:round;-inkscape-stroke:none;paint-order:markers stroke fill"
         d="m -345.39844,-509.54687 a 1,1 0 0 0 -1.26367,0.63281 1,1 0 0 0 0.63281,1.26367 c 1.2205,0.40539 3.33886,1.3682 6.47266,1.83398 3.1338,0.46579 7.31398,0.44213 12.86719,-0.98437 a 1,1 0 0 0 0.7207,-1.21875 1,1 0 0 0 -1.2168,-0.71875 c -5.32561,1.36804 -9.20556,1.37003 -12.07617,0.94336 -2.87061,-0.42667 -4.70163,-1.27528 -6.13672,-1.75195 z"
         id="path3992" />
      <path
         style="color:#000000;fill:#ffffff;stroke-linecap:round;stroke-linejoin:round;-inkscape-stroke:none;paint-order:markers stroke fill"
         d="m -342.15625,-512.10547 a 1,1 0 0 0 -1.41016,0.10547 1,1 0 0 0 0.10547,1.41016 c 0,0 1.94432,1.68924 3.35352,4.12304 a 1,1 0 0 0 1.36523,0.36328 1,1 0 0 0 0.36524,-1.36523 c -1.60722,-2.77579 -3.7793,-4.63672 -3.7793,-4.63672 z"
         id="path3989" />
      <g
         id="path13545-9">
        <path
           style="color:#000000;fill:#ffffff;stroke-linecap:round;stroke-linejoin:round;-inkscape-stroke:none;paint-order:markers stroke fill"
           d="m -270.95703,-527.20703 a 1.0001,1.0001 0 0 0 -1.20508,1.16211 c 0.10164,0.53787 -0.18195,1.18923 -0.60351,1.74414 -0.42157,0.55491 -0.87891,0.91406 -0.87891,0.91406 a 1.0001,1.0001 0 0 0 0.54101,1.78711 c 0.14959,0.0109 1.02101,0.14022 2.19336,0.25391 1.17236,0.11368 2.72586,0.21535 4.54883,0.18554 3.58971,-0.0587 8.24127,-0.65396 13.10742,-2.63281 0.0762,-0.031 0.14437,-0.0328 0.22071,-0.0645 a 1.0001,1.0001 0 0 0 -0.54688,-1.91016 c -3.07185,0.50591 -7.47022,0.16956 -11.04492,-0.32226 -3.5747,-0.49183 -6.33203,-1.11719 -6.33203,-1.11719 z m 0.64062,2.14258 c 0.74111,0.16025 2.36428,0.53493 5.41797,0.95508 1.29801,0.17858 2.74668,0.28674 4.16992,0.39843 -2.05769,0.36083 -3.98965,0.52337 -5.66601,0.55078 -1.73067,0.0283 -3.20566,-0.0675 -4.32227,-0.17578 -0.14884,-0.0144 -0.16508,-0.0206 -0.29882,-0.0351 0.32412,-0.46599 0.55505,-1.03819 0.69921,-1.69336 z"
           id="path3986" />
        <path
           style="color:#000000;fill:#ffffff;stroke-width:2;stroke-linecap:round;stroke-linejoin:round;-inkscape-stroke:none;paint-order:markers stroke fill"
           d="m -271.17853,-526.23127 c 0,0 11.19152,2.5328 17.76178,1.45073 -9.60448,3.98806 -18.41945,2.26988 -19.61419,2.18302 0,0 2.21418,-1.7192 1.85241,-3.63375 z"
           id="path3983" />
      </g>
      <g
         id="path13547-3">
        <path
           style="color:#000000;fill:#ffffff;stroke-linecap:round;stroke-linejoin:round;-inkscape-stroke:none;paint-order:markers stroke fill"
           d="m -276.96484,-529.10156 c -1.24904,0 -2.28321,1.03417 -2.28321,2.2832 0,1.24903 1.03417,2.2832 2.28321,2.2832 1.24903,0 2.2832,-1.03417 2.2832,-2.2832 0,-1.24903 -1.03417,-2.2832 -2.2832,-2.2832 z m 0,2 c 0.16815,0 0.2832,0.11505 0.2832,0.2832 0,0.16816 -0.11505,0.2832 -0.2832,0.2832 -0.16816,0 -0.28321,-0.11504 -0.28321,-0.2832 0,-0.16815 0.11505,-0.2832 0.28321,-0.2832 z"
           id="path3980" />
        <path
           style="color:#000000;fill:#ffffff;stroke-width:2;stroke-linecap:round;stroke-linejoin:round;-inkscape-stroke:none;paint-order:markers stroke fill"
           d="m -275.68246,-526.8186 a 1.2830253,1.2830253 0 0 1 -1.28302,1.28302 1.2830253,1.2830253 0 0 1 -1.28303,-1.28302 1.2830253,1.2830253 0 0 1 1.28303,-1.28303 1.2830253,1.2830253 0 0 1 1.28302,1.28303 z"
           id="path3977" />
      </g>
      <path
         style="fill:#000000;stroke-width:2;stroke-linecap:round;stroke-linejoin:round;paint-order:markers stroke fill"
         d="m -266.58238,-521.51095 c -0.51807,4.05256 -11.33452,4.71 -11.73397,14.23611 -0.24912,5.94121 5.09546,7.83073 9.14614,8.02175 5.44122,0.2566 13.09545,-4.1263 13.24541,-9.5715 0.13683,-4.96824 -8.86001,-9.27148 -8.40029,-12.60246 z"
         id="path3974"
         sodipodi:nodetypes="cssscc" />
    </g>
  </g>
</svg>
