<?xml version="1.0" encoding="UTF-8" standalone="no"?>
<!-- Created with Inkscape (http://www.inkscape.org/) -->

<svg
   width="21.70833mm"
   height="19.598005mm"
   viewBox="0 0 21.70833 19.598005"
   version="1.1"
   id="svg1"
   inkscape:version="1.3.2 (091e20e, 2023-11-25)"
   sodipodi:docname="gone.svg"
   xmlns:inkscape="http://www.inkscape.org/namespaces/inkscape"
   xmlns:sodipodi="http://sodipodi.sourceforge.net/DTD/sodipodi-0.dtd"
   xmlns="http://www.w3.org/2000/svg"
   xmlns:svg="http://www.w3.org/2000/svg">
  <sodipodi:namedview
     id="namedview1"
     pagecolor="#ffffff"
     bordercolor="#666666"
     borderopacity="1.0"
     inkscape:showpageshadow="2"
     inkscape:pageopacity="0.0"
     inkscape:pagecheckerboard="0"
     inkscape:deskcolor="#d1d1d1"
     inkscape:document-units="mm"
     inkscape:zoom="0.2102413"
     inkscape:cx="-347.22007"
     inkscape:cy="406.67556"
     inkscape:window-width="736"
     inkscape:window-height="480"
     inkscape:window-x="0"
     inkscape:window-y="25"
     inkscape:window-maximized="0"
     inkscape:current-layer="layer1" />
  <defs
     id="defs1" />
  <g
     inkscape:label="Layer 1"
     inkscape:groupmode="layer"
     id="layer1"
     transform="translate(-196.85,-40.481251)">
    <g
       id="g15105"
       transform="matrix(0.24893713,0,0,0.24893713,37.176556,12.408099)">
      <path
         style="fill:#ff4401;stroke-width:2.33348;stroke-linecap:round;stroke-linejoin:round;paint-order:markers stroke fill"
         d="m 717.11895,118.64862 c -28.93156,-16.48574 -67.12884,5.6417 -71.78433,18.30087 -4.65547,12.65915 -12.87581,47.90881 28.99679,49.0407 41.8726,1.1319 71.7191,-50.85583 42.78754,-67.34157 z"
         id="path3512"
         sodipodi:nodetypes="zzzz" />
      <path
         id="path3509"
         style="fill:#ffffff;stroke-width:2;stroke-linecap:round;stroke-linejoin:round"
         d="m 685.43515,131.67287 c -16.93117,-6e-5 -30.65666,6.83583 -30.65659,15.2683 -3e-5,4.8144 4.47537,9.10762 11.46569,11.90606 l -1.08968,22.38837 c 0,2.1531 6.23071,8.89672 19.89167,8.9029 13.66096,0.006 21.08566,-6.16584 20.79648,-9.26654 l -1.31992,-21.98362 c 7.04942,-2.7974 11.56866,-7.10914 11.56863,-11.94717 7e-5,-8.43242 -13.72523,-15.26828 -30.65628,-15.2683 z m 0,7.46604 c 8.65196,0 19.22565,3.49319 19.22561,7.80226 3e-5,4.30906 -10.57366,7.80225 -19.22561,7.80225 -8.65196,0 -18.87754,-3.49319 -18.87751,-7.80225 -4e-5,-4.30907 10.22555,-7.80226 18.87751,-7.80226 z" />
      <path
         style="color:#000000;fill:#000000;stroke-width:0.999997;stroke-linecap:round;stroke-linejoin:round;-inkscape-stroke:none"
         d="m 667.7433,136.77761 c -1.17981,0.41368 -2.147,1.27902 -2.68886,2.40571 l -22.11116,45.55755 c -1.12781,2.34703 -0.13936,5.16395 2.20772,6.29166 2.34704,1.12781 5.16395,0.13936 6.29166,-2.20773 l 22.11116,-45.55639 c 1.12781,-2.34704 0.13936,-5.16396 -2.20772,-6.29167 -1.12702,-0.54148 -2.42297,-0.61311 -3.6028,-0.19913 z"
         id="path3506"
         sodipodi:nodetypes="ccccccsc" />
      <g
         id="path14552-6">
        <path
           style="color:#000000;fill:#ffffff;stroke-width:0.999997;stroke-linecap:round;stroke-linejoin:round;-inkscape-stroke:none"
           d="m 667.7433,136.77761 a 4.7147172,4.7147172 0 0 0 -2.68886,2.40571 l -5.49284,11.43111 a 4.7147172,4.7147172 0 0 0 2.20773,6.29166 4.7147172,4.7147172 0 0 0 6.29166,-2.20772 l 5.49283,-11.42996 a 4.7147172,4.7147172 0 0 0 -2.20772,-6.29167 4.7147172,4.7147172 0 0 0 -3.6028,-0.19913 z"
           id="path3503" />
        <path
           style="color:#000000;fill:#000000;stroke-linecap:round;stroke-linejoin:round;-inkscape-stroke:none"
           d="m 669.5918,136.01953 c -0.67733,-0.0374 -1.36129,0.0582 -2.01368,0.28711 -1.30473,0.45748 -2.37535,1.41415 -2.9746,2.66016 l -5.49219,11.43164 c -1.24485,2.5906 -0.14925,5.71425 2.4414,6.95898 2.5906,1.24485 5.71425,0.14729 6.95899,-2.44336 l 5.49219,-11.42969 c 1.24485,-2.5906 0.14925,-5.71424 -2.44141,-6.95898 -0.62318,-0.29941 -1.29338,-0.46842 -1.9707,-0.50586 z m -0.0547,0.99805 c 0.54736,0.0302 1.08796,0.16808 1.5918,0.41015 2.10351,1.01068 2.98538,3.52153 1.97461,5.625 l -5.49415,11.42969 c -1.01067,2.10351 -3.51957,2.98343 -5.62304,1.97266 -2.10352,-1.01068 -2.98538,-3.52153 -1.97461,-5.625 l 5.49414,-11.42969 c 0.48448,-1.00738 1.34748,-1.78052 2.40234,-2.15039 0.52745,-0.18507 1.08155,-0.26267 1.62891,-0.23242 z"
           id="path3500" />
      </g>
      <path
         sodipodi:type="star"
         style="fill:#000000;stroke-width:27.149;stroke-linecap:round;stroke-linejoin:round"
         id="path3497"
         inkscape:flatsided="false"
         sodipodi:sides="5"
         sodipodi:cx="585.42804"
         sodipodi:cy="112.99834"
         sodipodi:r1="6.6268115"
         sodipodi:r2="11.425537"
         sodipodi:arg1="0.52359878"
         sodipodi:arg2="1.1519173"
         inkscape:rounded="0"
         inkscape:randomized="0"
         d="m 591.16703,116.31174 -1.09181,7.12434 -6.02497,-3.95574 -7.11304,1.16317 1.90032,-6.95248 -3.3043,-6.40546 7.19944,-0.34113 5.07087,-5.12196 2.54918,6.74165 6.43827,3.23991 z"
         transform="matrix(0.2674727,0,0,0.2674727,516.79844,96.901892)"
         inkscape:transform-center-x="-3.7863082e-06" />
      <path
         sodipodi:type="star"
         style="fill:#000000;stroke-width:27.149;stroke-linecap:round;stroke-linejoin:round"
         id="path3494"
         inkscape:flatsided="false"
         sodipodi:sides="5"
         sodipodi:cx="585.42804"
         sodipodi:cy="112.99834"
         sodipodi:r1="6.6268115"
         sodipodi:r2="11.425537"
         sodipodi:arg1="0.52359878"
         sodipodi:arg2="1.1519173"
         inkscape:rounded="0"
         inkscape:randomized="0"
         d="m 591.16703,116.31174 -1.09181,7.12434 -6.02497,-3.95574 -7.11304,1.16317 1.90032,-6.95248 -3.3043,-6.40546 7.19944,-0.34113 5.07087,-5.12196 2.54918,6.74165 6.43827,3.23991 z"
         inkscape:transform-center-x="0.48323626"
         inkscape:transform-center-y="0.18141949"
         transform="matrix(0.29550319,-0.15666375,0.15666375,0.29550319,494.47566,178.37152)" />
      <path
         sodipodi:type="star"
         style="fill:#000000;stroke-width:27.149;stroke-linecap:round;stroke-linejoin:round"
         id="path3491"
         inkscape:flatsided="false"
         sodipodi:sides="5"
         sodipodi:cx="585.42804"
         sodipodi:cy="112.99834"
         sodipodi:r1="6.6268115"
         sodipodi:r2="11.425537"
         sodipodi:arg1="0.52359878"
         sodipodi:arg2="1.1519173"
         inkscape:rounded="0"
         inkscape:randomized="0"
         d="m 591.16703,116.31174 -1.09181,7.12434 -6.02497,-3.95574 -7.11304,1.16317 1.90032,-6.95248 -3.3043,-6.40546 7.19944,-0.34113 5.07087,-5.12196 2.54918,6.74165 6.43827,3.23991 z"
         inkscape:transform-center-x="0.3175839"
         inkscape:transform-center-y="-0.18966419"
         transform="matrix(0.14927037,0.17790975,-0.17790975,0.14927037,619.74384,9.6809123)" />
    </g>
  </g>
</svg>
