<?xml version="1.0" encoding="UTF-8" standalone="no"?>
<!-- Created with Inkscape (http://www.inkscape.org/) -->

<svg
   width="24.26627mm"
   height="21.399858mm"
   viewBox="0 0 24.26627 21.399858"
   version="1.1"
   id="svg1"
   inkscape:version="1.3.2 (091e20e, 2023-11-25)"
   sodipodi:docname="got-gift.svg"
   xmlns:inkscape="http://www.inkscape.org/namespaces/inkscape"
   xmlns:sodipodi="http://sodipodi.sourceforge.net/DTD/sodipodi-0.dtd"
   xmlns="http://www.w3.org/2000/svg"
   xmlns:svg="http://www.w3.org/2000/svg">
  <sodipodi:namedview
     id="namedview1"
     pagecolor="#ffffff"
     bordercolor="#666666"
     borderopacity="1.0"
     inkscape:showpageshadow="2"
     inkscape:pageopacity="0.0"
     inkscape:pagecheckerboard="0"
     inkscape:deskcolor="#d1d1d1"
     inkscape:document-units="mm"
     inkscape:zoom="0.2102413"
     inkscape:cx="-109.3981"
     inkscape:cy="344.84185"
     inkscape:window-width="736"
     inkscape:window-height="480"
     inkscape:window-x="0"
     inkscape:window-y="25"
     inkscape:window-maximized="0"
     inkscape:current-layer="layer1" />
  <defs
     id="defs1" />
  <g
     inkscape:label="Layer 1"
     inkscape:groupmode="layer"
     id="layer1"
     transform="translate(-133.87917,-57.149999)">
    <g
       id="g11297"
       transform="matrix(0.25022252,0,0,0.31805027,360.80474,237.89581)">
      <rect
         style="fill:#ff4401;stroke-width:2.00004;stroke-linecap:round;stroke-linejoin:round"
         id="rect3656"
         width="78.222939"
         height="56.672218"
         x="-851.87738"
         y="-631.77069"
         transform="matrix(0.99650841,-0.08349244,0.07755579,0.99698801,0,0)" />
      <path
         id="path3653"
         style="fill:#000000;stroke-width:2;stroke-linecap:round;stroke-linejoin:round"
         d="m -876.24637,-568.29286 c -3.44914,-0.0267 -6.37559,1.44249 -7.51414,4.41286 -3.60513,9.40535 13.64764,12.16631 21.28263,11.99439 -4.69991,-0.12505 -13.19784,-1.83934 -11.26734,-6.87577 1.7413,-4.54287 10.77288,-2.96219 13.34151,4.67802 l 0.1221,2.03046 c 10e-4,-2.2e-4 0.003,-5.2e-4 0.004,-7.2e-4 l -0.22014,-3.66981 c -2.79919,-8.32598 -10.00048,-12.52496 -15.74906,-12.56941 z" />
      <path
         id="path3650"
         style="fill:#000000;stroke-width:2;stroke-linecap:round;stroke-linejoin:round"
         d="m -839.35166,-567.99265 c 3.44914,-0.0267 6.37559,1.44249 7.51415,4.41286 3.60512,9.40535 -13.64764,12.16631 -21.28264,11.9944 4.69991,-0.12506 13.19784,-1.83935 11.26735,-6.87578 -1.7413,-4.54287 -10.77288,-2.96218 -13.34152,4.67802 l -0.1221,2.03046 c -10e-4,-2.2e-4 -0.003,-5.1e-4 -0.004,-7.1e-4 l 0.22014,-3.66982 c 2.79919,-8.32598 10.00049,-12.52496 15.74906,-12.56941 z" />
      <path
         id="path3647"
         style="fill:#000000;stroke-width:2;stroke-linecap:round;stroke-linejoin:round"
         d="m -857.68219,-559.04255 c -4.35689,-1.3e-4 -7.88897,2.59514 -7.88907,5.79666 6.8e-4,0.53881 0.1036,1.67538 0.30576,2.1933 l 14.69052,-0.60047 c 0.20202,-0.51794 0.15308,-1.41725 0.15363,-1.95604 -0.49952,-2.61659 -2.90412,-5.43341 -7.26084,-5.43345 z"
         sodipodi:nodetypes="cccccc" />
      <path
         id="path3644"
         style="fill:#f9f9f9;stroke-width:2;stroke-linecap:round;stroke-linejoin:round"
         d="m -828.65855,-552.31782 -57.64619,2.0408 -0.36371,9.62418 2.18924,-0.0731 1.24169,30.37117 54.32064,-2.10283 -2.04717,-30.05691 2.74827,-0.0339 z"
         sodipodi:nodetypes="ccccccccc" />
      <path
         style="color:#000000;fill:#ffffff;stroke-linecap:round;stroke-linejoin:round;-inkscape-stroke:none"
         d="m -906.1543,-558.625 a 1,1 0 0 0 -0.60742,0.4668 1,1 0 0 0 0.36719,1.36523 l 10.84766,6.25195 a 1,1 0 0 0 1.36523,-0.36718 1,1 0 0 0 -0.36719,-1.36524 l -10.84765,-6.25195 a 1,1 0 0 0 -0.75782,-0.0996 z m 11.26758,28.33594 -8.46484,1.13086 a 1,1 0 0 0 -0.85938,1.12304 1,1 0 0 0 1.12305,0.85938 l 8.46484,-1.13086 a 1,1 0 0 0 0.85938,-1.12305 1,1 0 0 0 -1.12305,-0.85937 z"
         id="path3641" />
      <path
         style="color:#000000;fill:#ffffff;stroke-linecap:round;stroke-linejoin:round;-inkscape-stroke:none"
         d="m -889.00781,-516.82031 a 1,1 0 0 0 -0.71875,0.26367 l -13.27735,12.22266 a 1,1 0 0 0 -0.0586,1.41406 1,1 0 0 0 1.41406,0.0586 l 13.27735,-12.22461 a 1,1 0 0 0 0.0586,-1.41406 1,1 0 0 0 -0.69531,-0.32031 z"
         id="path3638" />
      <path
         style="color:#000000;fill:#ffffff;stroke-linecap:round;stroke-linejoin:round;-inkscape-stroke:none"
         d="m -810.65039,-564.28906 a 1,1 0 0 0 -0.75977,0.0937 l -11.14257,6.33008 a 1,1 0 0 0 -0.375,1.36328 1,1 0 0 0 1.36328,0.37695 l 11.14258,-6.33008 a 1,1 0 0 0 0.375,-1.36328 1,1 0 0 0 -0.60352,-0.4707 z"
         id="path3635" />
      <path
         style="color:#000000;fill:#ffffff;stroke-linecap:round;stroke-linejoin:round;-inkscape-stroke:none"
         d="m -820.15625,-533.52734 a 1,1 0 0 0 -1.12695,0.85351 1,1 0 0 0 0.85351,1.12696 l 8.15625,1.11914 a 1,1 0 0 0 1.12696,-0.85352 A 1,1 0 0 0 -812,-532.4082 Z"
         id="path3632" />
      <path
         style="color:#000000;fill:#ffffff;stroke-linecap:round;stroke-linejoin:round;-inkscape-stroke:none"
         d="m -820.05859,-512.08789 a 1,1 0 0 0 -0.17383,1.40234 l 7.22461,9.29102 a 1,1 0 0 0 1.40234,0.17578 1,1 0 0 0 0.17578,-1.4043 l -7.22461,-9.28906 a 1,1 0 0 0 -1.40429,-0.17578 z"
         id="path3629" />
      <path
         style="fill:#000000;stroke-width:2;stroke-linecap:round;stroke-linejoin:round"
         d="m -884.44962,-535.14196 54.22911,-0.64773 0.65331,7.90127 -54.60832,0.99303 z"
         id="path3626"
         sodipodi:nodetypes="ccccc" />
      <path
         style="fill:#000000;stroke-width:1.99999;stroke-linecap:round;stroke-linejoin:round"
         d="m -865.25338,-551.23869 0.69161,40.78586 15.57666,-0.6068 -1.6194,-40.92391 z"
         id="path3623"
         sodipodi:nodetypes="ccccc" />
    </g>
  </g>
</svg>
