<?xml version="1.0" encoding="utf-8"?>
<!-- Generator: Adobe Illustrator 26.3.1, SVG Export Plug-In . SVG Version: 6.00 Build 0)  -->
<svg version="1.1" id="Calque_1" xmlns="http://www.w3.org/2000/svg" xmlns:xlink="http://www.w3.org/1999/xlink" x="0px" y="0px"
	 viewBox="0 0 585.95 524.26" style="enable-background:new 0 0 585.95 524.26;" xml:space="preserve">
<g>
	<path d="M0.05,148.73c-0.33-10.9,0.95-22.57,3.67-34.03c4.16-17.51,11.2-33.84,21.25-48.81c10.5-15.64,23.47-28.85,38.99-39.52
		c9.47-6.51,19.55-11.85,30.26-16.07c9.64-3.8,19.54-6.61,29.71-8.27c13.78-2.24,27.63-2.73,41.57-0.96
		c8.78,1.11,17.42,2.77,25.86,5.32c11.88,3.58,23.18,8.6,33.79,15.05c14.1,8.58,26.48,19.19,37.08,31.86
		c9.5,11.36,17.12,23.88,22.89,37.49c2.68,6.33,5.08,12.81,6.56,19.57c0.16,0.72,0.27,1.57,1.29,1.56c1.01-0.01,1.08-0.87,1.27-1.58
		c8.76-32.6,26.7-59.09,53.34-79.67c11.09-8.57,23.28-15.27,36.4-20.32c18.73-7.21,38.09-10.62,58.12-10.03
		c9.82,0.29,19.52,1.72,29.14,3.92c14.13,3.23,27.44,8.46,39.96,15.63c15.21,8.7,28.52,19.76,39.83,33.2
		c9.81,11.66,17.7,24.49,23.54,38.52c4.64,11.14,7.8,22.72,9.7,34.7c2.1,13.29,1.98,26.59,0.93,39.88
		c-0.79,10.1-2.72,20.09-5.22,29.95c-1.92,7.58-4.12,15.06-6.67,22.43c-3.13,9.01-6.77,17.84-10.84,26.47
		c-5.21,11.04-10.96,21.78-17.19,32.28c-6.75,11.36-14.01,22.38-21.7,33.12c-18.93,26.4-40.09,50.94-62.61,74.32
		c-21.07,21.87-43.31,42.5-66.32,62.3c-22.37,19.25-45.47,37.59-69.23,55.1c-9.83,7.24-19.94,14.09-29.89,21.18
		c-1.84,1.31-3.36,1.22-5.19-0.04c-17.66-12.15-35-24.73-51.95-37.85c-12.88-9.97-25.55-20.2-38.02-30.68
		c-28.16-23.66-55.13-48.59-80.45-75.28c-19.99-21.07-38.82-43.13-55.89-66.64c-12.21-16.82-23.37-34.31-33.1-52.68
		c-6.33-11.96-11.99-24.25-16.66-36.96c-3.18-8.64-5.91-17.43-8.16-26.39C2.22,181.3-0.07,165.63,0.05,148.73z M294.47,350.04
		c5.5-0.38,12.55-0.47,19.6-1.56c13.57-2.1,26.56-6.03,39.16-11.28c14.52-6.05,28.13-13.83,41.08-22.75
		c20.5-14.12,38.86-30.68,55.51-49.16c2.24-2.48,2.24-2.88-0.02-5.38c-9.99-11.06-20.58-21.51-31.95-31.16
		c-13.47-11.43-27.77-21.67-43.18-30.28c-12.92-7.21-26.41-13.16-40.69-17.28c-8.66-2.5-17.42-4.47-26.36-5.37
		c-24.66-2.47-48.43,1.5-71.37,10.65c-14.07,5.62-27.39,12.74-40.02,21.09c-22.39,14.8-42.32,32.46-60.21,52.43
		c-2.12,2.36-2.12,2.85,0.01,5.21c18.39,20.3,38.66,38.4,61.76,53.26c18.54,11.93,38.11,21.47,59.57,26.99
		C269.06,348.47,280.87,350.05,294.47,350.04z"/>
	<path d="M266.23,222.1c11.31-0.01,21.17,6.59,25.38,16.83c0.25,0.61,0.34,1.33,1.25,1.32c0.96-0.01,1.17-0.72,1.47-1.44
		c5.31-12.78,17.64-19.34,31.21-16.35c15.18,3.34,23.17,18.2,20.59,32.03c-2.43,13.04-9.64,23.32-18,33.02
		c-9.61,11.15-20.96,20.35-32.83,28.97c-1.51,1.1-2.83,1.32-4.49,0.12c-14.55-10.5-28.16-22-39.01-36.45
		c-4.72-6.28-8.65-13.02-10.91-20.57c-3.98-13.24-0.26-26.18,11.65-33.54C256.76,223.4,261.4,221.93,266.23,222.1z"/>
</g>
</svg>
