<?xml version="1.0" encoding="utf-8"?>
<!-- Generator: Adobe Illustrator 26.3.1, SVG Export Plug-In . SVG Version: 6.00 Build 0)  -->
<svg version="1.1" id="Calque_1" xmlns="http://www.w3.org/2000/svg" xmlns:xlink="http://www.w3.org/1999/xlink" x="0px" y="0px"
	 viewBox="0 0 424.68 218.41" style="enable-background:new 0 0 424.68 218.41;" xml:space="preserve">
<g>
	<path d="M133.96,0.03c9.12,0.09,19.62-0.19,30.11,0.41c13.85,0.8,26.88,4.72,39.19,10.8c23.72,11.72,40.96,29.83,51.68,54.04
		c7.61,17.18,10.29,35.24,8.83,53.88c-0.86,11-3.61,21.62-7.9,31.82c-0.72,1.7-1.74,2-3.34,1.35
		c-16.35-6.66-26.05-18.66-29.16-36.06c-1.1-6.18-0.54-12.46-1.66-18.65c-3.39-18.64-12.82-33.28-28.26-44.17
		c-8.32-5.87-17.64-9.26-27.56-11.02c-3.5-0.62-7.14-0.71-10.71-0.71c-16.75,0.01-33.51-0.55-50.24,0.22
		c-19.71,0.9-35.69,9.58-48.3,24.63c-7.1,8.47-11.7,18.25-13.73,29.01c-3.61,19.13-0.06,37.04,11.44,52.86
		c13.68,18.81,32.57,27.8,55.75,27.88c15.25,0.05,30.5,0.05,45.75-0.03c2.33-0.01,3.77,0.67,5.06,2.73
		c7.15,11.46,16.09,21.38,26.44,30.05c0.51,0.43,1.03,0.84,1.54,1.28c1.16,1,1.45,1.58-0.44,2.24c-8.15,2.88-16.56,4.64-25.13,5
		c-19.99,0.83-40.04,1.21-59.98,0.13c-36.81-1.99-65.66-18.94-85.93-49.83C3.82,147.23-1.67,124.17,0.44,99.67
		C3.02,69.5,16.48,44.62,39.56,24.98c10.86-9.24,23.3-15.73,36.8-20.02C87.52,1.42,99.1,0,110.83,0.03
		C118.08,0.04,125.33,0.03,133.96,0.03z"/>
	<path d="M294.54,0.03c9.11,0.07,19.19-0.09,29.27,0.39c7.22,0.34,14.21,1.77,21.11,3.64c22.05,5.97,40.26,18.04,54.74,35.6
		c10.18,12.35,17.3,26.34,21.27,41.91c2.59,10.16,4.1,20.49,3.69,30.9c-1.22,30.95-13.5,56.89-36.36,77.83
		c-12.52,11.47-27.17,19.09-43.33,23.8c-7.83,2.28-15.95,3.72-24.12,3.8c-18.08,0.18-36.16,0.22-54.24-0.1
		c-19.37-0.35-37.3-5.91-53.91-15.94c-19.36-11.7-33.35-28.05-42.63-48.51c-7.95-17.53-10.54-36.03-8.92-55.09
		c0.91-10.73,3.55-21.12,7.83-31.07c0.78-1.82,1.79-2.14,3.5-1.43c16.71,6.93,26.29,19.36,29.13,37.2
		c0.93,5.86,0.51,11.79,1.57,17.65c1.84,10.19,5.81,19.38,11.8,27.74c9.77,13.62,23.01,22.19,39.15,26.23
		c4.33,1.08,8.89,1.66,13.35,1.69c17.49,0.12,35,0.59,52.48-0.18c17.28-0.76,32.01-7.67,44.13-20
		c10.3-10.48,16.33-23.07,18.41-37.62c3.94-27.52-9.76-55.1-34.14-68.46c-10.59-5.8-21.93-8.46-34.02-8.34
		c-15,0.15-30-0.01-44.99,0.08c-2.18,0.01-3.47-0.68-4.61-2.56c-7.5-12.26-17.07-22.71-28.27-31.7c-0.52-0.42-1.55-0.7-1.26-1.59
		c0.24-0.73,1.16-0.87,1.88-1.07c11.29-3.19,22.83-4.6,34.53-4.76C278.9-0.05,286.23,0.03,294.54,0.03z"/>
</g>
</svg>
