<?xml version="1.0" encoding="utf-8"?>
<!-- Generator: Adobe Illustrator 26.3.1, SVG Export Plug-In . SVG Version: 6.00 Build 0)  -->
<svg version="1.1" id="Calque_1" xmlns="http://www.w3.org/2000/svg" xmlns:xlink="http://www.w3.org/1999/xlink" x="0px" y="0px"
	 viewBox="0 0 405.61 405.55" style="enable-background:new 0 0 405.61 405.55;" xml:space="preserve">
<g>
	<path d="M0,152.01c0.24-12.05,1.93-25.61,5.62-38.95c8.76-31.73,26.08-57.82,51.41-78.67c12.02-9.9,25.34-17.72,39.82-23.42
		C117.47,2.84,138.93-0.94,161.1,0.2c18.67,0.96,36.68,5.03,53.89,12.56c27.99,12.25,50.32,31.21,67.23,56.54
		c9.1,13.64,15.65,28.48,19.92,44.37c5.19,19.31,6.77,38.87,4.27,58.67c-3.35,26.58-12.92,50.78-28.8,72.42
		c-3.22,4.39-3.4,3.5,0.49,7.39c40.43,40.43,80.87,80.87,121.31,121.29c5.4,5.4,7.91,11.67,4.95,19.02
		c-2.8,6.97-8.05,11.64-15.62,12.89c-6.06,1-10.99-1.66-15.2-5.89c-15.92-15.97-31.87-31.91-47.82-47.86
		c-24.65-24.66-49.31-49.3-73.97-73.96c-2.98-2.98-3.04-3.06-6.47-0.49c-9.83,7.37-20.41,13.43-31.71,18.2
		c-11.69,4.93-23.81,8.33-36.36,10.3c-13.6,2.13-27.2,2.5-40.84,0.88c-10.26-1.22-20.3-3.44-30.16-6.62
		c-15.49-5.01-29.77-12.31-42.88-21.88c-17.72-12.94-32.06-28.94-43.01-47.97c-6-10.42-10.69-21.41-14.05-32.93
		C2.14,182.98,0.07,168.5,0,152.01z M131.84,119.55c-2.01,0.45-4.05,0.76-6.01,1.36c-8.2,2.52-16.04,5.9-23.4,10.34
		C92.58,137.2,84,144.6,76.71,153.5c-1.01,1.23-1.31,2.26-0.13,3.68c16.63,20.14,37.97,32.05,63.7,35.78
		c16.74,2.43,33.18,0.56,49.08-5.48c16.6-6.31,30.59-16.23,41.9-29.94c1.29-1.57,1.39-2.65,0.05-4.26
		c-13.25-15.95-29.93-26.67-49.74-32.55c-1.66-0.49-3.43-1.5-5.52-0.9c18.96,16.75,15.23,40.79,2.47,53
		c-13.76,13.16-35.54,13.08-49.16-0.23C116.49,160.02,113.59,135.99,131.84,119.55z"/>
</g>
</svg>
