<svg width="21" height="21" viewBox="0 0 21 21" fill="none" xmlns="http://www.w3.org/2000/svg">
<g clip-path="url(#clip0_5_62)">
<path d="M10.4971 21C4.63483 20.9621 0.00869942 16.2903 -1.84323e-05 10.5312C-0.00873629 4.65486 4.70021 0.00872753 10.4871 1.22103e-05C16.2793 -0.00870311 20.993 4.6492 21 10.4728C21.007 16.3478 16.2941 20.9848 10.4971 21ZM19.0603 10.5116C19.0546 5.78393 15.2562 1.96532 10.5399 1.94571C5.80433 1.92566 1.95017 5.74646 1.94842 10.4933C1.94668 15.2117 5.75594 19.046 10.4998 19.0487C15.2227 19.0517 19.0385 15.2448 19.0603 10.5116Z" fill="#030101"/>
<g clip-path="url(#clip1_5_62)">
<path d="M16.2551 6.63577C16.198 6.31495 16.076 6.02546 15.8952 5.76207C15.6876 5.45979 15.4219 5.21859 15.0997 5.04109C14.8408 4.89856 14.5654 4.80824 14.2715 4.77091C14.044 4.74194 13.8178 4.74376 13.5919 4.779C13.3967 4.80928 13.21 4.86854 13.0281 4.94607C12.8564 5.01916 12.6957 5.11104 12.5501 5.22512C12.3936 5.34807 12.2475 5.48459 12.097 5.61537C11.8918 5.79366 11.6868 5.97273 11.4813 6.1505C11.2413 6.35802 11.0002 6.5645 10.7605 6.77203C10.5016 6.99626 10.2432 7.22154 9.98486 7.44603C9.80975 7.59822 9.63463 7.75066 9.45951 7.90259C9.27471 8.06312 9.08991 8.22366 8.90458 8.38394C8.71245 8.54996 8.51953 8.71468 8.32766 8.8807C8.13867 9.04463 7.95072 9.20987 7.76173 9.3738C7.55337 9.55418 7.34422 9.73351 7.1356 9.91362C6.90787 10.1102 6.67988 10.3067 6.45319 10.5046C6.40738 10.5446 6.35974 10.5819 6.33618 10.644C6.23043 10.9215 6.12128 11.1979 6.01239 11.4744C5.85036 11.8855 5.68754 12.2964 5.52499 12.7073C5.40877 13.0004 5.29202 13.293 5.1758 13.5859C5.03262 13.9461 4.88813 14.3061 4.74756 14.6674C4.70097 14.7875 4.71432 14.9057 4.80567 15.002C4.89074 15.0921 4.99964 15.1195 5.12083 15.09C5.48572 15.0018 5.84983 14.9112 6.21499 14.824C6.69532 14.7094 7.17565 14.5951 7.6552 14.4768C8.22662 14.3361 8.79935 14.2001 9.37182 14.0633C9.42836 14.0498 9.47941 14.0258 9.52207 13.9895C9.7553 13.7906 9.9867 13.5898 10.2184 13.3893C10.5914 13.0667 10.9636 12.7433 11.3371 12.4212C11.613 12.1834 11.8907 11.9476 12.1666 11.7098C12.4234 11.4885 12.6781 11.2648 12.9349 11.0434C13.2603 10.7628 13.5872 10.484 13.9128 10.2036C14.1916 9.96374 14.4707 9.72385 14.7479 9.48187C15.0224 9.24223 15.3057 9.01252 15.5719 8.76375C15.9747 8.38707 16.204 7.91929 16.2807 7.37738C16.3161 7.12835 16.3069 6.87801 16.2551 6.63577ZM8.36038 13.126L6.3566 13.6822L7.13272 11.7156C7.28978 11.8946 7.44683 12.074 7.60337 12.2536C7.85623 12.5436 8.10804 12.8352 8.36038 13.126Z" fill="#030101"/>
</g>
</g>
<defs>
<clipPath id="clip0_5_62">
<rect width="21" height="21" fill="white"/>
</clipPath>
<clipPath id="clip1_5_62">
<rect width="11.6667" height="10.5" fill="white" transform="translate(4.66667 4.66675)"/>
</clipPath>
</defs>
</svg>
