<?xml version="1.0" encoding="UTF-8" standalone="no"?>
<!-- Created with Inkscape (http://www.inkscape.org/) -->

<svg
   width="23.75765mm"
   height="21.801115mm"
   viewBox="0 0 23.75765 21.801115"
   version="1.1"
   id="svg1"
   inkscape:version="1.3.2 (091e20e, 2023-11-25)"
   sodipodi:docname="money-in.svg"
   xmlns:inkscape="http://www.inkscape.org/namespaces/inkscape"
   xmlns:sodipodi="http://sodipodi.sourceforge.net/DTD/sodipodi-0.dtd"
   xmlns="http://www.w3.org/2000/svg"
   xmlns:svg="http://www.w3.org/2000/svg">
  <sodipodi:namedview
     id="namedview1"
     pagecolor="#ffffff"
     bordercolor="#666666"
     borderopacity="1.0"
     inkscape:showpageshadow="2"
     inkscape:pageopacity="0.0"
     inkscape:pagecheckerboard="0"
     inkscape:deskcolor="#d1d1d1"
     inkscape:document-units="mm"
     inkscape:zoom="0.2102413"
     inkscape:cx="261.60416"
     inkscape:cy="164.09716"
     inkscape:window-width="736"
     inkscape:window-height="480"
     inkscape:window-x="0"
     inkscape:window-y="25"
     inkscape:window-maximized="0"
     inkscape:current-layer="layer1" />
  <defs
     id="defs1" />
  <g
     inkscape:label="Layer 1"
     inkscape:groupmode="layer"
     id="layer1"
     transform="translate(-34.660413,-104.775)">
    <g
       id="g11283"
       transform="matrix(0.27345794,0,0,0.27345794,287.4326,289.25614)">
      <path
         style="fill:#ff4401;stroke-width:1.0182;stroke-linecap:round;stroke-linejoin:round;paint-order:markers stroke fill"
         d="m -924.28714,-619.13486 c 1.40583,23.06807 43.69573,30.2201 66.65749,19.07312 22.96176,-11.14699 30.69908,-40.01449 -0.47847,-51.98473 -25.06195,-9.62223 -68.18771,-0.049 -66.17902,32.91161 z"
         id="path3620"
         sodipodi:nodetypes="szss" />
      <path
         style="color:#000000;fill:#ffffff;stroke-linecap:round;stroke-linejoin:round;-inkscape-stroke:none;paint-order:markers stroke fill"
         d="m -856.08984,-652.70508 c -5.36277,0.7096 -10.44852,5.76835 -12.72461,11.78906 -11.77022,-7.71396 -22.73998,-8.27563 -31.12891,-5.60546 -8.62881,2.74652 -14.57123,8.67735 -16.13867,13.76562 -2.26964,7.36777 -0.52614,12.94758 1.81641,16.57227 2.05888,3.18578 4.29044,4.69547 4.875,5.07422 l 1.10937,9.38476 a 1.0001,1.0001 0 0 0 1.03711,0.88281 l 9.58008,-0.41992 a 1.0001,1.0001 0 0 0 0.93164,-0.7832 l 1.8789,-8.51367 17.61915,-1.62891 5.28125,11.23633 a 1.0001,1.0001 0 0 0 0.95507,0.57226 l 6.94727,-0.35742 a 1.0001,1.0001 0 0 0 0.94726,-1.01562 c -0.12338,-7.16538 3.97614,-10.67115 8.2754,-12.61914 4.29925,-1.948 8.67773,-2.10743 8.67773,-2.10743 a 1.0001,1.0001 0 0 0 0.95898,-0.88476 l 1.04883,-9.08399 a 1.0001,1.0001 0 0 0 -1.08398,-1.11132 l -5.64453,0.51953 c 0.24052,-4.84556 -1.37879,-7.84975 -3.31055,-9.41602 -1.29394,-1.04912 -2.45873,-1.44195 -3.32227,-1.64648 l 2.5293,-13.42774 a 1.0001,1.0001 0 0 0 -1.11523,-1.17578 z m -1.16993,2.49219 -2.39062,12.69531 a 1.0001,1.0001 0 0 0 0.90625,1.18164 c 0,0 1.70067,0.13465 3.30273,1.4336 1.60206,1.29894 3.15534,3.70259 2.56836,8.8457 a 1.0001,1.0001 0 0 0 1.08399,1.10937 l 5.51953,-0.50585 -0.81836,7.07421 c -1.0978,0.0708 -4.53855,0.36248 -8.56641,2.1875 -4.50854,2.04283 -9.01487,6.20837 -9.31054,13.49805 l -5.46485,0.2832 -5.29297,-11.26367 a 1.0001,1.0001 0 0 0 -0.99804,-0.57031 l -19.04297,1.76172 a 1.0001,1.0001 0 0 0 -0.88477,0.7793 l -1.87109,8.47656 -7.88477,0.3457 -1.04882,-8.87891 a 1.0001,1.0001 0 0 0 -0.48047,-0.74023 c 0,0 -2.56192,-1.53495 -4.65235,-4.76953 -2.09042,-3.23458 -3.68835,-8.06525 -1.58398,-14.89649 1.26177,-4.09599 6.76111,-9.88222 14.83203,-12.45117 8.07092,-2.56894 18.67973,-2.09201 30.39453,5.96875 a 1.0001,1.0001 0 0 0 1.52149,-0.53125 c 1.60369,-5.23222 6.00066,-9.69685 10.1621,-11.0332 z"
         id="path3617" />
      <ellipse
         style="fill:#000000;stroke-width:2.45659;stroke-linecap:round;stroke-linejoin:round;paint-order:markers stroke fill"
         id="ellipse3614"
         cx="-886.41907"
         cy="-666.30243"
         rx="8.4543228"
         ry="8.3210239" />
      <path
         id="path3611"
         style="stroke-width:2.47703;stroke-linecap:round;stroke-linejoin:round;paint-order:markers stroke fill"
         d="m -878.71833,-643.08729 c -0.0961,1.12471 -0.47723,2.16729 -1.07929,3.08218 -5.50368,-2.21601 -11.37083,-2.29615 -16.47033,-1.99225 -0.27388,-0.83159 -0.38663,-1.71296 -0.30956,-2.61531 0.35669,-4.17602 4.64374,-7.21988 9.57542,-6.79866 4.93167,0.42123 8.64044,4.14803 8.28376,8.32404 z"
         sodipodi:nodetypes="sccsss" />
      <path
         style="color:#000000;fill:#ffffff;stroke-linecap:round;stroke-linejoin:round;-inkscape-stroke:none;paint-order:markers stroke fill"
         d="m -858.2793,-631.39648 a 1,1 0 0 0 -0.73632,0.20507 1,1 0 0 0 -0.16993,1.4043 c 0.0629,0.0801 0.29559,0.53877 0.36524,1.08984 0.0696,0.55108 0.0195,1.20656 -0.28125,1.8711 a 1,1 0 0 0 0.5,1.32422 1,1 0 0 0 1.32226,-0.5 c 0.47089,-1.04056 0.55308,-2.07911 0.44336,-2.94727 -0.10972,-0.86816 -0.36697,-1.55202 -0.77539,-2.07226 a 1,1 0 0 0 -0.66797,-0.375 z"
         id="path3608" />
      <path
         style="color:#000000;fill:#ffffff;stroke-linecap:round;stroke-linejoin:round;-inkscape-stroke:none;paint-order:markers stroke fill"
         d="m -891.70703,-642.85742 c -1.61365,0.16734 -3.22066,0.53231 -4.69727,1.1543 a 1,1 0 0 0 -0.5332,1.30859 1,1 0 0 0 1.31055,0.5332 c 2.50136,-1.05364 5.69917,-1.28378 8.4375,-0.97656 1.36916,0.15361 2.62269,0.43916 3.60351,0.79297 0.98083,0.3538 1.67941,0.80795 1.91992,1.08984 a 1,1 0 0 0 1.41016,0.11133 1,1 0 0 0 0.11133,-1.4082 c -0.64434,-0.75521 -1.59578,-1.25325 -2.76172,-1.67383 -1.16594,-0.42058 -2.55524,-0.73151 -4.06055,-0.90039 -1.50531,-0.16889 -3.12658,-0.1986 -4.74023,-0.0312 z"
         id="path3605" />
    </g>
  </g>
</svg>
