<?xml version="1.0" encoding="UTF-8"?>
<svg xmlns="http://www.w3.org/2000/svg" version="1.1" viewBox="0 0 200 200">
  <!-- Generator: Adobe Illustrator 28.7.1, SVG Export Plug-In . SVG Version: 1.2.0 Build 142)  -->
  <g>
    <g id="Calque_3">
      <g id="bulle">
        <g id="Localisation">
          <path class="cls-1" d="M123.22,137.85l27.32-42.53c12.05-18.75,12.86-41.62,2.16-61.19-10.7-19.56-30.38-31.26-52.68-31.26s-41.98,11.69-52.68,31.26c-10.7,19.53-9.89,42.41,2.16,61.19l27.29,42.5c-23.92,4.24-39.16,14.88-39.16,27.71.03,17.19,26.24,29.69,62.39,29.69s62.36-12.5,62.36-29.69c0-12.89-15.21-23.5-39.16-27.68ZM125.92,59.53c0,14.25-11.63,25.85-25.91,25.85s-25.91-11.6-25.91-25.85,11.63-25.91,25.91-25.91,25.91,11.6,25.91,25.91ZM95.75,167.33c.93,1.47,2.52,2.34,4.27,2.34s3.37-.87,4.27-2.31l10.28-16.02c22.12,2.61,33.21,10.49,33.21,14.19,0,4.51-16.26,15.09-47.75,15.09s-47.75-10.58-47.75-15.09c0-3.7,11.09-11.54,33.21-14.19l10.28,15.99Z"/>
        </g>
      </g>
    </g>
  </g>
</svg>