<?xml version="1.0" encoding="utf-8"?>
<!-- Generator: Adobe Illustrator 26.3.1, SVG Export Plug-In . SVG Version: 6.00 Build 0)  -->
<svg version="1.1" id="Calque_1" xmlns="http://www.w3.org/2000/svg" xmlns:xlink="http://www.w3.org/1999/xlink" x="0px" y="0px"
	 viewBox="0 0 331.07 356.81" style="enable-background:new 0 0 331.07 356.81;" xml:space="preserve">
<g>
	<path d="M291.34,290.39c-6.77-0.11-12.31-2.34-18-3.8c-5.32-1.37-10.56-3-15.89-4.32c-4.49-1.11-8.74-0.35-12.59,2.38
		c-8.16,5.78-16.59,11.15-25.9,14.92c-7.49,3.04-9.73,9.36-11.35,16.42c-1.61,7.05-3.32,14.11-5.6,20.96
		c-3.57,10.72-11.3,17.37-22.42,18.86c-9.81,1.32-19.87,1.37-29.67-0.01c-11.98-1.68-19.67-9.12-22.95-20.82
		c-2.26-8.09-4.3-16.24-6.42-24.36c-1.26-4.82-4.13-8.36-8.65-10.36c-9.87-4.35-19.02-9.89-27.84-16.06
		c-4.91-3.43-10.23-2.51-15.6-0.97c-7.99,2.3-15.98,4.63-24.09,6.44c-10.18,2.28-19.39-0.62-25.98-8.44
		c-7.13-8.45-12.77-18.15-16.63-28.54c-3.66-9.83-1.52-19.22,5.57-26.93c5.9-6.43,12.34-12.38,18.72-18.36
		c4.29-4.02,6.16-8.77,5.58-14.54c-0.97-9.81-0.95-19.63,0.01-29.44c0.57-5.78-1.32-10.53-5.63-14.52
		c-5.8-5.37-11.41-10.96-17.07-16.49C-0.56,123.14-2.53,109.6,4,98.07c3.4-6.01,6.87-11.98,10.41-17.91
		c6.97-11.69,20.07-16.67,33.19-12.84c8.14,2.37,16.34,4.57,24.53,6.76c4.27,1.14,8.35,0.34,11.95-2.08
		c9.13-6.14,18.52-11.77,28.57-16.31c5.12-2.32,7.3-6.92,8.58-12.19c2-8.24,4.08-16.47,6.49-24.6
		c3.12-10.52,14.47-18.78,25.45-18.86c7.25-0.05,14.5-0.01,21.75-0.01c13.33,0,24.47,8.62,27.83,21.49
		c2.12,8.13,4.32,16.23,6.39,24.37c1.19,4.68,3.95,8.12,8.26,10.05c9.3,4.16,18.1,9.16,26.42,15.04c5.4,3.82,11.11,4.11,17.34,2.2
		c7.86-2.41,15.81-4.65,23.84-6.42c10.99-2.42,20.54,0.92,27.36,9.7c6.41,8.26,12,17.3,15.59,27.17c3.57,9.83,1.41,19.24-5.63,26.96
		c-5.82,6.39-12.2,12.28-18.52,18.2c-4.34,4.07-6.34,8.83-5.73,14.73c1.02,9.9,0.9,19.79-0.03,29.69
		c-0.52,5.49,1.25,10.09,5.31,13.91c5.64,5.31,11.14,10.76,16.7,16.15c10.33,10.01,12.29,23.13,5.25,35.75
		c-3.16,5.66-6.48,11.24-9.8,16.82C309.86,285.23,301.45,289.91,291.34,290.39z M164.73,237.52c32.4,0.06,59.36-26.55,59.26-59.04
		c-0.11-33.74-26.64-59.36-58.92-59.64c-32.58-0.28-59.46,26.52-59.46,59.01C105.6,210.82,132.01,237.46,164.73,237.52z"/>
</g>
</svg>
