<?xml version="1.0" encoding="utf-8"?>
<!-- Generator: Adobe Illustrator 26.3.1, SVG Export Plug-In . SVG Version: 6.00 Build 0)  -->
<svg version="1.1" id="Calque_1" xmlns="http://www.w3.org/2000/svg" xmlns:xlink="http://www.w3.org/1999/xlink" x="0px" y="0px"
	 viewBox="0 0 405.61 405.55" style="enable-background:new 0 0 405.61 405.55;" xml:space="preserve">
<g id="bCFfLx_00000002351305828889720390000006995444926202912909_">
	<g>
		<path d="M202.52,387.51c-48.08,0-96.16,0-144.24,0c-8.55,0-10.71-2.04-10.63-10.51c0.18-19.6-0.78-39.19,3.17-58.66
			c12.93-63.7,67.89-114.38,132.5-121.71c82.56-9.37,155.05,42.99,171.77,124.12c4.07,19.75,2.61,39.76,2.65,59.7
			c0.01,4.28-2.8,6.58-7,7.01c-1.48,0.15-2.99,0.05-4.49,0.05C298.34,387.51,250.43,387.51,202.52,387.51z"/>
		<path d="M283.97,99.27c0.01,44.85-36.41,81.38-81.17,81.39c-44.76,0.01-81.2-36.47-81.22-81.33
			c-0.02-44.89,36.33-81.31,81.16-81.32C247.58,18,283.96,54.39,283.97,99.27z"/>
	</g>
</g>
</svg>
