<?xml version="1.0" encoding="utf-8"?>
<!-- Generator: Adobe Illustrator 26.3.1, SVG Export Plug-In . SVG Version: 6.00 Build 0)  -->
<svg version="1.1" id="Calque_1" xmlns="http://www.w3.org/2000/svg" xmlns:xlink="http://www.w3.org/1999/xlink" x="0px" y="0px"
	 viewBox="0 0 458.49 393.48" style="enable-background:new 0 0 458.49 393.48;" xml:space="preserve">
<g>
	<path d="M228.87,393.47c-49.91,0-99.82-0.01-149.73,0.01c-9.21,0-18.36-0.81-27.2-3.28c-14.43-4.03-27.2-11.13-37.19-22.56
		c-6.88-7.88-11.68-16.79-13.72-27.23c-2.11-10.76-0.97-21.12,3.36-30.99c4.65-10.61,11.17-20.15,18.29-29.3
		c8.77-11.27,18.54-21.58,29.49-30.72c12.66-10.57,26.28-19.75,40.73-27.73c11.52-6.36,23.59-11.44,35.9-16
		c12.17-4.5,24.67-7.78,37.33-10.67c26.37-6.01,53.07-7.28,79.93-6.08c10.45,0.47,20.9,1.44,31.27,3.26
		c7.78,1.36,15.53,2.9,23.21,4.68c7.59,1.76,15.03,4.21,22.46,6.61c10.04,3.25,19.81,7.2,29.29,11.85
		c16.74,8.21,32.66,17.7,47.34,29.33c21.75,17.23,39.35,37.89,52.69,62.16c5.24,9.53,7.24,19.92,5.63,30.65
		c-2.33,15.47-10.21,27.89-22.35,37.66c-8.86,7.13-18.85,12.18-29.79,15.08c-8.79,2.34-17.83,3.28-26.95,3.28
		C328.85,393.46,278.86,393.47,228.87,393.47z"/>
	<path d="M228.98,159.04c-43.31,0.39-79.5-36.16-79.25-80.21C149.98,35.65,185.88-0.24,229.41,0c43.74,0.24,78.97,35.57,79.15,79.92
		C308.73,123.27,272.17,159.53,228.98,159.04z"/>
</g>
</svg>
