<?xml version="1.0" encoding="UTF-8"?>
<svg xmlns="http://www.w3.org/2000/svg" version="1.1" viewBox="0 0 200 200">
  <!-- Generator: Adobe Illustrator 28.7.1, SVG Export Plug-In . SVG Version: 1.2.0 Build 142)  -->
  <g>
    <g id="Calque_3">
      <g id="_x3F_">
        <g id="_x3F_-2" data-name="_x3F_">
          <path class="cls-1" d="M116.45,182.33c0,9.01-7.3,16.31-16.31,16.31s-16.31-7.3-16.31-16.31,7.3-16.31,16.31-16.31,16.31,7.3,16.31,16.31"/>
          <path class="cls-1" d="M157.22,60.02c0-15.14-6.01-29.66-16.72-40.36-10.7-10.7-25.22-16.72-40.36-16.72s-29.66,6.01-40.36,16.72c-10.7,10.7-16.72,25.22-16.72,40.36,0,5.83,3.11,11.21,8.15,14.12,5.05,2.91,11.26,2.91,16.31,0,5.05-2.91,8.15-8.3,8.15-14.12,0-6.49,2.58-12.71,7.16-17.3,4.59-4.59,10.81-7.16,17.3-7.16s12.71,2.58,17.3,7.16c4.59,4.59,7.16,10.81,7.16,17.3s-2.58,12.71-7.16,17.3c-4.59,4.59-10.81,7.16-17.3,7.16-4.33,0-8.47,1.72-11.53,4.78-3.06,3.06-4.78,7.21-4.78,11.53v36.69c0,5.83,3.11,11.21,8.15,14.12,5.05,2.91,11.26,2.91,16.31,0s8.15-8.3,8.15-14.12v-22.79c11.77-3.52,22.09-10.74,29.43-20.59,7.34-9.85,11.32-21.8,11.34-34.08h0Z"/>
        </g>
      </g>
    </g>
  </g>
</svg>