<?xml version="1.0" encoding="utf-8"?>
<!-- Generator: Adobe Illustrator 26.3.1, SVG Export Plug-In . SVG Version: 6.00 Build 0)  -->
<svg version="1.1" id="Calque_1" xmlns="http://www.w3.org/2000/svg" xmlns:xlink="http://www.w3.org/1999/xlink" x="0px" y="0px"
	 viewBox="0 0 624.2 585.64" style="enable-background:new 0 0 624.2 585.64;" xml:space="preserve">
<path d="M612.42,238.89c0-1.08,0.05-2.17-0.06-3.25c-0.51-5.28-2.54-9.86-6.8-13.13c-6.99-5.38-14.1-10.58-21.16-15.87
	c-16.3-12.22-32.57-24.49-48.93-36.63c-2.12-1.58-2.83-3.27-2.82-5.86c0.11-16.75,0.03-33.5,0.07-50.25
	c0.01-3.31-0.41-6.48-2.05-9.39c-3.64-6.47-9.2-9.46-16.63-9.43c-25.16,0.07-50.33,0.01-75.5,0.05c-1.93,0-3.49-0.5-5.04-1.68
	c-7.07-5.4-14.22-10.7-21.34-16.03c-19.69-14.76-39.39-29.53-59.08-44.3c-10.05-7.53-20.05-15.12-30.14-22.59
	c-7.12-5.28-15.06-5.33-21.98-0.17c-13.34,9.94-26.62,19.94-39.93,29.91c-23.56,17.65-47.13,35.28-70.65,52.99
	c-1.78,1.34-3.54,1.88-5.73,1.88c-24.75-0.05-49.5-0.04-74.25-0.02c-2.4,0-4.81-0.08-7.17,0.72c-7.24,2.43-12.49,9.13-12.39,17.98
	c0.19,17.08,0.03,34.16,0.09,51.25c0.01,1.94-0.56,3.26-2.15,4.42c-5.24,3.82-10.38,7.78-15.57,11.67
	c-16.64,12.47-33.07,25.22-50,37.27c-8.44,6.01-12.21,13.07-12.18,23.63c0.27,102.83,0.16,205.65,0.16,308.48
	c0,1.42-0.06,2.84,0.05,4.25c0.43,5.96,2.81,10.93,7.82,14.37c3.77,2.6,8.07,3.23,12.59,3.23c93.33-0.04,186.66-0.03,279.98-0.03
	c93.16,0,186.32,0,279.48,0c1.67,0,3.35,0.09,4.99-0.14c6.21-0.85,11.09-3.75,14.09-9.46c1.8-3.43,2.23-7.08,2.23-10.87
	C612.41,447.55,612.42,343.22,612.42,238.89z M533.16,213.27c1-0.56,1.74,0.57,2.51,1.14c9.79,7.31,19.58,14.61,29.35,21.94
	c2.48,1.86,2.47,2.19,0.31,4.35c-9.81,9.82-19.61,19.64-29.45,29.44c-0.8,0.79-1.48,1.82-2.72,2.09c-0.65-0.92-0.44-1.95-0.44-2.92
	c-0.01-17.82-0.01-35.64,0-53.45C532.72,214.96,532.33,213.73,533.16,213.27z M249.74,93.08c2.82-2.19,5.69-4.33,8.55-6.48
	c12.77-9.57,25.54-19.13,38.32-28.7c4.39-3.29,8.84-6.5,13.16-9.88c1.54-1.2,2.67-1.13,4.19,0.01
	c14.41,10.85,28.86,21.65,43.29,32.47c5.45,4.09,10.9,8.19,16.34,12.28c0.64,0.48,1.65,0.94,1.29,1.87c-0.3,0.8-1.33,0.44-2.04,0.44
	c-20.32,0.02-40.64,0.01-60.96,0.01c-19.9,0-39.81,0-59.71,0c-0.67,0-1.33,0.02-2-0.01c-0.48-0.02-1.12,0.15-1.33-0.41
	C248.55,93.9,249.26,93.45,249.74,93.08z M218.86,213.16c1.29-5.42,3.47-10.48,6.58-15.11c3.25-4.84,7.27-8.93,12.07-12.24
	c2.93-2.02,6.05-3.67,9.37-4.98c2.98-1.18,6.05-2.05,9.2-2.56c4.27-0.69,8.56-0.85,12.87-0.3c2.72,0.34,5.39,0.86,8.01,1.65
	c3.68,1.11,7.18,2.66,10.46,4.66c4.37,2.66,8.2,5.94,11.48,9.86c2.94,3.52,5.3,7.39,7.09,11.61c0.83,1.96,1.57,3.97,2.03,6.06
	c0.05,0.22,0.08,0.49,0.4,0.48c0.31,0,0.33-0.27,0.39-0.49c2.71-10.09,8.27-18.3,16.52-24.67c3.43-2.65,7.21-4.73,11.27-6.29
	c5.8-2.23,11.8-3.29,18-3.1c3.04,0.09,6.04,0.53,9.02,1.21c4.37,1,8.5,2.62,12.37,4.84c4.71,2.69,8.83,6.12,12.33,10.28
	c3.04,3.61,5.48,7.58,7.29,11.93c1.44,3.45,2.42,7.04,3,10.75c0.65,4.11,0.61,8.23,0.29,12.35c-0.25,3.13-0.84,6.22-1.62,9.28
	c-0.59,2.35-1.28,4.66-2.07,6.95c-0.97,2.79-2.1,5.52-3.36,8.2c-1.61,3.42-3.39,6.75-5.32,10c-2.09,3.52-4.34,6.93-6.72,10.25
	c-5.86,8.18-12.41,15.77-19.39,23.01c-6.52,6.77-13.41,13.16-20.54,19.29c-6.93,5.96-14.08,11.64-21.44,17.06
	c-3.04,2.24-6.18,4.36-9.25,6.56c-0.57,0.41-1.04,0.38-1.61-0.01c-5.47-3.76-10.84-7.66-16.09-11.72c-3.99-3.09-7.91-6.26-11.77-9.5
	c-8.72-7.33-17.07-15.04-24.91-23.31c-6.19-6.52-12.02-13.35-17.31-20.64c-3.78-5.21-7.24-10.62-10.25-16.31
	c-1.96-3.7-3.71-7.51-5.16-11.44c-0.99-2.68-1.83-5.4-2.53-8.17c-1.2-4.8-1.91-9.65-1.87-14.88
	C217.62,220.32,218.02,216.7,218.86,213.16z M58.54,236.36c10-7.44,19.98-14.93,29.97-22.39c0.58-0.43,1.17-1.15,1.95-0.67
	c0.64,0.39,0.43,1.21,0.43,1.86c0.01,8.83,0.01,17.66,0.01,26.49c0,8.58,0.01,17.16-0.01,25.74c0,0.8,0.34,1.93-0.47,2.31
	c-0.8,0.38-1.42-0.62-1.99-1.16c-10.07-9.57-20.1-19.18-30.21-28.71C56.64,238.32,57.05,237.47,58.54,236.36z M49.07,511.28
	c-0.66,0.3-1.2,1.26-1.91,0.9c-0.72-0.35-0.44-1.34-0.48-2.08c-0.03-0.58-0.01-1.17-0.01-1.75c0-75.23,0-150.46,0.01-225.7
	c0-1.31-0.18-2.65,0.49-4.46c4.8,4.56,9.31,8.84,13.81,13.13c36.22,34.49,72.43,68.99,108.64,103.48
	c3.98,3.79,7.93,7.61,11.97,11.33c1.59,1.46,1.43,2.43-0.24,3.71c-23.32,17.84-46.62,35.71-69.91,53.58
	c-20.59,15.79-41.19,31.59-61.78,47.38C49.45,510.96,49.28,511.17,49.07,511.28z M542.58,536.32c-0.35,1.04-1.77,0.53-2.7,0.53
	c-74.33,0.02-148.66,0.02-222.99,0.02c-2.58,0-5.17,0-7.75,0c-76.58,0-153.16,0-229.74-0.03c-1.16,0-2.92,0.71-3.35-0.61
	c-0.31-0.93,1.42-1.6,2.33-2.28c25.41-19.06,50.61-38.41,75.67-57.94c18.77-14.62,37.53-29.25,56.28-43.89
	c1.32-1.03,2.66-1.52,4.37-1.31c1.73,0.21,3.49,0.15,5.24,0.15c62.58,0.01,125.16,0.02,187.74-0.04c2.84,0,5.03,0.78,7.25,2.57
	c33.73,27.08,67.53,54.09,101.31,81.11c8.19,6.55,16.37,13.1,24.54,19.66C541.52,534.84,542.91,535.33,542.58,536.32z
	 M576.32,516.64c-1.03,0.49-1.86-0.87-2.67-1.52c-28.99-23.16-57.95-46.35-86.92-69.53c-13.25-10.6-26.51-21.2-39.75-31.81
	c-2.52-2.02-2.52-2.22-0.19-4.56c42.38-42.38,84.76-84.76,127.17-127.13c0.72-0.72,1.43-2.15,2.47-1.68c1.02,0.46,0.5,1.97,0.5,3.01
	c0.02,38.41,0.02,76.83,0.02,115.24c0,38.25,0,76.5-0.02,114.74C576.92,514.53,577.52,516.08,576.32,516.64z"/>
</svg>
