<?xml version="1.0" encoding="UTF-8"?>
<svg xmlns="http://www.w3.org/2000/svg" version="1.1" viewBox="0 0 200 200">
  <!-- Generator: Adobe Illustrator 28.7.1, SVG Export Plug-In . SVG Version: 1.2.0 Build 142)  -->
  <g>
    <g id="Calque_3">
      <g id="F5">
        <g id="Rafraichissement_de_page">
          <path class="cls-1" d="M184.68,130.24c1.9-6.21-1.6-12.8-7.81-14.69-6.22-1.9-12.8,1.6-14.7,7.82-4.77,15.63-15.04,29.02-28.91,37.71-31.77,19.91-73.82,10.26-93.73-21.52-19.91-31.77-10.26-73.82,21.51-93.72,28.54-17.88,65.35-11.9,86.98,12.53l-18.8-4.32c-6.33-1.45-12.65,2.5-14.1,8.84-.73,3.17-.1,6.33,1.5,8.88,1.6,2.55,4.17,4.5,7.34,5.22l45.53,10.45c6.34,1.46,12.65-2.5,14.1-8.84l10.45-45.54c1.45-6.33-2.5-12.65-8.84-14.11-6.34-1.45-12.65,2.5-14.1,8.84l-3.86,16.82C138.38,10.18,87.69,1.37,48.55,25.89,5.78,52.69-7.21,109.29,19.59,152.06c26.8,42.77,83.4,55.76,126.17,28.97,18.67-11.7,32.5-29.73,38.93-50.79Z"/>
        </g>
      </g>
    </g>
  </g>
</svg>