<svg width="21" height="21" viewBox="0 0 21 21" xmlns="http://www.w3.org/2000/svg">
<g clip-path="url(#clip0_5_58)">
<path d="M10.4971 21C4.63482 20.9621 0.00869179 16.2903 -2.60617e-05 10.5312C-0.00874392 4.65486 4.7002 0.00872753 10.4871 1.22103e-05C16.2793 -0.00870311 20.993 4.6492 21 10.4728C21.0069 16.3478 16.2941 20.9848 10.4971 21ZM19.0603 10.5116C19.0546 5.78393 15.2562 1.96532 10.5399 1.94571C5.80432 1.92566 1.95016 5.74646 1.94841 10.4933C1.94667 15.2117 5.75594 19.046 10.4998 19.0487C15.2227 19.0517 19.0385 15.2448 19.0603 10.5116Z"/>
<path d="M14.4529 7.50174C14.4581 7.79022 14.3487 8.03076 14.1469 8.23252C13.4312 8.94849 12.7154 9.66445 11.9997 10.3804C11.882 10.4981 11.882 10.4985 12.0019 10.6183C12.7023 11.3186 13.4002 12.0219 14.1046 12.7179C14.3587 12.9689 14.4934 13.2565 14.4437 13.6155C14.3875 14.0186 14.0662 14.4217 13.5881 14.4483C13.2407 14.4679 12.963 14.3441 12.7215 14.1001C12.0219 13.3937 11.3171 12.6926 10.614 11.9893C10.5024 11.8777 10.5011 11.8781 10.3917 11.988C9.67289 12.7061 8.94974 13.4199 8.23749 14.1441C7.76673 14.623 7.0292 14.4997 6.69792 14.0282C6.45382 13.6805 6.49567 13.1462 6.81343 12.8137C7.18699 12.4233 7.57537 12.0463 7.95721 11.6637C8.31377 11.3069 8.66903 10.9487 9.02864 10.5948C9.10405 10.5207 9.09969 10.4719 9.02646 10.3992C8.30593 9.68275 7.58976 8.96156 6.86835 8.24647C6.62077 8.00113 6.51136 7.7144 6.55887 7.37058C6.61161 6.98797 6.92763 6.57574 7.39971 6.54741C7.7275 6.52781 8.00516 6.62324 8.23793 6.85637C8.95323 7.57277 9.66984 8.28786 10.386 9.00339C10.5024 9.11974 10.5024 9.11974 10.6162 9.00601C11.3319 8.29004 12.0489 7.57539 12.7634 6.85768C12.9839 6.63631 13.242 6.53086 13.5567 6.55047C13.9747 6.57661 14.4782 6.92697 14.4529 7.50174Z"/>
</g>
<defs>
<clipPath id="clip0_5_58">
<rect width="21" height="21" fill="white"/>
</clipPath>
</defs>
</svg>
