<?xml version="1.0" encoding="UTF-8"?>
<svg xmlns="http://www.w3.org/2000/svg" version="1.1" viewBox="0 0 200 200">
  <!-- Generator: Adobe Illustrator 28.7.1, SVG Export Plug-In . SVG Version: 1.2.0 Build 142)  -->
  <g>
    <g id="Calque_3">
      <g id="Envoyer">
        <g id="Envoyer-2" data-name="Envoyer">
          <path class="cls-1" d="M183.8,84.77L13.16,34.31c-4.34-1.26-8.91,1.2-10.2,5.56-.38,1.26-.42,2.56-.21,3.76-.38,2.11.07,4.34,1.38,6.19l31.19,43.8h64.7c4.53,0,8.21,3.68,8.21,8.21s-3.68,8.21-8.21,8.21h-62.65S4.12,156.69,4.12,156.69c-2.02,2.84-2.02,6.63-.03,9.5,1.58,2.21,4.1,3.47,6.73,3.47.72,0,1.47-.09,2.23-.3l170.5-48.07c8.23-2.3,13.79-9.62,13.83-18.15.07-8.56-5.41-15.92-13.6-18.36h.01Z"/>
        </g>
      </g>
    </g>
  </g>
</svg>