<?xml version="1.0" encoding="UTF-8" standalone="no"?>
<!-- Created with Inkscape (http://www.inkscape.org/) -->

<svg
   width="21.70322mm"
   height="18.632513mm"
   viewBox="0 0 21.70322 18.632513"
   version="1.1"
   id="svg1"
   inkscape:version="1.3.2 (091e20e, 2023-11-25)"
   sodipodi:docname="time-up.svg"
   xmlns:inkscape="http://www.inkscape.org/namespaces/inkscape"
   xmlns:sodipodi="http://sodipodi.sourceforge.net/DTD/sodipodi-0.dtd"
   xmlns="http://www.w3.org/2000/svg"
   xmlns:svg="http://www.w3.org/2000/svg">
  <sodipodi:namedview
     id="namedview1"
     pagecolor="#ffffff"
     bordercolor="#666666"
     borderopacity="1.0"
     inkscape:showpageshadow="2"
     inkscape:pageopacity="0.0"
     inkscape:pagecheckerboard="0"
     inkscape:deskcolor="#d1d1d1"
     inkscape:document-units="mm"
     inkscape:zoom="1.2660711"
     inkscape:cx="61.607913"
     inkscape:cy="13.822288"
     inkscape:window-width="736"
     inkscape:window-height="480"
     inkscape:window-x="0"
     inkscape:window-y="25"
     inkscape:window-maximized="0"
     inkscape:current-layer="layer1" />
  <defs
     id="defs1" />
  <g
     inkscape:label="Layer 1"
     inkscape:groupmode="layer"
     id="layer1"
     transform="translate(-195.52708,-41.010414)">
    <g
       id="g11330"
       transform="matrix(0.21186447,0,0,0.21186447,281.59087,184.26075)">
      <path
         style="fill:#ff4401;stroke-width:1.68385;stroke-linecap:round;stroke-linejoin:round;paint-order:markers stroke fill"
         d="m -319.95577,-668.63389 c -33.9522,-21.06104 -78.77805,7.20744 -84.24142,23.37992 -5.46337,16.17247 -2.84979,55.58664 46.28917,57.03266 49.13897,1.44603 71.90445,-59.35153 37.95225,-80.41258 z"
         id="path3950"
         sodipodi:nodetypes="zzzz" />
      <path
         style="color:#000000;fill:#ffffff;stroke-linecap:round;stroke-linejoin:round;-inkscape-stroke:none"
         d="m -357.64258,-644.625 c -5.60763,0.22989 -11.27902,1.9834 -15.86328,5.95508 -6.14365,5.32269 -7.70299,13.06552 -5.77734,19.99219 1.92565,6.92666 7.29582,13.12267 14.97851,15.58203 15.09278,4.83144 25.06882,-2.59513 29.82422,-8.48242 4.90703,-6.07501 5.77258,-16.40698 -0.5664,-24.49415 -3.28252,-4.18777 -9.80251,-7.35711 -17.05274,-8.30078 -1.81256,-0.23591 -3.67376,-0.32858 -5.54297,-0.25195 z m 0.0918,1.99805 c 1.74356,-0.071 3.48816,0.0163 5.19336,0.23828 6.82078,0.88777 12.96339,4.01312 15.73633,7.55078 5.77192,7.36372 4.8633,16.70844 0.58593,22.00391 -4.42897,5.48317 -13.36525,12.40939 -27.6582,7.83398 -7.01016,-2.24407 -11.91323,-7.91507 -13.66406,-14.21289 -1.75083,-6.29783 -0.39026,-13.13659 5.16015,-17.94531 4.1863,-3.62689 9.41581,-5.25591 14.64649,-5.46875 z"
         id="path3947" />
      <path
         style="color:#000000;fill:#ffffff;stroke-linecap:round;stroke-linejoin:round;-inkscape-stroke:none"
         d="m -351.73047,-638.23828 a 1,1 0 0 0 -1.27344,0.61328 l -4.61718,13.1875 a 1,1 0 0 0 0.61523,1.27539 1,1 0 0 0 1.27344,-0.61523 l 4.61523,-13.18555 a 1,1 0 0 0 -0.61328,-1.27539 z"
         id="path3944" />
      <path
         style="color:#000000;fill:#ffffff;stroke-linecap:round;stroke-linejoin:round;-inkscape-stroke:none"
         d="m -338.3125,-632.9082 -3.03906,2.00586 a 1,1 0 0 0 -0.28321,1.38476 1,1 0 0 0 1.38477,0.28321 l 3.03906,-2.00586 a 1,1 0 0 0 0.28321,-1.38477 1,1 0 0 0 -1.38477,-0.2832 z"
         id="path3941" />
      <path
         style="color:#000000;fill:#ffffff;stroke-linecap:round;stroke-linejoin:round;-inkscape-stroke:none"
         d="m -366.27539,-616.66406 a 1,1 0 0 0 -0.74805,0.16015 l -3.97851,2.75196 a 1,1 0 0 0 -0.25391,1.39062 1,1 0 0 0 1.39063,0.25391 l 3.98046,-2.75 a 1,1 0 0 0 0.25391,-1.39063 1,1 0 0 0 -0.64453,-0.41601 z"
         id="path3938" />
      <path
         style="color:#000000;fill:#ffffff;stroke-linecap:round;stroke-linejoin:round;-inkscape-stroke:none"
         d="m -375.25,-626.87305 a 1,1 0 0 0 -1.24219,0.67969 1,1 0 0 0 0.67969,1.24024 l 4.07617,1.1914 a 1,1 0 0 0 1.24024,-0.67773 1,1 0 0 0 -0.67969,-1.24219 z"
         id="path3935" />
      <path
         style="color:#000000;fill:#ffffff;stroke-linecap:round;stroke-linejoin:round;-inkscape-stroke:none"
         d="m -340.76758,-621.10156 a 1,1 0 0 0 -1.21679,0.7207 1,1 0 0 0 0.7207,1.2168 l 5.24805,1.34375 a 1,1 0 0 0 1.21679,-0.72071 1,1 0 0 0 -0.7207,-1.21679 z"
         id="path3932" />
      <path
         style="color:#000000;fill:#ffffff;stroke-linecap:round;stroke-linejoin:round;-inkscape-stroke:none"
         d="m -347.13867,-612.73828 a 1,1 0 0 0 -0.73047,0.23047 1,1 0 0 0 -0.12305,1.4082 l 2.41016,2.86914 a 1,1 0 0 0 1.41016,0.12305 1,1 0 0 0 0.12109,-1.41016 l -2.41016,-2.86914 a 1,1 0 0 0 -0.67773,-0.35156 z"
         id="path3929" />
      <path
         style="color:#000000;fill:#ffffff;stroke-linecap:round;stroke-linejoin:round;-inkscape-stroke:none"
         d="m -368.63672,-636.28516 a 1,1 0 0 0 -0.13086,1.40625 l 2.67969,3.23243 a 1,1 0 0 0 1.4082,0.13281 1,1 0 0 0 0.13086,-1.4082 l -2.67969,-3.23243 a 1,1 0 0 0 -1.4082,-0.13086 z"
         id="path3926" />
      <path
         style="color:#000000;fill:#ffffff;stroke-linecap:round;stroke-linejoin:round;-inkscape-stroke:none"
         d="m -357.56445,-611.21094 a 1,1 0 0 0 -1.25586,0.65039 l -1.4668,4.61914 a 1,1 0 0 0 0.65039,1.25586 1,1 0 0 0 1.25586,-0.65039 l 1.4668,-4.61914 a 1,1 0 0 0 -0.65039,-1.25586 z"
         id="path3923" />
      <path
         style="color:#000000;fill:#ffffff;stroke-linecap:round;stroke-linejoin:round;-inkscape-stroke:none"
         d="m -348.36328,-649.11719 a 1,1 0 0 0 -1.26172,0.64063 l -1.55273,4.74609 a 1,1 0 0 0 0.64062,1.26172 1,1 0 0 0 1.26172,-0.64062 l 1.55078,-4.7461 a 1,1 0 0 0 -0.63867,-1.26172 z"
         id="path3920" />
      <path
         style="color:#000000;fill:#ffffff;stroke-linecap:round;stroke-linejoin:round;-inkscape-stroke:none"
         d="m -352.27539,-651.10156 a 1,1 0 0 0 -1.23047,0.69726 1,1 0 0 0 0.69727,1.23047 l 9.32031,2.58008 a 1,1 0 0 0 1.23047,-0.69727 1,1 0 0 0 -0.69727,-1.23046 z"
         id="path3917" />
      <path
         style="color:#000000;fill:#ffffff;stroke-linecap:round;stroke-linejoin:round;-inkscape-stroke:none"
         d="m -375.7793,-612.52344 a 1,1 0 0 0 -0.75195,0.14063 l -9.30859,6.09375 a 1,1 0 0 0 -0.28907,1.38281 1,1 0 0 0 1.38282,0.29102 l 9.31054,-6.09375 a 1,1 0 0 0 0.28907,-1.38282 1,1 0 0 0 -0.63282,-0.43164 z"
         id="path3914" />
      <path
         style="color:#000000;fill:#ffffff;stroke-linecap:round;stroke-linejoin:round;-inkscape-stroke:none"
         d="m -341.88672,-606.25195 a 1,1 0 0 0 -0.26172,1.39062 l 6.05664,8.86524 a 1,1 0 0 0 1.38868,0.26172 1,1 0 0 0 0.26171,-1.38868 l -6.05468,-8.86718 a 1,1 0 0 0 -1.39063,-0.26172 z"
         id="path3911" />
      <path
         style="fill:#000000;stroke-width:2;stroke-linecap:round;stroke-linejoin:round"
         d="m -377.24765,-638.21669 15.09759,-8.06911 c 0,0 -5.62607,-5.94906 -11.73858,-2.44472 -6.11252,3.50435 -3.35901,10.51383 -3.35901,10.51383 z"
         id="path3908"
         sodipodi:nodetypes="cczc" />
      <path
         style="fill:#000000;stroke-width:2;stroke-linecap:round;stroke-linejoin:round"
         d="m -327.79521,-629.73109 -12.97178,-12.89187 c 0,0 7.58337,-4.36033 12.76233,1.10212 5.17896,5.46246 0.20945,11.78975 0.20945,11.78975 z"
         id="path3905"
         sodipodi:nodetypes="cczc"
         inkscape:transform-center-x="-7.3905224"
         inkscape:transform-center-y="5.8746012" />
      <path
         style="color:#000000;fill:#ffffff;stroke-linecap:round;stroke-linejoin:round;-inkscape-stroke:none"
         d="m -376.95508,-659.48633 c -4.26882,0 -7.62021,2.47286 -9.90625,5.63086 -2.28604,3.158 -3.60444,7.02436 -3.98242,10.24024 a 1,1 0 0 0 0.875,1.10937 1,1 0 0 0 1.11133,-0.875 c 0.33547,-2.85423 1.57693,-6.48232 3.61719,-9.30078 2.04025,-2.81846 4.78121,-4.80469 8.28515,-4.80469 a 1,1 0 0 0 1,-1 1,1 0 0 0 -1,-1 z"
         id="path3902" />
      <path
         style="color:#000000;fill:#ffffff;stroke-linecap:round;stroke-linejoin:round;-inkscape-stroke:none"
         d="m -383.27344,-665.63281 c -3.57011,0.4205 -7.11689,2.8459 -10.02148,6.02148 -2.90459,3.17558 -5.16785,7.13205 -5.92969,10.91211 a 1,1 0 0 0 0.7832,1.17774 1,1 0 0 0 1.17774,-0.78321 c 0.66125,-3.28096 2.75354,-7.01625 5.44336,-9.95703 2.68982,-2.94077 5.97611,-5.05436 8.78125,-5.38476 a 1,1 0 0 0 0.875,-1.11133 1,1 0 0 0 -1.10938,-0.875 z"
         id="path3899" />
      <path
         style="color:#000000;fill:#ffffff;stroke-linecap:round;stroke-linejoin:round;-inkscape-stroke:none"
         d="m -322.50391,-655.57031 a 1,1 0 0 0 -1.22265,0.70898 1,1 0 0 0 0.70898,1.22266 c 3.72419,0.99054 5.67688,3.83681 6.63672,7.26758 0.95984,3.43077 0.79413,7.38409 0.17188,9.97851 a 1,1 0 0 0 0.74023,1.20508 1,1 0 0 0 1.20508,-0.74023 c 0.70723,-2.94871 0.89023,-7.12331 -0.18945,-10.98243 -1.07969,-3.85912 -3.55463,-7.46429 -8.05079,-8.66015 z"
         id="path3896" />
      <path
         style="color:#000000;fill:#ffffff;stroke-linecap:round;stroke-linejoin:round;-inkscape-stroke:none"
         d="m -314.60352,-657.91211 a 1,1 0 0 0 -0.96875,1.0293 1,1 0 0 0 1.02735,0.96875 c 3.37292,-0.0995 5.42055,2.11082 6.4668,4.90234 1.04624,2.79152 0.73824,6.07105 -0.22657,7.24414 a 1,1 0 0 0 0.13867,1.40625 1,1 0 0 0 1.40625,-0.13672 c 1.78672,-2.17245 1.79847,-5.89629 0.55469,-9.21484 -1.24378,-3.31856 -4.09542,-6.32612 -8.39844,-6.19922 z"
         id="path3893" />
    </g>
  </g>
</svg>
