<?xml version="1.0" encoding="utf-8"?>
<!-- Generator: Adobe Illustrator 26.3.1, SVG Export Plug-In . SVG Version: 6.00 Build 0)  -->
<svg version="1.1" id="Calque_1" xmlns="http://www.w3.org/2000/svg" xmlns:xlink="http://www.w3.org/1999/xlink" x="0px" y="0px"
	 viewBox="0 0 584.7 554.4" xml:space="preserve">
<style type="text/css">
	.st0{fill:#FEE7D7;}
	.st1{fill:#F9DAC4;}
	.st2{fill:#FEFEFE;}
	.st3{fill:#FEA093;}
	.st4{fill:#FE6E4E;}
	.st5{fill:#F8633D;}
	.st6{fill:#FD846F;}
	.st7{fill:#F6D8C2;}
	.st8{fill:#CBC1B9;}
	.st9{enable-background:new    ;}
	.st10{fill:#F15727;}
	.st11{fill:#FEDEC8;}
</style>
<g>
	<g>
		<g>
			<path class="st0" d="M177.7,255c1.8,0,3.7,0,5.5,0c2.5,0.5,5,0.1,7.5,0.2c0.5,0,0.9,0,1.4,0c1.7,0.4,3.4,0.4,5.1,0.2
				c0.2,0,0.5,0,0.7,0c1.4,0.4,2.7,0.4,4.1,0.2c0.6,0.2,1.3,0.4,1.9,0.2c1.6-0.4,3.1,0.6,4.7,0c0.3-0.1,0.6,0,0.9,0.2
				c0.4,0.3,0.8,0.3,1.2,0.2c0.5-0.2,1-0.1,1.5,0c1.3,0.1,2.6,0.4,4,0.5c1.9,0.1,3.8,0.2,5.7,0.5c1.9,0.2,3.8,0.2,5.6,0.6
				c0,0.2,0.1,0.4,0.3,0.4c1.4,0,2.8,0.5,4.2,0.3c0.6,0.5,1.5,0.3,2.1,0.4c2.1,0.1,4.3,0.6,6.4,0.8c4.4,0.5,8.6,1.6,12.9,2.3
				c2.9,0.5,5.8,1.3,8.6,2.1c0.7,0.2,1.5-0.2,2.2,0.3c1.1,0.7,2.4,0.6,3.6,0.9c1,1.1,2.4,1,3.6,1.2c1.9,0.2,3.8,0.7,5.6,1.2
				c1.1,0.3,2.1,0.7,3.2,1c0.2,0.9,1.1,0.7,1.7,0.8c1.4,0.4,2.8,1.1,4.3,1.1c0,0,0,0,0,0c0.2,0.1,0.4,0.3,0.6,0.4
				c4.2,1.4,8.3,2.9,12.4,4.4c3.8,1.4,7.5,3.1,11.2,4.5c1.5,0.6,2.7,1.7,4.4,1.7c0,0,0,0,0,0c0.1,0.1,0.1,0.1,0.2,0.2c0,0,0,0,0,0
				c1.5,0.8,2.8,2,4.5,2.1l0,0c0.1,0.2,0.3,0.2,0.5,0.2l0,0c0.1,0.2,0.3,0.2,0.5,0.2l0,0c0.1,0.2,0.3,0.2,0.5,0.2c0,0,0,0,0,0
				c0.1,0.1,0.1,0.1,0.2,0.2c0,0,0,0,0,0c0.1,0.2,0.3,0.2,0.5,0.2l0,0c0.5,0.7,1.3,1,2.1,1.2l0,0c0.1,0.3,0.4,0.5,0.7,0.6
				c3.3,1.9,6.6,3.8,9.7,6c0.2,0.2,0.6,0.2,0.9,0.3l0,0c0.5,0.8,1.2,1.4,2.1,1.4l0,0c0,0.6,0.4,0.7,0.9,0.7l0,0
				c0,0.6,0.4,0.7,0.9,0.7l0,0c0,0.5,0.2,0.7,0.7,0.7l0,0c0.3,0.4,0.5,1,1.2,1c0.7,0.2,1.3,0.6,1.7,1.2c0.1,0.1,0.1,0.1,0.2,0.2
				c0.2,0.2,0.3,0.3,0.5,0.5c0,0.5,0.3,0.7,0.7,0.7c0.1,0.1,0.2,0.2,0.2,0.2c0.1,0.1-0.1,0.4,0.3,0.2c0.2,0.2,0.5,0.4,0.7,0.5
				c0.8,1.3,1.8,2.4,3.1,3.1c0.2,0.2,0.3,0.4,0.5,0.5c0,1,0.7,1.3,1.4,1.6c0.1,0.1,0.2,0.2,0.3,0.3c0.1,1.2,1.2,1.7,1.8,2.6
				c1.1,1.7,2.3,3.4,3.5,5c0,0,0,0,0,0c0.1,0.3,0.2,0.6,0.3,0.9c1.2,2.6,2.3,5.2,3,8c0.9,3.9,1,7.8,0.2,11.6
				c-0.9,4.3-2.8,8.2-5.4,11.7c-3.3,4.4-7.3,8-11.8,11.2c-7.9,5.6-16.6,9.6-25.6,12.8c-10.2,3.6-20.6,6.2-31.2,8.2
				c-7.6,1.4-15.2,2.4-22.9,3.2c-4.5,0.4-9,0.8-13.6,1.1c-3.8,0.3-7.6,0.4-11.3,0.5c-8.4,0.1-16.9,0.1-25.3-0.4
				c-5-0.3-10.1-0.5-15.1-1c-3.6-0.3-7.2-0.6-10.8-1c-5.6-0.7-11.2-1.4-16.8-2.3c-9.5-1.5-19-3.4-28.3-5.7
				c-6.6-1.7-13.3-3.4-19.7-5.7c-3.7-1.3-7.4-2.5-11.1-3.8c-5.2-1.9-10.2-4.1-15.2-6.4c-3.1-1.4-6.1-3.1-9.1-4.7
				c-4.6-2.5-9-5.1-13.2-8.2c-4.5-3.3-8.9-6.8-12.6-11.1c-3-3.5-6-7-7.9-11.3c-0.9-2.1-1.7-4.2-2.2-6.4c-0.7-2.9-0.9-5.9-0.5-8.9
				c0-0.3,0-0.6,0-1c0.2-0.1,0.1-0.2,0-0.3c0-0.1,0-0.1,0-0.2c0.1-0.1,0.2-0.3,0.2-0.4c0.9-4.3,2.6-8.3,5.2-12
				c0.6-0.8,1.6-1.5,1.5-2.7l0-0.1c0.1-0.1,0.1-0.1,0.2-0.2c0,0,0,0,0,0c0.5,0,0.9-0.1,0.9-0.7c0.2-0.2,0.3-0.5,0.5-0.7
				c1.2-0.7,2.2-1.6,2.8-2.8c0.2-0.2,0.5-0.3,0.7-0.5c0.5,0,0.7-0.3,0.7-0.7l0,0c0.3,0,0.5-0.2,0.5-0.5c0,0,0,0,0,0
				c0.1-0.1,0.1-0.1,0.2-0.2c0.2-0.1,0.3-0.2,0.5-0.3c0.3,0.2,0.2-0.1,0.2-0.2l0,0c0.5,0,0.8-0.3,1-0.7l0,0c0.3,0,0.5-0.2,0.5-0.4
				c0.9-0.9,2-1.6,3.1-2.2c0.3,0,0.6-0.1,0.7-0.5l0,0c0.3,0,0.6,0,0.8-0.2c1-0.8,2.1-1.4,3.2-2.1c1.4-0.9,3-1.4,4.2-2.5l0,0
				c0.2,0,0.4,0,0.5-0.2l0,0c0.2,0,0.4,0,0.5-0.2l0,0c0.1-0.1,0.1-0.1,0.2-0.2l0,0c0.2,0,0.4,0,0.5-0.2l0,0c0.3,0,0.5,0.1,0.7-0.2
				l0,0c0.3,0,0.6,0,0.9-0.1c5-2.7,10.4-4.5,15.7-6.3c3.4-1.2,6.9-2.2,10.4-3.1c5.1-1.3,10.3-2.5,15.5-3.5c1.8-0.3,3.7-0.6,5.5-1.1
				c0-0.1,0-0.2,0-0.2c0.2,0,0.5,0,0.7,0l0,0c0.2,0.2,0.3,0.2,0.5,0l0,0c0.3,0,0.5,0,0.8-0.1c2-0.2,4-0.4,5.9-0.9
				c0.3-0.2,0.6-0.3,1-0.3c1.1,0.3,2.2,0,3.3-0.2c1.8-0.3,3.6-0.1,5.4-0.7c2.2-0.5,4.5-0.6,6.7-0.8c2-0.2,4-0.5,6-0.2
				c1.6-0.3,3.2,0,4.8-0.5c0.2,0,0.5,0,0.7,0c1,0,2.1,0,3.1,0c0.6,0,1.3,0.2,1.9-0.2c0.5,0,0.9,0,1.4,0c1.9,0,3.8,0,5.8,0
				C176.7,255.2,177.2,255.4,177.7,255z"/>
			<path class="st1" d="M49.9,306.8c-0.4,3-0.2,6,0.5,8.9c0.5,2.2,1.3,4.3,2.2,6.4c1.9,4.3,4.9,7.8,7.9,11.3
				c3.7,4.3,8.1,7.8,12.6,11.1c4.2,3.1,8.6,5.7,13.2,8.2c3,1.6,6,3.3,9.1,4.7c5,2.3,10,4.5,15.2,6.4c3.7,1.3,7.4,2.5,11.1,3.8
				c6.5,2.3,13.1,4.1,19.7,5.7c9.3,2.3,18.8,4.2,28.3,5.7c5.6,0.9,11.2,1.6,16.8,2.3c3.6,0.4,7.2,0.7,10.8,1c5,0.5,10.1,0.7,15.1,1
				c8.4,0.5,16.9,0.5,25.3,0.4c3.8-0.1,7.6-0.2,11.3-0.5c4.5-0.4,9-0.7,13.6-1.1c7.7-0.7,15.3-1.8,22.9-3.2
				c10.6-1.9,21-4.5,31.2-8.2c9.1-3.2,17.7-7.3,25.6-12.8c4.5-3.1,8.5-6.8,11.8-11.2c2.6-3.5,4.5-7.4,5.4-11.7
				c0.8-3.8,0.7-7.7-0.2-11.6c-0.7-2.8-1.8-5.4-3-8c-0.1-0.3-0.2-0.6-0.3-0.9c0.4,0,0.5,0.4,0.6,0.6c1.7,3.3,3,6.7,3.4,10.4
				c0,0.3,0,0.7,0.5,0.7c0,0.2,0,0.3,0,0.5c-0.4,1.8-0.4,3.5,0,5.3c0,0.2,0,0.5,0,0.7c-0.4,0-0.4,0.3-0.5,0.6
				c-0.2,2.1-0.3,4.2-0.5,6.3c-0.2,2.3-0.3,4.6-0.5,6.9c-0.4,4.6-0.8,9.2-1.1,13.8c-0.3,3.3-0.5,6.6-0.8,9.9
				c-0.3,3.6-0.6,7.1-0.9,10.7c-0.3,3.4-0.5,6.8-0.8,10.1c-0.4,4.7-0.8,9.5-1.2,14.2c-0.2,2.1-0.4,4.2-0.7,6.3
				c-0.5,3.1-1.8,5.8-3.2,8.6c-1.8,3.6-4.5,6.5-7.2,9.3c-3.4,3.3-7.1,6.2-11.2,8.7c-2.9,1.8-5.9,3.3-8.9,5c-3.3,1.9-7.1,3-10.6,4.5
				c-4.8,2.1-9.8,3.5-14.9,4.9c-8.7,2.4-17.5,4.2-26.5,5.5c-3.8,0.6-7.6,1.1-11.4,1.4c-5.6,0.6-11.2,1.1-16.8,1.4
				c-4.4,0.3-8.9,0.5-13.3,0.5c-5.6,0-11.2,0.3-16.8-0.2c-2.2-0.2-4.4-0.1-6.7-0.2c-4.1-0.2-8.3-0.4-12.4-0.8
				c-3.1-0.3-6.3-0.4-9.4-0.8c-5.4-0.6-10.9-1.3-16.3-2.1c-7.2-1.1-14.4-2.3-21.6-3.8c-5.5-1.1-11-2.4-16.4-3.9
				c-4.5-1.2-8.9-2.5-13.3-3.9c-4.3-1.3-8.6-2.9-12.9-4.4c-5.2-1.9-10.3-4.1-15.2-6.5c-7.1-3.6-14.2-7.2-20.6-11.9
				c-3.7-2.7-7.2-5.5-10.6-8.6c-3.9-3.6-7.2-7.8-9.8-12.4c-2.4-4.1-4.1-8.4-3.8-13.4c0.2-3.6,0-7.3,0.1-10.9c0-0.4,0-0.8,0-1.2
				c0.3-3.8,0.6-7.6,0.9-11.4c0.3-3.5,0.5-6.9,0.8-10.4c0.4-4.9,0.8-9.8,1.2-14.7c0.2-2.5,0.3-4.9,0.5-7.4c0.4-4.7,0.8-9.4,1.1-14.1
				c0.3-3.7,0.5-7.4,0.8-11.1C49.5,307.2,49.5,306.9,49.9,306.8z"/>
			<path class="st1" d="M190.7,255.2c-2.5-0.1-5,0.3-7.5-0.2c2.5,0,5,0,7.4,0C190.6,255,190.6,255.1,190.7,255.2z"/>
			<path class="st1" d="M177.7,255c-0.4,0.4-1,0.2-1.5,0.2c-1.9,0-3.8,0-5.8,0c0-0.1,0-0.2,0-0.2C172.9,255,175.3,255,177.7,255z"/>
			<path class="st1" d="M158.5,255.9c0.1-0.6,0.6-0.5,0.9-0.5c0.8,0,1.7,0,2.5,0c0.4,0,0.8,0.1,0.9-0.5c0.2,0,0.3,0,0.5,0
				c0,0.2,0,0.3,0,0.5C161.7,255.9,160.1,255.6,158.5,255.9z"/>
			<path class="st1" d="M199.5,255c0.1,0.6,0.6,0.4,0.9,0.5c0.5,0.1,1-0.1,1.5,0.2c-1.4,0.2-2.8,0.1-4.1-0.2
				c0.2-0.1,0.3-0.3,0.2-0.5c0.2,0,0.3,0,0.5,0c0.1,0.1,0.1,0.3,0.2,0.4c0.3,0.1,0.3-0.2,0.3-0.4C199.2,255,199.4,255,199.5,255z"/>
			<path class="st1" d="M197.1,255.4c-1.7,0.1-3.4,0.2-5.1-0.2c0-0.1,0-0.2,0-0.2c0.2,0,0.3,0,0.5,0c0.4,0.4,0.9,0.2,1.3,0.2
				C195,255.3,196.1,254.9,197.1,255.4z"/>
			<path class="st2" d="M197.1,255.4c-1-0.5-2.2-0.1-3.2-0.2c-0.5-0.1-0.9,0.2-1.3-0.2c1.8,0,3.7,0,5.5,0c0,0.2-0.1,0.4-0.2,0.5
				C197.6,255.4,197.4,255.4,197.1,255.4z"/>
			<path class="st2" d="M163.3,255.4c0-0.2,0-0.3,0-0.5c1.8,0,3.5,0,5.3,0c-0.4,0.4-1,0.2-1.5,0.2c-1,0.1-2.1-0.2-3.1,0.2
				C163.7,255.4,163.5,255.4,163.3,255.4z"/>
			<path class="st1" d="M164,255.4c1-0.5,2.1-0.1,3.1-0.2c0.5-0.1,1,0.2,1.5-0.2c0.2,0,0.3,0,0.5,0c0,0.1,0,0.2,0,0.2
				c-0.6,0.5-1.3,0.2-1.9,0.2C166.1,255.5,165,255.4,164,255.4z"/>
			<path class="st2" d="M360.7,332.2c-0.4-1.8-0.4-3.5,0-5.3C360.7,328.7,360.7,330.5,360.7,332.2z"/>
			<path class="st2" d="M169,255.2c0-0.1,0-0.2,0-0.2c0.5,0,1,0,1.4,0c0,0.1,0,0.2,0,0.2C170,255.2,169.5,255.2,169,255.2z"/>
			<path class="st2" d="M192.1,255c0,0.1,0,0.2,0,0.2c-0.5,0-0.9,0-1.4,0c0-0.1,0-0.2,0-0.2C191.1,255,191.6,255,192.1,255z"/>
			<path class="st2" d="M199,255c0,0.2,0,0.4-0.3,0.4c-0.1,0-0.1-0.2-0.2-0.4C198.7,255,198.9,255,199,255z"/>
			<path class="st1" d="M80.2,273.4c0.2-0.4,0.6-0.5,0.9-0.7c4.3-2.1,8.8-3.9,13.4-5.5c5.9-2.1,11.9-3.7,17.9-5.2
				c4.9-1.2,9.8-2.3,14.8-2.9c0.4-0.1,0.7,0.1,1,0.1c-1.8,0.5-3.6,0.7-5.5,1.1c-5.2,1-10.4,2.2-15.5,3.5c-3.5,0.9-7,2-10.4,3.1
				c-5.3,1.8-10.7,3.7-15.7,6.3C80.8,273.5,80.5,273.4,80.2,273.4z"/>
			<path class="st1" d="M286.2,270.6c1.9,0.2,3.6,0.9,5.4,1.5c2.5,0.9,5,1.6,7.5,2.6c3.8,1.5,7.6,2.9,11.3,4.7
				c1.5,0.7,3,1.3,4.4,2.2c-1.7,0-2.9-1.1-4.4-1.7c-3.7-1.5-7.4-3.1-11.2-4.5c-4.1-1.5-8.2-3-12.4-4.4
				C286.6,270.9,286.4,270.7,286.2,270.6z"/>
			<path class="st1" d="M49.9,305.4c-0.1-2.4,0.7-4.6,1.7-6.7c1.3-3,3-5.7,5-8.2c0.1-0.1,0.2-0.1,0.3-0.2c0.1,1.2-0.9,1.9-1.5,2.7
				c-2.6,3.6-4.3,7.6-5.2,12C50.1,305.1,50,305.2,49.9,305.4z"/>
			<path class="st1" d="M323.9,286.4c1.5,0.1,2.7,1.2,3.9,1.9c2.3,1.3,4.4,2.8,6.6,4.2c0.3,0.2,0.7,0.3,0.7,0.8
				c-0.3-0.1-0.6-0.2-0.9-0.3c-3.1-2.2-6.4-4.1-9.7-6C324.4,286.9,324,286.7,323.9,286.4z"/>
			<path class="st1" d="M69.6,279.4c0.9-1.3,2.4-1.8,3.6-2.6c1.4-0.9,2.8-1.9,4.5-2.2c-1.2,1.1-2.8,1.6-4.2,2.5
				c-1.1,0.7-2.2,1.3-3.2,2.1C70.2,279.4,69.9,279.4,69.6,279.4z"/>
			<path class="st1" d="M350.8,307.1c1.2,0.7,1.8,1.9,2.5,2.9c1,1.5,2.4,2.8,2.8,4.7c-1.2-1.7-2.4-3.3-3.5-5
				C352,308.8,351,308.2,350.8,307.1z"/>
			<path class="st1" d="M137.1,257.8c1.8-0.8,3.7-0.5,5.6-0.9c1-0.2,2,0,3.1,0c-1.7,0.6-3.6,0.4-5.4,0.7
				C139.3,257.8,138.2,258.1,137.1,257.8z"/>
			<path class="st1" d="M129.4,259c0.1-0.3,0.2-0.4,0.5-0.5c2.1-0.2,4.1-0.9,6.2-0.5c-1.9,0.5-3.9,0.7-5.9,0.9
				C130,259,129.7,259,129.4,259z"/>
			<path class="st1" d="M315,281.8c1.7,0.2,3.2,1,4.5,2.1C317.8,283.9,316.5,282.7,315,281.8z"/>
			<path class="st1" d="M280.2,268.6c2,0.7,4.2,0.8,6,1.9c-1.5,0-2.9-0.7-4.3-1.1C281.3,269.3,280.4,269.6,280.2,268.6z"/>
			<path class="st1" d="M267.7,265.3c1.3,0,2.6,0.2,3.6,1.2C270.1,266.2,268.7,266.3,267.7,265.3z"/>
			<path class="st1" d="M345.6,301.6c1.3,0.7,2.3,1.8,3.1,3.1C347.3,303.9,346.3,302.8,345.6,301.6z"/>
			<path class="st1" d="M58.6,288.5c0.7-1.2,1.6-2.2,2.8-2.8C60.8,286.9,59.8,287.9,58.6,288.5z"/>
			<path class="st1" d="M227.4,257.9c1.3,0.2,2.5,0.3,3.8,0.4c0.3,0,0.6,0,0.8,0.2c-1.4,0.2-2.8-0.3-4.2-0.3
				C227.5,258.3,227.4,258.1,227.4,257.9z"/>
			<path class="st1" d="M335.2,293.4c1,0.1,1.6,0.7,2.1,1.4C336.4,294.7,335.7,294.1,335.2,293.4z"/>
			<path class="st1" d="M321.8,285.2c0.9,0.1,1.7,0.3,2.1,1.2C323.1,286.2,322.3,285.9,321.8,285.2z"/>
			<path class="st1" d="M349.1,305.2c0.8,0.3,1.1,0.9,1.4,1.6C349.9,306.4,349.1,306.1,349.1,305.2z"/>
			<path class="st1" d="M340,297c0.7,0,1.1,0.3,1.2,1C340.5,298,340.4,297.4,340,297z"/>
			<path class="st1" d="M337.4,294.8c0.5,0,0.7,0.3,0.9,0.7C337.8,295.5,337.4,295.4,337.4,294.8z"/>
			<path class="st1" d="M338.3,295.5c0.5,0,0.7,0.3,0.9,0.7C338.8,296.3,338.4,296.1,338.3,295.5z"/>
			<path class="st1" d="M64.3,283.3c0.1-0.6,0.4-0.8,1-0.7C65.1,283,64.8,283.3,64.3,283.3z"/>
			<path class="st1" d="M62.2,285.2c0-0.5,0.2-0.7,0.7-0.7C62.9,284.9,62.6,285.2,62.2,285.2z"/>
			<path class="st1" d="M57.1,290c0.2-0.4,0.6-0.5,0.9-0.7C58,289.9,57.7,290,57.1,290z"/>
			<path class="st1" d="M339.3,296.2c0.4,0,0.7,0.3,0.7,0.7C339.5,296.9,339.3,296.7,339.3,296.2z"/>
			<path class="st1" d="M343.6,299.9c0.5,0,0.7,0.3,0.7,0.7C343.9,300.5,343.6,300.3,343.6,299.9z"/>
			<path class="st1" d="M68.9,279.9c0.1-0.4,0.3-0.5,0.7-0.5C69.5,279.8,69.2,279.9,68.9,279.9z"/>
			<path class="st1" d="M62.9,284.5c0-0.3,0.2-0.5,0.5-0.5C63.3,284.3,63.2,284.5,62.9,284.5z"/>
			<path class="st1" d="M65.3,282.5c0-0.3,0.2-0.4,0.5-0.4C65.7,282.4,65.6,282.5,65.3,282.5z"/>
			<path class="st1" d="M79.5,273.7c0.2-0.3,0.4-0.3,0.7-0.2C80,273.7,79.7,273.7,79.5,273.7z"/>
			<path class="st1" d="M128.2,259c0.2-0.3,0.5-0.2,0.7,0C128.7,259,128.5,259,128.2,259z"/>
			<path class="st1" d="M321.3,285c0.2,0,0.4,0,0.5,0.2C321.6,285.2,321.4,285.1,321.3,285z"/>
			<path class="st1" d="M320.1,284.2c0.2,0,0.4,0,0.5,0.2C320.4,284.5,320.2,284.4,320.1,284.2z"/>
			<path class="st1" d="M319.6,284c0.2,0,0.4,0,0.5,0.2C319.9,284.2,319.7,284.2,319.6,284z"/>
			<path class="st1" d="M320.6,284.5c0.2,0,0.4,0,0.5,0.2C320.8,284.7,320.7,284.7,320.6,284.5z"/>
			<path class="st1" d="M64.1,283.5c0.1-0.1,0.2-0.2,0.2-0.2C64.3,283.4,64.4,283.7,64.1,283.5z"/>
			<path class="st1" d="M77.8,274.6c0.1-0.2,0.3-0.2,0.5-0.2C78.1,274.6,78,274.6,77.8,274.6z"/>
			<path class="st1" d="M78.3,274.4c0.1-0.2,0.3-0.2,0.5-0.2C78.6,274.3,78.5,274.4,78.3,274.4z"/>
			<path class="st1" d="M342.9,299.1c0.3-0.1,0.2,0.1,0.2,0.2C343,299.3,343,299.2,342.9,299.1z"/>
			<path class="st1" d="M344.6,300.8c0.1,0.1,0.2,0.2,0.3,0.2C344.5,301.2,344.6,300.9,344.6,300.8z"/>
			<path class="st1" d="M79,273.9c0.1-0.2,0.3-0.2,0.5-0.2C79.3,273.9,79.2,273.9,79,273.9z"/>
			<path class="st1" d="M128.9,259c0.2,0,0.3,0,0.5,0C129.2,259.3,129.1,259.3,128.9,259z"/>
			<path class="st1" d="M49.9,305.8c0-0.1-0.1-0.1-0.1-0.2c0,0,0.1-0.1,0.1-0.1C50.1,305.7,50.1,305.8,49.9,305.8z"/>
			<path class="st1" d="M321,284.7c0.1,0.1,0.1,0.1,0.2,0.2C321.2,284.9,321.1,284.8,321,284.7z"/>
			<path class="st1" d="M56.9,290.2c0.1-0.1,0.1-0.1,0.2-0.2C57,290.1,57,290.2,56.9,290.2z"/>
			<path class="st1" d="M314.8,281.6c0.1,0.1,0.1,0.1,0.2,0.2C315,281.7,314.9,281.7,314.8,281.6z"/>
			<path class="st1" d="M78.7,274.1c0.1-0.1,0.1-0.1,0.2-0.2C78.9,274,78.8,274.1,78.7,274.1z"/>
			<path class="st1" d="M63.4,284c0.1-0.1,0.1-0.1,0.2-0.2C63.5,283.8,63.4,283.9,63.4,284z"/>
		</g>
	</g>
</g>
<g>
	<g>
		<g>
			<path class="st3" d="M175.7,177.2c6.6,0,13.1,0,19.7,0c0.1,0.1,0.3,0.2,0.4,0.2c4.3,0.1,8.7,0.2,13,0.7c2.8,0.4,5.7,0.2,8.6,0.5
				c6.2,0.5,12.5,1.2,18.7,2c8.7,1.2,17.4,2.7,26.1,4.5c20.9,4.4,41.2,10.7,60.5,20c5.1,2.5,10,5.4,14.8,8.4
				c2.8,1.8,5.5,3.7,8.1,5.8c6.2,5,11.7,10.5,15.7,17.5c1.4,2.5,2.6,5.1,3.2,8c0.3,1.5,0.4,3.1,1,4.5c0,1.8,0,3.5,0,5.3
				c-0.4,0.7-0.1,1.5-0.5,2.2c-0.1,0.1-0.1,0.2-0.2,0.3c-1.3,6.2-4.6,11.4-8.8,15.9c-5.2,5.6-11.5,9.8-18.3,13.3
				c-13.8,7.2-28.5,11.4-43.7,14.4c-10.5,2.1-21,3.5-31.7,4.3c-6.9,0.6-13.9,0.9-20.8,1.1c-10.3,0.3-20.5-0.1-30.8-0.7
				c-2.4-0.1-4.8-0.3-7.2-0.5c-4.5-0.4-9-0.9-13.5-1.4c-4.1-0.4-8.3-1-12.3-1.6c-4.9-0.7-9.8-1.6-14.7-2.7
				c-6.9-1.5-13.9-2.8-20.7-4.7c-6.4-1.8-12.8-3.5-19-5.7c-8.1-2.8-16.1-5.9-23.9-9.7c-6.5-3.1-12.8-6.6-18.7-10.7
				c-7.6-5.2-14.6-11.1-19.9-18.8c-1.9-2.7-3.5-5.6-4.6-8.7c-0.9-2.4-1.2-5-1.5-7.6c0-1-0.3-2-0.2-3.1c0.6-6.1,2.8-11.5,6.5-16.3
				c3-3.9,6.5-7.2,10.4-10c9.2-6.7,19.4-11.3,30.1-14.8c10.1-3.4,20.4-5.8,30.9-7.5c6.5-1.1,13.1-2,19.7-2.6c4-0.4,8-0.4,12-0.9
				c3.4-0.4,6.8-0.5,10.2-0.5C174.7,177.4,175.2,177.6,175.7,177.2z"/>
			<path class="st4" d="M364.9,256.6c-0.2,2.9-0.3,5.8-0.5,8.7c-0.5,6.5-1.1,12.9-1.6,19.4c-0.6,7.7-1.2,15.4-1.9,23.1
				c-0.5,6.4-1.1,12.7-1.5,19.1c-0.4,5.6-1.1,11.1-4.1,16.1c-2.9,4.8-6.6,9-11,12.5c-6.7,5.3-14.1,9.3-21.9,12.6
				c-4.1,1.7-8.1,3.2-12.3,4.6c-10.3,3.3-20.8,5.6-31.5,7.3c-11.7,1.9-23.4,3-35.2,3.5c-7,0.3-14,0.5-21,0.3
				c-16.7-0.4-33.4-1.6-49.9-4.2c-0.9-0.1-1.8-0.2-2.7-0.3c-0.5-0.6-1.3-0.4-1.9-0.4c0,0-0.1,0-0.1,0c-0.4-0.3-0.9-0.3-1.4-0.2
				c0,0-0.1,0-0.1,0c-0.8-0.4-1.7-0.5-2.6-0.5c-3.6-0.5-7.2-1.3-10.8-2c-12.6-2.6-25-5.9-37.2-10.2c-14.3-5-28.1-11-40.6-19.6
				c-7.9-5.4-15.1-11.5-20.5-19.5c-2.7-4-4.7-8.2-5.6-13c-0.1-0.4-0.1-0.8-0.1-1.2c-0.2-6.6,0.3-13.2,0.8-19.8
				c0.5-5.7,0.9-11.5,1.3-17.2c0.6-7.9,1.2-15.7,1.8-23.6c0.4-5.8,0.9-11.6,1.4-17.5c0-0.5-0.3-1.2,0.4-1.5c0.3,2.6,0.6,5.2,1.5,7.6
				c1.1,3.1,2.7,6,4.6,8.7c5.3,7.7,12.3,13.6,19.9,18.8c5.9,4.1,12.2,7.5,18.7,10.7c7.7,3.7,15.8,6.8,23.9,9.7
				c6.3,2.2,12.6,3.9,19,5.7c6.8,1.9,13.8,3.2,20.7,4.7c4.9,1.1,9.8,2,14.7,2.7c4.1,0.6,8.2,1.2,12.3,1.6c4.5,0.5,9,1,13.5,1.4
				c2.4,0.2,4.8,0.4,7.2,0.5c10.3,0.6,20.5,1,30.8,0.7c6.9-0.2,13.9-0.5,20.8-1.1c10.6-0.9,21.2-2.3,31.7-4.3
				c15.2-3,29.9-7.2,43.7-14.4c6.7-3.5,13-7.7,18.3-13.3c4.3-4.6,7.5-9.7,8.8-15.9C364.7,256.8,364.8,256.7,364.9,256.6z"/>
		</g>
	</g>
</g>
<g>
	<g>
		<g>
			<path class="st0" d="M188.3,98.2c1.8,0,3.7,0,5.5,0c2.5,0.5,5,0.1,7.5,0.2c0.5,0,0.9,0,1.4,0c1.7,0.4,3.4,0.4,5.1,0.2
				c0.2,0,0.5,0,0.7,0c1.4,0.4,2.7,0.4,4.1,0.2c0.6,0.2,1.3,0.4,1.9,0.2c1.6-0.4,3.1,0.6,4.7,0c0.3-0.1,0.6,0,0.9,0.2
				c0.4,0.3,0.8,0.3,1.2,0.2c0.5-0.2,1-0.1,1.5,0c1.3,0.1,2.6,0.4,4,0.5c1.9,0.1,3.8,0.2,5.7,0.5c1.9,0.2,3.8,0.2,5.6,0.6
				c0,0.2,0.1,0.4,0.3,0.4c1.4,0,2.8,0.5,4.2,0.3c0.6,0.5,1.5,0.3,2.1,0.4c2.1,0.1,4.3,0.6,6.4,0.8c4.4,0.5,8.6,1.6,12.9,2.3
				c2.9,0.5,5.8,1.3,8.6,2.1c0.7,0.2,1.5-0.2,2.2,0.3c1.1,0.7,2.4,0.6,3.6,0.9c1,1.1,2.4,1,3.6,1.2c1.9,0.2,3.8,0.7,5.6,1.2
				c1.1,0.3,2.1,0.7,3.2,1c0.2,0.9,1.1,0.7,1.7,0.8c1.4,0.4,2.8,1.1,4.3,1.1c0,0,0,0,0,0c0.2,0.1,0.4,0.3,0.6,0.4
				c4.2,1.4,8.3,2.9,12.4,4.4c3.8,1.4,7.5,3.1,11.2,4.5c1.5,0.6,2.7,1.7,4.4,1.7c0,0,0,0,0,0c0.1,0.1,0.1,0.1,0.2,0.2c0,0,0,0,0,0
				c1.5,0.8,2.8,2,4.5,2.1l0,0c0.1,0.2,0.3,0.2,0.5,0.2l0,0c0.1,0.2,0.3,0.2,0.5,0.2l0,0c0.1,0.2,0.3,0.2,0.5,0.2c0,0,0,0,0,0
				c0.1,0.1,0.1,0.1,0.2,0.2c0,0,0,0,0,0c0.1,0.2,0.3,0.2,0.5,0.2l0,0c0.5,0.7,1.3,1,2.1,1.2l0,0c0.1,0.3,0.4,0.5,0.7,0.6
				c3.3,1.9,6.6,3.8,9.7,6c0.2,0.2,0.6,0.2,0.9,0.3l0,0c0.5,0.8,1.2,1.4,2.1,1.4l0,0c0,0.6,0.4,0.7,0.9,0.7l0,0
				c0,0.6,0.4,0.7,0.9,0.7l0,0c0,0.5,0.2,0.7,0.7,0.7l0,0c0.3,0.4,0.5,1,1.2,1c0.7,0.2,1.3,0.6,1.7,1.2c0.1,0.1,0.1,0.1,0.2,0.2
				c0.2,0.2,0.3,0.3,0.5,0.5c0,0.5,0.3,0.7,0.7,0.7c0.1,0.1,0.2,0.2,0.2,0.2c0.1,0.1-0.1,0.4,0.3,0.2c0.2,0.2,0.5,0.4,0.7,0.5
				c0.8,1.3,1.8,2.4,3.1,3.1c0.2,0.2,0.3,0.4,0.5,0.5c0,1,0.7,1.3,1.4,1.6c0.1,0.1,0.2,0.2,0.3,0.3c0.1,1.2,1.2,1.7,1.8,2.6
				c1.1,1.7,2.3,3.4,3.5,5c0,0,0,0,0,0c0.1,0.3,0.2,0.6,0.3,0.9c1.2,2.6,2.3,5.2,3,8c0.9,3.9,1,7.8,0.2,11.6
				c-0.9,4.3-2.8,8.2-5.4,11.7c-3.3,4.4-7.3,8-11.8,11.2c-7.9,5.6-16.6,9.6-25.6,12.8c-10.2,3.6-20.6,6.2-31.2,8.2
				c-7.6,1.4-15.2,2.4-22.9,3.2c-4.5,0.4-9,0.8-13.6,1.1c-3.8,0.3-7.6,0.4-11.3,0.5c-8.4,0.1-16.9,0.1-25.3-0.4
				c-5-0.3-10.1-0.5-15.1-1c-3.6-0.3-7.2-0.6-10.8-1c-5.6-0.7-11.2-1.4-16.8-2.3c-9.5-1.5-19-3.4-28.3-5.7
				c-6.6-1.7-13.3-3.4-19.7-5.7c-3.7-1.3-7.4-2.5-11.1-3.8c-5.2-1.9-10.2-4.1-15.2-6.4c-3.1-1.4-6.1-3.1-9.1-4.7
				c-4.6-2.5-9-5.1-13.2-8.2c-4.5-3.3-8.9-6.8-12.6-11.1c-3-3.5-6-7-7.9-11.3c-0.9-2.1-1.7-4.2-2.2-6.4c-0.7-2.9-0.9-5.9-0.5-8.9
				c0-0.3,0-0.6,0-1c0.2-0.1,0.1-0.2,0-0.3c0-0.1,0-0.1,0-0.2c0.1-0.1,0.2-0.3,0.2-0.4c0.9-4.3,2.6-8.3,5.2-12
				c0.6-0.8,1.6-1.5,1.5-2.7l0-0.1c0.1-0.1,0.1-0.1,0.2-0.2c0,0,0,0,0,0c0.5,0,0.9-0.1,0.9-0.7c0.2-0.2,0.3-0.5,0.5-0.7
				c1.2-0.7,2.2-1.6,2.8-2.8c0.2-0.2,0.5-0.3,0.7-0.5c0.5,0,0.7-0.3,0.7-0.7l0,0c0.3,0,0.5-0.2,0.5-0.5c0,0,0,0,0,0
				c0.1-0.1,0.1-0.1,0.2-0.2c0.2-0.1,0.3-0.2,0.5-0.3c0.3,0.2,0.2-0.1,0.2-0.2l0,0c0.5,0,0.8-0.3,1-0.7l0,0c0.3,0,0.5-0.2,0.5-0.4
				c0.9-0.9,2-1.6,3.1-2.2c0.3,0,0.6-0.1,0.7-0.5l0,0c0.3,0,0.6,0,0.8-0.2c1-0.8,2.1-1.4,3.2-2.1c1.4-0.9,3-1.4,4.2-2.5l0,0
				c0.2,0,0.4,0,0.5-0.2l0,0c0.2,0,0.4,0,0.5-0.2l0,0c0.1-0.1,0.1-0.1,0.2-0.2l0,0c0.2,0,0.4,0,0.5-0.2l0,0c0.3,0,0.5,0.1,0.7-0.2
				l0,0c0.3,0,0.6,0,0.9-0.1c5-2.7,10.4-4.5,15.7-6.3c3.4-1.2,6.9-2.2,10.4-3.1c5.1-1.3,10.3-2.5,15.5-3.5c1.8-0.3,3.7-0.6,5.5-1.1
				c0-0.1,0-0.2,0-0.2c0.2,0,0.5,0,0.7,0l0,0c0.2,0.2,0.3,0.2,0.5,0l0,0c0.3,0,0.5,0,0.8-0.1c2-0.2,4-0.4,5.9-0.9
				c0.3-0.2,0.6-0.3,1-0.3c1.1,0.3,2.2,0,3.3-0.2c1.8-0.3,3.6-0.1,5.4-0.7c2.2-0.5,4.5-0.6,6.7-0.8c2-0.2,4-0.5,6-0.2
				c1.6-0.3,3.2,0,4.8-0.5c0.2,0,0.5,0,0.7,0c1,0,2.1,0,3.1,0c0.6,0,1.3,0.2,1.9-0.2c0.5,0,0.9,0,1.4,0c1.9,0,3.8,0,5.8,0
				C187.3,98.4,187.9,98.6,188.3,98.2z"/>
			<path class="st1" d="M60.5,150c-0.4,3-0.2,6,0.5,8.9c0.5,2.2,1.3,4.3,2.2,6.4c1.9,4.3,4.9,7.8,7.9,11.3
				c3.7,4.3,8.1,7.8,12.6,11.1c4.2,3.1,8.6,5.7,13.2,8.2c3,1.6,6,3.3,9.1,4.7c5,2.3,10,4.5,15.2,6.4c3.7,1.3,7.4,2.5,11.1,3.8
				c6.5,2.3,13.1,4.1,19.7,5.7c9.3,2.3,18.8,4.2,28.3,5.7c5.6,0.9,11.2,1.6,16.8,2.3c3.6,0.4,7.2,0.7,10.8,1c5,0.5,10.1,0.7,15.1,1
				c8.4,0.5,16.9,0.5,25.3,0.4c3.8-0.1,7.6-0.2,11.3-0.5c4.5-0.4,9-0.7,13.6-1.1c7.7-0.7,15.3-1.8,22.9-3.2
				c10.6-1.9,21-4.5,31.2-8.2c9.1-3.2,17.7-7.3,25.6-12.8c4.5-3.1,8.5-6.8,11.8-11.2c2.6-3.5,4.5-7.4,5.4-11.7
				c0.8-3.8,0.7-7.7-0.2-11.6c-0.7-2.8-1.8-5.4-3-8c-0.1-0.3-0.2-0.6-0.3-0.9c0.4,0,0.5,0.4,0.6,0.6c1.7,3.3,3,6.7,3.4,10.4
				c0,0.3,0,0.7,0.5,0.7c0,0.2,0,0.3,0,0.5c-0.4,1.8-0.4,3.5,0,5.3c0,0.2,0,0.5,0,0.7c-0.4,0-0.4,0.3-0.5,0.6
				c-0.2,2.1-0.3,4.2-0.5,6.3c-0.2,2.3-0.3,4.6-0.5,6.9c-0.4,4.6-0.8,9.2-1.1,13.8c-0.3,3.3-0.5,6.6-0.8,9.9
				c-0.3,3.6-0.6,7.1-0.9,10.7c-0.3,3.4-0.5,6.8-0.8,10.1c-0.4,4.7-0.8,9.5-1.2,14.2c-0.2,2.1-0.4,4.2-0.7,6.3
				c-0.5,3.1-1.8,5.8-3.2,8.6c-1.8,3.6-4.5,6.5-7.2,9.3c-3.4,3.3-7.1,6.2-11.2,8.7c-2.9,1.8-5.9,3.3-8.9,5c-3.3,1.9-7.1,3-10.6,4.5
				c-4.8,2.1-9.8,3.5-14.9,4.9c-8.7,2.4-17.5,4.2-26.5,5.5c-3.8,0.6-7.6,1.1-11.4,1.4c-5.6,0.6-11.2,1.1-16.8,1.4
				c-4.4,0.3-8.9,0.5-13.3,0.5c-5.6,0-11.2,0.3-16.8-0.2c-2.2-0.2-4.4-0.1-6.7-0.2c-4.1-0.2-8.3-0.4-12.4-0.8
				c-3.1-0.3-6.3-0.4-9.4-0.8c-5.4-0.6-10.9-1.3-16.3-2.1c-7.2-1.1-14.4-2.3-21.6-3.8c-5.5-1.1-11-2.4-16.4-3.9
				c-4.5-1.2-8.9-2.5-13.3-3.9c-4.3-1.3-8.6-2.9-12.9-4.4c-5.2-1.9-10.3-4.1-15.2-6.5c-7.1-3.6-14.2-7.2-20.6-11.9
				c-3.7-2.7-7.2-5.5-10.6-8.6c-3.9-3.6-7.2-7.8-9.8-12.4c-2.4-4.1-4.1-8.4-3.8-13.4c0.2-3.6,0-7.3,0.1-10.9c0-0.4,0-0.8,0-1.2
				c0.3-3.8,0.6-7.6,0.9-11.4c0.3-3.5,0.5-6.9,0.8-10.4c0.4-4.9,0.8-9.8,1.2-14.7c0.2-2.5,0.3-4.9,0.5-7.4c0.4-4.7,0.8-9.4,1.1-14.1
				c0.3-3.7,0.5-7.4,0.8-11.1C60.1,150.4,60.1,150.1,60.5,150z"/>
			<path class="st1" d="M201.3,98.4c-2.5-0.1-5,0.3-7.5-0.2c2.5,0,5,0,7.4,0C201.3,98.2,201.3,98.3,201.3,98.4z"/>
			<path class="st1" d="M188.3,98.2c-0.4,0.4-1,0.2-1.5,0.2c-1.9,0-3.8,0-5.8,0c0-0.1,0-0.2,0-0.2C183.5,98.2,185.9,98.2,188.3,98.2
				z"/>
			<path class="st1" d="M169.1,99.1c0.1-0.6,0.6-0.5,0.9-0.5c0.8,0,1.7,0,2.5,0c0.4,0,0.8,0.1,0.9-0.5c0.2,0,0.3,0,0.5,0
				c0,0.2,0,0.3,0,0.5C172.3,99.1,170.7,98.8,169.1,99.1z"/>
			<path class="st1" d="M210.1,98.2c0.1,0.6,0.6,0.4,0.9,0.5c0.5,0.1,1-0.1,1.5,0.2c-1.4,0.2-2.8,0.1-4.1-0.2
				c0.2-0.1,0.3-0.3,0.2-0.5c0.2,0,0.3,0,0.5,0c0.1,0.1,0.1,0.3,0.2,0.4c0.3,0.1,0.3-0.2,0.3-0.4C209.8,98.2,210,98.2,210.1,98.2z"
				/>
			<path class="st1" d="M207.8,98.6c-1.7,0.1-3.4,0.2-5.1-0.2c0-0.1,0-0.2,0-0.2c0.2,0,0.3,0,0.5,0c0.4,0.4,0.9,0.2,1.3,0.2
				C205.6,98.5,206.7,98.1,207.8,98.6z"/>
			<path class="st2" d="M207.8,98.6c-1-0.5-2.2-0.1-3.2-0.2c-0.5-0.1-0.9,0.2-1.3-0.2c1.8,0,3.7,0,5.5,0c0,0.2-0.1,0.4-0.2,0.5
				C208.2,98.6,208,98.6,207.8,98.6z"/>
			<path class="st2" d="M173.9,98.6c0-0.2,0-0.3,0-0.5c1.8,0,3.5,0,5.3,0c-0.4,0.4-1,0.2-1.5,0.2c-1,0.1-2.1-0.2-3.1,0.2
				C174.4,98.6,174.1,98.6,173.9,98.6z"/>
			<path class="st1" d="M174.6,98.6c1-0.5,2.1-0.1,3.1-0.2c0.5-0.1,1,0.2,1.5-0.2c0.2,0,0.3,0,0.5,0c0,0.1,0,0.2,0,0.2
				c-0.6,0.5-1.3,0.2-1.9,0.2C176.7,98.7,175.6,98.6,174.6,98.6z"/>
			<path class="st2" d="M371.3,175.5c-0.4-1.8-0.4-3.5,0-5.3C371.3,171.9,371.3,173.7,371.3,175.5z"/>
			<path class="st2" d="M179.7,98.4c0-0.1,0-0.2,0-0.2c0.5,0,1,0,1.4,0c0,0.1,0,0.2,0,0.2C180.6,98.4,180.1,98.4,179.7,98.4z"/>
			<path class="st2" d="M202.7,98.2c0,0.1,0,0.2,0,0.2c-0.5,0-0.9,0-1.4,0c0-0.1,0-0.2,0-0.2C201.7,98.2,202.2,98.2,202.7,98.2z"/>
			<path class="st2" d="M209.7,98.2c0,0.2,0,0.4-0.3,0.4c-0.1,0-0.1-0.2-0.2-0.4C209.3,98.2,209.5,98.2,209.7,98.2z"/>
			<path class="st1" d="M90.8,116.6c0.2-0.4,0.6-0.5,0.9-0.7c4.3-2.1,8.8-3.9,13.4-5.5c5.9-2.1,11.9-3.7,17.9-5.2
				c4.9-1.2,9.8-2.3,14.8-2.9c0.4-0.1,0.7,0.1,1,0.1c-1.8,0.5-3.6,0.7-5.5,1.1c-5.2,1-10.4,2.2-15.5,3.5c-3.5,0.9-7,2-10.4,3.1
				c-5.3,1.8-10.7,3.7-15.7,6.3C91.4,116.7,91.1,116.7,90.8,116.6z"/>
			<path class="st1" d="M296.8,113.8c1.9,0.2,3.6,0.9,5.4,1.5c2.5,0.9,5,1.6,7.5,2.6c3.8,1.5,7.6,2.9,11.3,4.7
				c1.5,0.7,3,1.3,4.4,2.2c-1.7,0-2.9-1.1-4.4-1.7c-3.7-1.5-7.4-3.1-11.2-4.5c-4.1-1.5-8.2-3-12.4-4.4
				C297.2,114.1,297,113.9,296.8,113.8z"/>
			<path class="st1" d="M60.5,148.6c-0.1-2.4,0.7-4.6,1.7-6.7c1.3-3,3-5.7,5-8.2c0.1-0.1,0.2-0.1,0.3-0.2c0.1,1.2-0.9,1.9-1.5,2.7
				c-2.6,3.6-4.3,7.6-5.2,12C60.7,148.3,60.6,148.4,60.5,148.6z"/>
			<path class="st1" d="M334.5,129.6c1.5,0.1,2.7,1.2,3.9,1.9c2.3,1.3,4.4,2.8,6.6,4.2c0.3,0.2,0.7,0.3,0.7,0.8
				c-0.3-0.1-0.6-0.2-0.9-0.3c-3.1-2.2-6.4-4.1-9.7-6C335,130.1,334.7,130,334.5,129.6z"/>
			<path class="st1" d="M80.2,122.6c0.9-1.3,2.4-1.8,3.6-2.6c1.4-0.9,2.8-1.9,4.5-2.2c-1.2,1.1-2.8,1.6-4.2,2.5
				c-1.1,0.7-2.2,1.3-3.2,2.1C80.8,122.6,80.5,122.7,80.2,122.6z"/>
			<path class="st1" d="M361.4,150.3c1.2,0.7,1.8,1.9,2.5,2.9c1,1.5,2.4,2.8,2.8,4.7c-1.2-1.7-2.4-3.3-3.5-5
				C362.6,152,361.6,151.4,361.4,150.3z"/>
			<path class="st1" d="M147.7,101c1.8-0.8,3.7-0.5,5.6-0.9c1-0.2,2,0,3.1,0c-1.7,0.6-3.6,0.4-5.4,0.7
				C149.9,101,148.8,101.3,147.7,101z"/>
			<path class="st1" d="M140,102.2c0.1-0.3,0.2-0.4,0.5-0.5c2.1-0.2,4.1-0.9,6.2-0.5c-1.9,0.5-3.9,0.7-5.9,0.9
				C140.6,102.2,140.3,102.2,140,102.2z"/>
			<path class="st1" d="M325.7,125c1.7,0.2,3.2,1,4.5,2.1C328.4,127.1,327.1,125.9,325.7,125z"/>
			<path class="st1" d="M290.8,111.9c2,0.7,4.2,0.8,6,1.9c-1.5,0-2.9-0.7-4.3-1.1C291.9,112.5,291.1,112.8,290.8,111.9z"/>
			<path class="st1" d="M278.3,108.5c1.3,0,2.6,0.2,3.6,1.2C280.7,109.5,279.3,109.5,278.3,108.5z"/>
			<path class="st1" d="M356.2,144.8c1.3,0.7,2.3,1.8,3.1,3.1C357.9,147.1,356.9,146.1,356.2,144.8z"/>
			<path class="st1" d="M69.2,131.8c0.7-1.2,1.6-2.2,2.8-2.8C71.4,130.1,70.4,131.1,69.2,131.8z"/>
			<path class="st1" d="M238,101.1c1.3,0.2,2.5,0.3,3.8,0.4c0.3,0,0.6,0,0.8,0.2c-1.4,0.2-2.8-0.3-4.2-0.3
				C238.1,101.5,238,101.3,238,101.1z"/>
			<path class="st1" d="M345.8,136.6c1,0.1,1.6,0.7,2.1,1.4C347,137.9,346.4,137.3,345.8,136.6z"/>
			<path class="st1" d="M332.4,128.4c0.9,0.1,1.7,0.3,2.1,1.2C333.7,129.4,332.9,129.1,332.4,128.4z"/>
			<path class="st1" d="M359.8,148.4c0.8,0.3,1.1,0.9,1.4,1.6C360.5,149.6,359.7,149.3,359.8,148.4z"/>
			<path class="st1" d="M350.6,140.2c0.7,0,1.1,0.3,1.2,1C351.1,141.2,351,140.6,350.6,140.2z"/>
			<path class="st1" d="M348,138c0.5,0,0.7,0.3,0.9,0.7C348.4,138.8,348,138.6,348,138z"/>
			<path class="st1" d="M349,138.7c0.5,0,0.7,0.3,0.9,0.7C349.4,139.5,349,139.4,349,138.7z"/>
			<path class="st1" d="M74.9,126.5c0.1-0.6,0.4-0.8,1-0.7C75.7,126.2,75.4,126.5,74.9,126.5z"/>
			<path class="st1" d="M72.8,128.4c0-0.5,0.2-0.7,0.7-0.7C73.5,128.1,73.2,128.4,72.8,128.4z"/>
			<path class="st1" d="M67.8,133.2c0.2-0.4,0.6-0.5,0.9-0.7C68.7,133.1,68.3,133.2,67.8,133.2z"/>
			<path class="st1" d="M349.9,139.5c0.4,0,0.7,0.3,0.7,0.7C350.2,140.1,349.9,139.9,349.9,139.5z"/>
			<path class="st1" d="M354.2,143.1c0.5,0,0.7,0.3,0.7,0.7C354.5,143.8,354.3,143.5,354.2,143.1z"/>
			<path class="st1" d="M79.5,123.1c0.1-0.4,0.3-0.5,0.7-0.5C80.1,123,79.8,123.1,79.5,123.1z"/>
			<path class="st1" d="M73.5,127.7c0-0.3,0.2-0.5,0.5-0.5C74,127.5,73.8,127.7,73.5,127.7z"/>
			<path class="st1" d="M75.9,125.8c0-0.3,0.2-0.4,0.5-0.4C76.4,125.6,76.2,125.8,75.9,125.8z"/>
			<path class="st1" d="M90.1,116.9c0.2-0.3,0.4-0.3,0.7-0.2C90.6,116.9,90.3,116.9,90.1,116.9z"/>
			<path class="st1" d="M138.8,102.2c0.2-0.3,0.5-0.2,0.7,0C139.3,102.2,139.1,102.2,138.8,102.2z"/>
			<path class="st1" d="M331.9,128.2c0.2,0,0.4,0,0.5,0.2C332.2,128.4,332,128.4,331.9,128.2z"/>
			<path class="st1" d="M330.7,127.5c0.2,0,0.4,0,0.5,0.2C331,127.7,330.8,127.6,330.7,127.5z"/>
			<path class="st1" d="M330.2,127.2c0.2,0,0.4,0,0.5,0.2C330.5,127.4,330.3,127.4,330.2,127.2z"/>
			<path class="st1" d="M331.2,127.7c0.2,0,0.4,0,0.5,0.2C331.4,127.9,331.3,127.9,331.2,127.7z"/>
			<path class="st1" d="M74.7,126.7c0.1-0.1,0.2-0.2,0.2-0.2C74.9,126.6,75,126.9,74.7,126.7z"/>
			<path class="st1" d="M88.4,117.8c0.1-0.2,0.3-0.2,0.5-0.2C88.8,117.8,88.6,117.8,88.4,117.8z"/>
			<path class="st1" d="M88.9,117.6c0.1-0.2,0.3-0.2,0.5-0.2C89.2,117.6,89.1,117.6,88.9,117.6z"/>
			<path class="st1" d="M353.5,142.4c0.3-0.1,0.2,0.1,0.2,0.2C353.7,142.5,353.6,142.4,353.5,142.4z"/>
			<path class="st1" d="M355.2,144c0.1,0.1,0.2,0.2,0.3,0.2C355.1,144.4,355.2,144.1,355.2,144z"/>
			<path class="st1" d="M89.6,117.1c0.1-0.2,0.3-0.2,0.5-0.2C90,117.1,89.8,117.1,89.6,117.1z"/>
			<path class="st1" d="M139.5,102.3c0.2,0,0.3,0,0.5,0C139.9,102.5,139.7,102.5,139.5,102.3z"/>
			<path class="st1" d="M60.5,149.1c0-0.1-0.1-0.1-0.1-0.2c0,0,0.1-0.1,0.1-0.1C60.7,148.9,60.7,149,60.5,149.1z"/>
			<path class="st1" d="M331.7,127.9c0.1,0.1,0.1,0.1,0.2,0.2C331.8,128.1,331.7,128,331.7,127.9z"/>
			<path class="st1" d="M67.5,133.4c0.1-0.1,0.1-0.1,0.2-0.2C67.7,133.3,67.6,133.4,67.5,133.4z"/>
			<path class="st1" d="M325.4,124.8c0.1,0.1,0.1,0.1,0.2,0.2C325.6,125,325.5,124.9,325.4,124.8z"/>
			<path class="st1" d="M89.4,117.4c0.1-0.1,0.1-0.1,0.2-0.2C89.5,117.2,89.4,117.3,89.4,117.4z"/>
			<path class="st1" d="M74,127.2c0.1-0.1,0.1-0.1,0.2-0.2C74.1,127.1,74.1,127.1,74,127.2z"/>
		</g>
	</g>
</g>
<g>
	<g>
		<g>
			<path class="st3" d="M186.3,20.4c6.6,0,13.1,0,19.7,0c0.1,0.1,0.3,0.2,0.4,0.2c4.3,0.1,8.7,0.2,13,0.7c2.8,0.4,5.7,0.2,8.6,0.5
				c6.2,0.5,12.5,1.2,18.7,2c8.7,1.2,17.4,2.7,26.1,4.5c20.9,4.4,41.2,10.7,60.5,20c5.1,2.5,10,5.4,14.8,8.4
				c2.8,1.8,5.5,3.7,8.1,5.8c6.2,5,11.7,10.5,15.7,17.5c1.4,2.5,2.6,5.1,3.2,8c0.3,1.5,0.4,3.1,1,4.5c0,1.8,0,3.5,0,5.3
				c-0.4,0.7-0.1,1.5-0.5,2.2c-0.1,0.1-0.1,0.2-0.2,0.3c-1.3,6.2-4.6,11.4-8.8,15.9c-5.2,5.6-11.5,9.8-18.3,13.3
				c-13.8,7.2-28.5,11.4-43.7,14.4c-10.5,2.1-21,3.5-31.7,4.3c-6.9,0.6-13.9,0.9-20.8,1.1c-10.3,0.3-20.5-0.1-30.8-0.7
				c-2.4-0.1-4.8-0.3-7.2-0.5c-4.5-0.4-9-0.9-13.5-1.4c-4.1-0.4-8.3-1-12.3-1.6c-4.9-0.7-9.8-1.6-14.7-2.7
				c-6.9-1.5-13.9-2.8-20.7-4.7c-6.4-1.8-12.8-3.5-19-5.7c-8.1-2.8-16.1-5.9-23.9-9.7c-6.5-3.1-12.8-6.6-18.7-10.7
				c-7.6-5.2-14.6-11.1-19.9-18.8c-1.9-2.7-3.5-5.6-4.6-8.7c-0.9-2.4-1.2-5-1.5-7.6c0-1-0.3-2-0.2-3.1c0.6-6.1,2.8-11.5,6.5-16.3
				c3-3.9,6.5-7.2,10.4-10c9.2-6.7,19.4-11.3,30.1-14.8c10.1-3.4,20.4-5.8,30.9-7.5c6.5-1.1,13.1-2,19.7-2.6c4-0.4,8-0.4,12-0.9
				c3.4-0.4,6.8-0.5,10.2-0.5C185.3,20.6,185.9,20.8,186.3,20.4z"/>
			<path class="st4" d="M375.5,99.8c-0.2,2.9-0.3,5.8-0.5,8.7c-0.5,6.5-1.1,12.9-1.6,19.4c-0.6,7.7-1.2,15.4-1.9,23.1
				c-0.5,6.4-1.1,12.7-1.5,19.1c-0.4,5.6-1.1,11.1-4.1,16.1c-2.9,4.8-6.6,9-11,12.5c-6.7,5.3-14.1,9.3-21.9,12.6
				c-4.1,1.7-8.1,3.2-12.3,4.6c-10.3,3.3-20.8,5.6-31.5,7.3c-11.7,1.9-23.4,3-35.2,3.5c-7,0.3-14,0.5-21,0.3
				c-16.7-0.4-33.4-1.6-49.9-4.2c-0.9-0.1-1.8-0.2-2.7-0.3c-0.5-0.6-1.3-0.4-1.9-0.4c0,0-0.1,0-0.1,0c-0.4-0.3-0.9-0.3-1.4-0.2
				c0,0-0.1,0-0.1,0c-0.8-0.4-1.7-0.5-2.6-0.5c-3.6-0.5-7.2-1.3-10.8-2c-12.6-2.6-25-5.9-37.2-10.2c-14.3-5-28.1-11-40.6-19.6
				c-7.9-5.4-15.1-11.5-20.5-19.5c-2.7-4-4.7-8.2-5.6-13c-0.1-0.4-0.1-0.8-0.1-1.2c-0.2-6.6,0.3-13.2,0.8-19.8
				c0.5-5.7,0.9-11.5,1.3-17.2c0.6-7.9,1.2-15.7,1.8-23.6c0.4-5.8,0.9-11.6,1.4-17.5c0-0.5-0.3-1.2,0.4-1.5c0.3,2.6,0.6,5.2,1.5,7.6
				c1.1,3.1,2.7,6,4.6,8.7c5.3,7.7,12.3,13.6,19.9,18.8c5.9,4.1,12.2,7.5,18.7,10.7c7.7,3.7,15.8,6.8,23.9,9.7
				c6.3,2.2,12.6,3.9,19,5.7c6.8,1.9,13.8,3.2,20.7,4.7c4.9,1.1,9.8,2,14.7,2.7c4.1,0.6,8.2,1.2,12.3,1.6c4.5,0.5,9,1,13.5,1.4
				c2.4,0.2,4.8,0.4,7.2,0.5c10.3,0.6,20.5,1,30.8,0.7c6.9-0.2,13.9-0.5,20.8-1.1c10.6-0.9,21.2-2.3,31.7-4.3
				c15.2-3,29.9-7.2,43.7-14.4c6.7-3.5,13-7.7,18.3-13.3c4.3-4.6,7.5-9.7,8.8-15.9C375.4,100.1,375.4,100,375.5,99.8z"/>
		</g>
	</g>
</g>
<g>
	<g>
		<g>
			<path class="st5" d="M201.3,350.5c0.5-1.5,0.5-3,0.7-4.5c0.8-6.5,1.9-12.9,3.3-19.3c4.5-20.5,12.2-39.8,22.7-57.9
				c7.7-13.3,16.8-25.6,27.3-36.8c2-2.2,4.1-4.2,6.2-6.3c0.1-0.1,0.2-0.1,0.2-0.2c0,0,0,0,0,0c0.1-0.1,0.1-0.1,0.2-0.2c0,0,0,0,0,0
				c0.1-0.1,0.1-0.1,0.2-0.2c0,0,0,0,0,0c0.1-0.1,0.1-0.1,0.2-0.2c0,0,0,0,0,0c0.1-0.1,0.1-0.1,0.2-0.2c0,0,0,0,0,0
				c0.1-0.1,0.1-0.1,0.2-0.2c0,0,0,0,0,0c0.1-0.1,0.1-0.1,0.2-0.2c0,0,0.1,0,0,0c0.1-0.1,0.1-0.1,0.2-0.2c0,0,0.1-0.1,0.1-0.1
				c0.1-0.1,0.1-0.1,0.2-0.2c0,0,0.1-0.1,0.1-0.1c0.1-0.1,0.1-0.1,0.2-0.2c0,0,0.1-0.1,0.1-0.1c0.1-0.1,0.1-0.1,0.2-0.2
				c0,0,0.1-0.1,0.1-0.1c0.1-0.1,0.1-0.1,0.2-0.2c0,0,0.1-0.1,0.1-0.1c0.1-0.1,0.1-0.1,0.2-0.2c0,0,0.1-0.1,0.1-0.1
				c0.1-0.1,0.1-0.1,0.2-0.2c0,0,0.1-0.1,0.1-0.1c0.1-0.1,0.1-0.1,0.2-0.2c6.7-6.3,13.9-12.1,21.4-17.4c8.1-5.6,16.6-10.6,25.5-14.8
				c13.8-6.5,28.3-11.1,43.3-13.6c6.5-1,13-1.6,19.5-1.8c15-0.5,29.7,1.4,44.1,5.9c8.7,2.7,17.1,6.3,25,10.7
				c5.2,2.9,10.5,5.6,15.7,8.4c0.6,0.3,1.1,0.6,1.6,0.9c-0.4,0.4-0.7,0.1-1.1,0c-3-1.2-5.9-2.4-8.9-3.4c-6.1-2.1-12.3-3.7-18.7-4.9
				c-6.4-1.2-12.8-2-19.3-2.2c-5.6-0.2-11.2-0.1-16.7,0.4c-4.7,0.4-9.3,0.9-13.9,1.7c-8.4,1.4-16.6,3.5-24.6,6.2
				c-8.9,3-17.5,6.7-25.7,11.3c-6.2,3.4-12.3,6.8-18,11c-3.7,2.8-7.5,5.5-11.1,8.5c-5.7,4.8-11.4,9.5-16.4,14.9
				c-3.5,3.9-7.1,7.7-10.5,11.7c-4.1,4.9-8,9.9-11.6,15.2c-6.6,9.6-12.4,19.6-17.2,30.2c-2.8,6.1-5.3,12.3-7.5,18.6
				c-3.1,8.8-5.5,17.8-7.4,26.9c-0.7,3.3-1.1,6.7-1.9,10c-0.6,2.5-0.5,5.1-0.8,7.7c-0.5,3.6-0.8,7.2-0.9,10.8
				c-0.1,7.5-0.3,15,0.4,22.5c0.4,4.1,0.7,8.2,1.3,12.3c0.9,6.7,2.5,13.2,4,19.7c0.5,2.2,1.4,4.2,2,6.3c1.7,5.7,3.9,11.2,6.3,16.6
				c1.5,3.4,3.1,6.8,5,10c2.6,4.5,5,9.1,8,13.2c2.8,3.8,5.7,7.6,8.6,11.3c1.9,2.4,4.1,4.5,6.2,6.7c2.8,2.9,5.7,5.5,8.8,8.1
				c4.1,3.5,8.3,6.7,12.8,9.6c1.2,0.8,2.6,1.4,3.6,2.6c-5-2.8-10.1-5.5-15.1-8.3c-5.4-3-10.9-5.9-16.2-9.3
				c-4.9-3.1-9.4-6.6-13.8-10.4c-12.6-10.9-22.9-23.7-30.9-38.2c-3.7-6.8-6.9-13.8-9.6-21c-4-10.8-6.6-22.1-8.3-33.5
				c-0.3-2.4-0.5-4.8-0.8-7.1c0-0.3,0.1-0.7-0.2-1C201.3,373.5,201.3,362,201.3,350.5z"/>
			<path class="st6" d="M296.2,513.9c-1-1.2-2.4-1.8-3.6-2.6c-4.5-2.9-8.7-6.1-12.8-9.6c-3-2.6-6-5.2-8.8-8.1
				c-2.1-2.2-4.3-4.4-6.2-6.7c-3-3.7-5.8-7.5-8.6-11.3c-3.1-4.2-5.4-8.8-8-13.2c-1.9-3.2-3.5-6.6-5-10c-2.4-5.4-4.6-10.9-6.3-16.6
				c-0.6-2.1-1.5-4.2-2-6.3c-1.5-6.5-3-13.1-4-19.7c-0.6-4.1-1-8.2-1.3-12.3c-0.6-7.5-0.5-15-0.4-22.5c0-3.6,0.4-7.2,0.9-10.8
				c0.3-2.5,0.3-5.2,0.8-7.7c0.8-3.3,1.2-6.7,1.9-10c1.9-9.1,4.3-18.1,7.4-26.9c2.2-6.3,4.7-12.5,7.5-18.6
				c4.9-10.6,10.7-20.6,17.2-30.2c3.6-5.3,7.5-10.3,11.6-15.2c3.4-4,7-7.8,10.5-11.7c5-5.5,10.7-10.2,16.4-14.9
				c3.6-3,7.4-5.7,11.1-8.5c5.6-4.3,11.8-7.6,18-11c8.2-4.5,16.8-8.2,25.7-11.3c8-2.7,16.2-4.8,24.6-6.2c4.6-0.8,9.3-1.3,13.9-1.7
				c5.6-0.5,11.2-0.6,16.7-0.4c6.5,0.3,12.9,1,19.3,2.2c6.3,1.2,12.6,2.8,18.7,4.9c3,1.1,5.9,2.3,8.9,3.4c0.4,0.1,0.7,0.4,1.1,0
				c2.9,1.2,5.5,2.8,8.3,4.3c4.6,2.4,9.1,5.2,13.4,8.1c9.4,6.5,17.7,14.1,25.2,22.7c8.1,9.4,14.8,19.7,20.2,30.8
				c6.3,13,10.6,26.6,13.2,40.8c1.5,8.5,2.3,17,2.7,25.5c0.3,6.9,0.1,13.7-0.4,20.6c-1.4,18.6-5.5,36.6-12,54.1
				c-4.7,12.6-10.6,24.6-17.7,36c-4.9,8-10.3,15.6-16.3,22.9c-15.4,18.7-33.5,34.2-54.7,46.1c-14.3,8-29.3,13.8-45.3,17.3
				c-6.7,1.5-13.6,2.5-20.4,3c-6,0.5-12.1,0.6-18.1,0.3c-15.4-0.7-30.2-3.9-44.5-9.7c-6.3-2.6-12.2-5.7-18.1-9
				C296.6,514.2,296.4,514.1,296.2,513.9z M299.6,484.3c0.1,0.1,0.2,0.1,0.3,0.2c0.1,0,0.1,0,0.2,0.1c0.7,1.1,1.8,1.4,2.8,2.1
				c4,2.9,8.3,5.6,12.7,7.9c7.2,3.8,14.7,6.8,22.5,9c9.2,2.5,18.5,3.9,28,4.1c3.4,0.1,6.9,0,10.3-0.2c3.7-0.2,7.4-0.6,11-1.1
				c5.5-0.8,10.9-2,16.2-3.4c8.4-2.3,16.4-5.5,24.3-9.2c4.4-2.1,8.5-4.7,12.7-7.1c3-1.7,5.9-3.7,8.7-5.7c6.6-4.6,12.6-9.8,18.4-15.3
				c6.3-6,12.1-12.5,17.4-19.5c6.3-8.2,11.8-16.8,16.6-25.9c2.3-4.4,4.4-9,6.4-13.6c4.7-11.1,8.1-22.7,10.4-34.6
				c0.8-4.2,1.3-8.4,1.7-12.6c0.3-3.1,0.8-6.2,0.8-9.2c0.1-4.2,0.4-8.3,0.1-12.5c-0.2-2.9-0.3-5.9-0.5-8.8
				c-0.3-4.6-1.1-9.2-1.8-13.8c-1-6.2-2.4-12.4-4.7-18.3c-1.1-3-2.1-6-3.2-9c-1.1-2.8-2.3-5.7-3.9-8.3c-1-1.6-1.6-3.4-2.4-5
				c-2.2-4.3-5.1-8.2-7.8-12.3c-2.9-4.3-6.4-8.1-9.8-11.9c-3.3-3.7-7.1-6.9-10.9-10.2c-2.5-2.2-5.3-4.1-8-6
				c-5.9-4-12.1-7.4-18.7-10.1c-1.9-0.8-3.7-1.8-5.7-2l0,0c-0.1,0-0.1-0.1-0.2-0.1c-1.8-0.7-3.6-1.3-5.4-1.9
				c-13.7-4.1-27.7-5.6-41.9-4.6c-8,0.6-15.9,1.9-23.7,3.9c-14.9,3.8-28.7,10-41.7,18.3c-14.6,9.4-27.4,20.9-38.4,34.3
				c-8.1,9.8-15,20.4-20.9,31.7c-7.1,13.7-12.2,28.1-15.4,43.3c-1.9,9-3.1,18.1-3.4,27.4c-0.2,5-0.2,10,0.1,15
				c0.4,6.5,1.1,12.9,2.3,19.2c2.6,13.6,7.1,26.6,13.7,38.9c5.8,10.6,13,20.2,21.6,28.7c2.8,2.7,5.8,5.2,8.8,7.8
				C299.2,484.1,299.3,484.2,299.6,484.3C299.5,484.2,299.6,484.3,299.6,484.3z"/>
			<path class="st6" d="M265.1,222.1c-0.1,0.1-0.1,0.1-0.2,0.2C265,222.2,265,222.2,265.1,222.1z"/>
			<path class="st6" d="M264.8,222.4c-0.1,0.1-0.1,0.1-0.2,0.2C264.7,222.5,264.8,222.4,264.8,222.4z"/>
			<path class="st6" d="M264.6,222.6c-0.1,0.1-0.1,0.1-0.2,0.2C264.5,222.7,264.5,222.6,264.6,222.6z"/>
			<path class="st6" d="M264.3,222.8c-0.1,0.1-0.1,0.1-0.2,0.2C264.2,222.9,264.3,222.9,264.3,222.8z"/>
			<path class="st6" d="M264.1,223.1c-0.1,0.1-0.1,0.1-0.2,0.2C264,223.2,264,223.1,264.1,223.1z"/>
			<path class="st6" d="M263.9,223.3c-0.1,0.1-0.1,0.1-0.2,0.2C263.7,223.4,263.8,223.4,263.9,223.3z"/>
			<path class="st6" d="M263.6,223.5c-0.1,0.1-0.1,0.1-0.2,0.2C263.5,223.7,263.6,223.6,263.6,223.5z"/>
			<path class="st6" d="M263.4,223.8c-0.1,0.1-0.1,0.1-0.2,0.2C263.3,223.9,263.3,223.8,263.4,223.8z"/>
			<path class="st6" d="M263.1,224c-0.1,0.1-0.1,0.1-0.2,0.2C263,224.1,263.1,224.1,263.1,224z"/>
			<path class="st6" d="M262.9,224.2c-0.1,0.1-0.1,0.1-0.2,0.2C262.8,224.4,262.8,224.3,262.9,224.2z"/>
			<path class="st6" d="M262.7,224.5c-0.1,0.1-0.1,0.1-0.2,0.2C262.5,224.6,262.6,224.5,262.7,224.5z"/>
			<path class="st6" d="M262.4,224.7c-0.1,0.1-0.1,0.1-0.2,0.2C262.3,224.8,262.4,224.8,262.4,224.7z"/>
			<path class="st6" d="M262.2,224.9c-0.1,0.1-0.1,0.1-0.2,0.2C262,225.1,262.1,225,262.2,224.9z"/>
			<path class="st6" d="M261.9,225.2c-0.1,0.1-0.1,0.1-0.2,0.2C261.8,225.3,261.9,225.2,261.9,225.2z"/>
			<path class="st6" d="M261.7,225.4c-0.1,0.1-0.2,0.1-0.2,0.2C261.5,225.6,261.6,225.5,261.7,225.4z"/>
			<path class="st2" d="M299.1,483.8c-3-2.6-6-5-8.8-7.8c-8.6-8.5-15.8-18-21.6-28.7c-6.6-12.2-11.1-25.2-13.7-38.9
				c-1.2-6.3-1.9-12.8-2.3-19.2c-0.3-5-0.3-10-0.1-15c0.4-9.2,1.5-18.3,3.4-27.4c3.2-15.1,8.3-29.5,15.4-43.3
				c5.8-11.3,12.8-21.9,20.9-31.7c11-13.4,23.8-24.9,38.4-34.3c12.9-8.3,26.8-14.5,41.7-18.3c7.8-2,15.6-3.3,23.7-3.9
				c14.3-1,28.2,0.4,41.9,4.6c1.8,0.6,3.7,1.1,5.4,1.9c0,0.1,0.1,0.1,0.2,0.1c0,0,0,0,0,0c0.1,0.1,0.2,0.3,0.3,0.4
				c5.6,4,10.5,8.6,15.2,13.7c8.8,9.5,15.8,20.3,21.2,32.1c7.7,17,11.5,35,12.2,53.7c0.3,7.3-0.1,14.6-0.9,21.8
				c-0.5,4.3-1,8.6-1.8,12.9c-3.5,18.9-10.1,36.7-19.6,53.5c-8.4,14.8-18.6,28.1-30.9,39.9c-15.6,15-33.5,26.6-53.8,34.1
				c-10.9,4-22.2,6.6-33.8,7.6c-7.7,0.7-15.4,0.7-23.1-0.1c-6.6-0.7-13-1.9-19.4-3.7c-3.1-0.9-6.2-1.7-9.1-3.2
				c0-0.1-0.1-0.1-0.2-0.1c-0.1-0.1-0.2-0.1-0.3-0.2c0,0-0.1-0.1-0.1-0.1C299.5,484,299.3,483.9,299.1,483.8z"/>
			<path class="st5" d="M300.1,484.5c2.9,1.6,6,2.3,9.1,3.2c6.3,1.8,12.8,3,19.4,3.7c7.7,0.8,15.4,0.8,23.1,0.1
				c11.6-1,22.9-3.6,33.8-7.6c20.4-7.5,38.2-19,53.8-34.1c12.3-11.8,22.5-25.1,30.9-39.9c9.5-16.7,16-34.6,19.6-53.5
				c0.8-4.3,1.3-8.6,1.8-12.9c0.8-7.3,1.1-14.5,0.9-21.8c-0.7-18.6-4.4-36.6-12.2-53.7c-5.4-11.8-12.4-22.6-21.2-32.1
				c-4.6-5-9.6-9.7-15.2-13.7c-0.1-0.1-0.2-0.3-0.3-0.4c2,0.3,3.9,1.3,5.7,2c6.6,2.7,12.8,6.2,18.7,10.1c2.8,1.9,5.5,3.8,8,6
				c3.8,3.3,7.6,6.4,10.9,10.2c3.4,3.9,6.9,7.6,9.8,11.9c2.7,4,5.5,8,7.8,12.3c0.9,1.7,1.5,3.4,2.4,5c1.6,2.6,2.8,5.5,3.9,8.3
				c1.2,3,2.1,6,3.2,9c2.3,5.9,3.7,12.1,4.7,18.3c0.7,4.6,1.6,9.1,1.8,13.8c0.2,2.9,0.3,5.9,0.5,8.8c0.3,4.2-0.1,8.3-0.1,12.5
				c-0.1,3.1-0.5,6.2-0.8,9.2c-0.5,4.2-0.9,8.4-1.7,12.6c-2.2,11.9-5.7,23.4-10.4,34.6c-2,4.6-4,9.2-6.4,13.6
				c-4.8,9.1-10.3,17.8-16.6,25.9c-5.3,6.9-11.1,13.5-17.4,19.5c-5.8,5.5-11.9,10.7-18.4,15.3c-2.8,2-5.7,4-8.7,5.7
				c-4.3,2.3-8.3,5-12.7,7.1c-7.9,3.7-15.9,6.9-24.3,9.2c-5.3,1.4-10.7,2.7-16.2,3.4c-3.7,0.5-7.3,0.9-11,1.1
				c-3.4,0.2-6.9,0.2-10.3,0.2c-9.5-0.2-18.8-1.6-28-4.1c-7.8-2.2-15.3-5.2-22.5-9c-4.4-2.4-8.6-5-12.7-7.9
				C301.9,486,300.7,485.6,300.1,484.5z"/>
			<path class="st5" d="M299.1,483.8c0.2,0,0.3,0.2,0.4,0.4C299.3,484.2,299.2,484.1,299.1,483.8z"/>
			<path class="st5" d="M299.6,484.3c0.1,0.1,0.2,0.1,0.3,0.2C299.8,484.4,299.7,484.3,299.6,484.3z"/>
			<path class="st5" d="M443.6,222.1c-0.1,0-0.1,0-0.2-0.1C443.5,222,443.5,222,443.6,222.1z"/>
		</g>
	</g>
</g>
<g>
	<g>
		<g>
			<path class="st7" d="M395,214.4c5.1,0,10.2,0,15.3,0c0.2,0.2,0.4,0.2,0.6,0.2c2.3,0.2,4.5,0.4,6.8,0.7c2.2,0.3,4.3,0.5,6.5,0.8
				l0,0c0.4,0.4,1,0.2,1.5,0.2l0,0c1.1,0.4,2.2,0.7,3.4,0.7l0,0c2.2,0.8,4.4,1.4,6.7,1.7l0,0c0.4,0.4,0.9,0.6,1.5,0.7
				c4.2,1.1,8.2,2.9,12.3,4.5c1.4,0.6,2.7,1.5,4.3,1.7l0,0c0.1,0.2,0.3,0.2,0.5,0.2l0,0c0.1,0.2,0.3,0.2,0.5,0.2l0,0
				c0.1,0.2,0.3,0.2,0.5,0.2l0,0c0.1,0.2,0.3,0.2,0.5,0.2l0,0c0.1,0.2,0.3,0.2,0.5,0.2l0,0c0.1,0.2,0.3,0.2,0.5,0.2l0,0
				c0.4,0.6,1,0.8,1.7,1l0,0c0.1,0.2,0.3,0.2,0.5,0.2l0,0c0.2,0.3,0.5,0.3,0.7,0.2l0,0c0,0.5,0.5,0.6,0.8,0.8
				c3.9,2.4,7.8,4.9,11.5,7.7c0.8,0.6,1.4,1.6,2.5,1.6l0,0c0.6,1.1,1.4,1.8,2.6,2.2l0,0c0.1,0.1,0.2,0.2,0.3,0.3l0,0
				c0,0.5,0.3,0.7,0.6,1c2.4,2.1,4.7,4.2,7,6.5c0.2,0.2,0.5,0.5,0.8,0.4l0,0c0.1,0.1,0.2,0.2,0.3,0.3l0,0c-0.1,0.5,0.2,0.8,0.5,1.1
				c1.4,1.3,2.5,2.8,3.8,4.3c1,1.1,1.8,2.6,3.1,3.5l0,0c0,0.4,0.2,0.6,0.4,0.8c3.1,4.2,6.1,8.4,8.6,13c0.4,0.7,0.6,1.7,1.5,2l0,0
				c0.1,0.9,0.5,1.8,1.2,2.4l0,0c0,0.6,0.2,1.1,0.7,1.4l0,0c0,0.4,0.1,0.8,0.5,1l0,0c0.5,1.8,1.4,3.5,2.4,5l0,0
				c0.1,0.6,0.1,1.3,0.7,1.7l0,0c0,0.3,0,0.7,0.1,0.9c1.7,4.1,3.1,8.3,4.5,12.6c1.2,3.7,2.2,7.5,3,11.3c1.1,4.9,1.8,9.9,2.4,14.8
				c0.3,2.9,0.4,5.9,0.7,8.8c0.1,1.1-0.2,2.3,0.3,3.4c0.1,2.9,0.2,5.8,0,8.6c-0.4,1.7-0.2,3.5-0.2,5.3c0.2,1.7-0.2,3.4-0.3,5.1
				c-0.6,0.2-0.4,0.7-0.4,1.1c-0.1,1.3-0.3,2.7-0.4,4c-0.3,2.7-0.9,5.3-1,8l0,0c-0.4,0.4-0.2,1-0.2,1.5c0,0.1,0,0.1,0,0.2
				c-0.4,0.3-0.2,0.8-0.2,1.2l0,0c-0.5,0.6-0.5,1.4-0.5,2.2l0,0c-0.6,1.8-1,3.6-1.2,5.5l0,0c-0.7,1.2-0.9,2.5-1,3.9l0,0
				c-0.3,0.1-0.4,0.4-0.5,0.8c-0.7,2.4-1.3,4.7-2,7.1c-1.3,4-2.7,8-4.3,11.9c-0.9,2.3-1.8,4.6-2.9,6.9c-0.6,1.2-1.5,2.4-1.6,3.8l0,0
				c-0.2,0.1-0.2,0.3-0.2,0.5l0,0c-0.2,0.1-0.2,0.3-0.2,0.5l0,0c-0.2,0.1-0.2,0.3-0.2,0.5l0,0c-0.2,0.1-0.2,0.3-0.2,0.5l0,0
				c-0.2,0.1-0.2,0.3-0.2,0.5l0,0c-0.2,0.1-0.2,0.3-0.2,0.5l0,0c-0.2,0.1-0.2,0.3-0.2,0.5l0,0c-0.2,0.1-0.2,0.3-0.2,0.5l0,0
				c-0.2,0.1-0.2,0.3-0.2,0.5l0,0c-0.2,0.1-0.2,0.3-0.2,0.5l0,0c-0.2,0.1-0.2,0.3-0.2,0.5l0,0c-0.2,0.1-0.2,0.3-0.2,0.5l0,0
				c-0.2,0.1-0.2,0.3-0.2,0.5l0,0c-0.6,0.4-0.8,1-1,1.7l0,0c-0.2,0.1-0.2,0.3-0.2,0.5l0,0c-0.2,0.1-0.2,0.3-0.2,0.5l0,0
				c-0.6,0.4-0.8,1-1,1.7l0,0c-0.3,0.2-0.3,0.5-0.2,0.7l0,0c-0.3,0-0.5,0.2-0.6,0.5c-2.4,4.1-4.9,8.1-7.6,12c-0.2,0.3-0.4,0.6-0.4,1
				l0,0c-0.2,0.1-0.2,0.3-0.2,0.5l0,0c-1.2,0.6-1.6,1.8-2.2,2.9l0,0c-0.9,0.7-1.6,1.5-1.9,2.6l0,0c-0.3,0-0.5,0.3-0.6,0.5
				c-1.7,2.1-3.3,4.1-5,6.2c-0.4,0.5-1.2,0.9-1.1,1.7l0,0c-0.9,0.3-1.6,0.9-1.7,1.9l0,0c-1,0.5-1.9,1.2-2.2,2.4l0,0
				c-0.1,0.1-0.2,0.2-0.3,0.3l0,0c-1.7,1.1-3,2.4-4.1,4.1c0,0,0,0,0,0c-0.1,0.1-0.2,0.2-0.2,0.2c0,0,0,0,0,0
				c-0.1,0.1-0.2,0.2-0.2,0.2l0,0c-0.1,0.1-0.2,0.2-0.2,0.2c0,0,0,0,0,0c-1.7,1.1-3,2.4-4.1,4.1l0,0c-0.1,0.1-0.2,0.2-0.3,0.3l0,0
				c-0.5,0-0.8,0.3-1.2,0.6c-0.7,0.6-1.4,1.3-2.1,1.9c-1.5,1.4-3.3,2.6-4.7,4.2l0,0c-1,0.4-1.8,1-2.4,1.9l0,0
				c-0.9,0.4-1.6,0.9-2.2,1.7l0,0c-0.5,0-0.8,0.3-1,0.7l0,0c-0.5,0-0.8,0.3-1,0.7l0,0c-1.1,0.4-1.9,1.1-2.6,1.9l0,0
				c-0.3,0-0.5,0.2-0.5,0.5l0,0c-0.8,0-1.3,0.5-1.9,0.9c-1.4,1-2.9,1.7-4.1,2.9l0,0c-0.1,0.1-0.2,0.2-0.2,0.2l0,0
				c-0.6-0.1-1,0.2-1.2,0.7l0,0c-1.2,0.2-2.1,1.1-3.2,1.7c-0.4,0.2-1,0.3-1.1,1l0,0c-0.9,0.1-1.7,0.3-2.2,1.2l0,0
				c-0.8,0-1.4,0.3-1.9,1l0,0c-0.4,0-0.9-0.1-1,0.5l0,0c-0.2,0-0.4,0.1-0.5,0.2l0,0c-0.2,0-0.4,0.1-0.5,0.2l0,0
				c-1.2,0.4-2.3,0.9-3.4,1.7l0,0c-1.6,0.5-3.2,1.2-4.6,2.2l0,0c-0.5,0-0.9,0.1-1.2,0.5l0,0c-0.9,0-1.6,0.2-2.2,1l0,0
				c-0.5,0-1-0.1-1.2,0.5l0,0c-0.5-0.1-0.9,0.1-1.3,0.3c-4.4,1.6-8.8,3.2-13.2,4.4c-6.8,1.9-13.7,3.3-20.7,4c-0.3,0-0.7,0-0.7,0.4
				c-1.4,0.1-2.8,0.4-4.2,0.3c-1.4,0-2.9-0.2-4.3,0.2c-3,0.3-6.1,0.4-9.1,0c-0.4-0.4-0.9-0.2-1.4-0.2c-1.5-0.1-3.1-0.3-4.6-0.4
				c-2.8-0.1-5.5-0.8-8.3-0.8c0,0-0.1,0-0.1,0c-0.4-0.4-1-0.2-1.5-0.3l0,0c-1.1-0.7-2.4-0.6-3.6-0.7l0,0c-0.1-0.1-0.2-0.2-0.3-0.2
				c-4.8-1.2-9.6-2.4-14.3-4.2c-2.6-1-5.1-2.1-7.7-3.1c-1.5-0.6-2.9-1.7-4.6-1.9l0,0c-0.1-0.2-0.3-0.2-0.5-0.2l0,0
				c-0.2-0.3-0.5-0.3-0.7-0.2l0,0c-0.3-0.8-1-0.9-1.7-1l0,0c-0.1-0.1-0.2-0.2-0.2-0.2l0,0c-0.1-0.2-0.3-0.2-0.5-0.2l0,0
				c-0.2-0.3-0.5-0.3-0.7-0.2l0,0c-0.2-0.8-0.9-0.8-1.4-1l0,0c-0.1-0.1-0.2-0.3-0.3-0.4c-3.3-2-6.4-4.1-9.5-6.3
				c-0.3-0.2-0.6-0.4-1-0.3l0,0c0-0.3-0.1-0.5-0.3-0.6c-2.2-1.6-4.3-3.3-6.3-5.1c-0.3-0.2-0.5-0.3-0.9-0.3l0,0
				c-0.3-0.8-0.9-1.4-1.7-1.7l0,0c-0.1-0.1-0.2-0.2-0.2-0.2c0,0,0,0,0,0c0-0.5-0.4-0.5-0.7-0.5l0,0c-0.1-0.1-0.2-0.2-0.3-0.3
				c0,0,0,0,0,0c-0.1-0.1-0.2-0.2-0.3-0.3c0,0,0,0,0,0c-1.1-1.7-2.4-3-4.1-4.1c0,0,0,0,0,0c-0.1-0.1-0.2-0.2-0.3-0.3c0,0,0,0,0,0
				c-0.1-0.1-0.2-0.2-0.3-0.3c0,0,0,0,0,0c0-0.7-0.3-1.1-1-1.2l0,0c-0.5-1.1-1.3-1.9-2.2-2.7c-0.6-0.6-0.9-1.7-1.9-1.8l0,0
				c0-0.9-0.6-1.3-1.2-1.7l0,0c0-0.4-0.3-0.7-0.7-0.7l0,0c0-0.2-0.1-0.4-0.2-0.5l0,0c0-0.5-0.3-0.8-0.7-1l0,0c0-0.5-0.3-0.8-0.7-1
				l0,0c0-0.5-0.3-0.8-0.7-1l0,0c0-0.5-0.3-0.8-0.7-1l0,0c-0.1-0.6-0.2-1.1-1-1.2l0,0c-0.4-1.5-1.3-2.7-2.4-3.7l0-0.1
				c-0.1-0.1-0.2-0.2-0.2-0.4l0,0c0-0.7-0.3-1.2-1-1.4l0,0c-0.1-1-0.6-1.8-1.4-2.4l0,0c-0.1-0.7-0.2-1.4-1-1.7l0,0
				c-0.1-0.9-0.5-1.8-1.2-2.4l0,0c0-0.2-0.1-0.4-0.2-0.5c0,0,0,0,0,0c-0.1-0.4-0.2-0.8-0.4-1.1c-3.5-6.8-6.3-13.9-8.6-21.1
				c-2.6-8.2-4.3-16.6-5.4-25.2c-0.2-1.3,0.1-2.7-0.7-3.9c0-10.1,0-20.3,0-30.5c0.6-0.1,0.4-0.6,0.5-1c0.1-1.1,0.2-2.3,0.4-3.4
				c0.4-3.1,0.9-6.2,1.3-9.3c0,0,0,0,0,0c0.4-1.2,0.7-2.5,0.7-3.9c0,0,0,0,0,0c0.1-0.2,0.2-0.3,0.3-0.5c0.6-2.4,1.1-4.9,1.8-7.3
				c0.8-2.8,1.6-5.6,2.4-8.3c2-6.4,4.4-12.6,7.1-18.7c0.5-1.1,1.2-2.2,1.4-3.5l0,0c0.2-0.1,0.2-0.3,0.2-0.5l0,0
				c0.2-0.1,0.2-0.3,0.2-0.5l0,0c0.2-0.1,0.2-0.3,0.2-0.5l0,0c0.2-0.1,0.2-0.3,0.2-0.5l0,0c0.2-0.1,0.2-0.3,0.2-0.5l0,0
				c0.2-0.1,0.2-0.3,0.2-0.5l0,0c0.2-0.1,0.2-0.3,0.2-0.5l0,0c0.2-0.1,0.2-0.3,0.2-0.5l0,0c0.2-0.1,0.2-0.3,0.2-0.5l0,0
				c0.2-0.1,0.2-0.3,0.2-0.5l0,0c0.2-0.1,0.2-0.3,0.2-0.5l0,0c0.2-0.1,0.2-0.3,0.2-0.5l0,0c0.2-0.1,0.2-0.3,0.2-0.5l0,0
				c0.2-0.1,0.2-0.3,0.2-0.5l0,0c0.2-0.1,0.2-0.3,0.2-0.5l0,0c0.7-0.6,1-1.4,1.2-2.2l0,0c0.2-0.1,0.2-0.3,0.2-0.5l0,0
				c0.7-0.6,1-1.3,1.2-2.2l0,0c0.7-0.6,1.1-1.5,1.4-2.4c0.2-0.3,0.3-0.7,0.5-1c0.1-0.1,0.1-0.1,0.2-0.2c0-0.1,0.1-0.2,0.1-0.3
				c1.1-1.1,1.9-2.5,2.5-4l0,0c1.4-1.5,2.5-3.2,3.4-5l0,0c0.2-0.1,0.3-0.3,0.2-0.5l0,0c0.9-0.6,1.5-1.3,1.7-2.4l0,0
				c0.5,0,0.6-0.4,0.9-0.7c2.8-3.8,5.8-7.6,8.9-11.2c0.7-0.8,1.9-1.4,2-2.7l0,0c0.1-0.1,0.2-0.2,0.2-0.3l0,0
				c0.1-0.1,0.2-0.2,0.2-0.2l0,0c0.1-0.1,0.2-0.2,0.2-0.2l0,0c0.7-0.1,1.1-0.5,1.2-1.2l0,0c0.5,0,0.5-0.4,0.5-0.7l0,0
				c0.3,0,0.5-0.2,0.5-0.5l0,0c0.1-0.1,0.2-0.2,0.3-0.3l0,0c0.2,0,0.3,0,0.4-0.1c2.1-2,4.1-4.1,6.1-6.1c0.1-0.1,0.1-0.3,0.1-0.4
				c0,0,0,0,0,0c0.1-0.1,0.2-0.2,0.3-0.3c0,0,0,0,0,0c1.6-0.6,2.6-1.9,3.6-3.1l0,0c0.7-0.1,1.1-0.5,1.2-1.2l0,0
				c0.9,0,1.4-0.6,1.7-1.4l0,0c0.8,0,1.3-0.5,1.4-1.2l0,0c0.7,0,1.1-0.3,1.2-1l0,0c1.1-0.2,1.8-1,2.4-1.9l0,0c0.2,0,0.4-0.1,0.5-0.2
				l0,0c1.8-1,3.4-2.2,4.8-3.6l0,0c0.6-0.1,1-0.3,1.2-1l0,0c0.6,0.1,1-0.2,1.2-0.7l0,0c0.3,0,0.6-0.2,0.7-0.5l0,0
				c0.3,0,0.5-0.2,0.5-0.5l0,0c0.4,0,0.7,0,0.7-0.5l0,0c0.6,0.1,1.1-0.3,1.5-0.6c1.8-1.1,3.5-2.2,5.2-3.3c0.8-0.5,1.8-0.8,2.4-1.6
				l0,0c0.7-0.3,1.6-0.3,1.9-1.2l0,0c1.1-0.2,2.1-0.6,2.9-1.4l0,0c0.2,0,0.4-0.1,0.5-0.2l0,0c0.2,0,0.4-0.1,0.5-0.2l0,0
				c1.2-0.4,2.3-0.9,3.4-1.7l0,0c0.2,0,0.4-0.1,0.5-0.2l0,0c0.4,0.1,0.7-0.1,1-0.3c4.4-2.1,8.9-4,13.5-5.5c5-1.7,10-3.3,15.2-4.4
				c6.1-1.3,12.2-2.3,18.4-2.8C394.5,214.8,394.9,214.8,395,214.4z"/>
			<path class="st8" d="M267.5,445.5c-0.5-0.1-0.6-0.5-0.7-0.9c-3.6-6.9-6.6-14.1-8.8-21.5c-2.3-7.7-4-15.5-5-23.5
				c0-0.3,0.2-0.9-0.5-0.9c0-0.2,0-0.5,0-0.7c0.4-0.3,0.3-0.6,0-1c0-1,0-1.9,0-2.9c0.8,1.2,0.5,2.6,0.7,3.9c1.1,8.6,2.8,17,5.4,25.2
				c2.3,7.3,5.1,14.3,8.6,21.1C267.2,444.8,267.3,445.1,267.5,445.5z"/>
			<path class="st8" d="M346.1,227.8c1.7-1.4,3.7-2,5.6-2.8c8.5-3.7,17.3-6.4,26.4-8.2c3.9-0.8,7.8-1.4,11.8-1.9
				c0.3,0,0.8,0.1,0.8-0.5c0.4,0,0.8,0,1.2,0c0.6,0.4,1.1,0.3,1.7,0c0.5,0,1,0,1.4,0c-0.1,0.5-0.5,0.4-0.8,0.5
				c-6.2,0.5-12.3,1.4-18.4,2.8c-5.2,1.1-10.2,2.7-15.2,4.4c-4.6,1.6-9.1,3.4-13.5,5.5C346.8,227.7,346.5,227.8,346.1,227.8z"/>
			<path class="st8" d="M252.4,360.6c0.6,0,0.4-0.5,0.5-0.8c0.4-2.9,0.9-5.9,1.3-8.8c0.1-0.3,0.1-0.7,0.4-1
				c-0.4,3.1-0.9,6.2-1.3,9.3c-0.2,1.1-0.3,2.3-0.4,3.4c0,0.4,0.1,0.8-0.5,1c0-0.5,0-1,0-1.4c0.3-0.4,0.4-0.8,0-1.2
				C252.4,360.9,252.4,360.8,252.4,360.6z"/>
			<path class="st8" d="M416.6,214.4c0,0.6,0.4,0.4,0.8,0.5c1.9,0.3,3.8,0.5,5.7,0.8c0.4,0.1,0.9,0,1.2,0.4
				c-2.2-0.2-4.3-0.5-6.5-0.8c-2.2-0.3-4.5-0.5-6.8-0.7c-0.2,0-0.5,0-0.6-0.2c1.2,0,2.4,0,3.6,0c0.6,0.3,1.1,0.4,1.7,0
				C415.9,214.4,416.3,214.4,416.6,214.4z"/>
			<path class="st2" d="M393.6,214.4c-0.6,0.3-1.1,0.4-1.7,0C392.4,214.4,393,214.4,393.6,214.4z"/>
			<path class="st2" d="M415.6,214.4c-0.6,0.4-1.1,0.3-1.7,0C414.5,214.4,415.1,214.4,415.6,214.4z"/>
			<path class="st2" d="M252.4,361.1c0.4,0.4,0.3,0.8,0,1.2C252.4,361.9,252.4,361.5,252.4,361.1z"/>
			<path class="st2" d="M252.4,397.1c0.3,0.3,0.4,0.6,0,1C252.4,397.7,252.4,397.4,252.4,397.1z"/>
			<path class="st8" d="M509.4,285.3c1.2,1.5,1.6,3.4,2.3,5.1c1.9,5.1,3.6,10.3,4.8,15.6c1.4,6,2.6,12.1,3.2,18.2
				c0.4,4.3,1,8.5,0.7,12.8c-0.5-1.1-0.2-2.3-0.3-3.4c-0.3-2.9-0.3-5.9-0.7-8.8c-0.6-5-1.3-9.9-2.4-14.8c-0.8-3.8-1.8-7.6-3-11.3
				c-1.4-4.2-2.8-8.5-4.5-12.6C509.4,286,509.4,285.6,509.4,285.3z"/>
			<path class="st8" d="M255.2,346.2c0.2-2.8,1.1-5.5,1.8-8.2c1.3-5.7,3.3-11.2,5.3-16.7c1.5-4.3,3.3-8.4,5.2-12.5
				c0.2-0.3,0.3-0.8,0.7-0.9c-0.1,1.3-0.8,2.4-1.4,3.5c-2.8,6.1-5.2,12.3-7.1,18.7c-0.9,2.8-1.7,5.5-2.4,8.3
				c-0.7,2.4-1.2,4.9-1.8,7.3C255.4,345.9,255.3,346.1,255.2,346.2z"/>
			<path class="st8" d="M417.3,497.3c-1.7,1.2-3.6,1.6-5.5,2.3c-6.3,2.3-12.8,3.9-19.3,5.2c-3.7,0.7-7.4,1.3-11.1,1.6
				c0.1-0.4,0.4-0.4,0.7-0.4c7-0.7,13.9-2.1,20.7-4c4.5-1.3,8.9-2.8,13.2-4.4C416.5,497.4,416.9,497.2,417.3,497.3z"/>
			<path class="st8" d="M514.9,383.6c-0.1,2.2-1,4.2-1.6,6.2c-1.5,5.2-3.4,10.3-5.5,15.4c-1.2,2.8-2.5,5.6-3.8,8.4
				c-0.1,0.2-0.2,0.4-0.5,0.5c0.1-1.5,1-2.6,1.6-3.8c1.1-2.3,2-4.6,2.9-6.9c1.6-3.9,3-7.8,4.3-11.9c0.7-2.3,1.4-4.7,2-7.1
				C514.5,384.1,514.6,383.8,514.9,383.6z"/>
			<path class="st8" d="M344.4,504.5c-2-0.1-3.9-0.7-5.8-1.2c-3.4-0.9-6.8-1.9-10.1-3.2c-3.6-1.4-7.1-2.8-10.5-4.6
				c-0.2-0.1-0.3-0.3-0.4-0.4c1.7,0.2,3.1,1.3,4.6,1.9c2.6,1,5.1,2.1,7.7,3.1c4.7,1.8,9.5,2.9,14.3,4.2
				C344.2,504.3,344.3,504.4,344.4,504.5z"/>
			<path class="st8" d="M435.8,218.7c2.4,0.3,4.5,1.2,6.7,1.9c3.5,1.2,6.9,2.6,10.2,4.3c0.4,0.2,0.8,0.3,1.1,0.7
				c-1.6-0.2-2.8-1.2-4.3-1.7c-4.1-1.6-8-3.4-12.3-4.5C436.7,219.2,436.2,219.1,435.8,218.7z"/>
			<path class="st8" d="M284.5,280.1c1.1-2.1,2.7-3.8,4.1-5.7c2.3-2.9,4.6-5.8,7.1-8.5c0.2-0.2,0.4-0.3,0.5-0.5
				c-0.1,1.3-1.3,1.9-2,2.7c-3.1,3.6-6.1,7.4-8.9,11.2C285.1,279.7,285,280.1,284.5,280.1z"/>
			<path class="st8" d="M493.3,258c0.7,0.1,0.9,0.8,1.3,1.3c3.1,4.2,6,8.6,8.6,13.1c0.3,0.4,0.4,0.9,0.6,1.4c-0.9-0.3-1.1-1.3-1.5-2
				c-2.5-4.6-5.5-8.8-8.6-13C493.5,258.6,493.3,258.3,493.3,258z"/>
			<path class="st8" d="M459.5,228.5c3.7,1.7,6.9,4.1,10.2,6.4c1.6,1.1,3.3,2.2,4.7,3.7c-1.1-0.1-1.7-1.1-2.5-1.6
				c-3.7-2.7-7.6-5.3-11.5-7.7C460,229.1,459.5,229,459.5,228.5z"/>
			<path class="st8" d="M497.9,425.4c-0.8,1.8-1.9,3.5-2.9,5.2c-1.6,2.6-3.3,5.1-5,7.7c-0.2,0.3-0.3,0.6-0.7,0.6
				c0-0.4,0.2-0.7,0.4-1c2.7-3.9,5.2-7.9,7.6-12C497.4,425.6,497.5,425.4,497.9,425.4z"/>
			<path class="st8" d="M311.8,492c-1.4-0.2-2.4-1.1-3.5-1.8c-2.5-1.6-5.1-3.1-7.3-5.1c0.4,0,0.7,0.1,1,0.3c3.1,2.2,6.3,4.3,9.5,6.3
				C311.6,491.7,311.7,491.9,311.8,492z"/>
			<path class="st8" d="M485.9,249.1c2.1,1.8,3.8,4,5.5,6.1c0.7,0.9,1.7,1.6,1.9,2.8c-1.3-0.9-2-2.3-3.1-3.5
				c-1.3-1.4-2.5-2.9-3.8-4.3C486.1,249.9,485.8,249.6,485.9,249.1z"/>
			<path class="st8" d="M477.2,241c2.2,1.5,4,3.4,5.9,5.2c0.9,0.8,1.9,1.6,2.5,2.7c-0.4,0-0.6-0.2-0.8-0.4c-2.2-2.3-4.5-4.4-7-6.5
				C477.6,241.7,477.2,241.4,477.2,241z"/>
			<path class="st8" d="M484.9,444.8c-0.6,1.5-1.7,2.6-2.7,3.7c-1.3,1.6-2.5,3.3-4,4.7c-0.1-0.9,0.7-1.2,1.1-1.7
				c1.6-2.1,3.3-4.1,5-6.2C484.5,445,484.6,444.8,484.9,444.8z"/>
			<path class="st8" d="M465,466.8c-1.4,1.7-3.2,3.1-4.9,4.5c-1,0.8-1.7,1.9-3,2.2c1.3-1.7,3.1-2.8,4.7-4.2c0.7-0.6,1.4-1.3,2.1-1.9
				C464.2,467.1,464.6,466.9,465,466.8z"/>
			<path class="st8" d="M519.9,356.1c-0.1,3.1-0.6,6.1-1.1,9.1c-0.2,1.4,0,2.8-0.8,4c0.2-2.7,0.8-5.3,1-8c0.1-1.3,0.3-2.7,0.4-4
				C519.5,356.8,519.2,356.3,519.9,356.1z"/>
			<path class="st8" d="M363.8,506.9c-4.6,0.2-9.1-0.5-13.6-1.2c-0.2,0-0.4-0.2-0.7-0.2c2.8,0,5.5,0.7,8.3,0.8
				c1.5,0,3.1,0.2,4.6,0.4C362.9,506.7,363.4,506.5,363.8,506.9z"/>
			<path class="st8" d="M327.4,238.3c1.7-1.5,3.7-2.6,5.7-3.7c1.1-0.7,2.1-1.6,3.5-1.8c-0.6,0.8-1.6,1.1-2.4,1.6
				c-1.7,1.1-3.4,2.2-5.2,3.3C328.4,238,328,238.4,327.4,238.3z"/>
			<path class="st8" d="M299.3,262.1c0.3-0.8,1-1.3,1.6-1.9c1.7-1.6,3.1-3.5,5.1-4.8c0,0.2,0,0.3-0.1,0.4c-2,2.1-4.1,4.1-6.1,6.1
				C299.7,262,299.5,262,299.3,262.1z"/>
			<path class="st8" d="M301,485.1c-2.7-1.7-5.2-3.7-7.4-6c0.3,0,0.6,0.1,0.9,0.3c2,1.8,4.1,3.5,6.3,5.1
				C300.9,484.6,301,484.8,301,485.1z"/>
			<path class="st8" d="M447.5,481c-1.9,1.4-3.7,3-6,3.8c1.2-1.2,2.8-1.9,4.1-2.9C446.2,481.5,446.7,480.9,447.5,481z"/>
			<path class="st8" d="M285,470.4c-1.7-1.3-3-2.8-4.1-4.6c1,0.2,1.3,1.2,1.9,1.8C283.6,468.5,284.4,469.4,285,470.4z"/>
			<path class="st8" d="M429,217c2.3,0.2,4.6,0.7,6.7,1.7C433.5,218.4,431.2,217.8,429,217z"/>
			<path class="st8" d="M279.2,288c0.7-1.9,1.9-3.6,3.4-5C281.6,284.7,280.6,286.5,279.2,288z"/>
			<path class="st8" d="M469.3,462.5c-1.1,1.6-2.5,2.9-4.1,4.1C466.3,464.9,467.7,463.6,469.3,462.5z"/>
			<path class="st8" d="M474.1,457.7c-1.1,1.6-2.5,3-4.1,4.1C471.1,460.2,472.5,458.8,474.1,457.7z"/>
			<path class="st8" d="M290.5,476.2c-1.6-1.1-2.9-2.5-4.1-4.1C288,473.2,289.4,474.5,290.5,476.2z"/>
			<path class="st8" d="M318.3,245c1.3-1.6,3-2.7,4.8-3.6C321.6,242.8,320,244,318.3,245z"/>
			<path class="st8" d="M506.3,278.6c1.1,1.5,2,3.2,2.4,5C507.6,282.1,506.8,280.4,506.3,278.6z"/>
			<path class="st8" d="M440.1,485.8c-1.2,1.2-2.8,1.9-4.3,2.6c0.1-0.7,0.7-0.7,1.1-1C438,486.9,438.8,486,440.1,485.8z"/>
			<path class="st8" d="M306.3,255.1c1.1-1.1,2.1-2.5,3.6-3.1C308.8,253.2,307.9,254.6,306.3,255.1z"/>
			<path class="st8" d="M276.7,292c0.5-1.5,1.3-2.9,2.5-4C278.6,289.5,277.8,290.8,276.7,292z"/>
			<path class="st8" d="M426.4,493.2c-1.4,1-2.9,1.8-4.6,2.2C423.2,494.4,424.8,493.7,426.4,493.2z"/>
			<path class="st8" d="M274.9,458c-1-1.1-1.8-2.3-2.4-3.7C273.6,455.3,274.5,456.5,274.9,458z"/>
			<path class="st8" d="M515.8,379.8c0,1.4-0.2,2.7-1,3.9C514.9,382.3,515.1,381,515.8,379.8z"/>
			<path class="st8" d="M489,439.3c-0.5,1.1-1.1,2.2-2.2,2.9C487.4,441.1,487.8,439.9,489,439.3z"/>
			<path class="st8" d="M517,374.3c-0.1,1.9-0.5,3.8-1.2,5.5C516,377.9,516.5,376.1,517,374.3z"/>
			<path class="st8" d="M520.4,345.8c0,1.8,0.2,3.5-0.2,5.3C520.2,349.3,519.9,347.5,520.4,345.8z"/>
			<path class="st8" d="M474.4,238.6c1,0.5,1.9,1.3,2.6,2.2C475.8,240.4,475,239.6,474.4,238.6z"/>
			<path class="st8" d="M429.8,491.5c-0.9,0.9-2,1.6-3.4,1.7C427.4,492.5,428.6,491.9,429.8,491.5z"/>
			<path class="st8" d="M342.2,229.7c0.9-1,2.1-1.5,3.4-1.7C344.6,228.8,343.5,229.3,342.2,229.7z"/>
			<path class="st8" d="M476.5,455.1c-0.5,1-1.4,1.7-2.2,2.4C474.6,456.2,475.5,455.6,476.5,455.1z"/>
			<path class="st8" d="M486.8,442.1c-0.3,1.1-1,1.9-1.9,2.6C485.2,443.7,485.9,442.8,486.8,442.1z"/>
			<path class="st8" d="M450.6,478.6c-0.6,1-1.5,1.6-2.6,1.9C448.7,479.7,449.6,479,450.6,478.6z"/>
			<path class="st8" d="M457.1,473.6c-0.5,1-1.3,1.6-2.4,1.9C455.3,474.6,456.1,474,457.1,473.6z"/>
			<path class="st8" d="M254.5,350.1c0-1.3,0.1-2.6,0.7-3.9C255.2,347.6,254.9,348.8,254.5,350.1z"/>
			<path class="st8" d="M315.4,247.2c0.7-0.8,1.4-1.5,2.4-1.9C317.2,246.2,316.5,247,315.4,247.2z"/>
			<path class="st8" d="M282.8,282.5c0.3-1,0.9-1.8,1.7-2.4C284.3,281.1,283.7,281.9,282.8,282.5z"/>
			<path class="st8" d="M377.2,506.6c-1.4,0.5-2.8,0.2-4.3,0.2C374.4,506.5,375.8,506.6,377.2,506.6z"/>
			<path class="st8" d="M348,505.2c-1.3,0.1-2.5-0.2-3.6-0.7C345.6,504.6,346.9,504.5,348,505.2z"/>
			<path class="st8" d="M338.4,231.6c0.8-0.8,1.9-1.1,2.9-1.4C340.5,231,339.5,231.4,338.4,231.6z"/>
			<path class="st8" d="M454.7,475.5c-0.4,0.9-1.2,1.4-2.2,1.7C453.1,476.4,453.8,475.8,454.7,475.5z"/>
			<path class="st8" d="M478.2,453.2c-0.4,0.8-1,1.4-1.7,1.9C476.6,454.1,477.3,453.5,478.2,453.2z"/>
			<path class="st8" d="M271.3,452.5c-0.7-0.7-1.1-1.5-1.4-2.4C270.7,450.6,271.2,451.4,271.3,452.5z"/>
			<path class="st8" d="M274.4,295.9c0.2-1,0.5-1.8,1.4-2.4C275.5,294.4,275.1,295.2,274.4,295.9z"/>
			<path class="st8" d="M293.6,479.1c-0.7-0.4-1.4-0.9-1.7-1.7C292.7,477.7,293.3,478.2,293.6,479.1z"/>
			<path class="st8" d="M503.9,273.8c0.6,0.7,1,1.5,1.2,2.4C504.3,275.6,504,274.8,503.9,273.8z"/>
			<path class="st8" d="M268.9,448.4c-0.6-0.7-1.1-1.5-1.2-2.4C268.4,446.6,268.8,447.4,268.9,448.4z"/>
			<path class="st8" d="M435.8,488.4c-0.6,0.7-1.4,0.9-2.2,1.2C434.1,488.7,434.9,488.6,435.8,488.4z"/>
			<path class="st8" d="M273.2,298c0.1-0.9,0.5-1.6,1.2-2.2C274.2,296.7,273.9,297.5,273.2,298z"/>
			<path class="st8" d="M271.8,300.7c0.2-0.9,0.4-1.7,1.2-2.2C272.7,299.3,272.5,300.1,271.8,300.7z"/>
			<path class="st8" d="M311.1,250.8c0.5-0.6,1-1.2,1.7-1.4C312.5,250.2,312,250.8,311.1,250.8z"/>
			<path class="st8" d="M420.7,495.9c-0.6,0.5-1.3,1-2.2,1C419,496.1,419.8,495.9,420.7,495.9z"/>
			<path class="st8" d="M425.7,216.3c1.2,0,2.3,0.2,3.4,0.7C427.9,217,426.8,216.7,425.7,216.3z"/>
			<path class="st8" d="M336.5,232.8c0.4-0.8,1.2-0.9,1.9-1.2C338.1,232.5,337.2,232.5,336.5,232.8z"/>
			<path class="st8" d="M280.9,465.9c-0.5-0.5-1.2-0.9-1.2-1.7C280.3,464.6,280.9,465,280.9,465.9z"/>
			<path class="st8" d="M433.6,489.6c-0.5,0.6-1.2,0.8-1.9,1C432.2,489.9,432.8,489.7,433.6,489.6z"/>
			<path class="st8" d="M316.4,494.7c-0.7-0.1-1.3-0.4-1.7-1C315.4,493.8,316.1,493.9,316.4,494.7z"/>
			<path class="st8" d="M312.8,249.4c0.4-0.5,0.8-1,1.4-1.2C314,248.9,313.6,249.4,312.8,249.4z"/>
			<path class="st8" d="M456.6,227.1c0.7,0,1.4,0.2,1.7,1C457.7,227.9,457,227.7,456.6,227.1z"/>
			<path class="st8" d="M269.9,450.1c-0.6-0.4-0.7-1.1-1-1.7C269.7,448.7,269.8,449.4,269.9,450.1z"/>
			<path class="st8" d="M499.1,423c0,0.7-0.3,1.3-1,1.7C498.3,424,498.4,423.4,499.1,423z"/>
			<path class="st8" d="M500.5,420.3c0,0.7-0.3,1.3-1,1.7C499.7,421.4,499.9,420.7,500.5,420.3z"/>
			<path class="st8" d="M309.9,252c0.2-0.6,0.6-1,1.2-1.2C311,251.5,310.5,251.9,309.9,252z"/>
			<path class="st8" d="M313.2,493c-0.6-0.1-1.2-0.3-1.4-1C312.4,492.2,313.1,492.2,313.2,493z"/>
			<path class="st8" d="M296.9,264.7c0.2-0.6,0.6-1,1.2-1.2C298,264.2,297.6,264.6,296.9,264.7z"/>
			<path class="st8" d="M272.2,453.9c-0.5-0.3-0.8-0.9-1-1.4C272,452.7,272.2,453.2,272.2,453.9z"/>
			<path class="st8" d="M517.5,372.1c0,0.8,0,1.5-0.5,2.2C517,373.5,517,372.8,517.5,372.1z"/>
			<path class="st8" d="M285.9,471.6c-0.5-0.2-0.8-0.7-1-1.2C285.6,470.6,285.9,471,285.9,471.6z"/>
			<path class="st8" d="M323.1,241.5c0.1-0.7,0.7-0.8,1.2-1C324.1,241.1,323.6,241.3,323.1,241.5z"/>
			<path class="st8" d="M314.2,248.2c0.3-0.4,0.7-0.8,1.2-1C315.3,247.9,314.9,248.2,314.2,248.2z"/>
			<path class="st8" d="M508.6,283.6c0.5,0.4,0.7,1.1,0.7,1.7C508.7,284.9,508.7,284.3,508.6,283.6z"/>
			<path class="st8" d="M275.8,459.2c-0.6-0.2-0.8-0.7-1-1.2C275.6,458.1,275.7,458.6,275.8,459.2z"/>
			<path class="st8" d="M505.1,276.2c0.5,0.4,0.7,0.9,0.7,1.4C505.2,277.3,505.1,276.8,505.1,276.2z"/>
			<path class="st8" d="M324.3,240.5c0.3-0.4,0.6-0.7,1.2-0.7C325.2,240.3,324.9,240.6,324.3,240.5z"/>
			<path class="st8" d="M441.3,485.1c-0.3,0.4-0.7,0.7-1.2,0.7C440.3,485.3,440.7,485,441.3,485.1z"/>
			<path class="st8" d="M277.3,461.1c-0.5-0.1-0.7-0.5-0.7-1C277,460.3,277.2,460.6,277.3,461.1z"/>
			<path class="st8" d="M418.5,496.8c-0.3,0.5-0.7,0.5-1.2,0.5C417.5,496.8,418,496.8,418.5,496.8z"/>
			<path class="st8" d="M276.6,460.1c-0.5-0.1-0.7-0.5-0.7-1C276.2,459.4,276.5,459.7,276.6,460.1z"/>
			<path class="st8" d="M278,462.1c-0.5-0.1-0.7-0.5-0.7-1C277.7,461.3,278,461.6,278,462.1z"/>
			<path class="st8" d="M278.7,463c-0.5-0.1-0.7-0.5-0.7-1C278.4,462.3,278.7,462.5,278.7,463z"/>
			<path class="st8" d="M451.6,477.9c-0.1,0.5-0.5,0.7-1,0.7C450.8,478.2,451.1,477.9,451.6,477.9z"/>
			<path class="st8" d="M452.6,477.2c-0.1,0.5-0.5,0.7-1,0.7C451.8,477.5,452.1,477.2,452.6,477.2z"/>
			<path class="st8" d="M421.9,495.4c-0.3,0.5-0.7,0.5-1.2,0.5C421,495.5,421.4,495.4,421.9,495.4z"/>
			<path class="st8" d="M279.7,464.2c-0.4-0.1-0.7-0.3-0.7-0.7C279.4,463.5,279.6,463.8,279.7,464.2z"/>
			<path class="st8" d="M431.7,490.6c-0.2,0.4-0.6,0.5-1,0.5C430.8,490.5,431.3,490.6,431.7,490.6z"/>
			<path class="st8" d="M349.5,505.5c-0.5,0-1,0.1-1.5-0.3C348.5,505.3,349.1,505,349.5,505.5z"/>
			<path class="st8" d="M424.2,216c0.5,0.1,1-0.2,1.5,0.2C425.2,216.2,424.7,216.5,424.2,216z"/>
			<path class="st8" d="M518,369.2c0,0.5,0.2,1.1-0.2,1.5C517.8,370.2,517.6,369.7,518,369.2z"/>
			<path class="st8" d="M505.8,277.7c0.4,0.2,0.5,0.6,0.5,1C505.8,278.4,505.7,278.1,505.8,277.7z"/>
			<path class="st8" d="M291.7,477.2c-0.4,0-0.6-0.2-0.7-0.5C291.3,476.7,291.6,476.7,291.7,477.2z"/>
			<path class="st8" d="M298.1,263.5c0-0.4,0.2-0.6,0.5-0.7C298.6,263.1,298.6,263.5,298.1,263.5z"/>
			<path class="st8" d="M326.7,238.8c0.2-0.3,0.4-0.4,0.7-0.5C327.4,238.8,327,238.8,326.7,238.8z"/>
			<path class="st8" d="M517.8,370.9c0,0.4,0.1,0.9-0.2,1.2C517.6,371.7,517.4,371.3,517.8,370.9z"/>
			<path class="st8" d="M325.5,239.8c0.1-0.4,0.4-0.5,0.7-0.5C326.1,239.6,325.8,239.8,325.5,239.8z"/>
			<path class="st8" d="M448,480.5c0,0.3-0.2,0.4-0.5,0.5C447.5,480.7,447.7,480.5,448,480.5z"/>
			<path class="st8" d="M326.2,239.3c0-0.3,0.2-0.4,0.5-0.5C326.7,239.1,326.5,239.3,326.2,239.3z"/>
			<path class="st8" d="M298.6,262.8c0.2-0.2,0.3-0.3,0.5-0.5C299.1,262.6,298.9,262.8,298.6,262.8z"/>
			<path class="st8" d="M314,493.2c-0.3,0-0.5,0-0.7-0.2C313.5,493,313.8,492.9,314,493.2z"/>
			<path class="st8" d="M498.1,424.6c0,0.3,0,0.5-0.2,0.7C497.8,425.1,497.8,424.8,498.1,424.6z"/>
			<path class="st8" d="M317.1,494.9c-0.3,0-0.5,0-0.7-0.2C316.6,494.6,316.9,494.6,317.1,494.9z"/>
			<path class="st8" d="M458.8,228.3c0.3,0,0.5,0,0.7,0.2C459.2,228.5,459,228.5,458.8,228.3z"/>
			<path class="st8" d="M273,298.5c0-0.2,0-0.4,0.2-0.5C273.2,298.2,273.2,298.4,273,298.5z"/>
			<path class="st8" d="M267.7,446c-0.2-0.1-0.3-0.3-0.2-0.5C267.6,445.6,267.7,445.8,267.7,446z"/>
			<path class="st8" d="M269.1,306c0-0.2,0-0.4,0.2-0.5C269.4,305.7,269.3,305.8,269.1,306z"/>
			<path class="st8" d="M341.8,229.9c0.1-0.2,0.3-0.3,0.5-0.2C342.1,229.9,342,229.9,341.8,229.9z"/>
			<path class="st8" d="M489.2,438.8c0,0.2-0.1,0.4-0.2,0.5C489,439.1,489,438.9,489.2,438.8z"/>
			<path class="st8" d="M269.6,305c0-0.2,0-0.4,0.2-0.5C269.9,304.7,269.8,304.9,269.6,305z"/>
			<path class="st8" d="M271.5,301.2c0-0.2,0-0.4,0.2-0.5C271.8,300.9,271.7,301.1,271.5,301.2z"/>
			<path class="st8" d="M268.9,306.4c0-0.2,0-0.4,0.2-0.5C269.1,306.1,269.1,306.3,268.9,306.4z"/>
			<path class="st8" d="M458.3,228c0.2,0,0.4,0,0.5,0.2C458.6,228.3,458.4,228.2,458.3,228z"/>
			<path class="st8" d="M268.6,306.9c0-0.2,0-0.4,0.2-0.5C268.9,306.6,268.8,306.8,268.6,306.9z"/>
			<path class="st8" d="M268.4,307.4c0-0.2,0-0.4,0.2-0.5C268.7,307.1,268.6,307.3,268.4,307.4z"/>
			<path class="st8" d="M282.6,282.9c0-0.2,0.1-0.4,0.2-0.5C282.8,282.7,282.7,282.8,282.6,282.9z"/>
			<path class="st8" d="M499.3,422.5c0,0.2,0,0.4-0.2,0.5C499.1,422.8,499.1,422.6,499.3,422.5z"/>
			<path class="st8" d="M499.5,422c0,0.2,0,0.4-0.2,0.5C499.3,422.3,499.4,422.1,499.5,422z"/>
			<path class="st8" d="M269.4,305.5c0-0.2,0-0.4,0.2-0.5C269.6,305.2,269.6,305.4,269.4,305.5z"/>
			<path class="st8" d="M271.3,301.6c0-0.2,0-0.4,0.2-0.5C271.5,301.4,271.5,301.5,271.3,301.6z"/>
			<path class="st8" d="M268.2,307.9c0-0.2,0-0.4,0.2-0.5C268.4,307.6,268.4,307.8,268.2,307.9z"/>
			<path class="st8" d="M500.7,419.8c0,0.2,0,0.4-0.2,0.5C500.5,420.1,500.6,420,500.7,419.8z"/>
			<path class="st8" d="M269.8,304.5c0-0.2,0-0.4,0.2-0.5C270.1,304.2,270,304.4,269.8,304.5z"/>
			<path class="st8" d="M317.6,495.1c-0.2,0-0.4,0-0.5-0.2C317.3,494.9,317.5,495,317.6,495.1z"/>
			<path class="st8" d="M345.6,228c0.1-0.2,0.3-0.3,0.5-0.2C346,228,345.8,228,345.6,228z"/>
			<path class="st8" d="M279,463.5c-0.2-0.1-0.3-0.3-0.2-0.5C278.9,463.1,279,463.3,279,463.5z"/>
			<path class="st8" d="M501,419.4c0,0.2,0,0.4-0.2,0.5C500.7,419.6,500.8,419.5,501,419.4z"/>
			<path class="st8" d="M317.8,245.3c0.1-0.2,0.3-0.3,0.5-0.2C318.2,245.2,318,245.3,317.8,245.3z"/>
			<path class="st8" d="M501.2,418.9c0,0.2,0,0.4-0.2,0.5C501,419.2,501,419,501.2,418.9z"/>
			<path class="st8" d="M270.1,304c0-0.2,0-0.4,0.2-0.5C270.3,303.8,270.3,303.9,270.1,304z"/>
			<path class="st8" d="M456.1,226.8c0.2,0,0.4,0,0.5,0.2C456.4,227.1,456.2,227,456.1,226.8z"/>
			<path class="st8" d="M501.5,418.4c0,0.2,0,0.4-0.2,0.5C501.2,418.7,501.3,418.5,501.5,418.4z"/>
			<path class="st8" d="M270.3,303.6c0-0.2,0-0.4,0.2-0.5C270.6,303.3,270.5,303.4,270.3,303.6z"/>
			<path class="st8" d="M314.4,493.5c-0.2,0-0.4,0-0.5-0.2C314.2,493.2,314.3,493.3,314.4,493.5z"/>
			<path class="st8" d="M455.7,226.6c0.2,0,0.4,0,0.5,0.2C455.9,226.8,455.8,226.8,455.7,226.6z"/>
			<path class="st8" d="M501.7,417.9c0,0.2,0,0.4-0.2,0.5C501.5,418.2,501.5,418,501.7,417.9z"/>
			<path class="st8" d="M270.6,303.1c0-0.2,0-0.4,0.2-0.5C270.8,302.8,270.8,303,270.6,303.1z"/>
			<path class="st8" d="M270.8,302.6c0-0.2,0-0.4,0.2-0.5C271.1,302.3,271,302.5,270.8,302.6z"/>
			<path class="st8" d="M271,302.1c0-0.2,0-0.4,0.2-0.5C271.3,301.8,271.2,302,271,302.1z"/>
			<path class="st8" d="M501.9,417.4c0,0.2,0,0.4-0.2,0.5C501.7,417.7,501.8,417.6,501.9,417.4z"/>
			<path class="st8" d="M341.3,230.2c0.1-0.2,0.3-0.3,0.5-0.2C341.7,230.1,341.5,230.2,341.3,230.2z"/>
			<path class="st8" d="M502.2,417c0,0.2,0,0.4-0.2,0.5C501.9,417.3,502,417.1,502.2,417z"/>
			<path class="st8" d="M430.3,491.3c-0.1,0.2-0.3,0.3-0.5,0.2C429.9,491.4,430.1,491.3,430.3,491.3z"/>
			<path class="st8" d="M502.4,416.5c0,0.2,0,0.4-0.2,0.5C502.2,416.8,502.2,416.6,502.4,416.5z"/>
			<path class="st8" d="M430.7,491.1c-0.1,0.2-0.3,0.3-0.5,0.2C430.4,491.1,430.5,491.1,430.7,491.1z"/>
			<path class="st8" d="M455.2,226.3c0.2,0,0.4,0,0.5,0.2C455.5,226.6,455.3,226.5,455.2,226.3z"/>
			<path class="st8" d="M502.7,416c0,0.2,0,0.4-0.2,0.5C502.4,416.3,502.5,416.1,502.7,416z"/>
			<path class="st8" d="M454.7,226.1c0.2,0,0.4,0,0.5,0.2C455,226.3,454.8,226.3,454.7,226.1z"/>
			<path class="st8" d="M503.6,414.1c0,0.2,0,0.4-0.2,0.5C503.4,414.4,503.4,414.2,503.6,414.1z"/>
			<path class="st8" d="M454.2,225.9c0.2,0,0.4,0,0.5,0.2C454.5,226.1,454.3,226,454.2,225.9z"/>
			<path class="st8" d="M502.9,415.5c0,0.2,0,0.4-0.2,0.5C502.7,415.8,502.7,415.6,502.9,415.5z"/>
			<path class="st8" d="M453.7,225.6c0.2,0,0.4,0,0.5,0.2C454,225.9,453.9,225.8,453.7,225.6z"/>
			<path class="st8" d="M503.1,415c0,0.2,0,0.4-0.2,0.5C502.9,415.3,503,415.2,503.1,415z"/>
			<path class="st8" d="M503.4,414.6c0,0.2,0,0.4-0.2,0.5C503.1,414.9,503.2,414.7,503.4,414.6z"/>
			<path class="st8" d="M441.5,484.8c-0.1,0.1-0.2,0.2-0.2,0.2C441.4,485,441.4,484.9,441.5,484.8z"/>
			<path class="st8" d="M296.7,265c0.1-0.1,0.2-0.2,0.2-0.2C296.9,264.8,296.8,264.9,296.7,265z"/>
			<path class="st8" d="M296.5,265.2c0.1-0.1,0.2-0.2,0.2-0.2C296.6,265,296.5,265.1,296.5,265.2z"/>
			<path class="st8" d="M291,476.7c-0.1-0.1-0.2-0.2-0.3-0.3C290.8,476.5,290.9,476.6,291,476.7z"/>
			<path class="st8" d="M290.7,476.4c-0.1-0.1-0.2-0.2-0.3-0.3C290.5,476.3,290.6,476.4,290.7,476.4z"/>
			<path class="st8" d="M296.2,265.4c0.1-0.1,0.2-0.2,0.2-0.3C296.4,265.3,296.3,265.4,296.2,265.4z"/>
			<path class="st8" d="M286.4,472.1c-0.1-0.1-0.2-0.2-0.3-0.3C286.2,472,286.3,472,286.4,472.1z"/>
			<path class="st8" d="M299.1,262.3c0.1-0.1,0.2-0.2,0.3-0.3C299.3,262.2,299.2,262.2,299.1,262.3z"/>
			<path class="st8" d="M314.7,493.7c-0.1-0.1-0.2-0.2-0.2-0.2C314.5,493.5,314.6,493.6,314.7,493.7z"/>
			<path class="st8" d="M286.2,471.9c-0.1-0.1-0.2-0.2-0.3-0.3C286,471.7,286.1,471.8,286.2,471.9z"/>
			<path class="st8" d="M465.3,466.6c-0.1,0.1-0.2,0.2-0.3,0.3C465.1,466.8,465.2,466.7,465.3,466.6z"/>
			<path class="st8" d="M469.6,462.3c-0.1,0.1-0.2,0.2-0.2,0.2C469.4,462.4,469.5,462.4,469.6,462.3z"/>
			<path class="st8" d="M469.8,462c-0.1,0.1-0.2,0.2-0.2,0.2C469.6,462.2,469.7,462.1,469.8,462z"/>
			<path class="st8" d="M470.1,461.8c-0.1,0.1-0.2,0.2-0.2,0.2C469.9,462,470,461.9,470.1,461.8z"/>
			<path class="st8" d="M306,255.4c0.1-0.1,0.2-0.2,0.3-0.3C306.2,255.2,306.1,255.3,306,255.4z"/>
			<path class="st8" d="M474.4,457.5c-0.1,0.1-0.2,0.2-0.3,0.3C474.2,457.7,474.3,457.6,474.4,457.5z"/>
			<path class="st8" d="M477,240.7c0.1,0.1,0.2,0.2,0.3,0.3C477.2,240.9,477.1,240.8,477,240.7z"/>
			<path class="st8" d="M485.6,248.9c0.1,0.1,0.2,0.2,0.3,0.3C485.8,249,485.7,249,485.6,248.9z"/>
			<path class="st8" d="M272.5,454.3c-0.1-0.1-0.2-0.2-0.2-0.4C272.3,454,272.4,454.1,272.5,454.3z"/>
			<path class="st8" d="M276.4,292.5c0.1-0.1,0.1-0.1,0.2-0.2C276.5,292.4,276.4,292.4,276.4,292.5z"/>
			<path class="st8" d="M291.9,477.4c-0.1-0.1-0.2-0.2-0.2-0.2C291.7,477.2,291.8,477.3,291.9,477.4z"/>
		</g>
	</g>
</g>
<g class="st9">
	<g>
		<g>
			<path class="st10" d="M453.7,264.3c3.4,1.6,5.1,4.6,6,8.1c1.8,7,1.8,14.2,0.9,21.3c-0.4,3-2.1,5.5-4.1,7.7c-0.4,0.5-1,0.8-1.6,1
				c-2.5,0.8-5,1.6-7.5,2.4c-2.4,0.8-4.9,0.8-7.3,1.2c-8.2,1.2-16.4,2.1-24.5,4.1c-0.7,0.2-1.5,0.4-2.2,0.7
				c-1.9,0.8-2.3,1.6-2.3,3.6c0,3.5,0.7,6.8,1.1,10.3c0.3,2.8,0.2,5.6-0.3,8.4c-0.7,4.1-0.1,8.1,0.6,12.2c0.8,4.5,1.9,8.8,2.4,13.3
				c0.3,3.1,0.3,6.1-0.3,9.2c-1,5.5-0.6,11.1-0.4,16.7c0.2,6.2,0.4,12.5,0.4,18.7c0,3.7-0.4,7.5,0.3,11.1c1.1,5.8,0.3,11.6,0.8,17.5
				c0.4,4.6,1.2,9.1,2.1,13.6c0.2,1.2,0.4,2.4,0.6,3.6c0,0.2,0.1,0.4,0,0.6c-1.2,3.5-0.6,7.1-1.3,10.7c-0.7,3.4-2.4,5.9-5.3,8
				c-2.7,2-5.6,2.9-8.8,3.2c-5.4,0.5-10.8,0.9-16.2,0.9c-1.3,0-2.6-0.2-3.8-0.3c-3.2-0.5-5.2-2.4-6.3-5.4c-1.2-3.3-1.7-6.8-2.1-10.3
				c0-0.1,0-0.2,0-0.4c-1.6-4.3-1.4-8.8-1.5-13.3c-0.1-3.9-0.6-7.8-1-11.7c-0.3-3.4-0.3-6.7-0.1-10.1c0.4-6.9,0.8-13.8,0.3-20.6
				c-0.5-6.8-0.4-13.5-0.3-20.3c0.2-11.4,0.6-22.9,0.4-34.3c-0.1-5.5-0.7-11-0.5-16.5c0-0.1,0-0.2,0-0.2c-0.9-2.3-1-4.5-0.2-6.8
				c0.4-1.1-0.2-1.6-1.6-1.6c-3.3-0.1-6.6,0.1-9.9,0.5c-4.9,0.5-9.6,1.8-14.4,2.6c-3.2,0.5-5.7-0.5-7.7-2.9c-2.4-3-3.6-6.4-4.1-10.2
				c-0.8-7.2-0.4-14.5-0.4-21.7c0-2.3,1.3-4.3,3-6c0.5-0.5,1.1-0.6,1.8-0.7c8-1.5,16.1-2.3,24.1-2.9c5.7-0.5,11.4-1.3,17-2.2
				c17-2.7,33.8-6.4,50.7-9.5c5.5-1,11-1.8,16.6-2.7c0.3,0,0.5-0.2,0.8-0.3C449.5,264.3,451.6,264.3,453.7,264.3z M340.3,297.9
				c0.4-0.2,0.6-0.5,0.6-0.9c0-0.3-0.2-0.5-0.5-0.5c-0.5,0.1-0.6,0.5-0.6,0.9C339.9,297.7,339.9,297.9,340.3,297.9z"/>
		</g>
	</g>
</g>
<path class="st11" d="M196.7,29.6c2.7,0,5.4,0,8.2,0c2.1,0.5,4.2,0.2,6.2,0.2c0.4,0,0.8,0,1.2,0c1.9,0.5,3.8,0.2,5.7,0.5
	c3.6-0.1,7.3,0.6,10.9,0.5c0.2,0,0.3,0,0.5,0c2.1,0.7,4.3,0.6,6.5,0.9c1.5,0.2,3.1,0,4.5,0.4c2.1,0.6,4.3,0.6,6.4,1.1
	c2.3,0.5,4.6,0.7,6.9,1.1c2.9,0.5,5.7,1,8.6,1.5c0.3,0.4,0.8,0.2,1.2,0.2l0,0c0.7,0.4,1.4,0.5,2.2,0.5c0.1,0.1,0.1,0.2,0.2,0.3
	c0.1,0,0.1,0,0.2,0l0.1,0l0.1,0l0.1,0c0.1,0,0.2,0,0.3,0c1.1,0.4,2.2,0.9,3.4,0.7l0,0c0.1,0.1-0.1,0.4,0.2,0.2
	c0.4-0.1,0.8-0.1,1.2,0c0.1,0.3,0.4,0.4,0.7,0.5c3.2,0.8,6.3,1.6,9.5,2.5c0.6,0.2,1.3,0.9,2.1,0.3c0.6,0.4,1.3,0.2,1.9,0.5
	c0.4,0.9,1.3,0.7,2,0.9c5.8,1.9,11.6,3.9,17.2,6.3c2.6,1.1,5.1,2.1,7.6,3.4c1.3,0.7,2.6,1.7,4.1,1.8l0,0c0.1,0.2,0.3,0.2,0.5,0.2
	l0,0c0.1,0.1,0.2,0.2,0.2,0.2l0,0c0.1,0.2,0.3,0.2,0.5,0.2l0,0c0.2,0.5,0.7,0.6,1.1,0.9c4.4,2.4,8.6,5.1,12.6,8.1
	c0.7,0.5,1.2,1.4,2.2,1.3l0,0c0.1,0.6,0.4,0.9,1,1l0,0c0,0.1-0.1,0.4,0.2,0.2c0.3,0.3,0.7,0.5,1,0.8c0.5,0.9,1,1.7,2.1,1.9l0,0
	c0.1,0.1,0.2,0.2,0.3,0.3c0,0,0,0,0,0c0.1,0.1,0.2,0.2,0.3,0.3c0,0,0,0,0,0c0.1,0.1,0.2,0.2,0.3,0.3c0,0,0,0,0,0
	c0.1,0.1,0.2,0.2,0.3,0.3c0,0,0,0,0,0c0.1,1,0.8,1.5,1.6,1.9c0.2,0.2,0.4,0.4,0.6,0.6c0,0.9,0.7,1.2,1.3,1.5c0.4,0.7,0.9,1.3,1.3,2
	c0,0.3,0.2,0.5,0.5,0.5l0,0c-0.1,0.4,0.2,0.7,0.4,1.1c1.8,2.8,3,5.9,3.7,9.1c0.4,1.9,0.7,3.8,0.5,5.7c-0.1,0.8-0.5,1.7-0.1,2.6
	c0,0.2,0,0.5,0,0.7c-0.8,0.4-0.5,1.2-0.8,1.8c-0.7,1.7-1.4,3.4-2.1,5.1c0,0,0,0,0,0c-0.2,0.1-0.2,0.3-0.2,0.5l0,0
	c-0.8,0.6-1.3,1.4-1.7,2.4c0,0.1,0,0.2-0.1,0.3c-0.5,0.2-0.9,0.4-0.9,1.1l-0.1,0.1c-0.1,0.1-0.1,0.1-0.2,0.2l0,0
	c-0.1,0.1-0.1,0.2-0.2,0.2l0,0c-0.6,0.1-0.8,0.4-0.7,1l0,0c-0.1,0.1-0.2,0.2-0.3,0.3c0,0,0,0,0,0c-1,0.4-1.7,1.2-2.2,2.2l0,0
	c-0.9,0.1-1.4,0.6-1.7,1.4c-0.6,0.5-1.3,1.1-1.9,1.6c-1.9,1.3-3.7,2.8-5.8,3.8c-0.1,0.1-0.1,0.2-0.2,0.2l0,0c-0.2,0-0.4,0.1-0.5,0.3
	c0,0,0,0,0,0c-2.4,1.2-4.9,2.3-7.3,3.6c-0.7,0.4-1.7,0.3-2.1,1.2c-0.1,0-0.2,0-0.3,0c-0.3,0.1-0.6,0.1-0.9,0.3
	c-2.1,0.8-4.2,1.6-6.4,2.4c-3.1,1.2-6.4,2-9.6,3c-3.1,0.9-6.3,1.6-9.5,2.4c-0.7,0.2-1.6-0.1-2.1,0.8c-0.2,0-0.4,0-0.6,0.1
	c-0.8,0-1.7,0-2.5,0.1c-5.1,0.9-10.2,1.7-15.3,2.3c-0.9,0.1-2-0.2-2.7,0.6c-1,0-2.1-0.2-3,0.1c-2.3,0.8-4.7,0.1-6.9,0.6
	c-1.3,0-2.6-0.2-3.8,0.3c-0.1,0-0.3,0-0.4,0c-0.1-0.1-0.2-0.2-0.3-0.2c-2.9,0.1-5.8,0.3-8.7,0.4c-4.1,0.1-8.2,0-12.3,0
	c-0.4,0-0.9-0.1-1.3,0.2c-0.3-0.1-0.7-0.2-1-0.2c-0.2-0.2-0.5-0.2-0.8-0.2c-1.9,0-3.8-0.1-5.7-0.2c-1.6-0.1-3.1-0.5-4.7,0
	c-2.5,0-5-0.3-7.6-0.5c0-0.3-0.2-0.4-0.5-0.4c-1.1-0.1-2.3-0.2-3.4-0.2c-0.7,0-1.5-0.5-2.2,0c-0.3,0-0.7,0-1,0
	c-0.1-0.6-0.6-0.4-1-0.4c-1.1-0.1-2.1-0.2-3.2-0.4c-0.4-0.1-0.8-0.2-1.1,0.1c-0.2,0-0.5,0-0.7,0c-0.4-0.7-1.1-0.5-1.7-0.6
	c-1.3-0.1-2.6-0.7-4-0.4c-2.8-0.3-5.6-0.8-8.5-1.3c-3.5-0.6-7-1.3-10.5-2c-0.9-1-2.3-0.6-3.3-1.2c-0.4-0.2-0.8-0.2-1.2,0
	c-0.2,0-0.3,0-0.5,0c-0.1-0.6-0.6-0.6-1.1-0.7c-2.8-0.7-5.6-1.5-8.4-2.1c-0.6-0.1-1.1-0.9-1.7-0.3c-0.7,0.1-1.3-0.4-2-0.5
	c-0.1-0.1-0.1-0.3-0.2-0.4c-2.6-0.9-5.4-1.5-8-2.6c-0.1,0-0.3,0.1-0.4,0.2c-0.3-0.1-0.7-0.2-1-0.3c-0.8-0.9-1.9-1.1-3.1-1.1
	c-0.8-0.3-1.6-0.7-2.4-1c0-0.4-0.3-0.4-0.6-0.5c-2.6-0.9-5-2.1-7.6-3.1c-1.3-0.6-2.5-1.5-4.1-1.6l0,0c-0.1-0.2-0.3-0.2-0.5-0.2l0,0
	c-0.1-0.2-0.3-0.2-0.5-0.2l0,0c-0.1-0.2-0.3-0.2-0.5-0.2l0,0c-0.1-0.2-0.3-0.2-0.5-0.2l0,0c-0.2-0.3-0.5-0.3-0.7-0.2l0,0
	c-0.1-0.1-0.2-0.2-0.3-0.2l0,0c-0.1-0.2-0.3-0.2-0.5-0.2l0,0c-0.1-0.2-0.3-0.2-0.5-0.2l0,0c-0.1-0.2-0.3-0.2-0.5-0.2l0,0
	c-0.7-0.8-1.6-1.2-2.6-1.4l0,0c-0.1-0.2-0.3-0.2-0.5-0.2l0,0c-1.3-1-2.6-1.9-4.1-2.4l0,0c-1-1.2-2.5-1.7-3.7-2.6
	c-0.5-0.3-0.9-0.8-1.6-0.7l0,0c-0.1-0.7-0.7-0.9-1.3-1c-0.2-0.1-0.3-0.2-0.5-0.3c-0.7-1-1.7-1.8-2.8-2.3c-3-2.2-5.6-4.7-7.9-7.6
	c-1.3-1.6-2.7-3.2-3.6-5.1c-1.4-2.7-2.6-5.4-3.4-8.3c-0.1-0.2-0.3-0.3-0.5-0.3c0-3.2,0-6.4,0-9.6c0.3-0.2,0.5-0.4,0.5-0.7
	c0.5-1.5,1.4-2.9,1.7-4.6l0,0c0.9-1.3,1.9-2.5,2.4-4.1l0,0c0.3,0,0.5-0.1,0.6-0.3c1.1-1.6,2.5-3,3.9-4.3c0.2-0.2,0.5-0.4,0.5-0.8
	c0.3-0.2,0.5-0.4,0.8-0.6c0.7-0.1,0.9-0.6,1.1-1.1c0.2-0.1,0.3-0.2,0.5-0.3c0.6,0.2,0.6-0.3,0.7-0.6c0,0,0.1-0.1,0.1-0.1
	c0.1-0.1,0.2-0.2,0.3-0.4c0.9-0.6,1.8-1.2,2.7-1.7c1.1-0.7,2.3-1.3,3.4-2c0.8-0.6,1.9-0.7,2.5-1.6l0,0c0.2,0,0.4-0.1,0.5-0.2l0,0
	c1.5-0.4,2.8-1.2,4.2-1.9c5-2.3,10-4.2,15.2-5.7c0.9-0.3,1.9-0.4,2.6-1l0,0c2.7-0.4,5.3-1.2,7.9-1.9c0.1-0.1,0.2-0.2,0.3-0.3
	c1.1,0.2,2.2-0.3,3.3-0.5c2.7-0.5,5.4-0.9,8-1.7c0.6-0.2,1.3-0.3,2-0.2c0.5-0.2,1,0,1.5-0.1c2-0.4,4.1-0.5,6.1-0.9
	c2.1-0.3,4.3-0.4,6.4-0.9c3.5-0.3,6.9-0.8,10.4-0.8c0.2,0,0.4-0.1,0.5-0.2c0.2,0.1,0.4,0.3,0.6,0c0.2,0,0.3,0,0.5,0
	c1.5,0,2.9,0.2,4.3-0.2c0.3,0,0.6,0,0.9,0c0.7,0.3,1.5,0.1,2.2,0C194,29.8,195.3,30.1,196.7,29.6z"/>
</svg>
