<?xml version="1.0" encoding="UTF-8"?>
<svg xmlns="http://www.w3.org/2000/svg" version="1.1" viewBox="0 0 200 200">
  <!-- Generator: Adobe Illustrator 28.7.1, SVG Export Plug-In . SVG Version: 1.2.0 Build 142)  -->
  <g>
    <g id="Calque_3">
      <g id="loupe">
        <g id="Loupe">
          <path class="cls-1" d="M193.78,96.35c-1.6,5.5-3.84,10.74-6.7,15.71-5.22,9.08-12.07,16.72-20.52,22.89-6.26,4.57-13.07,8.05-20.46,10.44-4.7,1.52-9.5,2.58-14.39,3.16-6.51.77-13,.6-19.49-.42-5.99-.94-11.77-2.56-17.35-4.91-5.39-2.28-10.44-5.17-15.13-8.68-1.64-1.23-1.67-1.19-3.09.23-11.77,11.77-23.53,23.52-35.3,35.29-7.61,7.61-15.22,15.22-22.82,22.84-2.01,2.02-4.36,3.29-7.25,2.81-3.61-.6-6.12-2.82-7.45-6.15-1.41-3.51-.21-6.5,2.36-9.08,19.3-19.29,38.59-38.58,57.88-57.88,1.86-1.86,1.77-1.43.23-3.53-7.58-10.33-12.14-21.87-13.74-34.56-1.19-9.45-.44-18.78,2.04-28,2.04-7.58,5.16-14.66,9.51-21.17,8.07-12.09,18.72-21.13,32.08-26.98,8.21-3.59,16.81-5.54,25.71-5.99,10.58-.54,20.82,1.26,30.66,5.14,6.91,2.72,13.27,6.45,19,11.18,12.09,9.95,20.35,22.4,24.53,37.54,1.76,6.37,2.57,12.84,2.68,18.59-.03,7.87-1.02,14.78-2.99,21.53ZM135.05,84.65c-6.5,6.35-16.89,6.39-23.46.11-6.09-5.83-7.87-17.3,1.18-25.29-1-.29-1.84.2-2.63.43-9.45,2.81-17.41,7.92-23.73,15.53-.64.77-.59,1.28.02,2.03,5.4,6.54,12.07,11.28,19.99,14.29,7.59,2.88,15.43,3.77,23.42,2.61,12.28-1.78,22.46-7.46,30.4-17.07.56-.68.42-1.17-.06-1.76-3.48-4.25-7.57-7.78-12.27-10.62-3.51-2.12-7.25-3.73-11.17-4.93-.94-.29-1.91-.43-2.87-.65,8.71,7.84,7.32,19.31,1.18,25.31Z"/>
        </g>
      </g>
    </g>
  </g>
</svg>