<?xml version="1.0" encoding="UTF-8" standalone="no"?>
<!-- Created with Inkscape (http://www.inkscape.org/) -->

<svg
   viewBox="0 0 28 28"
   version="1.1"
   id="svg1"
   xmlns="http://www.w3.org/2000/svg"
   xmlns:svg="http://www.w3.org/2000/svg">
  <defs
     id="defs1" />
  <g
     id="layer1">
    <path
       class="st4"
       d="m 1.5705863,18.12396 v 0 c -0.0794,-0.70908 -0.14817,-1.33085 -0.14817,-1.94204 v -0.0609 l -0.005,-0.0609 c -0.0847,-0.91281 -0.10318,-1.21179 -0.0873,-1.40494 v 0 c 0.008,-0.0873 0.0106,-0.13494 0.20902,-0.56356 l 0.0291,-0.0635 0.0212,-0.0662 c 0.254,-0.7567 0.72761,-2.26218 1.651,-6.62252 3.85234,-0.90487 5.41867,-1.37054 6.16215,-1.6166 l 0.0397,-0.0132 0.037,-0.0159 c 0.37041,-0.14816 0.48418,-0.17727 0.5900197,-0.19314 0.14552,-0.0212 0.32544,-0.0238 0.87048,-0.0238 1.27264,0 2.55323,0.0741 3.79677,0.15081 0.60589,0.0556 1.20385,0.15081 1.91823,0.26458 0.21696,0.0344 0.4445,0.0714 0.68791,0.10848 0.80963,0.15346 1.64307,0.33073 2.35744,0.59002 0.75671,0.27517 1.14036,0.55827 1.29117,0.78052 0.0952,0.14552 0.20902,0.41804 0.29898,0.87048 0.0873,0.42598 0.14023,0.9234 0.17727,1.46579 V 9.8953 9.9561 l 0.005,0.0609 c 0.0344,0.39158 0.0529,0.78845 0.0741,1.21973 v 0.0132 c 0.0185,0.39953 0.037,0.8308 0.0767,1.26471 0.003,0.51329 0.0185,1.08744 0.037,1.67217 0.003,0.0423 0.003,0.0873 0.005,0.12965 0.0185,0.65087 0.037,1.32027 0.037,1.98702 -0.0132,0.32279 -0.0265,0.64823 -0.0397,0.97102 -0.0529,1.45256 -0.10848,2.91041 -0.40481,4.3815 l -0.005,0.0317 -0.005,0.0318 c -0.14552,0.9525 -0.41275,1.87589 -0.86518,2.43946 -0.39952,0.43391 -0.98955,0.72231 -1.5928,0.92339 l -0.0291,0.0106 -0.0265,0.0106 c -1.50812,0.5715 -3.18823,0.94191 -5.32077,1.24354 -0.59267,0.0741 -1.25677,0.14817 -2.06904,0.22225 -0.35719,0.003 -0.72496,0.0212 -1.06627,0.037 l -0.0423,0.003 c -0.3836497,0.0185 -0.7408397,0.037 -1.0900897,0.037 h -0.62177 c -1.20121,0 -2.40771,-0.0767 -3.48192,-0.30163 -1.0795,-0.22754 -1.9341,-0.58737 -2.52147,-1.08479 -0.66675,-0.57679 -0.70644,-1.15094 -0.70644,-2.33098 0,-0.39687 -0.0238,-0.74612 -0.0423,-1.0451 v -0.008 c -0.0212,-0.30427 -0.037,-0.55033 -0.037,-0.80698 0,-0.98689 -0.082,-1.96321 -0.15875,-2.87602 l -0.003,-0.0265 v 0 0 l -0.003,-0.0185 -0.003,-0.0185 z"
       id="path13"
       style="fill:#fff0e3;stroke:#000000;stroke-width:2.64583" />
    <path
       class="st7"
       d="m 26.354106,0 -1.00806,0.68792 c -5.27315,3.60627 -10.67065,11.06752 -13.3641,17.13706 -0.4154,-0.58208 -0.5424,-0.77523 -0.94457,-1.42081 C 9.3916663,14.17902 7.3014663,12.27138 6.3119163,11.56758 l -1.54781,0.64559 0.0476,0.0926 c 1.06891,1.16946 2.94481,3.76502 5.7732097,9.48267 0.17197,0.24606 0.35718,0.48948 0.56885,0.71702 0.55298,0.59002 1.11919,0.71702 1.49754,0.71702 0.003,0 0.003,0 0.003,0 1.0795,0 1.7145,-0.85196 2.15371,-1.84679 2.83104,-10.50396 9.5197,-17.73502 12.41425,-20.21152 z"
       id="path15"
       style="fill:#fc4503;stroke-width:0.264583" />
  </g>
</svg>
