<?xml version="1.0" encoding="UTF-8" standalone="no"?>
<!-- Created with Inkscape (http://www.inkscape.org/) -->

<svg
   viewBox="0 0 24 24"
   version="1.1"
   id="svg1"
   xmlns="http://www.w3.org/2000/svg"
   xmlns:svg="http://www.w3.org/2000/svg">
  <defs
     id="defs1" />
  <g
     id="layer1">
    <path
       class="st4"
       d="m 21.454685,13.967427 v 0 c 0.0794,-0.709083 0.14817,-1.330854 0.14817,-1.939396 v -0.06085 l 0.005,-0.06085 c 0.0847,-0.912813 0.10318,-1.211792 0.0873,-1.404938 v 0 c -0.008,-0.08731 -0.0106,-0.134937 -0.20902,-0.5635622 l -0.0291,-0.0635 -0.0212,-0.06615 c -0.254,-0.756708 -0.72761,-2.262188 -1.651,-6.622521 -3.85234,-0.9048751 -5.41867,-1.3705411 -6.16215,-1.6166041 l -0.0397,-0.01323 -0.037,-0.01587 c -0.37041,-0.148167 -0.48418,-0.177271 -0.59002,-0.193146 -0.14552,-0.02117 -0.32544,-0.02381 -0.87048,-0.02381 -1.27264,0 -2.55323,0.07408 -3.79677,0.150812 -0.60589,0.05556 -1.20385,0.150813 -1.91823,0.264583 -0.21696,0.0344 -0.4445,0.07144 -0.68791,0.10848 -0.80963,0.153458 -1.64307,0.330729 -2.35744,0.59002 -0.75671,0.275167 -1.14036,0.558271 -1.29117,0.7805211 -0.0952,0.145521 -0.20902,0.418042 -0.29898,0.870479 -0.0873,0.425979 -0.14023,0.923396 -0.17727,1.465792 v 0.187854 0.06085 l -0.005,0.06085 c -0.0344,0.391584 -0.0529,0.788459 -0.0741,1.21973 v 0.01323 c -0.0185,0.399521 -0.037,0.830791 -0.0767,1.264708 -0.003,0.513292 -0.0185,1.087438 -0.037,1.6721672 -0.003,0.04233 -0.003,0.08731 -0.005,0.129646 -0.0185,0.650875 -0.037,1.32027 -0.037,1.98702 0.0132,0.322792 0.0265,0.64823 0.0397,0.971021 0.0529,1.452563 0.10848,2.910417 0.40481,4.3815 l 0.005,0.03175 0.005,0.03175 c 0.14552,0.9525 0.41275,1.875896 0.86518,2.439458 0.39952,0.433917 0.98955,0.724959 1.5928,0.923396 l 0.0291,0.01058 0.0265,0.01058 c 1.50812,0.5715 3.18823,0.941917 5.32077,1.246187 0.59267,0.07408 1.25677,0.148167 2.06904,0.22225 0.35719,0.0026 0.72496,0.02117 1.06627,0.03704 l 0.0423,0.0026 c 0.38365,0.01852 0.74084,0.03704 1.09009,0.03704 h 0.62177 c 1.20121,0 2.40771,-0.07673 3.48192,-0.301625 1.0795,-0.227542 1.9341,-0.587375 2.52147,-1.084792 0.66675,-0.576792 0.70644,-1.150938 0.70644,-2.330979 0,-0.396875 0.0238,-0.746125 0.0423,-1.045104 v -0.0079 c 0.0212,-0.304271 0.037,-0.550333 0.037,-0.806979 0,-0.986896 0.082,-1.963208 0.15875,-2.876021 l 0.003,-0.02646 v 0 0 l 0.003,-0.01852 0.003,-0.01852 z"
       id="path8"
       style="fill:#fff0e3;stroke:#000000;stroke-width:2.64583" />
  </g>
</svg>
