<?xml version="1.0" encoding="UTF-8" standalone="no"?>
<svg
   version="1.1"
   viewBox="0 0 405.99999 490.00001"
   id="svg44"
   xmlns="http://www.w3.org/2000/svg"
   xmlns:svg="http://www.w3.org/2000/svg">
  <!-- Generator: Adobe Illustrator 29.3.1, SVG Export Plug-In . SVG Version: 2.1.0 Build 151)  -->
  <defs
     id="defs1">
    <style
       id="style1">
      .st0 {
        fill: #d4b39a;
      }

      .st1 {
        fill: #ea552a;
      }

      .st2 {
        fill: #fff;
      }

      .st3 {
        fill: #e04c27;
      }

      .st4 {
        fill: #c39073;
      }

      .st5 {
        fill: #e0bda2;
      }

      .st6 {
        fill: #111110;
      }

      .st7 {
        fill: #a26f52;
      }

      .st8 {
        fill: #94634b;
      }

      .st9 {
        fill: #cb9679;
      }

      .st10 {
        fill: #0c0c0c;
      }

      .st10, .st11, .st12 {
        display: none;
      }

      .st13 {
        fill: #010101;
      }

      .st14 {
        fill: #d13a1c;
      }

      .st15 {
        fill: #cf3b28;
      }

      .st12 {
        fill: none;
        stroke: #f6f6f6;
        stroke-miterlimit: 10;
        stroke-width: 5px;
      }

      .st16 {
        fill: #d6421e;
      }

      .st17 {
        fill: #f4f3f4;
      }
    </style>
  </defs>
  <g
     id="Calque_7"
     transform="translate(-192.1,-52.5)">
    <g
       id="g2">
      <path
         class="st6"
         d="m 314.4,134.2 c 0,44.8 36,81.1 80.7,81.7 V 52.6 c -44.7,0.5 -80.7,36.9 -80.7,81.7 z"
         id="path1" />
      <path
         d="m 396.1,52.5 c -0.3,0 -0.7,0 -1,0 v 163.4 c 0.3,0 0.7,0 1,0 45.1,0 81.7,-36.6 81.7,-81.7 0,-45.1 -36.6,-81.7 -81.7,-81.7 z"
         id="path2" />
    </g>
  </g>
  <g
     id="Calque_6"
     transform="translate(-192.1,-52.5)">
    <g
       id="g12">
      <path
         class="st11"
         d="m 476.1,148.2 c 2.2,-2.8 5.5,-4.5 9.3,-4.5 h 2.2 c 6.5,0 11.8,-5.3 11.8,-11.8 V 81.8 C 499.4,75.3 494.1,70 487.6,70 481.1,70 475.8,64.7 475.8,58.2 V 46.4 c 0,-6.5 -5.3,-11.8 -11.8,-11.8 h -68.9 v 113.6 z"
         id="path3" />
      <path
         class="st10"
         d="m 395.1,34.6 h -63 c -6.5,0 -11.8,5.3 -11.8,11.8 v 11.1 c 0,6.5 -5.3,11.8 -11.8,11.8 h -5.9 c -6.5,0 -11.8,5.3 -11.8,11.8 v 53 c 0,6.5 5.3,11.8 11.8,11.8 h 5.4 c 2.6,0 5.1,0.9 7,2.3 h 80 V 34.6 Z"
         id="path4" />
      <path
         class="st3"
         d="m 395.1,134.2 h -92.5 c -44.3,0 -80.2,35.9 -80.2,80.2 v 7.7 H 395 v -87.8 z"
         id="path5" />
      <path
         class="st15"
         d="m 395.1,222.1 h 171.6 v -7.7 c 0,-44.3 -35.9,-80.2 -80.2,-80.2 H 395.1 V 222 Z"
         id="path6" />
      <path
         class="st3"
         d="M 395.1,222.1 H 222.5 c -2.4,32.4 -4.8,64.9 -7.1,97.3 h 179.8 v -97.3 z"
         id="path7" />
      <path
         class="st15"
         d="m 395.1,319.4 h 178 C 571.1,287 569,254.5 567,222.1 H 395.1 Z"
         id="path8" />
      <path
         class="st17"
         d="m 395.1,419.8 h 183.8 c 3,-2.8 4.9,-6.7 4.9,-11.1 -3.5,-29.7 -7.1,-59.5 -10.6,-89.2 H 395.1 v 100.4 z"
         id="path9" />
      <path
         class="st2"
         d="M 395.1,319.4 H 214.8 c -2.8,29.7 -5.6,59.5 -8.4,89.2 0,4.4 1.9,8.4 4.9,11.1 H 395.1 V 319.3 Z"
         id="path10" />
      <path
         class="st16"
         d="m 211.3,419.8 h -0.2 c -10.5,0 -19,8.5 -19,19 v 73 c 0,16.5 13.4,29.9 29.9,29.9 H 395 V 419.8 H 211.2 Z"
         id="path11" />
      <path
         class="st14"
         d="M 579,419.8 H 395.1 v 121.9 h 173 c 16.5,0 29.9,-13.4 29.9,-29.9 v -73 c 0,-10.5 -8.5,-19 -19,-19 z"
         id="path12" />
    </g>
  </g>
  <g
     id="Calque_9"
     transform="translate(-192.1,-52.5)">
    <g
       id="g14">
      <path
         class="st6"
         d="m 324,446 c -5.3,0 -9.6,4.3 -9.6,9.6 v 50.3 c 0,5.3 4.3,9.6 9.6,9.6 h 71.1 V 446.1 H 324 Z"
         id="path13" />
      <path
         d="m 468.2,446 h -73.1 v 69.4 h 73.1 c 5.3,0 9.6,-4.3 9.6,-9.6 v -50.3 c 0,-5.3 -4.3,-9.6 -9.6,-9.6 z"
         id="path14" />
    </g>
    <rect
       class="st12"
       x="328.70001"
       y="452.5"
       width="132.8"
       height="56.400002"
       rx="9.6000004"
       ry="9.6000004"
       id="rect14" />
  </g>
  <g
     id="Calque_8"
     class="st11">
    <g
       id="corps">
      <path
         class="st5"
         d="M 1180.6,497.5 H 980.8 c 2.1,-27.1 9,-65.4 30.5,-105.3 6.7,-12.5 14,-23.5 21.2,-33 10.6,-7.3 23.8,-15 39.8,-21.2 45.2,-17.5 86.4,-13.4 108.4,-9.3 v 168.8 z"
         id="path15" />
      <path
         class="st5"
         d="m 1180.6,328.6 v -82.1 h -52.5 c 4.6,12.5 8.9,28.5 10.3,47.4 1,13 0.3,24.8 -1,34.7"
         id="path16" />
      <path
         class="st5"
         d="m 1110.9,98.4 c -13.9,0 -27.2,-0.5 -40.7,-0.8 -10.1,18.2 -16.1,38.6 -17,59.6 -2.8,70.5 53.5,137.9 127.5,138.4 V 100.4 c -10.1,-0.2 -20.4,-1 -30.9,-2.9 -13,-3 -26,1 -39,1 z"
         id="path17" />
      <path
         class="st5"
         d="m 1179.9,29.7 c -47.9,0.6 -88.1,29 -109.7,67.9 13.6,0.3 26.9,0.8 40.7,0.8 13.8,0 26,-4 39,-1 10.5,1.9 20.7,2.8 30.9,2.9 V 29.7 h -0.8 z"
         id="path18" />
      <path
         class="st0"
         d="m 1179.9,497.5 h 199.8 c -2.1,-27.1 -9,-65.4 -30.5,-105.3 -6.7,-12.5 -14,-23.5 -21.2,-33 -10.6,-7.3 -23.8,-15 -39.8,-21.2 -45.2,-17.5 -86.4,-13.4 -108.4,-9.3 0,56.3 0,112.5 0,168.8 z"
         id="path19" />
      <path
         class="st0"
         d="m 1179.9,328.6 v -82.1 h 52.5 c -4.6,12.5 -8.9,28.5 -10.3,47.4 -1,13 -0.3,24.8 1,34.7"
         id="path20" />
      <path
         class="st0"
         d="m 1307.3,157.2 c -0.8,-20.1 -6.4,-39.7 -15.7,-57.2 -5.9,-0.6 -12.1,-0.7 -17.7,-1.5 -32.1,-3.1 -62.4,2.6 -94.1,1.9 v 195.3 c 74.1,-0.5 130.3,-67.9 127.5,-138.4 z"
         id="path21" />
      <path
         class="st0"
         d="m 1273.9,98.4 c 5.6,0.8 11.9,1 17.7,1.5 -21.3,-40.1 -62.2,-69.6 -111,-70.2 h -0.9 v 70.6 c 31.7,0.7 62.1,-5 94.1,-1.9 z"
         id="path22" />
      <ellipse
         class="st5"
         cx="1060.4"
         cy="161.3"
         rx="17.200001"
         ry="20.5"
         id="ellipse22" />
      <ellipse
         class="st0"
         cx="1301.5"
         cy="161.3"
         rx="17.200001"
         ry="20.5"
         id="ellipse23" />
    </g>
    <g
       id="yeux">
      <ellipse
         class="st13"
         cx="1128.1"
         cy="168.89999"
         rx="12.9"
         ry="27.700001"
         id="ellipse24" />
      <ellipse
         class="st13"
         cx="1232.4"
         cy="168.89999"
         rx="12.9"
         ry="27.700001"
         id="ellipse25" />
    </g>
    <g
       id="Calque_13">
      <path
         class="st2"
         d="m 1137.8,325.2 v 1.3 c 0,20 16.5,36.3 36.8,36.3 h 6.2 V 497.5 H 977.1 l 14.7,-92.9 c 1.5,-6.4 4.3,-15.6 10.4,-25.3 2.1,-3.4 10,-15.5 28.7,-28.1 28,-18.9 63.8,-24.6 73.7,-26"
         id="path25" />
      <path
         class="st17"
         d="m 1222.4,325.2 v 1.3 c 0,20 -16.5,36.3 -36.8,36.3 h -5.7 c 0,44.9 0,89.8 0,134.7 h 203.2 l -14.7,-92.9 c -1.5,-6.4 -4.4,-15.6 -10.4,-25.3 -2.1,-3.4 -10,-15.5 -28.7,-28.1 -28,-18.9 -63.8,-24.6 -73.7,-26"
         id="path26" />
    </g>
    <g
       id="lunettes">
      <path
         class="st1"
         d="m 1233.8,206.8 c -17.6,0 -29,-14.9 -29,-37.8 0,-22.9 11.4,-37.8 29,-37.8 17.6,0 27,13.8 27,37.8 0,24 -9.8,37.8 -27,37.8 z m 0,-69.7 c -16.9,0 -23,16.4 -23,31.8 0,15.4 6,31.8 23,31.8 17,0 21,-5.5 21,-31.8 0,-26.3 -11.4,-31.8 -21,-31.8 z"
         id="path27" />
      <polyline
         class="st1"
         points="1259 157.9 1288.2 152.4 1306.5 148.7 1310 148.7 1312 149.3 1313.3 150.2 1314.3 152 1312.2 144.9 1301.2 145.4 1259.8 155.4"
         id="polyline27" />
      <path
         class="st1"
         d="m 1205.3,168.9 c -2,-2 -5.4,-5 -10.5,-7.3 -6.4,-2.8 -12.1,-2.9 -15.1,-2.8 v -7.5 c 1,0 2.1,0 3.2,0 11,0.6 19.2,7.3 23.5,11.7"
         id="path28" />
      <path
         class="st1"
         d="m 1125.8,206.8 c -17.2,0 -27,-13.8 -27,-37.8 0,-24 9.8,-37.8 27,-37.8 17.2,0 29,14.9 29,37.8 0,22.9 -11.4,37.8 -29,37.8 z m 0,-69.7 c -9.6,0 -21,5.5 -21,31.8 0,26.3 11.4,31.8 21,31.8 16.9,0 23,-16.5 23,-31.8 0,-15.4 -6,-31.8 -23,-31.8 z"
         id="path29" />
      <polyline
         class="st1"
         points="1100.7 157.9 1071.5 152.4 1053.1 148.7 1049.7 148.7 1047.7 149.3 1046.4 150.2 1045.3 152 1047.5 144.9 1058.5 145.4 1099.9 155.4"
         id="polyline29" />
      <path
         class="st1"
         d="m 1154.3,168.9 c 2,-2 5.4,-5 10.5,-7.3 6.4,-2.8 12.1,-2.9 15.1,-2.8 v -7.5 c -1,0 -2.1,0 -3.2,0 -11,0.6 -19.2,7.3 -23.5,11.7"
         id="path30" />
    </g>
    <g
       id="cheveux">
      <path
         class="st17"
         d="m 1179.8,107 16.1,11.8 c 3.1,2.3 7.3,2.8 10.9,1.2 l 15.6,-6.8 c 5.1,-2.2 11.1,-0.2 13.9,4.6 l 5.4,9.5 c 1.6,2.9 4.5,4.8 7.7,5.4 l 4.7,0.8 c 5.4,0.9 9.3,5.6 9.3,11 l 4.2,10.4 3.9,6.1 c 4.7,0 9.4,-1.5 13.2,-4.2 l 12.8,-8.9 c 0.5,-0.3 1,-0.6 1.6,-0.9 l 2.8,-1.1 c 2.8,-1.1 5.9,-0.6 8.2,1.3 l 0.9,0.8 c 0.6,0.5 1.1,1.1 1.6,1.8 l 2.6,4.2 c 0.5,0.9 0.9,1.8 1.1,2.8 l 1.4,7.4 23.9,-9.3 c 3,-1.2 5.4,-3.4 6.7,-6.4 l 2.2,-4.9 0.4,-1.5 c 1,-4.2 0.4,-8.6 -1.6,-12.5 l -3.5,-6.7 -2.8,-2.1 c -2.5,-1.9 -3.7,-5 -3.2,-8.1 l 2.2,-12.4 -0.5,-7.4 c -0.3,-4.2 -2.8,-10.4 -5.5,-13.7 v 0 c -0.5,-0.6 -1,-1.1 -1.5,-1.6 l -3.4,-3.4 c -0.9,-0.9 -2.1,-1.4 -3.4,-1.4 l -6.3,-2.9 c -3.2,-1.6 -5.6,-4.5 -6.5,-7.9 l -4.3,-16.2 -0.8,-2.3 c -3.4,-9.4 -9.1,-17.8 -16.5,-24.6 l -1.8,-1.7 -15.9,-4.7 -9.4,-1.4 c -3.8,-0.9 -8.3,1.5 -11.9,2.9 l -8.4,3.3 c -1,0.4 -1.8,0.9 -2.5,1.7 l -2.7,2.6 c -1.9,1.9 -5.1,1.4 -6.4,-1 l -7.5,-14.2 c -1.5,-2.8 -3.3,-5.4 -5.5,-7.7 l -1.9,-2 c -3,-3.2 -7,-5.5 -11.2,-6.5 v 0 c -1.9,-0.5 -3.8,-0.7 -5.7,-0.7 l -6.4,-1.3 c -2.2,-0.4 -4.4,-0.5 -6.6,-0.2 l -9.5,-0.2 v 119 0 z"
         id="path31" />
      <path
         class="st2"
         d="m 1179.8,107 -16,11.8 c -3.1,2.3 -7.2,2.8 -10.8,1.2 l -15.5,-6.8 c -5.1,-2.2 -11.1,-0.2 -13.8,4.6 l -5.4,9.5 c -1.6,2.9 -4.4,4.8 -7.6,5.4 l -4.7,0.8 c -5.3,0.9 -9.2,5.6 -9.2,11 l -4.2,10.4 -3.8,6.1 c -4.7,0 -9.3,-1.5 -13.1,-4.2 l -12.7,-8.9 c -0.5,-0.3 -1,-0.6 -1.6,-0.9 l -2.8,-1.1 c -2.7,-1.1 -5.9,-0.6 -8.1,1.3 l -0.9,0.8 c -0.6,0.5 -1.1,1.1 -1.6,1.8 l -2.6,4.2 c -0.5,0.9 -0.9,1.8 -1.1,2.8 l -1.4,7.4 -23.7,-9.3 c -3,-1.2 -5.4,-3.4 -6.6,-6.4 l -2.2,-4.9 -0.4,-1.5 c -1,-4.2 -0.4,-8.6 1.6,-12.5 l 3.5,-6.7 2.8,-2.1 c 2.5,-1.9 3.7,-5 3.1,-8.1 l -2.2,-12.4 0.5,-7.4 c 0.3,-4.2 2.7,-10.4 5.4,-13.7 v 0 c 0.5,-0.6 1,-1.1 1.5,-1.6 l 3.4,-3.4 c 0.9,-0.9 2.1,-1.4 3.4,-1.4 l 6.3,-2.9 c 3.2,-1.6 5.6,-4.5 6.5,-7.9 l 4.3,-16.2 0.8,-2.3 c 3.4,-9.4 9,-17.8 16.4,-24.6 l 1.8,-1.7 15.7,-4.7 9.3,-1.4 c 3.7,-0.9 8.2,1.5 11.8,2.9 l 8.4,3.3 c 0.9,0.4 1.8,0.9 2.5,1.7 l 2.6,2.6 c 1.9,1.9 5.1,1.4 6.4,-1 l 7.4,-14.2 c 1.5,-2.8 3.3,-5.4 5.5,-7.7 l 1.9,-2 c 3,-3.2 6.9,-5.5 11.1,-6.5 v 0 c 1.9,-0.5 6.8,-2.5 8.7,-2.5 l 5.6,-0.8 c 2.2,-0.4 6.5,-0.4 8.7,0 l 5,1.1 v 119 0 z"
         id="path32" />
    </g>
    <g
       id="Calque_14">
      <path
         class="st13"
         d="m 1180.5,398.6 v 99.8 h -106.7 v -165 c 0,-1.6 1.1,-3 2.6,-3.4 l 6.5,-1.8 20.2,-4 c 1.1,-0.2 2.1,0.6 2.1,1.7 V 398 l 75.4,0.7 z"
         id="path33" />
      <path
         class="st13"
         d="m 1180.7,398.6 v 99.8 h 106.7 v -165 c 0,-1.6 -1.1,-3 -2.6,-3.4 l -6.5,-1.8 -20.2,-4 c -1.1,-0.2 -2.1,0.6 -2.1,1.7 V 398 l -75.4,0.7 z"
         id="path34" />
    </g>
    <path
       class="st9"
       d="M 1179.9,552.1 V 430 l -14.4,1.2 -59,-1.2 -57.1,-16 -32.6,-9 -2.9,49.8 c 0.7,32.2 0,45.5 -1.2,50 -0.2,0.9 -1.2,4.3 0,8.3 0,0 1,3.3 3.6,6.3 11.3,12.5 46.4,19.7 46.4,19.7 18.6,3.8 32.8,5.9 36.9,6.5 22.4,3.3 40.9,4.9 53.5,5.7"
       id="path35" />
    <path
       class="st7"
       d="m 1012.7,449 v 28.2 c 0.2,1.4 0.7,3.6 2.2,5.8 0.4,0.5 1.6,2.4 5.8,5.3 3.1,2.2 5.8,3.6 7.5,4.5 6.3,3.1 11.6,4.9 12.4,5.1 14.5,4.7 31.1,7.6 31.1,7.6 34.3,5.9 27.5,5.4 39.7,7.1 30.4,4.3 52.4,4.7 57.4,4.7 4.6,0 8.5,0 11.1,0 v -33.9 c -1.9,0 -4.7,-0.1 -8.2,-0.3 -8.8,-0.4 -43,-2.2 -94.9,-14.9 -13,-3.2 -30.3,-7.8 -50.3,-14.5 l -13.9,-4.9 z"
       id="path36" />
    <path
       class="st1"
       d="m 1179.9,430 v -63.6 h -7.4 c -3.2,0 -6.4,0 -9.6,0 -7,0 -20.9,0.2 -41,1.4 -18.1,1.1 -27.1,1.6 -37.7,3 -12.7,1.7 -21.7,3.7 -31,5.8 -4.2,0.9 -9,2.3 -18.6,5 -0.4,0.1 -6.6,1.9 -12.9,5.2 0,0 -3.4,1.8 -6.7,5.2 -0.6,0.6 -1.3,1.4 -1.8,2.7 -0.4,1.1 -0.6,2.6 -0.3,3.6 0.8,2.9 6.1,4 7.2,4.3 12.3,2.8 -39.3,-2.1 44.5,15.6 22,4.6 48.4,9.8 78.7,14.8 z"
       id="path37" />
    <path
       class="st3"
       d="m 1173,430 c -45.9,-0.4 -99.7,-8.7 -159.4,-33.3 -1.1,2.3 -2.4,5.9 -3.2,10.4 -0.6,3.5 -0.6,6.1 -0.6,8.6 0,13.6 0.3,14.3 1,29.2 0.3,6.2 0.4,9.4 1.9,9.8 1.7,0.5 4.5,-2.5 5.9,-5.1 1.3,-2.4 1.4,-4.4 1.6,-6.8 0.2,-1.7 1,-5.2 2.6,-12.2 1.2,-5.2 2.2,-9.6 3.9,-13.7 0.2,-0.5 1.9,-4.8 1.9,-4.8 0.3,-0.4 0.9,-1.2 1.8,-1.2 1.3,0 2.3,1.6 2.8,2.4 1.4,2.4 1.5,4.7 1.5,5.9 0.2,7.5 0.6,5 0.6,10.2 0,5.4 -0.1,8.2 -0.5,10.3 0,0.2 -0.4,2.5 -0.2,5.5 0.2,2.4 0.7,3.2 1.1,3.6 0.9,1.1 3,2.5 5,1.8 0.7,-0.3 1.5,-0.9 2.4,-3.6 0.8,-2.6 0.9,-4.6 0.9,-8 0,-3.3 0.5,-6.5 0.2,-9.8 -0.1,-1.3 -0.4,-2.9 0.5,-4.7 0.5,-1 1.2,-1.8 2.2,-2.8 1.2,-1.2 1.8,-1.9 2.8,-2 1,-0.2 2,0.2 2.7,0.7 0.5,0.4 0.7,0.9 1.1,1.8 0.6,1.7 0.9,2.5 1.1,3.9 0.3,2.6 -0.4,2.9 0,4.9 0.3,1.2 0.5,2.3 1.5,3 1.4,1 3.7,1 5,0 0.9,-0.7 1.2,-1.7 1.5,-2.7 0.4,-1.7 0,-2.6 0.8,-3.3 0.5,-0.5 1.2,-0.5 1.7,-0.5 2,0 3.4,1.4 3.8,1.8 0.6,0.6 0.9,1.1 1,1.3 2.2,4.1 2.8,6.8 2.8,6.8 2,9.2 1,2.9 2.4,10.2 1.2,6.6 2.1,12 2.3,12.8 0.6,3.4 1.1,6.8 2,11.4 0.1,0.6 0.6,2.8 1.3,5.6 0.6,2.4 1,3.8 1.7,5.6 0.8,2.2 1.5,3.7 2.9,5.4 1,1.2 2,2.4 3.9,2.9 0.5,0.1 2.2,0.6 3.8,0 0.6,-0.2 1.8,-0.9 3,-3.8 1.1,-2.7 1.3,-5 1.4,-6.3 0.3,-3.6 0.8,-7.3 1.1,-10.9 0.3,-3.8 0.5,-6 0.8,-9 0.4,-3.3 0.7,-5.8 1.1,-8.5 0.8,-4.6 1.5,-7.4 3.6,-9.8 0.7,-0.8 1.4,-1.4 2,-1.8 3,-1.9 6.4,-1.2 6.7,-1.2 0.7,0.1 3,0.6 4.5,2.5 1,1.1 1.2,2.2 1.6,4 0.5,2.2 0.5,4.1 0.4,7 0,2.9 -0.2,3.4 0.2,4.6 0.2,0.5 0.9,2.2 2.8,3.3 0.6,0.4 2.1,1.2 3.7,0.8 1.9,-0.5 2.8,-2.3 3.3,-3.4 0.5,-1 0.8,-2 0.9,-6.3 0,-2.9 0,-5.5 0.6,-7.9 0,0 0.3,-1.2 1.1,-2.9 0.6,-1.1 0.9,-1.4 1.2,-1.6 1,-0.6 2.3,-0.3 2.6,-0.2 1.7,0.5 2.5,2.1 3.5,4.2 2,4.6 2.8,7.9 2.8,7.9 0.9,3.8 1.5,6.2 1.7,9.5 0,1.1 0.2,3.3 1.3,5.9 0.8,2 1.5,2.6 2,2.9 1.7,1 4,0.8 5.6,-0.2 1.8,-1 2.3,-2.7 2.8,-4 0.4,-1.2 0.4,-1.9 0.5,-4.6 0.2,-4 0.3,-3.3 0.4,-6.5 0,-0.9 0,-3.2 0,-6.2 -0.1,-3.8 -0.3,-5 0,-7.5 0.4,-3.2 1.2,-4.1 2,-4.5 1.1,-0.6 2.3,-0.4 3.2,-0.3 2.2,0.3 4.4,1.7 5.3,3.6 0.4,1 0.4,1.8 0.4,2.2 0,3.9 0.9,7.8 1.3,11.7 0.2,2.1 0.5,4.3 1.2,8.7 1.1,7 1.5,7.7 2.2,12.6 0.7,4.7 1,8.1 1.3,12.3 0.5,7.1 0.8,10.7 0.6,13.2 -0.2,2.9 0.1,5.8 -0.1,8.6 0,0.4 0,1.8 0.4,3.5 0.4,1.4 0.8,2.8 2.1,3.7 1.5,1 3.4,0.8 4,0.7 v -87.4 h -6.9 c 0,0 0,0 0,0 z"
       id="path38" />
    <path
       class="st4"
       d="M 1179.9,552.1 V 430 l 14.4,1.2 59,-1.2 57.1,-16 32.6,-9 2.9,49.8 c -0.7,32.2 0,45.5 1.2,50 0.2,0.9 1.2,4.3 0,8.3 0,0 -1,3.3 -3.6,6.3 -11.3,12.5 -46.4,19.7 -46.4,19.7 -18.6,3.8 -32.9,5.9 -36.9,6.5 -22.4,3.3 -40.9,4.9 -53.5,5.7"
       id="path39" />
    <path
       class="st8"
       d="m 1347.1,449 v 28.2 c -0.2,1.4 -0.7,3.6 -2.2,5.8 -0.4,0.5 -1.6,2.4 -5.8,5.3 -3.1,2.2 -5.8,3.6 -7.5,4.5 -6.3,3.1 -11.6,4.9 -12.4,5.1 -14.5,4.7 -31.1,7.6 -31.1,7.6 -34.3,5.9 -27.5,5.4 -39.6,7.1 -30.4,4.3 -52.4,4.7 -57.4,4.7 -4.6,0 -8.5,0 -11.1,0 v -33.9 c 1.9,0 4.7,-0.1 8.2,-0.3 8.8,-0.4 43,-2.2 94.9,-14.9 13,-3.2 30.3,-7.8 50.4,-14.5 l 13.9,-4.9 z"
       id="path40" />
    <path
       class="st16"
       d="m 1179.9,430 v -63.6 h 7.4 c 3.2,0 6.4,0 9.6,0 7,0 20.9,0.2 41,1.4 18,1.1 27.1,1.6 37.7,3 12.7,1.7 21.7,3.7 31,5.8 4.2,0.9 9,2.3 18.6,5 0.4,0.1 6.6,1.9 13,5.2 0,0 3.5,1.8 6.7,5.2 0.6,0.6 1.3,1.4 1.8,2.7 0.4,1.1 0.6,2.6 0.3,3.6 -0.8,2.9 -6.1,4 -7.2,4.3 -12.3,2.8 39.3,-2.1 -44.5,15.6 -22,4.6 -48.4,9.8 -78.7,14.8 l -36.6,-3 z"
       id="path41" />
    <path
       class="st3"
       d="m 1186.8,430 c 45.9,-0.4 99.7,-8.7 159.4,-33.3 1,2.3 2.4,5.9 3.2,10.4 0.6,3.5 0.6,6.1 0.6,8.6 0,13.6 -0.3,14.3 -1,29.2 -0.3,6.2 -0.4,9.4 -2,9.8 -1.7,0.5 -4.5,-2.5 -5.9,-5.1 -1.3,-2.4 -1.4,-4.4 -1.6,-6.8 -0.2,-1.7 -1,-5.2 -2.6,-12.2 -1.2,-5.2 -2.2,-9.6 -3.9,-13.7 -0.2,-0.5 -2,-4.8 -2,-4.8 -0.3,-0.4 -0.9,-1.2 -1.8,-1.2 -1.3,0 -2.3,1.6 -2.8,2.4 -1.5,2.4 -1.5,4.7 -1.5,5.9 -0.2,7.5 -0.6,5 -0.6,10.2 0,5.4 0.1,8.2 0.5,10.3 0,0.2 0.4,2.5 0.2,5.5 -0.2,2.4 -0.7,3.2 -1,3.6 -0.9,1.1 -3,2.5 -5,1.8 -0.7,-0.3 -1.5,-0.9 -2.4,-3.6 -0.8,-2.6 -0.9,-4.6 -0.9,-8 0,-3.3 -0.5,-6.5 -0.2,-9.8 0.1,-1.3 0.4,-2.9 -0.5,-4.7 -0.5,-1 -1.2,-1.8 -2.2,-2.8 -1.2,-1.2 -1.8,-1.9 -2.8,-2 -1,-0.2 -2,0.2 -2.7,0.7 -0.5,0.4 -0.7,0.9 -1,1.8 -0.6,1.7 -0.9,2.5 -1,3.9 -0.3,2.6 0.4,2.9 0,4.9 -0.3,1.2 -0.5,2.3 -1.5,3 -1.4,1 -3.7,1 -5,0 -0.9,-0.7 -1.2,-1.7 -1.5,-2.7 -0.5,-1.7 0,-2.6 -0.8,-3.3 -0.5,-0.5 -1.2,-0.5 -1.7,-0.5 -2,0 -3.4,1.4 -3.8,1.8 -0.6,0.6 -0.9,1.1 -1,1.3 -2.2,4.1 -2.8,6.8 -2.8,6.8 -2,9.2 -1,2.9 -2.4,10.2 -1.2,6.6 -2.1,12 -2.3,12.8 -0.6,3.4 -1.1,6.8 -2,11.4 -0.1,0.6 -0.6,2.8 -1.3,5.6 -0.6,2.4 -1,3.8 -1.7,5.6 -0.8,2.2 -1.5,3.7 -2.9,5.4 -1,1.2 -2,2.4 -3.9,2.9 -0.5,0.1 -2.2,0.6 -3.8,0 -0.6,-0.2 -1.8,-0.9 -3,-3.8 -1.1,-2.7 -1.3,-5 -1.4,-6.3 -0.3,-3.6 -0.8,-7.3 -1,-10.9 -0.3,-3.8 -0.5,-6 -0.8,-9 -0.4,-3.3 -0.7,-5.8 -1.1,-8.5 -0.8,-4.6 -1.5,-7.4 -3.6,-9.8 -0.7,-0.8 -1.4,-1.4 -2,-1.8 -3,-1.9 -6.4,-1.2 -6.7,-1.2 -0.7,0.1 -3,0.6 -4.5,2.5 -1,1.1 -1.2,2.2 -1.6,4 -0.5,2.2 -0.5,4.1 -0.4,7 0,2.9 0.2,3.4 -0.2,4.6 -0.2,0.5 -0.9,2.2 -2.8,3.3 -0.6,0.4 -2.1,1.2 -3.7,0.8 -1.9,-0.5 -2.8,-2.3 -3.3,-3.4 -0.5,-1 -0.8,-2 -0.9,-6.3 0,-2.9 0,-5.5 -0.6,-7.9 0,0 -0.3,-1.2 -1.1,-2.9 -0.6,-1.1 -0.9,-1.4 -1.2,-1.6 -1,-0.6 -2.3,-0.3 -2.6,-0.2 -1.7,0.5 -2.5,2.1 -3.5,4.2 -2,4.6 -2.8,7.9 -2.8,7.9 -0.9,3.8 -1.5,6.2 -1.7,9.5 0,1.1 -0.2,3.3 -1.3,5.9 -0.8,2 -1.5,2.6 -2,2.9 -1.7,1 -4,0.8 -5.6,-0.2 -1.8,-1 -2.3,-2.7 -2.8,-4 -0.4,-1.2 -0.4,-1.9 -0.5,-4.6 -0.2,-4 -0.3,-3.3 -0.4,-6.5 0,-0.9 0,-3.2 0,-6.2 0.1,-3.8 0.3,-5 0,-7.5 -0.4,-3.2 -1.2,-4.1 -2,-4.5 -1.1,-0.6 -2.3,-0.4 -3.2,-0.3 -2.2,0.3 -4.4,1.7 -5.3,3.6 -0.4,1 -0.4,1.8 -0.4,2.2 0,3.9 -0.9,7.8 -1.3,11.7 -0.2,2.1 -0.5,4.3 -1.2,8.7 -1.1,7 -1.5,7.7 -2.2,12.6 -0.7,4.7 -1,8.1 -1.3,12.3 -0.5,7.1 -0.8,10.7 -0.6,13.2 0.2,2.9 -0.1,5.8 0.1,8.6 0,0.4 0,1.8 -0.4,3.5 -0.4,1.4 -0.8,2.8 -2.1,3.7 -1.5,1 -3.4,0.8 -4,0.7 v -87.4 h 6.9 c 0,0 0,0 0,0 z"
       id="path42" />
    <path
       class="st5"
       d="m 991.7,554.7 c -28.7,1.6 -53.3,-20.4 -54.9,-49.1 -1.6,-28.7 20.4,-53.3 49.1,-54.9 28.7,-1.6 53.3,20.4 54.9,49.1 1.6,28.7 -20.4,53.3 -49.1,54.9"
       id="path43" />
    <path
       class="st0"
       d="m 1375.8,554.7 c -28.8,0 -52.1,-23.3 -52.1,-52.1 0,-28.8 23.3,-52.1 52.1,-52.1 28.8,0 52.1,23.3 52.1,52.1 0,28.8 -23.3,52.1 -52.1,52.1"
       id="path44" />
  </g>
</svg>
