<?xml version="1.0" encoding="UTF-8" standalone="no"?>
<svg
   id="Calque_1"
   version="1.1"
   viewBox="0 0 702.99998 400.00001"
   xmlns:xlink="http://www.w3.org/1999/xlink"
   xmlns="http://www.w3.org/2000/svg"
   xmlns:svg="http://www.w3.org/2000/svg">
  <!-- Generator: Adobe Illustrator 29.3.1, SVG Export Plug-In . SVG Version: 2.1.0 Build 151)  -->
  <defs
     id="defs1">
    <style
       id="style1">
      .st0 {
        fill: none;
      }

      .st1 {
        fill: #fcddc9;
      }

      .st2 {
        fill: #f2cbb6;
      }

      .st3 {
        fill: #d54428;
      }

      .st4 {
        fill: #e04b26;
      }

      .st5 {
        fill-rule: evenodd;
      }

      .st5, .st6 {
        fill: #010101;
      }

      .st7 {
        display: none;
      }
    </style>
  </defs>
  <path
     class="st3"
     d="m 169.25494,189.13752 c -6.8,-27.7 -19.1,-53.1 -34.7,-71.5 -3.8,-4.4 -23.9,-26.599996 -45.299998,-26.199996 -1.8,0 -3.5,0 -5.3,0 h -0.7 c -21.1,0 -40.8,21.799996 -44.6,26.199996 -15.7,18.4 -28,43.8 -34.7000002,71.5 -5.6,23.3 -5.3,46.6 1.2,67.5 6.1000002,20.1 16.7000002,36.6 31.4000002,49 l 0.4,0.3 c 12.9,10.8 29.5,17 47.2,17.8 0.3,0 0.5,0 0.8,0 h 2.9 c 0.4,0 0.8,0 1.2,0 17.699998,-0.8 34.299998,-7 47.199998,-17.8 l -2.8,-3.3 3.2,3 c 14.7,-12.4 25.3,-28.9 31.4,-49 6.4,-20.9 6.8,-44.3 1.2,-67.5 z m -86.699998,-71.9 c -11.5,0.9 -20,10.9 -23.9,16.8 -0.9,1.2 -2.2,1.9 -3.6,1.9 -1.4,0 -1.7,-0.3 -2.4,-0.7 -2,-1.3 -2.5,-4 -1.2,-6 4.9,-7.2 15.3,-19.4 30.5,-20.6 1.6,-0.1 3.3,0 5,0 2.4,0.2 4.1,2.3 3.9,4.7 -0.2,2.4 -2.4,4.1 -4.7,3.9 -1.2,0 -2.4,0 -3.6,0 z"
     id="path1" />
  <g
     class="st7"
     id="g1">
    <image
       width="997"
       height="1317"
       transform="matrix(0.2,0,0,0.2,768.5,-13.7)"
       xlink:href="Oeuf%20poule-1.png"
       id="image1" />
  </g>
  <g
     class="st7"
     id="g2">
    <path
       class="st5"
       d="M 452.8,89.7 V 69.9 c 0,-1.3 -1,-2.3 -2.3,-2.3 h -94.9 v -15 c 0,-1.3 -1,-2.3 -2.3,-2.3 -1.3,0 -1.2,0.2 -1.6,0.7 l -41.1,37 c -0.9,0.8 -1,2.3 -0.2,3.2 0,0 0.1,0.1 0.2,0.2 l 41.2,37 c 0.9,0.8 2.4,0.8 3.2,-0.2 0.4,-0.4 0.6,-1 0.6,-1.5 v -15 h 94.9 c 1.3,0 2.3,-1 2.3,-2.3 v -19.8 0 z"
       id="path2" />
  </g>
  <path
     class="st6"
     d="m 197.55494,3.937524 c -6,13.8 -12,27.6 -18,41.4 -1.1,2.6 -0.2,8.7 3.9,8.2 14.9,-1.9 29.8,-3.8 44.8,-5.7 6.4,-0.8 8.8,-13.6 1.9,-12.7 -8.9,1.1 -17.9,2.3 -26.8,3.4 8.4,-7 19.2,-12.2 28.8,-15.9 46.7,-18.1 100.3,-11.9 147.9,-1.4 5.7,1.3 13,-9.1 5.8,-10.7 -50.3,-11.09999997 -106.3,-16.9 -155.5,2.4 -11.1,4.4 -23.6,10.4 -33.4,18.7 3.5,-8 6.9,-15.9 10.4,-23.9 3.3,-7.49999997 -6.4,-11.1 -9.6,-3.6 z"
     id="path3" />
  <path
     class="st6"
     d="m 372.25494,395.33752 c 6.3,-14.4 12.5,-28.7 18.8,-43.1 1.2,-2.7 0.2,-9.1 -4.1,-8.5 -15.5,2 -31.1,4 -46.6,6 -6.7,0.9 -9.2,14.2 -1.9,13.3 9.3,-1.2 18.6,-2.4 28,-3.6 -8.7,7.3 -20,12.7 -30,16.6 -48.6,18.8 -104.4,12.4 -154,1.4 -6,-1.3 -13.6,9.5 -6.1,11.2 52.4,11.6 110.7,17.6 161.9,-2.5 11.6,-4.5 24.6,-10.8 34.8,-19.4 -3.6,8.3 -7.2,16.6 -10.8,24.9 -3.4,7.8 6.7,11.5 10,3.8 z"
     id="path4" />
  <g
     id="g17"
     transform="translate(-69.845058,-91.762476)">
    <path
       class="st0"
       d="m 496.9,213.2 c 4.3,2.4 8,5.9 10.4,10.8 -1.6,-3 -4.8,-7.6 -10.4,-10.8 z"
       id="path5" />
    <path
       class="st0"
       d="m 603.9,333.5 c 6.7,9.6 9.8,16.1 10.1,20.2 0.6,7.3 -4.6,8.6 -13,5.5 -6.4,-2.4 -15.2,-7.6 -24.4,-14.7 -25.8,-19.6 -55.4,-53 -48.4,-75.4 v 0 c 0.4,-1.4 1.8,-2.1 3.2,-1.7 1.4,0.4 2.1,1.8 1.7,3.2 -6.3,20 22.1,51.3 46.6,69.9 8.8,6.7 17.2,11.7 23.1,13.9 3.9,1.4 6.4,1.5 6.2,-0.3 -0.3,-3.8 -4.2,-11.1 -13,-22.8 -0.5,-0.6 -0.7,-1.4 -0.5,-2.2 0.3,-1.4 1.7,-2.2 3,-1.9 6.9,1.5 12.6,2.7 17.4,3.7 0,1.7 0,3.3 0,5 -3.6,-0.6 -7.5,-1.4 -12,-2.4 z"
       id="path6" />
    <path
       class="st0"
       d="m 669.2,272.8 c 1.4,0 2.5,1.1 2.5,2.5 0,1.4 -0.2,1 -0.4,1.4 -1.6,2.4 -5.5,6.9 -10.9,10.6 -1,0.7 -2,1.3 -3.1,1.9 7.1,1.3 11.5,2.8 13.8,4.4 2.3,1.5 3.1,3.3 2.7,5.3 -0.3,1.7 -1.6,3.1 -3.7,4.2 -3,1.6 -8,2.8 -14.3,3.4 6,4.5 7.5,7.9 6,10.4 -2.4,4.1 -13.4,3.7 -24.7,3.4 -1.6,0 -3.3,0 -4.9,-0.1 1.5,2 3.1,3.9 4.7,5.6 3.2,3.6 5.7,6.5 5.1,9.2 -0.8,3.5 -7.2,4.2 -26.1,0.8 0,-1.7 0,-3.3 0,-5 15.8,3.3 21,3.9 21.2,3.1 0,-0.2 -1.7,-2.2 -4,-4.7 -2.6,-2.9 -5.7,-6.4 -7.6,-10.2 -0.3,-0.4 -0.4,-0.9 -0.4,-1.4 0,-1.4 1.1,-2.5 2.5,-2.5 2.8,0 6.2,0 9.7,0.2 9.7,0.3 19.3,0.5 20.2,-1 0.3,-0.6 -2.5,-2.8 -10.7,-7.7 -0.8,-0.4 -1.4,-1.3 -1.4,-2.3 0,-1.4 1.1,-2.5 2.5,-2.5 8.9,0 16.3,-1.3 19.8,-3.2 0.7,-0.4 1.1,-0.6 1.1,-0.7 0,-0.2 -0.2,0.2 -0.6,0 -2.6,-1.8 -9.2,-3.6 -21.2,-5 -1.1,-0.1 -2,-0.9 -2.2,-2 -0.3,-1.4 0.6,-2.7 2,-3 4,-0.8 7.6,-2.6 10.7,-4.7 2.5,-1.7 4.6,-3.6 6.3,-5.3 -14.4,0 -32,-0.4 -47.9,-4.8 v -5.2 c 17,5 36.8,5 51.9,5 h 1.4 z"
       id="path7" />
    <path
       class="st0"
       d="m 592.9,261.9 c -4.3,-3.4 -10.4,-6.7 -17,-8.5 -5.3,-1.5 -10.9,-2 -15.8,-0.8 -1.4,0.3 -2.7,-0.5 -3.1,-1.9 -0.4,-1.4 0.5,-2.7 1.9,-3.1 5.8,-1.4 12.3,-0.9 18.3,0.9 7.2,2 14,5.6 18.7,9.4 5.7,4.5 12.6,7.6 20,9.8 v 5.2 c -8.5,-2.4 -16.5,-5.8 -23.1,-11.1 z"
       id="path8" />
    <path
       class="st0"
       d="m 507.3,181.2 c 2,0 3.8,0.8 5.1,2.1 1.3,1.3 2.1,3.1 2.1,5.1 0,2 -0.8,3.8 -2.1,5.1 -1.3,1.3 -3.1,2.1 -5.1,2.1 -2,0 -3.8,-0.8 -5.1,-2.1 -1.3,-1.3 -2.1,-3.1 -2.1,-5.1 0,-2 0.8,-3.8 2.1,-5.1 1.3,-1.3 3.1,-2.1 5.1,-2.1 z"
       id="path9" />
    <path
       class="st1"
       d="m 596.6,389.1 c 0.4,0.5 0.8,1 1.2,1.4 -1.3,1.4 -2.6,2.8 -4.2,4.4 -1.8,1.8 -3.8,3.9 -6.2,6.3 -0.2,0.2 -0.3,0.5 -0.3,0.7 l -11.2,-2.2 c 0,-0.2 -0.3,-0.4 -0.5,-0.5 -5.1,-2.1 -9.8,-5.7 -13.9,-10.9 -3.5,-4.4 -6.5,-10.1 -8.8,-16.9 11.6,7.5 25.4,12.8 41.5,14.3 0.7,1.1 1.5,2.3 2.3,3.3 z"
       id="path10" />
    <path
       class="st2"
       d="m 657.6,283.1 c -3.1,2.1 -6.7,3.9 -10.7,4.7 -1.4,0.3 -2.3,1.6 -2,3 0.2,1.1 1.1,1.9 2.2,2 12,1.4 18.6,3.2 21.2,5 0.4,0.3 0.6,-0.1 0.6,0 0,0 -0.4,0.3 -1.1,0.7 -3.5,1.9 -10.8,3.2 -19.8,3.2 -1.4,0 -2.5,1.1 -2.5,2.5 0,1.4 0.6,1.9 1.4,2.3 8.2,4.9 11,7.1 10.7,7.7 -0.9,1.5 -10.4,1.2 -20.2,1 -3.4,0 -6.9,-0.2 -9.7,-0.2 -2.8,0 -2.5,1.1 -2.5,2.5 0,1.4 0.1,1 0.4,1.4 2,3.8 5,7.3 7.6,10.2 2.2,2.5 4,4.5 4,4.7 -0.2,0.8 -5.4,0.2 -21.2,-3.1 0,-19.3 0,-38.6 0,-57.8 15.8,4.4 33.5,4.8 47.9,4.8 -1.7,1.7 -3.8,3.6 -6.3,5.3 z"
       id="path11" />
    <path
       class="st2"
       d="m 642.1,335.1 c 0.6,-2.7 -2,-5.6 -5.1,-9.2 -1.5,-1.7 -3.2,-3.6 -4.7,-5.6 1.7,0 3.3,0 4.9,0.1 11.2,0.3 22.2,0.6 24.7,-3.4 1.5,-2.5 0,-5.9 -6,-10.4 6.2,-0.6 11.3,-1.8 14.3,-3.4 2.1,-1.1 3.4,-2.5 3.7,-4.2 0.4,-1.9 -0.4,-3.7 -2.7,-5.3 -2.3,-1.6 -6.7,-3.1 -13.8,-4.4 1.1,-0.6 2.1,-1.2 3.1,-1.9 5.4,-3.7 9.3,-8.2 10.9,-10.6 0.3,-0.4 0.4,-0.9 0.4,-1.4 0,-1.4 -1.1,-2.5 -2.5,-2.5 h -1.4 c -15,0 -34.9,0 -51.9,-5 v -9.6 c 1.4,0.5 2.9,0.9 4.4,1.4 6.4,1.8 24.1,5.1 38.8,4.3 9.4,-0.6 17.6,-2.8 21.3,-8.1 7.9,-11.4 24.4,-27.5 41.5,-38.5 13,-8.3 26.4,-13.7 36.5,-11.8 1.6,0.3 1.9,1.2 1.7,2.3 -0.2,1.2 -1,2.8 -1.8,4.2 -0.8,1.4 -1.4,2.8 -1.6,3.9 -0.3,1.4 0.2,2.5 1.9,2.8 0,0 0.1,0 0.2,0 5,0.1 8.3,1 10.3,2.3 1.8,1.2 2.6,2.8 2.8,4.7 -0.5,1.2 -3.4,7.1 -8.8,8.6 -0.5,0.1 -0.8,0.7 -0.7,1.2 0,0 0,0 0,0.1 1.3,3.2 3.3,4.6 5.2,6 1.7,1.3 3.4,2.4 4.1,5.2 -0.8,1.4 -3.1,2.5 -5.5,3.6 -3.1,1.5 -6.4,3 -7.3,5.6 -1,2.7 1.3,3.6 3.7,4.5 1.1,0.4 2.3,0.9 2.8,1.5 v 0 c 0.9,1.2 0.2,3.3 -5.4,8.4 -19,17.1 -49.7,35.2 -49.8,35.3 -0.2,0.1 -0.3,0.3 -0.4,0.5 -1,2.6 -2,5.3 -3,8 -8.4,22.7 -18.4,49.8 -57.5,65.3 1.1,-2 2,-4 2.8,-6.1 0.2,-0.5 0,-1 -0.6,-1.2 -0.6,-0.2 -1,0 -1.2,0.6 -1.7,4.5 -3.8,8.1 -7.3,12.6 -3.5,4.5 -8.4,9.8 -15.7,17.6 -0.2,0.2 -0.3,0.5 -0.3,0.7 l -11.3,-1.9 v 0 c 0,-21.9 0,-43.8 0,-65.7 18.9,3.4 25.3,2.7 26.1,-0.8 z"
       id="path12" />
    <path
       class="st1"
       d="m 488.9,210.3 c 0.1,0 0.2,0 0.3,0 0,0 0,0 0,0 l 1.1,0.3 c 0.4,0.1 0.9,0.3 1.4,0.4 0,0 0.1,0 0.2,0 0.8,0.3 1.7,0.6 2.6,1 0.3,0.1 0.5,0.3 0.8,0.4 0.5,0.2 0.9,0.4 1.4,0.6 0.1,0 0.2,0.1 0.3,0.2 4.3,2.4 8,5.9 10.4,10.8 0.2,0.4 0.5,0.9 0.6,1.2 0.2,0 0.4,0.3 0.5,0.5 6.2,13.5 4.8,29.6 3.3,46.5 -1.7,19 -3.4,39 5.7,56.8 6.8,13.3 17.8,27.7 32.9,38.4 0.3,0.3 0.7,0.5 1.1,0.7 v 0 c 11.4,7.9 25.2,13.6 41.5,15.4 -3,-5.1 -5.5,-11.1 -7.1,-18.1 -0.1,-0.5 0.2,-1 0.7,-1.1 0.5,-0.1 1,0.2 1.1,0.7 1.8,7.5 4.5,13.9 7.8,19.1 0,0 0,0 0,0.1 0.8,1.2 1.6,2.4 2.5,3.5 0.5,0.7 1.1,1.4 1.6,2 0,0 0,0 0,0 4.7,5.4 10.2,9.1 15.7,11.2 0.2,0 0.4,0.3 0.5,0.5 v -65.7 c -3.6,-0.6 -7.5,-1.4 -12,-2.4 6.7,9.6 9.8,16.1 10.1,20.2 0.6,7.3 -4.6,8.6 -13,5.5 -6.4,-2.4 -15.2,-7.6 -24.4,-14.7 -25.8,-19.6 -55.4,-53 -48.4,-75.4 v 0 c 0.4,-1.4 1.8,-2.1 3.2,-1.7 1.4,0.4 2.1,1.8 1.7,3.2 -6.3,20 22.1,51.3 46.6,69.9 8.8,6.7 17.2,11.7 23.1,13.9 3.9,1.4 6.4,1.5 6.2,-0.3 -0.3,-3.8 -4.2,-11.1 -13,-22.8 -0.5,-0.6 -0.7,-1.4 -0.5,-2.2 0.3,-1.4 1.7,-2.2 3,-1.9 6.9,1.5 12.6,2.7 17.4,3.7 0,-19.3 0,-38.6 0,-57.8 -8.5,-2.4 -16.5,-5.8 -23.1,-11.1 -4.3,-3.4 -10.4,-6.7 -17,-8.5 -5.3,-1.5 -10.9,-2 -15.8,-0.8 -1.4,0.3 -2.7,-0.5 -3.1,-1.9 -0.4,-1.4 0.5,-2.7 1.9,-3.1 5.8,-1.4 12.3,-0.9 18.3,0.9 7.2,2 14,5.6 18.7,9.4 5.7,4.5 12.6,7.6 20,9.8 0,-3.2 0,-6.4 0,-9.6 -27,-8.9 -36,-23.7 -47.1,-42.3 -4.8,-8 -10.1,-16.8 -17.5,-26 -3,-3.8 -6.4,-6.9 -10,-9.4 -3.8,-2.7 -7.9,-4.7 -12.1,-6.1 0,0 -0.2,0 -0.3,-0.1 -0.9,0 -2.2,-0.2 -3.8,-0.3 -3.3,-0.1 -5.3,0 -12,0.4 -7.9,0.5 -8.5,0.6 -9.5,0.7 -3.4,0.4 -6.2,1 -8.2,1.4 -2.6,0.5 -5.7,2.4 -8,5.8 -1.7,2.5 -2.8,5.9 -3.1,10.2 0,0 0,0 0,0 0,0 0,0 0,-0.1 2.8,5.9 9.6,12.4 4.5,17.8 z m 11.2,-21.8 c 0,-2 0.8,-3.8 2.1,-5.1 1.3,-1.3 3.1,-2.1 5.1,-2.1 2,0 3.8,0.8 5.1,2.1 1.3,1.3 2.1,3.1 2.1,5.1 0,2 -0.8,3.8 -2.1,5.1 -1.3,1.3 -3.1,2.1 -5.1,2.1 -2,0 -3.8,-0.8 -5.1,-2.1 -1.3,-1.3 -2.1,-3.1 -2.1,-5.1 z"
       id="path13" />
    <path
       class="st3"
       d="m 471.6,200.7 c 2.9,-3 6.9,-5.1 12,-6.1 0.5,0 0.8,-0.5 0.8,-1 0,-0.4 0,-0.7 0,-1.1 0,0 0,0 0,-0.1 2.8,5.9 9.6,12.4 4.5,17.8 0,0 0,0 0,0 -2.6,-0.7 -5.3,-1.1 -7.9,-1.2 -0.6,0 -1.3,-0.1 -2.1,-0.1 -1.3,0 -2.4,0.2 -3.4,0.3 -0.9,0.1 -1.9,0.3 -2.9,0.4 -1.6,0.3 -3.2,0.6 -4.7,0.9 l -1.4,0.3 c 0.7,-4 2.3,-7.5 5,-10.2 z"
       id="path14" />
    <path
       class="st3"
       d="m 490.2,210.5 c 0.4,0.1 0.9,0.3 1.4,0.4 0,0 0.1,0 0.2,0 0.8,0.3 1.7,0.6 2.6,1 0.3,0.1 0.5,0.3 0.8,0.4 0.5,0.2 0.9,0.4 1.4,0.6 0.1,0 0.2,0.1 0.3,0.2 5.6,3.2 8.8,7.8 10.4,10.8 0.2,0.4 0.5,0.8 0.6,1.2 -0.2,0 -0.5,0 -0.7,0 v 0 c 0,0 -12.4,6.3 -17.2,-2.4 -2.6,-4.7 0,-10.9 0,-10.9 -0.2,-0.9 -0.3,-1.2 -0.5,-1.2 0,0 0,0 -0.1,0 -0.2,0 -0.2,-0.3 -0.3,-0.5 0,0 0,0 0,0 l 1.1,0.3 z"
       id="path15" />
    <path
       class="st3"
       d="m 508,225.3 c -0.2,-0.4 -0.4,-0.8 -0.6,-1.2 0.2,0.4 0.5,0.9 0.6,1.2 z"
       id="path16" />
    <path
       class="st3"
       d="m 513.2,174.7 c -7.9,0.5 -8.5,0.6 -9.5,0.7 -3.4,0.4 -6.2,1 -8.2,1.4 0.3,-1.3 0.4,-1.9 0.4,-1.9 v 0 c 0,0 0,0 0,0 -0.8,-1.7 -2.9,-6 -2.8,-9.6 0,-2.9 1.6,-5.2 6.9,-5.2 2.4,0 3.7,-2.2 5.1,-4.6 0.6,-1.1 1.2,-2.1 1.9,-2.9 1.3,-1.4 3,-1.8 6.2,1.3 0.9,0.9 1.5,1.5 2,2 3,3.1 4,4.2 9,3.5 1.5,-0.2 2.6,0 3.5,0.3 1.3,0.5 2.2,1.6 2.6,2.9 0.2,0.6 0.8,1.9 0.5,4.9 -0.2,1.7 -0.6,4.1 -1.8,7 -0.9,0 -2.2,-0.2 -3.8,-0.3 -3.3,-0.1 -5.3,0 -12,0.4 z"
       id="path17" />
  </g>
  <path
     class="st3"
     d="m 493.25494,348.73752 c 0.6,-1.4 1.5,-2.9 2.9,-4.3 0.2,-0.2 0.4,-0.4 0.6,-0.6 l -4.7,-2.2 -0.9,-1"
     id="path18" />
  <path
     class="st3"
     d="m 523.85494,348.73752 -0.6,0.3 c -0.3,0 -0.8,0 -1.4,0 -8.5,0.2 -14.6,4.7 -15.7,5.5 -6.7,5.1 -8.6,12 -9.5,11.6 -0.6,-0.3 0.4,-3.7 0.8,-5.2 0.9,-3 1.9,-6.4 4.8,-9.1 0,0 0,0 3.7,-3.1 0.1,-0.1 0.6,-0.5 0.5,-0.9 0,-0.4 -0.5,-0.7 -0.7,-0.8 -1.6,-1 -4.6,-1.5 -6.7,-1.8 -1.4,-0.2 -1.9,-0.3 -3,-0.5 -0.6,0 -1.6,-0.2 -2.8,-0.2 -1.2,0 -2.5,0 -4,0.3 -2.4,0.5 -3.9,1.6 -4.1,1.3 0,-0.1 0.1,-0.4 0.7,-1.1 1.3,-1.7 2,-2.5 2.1,-2.7 1.5,-1.5 2.9,-2.4 3.5,-2.7 2.4,-1.4 4.5,-1.7 5.6,-1.9 0,0 4.1,-0.7 8.5,0.5 0.2,0 2.1,0.6 2.1,0.6 v 0 c 0.3,0 0.7,0 1,-0.3 0.4,-0.3 0.4,-0.8 0.4,-1.1 0,-1.1 0.2,0.2 0.7,-3 0.3,-2.3 0.6,-3.8 0.6,-6 0,-1.3 0,-5.4 -1.1,-10.6 -0.6,-2.6 -1.6,-6.1 -3.5,-9.9 l 11.6,1.7 c -0.3,1.4 -0.6,3.3 -0.8,5.5 -0.2,2.9 -0.4,7.9 0.9,13.8 1.1,5.2 2.9,9.4 4.5,12.4"
     id="path19" />
  <path
     class="st4"
     d="m 545.55494,309.63752 c 0.8,1.3 1.7,3.2 2.6,5.5 1.6,4.2 2.1,7.5 2.6,11.7 0,0 1.3,10.7 -1.2,13.5 -0.4,0.4 -0.9,0.7 -0.9,0.7 -1.1,0.6 -2.4,0.2 -2.8,0.1 -2.8,-0.7 -8.5,0.2 -11.5,1.2 -1.8,0.6 -4,1.3 -6.1,3.2 -1.7,1.6 -3.6,3.9 -3.1,4.4 0.2,0.3 1.1,-0.3 3.1,-0.9 1,-0.3 2,-0.5 3.9,-0.8 2.5,-0.5 4.4,-0.7 6.5,-0.9 5.2,-0.6 1.6,0.2 5.8,0 0.4,0 1.5,0 1.9,0.5 0.2,0.3 0.3,0.8 0.1,1.2 -0.2,0.3 -0.5,0.4 -0.6,0.5 -0.5,0.2 -1.3,0.9 -2.8,2.4 -1.3,1.2 -2.9,4 -4.3,8.2 -1.2,3.9 -2.1,8.7 -1.5,8.8 0.3,0 0.8,-1.1 1.8,-2.8 0.5,-0.7 2.8,-4.5 6.6,-7.5 3.2,-2.6 6.3,-3.7 7.8,-4.2 1,-0.3 4.9,-1.7 10.3,-1.6 3.9,0 6.8,0.9 8.6,1.4 2.4,0.7 4.2,1.2 6.2,2.5 0.4,0.3 1.1,0.8 2.3,1.6 2.3,1.5 3.4,2.2 3.6,2 0.4,-0.4 -1.3,-3.2 -3,-5.2 -1.1,-1.3 -3,-3.8 -6.4,-6 -2.2,-1.5 -3.7,-1.7 -9.3,-3.9 -1,-0.4 -1.6,-0.7 -2.3,-1.2 -1.2,-1 -1.9,-2.2 -2.6,-3.7 -1.2,-2.8 -1.8,-5.2 -2.2,-6.7 -0.4,-1.7 -0.9,-3.8 -1.3,-6.8 -0.4,-2.9 -0.9,-7 -0.4,-12.1 0.1,-1.3 0.3,-2.3 0.4,-3"
     id="path20" />
</svg>
