<?xml version="1.0" encoding="UTF-8" standalone="no"?>
<svg
   version="1.1"
   viewBox="0 0 1027 294.00001"
   id="svg1"
   sodipodi:docname="consommation jeton.svg"
   inkscape:version="1.3.2 (091e20e, 2023-11-25)"
   xmlns:inkscape="http://www.inkscape.org/namespaces/inkscape"
   xmlns:sodipodi="http://sodipodi.sourceforge.net/DTD/sodipodi-0.dtd"
   xmlns="http://www.w3.org/2000/svg"
   xmlns:svg="http://www.w3.org/2000/svg">
  <sodipodi:namedview
     id="namedview1"
     pagecolor="#ffffff"
     bordercolor="#666666"
     borderopacity="1.0"
     inkscape:showpageshadow="2"
     inkscape:pageopacity="0.0"
     inkscape:pagecheckerboard="0"
     inkscape:deskcolor="#d1d1d1"
     inkscape:zoom="0.70204479"
     inkscape:cx="512.78779"
     inkscape:cy="146.71429"
     inkscape:window-width="1440"
     inkscape:window-height="757"
     inkscape:window-x="0"
     inkscape:window-y="25"
     inkscape:window-maximized="0"
     inkscape:current-layer="svg1" />
  <!-- Generator: Adobe Illustrator 29.3.1, SVG Export Plug-In . SVG Version: 2.1.0 Build 151)  -->
  <defs
     id="defs1">
    <style
       id="style1">
      .st0 {
        fill: #f8cfb0;
      }

      .st1 {
        fill: #fde0c7;
      }

      .st2 {
        fill: #a3a1a1;
      }

      .st3 {
        fill: #468c57;
      }

      .st4 {
        fill: #1d1d1b;
      }

      .st5 {
        fill: #ea552a;
      }

      .st6 {
        fill: #4d9a5e;
      }

      .st7 {
        fill: #e04c27;
      }

      .st8 {
        fill: #c39073;
      }

      .st9 {
        fill: #ed6f4f;
      }

      .st10 {
        fill: #56a76c;
      }

      .st11 {
        fill: #f49a6c;
      }

      .st12 {
        fill: #d54428;
      }

      .st13 {
        fill: #9d9d9c;
      }

      .st14 {
        fill: #a26f52;
      }

      .st15 {
        fill: #94634b;
      }

      .st16 {
        fill: #cb9679;
      }

      .st17 {
        fill: #d6421e;
      }

      .st18 {
        fill: #cfcfcf;
      }
    </style>
  </defs>
  <g
     id="Calque_1"
     transform="translate(-96.7,-382)">
    <g
       id="g2">
      <path
         class="st2"
         d="m 221.4,424.7 c -0.4,0.4 -1,0.5 -1.6,0.4 h -0.5 c -0.4,-0.2 -0.7,-0.4 -0.9,-0.8 l -11.8,-15.8 c -0.7,-0.9 -1.9,-0.9 -2.7,-0.1 -0.2,0.2 -0.4,0.5 -0.6,0.7 -1.6,2.3 -1.7,4.8 -1.9,7 -0.3,2.6 0,5.2 2,12.6 0.8,3 2,7.1 3.7,11.8 0,0 0,0.1 0,0.2 l 1.7,3.6 c 1,2.2 3.6,3.1 5.8,2.1 l 2.6,-1.2 c 0.5,-0.2 1.1,-0.2 1.5,0 l 16.1,8.9 c 0.1,0 0.3,0.2 0.4,0.3 l 4.7,4.9 c 0.1,0.1 0.2,0.2 0.3,0.4 16.2,30.2 32.3,60.4 48.5,90.6 0.3,0.5 0.7,0.8 1.3,0.9 l 13,1.9 c 0.4,0 0.9,0 1.2,-0.3 C 278.6,508.2 253,463.6 227.4,419 l -6.2,5.7 z"
         id="path1" />
      <path
         class="st13"
         d="m 249.6,400.8 c -3.3,-3.6 -6.8,-5.3 -9.3,-6.5 -3.7,-1.7 -11.8,-5.4 -19.1,-2.2 -0.1,0 -0.3,0.1 -0.4,0.2 -1.1,0.5 -1.3,2.1 -0.3,2.9 0,0 0.1,0.1 0.2,0.2 l 10.7,10.9 c 0,0 0,0 0,0.1 l 2.9,3.5 c 0.3,0.4 0.4,0.9 0.4,1.4 v 0.9 c -0.2,0.4 -0.4,0.7 -0.7,1 l -6.4,5.8 c 25.6,44.6 51.2,89.2 76.8,133.8 0.3,-0.2 0.5,-0.5 0.7,-0.9 l 3.5,-10.4 c 0.2,-0.5 0.1,-1 -0.1,-1.4 -0.6,-1.1 -1.5,-2.6 -2.5,-4.4 -2.4,-4.1 -4.2,-7.2 -4.7,-7.9 -5.1,-8.6 -11.8,-21.1 -21.9,-37.3 -7.7,-12.3 -14.5,-25.1 -21.7,-37.7 -0.3,-0.5 -1.1,-1.9 -2,-4 -0.5,-1 -2.1,-4.8 -2.9,-9.2 -0.8,-4.4 -0.3,-8.1 0.5,-15.5 0,-0.8 0.6,-4.8 1,-10 0.2,-2.6 0.2,-3.2 0.2,-3.9 -0.4,-4.5 -3.2,-7.6 -4.8,-9.4 z"
         id="path2" />
    </g>
    <path
       class="st12"
       d="m 120.6,553.8 c -2.8,0 -5,2.3 -5,5 v 106.1 c 0,2.8 2.3,5 5,5 h 40.1 c 2.8,0 5,-2.3 5,-5 V 558.8 c 0,-2.8 -2.3,-5 -5,-5 z"
       id="path3" />
    <path
       class="st1"
       d="m 457.5,559.2 c -7.2,-2.6 -15.8,-1.1 -25.3,4.3 -24.7,14 -52.4,29.2 -62.1,34.5 3.8,3.4 6,7.7 6,13.2 0,29.1 -45.6,29.1 -62.8,29.1 h -58.8 c -2.2,0 -4,-1.8 -4,-4 0,-2.2 1.8,-4 4,-4 h 58.8 c 36.9,0 54.8,-6.9 54.8,-21.2 0,-14.3 0,-9.3 -17.4,-13.7 -9.9,-2.5 -23.4,-3.7 -41.5,-3.7 -30,0 -41.6,-2.3 -60.8,-17.4 -12,-9.5 -54.1,-8.9 -72.1,-8.6 -0.9,0 -1.9,0 -2.7,0 v 84.5 c 69.6,19.5 119.2,22.8 134,22.9 22.9,0 112.5,-55 164.8,-102.1 -2.1,-3.9 -7,-11.1 -15,-13.9 v 0 z"
       id="path4" />
    <rect
       class="st4"
       x="568.20001"
       y="499"
       width="187.39999"
       height="43.700001"
       rx="16"
       ry="16"
       id="rect4" />
    <rect
       class="st4"
       x="566.29999"
       y="564.90002"
       width="187.39999"
       height="43.700001"
       rx="16"
       ry="16"
       id="rect5" />
    <g
       id="Calque_16">
      <path
         class="st16"
         d="m 325.2,498.4 c 0.4,17.1 0,24.1 -0.6,26.5 -0.1,0.5 -0.6,2.3 0,4.4 0,0 0.5,1.7 1.9,3.3 6,6.6 24.6,10.4 24.6,10.4 9.8,2 17.4,3.1 19.6,3.4 11.9,1.7 21.7,2.6 28.3,3 4,0.3 7.4,0.4 9.9,0.5 h 4.3 v -64.8 l -7.6,0.7 -31.3,-0.7 -30.3,-8.5 -17.3,-4.8 -1.5,26.4 z"
         id="path5" />
      <path
         class="st14"
         d="m 324.6,495.4 v 15 c 0.1,0.7 0.4,1.9 1.2,3.1 0.2,0.3 0.9,1.3 3.1,2.8 1.6,1.2 3.1,1.9 4,2.4 3.4,1.7 6.1,2.6 6.6,2.7 7.7,2.5 16.5,4 16.5,4 18.2,3.1 14.6,2.9 21,3.8 16.1,2.3 27.8,2.5 30.4,2.5 2.4,0 4.5,0 5.9,0 v -18 c -1,0 -2.5,0 -4.3,-0.1 -4.7,-0.2 -22.8,-1.1 -50.3,-7.9 -6.9,-1.7 -16,-4.2 -26.7,-7.7 l -7.3,-2.6 z"
         id="path6" />
      <path
         class="st5"
         d="m 413.3,485.3 v -33.7 h -3.9 c -1.7,0 -3.4,0 -5.1,0 -3.7,0 -11.1,0.1 -21.7,0.8 -9.6,0.6 -14.4,0.9 -20,1.6 -6.7,0.9 -11.5,2 -16.4,3 -2.2,0.5 -4.8,1.2 -9.9,2.7 -0.2,0 -3.5,1 -6.9,2.8 0,0 -1.8,1 -3.5,2.8 -0.3,0.3 -0.7,0.8 -0.9,1.4 -0.2,0.6 -0.3,1.4 -0.2,1.9 0.4,1.5 3.2,2.1 3.8,2.3 6.5,1.5 -20.8,-1.1 23.6,8.3 11.7,2.5 25.7,5.2 41.7,7.8 l 19.4,-1.6 z"
         id="path7" />
      <path
         class="st7"
         d="m 409.7,485.3 c -24.3,-0.2 -52.9,-4.6 -84.5,-17.6 -0.6,1.2 -1.3,3.1 -1.7,5.5 -0.3,1.8 -0.3,3.2 -0.3,4.6 0,7.2 0.2,7.6 0.5,15.5 0.1,3.3 0.2,5 1,5.2 0.9,0.2 2.4,-1.3 3.1,-2.7 0.7,-1.3 0.7,-2.3 0.9,-3.6 0,-0.9 0.5,-2.8 1.4,-6.5 0.6,-2.8 1.2,-5.1 2.1,-7.3 0.1,-0.3 1,-2.5 1,-2.5 0.1,-0.2 0.5,-0.6 0.9,-0.7 0.7,0 1.2,0.8 1.5,1.3 0.8,1.3 0.8,2.5 0.8,3.1 0.1,4 0.3,2.6 0.3,5.4 0,2.9 0,4.3 -0.3,5.5 0,0.1 -0.2,1.3 0,2.9 0.1,1.3 0.4,1.7 0.6,1.9 0.5,0.6 1.6,1.4 2.7,0.9 0.4,-0.1 0.8,-0.5 1.2,-1.9 0.4,-1.4 0.5,-2.5 0.5,-4.3 0,-1.7 0.3,-3.5 0,-5.2 0,-0.7 -0.2,-1.5 0.3,-2.5 0.3,-0.6 0.6,-0.9 1.2,-1.5 0.6,-0.7 0.9,-1 1.5,-1.1 0.5,0 1.1,0 1.4,0.4 0.3,0.2 0.4,0.5 0.6,0.9 0.3,0.9 0.5,1.3 0.6,2.1 0.2,1.4 -0.2,1.5 0,2.6 0.1,0.6 0.3,1.2 0.8,1.6 0.7,0.5 2,0.6 2.7,0 0.5,-0.4 0.6,-0.9 0.8,-1.4 0.2,-0.9 0,-1.4 0.4,-1.7 0.3,-0.2 0.7,-0.3 0.9,-0.3 1.1,0 1.8,0.7 2,0.9 0.3,0.3 0.5,0.6 0.5,0.7 1.1,2.2 1.5,3.6 1.5,3.6 1.1,4.9 0.5,1.5 1.2,5.4 0.7,3.5 1.1,6.3 1.2,6.8 0.3,1.8 0.6,3.6 1.1,6 0,0.3 0.3,1.5 0.7,3 0.3,1.3 0.5,2 0.9,3 0.4,1.1 0.8,2 1.5,2.9 0.5,0.6 1.1,1.3 2.1,1.5 0.3,0 1.2,0.3 2,0 0.3,-0.1 0.9,-0.5 1.6,-2 0.6,-1.4 0.7,-2.6 0.7,-3.3 0.1,-1.9 0.4,-3.9 0.6,-5.8 0.2,-2 0.3,-3.2 0.4,-4.8 0.2,-1.7 0.4,-3.1 0.6,-4.5 0.4,-2.5 0.8,-3.9 1.9,-5.2 0.4,-0.4 0.7,-0.7 1.1,-0.9 1.6,-1 3.4,-0.7 3.6,-0.6 0.4,0 1.6,0.3 2.4,1.3 0.5,0.6 0.7,1.2 0.9,2.1 0.3,1.2 0.2,2.2 0.2,3.7 0,1.5 -0.1,1.8 0.1,2.4 0.1,0.3 0.5,1.2 1.5,1.7 0.3,0.2 1.1,0.6 2,0.4 1,-0.2 1.5,-1.2 1.8,-1.8 0.2,-0.5 0.4,-1.1 0.5,-3.3 0,-1.5 0,-2.9 0.3,-4.2 0,0 0.1,-0.6 0.6,-1.5 0.3,-0.6 0.5,-0.7 0.6,-0.8 0.6,-0.3 1.2,-0.2 1.4,-0.1 0.9,0.2 1.4,1.1 1.9,2.2 1.1,2.4 1.5,4.2 1.5,4.2 0.5,2 0.8,3.3 0.9,5 0,0.6 0.1,1.7 0.7,3.1 0.4,1.1 0.8,1.4 1.1,1.5 0.9,0.5 2.1,0.4 3,0 0.9,-0.5 1.2,-1.4 1.5,-2.1 0.2,-0.6 0.2,-1 0.3,-2.4 0,-2.1 0.2,-1.8 0.2,-3.4 0,-0.5 0,-1.7 0,-3.3 0,-2 -0.2,-2.6 0,-4 0.2,-1.7 0.6,-2.2 1,-2.4 0.6,-0.3 1.2,-0.2 1.7,-0.2 1.2,0.2 2.3,0.9 2.8,1.9 0.2,0.5 0.2,1 0.2,1.1 0,2.1 0.5,4.1 0.7,6.2 0.1,1.1 0.3,2.3 0.6,4.6 0.6,3.7 0.8,4.1 1.1,6.7 0.4,2.5 0.5,4.3 0.7,6.5 0.3,3.8 0.4,5.7 0.3,7 -0.1,1.5 0,3 0,4.6 0,0.2 0,0.9 0.2,1.9 0.2,0.7 0.4,1.5 1.1,1.9 0.8,0.5 1.8,0.4 2.1,0.4 v -46.3 h -3.6 c 0,0 0,0 0,0 z"
         id="path8" />
    </g>
    <g
       id="Calque_17">
      <path
         class="st8"
         d="m 501.4,498.4 c -0.4,17.1 0,24.1 0.6,26.5 0.1,0.5 0.6,2.3 0,4.4 0,0 -0.5,1.7 -1.9,3.3 -6,6.6 -24.6,10.4 -24.6,10.4 -9.8,2 -17.4,3.1 -19.6,3.4 -11.9,1.7 -21.7,2.6 -28.3,3 -4,0.3 -7.4,0.4 -9.9,0.5 h -4.3 v -64.8 l 7.6,0.7 31.3,-0.7 30.3,-8.5 17.3,-4.8 1.5,26.4 z"
         id="path9" />
      <path
         class="st15"
         d="m 502,495.4 v 15 c -0.1,0.7 -0.4,1.9 -1.2,3.1 -0.2,0.3 -0.9,1.3 -3.1,2.8 -1.6,1.2 -3.1,1.9 -4,2.4 -3.4,1.7 -6.1,2.6 -6.6,2.7 -7.7,2.5 -16.5,4 -16.5,4 -18.2,3.1 -14.6,2.9 -21,3.8 -16.1,2.3 -27.8,2.5 -30.4,2.5 -2.4,0 -4.5,0 -5.9,0 v -18 c 1,0 2.5,0 4.3,-0.1 4.7,-0.2 22.8,-1.1 50.3,-7.9 6.9,-1.7 16,-4.2 26.7,-7.7 l 7.3,-2.6 z"
         id="path10" />
      <path
         class="st17"
         d="m 413.3,485.3 v -33.7 h 3.9 c 1.7,0 3.4,0 5.1,0 3.7,0 11.1,0.1 21.7,0.8 9.6,0.6 14.4,0.9 20,1.6 6.7,0.9 11.5,2 16.4,3 2.2,0.5 4.8,1.2 9.9,2.7 0.2,0 3.5,1 6.9,2.8 0,0 1.8,1 3.5,2.8 0.3,0.3 0.7,0.8 0.9,1.4 0.2,0.6 0.3,1.4 0.2,1.9 -0.4,1.5 -3.2,2.1 -3.8,2.3 -6.5,1.5 20.8,-1.1 -23.6,8.3 -11.7,2.5 -25.7,5.2 -41.7,7.8 l -19.4,-1.6 z"
         id="path11" />
      <path
         class="st7"
         d="m 416.9,485.3 c 24.3,-0.2 52.9,-4.6 84.5,-17.6 0.6,1.2 1.3,3.1 1.7,5.5 0.3,1.8 0.3,3.2 0.3,4.6 0,7.2 -0.2,7.6 -0.5,15.5 -0.1,3.3 -0.2,5 -1,5.2 -0.9,0.2 -2.4,-1.3 -3.1,-2.7 -0.7,-1.3 -0.7,-2.3 -0.9,-3.6 0,-0.9 -0.5,-2.8 -1.4,-6.5 -0.6,-2.8 -1.2,-5.1 -2.1,-7.3 -0.1,-0.3 -1,-2.5 -1,-2.5 -0.1,-0.2 -0.5,-0.6 -0.9,-0.7 -0.7,0 -1.2,0.8 -1.5,1.3 -0.8,1.3 -0.8,2.5 -0.8,3.1 -0.1,4 -0.3,2.6 -0.3,5.4 0,2.9 0,4.3 0.3,5.5 0,0.1 0.2,1.3 0,2.9 -0.1,1.3 -0.4,1.7 -0.6,1.9 -0.5,0.6 -1.6,1.4 -2.7,0.9 -0.4,-0.1 -0.8,-0.5 -1.2,-1.9 -0.4,-1.4 -0.5,-2.5 -0.5,-4.3 0,-1.7 -0.3,-3.5 0,-5.2 0,-0.7 0.2,-1.5 -0.3,-2.5 -0.3,-0.6 -0.6,-0.9 -1.2,-1.5 -0.6,-0.7 -0.9,-1 -1.5,-1.1 -0.5,0 -1.1,0 -1.4,0.4 -0.3,0.2 -0.4,0.5 -0.6,0.9 -0.3,0.9 -0.5,1.3 -0.6,2.1 -0.2,1.4 0.2,1.5 0,2.6 -0.1,0.6 -0.3,1.2 -0.8,1.6 -0.7,0.5 -2,0.6 -2.7,0 -0.5,-0.4 -0.6,-0.9 -0.8,-1.4 -0.2,-0.9 0,-1.4 -0.4,-1.7 -0.3,-0.2 -0.7,-0.3 -0.9,-0.3 -1.1,0 -1.8,0.7 -2,0.9 -0.3,0.3 -0.5,0.6 -0.5,0.7 -1.1,2.2 -1.5,3.6 -1.5,3.6 -1.1,4.9 -0.5,1.5 -1.2,5.4 -0.7,3.5 -1.1,6.3 -1.2,6.8 -0.3,1.8 -0.6,3.6 -1.1,6 0,0.3 -0.3,1.5 -0.7,3 -0.3,1.3 -0.5,2 -0.9,3 -0.4,1.1 -0.8,2 -1.5,2.9 -0.5,0.6 -1.1,1.3 -2.1,1.5 -0.3,0 -1.2,0.3 -2,0 -0.3,-0.1 -0.9,-0.5 -1.6,-2 -0.6,-1.4 -0.7,-2.6 -0.7,-3.3 -0.1,-1.9 -0.4,-3.9 -0.6,-5.8 -0.2,-2 -0.3,-3.2 -0.4,-4.8 -0.2,-1.7 -0.4,-3.1 -0.6,-4.5 -0.4,-2.5 -0.8,-3.9 -1.9,-5.2 -0.4,-0.4 -0.7,-0.7 -1.1,-0.9 -1.6,-1 -3.4,-0.7 -3.6,-0.6 -0.4,0 -1.6,0.3 -2.4,1.3 -0.5,0.6 -0.7,1.2 -0.9,2.1 -0.3,1.2 -0.2,2.2 -0.2,3.7 0,1.5 0.1,1.8 -0.1,2.4 -0.1,0.3 -0.5,1.2 -1.5,1.7 -0.3,0.2 -1.1,0.6 -2,0.4 -1,-0.2 -1.5,-1.2 -1.8,-1.8 -0.2,-0.5 -0.4,-1.1 -0.5,-3.3 0,-1.5 0,-2.9 -0.3,-4.2 0,0 -0.1,-0.6 -0.6,-1.5 -0.3,-0.6 -0.5,-0.7 -0.6,-0.8 -0.6,-0.3 -1.2,-0.2 -1.4,-0.1 -0.9,0.2 -1.4,1.1 -1.9,2.2 -1.1,2.4 -1.5,4.2 -1.5,4.2 -0.5,2 -0.8,3.3 -0.9,5 0,0.6 -0.1,1.7 -0.7,3.1 -0.4,1.1 -0.8,1.4 -1.1,1.5 -0.9,0.5 -2.1,0.4 -3,0 -0.9,-0.5 -1.2,-1.4 -1.5,-2.1 -0.2,-0.6 -0.2,-1 -0.3,-2.4 0,-2.1 -0.2,-1.8 -0.2,-3.4 0,-0.5 0,-1.7 0,-3.3 0,-2 0.2,-2.6 0,-4 -0.2,-1.7 -0.6,-2.2 -1,-2.4 -0.6,-0.3 -1.2,-0.2 -1.7,-0.2 -1.2,0.2 -2.3,0.9 -2.8,1.9 -0.2,0.5 -0.2,1 -0.2,1.1 0,2.1 -0.5,4.1 -0.7,6.2 -0.1,1.1 -0.3,2.3 -0.6,4.6 -0.6,3.7 -0.8,4.1 -1.1,6.7 -0.4,2.5 -0.5,4.3 -0.7,6.5 -0.3,3.8 -0.4,5.7 -0.3,7 0.1,1.5 0,3 0,4.6 0,0.2 0,0.9 -0.2,1.9 -0.2,0.7 -0.4,1.5 -1.1,1.9 -0.8,0.5 -1.8,0.4 -2.1,0.4 v -46.3 h 3.6 c 0,0 0,0 0,0 z"
         id="path12" />
    </g>
    <path
       class="st3"
       d="m 103.2,401.9 1.7,-4.5 c 0.6,-1.6 1.8,-2.8 3.3,-3.5 l 5.1,-2.4 c 7.4,12.7 14.7,21 20.1,26.3 5.7,5.7 12.2,10.8 18.1,20.9 2.8,4.7 4.5,8.9 5.5,11.7 l -9.8,4.6"
       id="path13" />
    <path
       class="st3"
       d="m 119.7,388.4 3.1,-3.7 c 1.1,-1.3 2.6,-2.1 4.2,-2.2 l 5.6,-0.5 c 2.7,14.4 6.8,24.7 10.1,31.5 3.5,7.3 7.9,14.3 10.1,25.8 1,5.4 1.2,9.9 1.2,12.8 l -10.8,1"
       id="path14" />
    <path
       class="st6"
       d="m 143.7,385.6 -4.7,-0.5 c -1.6,-0.2 -3.3,0.3 -4.5,1.3 l -4.4,3.4 c 7.8,12.1 11.9,22.3 14.1,29.4 2.4,7.6 4,15.5 10.3,25.2 2.9,4.5 5.8,7.9 7.8,10 l 8.4,-6.6"
       id="path15" />
    <path
       class="st6"
       d="m 96.7,421.4 v -4.8 c 0.1,-1.7 0.8,-3.2 2,-4.4 l 4,-4 c 11.2,9.5 20.9,14.9 27.7,18.1 7.3,3.4 15.1,6.1 24.1,13.7 4.2,3.5 7.2,6.9 9.1,9.2 l -7.7,7.6"
       id="path16" />
    <path
       class="st10"
       d="m 97.9,435.8 -0.2,-4.2 c -0.1,-2 0.6,-4 1.9,-5.6 l 2.5,-2.8 c 0.2,-0.3 0.6,-0.4 0.9,-0.5 0.5,0 0.9,0.2 1,0.3 8.1,5 15.8,11.1 24.8,14.1 22.5,7.5 19.2,9.5 28.2,13.2 2,0.8 5.6,4.4 8.8,7.6 0.5,0.5 0.5,1.4 0,2 -2.1,2.4 -4.2,4.8 -6.3,7.2"
       id="path17" />
    <path
       class="st10"
       d="m 158.9,388.5 -4.6,-1.5 c -1.6,-0.5 -3.3,-0.4 -4.8,0.3 l -5.1,2.5 c 5.2,13.8 7,24.8 7.7,32.3 0.8,8 0.6,16.3 4.8,27.4 1.9,5.1 4.1,9.1 5.6,11.7 l 9.8,-4.7"
       id="path18" />
    <path
       class="st18"
       d="M 219.8,529.3 C 208.4,514.7 196.7,498 185.4,479 c -4.3,-7.3 -8.2,-14.4 -11.9,-21.4 -0.8,-1.4 -2.6,-1.9 -3.9,-0.9 -3.4,2.5 -6.7,5 -10.1,7.6 -1.1,0.8 -1.4,2.4 -0.6,3.5 5.5,8.5 11,17.1 16.5,25.8 14.7,23.2 28.7,46.2 42.1,69 0.8,1.3 2.4,1.7 3.7,0.9 l 12.3,-7.9 c 1.2,-0.8 1.6,-2.4 0.8,-3.6 L 218,526.5"
       id="path19" />
  </g>
  <g
     id="Calque_2"
     transform="translate(-96.7,-382)">
    <ellipse
       class="st9"
       cx="969.09998"
       cy="527.40002"
       rx="140.10001"
       ry="137.60001"
       transform="rotate(-5.6,968.25457,526.94777)"
       id="ellipse19" />
    <path
       class="st12"
       d="m 1108.4,514.1 c -7.4,-75.7 -75.9,-130.9 -152.9,-123.3 -24.4,2.4 -46.8,10.8 -65.7,23.6 l 63.8,-17.9 1.9,6.6 -80.1,22.5 c -3.3,2.9 -6.4,5.9 -9.4,9.1 l 91.2,-25.6 1.9,6.6 -101.1,28.4 c -2.1,2.6 -4,5.4 -5.9,8.2 l 108.7,-30.5 1.9,6.6 -115.9,32.5 c -1.4,2.5 -2.8,5 -4,7.6 l 121.6,-34.2 1.9,6.6 -127.2,35.7 c -3.8,9.2 -6.6,18.8 -8.3,28.8 l 142.3,-40 1.9,6.6 -145.2,40.8 c -0.2,2.2 -0.4,4.4 -0.6,6.7 l 147.5,-41.4 1.9,6.6 -149.6,42 c 0,2.1 0,4.3 0,6.5 l 151.2,-42.5 1.9,6.6 -152.6,42.9 c 0,0.4 0,0.8 0.1,1.2 0.2,1.7 0.4,3.4 0.6,5.1 l 153.6,-43.1 1.9,6.6 -154.3,43.3 c 1.4,7.5 3.4,14.7 5.9,21.6 l 154.5,-43.4 1.9,6.6 -153.8,43.2 c 0.8,1.9 1.7,3.9 2.6,5.8 l 152.9,-42.9 1.9,6.6 -151.5,42.5 c 1,1.9 2.1,3.7 3.2,5.6 l 150,-42.1 1.9,6.6 -147.9,41.5 c 1.3,1.8 2.6,3.6 3.9,5.4 l 145.7,-40.9 1.9,6.6 -142.9,40.1 c 5.6,6.6 11.8,12.6 18.5,18.1 l 130.4,-36.6 1.9,6.6 -125.3,35.2 c 2.2,1.6 4.5,3.1 6.8,4.6 l 120.2,-33.8 1.9,6.6 -113.7,31.9 c 2.7,1.5 5.6,2.8 8.4,4.1 l 107,-30.1 1.9,6.6 -98.5,27.7 c 3.6,1.3 7.2,2.4 10.9,3.4 l 89.2,-25.1 1.9,6.6 -76.6,21.5 c 11.7,1.9 23.9,2.3 36.3,1.1 77,-7.5 133.4,-75 126,-150.6 z"
       id="path20" />
    <ellipse
       class="st11"
       cx="990.70001"
       cy="523.59998"
       rx="132"
       ry="137.60001"
       transform="rotate(-5.6,989.97338,522.88615)"
       id="ellipse20" />
    <ellipse
       class="st1"
       cx="990.70001"
       cy="523.59998"
       rx="96.900002"
       ry="101.1"
       transform="rotate(-5.6,989.97338,522.88615)"
       id="ellipse21" />
    <path
       class="st0"
       d="m 972.9,437.5 c 53.3,-5.2 100.9,35.6 106.3,91.2 1.8,18.1 -1.2,35.5 -7.7,51 12,-18.7 18,-41.7 15.6,-66 -5.4,-55.6 -53,-96.4 -106.3,-91.1 -35.9,3.5 -65.2,27.1 -78.9,59 15.5,-24.2 40.9,-41.1 71,-44.1 z"
       id="path21" />
  </g>
  <g
     class="st9"
     id="g350"
     style="enable-background:new"
     transform="matrix(0.70996683,0,0,0.76043071,603.32453,-130.88335)">
	<g
   id="g349">
		<g
   id="g348">
			<path
   class="st10"
   d="m 453.7,264.3 c 3.4,1.6 5.1,4.6 6,8.1 1.8,7 1.8,14.2 0.9,21.3 -0.4,3 -2.1,5.5 -4.1,7.7 -0.4,0.5 -1,0.8 -1.6,1 -2.5,0.8 -5,1.6 -7.5,2.4 -2.4,0.8 -4.9,0.8 -7.3,1.2 -8.2,1.2 -16.4,2.1 -24.5,4.1 -0.7,0.2 -1.5,0.4 -2.2,0.7 -1.9,0.8 -2.3,1.6 -2.3,3.6 0,3.5 0.7,6.8 1.1,10.3 0.3,2.8 0.2,5.6 -0.3,8.4 -0.7,4.1 -0.1,8.1 0.6,12.2 0.8,4.5 1.9,8.8 2.4,13.3 0.3,3.1 0.3,6.1 -0.3,9.2 -1,5.5 -0.6,11.1 -0.4,16.7 0.2,6.2 0.4,12.5 0.4,18.7 0,3.7 -0.4,7.5 0.3,11.1 1.1,5.8 0.3,11.6 0.8,17.5 0.4,4.6 1.2,9.1 2.1,13.6 0.2,1.2 0.4,2.4 0.6,3.6 0,0.2 0.1,0.4 0,0.6 -1.2,3.5 -0.6,7.1 -1.3,10.7 -0.7,3.4 -2.4,5.9 -5.3,8 -2.7,2 -5.6,2.9 -8.8,3.2 -5.4,0.5 -10.8,0.9 -16.2,0.9 -1.3,0 -2.6,-0.2 -3.8,-0.3 -3.2,-0.5 -5.2,-2.4 -6.3,-5.4 -1.2,-3.3 -1.7,-6.8 -2.1,-10.3 0,-0.1 0,-0.2 0,-0.4 -1.6,-4.3 -1.4,-8.8 -1.5,-13.3 -0.1,-3.9 -0.6,-7.8 -1,-11.7 -0.3,-3.4 -0.3,-6.7 -0.1,-10.1 0.4,-6.9 0.8,-13.8 0.3,-20.6 -0.5,-6.8 -0.4,-13.5 -0.3,-20.3 0.2,-11.4 0.6,-22.9 0.4,-34.3 -0.1,-5.5 -0.7,-11 -0.5,-16.5 0,-0.1 0,-0.2 0,-0.2 -0.9,-2.3 -1,-4.5 -0.2,-6.8 0.4,-1.1 -0.2,-1.6 -1.6,-1.6 -3.3,-0.1 -6.6,0.1 -9.9,0.5 -4.9,0.5 -9.6,1.8 -14.4,2.6 -3.2,0.5 -5.7,-0.5 -7.7,-2.9 -2.4,-3 -3.6,-6.4 -4.1,-10.2 -0.8,-7.2 -0.4,-14.5 -0.4,-21.7 0,-2.3 1.3,-4.3 3,-6 0.5,-0.5 1.1,-0.6 1.8,-0.7 8,-1.5 16.1,-2.3 24.1,-2.9 5.7,-0.5 11.4,-1.3 17,-2.2 17,-2.7 33.8,-6.4 50.7,-9.5 5.5,-1 11,-1.8 16.6,-2.7 0.3,0 0.5,-0.2 0.8,-0.3 1.9,-0.3 4,-0.3 6.1,-0.3 z m -113.4,33.6 c 0.4,-0.2 0.6,-0.5 0.6,-0.9 0,-0.3 -0.2,-0.5 -0.5,-0.5 -0.5,0.1 -0.6,0.5 -0.6,0.9 0.1,0.3 0.1,0.5 0.5,0.5 z"
   id="path347"
   style="fill:#f15727" />

		</g>

	</g>

</g>
</svg>
