<?xml version="1.0" encoding="UTF-8" standalone="no"?>
<svg
   id="Calque_1"
   version="1.1"
   viewBox="0 0 98 73"
   xmlns="http://www.w3.org/2000/svg"
   xmlns:svg="http://www.w3.org/2000/svg">
  <!-- Generator: Adobe Illustrator 29.3.1, SVG Export Plug-In . SVG Version: 2.1.0 Build 151)  -->
  <defs
     id="defs1">
    <style
       id="style1">
      .st0 {
        fill: #f4f4f4;
      }

      .st0, .st1, .st2 {
        fill-rule: evenodd;
      }

      .st3 {
        fill: #e95429;
      }

      .st1 {
        fill: #fff;
      }

      .st4 {
        fill: #d44428;
      }
    </style>
  </defs>
  <g
     id="Calque_3"
     transform="translate(-5,-22.5)">
    <rect
       class="st4"
       x="65.900002"
       y="24.799999"
       width="33.900002"
       height="58.700001"
       rx="12"
       ry="12"
       id="rect1" />
    <path
       class="st3"
       d="m 44,23.8 v 0 c 18.1,0 32.8,5.2 32.8,11.5 v 38.1 c 0,6.4 -14.7,11.5 -32.8,11.5 v 0 C 25.9,84.9 11.2,79.7 11.2,73.4 V 35.3 C 11.2,28.9 25.9,23.8 44,23.8 Z"
       id="path1" />
  </g>
  <g
     id="Calque_11"
     transform="translate(-5,-22.5)">
    <path
       class="st0"
       d="m 72,69.1 h 3.8 v -28 H 72 Z"
       id="path2" />
    <path
       class="st1"
       d="M 75.8,87.7 H 8.9 C 6.8,87.7 5,86 5,83.8 V 26.4 c 0,-2.1 1.7,-3.9 3.9,-3.9 h 66.9 v 16.3 h -5 c -0.6,0 -1.2,0.5 -1.2,1.2 v 30.3 c 0,0.6 0.5,1.2 1.2,1.2 h 5 v 16.3 0 z M 15.9,30.8 c -1.2,0 -2.1,1 -2.1,2.1 v 44.2 c 0,1.2 1,2.1 2.1,2.1 h 45.9 c 1.2,0 2.1,-1 2.1,-2.1 V 32.9 c 0,-1.2 -1,-2.1 -2.1,-2.1 0,0 -45.9,0 -45.9,0 z"
       id="path3" />
    <path
       class="st0"
       d="m 98.6,87.7 h -23 V 22.5 h 23 c 2.1,0 3.9,1.7 3.9,3.9 v 57.5 c 0,2.1 -1.7,3.9 -3.9,3.9 v 0 z M 89,49.8 c -5,0 -9,-4 -9,-9 0,-5 4,-9 9,-9 5,0 9,4 9,9 0,5 -4,9 -9,9 z m 0,-15.7 c -3.7,0 -6.7,3 -6.7,6.7 0,3.7 2.4,6 5.5,6.6 v -6.6 c 0,-0.6 0.5,-1.2 1.2,-1.2 0.7,0 1.2,0.5 1.2,1.2 v 6.6 c 3.1,-0.6 5.5,-3.3 5.5,-6.6 0,-3.3 -3,-6.7 -6.7,-6.7 z m 8.1,44.3 H 81 c -0.6,0 -1.2,-0.5 -1.2,-1.2 V 70 c 0,-0.6 0.5,-1.2 1.2,-1.2 h 16.1 c 0.6,0 1.2,0.5 1.2,1.2 v 7.2 c 0,0.6 -0.5,1.2 -1.2,1.2 z m -15,-2.3 H 95.9 V 71.2 H 82.1 Z m 1.4,-20.9 h -2.8 c -0.6,0 -1.2,-0.5 -1.2,-1.2 0,-0.7 0.5,-1.2 1.2,-1.2 h 2.8 c 0.6,0 1.2,0.5 1.2,1.2 0,0.7 -0.5,1.2 -1.2,1.2 z m 6.9,0 h -2.8 c -0.6,0 -1.2,-0.5 -1.2,-1.2 0,-0.7 0.5,-1.2 1.2,-1.2 h 2.8 c 0.6,0 1.2,0.5 1.2,1.2 0,0.7 -0.5,1.2 -1.2,1.2 z m 6.9,0 h -2.8 c -0.6,0 -1.2,-0.5 -1.2,-1.2 0,-0.7 0.5,-1.2 1.2,-1.2 h 2.8 c 0.6,0 1.2,0.5 1.2,1.2 0,0.7 -0.5,1.2 -1.2,1.2 z m -13.8,5.3 h -2.8 c -0.6,0 -1.2,-0.5 -1.2,-1.2 0,-0.7 0.5,-1.2 1.2,-1.2 h 2.8 c 0.6,0 1.2,0.5 1.2,1.2 0,0.7 -0.5,1.2 -1.2,1.2 z m 6.9,0 h -2.8 c -0.6,0 -1.2,-0.5 -1.2,-1.2 0,-0.7 0.5,-1.2 1.2,-1.2 h 2.8 c 0.6,0 1.2,0.5 1.2,1.2 0,0.7 -0.5,1.2 -1.2,1.2 z m 6.9,0 h -2.8 c -0.6,0 -1.2,-0.5 -1.2,-1.2 0,-0.7 0.5,-1.2 1.2,-1.2 h 2.8 c 0.6,0 1.2,0.5 1.2,1.2 0,0.7 -0.5,1.2 -1.2,1.2 z m -13.8,5.3 h -2.8 c -0.6,0 -1.2,-0.5 -1.2,-1.2 0,-0.7 0.5,-1.2 1.2,-1.2 h 2.8 c 0.6,0 1.2,0.5 1.2,1.2 0,0.7 -0.5,1.2 -1.2,1.2 z m 6.9,0 h -2.8 c -0.6,0 -1.2,-0.5 -1.2,-1.2 0,-0.7 0.5,-1.2 1.2,-1.2 h 2.8 c 0.6,0 1.2,0.5 1.2,1.2 0,0.7 -0.5,1.2 -1.2,1.2 z m 6.9,0 h -2.8 c -0.6,0 -1.2,-0.5 -1.2,-1.2 0,-0.7 0.5,-1.2 1.2,-1.2 h 2.8 c 0.6,0 1.2,0.5 1.2,1.2 0,0.7 -0.5,1.2 -1.2,1.2 z"
       id="path4" />
    <path
       class="st2"
       d="M 23.9,95.2 H 15.6 C 15,95.2 14.4,94.7 14.4,94 v -6.3 h 13.2 l -2.7,6.7 c -0.2,0.4 -0.6,0.7 -1.1,0.7 h 0.1 z"
       id="path5" />
    <path
       class="st2"
       d="m 92.2,95.2 h -8.3 c -0.5,0 -0.9,-0.3 -1.1,-0.7 l -2.7,-6.7 h 13.2 v 6.3 c 0,0.6 -0.5,1.2 -1.2,1.2 v 0 z"
       id="path6" />
  </g>
  <g
     id="g9"
     transform="translate(-5,-22.5)">
    <path
       class="st0"
       d="m 25.8,54.4 v 0 c 0.2,0 0.4,0 0.6,-0.2 L 45.1,43.4 c 0.6,-0.3 0.8,-1 0.4,-1.6 -0.3,-0.6 -1,-0.8 -1.6,-0.4 L 25.2,52.2 c -0.6,0.3 -0.8,1 -0.4,1.6 0.2,0.4 0.6,0.6 1,0.6 z"
       id="path7" />
    <path
       class="st0"
       d="M 52.1,45.8 C 51.8,45.2 51.1,45 50.5,45.4 L 25.3,59.9 c -0.6,0.3 -0.8,1 -0.4,1.6 0.2,0.4 0.6,0.6 1,0.6 v 0 c 0.2,0 0.4,0 0.6,-0.2 L 51.7,47.4 c 0.6,-0.3 0.8,-1 0.4,-1.6 z"
       id="path8" />
    <path
       class="st0"
       d="M 52.6,54.2 C 52.3,53.6 51.6,53.4 51,53.8 L 32.3,64.6 c -0.6,0.3 -0.8,1 -0.4,1.6 0.2,0.4 0.6,0.6 1,0.6 0.4,0 0.4,0 0.6,-0.2 L 52.2,55.8 c 0.6,-0.3 0.8,-1 0.4,-1.6 z"
       id="path9" />
  </g>
</svg>
