<?xml version="1.0" encoding="UTF-8" standalone="no"?>
<svg
   version="1.1"
   viewBox="0 0 1400 325.00001"
   id="svg3"
   sodipodi:docname="Tope-value.svg"
   width="1400"
   height="325"
   inkscape:version="1.3.2 (091e20e, 2023-11-25)"
   xmlns:inkscape="http://www.inkscape.org/namespaces/inkscape"
   xmlns:sodipodi="http://sodipodi.sourceforge.net/DTD/sodipodi-0.dtd"
   xmlns="http://www.w3.org/2000/svg"
   xmlns:svg="http://www.w3.org/2000/svg">
  <sodipodi:namedview
     id="namedview3"
     pagecolor="#ffffff"
     bordercolor="#666666"
     borderopacity="1.0"
     inkscape:showpageshadow="2"
     inkscape:pageopacity="0.0"
     inkscape:pagecheckerboard="0"
     inkscape:deskcolor="#d1d1d1"
     inkscape:zoom="0.21683008"
     inkscape:cx="571.87636"
     inkscape:cy="253.65484"
     inkscape:window-width="1440"
     inkscape:window-height="757"
     inkscape:window-x="0"
     inkscape:window-y="25"
     inkscape:window-maximized="1"
     inkscape:current-layer="svg3" />
  <!-- Generator: Adobe Illustrator 29.3.1, SVG Export Plug-In . SVG Version: 2.1.0 Build 151)  -->
  <defs
     id="defs1">
    <inkscape:path-effect
       effect="skeletal"
       id="path-effect15"
       is_visible="true"
       lpeversion="1"
       pattern="m 474.29422,-121.34914 c 0,5.3768 -5.75561,13.72764 -10.07221,17.62495 -5.78784,5.225642 -99.23718,9.865595 -108.57069,6.297725 -9.37588,-3.584065 -27.13627,2.370483 -44.32358,-2.016449 -19.56142,-4.992906 -14.45028,-42.358406 15.66728,-40.776156 2.5459,0.13375 44.34381,-0.11943 52.6958,1.72532 7.71585,1.70424 83.3004,-2.36494 86.25439,-0.98133 8.67316,4.0624 8.34901,10.10947 8.34901,18.12594 z"
       copytype="single_stretched"
       prop_scale="1.2338387"
       scale_y_rel="false"
       spacing="0"
       normal_offset="0"
       tang_offset="0"
       prop_units="false"
       vertical_pattern="false"
       hide_knot="false"
       fuse_tolerance="0" />
    <inkscape:path-effect
       effect="skeletal"
       id="path-effect14"
       is_visible="true"
       lpeversion="1"
       pattern="m 474.29422,-121.34914 c 0,5.3768 -5.75561,13.72764 -10.07221,17.62495 -5.78784,5.225642 -99.23718,9.865595 -108.57069,6.297725 -9.37588,-3.584065 -27.13627,2.370483 -44.32358,-2.016449 -19.56142,-4.992906 -14.45028,-42.358406 15.66728,-40.776156 2.5459,0.13375 44.34381,-0.11943 52.6958,1.72532 7.71585,1.70424 83.3004,-2.36494 86.25439,-0.98133 8.67316,4.0624 8.34901,10.10947 8.34901,18.12594 z"
       copytype="single_stretched"
       prop_scale="1"
       scale_y_rel="false"
       spacing="0"
       normal_offset="0"
       tang_offset="0"
       prop_units="false"
       vertical_pattern="false"
       hide_knot="false"
       fuse_tolerance="0" />
    <inkscape:path-effect
       effect="skeletal"
       id="path-effect13"
       is_visible="true"
       lpeversion="1"
       pattern="m 474.29422,-121.34914 c 0,5.3768 -5.75561,13.72764 -10.07221,17.62495 -5.78784,5.225642 -99.23718,9.865595 -108.57069,6.297725 -9.37588,-3.584065 -27.13627,2.370483 -44.32358,-2.016449 -19.56142,-4.992906 -14.45028,-42.358406 15.66728,-40.776156 2.5459,0.13375 44.34381,-0.11943 52.6958,1.72532 7.71585,1.70424 83.3004,-2.36494 86.25439,-0.98133 8.67316,4.0624 8.34901,10.10947 8.34901,18.12594 z"
       copytype="single_stretched"
       prop_scale="1"
       scale_y_rel="false"
       spacing="0"
       normal_offset="0"
       tang_offset="0"
       prop_units="false"
       vertical_pattern="false"
       hide_knot="false"
       fuse_tolerance="0" />
    <inkscape:path-effect
       effect="skeletal"
       id="path-effect12"
       is_visible="true"
       lpeversion="1"
       pattern="m 474.29422,-121.34914 c 0,5.3768 -5.75561,13.72764 -10.07221,17.62495 -5.78784,5.225642 -99.23718,9.865595 -108.57069,6.297725 -9.37588,-3.584065 -27.13627,2.370483 -44.32358,-2.016449 -19.56142,-4.992906 -14.45028,-42.358406 15.66728,-40.776156 2.5459,0.13375 44.34381,-0.11943 52.6958,1.72532 7.71585,1.70424 83.3004,-2.36494 86.25439,-0.98133 8.67316,4.0624 8.34901,10.10947 8.34901,18.12594 z"
       copytype="single_stretched"
       prop_scale="1"
       scale_y_rel="false"
       spacing="0"
       normal_offset="0"
       tang_offset="0"
       prop_units="false"
       vertical_pattern="false"
       hide_knot="false"
       fuse_tolerance="0" />
    <inkscape:path-effect
       effect="skeletal"
       id="path-effect11"
       is_visible="true"
       lpeversion="1"
       pattern="m 474.29422,-121.34914 c 0,5.3768 -5.75561,13.72764 -10.07221,17.62495 -5.78784,5.225642 -99.23718,9.865595 -108.57069,6.297725 -9.37588,-3.584065 -27.13627,2.370483 -44.32358,-2.016449 -19.56142,-4.992906 -14.45028,-42.358406 15.66728,-40.776156 2.5459,0.13375 44.34381,-0.11943 52.6958,1.72532 7.71585,1.70424 83.3004,-2.36494 86.25439,-0.98133 8.67316,4.0624 8.34901,10.10947 8.34901,18.12594 z"
       copytype="single_stretched"
       prop_scale="1"
       scale_y_rel="false"
       spacing="0"
       normal_offset="0"
       tang_offset="0"
       prop_units="false"
       vertical_pattern="false"
       hide_knot="false"
       fuse_tolerance="0" />
    <inkscape:path-effect
       effect="skeletal"
       id="path-effect10"
       is_visible="true"
       lpeversion="1"
       pattern="m 474.29422,-121.34914 c 0,5.3768 -5.75561,13.72764 -10.07221,17.62495 -5.78784,5.225642 -99.23718,9.865595 -108.57069,6.297725 -9.37588,-3.584065 -27.13627,2.370483 -44.32358,-2.016449 -19.56142,-4.992906 -14.45028,-42.358406 15.66728,-40.776156 2.5459,0.13375 44.34381,-0.11943 52.6958,1.72532 7.71585,1.70424 83.3004,-2.36494 86.25439,-0.98133 8.67316,4.0624 8.34901,10.10947 8.34901,18.12594 z"
       copytype="single_stretched"
       prop_scale="1"
       scale_y_rel="false"
       spacing="0"
       normal_offset="0"
       tang_offset="0"
       prop_units="false"
       vertical_pattern="false"
       hide_knot="false"
       fuse_tolerance="0" />
    <inkscape:path-effect
       effect="skeletal"
       id="path-effect9"
       is_visible="true"
       lpeversion="1"
       pattern="m 474.29422,-121.34914 c 0,5.3768 -5.75561,13.72764 -10.07221,17.62495 -5.78784,5.225642 -99.23718,9.865595 -108.57069,6.297725 -9.37588,-3.584065 -27.13627,2.370483 -44.32358,-2.016449 -19.56142,-4.992906 -14.45028,-42.358406 15.66728,-40.776156 2.5459,0.13375 44.34381,-0.11943 52.6958,1.72532 7.71585,1.70424 83.3004,-2.36494 86.25439,-0.98133 8.67316,4.0624 8.34901,10.10947 8.34901,18.12594 z"
       copytype="single_stretched"
       prop_scale="1"
       scale_y_rel="false"
       spacing="0"
       normal_offset="0"
       tang_offset="0"
       prop_units="false"
       vertical_pattern="false"
       hide_knot="false"
       fuse_tolerance="0" />
    <inkscape:path-effect
       effect="skeletal"
       id="path-effect8"
       is_visible="true"
       lpeversion="1"
       pattern="m 474.29422,-121.34914 c 0,5.3768 -5.75561,13.72764 -10.07221,17.62495 -5.78784,5.225642 -99.23718,9.865595 -108.57069,6.297725 -9.37588,-3.584065 -27.13627,2.370483 -44.32358,-2.016449 -19.56142,-4.992906 -14.45028,-42.358406 15.66728,-40.776156 2.5459,0.13375 44.34381,-0.11943 52.6958,1.72532 7.71585,1.70424 83.3004,-2.36494 86.25439,-0.98133 8.67316,4.0624 8.34901,10.10947 8.34901,18.12594 z"
       copytype="single_stretched"
       prop_scale="1"
       scale_y_rel="false"
       spacing="0"
       normal_offset="0"
       tang_offset="0"
       prop_units="false"
       vertical_pattern="false"
       hide_knot="false"
       fuse_tolerance="0" />
    <inkscape:path-effect
       effect="skeletal"
       id="path-effect7"
       is_visible="true"
       lpeversion="1"
       pattern="m 474.29422,-121.34914 c 0,5.3768 -5.75561,13.72764 -10.07221,17.62495 -5.78784,5.225642 -99.23718,9.865595 -108.57069,6.297725 -9.37588,-3.584065 -27.13627,2.370483 -44.32358,-2.016449 -19.56142,-4.992906 -14.45028,-42.358406 15.66728,-40.776156 2.5459,0.13375 44.34381,-0.11943 52.6958,1.72532 7.71585,1.70424 83.3004,-2.36494 86.25439,-0.98133 8.67316,4.0624 8.34901,10.10947 8.34901,18.12594 z"
       copytype="single_stretched"
       prop_scale="1.2038901"
       scale_y_rel="false"
       spacing="0"
       normal_offset="0"
       tang_offset="0"
       prop_units="false"
       vertical_pattern="false"
       hide_knot="false"
       fuse_tolerance="0" />
    <inkscape:path-effect
       effect="skeletal"
       id="path-effect4"
       is_visible="true"
       lpeversion="1"
       pattern="m 474.29422,-121.34914 c 0,5.3768 -5.75561,13.72764 -10.07221,17.62495 -5.78784,5.225642 -117.54537,9.069587 -126.87888,5.501717 -9.37588,-3.584067 -19.17619,-1.211555 -26.01539,-1.220441 -13.75392,-0.01787 3.43359,-7.514706 -0.40951,-19.275076 12.08339,-12.76778 -14.52949,-7.59803 -2.94866,-11.19198 20.3854,-6.32632 -17.87961,-1.89665 -1.85516,-5.85135 21.76255,-5.37082 -12.58858,-9.09337 31.22872,-8.03979 6.33364,0 123.65801,2.01029 128.60208,4.32603 8.67316,4.0624 8.34901,10.10947 8.34901,18.12594 z"
       copytype="single_stretched"
       prop_scale="1"
       scale_y_rel="false"
       spacing="0"
       normal_offset="0"
       tang_offset="0"
       prop_units="false"
       vertical_pattern="false"
       hide_knot="false"
       fuse_tolerance="0" />
    <style
       id="style1">
      .st0 {
        fill: #f8cfb0;
      }

      .st1 {
        fill: #e94e1b;
      }

      .st2 {
        fill: #fde0c7;
      }

      .st3 {
        fill: #e56d4b;
      }

      .st4 {
        fill: #eb7e65;
      }

      .st5 {
        fill: #a43223;
      }

      .st6 {
        fill: #ed6f4f;
      }

      .st7 {
        fill: #eb775c;
        stroke: #e04b26;
        stroke-miterlimit: 10;
        stroke-width: 18px;
      }

      .st8 {
        fill: #f49a6c;
      }

      .st9 {
        fill: #d54428;
      }

      .st10 {
        fill: #d75530;
      }

      .st11 {
        display: none;
      }
    </style>
  </defs>
  <g
     id="Calque_3"
     transform="translate(-259.3,-143.24567)">
    <ellipse
       class="st6"
       cx="422.39999"
       cy="307.70001"
       rx="163"
       ry="160.10001"
       transform="rotate(-5.6,422.53248,307.6008)"
       id="ellipse1" />
    <g
       id="Calque_5">
      <path
         class="st9"
         d="m 584.4,292.3 c -8.6,-88 -88.2,-152.2 -177.8,-143.4 -28.4,2.8 -54.4,12.6 -76.4,27.4 l 74.2,-20.8 2.2,7.7 -93.2,26.2 c -3.8,3.4 -7.4,6.9 -10.9,10.6 l 106,-29.8 2.2,7.7 -117.6,33 c -2.4,3.1 -4.7,6.2 -6.9,9.5 l 126.4,-35.5 2.2,7.7 -134.8,37.9 c -1.7,2.9 -3.2,5.9 -4.7,8.9 l 141.5,-39.7 2.2,7.7 -147.9,41.5 c -4.4,10.7 -7.6,21.9 -9.6,33.4 l 165.5,-46.5 2.2,7.7 -168.9,47.4 c -0.3,2.6 -0.5,5.1 -0.7,7.7 l 171.5,-48.2 2.2,7.7 -174,48.9 c 0,2.5 0,5 0.1,7.5 l 175.9,-49.4 2.2,7.7 -177.5,49.8 c 0,0.5 0,0.9 0.1,1.4 0.2,2 0.4,3.9 0.7,5.9 l 178.6,-50.2 2.2,7.7 -179.5,50.4 c 1.6,8.7 3.9,17.1 6.9,25.1 l 179.7,-50.5 2.2,7.7 -178.9,50.2 c 1,2.3 2,4.5 3,6.7 l 177.8,-49.9 2.2,7.7 -176.2,49.5 c 1.2,2.2 2.5,4.4 3.8,6.5 l 174.4,-49 2.2,7.7 -172,48.3 c 1.5,2.1 3,4.2 4.5,6.3 l 169.4,-47.6 2.2,7.7 -166.1,46.7 c 6.5,7.7 13.7,14.7 21.6,21 l 151.6,-42.6 2.2,7.7 -145.8,40.9 c 2.6,1.8 5.2,3.6 8,5.3 l 139.8,-39.3 2.2,7.7 -132.3,37.2 c 3.2,1.7 6.5,3.3 9.8,4.8 l 124.5,-35 2.2,7.7 -114.5,32.2 c 4.2,1.5 8.4,2.8 12.7,4 l 103.8,-29.1 2.2,7.7 -89.1,25 c 13.7,2.2 27.8,2.7 42.2,1.2 89.6,-8.8 155.2,-87.2 146.6,-175.2 z"
         id="path1" />
    </g>
    <ellipse
       class="st8"
       cx="447.5"
       cy="303.29999"
       rx="153.5"
       ry="160.10001"
       transform="rotate(-5.6,447.36826,302.66686)"
       id="ellipse2" />
    <ellipse
       class="st2"
       cx="447.5"
       cy="303.29999"
       rx="112.7"
       ry="117.6"
       transform="rotate(-5.6,447.36826,302.66686)"
       id="ellipse3" />
    <path
       class="st0"
       d="m 426.9,203.1 c 62,-6.1 117.3,41.4 123.7,106 2.1,21.1 -1.3,41.3 -9,59.3 13.9,-21.8 21,-48.5 18.2,-76.7 -6.3,-64.6 -61.7,-112.1 -123.7,-106 -41.8,4.1 -75.9,31.5 -91.7,68.7 18,-28.1 47.6,-47.8 82.5,-51.3 z"
       id="path3" />
  </g>
  <g
     class="st9"
     id="g350"
     style="enable-background:new"
     transform="matrix(0.90122819,0,0,0.90302902,-172.5596,-164.49091)">
    <g
       id="g349">
      <g
         id="g348">
        <path
           class="st10"
           d="m 453.7,264.3 c 3.4,1.6 5.1,4.6 6,8.1 1.8,7 1.8,14.2 0.9,21.3 -0.4,3 -2.1,5.5 -4.1,7.7 -0.4,0.5 -1,0.8 -1.6,1 -2.5,0.8 -5,1.6 -7.5,2.4 -2.4,0.8 -4.9,0.8 -7.3,1.2 -8.2,1.2 -16.4,2.1 -24.5,4.1 -0.7,0.2 -1.5,0.4 -2.2,0.7 -1.9,0.8 -2.3,1.6 -2.3,3.6 0,3.5 0.7,6.8 1.1,10.3 0.3,2.8 0.2,5.6 -0.3,8.4 -0.7,4.1 -0.1,8.1 0.6,12.2 0.8,4.5 1.9,8.8 2.4,13.3 0.3,3.1 0.3,6.1 -0.3,9.2 -1,5.5 -0.6,11.1 -0.4,16.7 0.2,6.2 0.4,12.5 0.4,18.7 0,3.7 -0.4,7.5 0.3,11.1 1.1,5.8 0.3,11.6 0.8,17.5 0.4,4.6 1.2,9.1 2.1,13.6 0.2,1.2 0.4,2.4 0.6,3.6 0,0.2 0.1,0.4 0,0.6 -1.2,3.5 -0.6,7.1 -1.3,10.7 -0.7,3.4 -2.4,5.9 -5.3,8 -2.7,2 -5.6,2.9 -8.8,3.2 -5.4,0.5 -10.8,0.9 -16.2,0.9 -1.3,0 -2.6,-0.2 -3.8,-0.3 -3.2,-0.5 -5.2,-2.4 -6.3,-5.4 -1.2,-3.3 -1.7,-6.8 -2.1,-10.3 0,-0.1 0,-0.2 0,-0.4 -1.6,-4.3 -1.4,-8.8 -1.5,-13.3 -0.1,-3.9 -0.6,-7.8 -1,-11.7 -0.3,-3.4 -0.3,-6.7 -0.1,-10.1 0.4,-6.9 0.8,-13.8 0.3,-20.6 -0.5,-6.8 -0.4,-13.5 -0.3,-20.3 0.2,-11.4 0.6,-22.9 0.4,-34.3 -0.1,-5.5 -0.7,-11 -0.5,-16.5 0,-0.1 0,-0.2 0,-0.2 -0.9,-2.3 -1,-4.5 -0.2,-6.8 0.4,-1.1 -0.2,-1.6 -1.6,-1.6 -3.3,-0.1 -6.6,0.1 -9.9,0.5 -4.9,0.5 -9.6,1.8 -14.4,2.6 -3.2,0.5 -5.7,-0.5 -7.7,-2.9 -2.4,-3 -3.6,-6.4 -4.1,-10.2 -0.8,-7.2 -0.4,-14.5 -0.4,-21.7 0,-2.3 1.3,-4.3 3,-6 0.5,-0.5 1.1,-0.6 1.8,-0.7 8,-1.5 16.1,-2.3 24.1,-2.9 5.7,-0.5 11.4,-1.3 17,-2.2 17,-2.7 33.8,-6.4 50.7,-9.5 5.5,-1 11,-1.8 16.6,-2.7 0.3,0 0.5,-0.2 0.8,-0.3 1.9,-0.3 4,-0.3 6.1,-0.3 z m -113.4,33.6 c 0.4,-0.2 0.6,-0.5 0.6,-0.9 0,-0.3 -0.2,-0.5 -0.5,-0.5 -0.5,0.1 -0.6,0.5 -0.6,0.9 0.1,0.3 0.1,0.5 0.5,0.5 z"
           id="path347"
           style="fill:#f15727" />
      </g>
    </g>
  </g>
  <rect
     class="st4"
     x="389.8606"
     y="183.10635"
     width="187.39999"
     height="43.700001"
     rx="16"
     ry="16"
     id="rect4"
     style="fill:#1d1d1b" />
  <path
     id="rect4-0"
     style="fill:#1d1d1b"
     class="st4"
     d="m 451.34307,88.591045 c 20.61765,-0.216288 37.11306,27.764595 59.64735,28.113775 25.57725,0.39633 35.90127,-25.318481 52.68217,-24.857325 8.86065,0.2435 13.84352,4.979523 13.84352,13.843525 v 11.7 c 0,8.864 -6.8138,14.2057 -14.11308,19.23471 -17.43472,12.01206 -31.83896,20.46398 -52.40065,20.21697 -22.33789,-0.81448 -41.59572,-28.1419 -59.67289,-28.03419 -25.1649,2.07332 -26.61044,11.83421 -45.48293,28.03419 -6.7259,5.77345 -16,-7.136 -16,-16 v -11.7 c 0,-5.34764 38.70109,-40.374864 61.49651,-40.551655 z"
     sodipodi:nodetypes="csssssccsssc" />
  <path
     style="font-variation-settings:normal;opacity:1;vector-effect:none;fill:#000000;fill-opacity:1;stroke:#000000;stroke-width:0.999999px;stroke-linecap:butt;stroke-linejoin:miter;stroke-miterlimit:4;stroke-dasharray:none;stroke-dashoffset:0;stroke-opacity:1;-inkscape-stroke:none;stop-color:#000000;stop-opacity:1"
     d="m 846.91895,313.29919 c -3.28718,0.11356 -7.44399,-3.1046 -11.3767,-7.87596 -3.85793,-4.68062 -7.44246,-10.78175 -9.68556,-15.43291 -0.68212,-1.41441 -1.16443,-4.57294 -1.98326,-9.24612 -2.24493,-10.31222 -3.96205,-23.86362 -4.98916,-41.98482 -0.98543,-17.3859 -1.08428,-37.08248 -2.49096,-56.11342 -2.38844,-20.59312 -2.56504,-40.393 -3.97949,-57.34031 -0.79872,-13.56974 -2.9776,-31.217267 -4.19948,-43.468304 -2.44819,-24.742525 -2.4506,-41.752509 -1.13434,-48.849108 0.0165,-0.0892 0.033,-0.178696 0.0493,-0.268492 0.26637,-1.278799 0.54755,-1.673294 0.68734,-0.940856 -2.08904,-1.761018 -0.0697,2.56863 5.90365,13.675602 0,-2e-6 1.4e-4,1.6e-4 1.4e-4,1.6e-4 4.84865,5.444244 11.60011,8.080187 20.33256,7.890911 0,0 2.5e-4,-6e-6 2.5e-4,-6e-6 7.11195,-1.670865 11.01963,-3.186968 11.65224,-4.609862 0,0 2e-5,-3.4e-5 2e-5,-3.4e-5 3.15502,-2.965493 4.54635,-4.347251 3.95423,-4.176095 -7.2e-4,-0.361214 -0.3694,0.26141 -1.3779,1.862297 -0.67845,1.131411 -1.62514,2.880479 -3.03019,5.268815 -2.62163,4.212528 -5.14249,7.690825 -7.48851,10.714221 -2.9972,3.941703 -5.96912,7.68755 -9.11833,11.546889 -6.95792,8.536722 -14.27162,17.053958 -22.31477,25.541134 -6.71502,7.093858 -13.73799,13.897698 -21.02652,20.194648 -0.96385,0.83272 -1.91741,1.61197 -2.85968,2.33928 -4.24477,3.28253 -8.2319,5.41752 -11.84826,6.66476 -6.12896,2.2863 -12.90943,1.25794 -17.19405,-1.38288 -5.08299,-3.13289 -7.65473,-8.85624 -7.16099,-18.07478 0.29704,-4.69602 1.56393,-9.917517 3.8169,-15.536643 3.57739,-8.919691 9.66387,-18.600011 18.61035,-28.75213 1.58169,-1.796052 3.24566,-3.596911 4.99549,-5.406287 0.39738,-0.410903 8.97396,-9.602445 16.90315,-18.672403 2.61917,-3.00057 5.42497,-6.2529 7.94253,-9.417304 1.78711,-2.312877 3.22434,-4.062319 3.86336,-5.201676 0.33958,-0.520597 0.95274,-1.731259 1.97531,-3.581415 0,0 10e-6,-9e-6 10e-6,-9e-6 0.71752,-1.426558 2.08982,-3.831116 4.30963,-7.082787 0,0 0,-1.1e-5 0,-1.1e-5 0.0664,-0.720617 2.25665,-3.096715 6.678,-6.997424 0,0 7e-5,-5.95e-5 7e-5,-5.95e-5 0.96031,-1.7216907 5.46963,-3.5300034 13.53013,-5.3599271 9.6715,-0.215532 17.23749,2.7453834 22.65286,8.8521186 7.0146,12.661331 9.16588,18.704689 6.86279,17.870382 0.0565,3.128134 -0.095,5.148351 -0.30859,6.060584 -0.41395,13.878246 0.97141,30.089278 1.59962,40.589339 0.30353,5.066982 0.48223,9.065564 0.45787,11.813121 -0.0368,4.152578 1.39309,16.403721 2.27121,34.220341 1.19552,17.3105 1.17232,37.91026 3.22457,56.84849 0,0 0,10e-6 0,10e-6 1.08427,19.74919 0.89935,40.99275 1.1449,57.41055 0.27419,18.33277 1.01652,29.88123 2.26156,40.57184 0.31974,9.31145 -0.0633,15.38693 -0.2626,16.21379 -2.5102,10.41474 -5.78909,15.00348 -9.22317,17.18596 -3.59958,2.28765 -7.77791,2.26925 -12.62756,2.43679 z"
     id="path7"
     inkscape:path-effect="#path-effect7"
     inkscape:original-d="m 751.26204,125.98827 c 10.91768,-17.68963 63.03271,-68.51934 73.70543,-86.333561 2.75432,-4.687005 8.44557,-17.411523 7.06569,-5.327015 -0.45808,30.016054 5.20241,59.646027 6.47678,89.582036 1.22718,19.04817 0.87595,38.13434 2.56244,57.14934 1.30955,32.75088 -1.48248,65.63666 2.10404,98.28244 0.40531,11.36245 -0.41626,22.72894 -0.0235,34.09144"
     transform="matrix(0.88218862,0.09543562,-0.1068072,0.78826353,-5.371514,-43.728354)"
     sodipodi:nodetypes="ccccccc" />
  <g
     id="g17"
     transform="matrix(0.8889572,0,0,0.66727294,106.5641,57.958851)">
    <path
       style="font-variation-settings:normal;opacity:1;vector-effect:none;fill:#000000;fill-opacity:1;stroke:#000000;stroke-width:0.999999px;stroke-linecap:butt;stroke-linejoin:miter;stroke-miterlimit:4;stroke-dasharray:none;stroke-dashoffset:0;stroke-opacity:1;-inkscape-stroke:none;stop-color:#000000;stop-opacity:1"
       d="m 953.33314,268.15176 c -0.0896,1.34748 -1.25101,2.82684 -2.84711,4.32188 -0.7063,0.79224 -1.38889,1.53975 -2.07164,2.34099 0,0 -10e-6,0 -10e-6,0 -5.03726,5.73558 -13.2503,11.32355 -20.70727,14.78722 -1.11399,0.51744 -3.51827,1.18012 -6.96126,1.86251 -7.25669,1.3964 -18.71045,2.89588 -33.39696,3.58921 -6.83438,-0.33696 -15.77936,-0.78571 -24.90809,-1.88785 -6.55327,-0.77522 -14.0006,-2.22641 -21.89386,-5.02587 -7.57557,-2.80931 -14.66099,-6.66142 -21.09594,-11.36491 -8.07591,-6.01492 -15.09505,-12.61451 -21.50047,-19.31442 -6.36184,-8.37461 -10.90017,-17.22274 -14.06961,-25.86587 0,0 0,-3e-5 0,-3e-5 -3.30457,-9.16101 -5.51162,-18.29101 -7.00112,-27.11184 -3.05453,-17.65982 -3.79223,-34.75013 -3.39784,-50.29344 -0.89909,-17.5606 1.21212,-33.44278 5.22038,-47.28511 6.17822,-21.280738 16.99996,-34.667522 21.22248,-38.903664 1.72754,-1.733107 3.59268,-3.586236 5.59832,-5.49704 6.58334,-5.31249 14.95559,-11.691743 25.30505,-17.170497 0,10e-7 0,-4e-6 0,-4e-6 7.68139,-3.925301 16.12902,-7.100379 25.26108,-9.13539 18.08051,-3.709987 35.09427,-3.840948 51.80057,-3.110033 5.94956,1.289512 12.2655,2.152738 18.99289,3.000757 11.73398,1.479124 20.30379,3.834601 25.87814,7.626233 5.37632,3.656934 6.96037,8.10857 5.19769,12.561336 -1.72071,4.346733 -6.81424,9.005618 -15.11645,12.662398 -7.89842,3.478928 -21.02794,6.965059 -38.19262,5.471171 -10e-6,-10e-7 -2e-5,-10e-7 -2e-5,-10e-7 -6.64949,0.605931 -12.94871,0.742234 -19.90085,0.798374 -0.40637,0.0033 -11.4802,0.07378 -20.21209,2.152413 -4.84191,1.000171 -10.14838,2.574283 -15.09761,5.06254 0,1e-6 0,2e-6 0,3e-6 -4.89895,2.277162 -9.74894,5.678747 -14.59002,9.937919 -7.09101,7.121155 -11.6489,16.987095 -14.51143,26.317945 -3.12107,10.17009 -4.0593,20.11737 -4.6441,24.57348 -0.2458,1.87304 -0.47148,5.60016 -0.36174,10.7182 -0.39233,10.18359 -0.4122,26.81761 2.45661,44.05785 1.16517,6.81312 2.70484,13.72827 5.03232,20.09476 1.85587,5.20555 3.86163,9.86968 6.51376,13.09956 5.05094,5.18974 9.80347,9.79672 14.66988,13.19279 3.7989,2.7438 7.55962,4.91025 11.24388,6.22582 3.80313,1.49529 8.50146,2.38809 13.49043,3.18108 6.3596,0.99431 13.92737,1.60616 20.46863,2.22781 11.81178,-0.19235 21.06138,-0.91492 28.00942,-1.59242 6.53047,-0.65559 10.55559,-1.12772 11.51486,-1.08965 8.36849,0.33214 13.32703,0.95984 16.60928,2.21765 2.22716,0.49489 3.89535,1.06587 5.1484,1.69909 3.74523,3.14739 3.10864,6.88917 2.84404,10.86705 z"
       id="path8"
       inkscape:path-effect="#path-effect8"
       inkscape:original-d="m 958.62827,54.988237 c -17.44311,-0.158768 -35.02938,0.891362 -52.3064,-1.905526 -34.35323,0.136644 -59.92977,-0.600835 -86.69719,23.777912 -19.35309,20.497503 -25.28857,49.836087 -24.19767,77.213897 -0.80176,27.29964 1.65568,68.13959 18.22715,90.2572 26.34717,28.30182 39.32077,29.54723 74.53609,33.06226 19.96843,-0.0853 43.00285,-1.85148 59.65816,-6.1201 l 2.6379,-0.17467 2.64314,0.17609"
       sodipodi:nodetypes="ccccccccc" />
    <path
       style="font-variation-settings:normal;opacity:1;vector-effect:none;fill:#000000;fill-opacity:1;stroke:#000000;stroke-width:0.999999px;stroke-linecap:butt;stroke-linejoin:miter;stroke-miterlimit:4;stroke-dasharray:none;stroke-dashoffset:0;stroke-opacity:1;-inkscape-stroke:none;stop-color:#000000;stop-opacity:1"
       d="m 734.35189,205.39049 c -0.26772,-2.7413 0.56856,-6.15244 2.35671,-9.52917 1.77551,-3.35287 4.30111,-6.32061 6.56039,-8.21623 1.12444,-0.94345 4.95086,-1.59664 9.89993,-1.93838 4.1415,-0.33661 10.82124,-0.42351 14.20062,-1.18573 -10e-6,0 0,0 0,0 13.77595,-3.50029 28.70639,-5.61998 43.04936,-5.75628 11.86177,-0.31939 21.23202,-0.24853 23.62747,0.77808 7.78638,3.33697 21.77014,-3.2472 35.97517,-0.50808 8.08359,1.55875 12.65619,11.49667 11.84404,21.4825 -0.80742,9.9275 -7.43042,20.0544 -21.17121,20.37622 -6.2585,0.14658 -15.2209,0.91885 -21.4794,1.06543 -10.52664,0.23155 -21.30661,-0.0569 -25.00029,-0.97677 -0.70671,-0.17601 -2.06636,-0.28451 -3.93436,-0.34591 -8.91323,-0.40332 -22.91863,0.98029 -39.13749,4.0212 0,0 -10e-6,0 -10e-6,0 -8.95746,0.4687 -17.20113,-0.13775 -21.56393,-0.43718 -5.79423,-0.29742 -8.76591,-0.65476 -9.07313,-0.90914 -2.48103,-2.05435 -3.76734,-4.61315 -4.58472,-7.48493 -0.8802,-3.09252 -1.16505,-6.29799 -1.56915,-10.43563 z"
       id="path9"
       inkscape:path-effect="#path-effect9"
       inkscape:original-d="m 881.96612,196.38181 c -29.52126,4.34657 -52.67952,4.28516 -71.61989,4.33976 -14.04676,-0.13348 -28.95768,1.29746 -41.15672,3.15841 -10.5104,0.37949 -24.75552,-2.6195 -35.14309,-1.60473"
       sodipodi:nodetypes="cccc" />
    <path
       style="font-variation-settings:normal;opacity:1;vector-effect:none;fill:#000000;fill-opacity:1;stroke:#000000;stroke-width:0.999999px;stroke-linecap:butt;stroke-linejoin:miter;stroke-miterlimit:4;stroke-dasharray:none;stroke-dashoffset:0;stroke-opacity:1;-inkscape-stroke:none;stop-color:#000000;stop-opacity:1"
       d="m 736.24677,151.97511 c -1.61337,-1.24392 -3.09735,-2.88872 -3.59424,-5.72943 -0.48975,-2.7999 0.14663,-6.0091 1.18022,-8.67901 0,0 0,0 0,0 0.76077,-2.10843 1.81065,-4.02434 2.86948,-5.51844 0.55381,-0.78147 2.32702,-1.93551 4.74804,-3.00259 5.03203,-2.28223 12.03492,-4.20461 20.68552,-5.68835 0,0 0,0 0,0 6.45192,-1.13185 13.04346,-1.93933 19.91283,-2.67159 2.65132,-0.28394 5.15701,-0.53978 7.54186,-0.82132 0,0 0,0 0,0 2.26763,-0.26552 3.94989,-0.44735 5.06511,-0.69614 17.0123,-1.32955 32.2857,-3.28333 36.19759,-2.01554 1.65841,0.53748 3.55588,0.68345 5.66226,0.59287 8.5152,-0.37981 20.7639,-4.77695 33.37466,-1.79363 8.9181,2.10975 12.11991,12.78017 10.05394,22.5705 -2.06597,9.79033 -8.55301,18.76645 -20.83215,18.94464 -1.53724,0.0223 -8.51833,0.67983 -18.39675,1.5081 -10.39897,0.9006 -21.58391,1.61601 -25.80287,0.87967 -1.98685,-0.34676 -8.17394,0.14519 -16.77125,0.5799 -2.51925,0.3883 -4.58492,0.57627 -6.2614,0.69556 -2.87794,0.23461 -5.46764,0.41268 -8.26096,0.61476 -6.62694,0.48401 -12.69534,0.95426 -18.52773,1.61886 0,0 0,0 0,0 -7.92266,0.95472 -11.4783,1.51463 -15.29562,2.46014 -2.05547,0.56882 -2.53469,0.56286 -2.6814,0.41734 -0.27766,-0.27542 -0.52201,-0.57384 -0.74709,-0.87324 -1.17293,-0.89865 -1.06359,-4.87998 -2.78,-7.11515 -1.47597,-1.92207 -4.74593,-4.27784 -7.34005,-6.27791 z"
       id="path10"
       inkscape:path-effect="#path-effect10"
       inkscape:original-d="m 880.59203,134.43832 c -29.31424,0.25199 -54.87456,5.27803 -84.12753,6.14689 -11.50622,1.60775 -55.39213,0.001 -62.69738,9.47966"
       sodipodi:nodetypes="ccc" />
  </g>
  <g
     id="g15"
     transform="matrix(0.88863071,0,0,0.79401975,106.59791,8.400867)">
    <path
       style="font-variation-settings:normal;vector-effect:none;fill:#000000;fill-opacity:1;stroke:#000000;stroke-width:0.999999px;stroke-linecap:butt;stroke-linejoin:miter;stroke-miterlimit:4;stroke-dasharray:none;stroke-dashoffset:0;stroke-opacity:1;-inkscape-stroke:none;stop-color:#000000"
       d="m 1070.8801,250.52297 c 0.7012,1.51625 0.1436,3.93289 -1.527,6.79709 -1.6979,2.91128 -4.3782,6.02277 -7.6482,9.13298 0,0 0,0 0,0 -4.0214,3.81324 -8.7082,7.30593 -13.2123,9.9864 -0.4815,0.28655 -1.2093,0.63363 -2.1657,1.02877 -3.0632,1.26945 -9.3364,3.3599 -17.5791,5.14566 -4.5837,0.93416 -10.711,1.92875 -17.8439,2.16621 -14.4088,-1.64051 -30.4594,-7.48555 -44.61014,-19.38067 -11.39494,-9.84886 -21.29282,-23.55197 -26.63223,-40.59993 -6.81768,-29.76111 -5.58376,-63.38073 8.70503,-94.23206 4.75058,-8.61081 10.24776,-17.33436 17.27729,-25.78354 7.93093,-9.201044 18.10582,-16.929566 30.15273,-22.260946 9.55642,-2.476318 18.99962,-2.695001 27.72652,-1.214914 8.8907,1.848642 16.4273,5.28942 22.53,9.349172 18.2754,11.540618 24.9379,26.909658 27.2688,34.413148 0.416,0.80508 0.7523,1.51723 1.013,2.11874 2.0638,4.76328 4.0488,9.87471 5.7362,15.59303 2.0678,6.23817 4.0673,14.04642 4.6987,23.14331 0,0 0,1e-5 0,1e-5 1.0006,7.05455 -0.369,16.60657 -6.5206,27.26929 -3.3182,4.83669 -7.6588,8.75192 -12.862,11.45357 -6.0511,2.89601 -11.8308,4.32815 -16.9504,4.48415 -20.377,1.11498 -41.4215,1.00178 -62.42947,-0.77841 -13.81273,-1.17047 -23.29347,-4.24416 -28.4682,-8.24378 -5.18628,-4.00855 -6.17407,-9.05809 -2.61298,-14.07496 3.56613,-5.02399 11.65228,-9.92296 24.35405,-13.40709 12.99646,-3.56497 29.431,-5.34565 50.7413,-5.29921 1.0526,0.002 7.9976,-0.0747 16.4729,-0.38297 0,0 0,0 0,0 0.7851,-0.21076 1.008,-0.0623 -0.1467,0.23068 -0.9562,0.48675 -1.7425,1.17834 -2.5813,2.30844 -0.6831,3.70022 -0.7209,-0.24147 -0.4486,-1.51863 -0.032,-3.16804 -1.0221,-6.9892 -2.4736,-11.59604 -1.6876,-4.59367 -3.5062,-8.82548 -5.6441,-12.45951 -2.7551,-7.08127 -7.5645,-13.12823 -12.6709,-16.91503 -2.7512,-1.82782 -5.2462,-2.97091 -7.4125,-3.47491 0,0 0,0 0,0 -2.3559,-0.99847 -4.5958,-1.00557 -5.8887,-0.94315 -0.1317,0.0263 -0.2592,0.0533 -0.3818,0.0804 -2.0039,0.44206 -5.5999,2.31407 -11.65474,9.41367 -4.04,4.48292 -7.61048,10.08224 -12.31017,18.16807 0,0 -1e-5,10e-6 -1e-5,10e-6 -9.06119,17.1934 -10.70853,40.14678 -5.70685,64.99971 0,0 0,2e-5 0,2e-5 2.30891,7.90123 7.6582,15.10547 13.91582,20.47131 6.92785,6.30691 14.36255,9.76056 20.68185,10.45239 2.5248,-0.001 5.9301,-0.62612 9.1666,-1.19618 0,0 10e-5,-1e-5 10e-5,-1e-5 5.7867,-0.91174 11.3147,-2.16083 14.8005,-2.95547 3.4953,-0.80271 5.6191,-1.31426 6.3528,-1.37901 3.5401,-0.31243 6.5004,-0.5123 9.0617,-0.57517 0,0 0,0 0,0 6.8289,-0.23867 10.4374,0.91053 12.7458,2.7321 2.4235,1.91247 3.5348,4.60709 4.9805,7.73326 z"
       id="path11"
       inkscape:path-effect="#path-effect11"
       inkscape:original-d="m 952.74255,190.1936 c 31.60725,-1.18543 63.19535,-0.13483 94.76115,-1.32663 28.1552,-1.52989 16.5684,-38.89676 7.062,-54.5269 -7.9018,-20.27673 -29.3694,-36.707324 -51.7851,-30.9895 -16.23647,6.81362 -26.89296,22.66462 -35.43901,37.4398 -12.15876,24.29902 -13.4645,53.08173 -8.26653,79.31221 6.80658,23.74878 28.48676,43.85227 53.11184,47.40323 15.7523,0.0797 45.884,-7.60961 60.0111,-14.14361"
       transform="matrix(0.75216921,0,0,0.70426201,360.06869,97.270076)"
       sodipodi:nodetypes="cccccccc" />
    <path
       style="font-variation-settings:normal;vector-effect:none;fill:#000000;fill-opacity:1;stroke:#000000;stroke-width:0.999999px;stroke-linecap:butt;stroke-linejoin:miter;stroke-miterlimit:4;stroke-dasharray:none;stroke-dashoffset:0;stroke-opacity:1;-inkscape-stroke:none;stop-color:#000000"
       d="m 1185.3739,284.58245 c -2.7111,-0.12552 -5.9374,-3.97829 -8.7385,-9.53595 -2.8063,-5.56818 -5.042,-12.52712 -6.2982,-18.39596 -0.089,-0.41699 -0.158,-0.99441 -0.2075,-1.72261 -0.2726,-4.57527 0.5121,-14.923 0.6283,-27.98138 2.1658,-12.97674 2.2671,-26.49803 1.3782,-46.75316 0.5837,-14.88291 1.5456,-30.15685 -2.0604,-41.8011 -3.2539,-8.78074 -4.1533,-15.72086 -4.6446,-20.09762 -1.3477,-5.02014 -1.3112,-7.78827 -1.7656,-6.97953 0.931,1.31595 2.0283,2.20416 3.6761,2.98708 1.1389,0.17783 0.899,0.42034 -0.2912,0.31049 -2.9075,0.004 -8.8188,1.65825 -17.6645,2.45124 -4.4265,-0.12425 -10.0278,0.30454 -16.5769,0.36969 -5.0981,0.34933 -11.1418,-0.23228 -17.8225,-2.31801 -1.0038,0.52246 -1.4373,0.97101 -1.3141,1.56755 -0.7849,0.49217 -0.186,-0.001 1.8316,-1.12247 0.9348,-0.31729 2.5419,-2.11129 4.8917,-5.26978 0,0 10e-5,-1.3e-4 10e-5,-1.3e-4 2.3325,-3.91378 3.0983,-9.0673 2.4297,-15.503965 4.7531,16.571795 5.3491,31.884615 5.3729,36.219105 0.039,1.07704 0.049,1.98148 0.033,2.70096 -0.195,8.48224 0.7229,20.3468 3.683,30.50868 0.3013,11.98795 0.7464,22.54155 1.0477,34.5295 0.681,14.14508 0.1281,27.7802 -0.9417,41.30511 -0.2541,3.42298 -0.5452,6.80735 -0.8588,10.15185 -0.9568,10.20182 -3.0059,17.71681 -5.7646,22.63642 -2.7787,4.95532 -6.4873,7.6353 -10.7694,7.37804 -4.2653,-0.25625 -9.0972,-3.49711 -13.3551,-10.36005 -4.3022,-6.93446 -7.7021,-17.057 -9.3002,-30.25999 -1.1505,-9.26475 -1.3844,-18.89387 -1.1835,-30.10434 0.013,-0.74169 0.033,-4.98326 -0.1411,-10.00167 -0.9676,64.58283 1.4261,-94.40343 0.4585,-29.82061 0,0 0,-1e-5 0,-1e-5 -3.2567,-12.08932 -4.4509,-23.31177 -5.4069,-34.07277 0,0 0,-1e-5 0,-1e-5 -1.4727,-13.07743 -2.4067,-22.30941 -4.8734,-30.87155 -0.7843,-7.112445 0.2306,-12.889054 2.8881,-17.295123 2.8566,-3.957828 5.1798,-6.3031 6.8927,-7.171048 4.4648,-2.795832 7.6725,-4.150246 9.5823,-4.526837 7.0702,-1.527605 13.2327,-2.140113 18.0517,-2.362055 2.221,0.715637 5.0049,1.146619 6.7904,1.44177 1.5243,0.251981 3.6947,0.439311 7.5814,0.656481 3.2668,0.06911 8.2099,-0.291472 15.9156,-0.03381 2.5231,-0.144649 7.5282,-1.71265 16.7846,-2.329649 4.0929,-0.365243 9.3853,0.104181 15.6876,2.034831 6.5521,2.412376 12.2393,6.547362 16.4922,12.303704 5.7618,9.544484 8.1691,18.19951 8.7341,24.70742 1.3411,6.77646 1.6782,11.73935 2.8569,13.64824 5.0039,20.09347 4.52,39.13355 3.2948,55.49572 0.9701,18.76369 0.147,35.22586 -3.3903,51.23127 -0.5943,11.06249 -2.1703,22.8585 -2.7136,26.82413 0,0 0,0 0,0 -0.4427,3.29942 -0.7747,5.37732 -0.9693,6.00423 -3.2581,10.49752 -6.1724,15.28079 -9.2823,17.49423 -3.177,2.26112 -6.6126,1.92032 -10.6486,1.73345 z"
       id="path12"
       inkscape:path-effect="#path-effect12"
       inkscape:original-d="m 1114.4283,280.44001 c -3.9415,-26.95265 -0.8779,-54.2345 -1.833,-81.33617 v -32.30619 c -5.9667,-21.9224 -4.5676,-45.17033 -11.1433,-66.953079 -0.5782,-3.337444 9.7157,-5.504705 15.2105,-6.230538 10.4807,3.092316 21.5439,1.252926 32.2738,1.636129 10.3929,-0.801016 24.7619,-6.484147 32.2043,3.732915 6.1674,9.023973 4.6572,23.083213 8.6059,33.058873 4.0168,15.88794 3.026,32.33527 1.7239,48.68078 0.3686,14.88972 -0.032,32.97787 -3.6492,48.7143 -1.0817,16.89734 -4.7676,37.57304 -5.5743,55.00463"
       transform="matrix(0.75216921,0,0,0.70426201,362.06869,97.270076)"
       sodipodi:nodetypes="ccccccccccc" />
    <g
       id="g16"
       transform="translate(4)">
      <path
         style="font-variation-settings:normal;vector-effect:none;fill:#000000;fill-opacity:1;stroke:#000000;stroke-width:0.999999px;stroke-linecap:butt;stroke-linejoin:miter;stroke-miterlimit:4;stroke-dasharray:none;stroke-dashoffset:0;stroke-opacity:1;-inkscape-stroke:none;stop-color:#000000"
         d="m 1365.6298,261.9835 c 0.054,2.66872 -2.4711,6.18233 -5.7528,9.56161 -3.2736,3.37106 -7.4584,6.75967 -11.0265,8.97385 -0.8272,0.51336 -2.7897,1.11745 -5.7153,1.8 -2.0898,0.4569 -5.0521,0.9332 -8.7772,1.07589 -3.0222,0.12554 -5.8999,-0.0219 -8.6634,-0.35776 0,0 0,0 0,0 -11.2486,2.28577 -27.7044,2.30376 -44.9608,-8.6207 -8.3327,-6.36533 -13.7884,-14.17371 -16.0847,-22.08801 -2.2101,-6.75164 -3.1234,-12.21753 -3.8855,-16.20425 -3.99,-13.66078 -4.9413,-25.88589 -6.4727,-34.62573 0,0 0,-2e-5 0,-2e-5 -0.4547,-25.8418 -0.8748,-44.23949 -0.2356,-60.83345 -0.5884,-7.72879 -0.4856,-13.36154 -0.1911,-15.37775 0.8437,-5.77639 0.5053,-13.64282 -1.295,-20.64384 -0.4874,-16.622861 -1.9959,-37.454087 0.7668,-57.734825 5.0263,-36.897846 42.2538,-24.589058 40.5766,26.067242 -0.056,1.6746 -0.087,13.100409 -0.1984,27.448743 2.8049,14.68541 2.8127,27.505 3.5392,38.46241 -0.4325,12.59198 -0.7484,23.03495 -1.3565,27.9704 -0.4819,3.91096 -0.4211,15.18274 -0.379,31.35663 1.9919,10.78946 2.5188,21.41201 5.2039,28.68501 1.1941,5.92234 1.7764,10.4979 2.8375,13.19595 0,0 0,0 0,0 1.0039,1.64667 1.1149,2.62668 0.5465,1.34832 4.8361,3.55919 15.0654,3.30625 23.0094,3.07645 3.7886,0.42819 6.4465,0.7024 8.7393,0.73772 1.0049,0.0558 2.6182,-0.0731 4.1372,-0.17872 5.1411,-0.42462 8.5106,-0.58023 9.2999,-0.44073 8.2798,1.46334 12.4007,3.8853 14.3781,6.84558 1.9704,2.94986 1.8799,6.5145 1.9601,10.49998 z"
         id="path13"
         inkscape:path-effect="#path-effect13"
         inkscape:original-d="m 1272.0612,25.661177 c 0,25.661178 -0.01,51.322356 0,76.983533 2.5193,12.17966 2.5834,24.83879 3.7572,37.12446 -0.2597,20.00636 0.01,40.01439 -0.091,60.02143 1.8271,11.03752 2.2262,21.51998 5.1851,31.68174 1.6487,9.57904 2.5824,20.90398 11.1179,27.00686 9.7901,6.87927 22.6142,8.36324 34.3009,7.29485 14.6023,2.42994 13.5371,-0.14185 39.3642,-0.66105"
         transform="matrix(0.75216921,0,0,0.70426201,360.06869,97.270076)"
         sodipodi:nodetypes="cccccccc" />
      <path
         style="font-variation-settings:normal;vector-effect:none;fill:#000000;fill-opacity:1;stroke:#000000;stroke-width:0.999999px;stroke-linecap:butt;stroke-linejoin:miter;stroke-miterlimit:4;stroke-dasharray:none;stroke-dashoffset:0;stroke-opacity:1;-inkscape-stroke:none;stop-color:#000000"
         d="m 1363.7117,62.855752 c -0.01,5.331669 -4.8645,13.765433 -8.3615,17.616423 -0.735,0.809445 -3.2125,1.604975 -6.8931,2.35912 -5.7359,1.258242 -12.2763,1.92029 -20.2144,2.519529 -7.6248,0.575588 -14.9019,1.004555 -21.0541,2.419187 0,0 0,0 0,10e-7 -10.8302,3.66933 -21.5524,4.767841 -31.2842,3.900685 -5.8213,-0.04661 -10.4858,-0.302464 -12.3091,-1.11669 -4.8761,-2.177511 -12.8317,-0.955685 -23.2015,-2.362314 -6.0563,-0.475023 -10.9118,-1.589901 -14.9805,-3.74764 -2.6824,-1.422576 -4.6147,-4.677134 -6.1018,-8.599993 -1.4955,-3.944708 -2.6625,-9.057439 -1.9935,-13.984919 0.6852,-5.046287 3.2925,-9.773807 8.3568,-13.058895 4.9977,-3.241847 11.7495,-4.570107 18.1816,-3.022167 0.3292,0.07921 1.9148,0.379698 3.8415,0.761507 2.8987,0.693647 6.4271,1.093481 12.3614,1.301075 6.0174,0.210504 11.5932,0.201283 17.701,0.704031 2.3723,0.409606 4.41,0.628829 5.5561,0.954357 1.775,0.504144 7.381,0.01803 15.7984,-2.252041 9.6429,-1.388155 18.5977,-1.855869 27.7447,-2.109091 10.8197,-0.299525 13.8487,-0.246574 20.9009,-0.660291 4.9163,-0.08995 8.2038,-0.03987 8.7413,0.249455 7.5315,4.05377 7.2219,10.122168 7.21,18.128671 z"
         id="path14"
         inkscape:path-effect="#path-effect14"
         inkscape:original-d="m 1217.073,65.985885 c 9.1074,-1.143246 17.9796,0.791059 26.8341,2.170913 10.9057,2.126757 21.9269,1.42992 32.9436,1.524182 8.887,0.689765 17.6227,-0.569804 26.1684,-2.837843 14.9545,-2.01461 30.096,-0.323732 45.1319,-0.860899 5.1858,-0.0032 10.3716,-0.004 15.5573,0.0037"
         transform="matrix(0.75216921,0,0,0.70426201,358.69001,125.66924)" />
    </g>
    <path
       style="font-variation-settings:normal;opacity:1;vector-effect:none;fill:#000000;fill-opacity:1;stroke:#000000;stroke-width:0.999999px;stroke-linecap:butt;stroke-linejoin:miter;stroke-miterlimit:4;stroke-dasharray:none;stroke-dashoffset:0;stroke-opacity:1;-inkscape-stroke:none;stop-color:#000000;stop-opacity:1"
       d="m 1079.5727,286.77247 c 1.5293,2.9604 0.5426,8.24336 -2.407,13.93325 -3.0005,5.78799 -7.6955,11.38554 -12.6999,15.45481 -3.3829,2.75079 -22.5638,10.82724 -51.0629,10.69061 -17.2358,-0.13197 -38.34774,-3.62625 -59.19771,-14.29638 -9.44371,-4.81904 -18.75274,-11.76708 -26.88385,-21.21966 -8.26199,-10.18418 -13.88409,-22.33033 -16.32772,-35.47978 0,0 -10e-6,-2e-5 -10e-6,-2e-5 -2.65132,-23.34433 -4.7146,-44.21207 -2.51962,-67.51526 0,0 0,-2e-5 0,-2e-5 1.4114,-13.49172 4.67976,-25.16274 8.57042,-34.73496 4.61338,-11.14503 9.77003,-18.56442 12.11913,-21.23146 2.88,-3.26976 5.96414,-7.02322 9.41045,-11.04394 8.1919,-9.80967 19.08422,-19.10415 33.29645,-24.718118 0,2e-6 10e-6,-3e-6 10e-6,-3e-6 12.16354,-4.783978 24.63597,-7.27817 36.86685,-7.630905 12.0564,-0.476595 23.6044,0.520003 34.4569,2.657719 0,1e-6 0,1e-6 0,1e-6 0.7858,0.150939 1.5664,0.307524 2.3418,0.469534 9.3474,1.95297 15.8216,5.477675 19.8699,9.450712 4.0822,4.00633 6.0376,8.79001 5.6531,13.60678 -0.388,4.86099 -3.1594,9.74497 -8.5637,13.91627 -5.4887,4.23647 -13.1483,7.35748 -22.7625,9.39269 -9.0035,1.90938 -17.7887,2.44323 -28.519,2.89779 -0.8222,0.048 -1.6421,0.0894 -2.4638,0.12569 -0.2919,0.0129 -11.5817,0.52486 -18.49916,3.39284 -4.24187,1.74662 -8.8069,4.39257 -11.16993,7.78926 0,0 0,1e-5 0,1e-5 -5.24439,6.58842 -9.39628,13.39264 -12.23119,20.26177 0,0 0,1e-5 0,1e-5 -3.19989,7.5139 -4.8097,15.39146 -5.85577,21.14523 -0.53222,2.70564 -0.90865,4.98453 -1.24081,6.62224 -0.4861,2.39672 -0.89431,7.82061 -0.61302,16.19372 0.33005,9.82429 1.22887,17.85076 2.49569,32.62865 0.63331,3.41678 2.4693,7.08506 5.21452,9.95553 2.67526,3.3604 6.93736,6.3404 11.9928,9.17039 10e-6,0 10e-6,0 10e-6,0 11.20471,6.22047 24.89696,8.64692 37.49576,9.45195 10.7945,0.36884 19.9991,-0.94824 26.8111,-2.36361 6.7517,-1.40281 10.9663,-2.79174 11.8993,-2.8113 8.5786,-0.1798 13.2668,0.58756 16.8855,3.12521 3.5422,2.48397 5.3274,6.24021 7.6379,10.71275 z"
       id="path15"
       inkscape:path-effect="#path-effect15"
       inkscape:original-d="m 1070.9841,117.17444 c -36.1235,-1.53413 -88.96793,-12.73963 -113.16181,19.05241 -28.28814,35.94168 -24.30369,72.12984 -20.67707,116.36288 5.91025,35.13592 46.2203,49.61208 77.61598,51.71144 22.9021,1.2278 46.1903,-3.56125 66.5873,-14.09902"
       transform="matrix(0.62773217,0,0,0.6263051,387.3659,99.897815)"
       sodipodi:nodetypes="ccccc" />
  </g>
</svg>
