<?xml version="1.0" encoding="utf-8"?>
<!-- Generator: Adobe Illustrator 26.3.1, SVG Export Plug-In . SVG Version: 6.00 Build 0)  -->
<svg version="1.1" id="Calque_1" xmlns="http://www.w3.org/2000/svg" xmlns:xlink="http://www.w3.org/1999/xlink" x="0px" y="0px"
	 viewBox="0 0 624.2 585.64" style="enable-background:new 0 0 624.2 585.64;" xml:space="preserve">
<path d="M612.42,238.89c0-1.08,0.05-2.17-0.06-3.25c-0.51-5.28-2.54-9.86-6.8-13.13c-6.99-5.38-14.1-10.58-21.16-15.87
	c-16.3-12.22-32.57-24.49-48.93-36.63c-2.12-1.58-2.83-3.27-2.82-5.86c0.11-16.75,0.03-33.5,0.07-50.25
	c0.01-3.31-0.41-6.48-2.05-9.39c-3.64-6.47-9.2-9.46-16.63-9.43c-25.16,0.07-50.33,0.01-75.5,0.05c-1.93,0-3.49-0.5-5.04-1.68
	c-7.07-5.4-14.22-10.7-21.34-16.03c-19.69-14.76-39.39-29.53-59.08-44.3c-10.05-7.53-20.05-15.12-30.14-22.59
	c-7.12-5.28-15.06-5.33-21.98-0.17c-13.34,9.94-26.62,19.94-39.93,29.91c-23.56,17.65-47.13,35.28-70.65,52.99
	c-1.78,1.34-3.54,1.88-5.73,1.88c-24.75-0.05-49.5-0.04-74.25-0.02c-2.4,0-4.81-0.08-7.17,0.72c-7.24,2.43-12.49,9.13-12.39,17.98
	c0.19,17.08,0.03,34.16,0.09,51.25c0.01,1.94-0.56,3.26-2.15,4.42c-5.24,3.82-10.38,7.78-15.57,11.67
	c-16.64,12.47-33.07,25.22-50,37.27c-8.44,6.01-12.21,13.07-12.18,23.63c0.27,102.83,0.16,205.65,0.16,308.48
	c0,1.42-0.06,2.84,0.05,4.25c0.43,5.96,2.81,10.93,7.82,14.37c3.77,2.6,8.07,3.23,12.59,3.23c93.33-0.04,186.66-0.03,279.98-0.03
	c93.16,0,186.32,0,279.48,0c1.67,0,3.35,0.09,4.99-0.14c6.21-0.85,11.09-3.75,14.09-9.46c1.8-3.43,2.23-7.08,2.23-10.87
	C612.41,447.55,612.42,343.22,612.42,238.89z M533.16,213.27c1-0.56,1.74,0.57,2.51,1.14c9.79,7.31,19.58,14.61,29.35,21.94
	c2.48,1.86,2.47,2.19,0.31,4.35c-9.81,9.82-19.61,19.64-29.45,29.44c-0.8,0.79-1.48,1.82-2.72,2.09c-0.65-0.92-0.44-1.95-0.44-2.92
	c-0.01-17.82-0.01-35.64,0-53.45C532.72,214.96,532.33,213.73,533.16,213.27z M249.74,93.08c2.82-2.19,5.69-4.33,8.55-6.48
	c12.77-9.57,25.54-19.13,38.32-28.7c4.39-3.29,8.84-6.5,13.16-9.88c1.54-1.2,2.67-1.13,4.19,0.01
	c14.41,10.85,28.86,21.65,43.29,32.47c5.45,4.09,10.9,8.19,16.34,12.28c0.64,0.48,1.65,0.94,1.29,1.87c-0.3,0.8-1.33,0.44-2.04,0.44
	c-20.32,0.02-40.64,0.01-60.96,0.01c-19.9,0-39.81,0-59.71,0c-0.67,0-1.33,0.02-2-0.01c-0.48-0.02-1.12,0.15-1.33-0.41
	C248.55,93.9,249.26,93.45,249.74,93.08z M227.35,225.77c0.93-2.36,2.41-4.39,4.2-6.19c11.38-11.38,22.76-22.77,34.14-34.15
	c10.9-10.9,21.81-21.79,32.7-32.71c3.03-3.04,6.56-5.18,10.76-6.05c2.34-0.48,4.7-0.39,7.06,0.15c3.94,0.91,7.07,3.08,9.88,5.9
	c22.06,22.1,44.15,44.18,66.24,66.25c2.36,2.36,4.22,5.02,5.15,8.23c0.92,3.17,1.02,6.39,0.27,9.63c-1.06,4.59-3.6,8.2-7.37,10.9
	c-4.32,3.1-9.16,3.88-14.35,2.82c-4.61-0.94-7.94-3.78-11.11-7.01c-11.02-11.17-22.1-22.28-33.16-33.41
	c-0.25-0.25-0.48-0.75-0.83-0.61c-0.42,0.16-0.24,0.7-0.24,1.07c-0.01,22.01-0.01,44.02-0.01,66.03c0,21.53,0.02,43.06-0.01,64.58
	c-0.01,6.66-2.81,11.97-8.33,15.7c-4.02,2.71-8.49,3.69-13.32,2.77c-6.49-1.24-10.99-5.01-13.73-10.91
	c-1.1-2.37-1.52-4.95-1.51-7.59c0.02-10.24,0.01-20.48,0.01-30.72c0-33.18,0-66.37-0.01-99.55c0-0.48,0.26-1.19-0.25-1.39
	c-0.41-0.16-0.74,0.5-1.06,0.83c-11.74,11.73-23.48,23.45-35.19,35.2c-2.22,2.23-4.78,3.89-7.79,4.75c-3,0.86-6.06,0.94-9.14,0.26
	c-3.97-0.88-7.25-2.9-9.92-5.92c-2.18-2.46-3.51-5.33-4.15-8.57C225.56,232.5,226.04,229.09,227.35,225.77z M58.54,236.36
	c10-7.44,19.98-14.93,29.97-22.39c0.58-0.43,1.17-1.15,1.95-0.67c0.64,0.39,0.43,1.21,0.43,1.86c0.01,8.83,0.01,17.66,0.01,26.49
	c0,8.58,0.01,17.16-0.01,25.74c0,0.8,0.34,1.93-0.47,2.31c-0.8,0.38-1.42-0.62-1.99-1.16c-10.07-9.57-20.1-19.18-30.21-28.71
	C56.64,238.32,57.05,237.47,58.54,236.36z M49.07,511.28c-0.66,0.3-1.2,1.26-1.91,0.9c-0.72-0.35-0.44-1.34-0.48-2.08
	c-0.03-0.58-0.01-1.17-0.01-1.75c0-75.23,0-150.46,0.01-225.7c0-1.31-0.18-2.65,0.49-4.46c4.8,4.56,9.31,8.84,13.81,13.13
	c36.22,34.49,72.43,68.99,108.64,103.48c3.98,3.79,7.93,7.61,11.97,11.33c1.59,1.46,1.43,2.43-0.24,3.71
	c-23.32,17.84-46.62,35.71-69.91,53.58c-20.59,15.79-41.19,31.59-61.78,47.38C49.45,510.96,49.28,511.17,49.07,511.28z
	 M542.58,536.32c-0.35,1.04-1.77,0.53-2.7,0.53c-74.33,0.02-148.66,0.02-222.99,0.02c-2.58,0-5.17,0-7.75,0
	c-76.58,0-153.16,0-229.74-0.03c-1.16,0-2.92,0.71-3.35-0.61c-0.31-0.93,1.42-1.6,2.33-2.28c25.41-19.06,50.61-38.41,75.67-57.94
	c18.77-14.62,37.53-29.25,56.28-43.89c1.32-1.03,2.66-1.52,4.37-1.31c1.73,0.21,3.49,0.15,5.24,0.15
	c62.58,0.01,125.16,0.02,187.74-0.04c2.84,0,5.03,0.78,7.25,2.57c33.73,27.08,67.53,54.09,101.31,81.11
	c8.19,6.55,16.37,13.1,24.54,19.66C541.52,534.84,542.91,535.33,542.58,536.32z M576.32,516.64c-1.03,0.49-1.86-0.87-2.67-1.52
	c-28.99-23.16-57.95-46.35-86.92-69.53c-13.25-10.6-26.51-21.2-39.75-31.81c-2.52-2.02-2.52-2.22-0.19-4.56
	c42.38-42.38,84.76-84.76,127.17-127.13c0.72-0.72,1.43-2.15,2.47-1.68c1.02,0.46,0.5,1.97,0.5,3.01
	c0.02,38.41,0.02,76.83,0.02,115.24c0,38.25,0,76.5-0.02,114.74C576.92,514.53,577.52,516.08,576.32,516.64z"/>
</svg>
