<?xml version="1.0" encoding="utf-8"?>
<!-- Generator: Adobe Illustrator 26.3.1, SVG Export Plug-In . SVG Version: 6.00 Build 0)  -->
<svg version="1.1" id="Calque_1" xmlns="http://www.w3.org/2000/svg" xmlns:xlink="http://www.w3.org/1999/xlink" x="0px" y="0px"
	 viewBox="0 0 405.61 405.55" style="enable-background:new 0 0 405.61 405.55;" xml:space="preserve">
<style type="text/css">
	.st0{fill:#FFF0E3;}
</style>
<g id="bVYcaj_00000013900437281203387800000009520132673389263034_">
	<g>
		<path d="M225.2,71.8c-7.88-0.2-15.83,0.51-23.65,2.04c-30.85,6.01-56.58,20.89-76.89,44.94c-8.06,9.54-14.5,20.11-19.51,31.56
			c-3.45,7.88-6.07,16.02-7.95,24.39c-0.81,3.6-1.46,7.24-1.89,10.91c-0.16,1.38,0.34,1.9,1.75,2.09
			c7.16,0.98,14.31,2.08,21.47,3.12c4.74,0.68,9.47,1.37,14.22,1.97c4.27,0.55,7.02,3.53,6.7,7.52c-0.17,2.16-1.34,3.77-3.04,5.04
			c-9.63,7.17-19.25,14.36-28.88,21.53c-12.5,9.32-25,18.65-37.5,27.96c-4.07,3.03-7.65,2.49-10.79-1.54
			c-10.54-13.53-21.1-27.06-31.65-40.58c-6.75-8.65-13.5-17.29-20.25-25.94c-2.16-2.77-2.5-5.53-0.97-8.11
			c1.53-2.59,4.33-3.75,7.68-3.25c7.46,1.1,14.93,2.17,22.39,3.28c4.63,0.69,9.26,1.42,13.88,2.16c0.95,0.15,1.54,0.13,1.71-1.09
			c1.24-8.91,3.08-17.7,5.62-26.35c6.26-21.33,16.27-40.72,29.91-58.26c11.26-14.48,24.54-26.84,39.7-37.14
			c9.47-6.43,19.5-11.85,30.07-16.3c7.53-3.17,15.21-5.86,23.1-7.94c8-2.11,16.1-3.68,24.35-4.6c8.97-1,17.95-1.59,26.97-1.18
			c7.75,0.36,15.49,1.04,23.13,2.41c8.49,1.52,16.85,3.59,25.07,6.29c12.94,4.25,25.21,9.9,36.8,17.02
			c18.95,11.64,35.11,26.37,48.48,44.16c8.37,11.14,15.26,23.13,20.79,35.91c3.36,7.77,6.14,15.77,8.28,23.97
			c2.02,7.75,3.52,15.6,4.53,23.56c1.6,12.62,1.8,25.24,0.58,37.87c-0.63,6.57-1.65,13.1-3.02,19.57
			c-1.42,6.72-3.2,13.34-5.37,19.84c-2.73,8.18-6.1,16.11-10.04,23.79c-7.16,13.95-15.99,26.75-26.6,38.3
			c-14.02,15.26-30.18,27.75-48.64,37.24c-8.33,4.28-16.91,7.92-25.8,10.84c-9.06,2.97-18.28,5.19-27.7,6.65
			c-10.58,1.64-21.21,2.49-31.9,2.09c-8.95-0.33-17.85-1.22-26.67-2.88c-7.32-1.38-14.54-3.11-21.61-5.39
			c-14.54-4.69-28.29-11.11-41.15-19.4c-3.24-2.09-6.47-4.16-8.86-7.29c-7.64-9.97-5.29-24.39,5.15-31.46
			c7.36-4.98,17.25-4.86,24.65,0.22c8.47,5.81,17.56,10.43,27.17,14.09c7.26,2.76,14.7,4.88,22.32,6.28
			c12.88,2.36,25.85,2.75,38.88,1.3c6.69-0.74,13.27-2,19.75-3.75c7.73-2.09,15.22-4.9,22.42-8.42
			c11.52-5.61,22.05-12.7,31.49-21.37c12.62-11.61,22.63-25.14,29.95-40.66c4-8.48,7-17.29,9.19-26.42
			c3.19-13.3,3.93-26.76,2.98-40.33c-0.53-7.52-1.92-14.94-3.82-22.26c-4.81-18.55-13.31-35.22-25.4-50.03
			c-11.63-14.24-25.7-25.5-42.11-33.85c-7.95-4.04-16.2-7.27-24.78-9.6C248.57,73.27,237.06,71.58,225.2,71.8z"/>
		<path d="M257.83,173.51c0,14.74-0.01,29.48,0.02,44.21c0,1.19-0.32,2-1.34,2.75c-13.56,9.9-27.07,19.85-40.61,29.78
			c-10.05,7.38-20.02,14.89-30.2,22.09c-10.64,7.53-25.45,3.56-31.06-8.06c-4.47-9.27-1.73-20.16,6.79-26.43
			c17.5-12.88,35.02-25.71,52.57-38.52c1.2-0.88,1.56-1.87,1.56-3.29c-0.03-21.56-0.07-43.12,0-64.68
			c0.03-8.27,3.61-14.69,10.78-18.99c9.84-5.91,23.83-1.82,29.01,8.45c1.67,3.31,2.52,6.77,2.5,10.5
			C257.8,145.38,257.83,159.44,257.83,173.51z"/>
	</g>
</g>
</svg>
