<svg xmlns="http://www.w3.org/2000/svg" xml:space="preserve" id="LOGO-TOPE_LA_svg__Calque_1" x="0" y="0" viewBox="0 0 532.35 532.35" alt="Logo Tope-la" height="323"><style>.LOGO-TOPE_LA_svg__st0{fill:#fcf5ef}</style><path d="M139.07 251.97c-1.6-2.3-3.51-4.41-4.95-6.8-2.11-3.51-3.8-7.06-5.9-10.57l-2.58-4.31c-1.15-.83-1.85-2.36-2.62-3.64-4.31-7.19-8.1-14.24-12.41-21.43l-3.64-6.07c-.35-.22-1.18-1.25-1.37-1.56l-3.54-5.91c-.25-.06-1.5-1.05-1.69-1.37-.1-.16-.06-.83-.06-.83-.13-.58-.54-1.63-.54-1.63l-.51-.13c-.26-.06-4.53 1.85-6.29 2.9l-2.55 1.53c-2.24 1.34-4.44 3.09-6.51 4.34-3.67 2.2-7.53-.26-10.31-2.72-.93-1.18-5.01-6.55-5.78-7.82-.1-.16-.92-1.18-1.21-1.66-1.24-2.08-2.52-5.65-1.27-7.92.8-.48 4.06-2.65 4.85-3.13 5.11-3.06 10.51-5.65 15.62-8.71 15.33-9.19 29.54-19.88 44.71-28.97 6.39-3.83 11.97 4.76 14.46 8.91 2.2 3.67 3.29 5.84 1.85 9.96-1.41 1.28-3.39 2.68-4.69 4.12l-13.57 8.14c-.32.19-3.64 2.62-3.96 2.81-1.12.67-3.26 2.17-2.49 3.45 1.63 2.71 4.15 5.11 5.78 7.83.86 1.44 1.24 3.16 2.01 4.44 3.06 5.11 8.27 8.72 11.17 13.92.19.32 1.75 4.37 1.95 4.69l1.05 1.76c3.54 5.91 7.18 10.89 10.66 17.05 1.37 1.56 2.27 4.5 4.08 5.37 1.56 2.97 4.34 7.6 6.83 10.67 1.12 1.5 4.44 4.5 5.58 6.42.1.16-.13.51-.13.51 1.18 2.33 3.83 6.39 2.87 9.13-.54 1.63-1.79 2.81-2.43 4.28l-3.19 1.91c-.8.48-5.94 3.13-7.15 3.64-6.61 3.09-8.97 3.86-14.01-2.02-1.82-1.95-1.34-2.24-3.54-3.74-.88-1.03-3.91-5.73-4.58-6.84m-66.64-67.71c.32-.19.35-.86.16-1.18 0 0-.26-.06-.42.03l-.32.19zM173.41 202.78c-4.71-8.7-7.9-18.3-10-28.13-1.28-6.01-1.77-12.76-2.18-19.14-.34-3.35.5-6.58 1.15-9.76.43-3.33.17-3.65.24-6.9-.04-.18.21-.81.21-.81.25-.62 2.51-6.06 2.94-6.72l1.4-5.06c3.05-7.12 8.02-12.37 12.91-17.98 2.58-1.31 4.19-3.56 6.36-4.97l.91-.19c3.63-1.73 6.71-3.34 10.72-4.19 5.83-1.24 11.9-.45 17.49-.12 1.87.74 2.34.26 4.5.56 3.51.39 7.03 1.74 10.19 3.16 0 0 .62.25.81.21 11.74 4.16 18.28 13.42 23.89 23.64l3.92 6.78c1.87 3.41 2.88 8.14 3.73 12.15l.66 3.09c-.18.04-.57.88-.53 1.07.04.18.84.39.88.57l.08.36-.29.44.27 1.27c.19.91.64 1.2.83 2.11.58 2.73.51 5.98 1.14 8.89.08.36.95 2.65 1.02 3.02l.27 1.27c-.12 4.78.45 9.23.37 14.2.5 7.7-3.09 14.94-5.78 21.98-.18.04-.38 1.79-.63 2.42-.65 3.18-6.47 8.04-9.51 9.83-.47.48-6.09 3.58-6.74 4.1 0 0-.51.3-.69.34-.83.56-5.55 2.52-6.61 2.93-.18.04-2.11.83-2.65.95l-.36.08c-1.64.35-5.54.8-5.54.8-3.5.56-8.21.8-12 .85l-.62-.25c-19.39.15-31.68-7.51-42.76-22.85m24.64 4.83-.08-.36s-2.85-2.63-4.03-3.71c-.26-.33-.48-.47-1.03-.35.36 1.64 3.81 3.56 5.14 4.42m-10.71-51.96.36-.08-.04-.18-.36.08zm14.54 54.76.36-.08-2.95-2.23c-.04-.18-.44-.29-.44-.29l-.36.08c.3.52 2.48 2.72 3.39 2.52m-14.53-56.48.36-.08-.13-1.5-.55.12zm5.29 22.1.55-.12-.08-.36-.55.12zm-2.86-15.19c.91-.19.68-1.29.56-1.83-.73.15-.72 1.1-.56 1.83m-2.38-12.06c.08.36.26.32.36-.08-.04-.18-.58-.06-.36.08m2.79 13.11.36-.08-.04-.18-.36.08zm-.61-5.58.36-.08-.04-.18-.36.08zm-5.8-30.74.32-.26-.73.16zm10.83 47.18c.32-.26.47-.48.39-.84-.36.08-.73.16-.83.56zM221 201c1.75.2 3.58-.19 5.21-.54 5.1-1.09 6.7-6.95 10.31-10.58.07-.58.72-3.77.75-4.54-.04-.18.5-1.25.46-1.43l.29-.44s.62.25.81.21c1.46-.31-.31-18.4-.89-21.13-1.24-5.83-3.37-12.22-5.02-18.15-.88-3.24-5.19-9.17-7.01-11.45-.74-.79-5.86-6.94-6.42-7.77-1.48-1.59-4.44-4.76-7.17-4.18l.19.91c-1.49.13-1.26-1.44-3.81-.9l-.73.16c.3.51 1.61.42 1.98.34l.08.36c-1.82.39-2.31-1.03-3.77-.72l-.18.04.7.61.08.36c-4.76 1.78-4.85 3.13-8.65 5.84-.22-.14-.44-.29-.48-.47.34 3.35-4.75 5.39-5.22 8.54-.18 2.7-.58 6.21-.58 8.88.12.55.31 4.12.32 5.07.05 1.13.89 6.85 1.16 8.13-.39.84-.15 2.89.01 3.61l.48.47c.04.18-.29.44-.29.44.16.73.48 3.13.63 3.86.58 2.73 2.04 5.09 2.62 7.82l.08.36c-.48-.47-1.1-.72-1.65-.6.19.91.6 1.01.75 1.74l.12.55-.21.81.88.57.08.36c.19.91-.05 1.53.14 2.44.35 1.64 2.34 5.59 3.11 6.57 0 0 .18-.04.22.14l-.14.22-.25.62.08.36c.39 1.82 3.29 2.92 3.71 4.92l.04.18-.29.44c.47-.48 1.13-.05 1.25.49.7.61 3.98 2.58 4.64 3.01.88.57 1.98.34 2.72 1.13zm-27.63-67.96c.55-.12 3.02-3.69 3.41-4.53l-.18.04c-1.1.23-3.51 3.22-3.23 4.49m5.5-6.31.76-.92-.36.08c-.18.04-.65.52-.65.52zm22.5 74.19c-.36.08-.52-.65-.16-.73.18-.03.34.69.16.73m16.85-18.25c-.36.08-.44-.29-.04-.18.18-.04.22.14.04.18m10.14 18.96c.18-.04.44.29.62.25l.18-.04c.91-.19 1.35-2.57 1.2-3.3-.73.16-2.12 2.55-2.04 2.91zm2.17-4.08c.04.18.22.14.18-.04.15-.22-.22-.14-.18.04m.71-2.05.18-.04-.08-.36-.18.04zM289.67 134.57l.22-1.85c.07-.55-.15-5.08-.27-5.66.22-5.03 1-10 .48-15.13l.9-7.58c.31-2.59.76-7.97 1.68-11.05.64-.67 1.91-.34 2.05-1.45.11-.92-.75-1.59-.66-2.33.92.11 1.85.22 2.63-.06 1.09.32 6.45.95 7.77.92.37.04 3.97-.28 4.34-.24 5.2.43 12.98 1.16 18.72 1.84 6.84.81 13.64 1.99 19.93 4.23 19.44 6.8 30.94 23.72 28.53 44.05-.68 5.73-2.63 11.12-5.64 16.02-.96 1.76-5.44 4.79-5.57 5.9 1.11.13 1.5-.01 2.51-.64l.33.41c-1.28 1.35-4.23 2.5-5.45 3.29-.19-.02-7.76 3.77-9.28 3.96-.37-.04-3.04.39-3.23.37-1.89.15-3.55 1.45-5.23 1.44-2.63.06-5.41-.26-7.85-.18-.19-.02-1.75.54-1.94.52s-1.13.05-1.13.05l-10.54-1.25c-.19-.02-.53-.25-.72-.27s-1.87-.03-2.06-.06c-.58.12-2.06-.06-2.59-.31-.44.51-.48.88-.52 1.25-1.66 14.05-1.11 28.36-3.16 42.55.28.78.22 1.34.11 2.26-.68 5.73-9.99 5.19-14.42 4.67-3.7-.44-7.7-1.47-11.29-2.83-.35-.23-3.54-1.73-4.47-1.84-1.39-.91-2.54-3.86-2.55-5.36.03-9.74 1.79-19.85 2.92-29.46.92-7.76.91-15.64 1.83-23.4.9-7.73 2.7-15.02 3.62-22.78m29.9 10.28c34.86 1.69 30.69-16.99 21.61-21.06-2.38-.47-2.85-1.27-5.33-2.5-2.13-1-4.51-1.47-6.89-1.94-2.59-.31-5.05-1.72-8-2.07-.31 2.59-.22 5.03-.51 7.44-.28 2.4-.92 4.58-1.2 6.98-.48 4.06.06 9 .32 13.15m23.86-41.6c-.04.37.14.39.19.02.2-.16-.17-.21-.19-.02m3.63 35.86.37.04c.19.02.36-1.46.4-1.83l.07-.55c.09-.74.08-2.24.08-2.24l-.37-.04zm3.55-7.83.02-.19c.04-.37.09-.74-.45-.99l-.04.37c-.04.37-.09.74.47.81m-.21 6.54c.23-.35.52-1.25.55-1.44.04-.37-.01-1.5-.17-1.71-.02.19-.57 1.62-.61 1.99l-.04.37c-.04.19-.08.56.27.79m14.7-29.2.19.02c.02-.18-.49-.62-.49-.62s-.16-.21-.35-.23c0 0-.02.18-.21.16.18.03.67.65.86.67m1.46 1.86c.09-.74-.44-.99-.96-1.43l-.04.37c.33.42.45 1 1 1.06M355.78 231.82c-7-4.78-4.42-9.33-2.3-15.94.39-1.26 3.37-10.97 3.93-12.15 2.44-7.29 6.05-14.85 9.41-21.91 1.36-2.86 2.72-6.13 4.75-8.67 1.67-3.94 10.09-21.59 12.1-25.37.56-1.18 6.9-14.04 7.38-15.04l1.36-2.86c.65-.93 4.68-8.08 5.16-9.09.72-1.51 2.08-4.37 3.56-5.31.17.08.83-.02 1 .06 1.83.05 1.57-.7 3.91.01 8.7 2.09 16.6 5.85 25.06 8.86l-.32.67-1.34-.64-.16.34 29.58 14.1c1.85.88 3.97 2.92 5.5 4.48l.09.25s.09.25.01.42c.96 6.64.73 12.31-2.23 18.53-.56 1.18-.65.93-1.96 1.95-2.79 2.38-5.45 2.77-8.87 2.16-.92-.23-.51-.66-1.42-.06l-5.88-2.8c-2.24.37-19.54-7.04-22.05-8.25-1.51-.72-2.45-1.79-3.79-2.43-1.51-.72-3.19-1.11-3.99.57-1.92 4.03-4.85 11.92-6.78 15.95 3.7 1.76 7.72 3.27 11.42 5.03 2.52 1.2 13.02 6 15.3 7.71 1.02.9 1.82 3.96 2.09 5.12 1.34 4.56.52 10.15-1.48 14.35-.48 1.01-4.57 5.25-4.65 5.42l-3.12 2.22c-1.65.86-22.99-9.31-25.18-10.35-1.59-.55-4.38-2.5-6.63-2.54-.5-.24-.58-.07-.74.26-1.92 4.03-5.03 11.42-6.62 15.61-.4.84-.69 3.18-.69 3.18l.17.5c.34.16 1.67.39 2.01.55l.5.24c.34.16.5.24.52 1.07 2.09.38 4.52 1.33 6.2 2.13l.34.16c1.68.8 17.48 8.75 19.16 9.55 5.4 3.81 8.92 9.41 5.88 15.79-.88 1.85-2.78 2.8-3.5 4.31-.48 1.01-.62 2.18-1.03 3.02-1.2 2.52-3.37 2.31-5.68 3.27-1.32.61-1.88 1.78-3.9.82l-8.91-4.25c-1.01-.48-.02-1.25-.86-1.65-5.21-2.48-19.38-7.38-24.42-9.78-.84-.4-1.26-.81-1.95-1.55l.58-.34c-.34-.16-1.26-.81-1.43-.89zm17.98 8.57.58.07-.84-.4zm58.13-115c-.34-.16-.02-.83.32-.67.17.08-.16.75-.32.67m-13.21 50.63c.17.08 9.83 4.89 10.17 5.06l3.55 2.93c.5.24 1.7 2.05 2.55 2.45l.41-.01c.71-2.34-3.68-5.26-5.19-5.98-1.18-.56-10.08-4.81-11.42-5.03-.08.16.01.41-.07.58M408.53 225c.08-.17.58.07.34.16-.16.34-.33.26-.34-.16m20.52-42.18c.09.25.26.33.5.24.17-.34-.34-.58-.5-.24m-12.12 46.19c.08-.17.58.07.34.16-.16.33-.33.25-.34-.16m1.92 18.03c.34.16 1.17.14 1.5-.11l.64-1.34c1.04-2.19.29-2.34-.33-4.07-.43-.82-.21-2.58-1.22-3.06-1.12 2.35 1.5 4.64.3 7.16l-.08.17s-.33.26-.5.18c.08-.17.06-1 .14-1.17-.01-.42.05-1.83.05-1.83l-.34-.16c-.47.99-1.33 3.67-.16 4.23M369.74 335.95c-.61 7.34-1.45 14.66-1.84 22.02-.05 2.3-.46 9.19-.51 9.73-.05 2.3-.2 12.74-.38 14.9.7 4.81-1.05 8.06 3.58 11.28 1.68 1.08 3.26 1.62 5.29 1.78 3.51.28 3.8-1.73 4.28-4.27l.03-.4c.03-.4.59-4.02.64-4.56.21-.93.47-.78.26-1.61l2.41-11.48c-.17-1.24.07-2.57.69-3.47.46-4.03 1.45-7.89 1.76-11.8.3-3.78.59-7.42 1.03-11.18.28-2.25.82-4.27 1.25-6.45-6.55-.28-12.97-1.43-18.49-4.49M375.04 397.77l-1.75-.14c-.82.07-4.37.33-5.2.53l-.02.27c-.04.54.45 1.12.42 1.53-.01.14-.18.53-.31.52.1.42-.05 2.3-.07 2.57s-.05.67-.08.94c-.07 2.57-.18 3.92 2.42 5.35 2.08 1.12 3.53 1.64 5.96 1.83.41.03.81.06 1.08.09 2.02.16 3.25-5.03 3.23-6.39.23-4.73-.7-6.7-5.68-7.1m-3.9 2.94c-.13-.01-.09-.55.04-.54.27.02.23.56-.04.54M203.75 414.07c.03.16.23.29.39.26l.33-.06c.16-.03.47-.26.43-.42l-.9-4.68c-1.32.26 1.01 4.32-.25 4.9"></path><path d="M239.44 425.23c-1.4-7.25-5.17-13.38-12.86-14.91-1.79.52-4.04.45-5.86.8-3.98.77-6.96 1.35-11.54 2.56-1.79.52-3.69 1.38-5.68 1.77-.06-.32-.08-1.32-.15-1.65 0 0-.23-.29-.39-.26l-.37-1.93.24-.55-.72-.19s-.83-2.52-1.05-3.64l-.06-.32c-.09-.48.63-.29.54-.77-.22-1.13-1.49-2.39-1.71-3.52l-.03-.16c.13-.19-.12-1.49.35-1.74l-.36-.1s-.54-1.9-.89-2.84l-.03-.16c.04-.68-.07-2.16-.1-2.32 0 0 .1-.35.27-.38.06.32.35.94.91 1.16 1.46-3.13-1.02-11.51-.24-12.83-.09-.48-.79-3.19-.88-3.68-.2-.13-.64-1.55-.84-1.68l-.06-.32c.13-.19.6-.45.6-.45l-1.18-6.13s-.26-.45-.29-.61l-.03-.16c-.56-2.9-.46-5.93-.85-8.86-.99-6.83-2.28-13.59-3.56-20.2-8.62 1.68-17.28 4.97-26.03 4.1l.89 4.59c2.68 13.86 4 27.82 6.65 41.53 1.03 5.32 2.39 10.57 3.38 15.73.69 3.55.98 6.84 1.6 10.06.12.64.22 1.13.34 1.77 1.15 5.97 2.46 12.74 4.88 18.12.32.77 2.93 3.61 3.22 4.23.2.13.82.68.98.64 2.3 1.23 21.03 1.12 24.51.45 5.31-1.03 8.42-4.47 13.56-5.46.5-.1 4.34-.67 4.67-.74l.83-.16c2.65-.51 6.77-4.15 7.79-6.86.31-.9-.36-3.44-.45-3.93m-55.4 9.7c-.16.03-.32-.77-.12-.64.16-.03.26.45.12.64m.89-21.24c-.33.06-.49-.74-.16-.81.17-.03.32.78.16.81m.69-18.69c-.11.35-.67-2.55-.41-2.1.2.13.51 1.74.41 2.1m.59 3.06-.06-.32c-.03-.16-.05-1.16-.08-1.32.49.74.87 1.84 1.03 2.64l-.5.1c-.01 0-.33-.78-.39-1.1m2.19 10.44.33-.06.06.32zm.3-2.89-1.86-5.16.27-.38c.61 1.39 1.57 3.71 1.92 5.48zm4.53 21.69.12.64c-.16.04-.31-.76-.12-.64m6.45 8.46.24-.55.09.48zm1.56.03c-.16.03-.32-.77-.16-.81.33-.06.49.75.16.81m21.87-8.74c-.16.03-.56-.22-.56-.22l2.32-.45.09.48c-.33.06-1.69.16-1.85.19"></path><path d="M193.87 437.72c.16-.03.1-.36-.06-.32-.17.03-.08.51.06.32M192.84 427.04c.16-.03.13-.19-.03-.16-.36-.09-.3.23.03.16M200.25 399.53c-.16.03-.23-.29-.06-.32.16-.04.23.28.06.32M206.76 410.98c-.17.03-.23-.29-.03-.16.16-.03.2.13.03.16M307.12 395.43c-.99.19-1.73.84-2.69 1.19-4.55 1.38-9.16 2.44-13.8 3.34-1.16.22-5.83.96-6.83 1.15-.33.06-1.69.16-2.02.22l-.33.06-1.13.38c-.8.32-4.75 1.25-5.74 1.44-.81 1.16-3.4 13.53-3.46 15.05.33 2.61 1.88 6.16-.43 8.45-1 1.03-2.73 1.03-3.73 2.06l-2.32.45c-2.49.48-5.07.48-7.39.93-1.16.22-2.17 1.26-3.16 1.45-2.65.51-6.52.09-7.11-2.97-1.15-5.97 2.13-14.79 3.16-21.01 1.57-9.67 2.32-19.18 3.69-28.97.04-.68.25-1.39.12-2.03l4.69-30.01c.02-1.68.31-1.06.53-2.61 1.3-6.61 1.91-13.25 3.38-19.89 1.43-5.96.72-7.83 7.36-9.95 1.93-.71 3.59-1.03 5.58-1.41 4.31-.83 8.34-.44 12.57.08 1.42.23 2.39 2.55 3.97 2.75 1.9 1.81 3.03 4.1 4.29 6.19l5.57 10.13c-.11 1.19 1.4 1.9 1.62 3.03l-.13.19-.37.74.06.32c.52.9 2.98 5.61 3.69 6.64.03.16.23.29.26.45.64 1.55 1.18 3.45 2.29 4.74 6.19 8 10.02 17.13 14.81 25.9 1.13 2.29 3.32 4.71 4.58 6.81 2.99 4.77 5.64 9.61 8.43 14.26.61 1.39 2.11 2.94 2.4 4.39.06.32.35.94-.08 1.35 1.09.29 3.65 4.65 3.87 5.78l.03.16c-.13.19-.22 1.55-.19 1.71.2.13 1.18.77 1.54.87-.98 1.19-.78 1.32-1.92 2.55l-.14.19c.12.64 1.48.55 1.82.49l-3.63 1.7-.54.77c-.17.03-2.26.77-3.22 1.12l-.17.03c-2.32.45-4.87.61-7.02 1.02-.99.19-1.56.8-2.39.96-1.66.32-4.51.7-6.05-.17-6.71-3.55-10.36-16.23-13.99-22.55zm-28.81-17.34c6.13-1.19 11.84-2.79 17.98-3.98.33-.06.27-.39.24-.55-.25-1.29-1.69-2.52-2.1-3.78l-4.68-7.29-7.26-15.32c-1.3 1.26-1.44 9.48-1.66 11.86-.01.84-1.31 7.44-1.32 8.28l-.11 1.19c-.25 1.39-1.08 7.74-1.17 9.09zm-5.4-43.11c.33-.06.21-.71-.12-.64-.34.06-.21.71.12.64m32.54 25.99c.2.13.36.1.5-.1-.07-.32-.57-.22-.5.1m27.4 48.39-.06-.32-.33.06z"></path><path d="M286.32 282.64c-1.74-.69-3.53-1.28-5.33-1.79-3.81-1.07-7.18-2.78-10.03-5.37-3.75 5.41-8.89 9.76-14.08 13.91 8.03 5.96 17.42 7.48 27.48 6.51 4.06-.6 6.89-2.84 7.35-5.87.48-3.17-1.38-5.79-5.39-7.39" style="fill:#030101"></path><path d="M348.13 315.93c.24-.59.41-1.21.69-1.78.41-.83.88-1.59 1.3-2.43l.51-1.02c.02-.32.22-.64.37-.95.84-1.71 1.73-3.3 2.57-5l.71-1.44c0-.09.09-.38.13-.45l.69-1.4c-.02-.06.02-.42.05-.49.02-.04.15-.11.15-.11.09-.1.24-.3.24-.3l-.04-.11c-.02-.06-.91-.64-1.33-.85l-.61-.3c-.53-.26-1.14-.47-1.63-.71-.87-.43-.88-1.47-.75-2.3.11-.32.64-1.76.79-2.06.02-.04.11-.32.17-.44.24-.49.77-1.18 1.36-1.22.19.09 1 .45 1.19.54 1.21.6 2.37 1.31 3.58 1.91 3.64 1.8 7.43 3.2 11.03 4.99 1.52.75.56 2.87.07 3.86-.43.87-.71 1.35-1.68 1.58-.42-.11-.93-.32-1.36-.39l-3.22-1.6c-.08-.04-.95-.37-1.02-.41-.27-.13-.81-.36-.96-.05-.32.64-.47 1.42-.79 2.06-.17.34-.45.63-.6.93-.6 1.21-.65 2.65-1.29 3.84-.04.08-.62.87-.66.95l-.21.42c-.69 1.4-1.2 2.71-1.95 4.13-.13.45-.58.99-.52 1.44-.38.66-.92 1.76-1.2 2.61-.15.4-.32 1.4-.54 1.86-.02.04-.11.04-.11.04-.3.51-.75 1.52-1.39 1.67-.38.1-.76 0-1.12.06l-.76-.38c-.19-.09-1.33-.75-1.57-.92-1.4-.88-1.84-1.24-1.34-2.93.15-.59.26-.53.28-1.14.11-.29.64-1.45.77-1.71zm4.76-21.05c.08.04.21-.04.25-.11 0 0-.02-.06-.06-.08l-.08-.04z" style="stroke:#000;stroke-miterlimit:10"></path><path d="M380.01 324.3c-.39-.99-1.19-3.17-1.19-3.17l-.1-.01c-.07.14-.23.9-.25 1.04l-.01.1c-.14.91-.12 2.14-.19 2.91-.05.34-.43 2.54-.42 2.78-.16 1.06-.22 2.13-.27 3.15-.09.58.04 1.04-.04 1.56-.22 1.49-2.77.81-3.78.66-1.78-.27-2.33-.15-3.11-1.84-.11-.26-.2-.62-.15-.95l.22-3.74.06-.38.28-5.84c.56-3.1.65-6.33 1.11-9.4.33-2.21.71-4.45 1.28-6.58.02-.14.41-1.41.43-1.55.04-.24.26-1.43.3-1.67.01-.05.08-.19.12-.18l.01-.05c.03-.19-.05-.3-.03-.45l.03-.19.7-.09.1.01c2.67.15 5.41.22 7.95.6 1.01.15 1.95.44 2.91.53l2.47.86c1.14.27 2.09 1.44 3.62 3.34l1.03 1.97c.87 1.7.83 4.29.54 6.21l-.18 1.2c-.26.45-.38.88-.69 1.32-.28.55-.54.65-.83.95 0 0-.06.09-.11.08-.37.19-.38.58-.62.89-1.19 1.1-2.64 1.62-4.18 2.07l-.05.04.04.06c.37.79.78 1.69 1.14 2.57.1.31.46 1.54.51 1.84.41 1.53.95 3.13 1.57 4.6.27.48.64.98.86 1.45.14.36.17.81.36 1.18l.37.45c.26.24.77 2.42.69 2.9-.04.29-2.79.27-2.88.26-.86-.13-5.21-1.22-5.5-1.61-.05-.01-.05-.35-.04-.4l-.37-.5c-.75-1.24-1.07-2.02-1.6-3.43.01-.05-.09-.41-.08-.45-.07-.21-.3-.93-.3-.98-.22-.47-1.32-2.99-1.54-3.47-.01-.24-.08-.44-.19-.65m1.99-10.74c.24.04.22.47.32.49.1.01.35-.05.41-.13-.09-.06-.27-.19-.25-.28l.01-.05c.1-.03.49-.02.59-.01l.05.01s.04.05.03.1c-.05-.01-.17.12-.22.16l.24.04c.1.01.49.02.52-.17l.01-.05c.01-.05-.08-.11-.08-.11s.06-.04.1-.03c.1.01.11.26.3.29l.04-.24c1.05.16 3.14-.02 3.36-1.46.18-1.2-1-2.85-2.2-3.03l-1.34-.2c-.05-.01-.32-.15-.37-.15-.05-.01-.45.03-.49.02 0 0-.23-.13-.27-.14l-.1-.01c-.05-.01-.49.02-.59.01l-.1-.01c.01-.05-.01-.25-.05-.3l-.05-.01s-.06.09-.11.08-.49.02-.59.01c-.44-.02-1.32-.34-1.7-.11l-.11.72.01 2.26c-.01.05-.27 2.12-.09 2.24.1-.03.64 0 .73.01l.05.01c.55.52 1.31.04 1.94.04m-2.84 3.3c.11-.08.21-.12.23-.21 0 0-.29-.04-.3.05-.01 0 .03.11.07.16m.6-.06c.14.02.21-.07.28-.2-.15-.02-.26.06-.28.2m1.5-2.86.1.01c.05.01.2-.02.2-.02-.04-.05-.22-.13-.27-.14zm.94-5.6c.04.06.18.08.19.03.05-.04-.19-.08-.19-.03m-.16 5.66.06-.09-.14-.02zm2.82-7.71c.02-.14-.35-.25-.49-.32l-1.1-.16-.01.1s.28.09.47.12c.05.01.25-.01.29 0 .19.01.55.21.84.26m-1.13 2.28.01-.1-.19-.03c.04.11.09.11.18.13m.19.03.05.01c.05.01.25-.01.4-.04l-.14-.02c-.05-.01-.29-.1-.31.05m1.77-1.99.01-.1c.01-.05-.23-.13-.32-.15l-.05-.01c-.05-.01-.1.03-.11.08.14.08.28.15.47.18m-.23 6.83c-.05-.01-.03-.15.02-.14.09.01.07.15-.02.14m3.65-3.14.05.01c.06-.38-.09-.7-.3-.98l-.01.1zm.56-3.74c.05.01.06-.09.01-.1-.04 0-.06.1-.01.1m-.69 4.61c.06-.04.07-.14.02-.14-.04-.06-.07.13-.02.14m.96-4.13c.1.01.12-.13.02-.14-.09-.01-.11.13-.02.14m-.81 5.43c.05.01.06-.09.01-.1-.04-.01-.06.09-.01.1m.9 3.86c.05.01.07-.14.03-.19-.05-.01-.09.23-.03.19m.34-.64.19.03.02-.14c-.1-.02-.2.01-.21.11M397.8 330.14c-.93-2.52-1.42-5.22-1.61-7.95-.11-1.66.01-3.5.15-5.23.04-.92.39-1.75.68-2.58.24-.88.19-.98.33-1.85 0-.05.09-.21.09-.21.09-.16.91-1.53 1.05-1.69l.57-1.31c1.09-1.8 2.63-3.02 4.16-4.34.74-.25 1.26-.8 1.9-1.09l.25-.02c1.04-.33 1.93-.64 3.04-.72 1.61-.11 3.22.33 4.71.64.47.27.62.16 1.19.32.93.24 1.83.74 2.62 1.24 0 0 .16.09.21.09 3 1.57 4.4 4.31 5.52 7.27l.8 1.97c.37.99.46 2.3.54 3.41l.06.86c-.05 0-.19.22-.18.27 0 .05.21.14.22.19l.01.1-.09.11.02.35c.02.25.13.35.14.6.05.76-.09 1.63-.04 2.44.01.1.15.75.16.85l.02.35c-.22 1.28-.23 2.5-.45 3.83-.16 2.09-1.4 3.9-2.4 5.69-.05 0-.17.47-.26.63-.3.83-2.05 1.92-2.93 2.28-.14.11-1.77.73-1.97.85 0 0-.15.06-.2.06-.25.12-1.59.47-1.89.54-.05 0-.6.14-.75.15l-.1.01c-.45.03-1.52 0-1.52 0-.96.02-2.24-.1-3.26-.23l-.16-.09c-5.22-.71-8.24-3.24-10.63-7.79m6.44 2.25-.01-.1s-.66-.82-.94-1.15c-.06-.1-.11-.14-.26-.13.03.44.89 1.09 1.21 1.38m-.89-14.39.1-.01v-.05l-.1.01zm1.82 15.29.1-.01-.71-.71c0-.05-.11-.09-.11-.09l-.1.01c.06.14.56.81.82.8m-1.75-15.75.1-.01.02-.41-.15.01zm.58 6.14.15-.01-.01-.1-.15.01zm-.19-4.19c.25-.02.23-.32.22-.47-.2.01-.23.27-.22.47m-.18-3.33c.01.1.06.1.1-.01 0-.05-.15-.04-.1.01m.25 3.63.1-.01v-.05l-.1.01zm.05-1.53.1-.01v-.05l-.1.01zm-.39-8.49.1-.06-.2.01zm1.11 13.11c.1-.06.14-.11.14-.21-.1.01-.2.01-.24.12zm6.02 8.61c.46.12.97.09 1.42.05 1.41-.1 2.07-1.61 3.18-2.45.04-.15.34-.99.37-1.19 0-.05.18-.32.18-.37l.09-.11s.16.09.21.09c.4-.03.62-4.96.57-5.72-.11-1.61-.44-3.42-.66-5.08-.11-.9-1.05-2.66-1.45-3.35-.17-.24-1.31-2.09-1.43-2.34-.34-.48-1.01-1.45-1.77-1.4l.02.25c-.41-.02-.28-.44-.99-.39l-.2.01c.06.15.42.17.52.17l.01.1c-.5.03-.58-.37-.99-.34h-.05l.17.19.01.1c-1.35.3-1.42.66-2.55 1.24-.05-.05-.11-.09-.11-.14-.04.91-1.48 1.27-1.73 2.1-.15.72-.39 1.65-.5 2.37.01.15-.07 1.12-.11 1.38-.03.31-.02 1.88 0 2.23-.14.21-.15.77-.14.97l.11.14c0 .05-.09.11-.09.11.01.2.01.86.02 1.06.05.76.35 1.45.41 2.2l.01.1c-.11-.14-.27-.24-.42-.22.02.25.12.3.14.5l.01.15-.09.21.22.19.01.1c.02.25-.07.41-.06.66.03.45.41 1.59.59 1.89 0 0 .05 0 .05.05l-.05.05-.09.16.01.1c.03.5.77.91.81 1.46v.05l-.09.11c.14-.11.31.03.32.18.17.19.97.85 1.13.99.22.19.52.17.69.41zm-4.83-19.34c.15-.01.95-.88 1.09-1.09h-.05c-.3.03-1.07.74-1.04 1.09m1.72-1.49.24-.22-.1.01c-.05 0-.2.11-.2.11zm3.21 20.82c-.1.01-.12-.2-.01-.2.05-.01.06.2.01.2m5.23-4.26c-.1.01-.11-.09 0-.05.05-.01.05.04 0 .05m2 5.48c.05 0 .11.09.16.09h.05c.25-.02.46-.64.45-.84-.2.01-.67.6-.66.7zm.74-1.01c0 .05.05.05.05 0 .05-.06-.05-.05-.05 0m.27-.53h.05l-.01-.1H419zM440.2 335.46c-.05.01-.29 0-.34.01l-1.69-.12c-.35-.04-.58-.25-.9-.39-3.13-1.41-4.94-3.52-6.87-6.3-.23-.5-.59-.89-.77-1.4-.97-2.05-1.44-4.34-1.81-6.59-.39-2.39-.48-4.79-.44-7.25-.06-.68-.17-1.35-.09-2.05.33-2.51.92-4.92 2.57-6.9.21-.23 1.03-.31 1.46-.68.09-.06.56-.48.56-.48l2.21-1.24 1.2-.19c3.21-.52 6.39-.3 8.88 1.75.67-.4 1.8 1.38 1.83 1.87l.67 1.07.05.33c.07.43.07.73 0 1.23-.18.13-.59 2.11-.44 2.43-.1.02-.26-.06-.3-.05-.06-.04-.16-.07-.21-.06-.33.05-.43.36-.59.59l-.1.02s-.06-.09-.07-.14l-.05.01c-.38.06-.85.48-1.38.57-2.92.47-4.13-.31-5.23-3.13-.43-1.16-.16-1.3-1.6-1.07-.43.07-1.63.26-1.51.98-.05.01-.1-.03-.1-.03-.05.01-.17-.12-.17-.17-.44.32-.64 3.64-.58 4.02.11.97.61 3.14.34 3.92.22 1.05.2 1.83.36 2.84.09.58.33 1.13.42 1.7.01.05.05.29-.1.31l.26 1.63c.04.24.24.89.25.94l.11.08c.22-.18.07-.75.05-.89-.07-.43-.24-.85-.31-1.28-.04-.24-.04-.58.17-.76l.05.33c.04.24-.09.36-.06.55.05.33.29.59.34.88l.01.05c.01.05-.11.21-.15.27l.17.12.03.19c.03.19-.09.65-.27.78.02.1.04.58.07.73.05.33.54 1.83.91 1.97l-.05-.29c-.05-.29-.17-.46-.22-.75-.02-.14-.05-.29.14-.37.01.05.06.04.06.09l.06.04c.36.43.98 1.17 1.05 1.65.02.14-.05.3-.03.45.06.38 1.46 1.43 1.89 1.36.38-.06 1.99-3.81 2.45-4.57.35-.55 1.35-1.64 1.98-1.75.02.1.02.14-.06.21l.1-.02c.14-.02.43-.37.62-.44.43-.36 1.01-.41 1.54-.5.43-.07.61.1 1 .08l.48-.08c.2.02.69.62.77.81.08.18.76.42.93.59.36.38.69.92 1.05 1.3.06.04.17.17.18.22s-.08.41-.07.45c.02.1.16.71.13.81.05.29-.31.54-.31.84-.09.36-.21 2.34-.54 2.4-.1.02-.11-.08-.35-.04-.43.07-.4.85-.55 1.17l-.57 1.03c-.87 1.32-1.17 1.27-2.64 2.2-.05.01-.26.24-.3.25-.05.01-.21.23-.26.24s-.21-.11-.21-.11c-.14.02-1.09.57-1.21.69-.17.17.05.29-.29.34-.14.02-.24.04-.32-.14-.23.09-1.23.3-1.47.34l-.19.03.02.1 1.29-.21.02.1-1.56.35s-.23-.21-.29-.25c-.1.02-.35-.04-.4-.03-.14.02-.81.18-.95.2.02.05.21.02.24.21m-7.29-14.93-.09-.53c-.05.01-.03.1-.02.15s.06.34.11.38m5.6 10.54c.35.34.88.25 1.4.17.48-.08 1.21-.1 1.64-.46-.39.01-.8-.07-1.14-.06-.61-.15-1.62.02-1.79-.15l-.11.22c-.43-.23-.86-.74-1.26-1.12.1-.26-.51-.41-.41-.72-.51-1-1.34-2.19-1.65-3.22-.27-.74-.47-1.99-.59-2.75l-.14.02c-.14.02-.06.25-.15.27-.05.01-.06-.04-.1-.03-.27-1.04-.6-2.21-1.06-3.22l.04.24c.21 1.29.83 2.42 1.03 3.62l.02.14c-.11-.08-.21-.41-.22-.46-.17-.42-.76-2.24-.91-2.6l-.12-.13-.04.06.01.05c.16 1.01.41 2.19.86 3.15-.09.06-.07.16-.05.3.11.67 1.32 3.62 1.95 3.86l-.02-.14s.04-.06.09-.06c.01.05.13.18.13.18.01.05-.08.11-.08.11l-.04.06c.03.19.37.14.26.4l.64.63c.01.05.07.14.08.18.24.18 1.44 1.21 1.73 1.46m-2.77 2.91.05-.01c-.02-.1-.13-.22-.28-.2.02.14.08.23.23.21m-1.9-12.87-.04-.24c-.04.06-.08.11-.07.16s.11.08.11.08m.06.34c.1-.02.09-.06-.01-.05-.05.01-.03.1.01.05m.34 1.22-.07-.43c-.02-.14-.08-.48-.24-.55l.05.29c.04.23.07.38.26.69m2.1 4.43.44.32-.07-.43c.1-.02.35.04.31-.2-.05-.33-.46-.71-.6-.98-.47-1.05-.75-2.19-1.12-3.26-.02-.1-.17-.76-.2-.9l-.16-.07c-.03-.49-.12-1.06-.34-1.52l-.01-.05s-.05.01-.04.06c-.16.22-.03.69 0 .89.23 1.44.76 2.87.99 4.31l-.1.02c.11.61.36 1.5.9 1.81m.24.89c.1-.02.07-.16-.02-.14-.1.01-.07.16.02.14m.72.77-.02-.14c-.05-.29-.32-.49-.6-.64l.03.19c.04.24.21.7.59.59m-.25.92c-.1.02-.12-.13-.02-.14.1-.02.12.13.02.14m.21.66c.05-.01.03-.1-.02-.1-.1-.03-.07.16.02.1m-.41-3.42c-.05.01-.07-.14-.02-.14.14-.03.16.11.02.14m-.36-3.14c-.14.02-.17-.12-.02-.14.04-.01.07.13.02.14m.19 1.2c-.14.02-.17-.17-.03-.19.05-.01.08.18.03.19m-.03-.83c.01.05.01.39.03.49l-.03.1-.09-.57zm-1.78-13.08c-.1.02-.12-.13-.02-.14.09-.02.11.12.02.14m3.83 19.38c-.04-.24-.37-.19-.57-.15.05.28.38.18.57.15m-.03.4.17.17-.05.01c-.05.01-.1-.03-.1-.03s-.06-.04-.06-.09zm2 4.49c-.1-.03.66-.16.57-.09-.08.06-.46.12-.57.09m-.78-7.89c-.09.06-.11-.08-.02-.1.05 0 .06.1.02.1m1.63 7.35c.53-.09 1.05-.17 1.48-.29-.18-.22-.24-.26-.43-.23-.33.05-.84.28-1.27.35l-.03.15c.02.11.25.02.25.02m-.03-4.41c.02.1.11.08.1-.02-.01-.05-.11-.03-.1.02m.93.54.1-.02c.1-.02.18-.08.17-.17l-.01-.05c-.1.06-.18.12-.26.24m.55-.24.01.05c.1-.02.28-.1.26-.24-.11.01-.3.04-.27.19m-.39-2.69.01.05c.18-.08.24-.33.22-.48-.13.12-.26.24-.23.43m1.32 6.62c.05-.01.02-.2-.03-.19-.15.02-.11.21.03.19m-1.57-9.97.01.05c.05-.01.04-.06.09-.06.25-.29.49-.62.49-.92-.29.05-.64.59-.59.93m1.53 5.5c.14-.02.22-.18.3-.29l-.14.02c-.1.02-.18.13-.16.27m-.18-7.15.19-.03-.02-.14c-.09.02-.18.08-.17.17m-3.11-20.72c.14-.02.11-.22-.03-.19-.05.01-.02.2.03.19m4.18 8.22.1-.02-.02-.1z"></path><path d="M368.58 338.78c-5.83-2.4-11.79-4.46-17.55-7.07-10.53-4.77-19.77-11.28-27.85-19.53-12.65-12.92-25.38-25.74-38.07-38.62-.82-.83-1.62-1.69-2.28-2.64-1.64-2.37-1.58-4.49.07-6.41 1.79-2.08 4.28-2.63 6.76-1.49 2.17 1.01 3.95 2.73 6.27 3.55.53-.92-.17-1.48-.49-2.07-2.11-3.88-4.26-7.72-6.38-11.59-.36-.65-.67-1.34-.93-2.04-1.37-3.75-.61-6.82 2.07-8.43 2.38-1.42 5.35-.62 7.93 2.28.93 1.04 1.83 2.11 2.64 3.27.72 1.02 1.16 2.4 2.88 3.05-.11-2.35-.98-4.35-1.54-6.37-.67-2.4-1.65-4.72-2.52-7.06-.47-1.26-.74-2.55-.76-3.9-.04-3.57 2.15-6.72 5.32-7.61 3.03-.86 5.89.56 7.61 4.18 2.21 4.66 4.16 9.45 6.22 14.18.19.44.41.88 1 1.26-.15-2.72-.31-5.45-.46-8.17-.23-4.22 1.67-6.86 5.32-7.41 3.58-.54 6.8 1.68 7.78 5.48 1.55 5.98 2.04 12.13 2.83 18.24.25 1.92.49 3.84.82 6.37 1.25-1.78 1.69-3.17 2.15-4.54.61-1.83 1.38-3.56 2.8-4.95 1.98-1.91 4.27-2.56 6.88-1.7s3.81 2.9 3.99 5.51c.32 4.68-.57 9.3-1.08 13.92-.47 4.24.01 8.28 1.46 12.27.83 2.27 2.31 3.74 4.52 4.68 11.2 4.8 22.91 7.64 35.02 8.62 29.98 2.43 58.1-3.94 84.45-18.32 2.77-1.51 5.44-3.24 8.12-4.92 1.41-.89 2.84-1.37 3.94.24 1.17 1.71-.07 2.76-1.41 3.63-17.66 11.41-36.91 18.71-57.58 22.33-14.54 2.54-29.14 2.93-43.79.99-11.13-1.47-21.86-4.42-32.07-9.1-4.42-2.02-5.58-6.34-6.69-10.58-1.7-6.5.04-12.91.46-19.35.08-1.16.22-2.32.22-3.48 0-.85-.25-1.7-1.19-2.01-1.02-.33-1.83.18-2.37.97-.56.82-1 1.73-1.36 2.65-1.8 4.57-3.57 9.15-5.32 13.74-.52 1.36-1.21 2.47-2.87 2.17-1.64-.29-1.87-1.58-2.01-3.01-1.06-10.67-2.16-21.35-3.98-31.92a7.6 7.6 0 0 0-.72-2.12c-.5-.98-1.31-1.49-2.47-1.2-1.08.28-1.47 1.07-1.41 2.07.14 2.32.35 4.64.51 6.96.35 5.06.68 10.13 1.06 15.19.11 1.52.02 2.96-1.68 3.44-1.79.51-2.51-.84-3.1-2.2-3.75-8.72-7.5-17.43-11.25-26.15-.2-.46-.33-.96-.6-1.37-.65-1-1.05-2.51-2.74-1.89-1.59.59-2.09 1.98-1.67 3.47.72 2.56 1.63 5.06 2.54 7.56 2.71 7.52 5.45 15.02 8.18 22.53.17.47.32.95.48 1.42.42 1.24.3 2.34-.95 3.02-1.24.67-2.28.19-3.08-.81-2.14-2.66-4.24-5.35-6.35-8.04-3.03-3.86-6.03-7.76-9.11-11.59-.68-.84-1.52-2.37-2.71-1.59-1.09.72-.28 2.15.27 3.17 3.96 7.32 7.94 14.63 11.94 21.94.7 1.28 1.54 2.59.23 3.85-1.28 1.23-2.61.51-3.86-.27a990 990 0 0 0-11.68-7.23c-.78-.48-1.75-1.75-2.56-.79-.97 1.14.59 1.88 1.25 2.55 8.83 9.07 17.74 18.07 26.6 27.11 5.48 5.59 11.06 11.08 16.73 16.48 9.02 8.58 20 13.72 31.42 18.02 25.06 9.45 50.95 11.71 77.44 8.66 18.57-2.14 36.47-6.79 53.71-14 1.58-.66 3.2-1.04 4 .97.75 1.89-.66 2.7-2.13 3.3-19.55 8-39.81 13.17-60.89 14.92-15.42 1.28-30.79.83-46.05-1.93-.24-.04-.49.02-.74.04-6.53-1.57-13.06-3.18-19.59-4.78M192.19 251.9c5.91-.01 10.77 4.83 10.84 10.8.08 6.01-4.92 11.01-10.93 10.95-6.01-.07-10.93-4.95-10.84-10.78.1-6.2 4.83-10.96 10.93-10.97m4.92 10.99c.03-2.86-2.1-5.24-4.8-5.33-2.58-.09-5.05 2.35-5.14 5.09s2.18 5.18 4.9 5.26c2.78.08 5.01-2.14 5.04-5.02" class="LOGO-TOPE_LA_svg__st0"></path><path d="M376.79 241.23c.36-1.52.7-3.04 1.1-4.55.42-1.57 1.4-2.34 3.1-2.14 1.74.21 2.5 1.31 2.44 2.87-.08 1.97-.45 3.92-.69 5.88-.57 2.67-1.11 5.36-1.7 8.03-.62 2.79-1.59 3.44-4.43 2.86-2.61-.53-5.2-1.14-7.78-1.77-1.72-.42-2.65.01-2.9 1.94-.3 2.3-.85 4.57-1.33 6.85-.4 1.93-1.7 2.62-3.51 2.21-1.79-.41-2.34-1.78-2.05-3.44.69-3.93 1.46-7.85 2.2-11.77.48-2.53 2.29-2.87 4.35-2.48 2.53.47 5.04 1.05 7.52 1.74 1.92.53 3.05.24 3.16-2.02.06-1.43.34-2.82.52-4.21M288.38 213.91c2.89-7.77 5.78-15.54 8.66-23.31.2-.55.39-1.1.59-1.64.7-1.89 1.76-3.41 4.04-2.58 2.35.85 2 2.82 1.38 4.62-1.27 3.69-2.68 7.34-3.99 11.02-1.73 4.84-3.43 9.69-5.14 14.54-.48 1.05-.94 2.11-1.45 3.14-.7 1.42-1.92 1.79-3.35 1.4-1.56-.43-2.08-1.64-1.83-3.09.23-1.4.71-2.74 1.09-4.1M255.41 206.62c-1.08-3.09-3.23-5.6-4.69-8.49-.83-1.66-.78-3.08.97-4.04 1.6-.87 2.87-.36 3.82 1.13.93 1.47 1.6 3.1 2.84 4.37 2.16 3.71 4.33 7.41 6.5 11.12.33.57.72 1.12 1 1.71.74 1.55.54 3-.95 3.91-1.51.93-2.92.44-3.85-1.02-1.47-2.3-2.86-4.65-4.27-6.99-.37-.62-.66-1.33-1.37-1.7M202.14 237.38c-.03 3.5-2.9 6.39-6.32 6.38-3.36-.02-6.34-3.04-6.33-6.42.01-3.54 2.78-6.27 6.37-6.26 3.67 0 6.32 2.66 6.28 6.3M273.11 192.36c-.14-2.57-.3-5.13-.43-7.7-.08-1.7.54-3.01 2.38-3.19 1.92-.19 3.01.94 3.15 2.75.39 5.21.7 10.42.98 15.64.11 1.98-.65 3.56-2.87 3.56-2.28 0-2.74-1.66-2.8-3.61-.08-2.48-.31-4.96-.48-7.45.02.01.04.01.07 0M335.31 224.67c-.04-3.17 2.16-5.49 5.2-5.48 2.85.01 5.26 2.35 5.34 5.19.08 2.86-2.45 5.47-5.31 5.49-2.96.01-5.19-2.2-5.23-5.2" class="LOGO-TOPE_LA_svg__st0"></path><path d="M190.35 340.43c5.83-2.4 11.79-4.46 17.55-7.07 10.53-4.77 19.77-11.28 27.85-19.53 12.65-12.92 25.38-25.74 38.07-38.62.82-.83 1.62-1.69 2.28-2.64 1.64-2.37 1.58-4.49-.07-6.41-1.79-2.08-4.28-2.63-6.76-1.49-2.17 1.01-3.95 2.73-6.27 3.55-.53-.92.17-1.48.49-2.07 2.11-3.88 4.26-7.72 6.38-11.59.36-.65.67-1.34.93-2.04 1.37-3.75.61-6.82-2.07-8.43-2.38-1.42-5.35-.62-7.93 2.28-.93 1.04-1.83 2.11-2.64 3.27-.72 1.02-1.16 2.4-2.88 3.05.11-2.35.98-4.35 1.54-6.37.67-2.4 1.65-4.72 2.52-7.06.47-1.26.74-2.55.76-3.9.04-3.57-2.15-6.72-5.32-7.61-3.03-.86-5.89.56-7.61 4.18-2.21 4.66-4.16 9.45-6.22 14.18-.19.44-.41.88-1 1.26.15-2.72.31-5.45.46-8.17.23-4.22-1.67-6.86-5.32-7.41-3.58-.54-6.8 1.68-7.78 5.48-1.55 5.98-2.04 12.13-2.83 18.24-.25 1.92-.49 3.84-.82 6.37-1.25-1.78-1.69-3.17-2.15-4.54-.61-1.83-1.38-3.56-2.8-4.95-1.98-1.91-4.27-2.56-6.88-1.7s-3.81 2.9-3.99 5.51c-.32 4.68.57 9.3 1.08 13.92.47 4.24-.01 8.28-1.46 12.27-.83 2.27-2.31 3.74-4.52 4.68-11.2 4.8-22.91 7.64-35.02 8.62-29.98 2.43-58.1-3.94-84.45-18.32-2.77-1.51-5.44-3.24-8.12-4.92-1.41-.89-2.84-1.37-3.94.24-1.17 1.71.07 2.76 1.41 3.63 17.66 11.41 36.91 18.71 57.58 22.33 14.54 2.54 29.14 2.93 43.79.99 11.13-1.47 21.86-4.42 32.07-9.1 4.42-2.02 5.58-6.34 6.69-10.58 1.7-6.5-.04-12.91-.47-19.35-.08-1.16-.22-2.32-.22-3.48 0-.85.25-1.7 1.19-2.01 1.02-.33 1.83.18 2.37.97.56.82 1 1.73 1.36 2.65 1.8 4.57 3.57 9.15 5.32 13.74.52 1.36 1.21 2.47 2.87 2.17 1.64-.29 1.87-1.58 2.01-3.01 1.06-10.67 2.16-21.35 3.98-31.92.13-.73.38-1.46.72-2.12.5-.98 1.31-1.49 2.47-1.2 1.08.28 1.47 1.07 1.41 2.07-.14 2.32-.35 4.64-.51 6.96-.35 5.06-.68 10.13-1.06 15.19-.11 1.52-.02 2.96 1.68 3.44 1.79.51 2.51-.84 3.1-2.2 3.75-8.72 7.5-17.43 11.25-26.15.2-.46.33-.96.6-1.37.65-1 1.05-2.51 2.74-1.89 1.59.59 2.09 1.98 1.67 3.47-.72 2.56-1.63 5.06-2.54 7.56-2.71 7.52-5.45 15.02-8.18 22.53-.17.47-.32.95-.48 1.42-.42 1.24-.3 2.34.95 3.02 1.24.67 2.28.19 3.08-.81 2.14-2.66 4.24-5.35 6.35-8.04 3.03-3.86 6.03-7.76 9.11-11.59.68-.84 1.52-2.37 2.71-1.59 1.09.72.28 2.15-.27 3.17-3.96 7.32-7.94 14.63-11.94 21.94-.7 1.28-1.54 2.59-.23 3.85 1.28 1.23 2.61.51 3.86-.27 3.88-2.43 7.76-4.85 11.68-7.23.78-.48 1.75-1.75 2.56-.79.97 1.14-.59 1.88-1.25 2.55-8.83 9.07-17.74 18.07-26.6 27.11a684 684 0 0 1-16.73 16.48c-9.02 8.58-20 13.72-31.42 18.02-25.06 9.45-50.95 11.71-77.44 8.66-18.57-2.14-36.47-6.79-53.71-14-1.58-.66-3.2-1.04-4 .97-.75 1.89.66 2.7 2.13 3.3 19.55 8 39.81 13.17 60.89 14.92 15.42 1.28 30.79.83 46.05-1.93.24-.04.49.02.74.04 6.54-1.57 13.07-3.18 19.6-4.78" class="LOGO-TOPE_LA_svg__st0"></path><path d="M104.04 330.1c.11-.46.43-.88.54-1.34l.1-.41c.31-1.29.81-4.06.86-4.92l-.2.17.83-3.45-.08-.13c.2-1.04.19-2.14.35-3.24.89-4.15 1.87-8.22 2.66-12.4.21-1.09.5-2.28.65-3.39 0-.44.42-1.75.51-2.11.07-.31.32-.2.49-.43 7.02.98 13.81 2.89 17.87 8.94 3.21 4.81 3.95 10.33 2.61 15.9-.27 1.13-.91 3.55-1.61 4.63-.17.23-1.45 2.16-1.56 2.41-.77 1.18-.97 2.22-2.04 3.05l.11.24c-5.83 4.27-8.21 3.75-19.36 1.77-.31-.07-.92-.27-1-.62-1.93-.9-2.18-2.81-1.73-4.67m.07-1.67c-.06.04.04-.37.07-.31.1.08.05.28-.07.31m0 .71c-.1-.02-.05-.23.05-.21.03.07 0 .22-.05.21m.15 1.4c.06-.04.13-.3.1-.41-.09-.08-.23.49-.1.41m3.85-6.49c.1.02.14-.13.04-.15-.1-.03-.14.12-.04.15m5.33-.14c.03.11-.29 1.19-.32 1.34-.04.37-.17 2.96.01 3.11l.05.01c5.37 2.17 7.81.63 9.48-6.28 1.78-7.37 1.38-13.2-6.14-15.28l-.26-.06zM135.28 329.07c-.74-2.47-1.04-5.09-1.05-7.71-.01-1.6.23-3.35.46-5 .09-.87.48-1.65.81-2.43.29-.83.24-.92.43-1.75 0-.05.1-.19.1-.19.1-.15.96-1.41 1.11-1.56l.63-1.22c1.16-1.65 2.7-2.73 4.25-3.9.73-.2 1.26-.68 1.89-.93h.24c1.02-.25 1.89-.49 2.96-.5 1.55-.01 3.06.52 4.47.9.44.29.58.19 1.12.38.87.29 1.7.82 2.43 1.35 0 0 .15.1.19.1 2.77 1.69 3.95 4.4 4.83 7.3l.64 1.94c.3.97.3 2.23.31 3.3v.82c-.05 0-.19.19-.19.24s.19.14.19.19v.1l-.1.1v.34c0 .24.1.34.1.58 0 .73-.19 1.55-.18 2.33 0 .1.1.73.1.82v.34c-.29 1.21-.38 2.38-.66 3.64-.28 1.99-1.58 3.64-2.64 5.3-.05 0-.19.44-.29.58-.34.78-2.08 1.71-2.95 2-.15.1-1.74.59-1.94.69 0 0-.15.05-.19.05-.24.1-1.55.35-1.84.4-.05 0-.58.1-.73.1h-.1c-.44 0-1.46-.09-1.46-.09-.92-.04-2.14-.23-3.11-.42l-.15-.1c-4.94-.98-7.67-3.58-9.68-8.09m6.03 2.55v-.1s-.59-.82-.83-1.16c-.05-.1-.1-.15-.24-.14 0 .43.78 1.11 1.07 1.4m.04-13.83h.1v-.05h-.1zm.79 14.74h.1l-.63-.72c0-.05-.1-.1-.1-.1h-.1c.05.15.49.83.73.82m-.7-15.17h.1l.05-.39h-.15zm.17 5.91h.15v-.1h-.15zm.08-4.02c.24 0 .24-.29.24-.44-.19 0-.24.24-.24.44m.04-3.21c0 .1.05.1.1 0-.01-.04-.15-.04-.1 0m.01 3.5h.1v-.05h-.1zm.14-1.46h.1v-.05h-.1zm.16-8.15.1-.05h-.19zm.25 12.61c.1-.05.15-.1.14-.2-.1 0-.19 0-.24.1zm5.23 8.61c.44.14.92.14 1.36.14 1.36-.01 2.08-1.42 3.19-2.15.05-.15.38-.92.43-1.12 0-.05.19-.29.19-.34l.1-.1s.15.1.19.1c.39 0 .9-4.71.9-5.44-.01-1.55-.21-3.3-.31-4.9-.05-.87-.84-2.62-1.18-3.29-.15-.24-1.12-2.08-1.22-2.32-.29-.48-.88-1.45-1.61-1.45v.24c-.39-.05-.24-.44-.92-.43h-.19c.05.15.39.19.49.19v.1c-.49 0-.54-.39-.92-.38h-.05l.15.19v.1c-1.31.2-1.4.54-2.52 1.03-.05-.05-.1-.1-.1-.15-.09.87-1.5 1.12-1.79 1.9-.19.68-.48 1.55-.62 2.23 0 .15-.14 1.07-.19 1.31-.05.29-.14 1.79-.14 2.13-.14.19-.19.73-.19.92l.1.15c0 .05-.1.1-.1.1 0 .19-.04.82-.04 1.02 0 .73.25 1.41.25 2.13v.1c-.1-.15-.24-.24-.39-.24 0 .24.1.29.1.49v.15l-.1.19.19.19v.1c0 .24-.1.39-.09.63 0 .44.3 1.55.44 1.84 0 0 .05 0 .05.05l-.05.05-.1.15v.1c0 .49.68.92.69 1.45v.05l-.1.1c.15-.1.29.05.29.19.15.19.88.87 1.02 1.01.19.19.49.19.63.43zm-3.43-18.8c.15 0 .97-.78 1.11-.98h-.05c-.29 0-1.06.64-1.06.98m1.74-1.32.24-.19h-.1c-.05 0-.19.1-.19.1zm1.78 20.12c-.1 0-.1-.19 0-.19.05 0 .05.19 0 .19m5.27-3.76c-.1 0-.1-.1 0-.05.05.01.05.05 0 .05m1.58 5.38c.05 0 .1.1.15.1h.05c.24 0 .48-.58.48-.78-.19 0-.68.54-.68.63zm.77-.92c0 .05.05.05.05 0 .05-.05-.05-.05-.05 0m.29-.49h.05v-.1h-.05zM166.66 321.5c-.01-.05.02-.4 0-.49l-.03-.14c-.06-.29-.44-1.64-.53-1.82l-.38-2.3-.11-.08c-.49-3.52-1.54-6.91-2.09-10.47-.05.01-.18-.16-.24-.2l-.02-.1a.34.34 0 0 1 .17-.13l-.02-.09-.08-.13c-.01-.05.04-.31.08-.32.14-.03.16.07.4.02.52-.11.08-.12.28-.31.04-.06.22-.14.3-.21.14-.03 1.03-.27 1.22-.31.9-.68 5.12-.18 4.94.16.05-.01.66.56.9.75l.6.52s.31.08.32.13c.06.04.16.31.17.36 0 0 .06.04.11.03.52.59.97 1.33 1.49 1.92l2.22 2.06c.54.43.73 1.14 1.17 1.59.06.04.73.64 1.02.83.54.43 1.1.76 1.48 1.38l1.05 1.47c-.13.32 1.65 1.98 1.91 2.28.58.62 1 1.23 1.54 1.91l-2.51-16.52-.27-1.28c-.14-.66.37-.37.47-.59.05-.01.05-.26.09-.27.28-.55 1.4-1.13 1.78-1.21l.05-.01c.05-.01.15.02.15.02l1.57-.33c.25.25.72.15.93.2 1 .04 1.63 1.39 1.89 2.38.09.43.27 2.22.31 2.66.01.05.05.48.06.53s.1.23.11.27l.04.19c.09.43.1.97.21 1.49l.12.57c.12.12.29 1.13.35 1.46l.27 1.53c.29.19.91 2.44.93 2.78l.05.24c.01.05.09.92.11 1.02l.01.05c.05.49.26.79.35 1.21.02.1.06.53.08.63-.08.11-.07.16-.04.3.06.53.34 1.17.55 1.67l2.33 9.23c.1.47.34.67.45 1.19.18 1.1-.21 1.58-1.09 2.11-.36.17-2.11.79-2.48.92l-2.04.43c-.11-.07-.83-.17-.98-.19-.41-.06-.78-.63-1.12-.86l-.84-.47-3.04-2.44c-.88-1.11-2.07-2.09-3.06-3.03-.57-.58-1.31-.82-1.89-1.44l-5.14-5.37c-.39-.22-.62-.81-1-.98-.03.55.12 1.51.24 1.88-.04.06-.03.1-.02.15s-.03.35-.01.45l.3 1.67c-.08.11-.06.21-.04.3.07.33.54.43.57.82.01.05.05.24-.05.26-.02-.1-.23-.4-.37-.37l-.05.01c.2.25.68 2.29.79 2.36.13.62.26 1.73.54 2.36.51-.16 1.29 2.6 1.33 3.04l.15.02.52 2.96c-.04.06-.1.22-.09.27l.06.28s-.13.08-.17.13c-1.14.73-2.35 1.33-3.68 1.61-2.47.52-2.93-1.47-3.31-3.52l-.08-.38c-.01-.05-.14-.22-.15-.27-.07-.09-.15-.47-.17-.56l.14-.03-.26-1.48-.11-.08-.52-2.96-.12-.12c-.21-1.24-.55-2.41-.81-3.65-.09.02-.12-.12-.03-.14l-.04-.19c-.05.01-.07-.09-.02-.1zm-1-4.3c-.05.01-.08-.13-.03-.14.1-.02.13.12.03.14m2.81 12.94c-.1.02-.12-.12-.03-.14.05.04.06.08.03.14m.08.43c-.1.02-.13-.17-.04-.19.06.04.08.13.04.19m.3 1.18c.04-.06.02-.15-.04-.19-.1-.03-.05.21.04.19M163.8 305c-.02-.09.08-.11.09-.02-.03.06-.08.07-.09.02m6.98 28.18c.05-.01.01-.2-.04-.19-.09.02-.05.21.04.19m-2.81-14.43c.09-.02.05-.26-.05-.24s-.05.26.05.24m1.58 5.67c.09-.07.05-.26-.06-.28-.05 0 .02.33.06.28m-.53-2.52.09-.07-.08-.13zm-.13-.87.05-.01c.05-.01.05-.46.06-.66l-.05-.24c-.29.07-.12.63-.06.91m.01-1.14.03-.11-.3-1.42c-.05.01-.13.08-.16.18l-.03-.14c.05-.01.14-.28.14-.28l-.18-.85c-.05.01-.18.09-.16.18l.22 1.29.05-.01.23 1.09zm-1.09-4.97-.01-.29-.03.11-.02.15zm-.16-1.01c.09-.07.02-.4-.1-.48-.06-.03.07.59.1.48m-.45-2.14c.1-.02.06-.21.05-.26-.02-.1-.05-.24-.15-.26zm2.94 10.29c.22.35.59 1.41.97 1.58l-.07-.33-.07-.09c-.01-.05.06-.21.06-.21l-.02-.1c-.03-.14-.04-.19-.2-.26.22-.14-.21-.75.02-.85l-.08-.63-.07-.09-.01-.05c-.05-.24-.05-.49-.1-.72l-.08-.38c-.29.01-.39-.46-.44-.7l-.11.42.05.24c.14.66-.26.9.03 1.58l-.02.15zm-.37-2.75c.08-.11.13-.32.15-.48l.01.05c.07.08.08.13.22.1-.11-.52-.59-2.6-.82-3 .01.05-.02.15-.01.2l-.03.11.1.23.03.14v.25c.01.05.1.23.11.27l-.02.15c-.03.11.11.77.12.82 0 .25-.14.28-.11.42.05.29.24.45.25.74m-.38-1.55c.09-.02.07-.16-.03-.14zm1.01 3.85.04.19c-.1-.03-.11-.08-.13-.17zm.12.57c-.09.02-.13-.17-.04-.19.04-.01.08.18.04.19m-.76-3.61-.05.01-.02-.09zm.57 2.46c-.04.06-.1-.23-.04-.19.04-.01.08.18.04.19m.1-.66c-.05.01-.1-.23-.05-.24.1-.02.15.22.05.24m2.45.08.02.09s-.13-.17-.14-.22l-.02-.1c.09-.01.12.13.14.23m-.07-.58c-.05.01-.08-.13-.03-.14.06.03.07.08.03.14m.38-.33c-.07.11-.13-.37-.07-.33.05.04.11.32.07.33m18.07 10.59c.09-.02.24-.05.26-.2-.05-.24-.12-.57-.28-.64-.16.18.02.79-.18.78.01.1.1.08.2.06"></path></svg>