<?xml version="1.0" encoding="utf-8"?>
<!-- Generator: Adobe Illustrator 26.3.1, SVG Export Plug-In . SVG Version: 6.00 Build 0)  -->
<svg version="1.1" id="Calque_1" xmlns="http://www.w3.org/2000/svg" xmlns:xlink="http://www.w3.org/1999/xlink" x="0px" y="0px"
	 viewBox="0 0 445.7 402.24" style="enable-background:new 0 0 445.7 402.24;" xml:space="preserve">
<style type="text/css">
	.st0{fill:#FFF0E3;}
</style>
<path d="M442.71,75.43c-2.18-12.29-6.84-23.38-13.75-33.47c-7.93-11.58-18.08-20.82-30.39-27.62c-9.89-5.46-20.41-8.92-31.64-10.35
	c-8.69-1.11-17.33-1.04-25.96,0.31c-7.46,1.16-14.59,3.43-21.54,6.4c-6.56,2.8-12.7,6.32-18.26,10.69
	c-5.98,4.71-11.56,9.94-17.31,14.95c-7.84,6.83-15.67,13.69-23.52,20.5c-9.17,7.95-18.38,15.86-27.54,23.81
	c-9.89,8.59-19.76,17.22-29.63,25.82c-6.69,5.83-13.38,11.67-20.07,17.49c-7.06,6.15-14.12,12.3-21.2,18.44
	c-7.34,6.36-14.71,12.67-22.04,19.03c-7.22,6.28-14.4,12.61-21.62,18.89c-7.96,6.91-15.95,13.78-23.92,20.68
	c-8.7,7.53-17.41,15.06-26.07,22.64c-1.75,1.53-3.57,2.96-4.47,5.34c-4.04,10.63-8.21,21.22-12.37,31.81
	c-6.19,15.75-12.41,31.49-18.62,47.23c-4.44,11.23-8.9,22.44-13.34,33.66c-5.47,13.8-10.99,27.59-16.36,41.43
	c-1.78,4.6-1.27,9.13,2.22,12.82c3.25,3.45,7.41,4.5,12.04,3.37c13.94-3.38,27.85-6.85,41.8-10.19c18.35-4.39,36.7-8.77,55.02-13.3
	c21.83-5.39,43.71-10.6,65.58-15.84c2.16-0.52,4.11-1.44,5.74-2.83c8.91-7.62,17.75-15.31,26.6-22.99
	c14.25-12.36,28.47-24.75,42.74-37.09c10.54-9.11,21.15-18.14,31.69-27.25c9.81-8.48,19.54-17.05,29.35-25.53
	c12.43-10.75,24.92-21.43,37.36-32.17c10.65-9.19,21.31-18.38,31.9-27.65c10.49-9.18,21.31-17.98,31.48-27.51
	c15.39-14.43,24.15-32.35,27.08-53.11C445.04,94.3,444.69,84.71,442.71,75.43z M141.11,324.06l-76.55,21.31l29.65-75.34
	c6,6.86,12,13.73,17.98,20.61C121.85,301.75,131.47,312.92,141.11,324.06z"/>
</svg>
